<?xml version="1.0" encoding="utf-8" standalone="no"?>
<!DOCTYPE svg PUBLIC "-//W3C//DTD SVG 1.1//EN"
  "http://www.w3.org/Graphics/SVG/1.1/DTD/svg11.dtd">
<svg xmlns:xlink="http://www.w3.org/1999/xlink" width="460.8pt" height="345.6pt" viewBox="0 0 460.8 345.6" xmlns="http://www.w3.org/2000/svg" version="1.1">
 <metadata>
  <rdf:RDF xmlns:dc="http://purl.org/dc/elements/1.1/" xmlns:cc="http://creativecommons.org/ns#" xmlns:rdf="http://www.w3.org/1999/02/22-rdf-syntax-ns#">
   <cc:Work>
    <dc:type rdf:resource="http://purl.org/dc/dcmitype/StillImage"/>
    <dc:date>2023-02-12T23:15:41.537385</dc:date>
    <dc:format>image/svg+xml</dc:format>
    <dc:creator>
     <cc:Agent>
      <dc:title>Matplotlib v3.6.3, https://matplotlib.org/</dc:title>
     </cc:Agent>
    </dc:creator>
   </cc:Work>
  </rdf:RDF>
 </metadata>
 <defs>
  <style type="text/css">*{stroke-linejoin: round; stroke-linecap: butt}</style>
 </defs>
 <g id="figure_1">
  <g id="patch_1">
   <path d="M 0 345.6 
L 460.8 345.6 
L 460.8 0 
L 0 0 
z
" style="fill: #ffffff"/>
  </g>
  <g id="axes_1">
   <g id="patch_2">
    <path d="M 57.6 307.584 
L 414.72 307.584 
L 414.72 41.472 
L 57.6 41.472 
z
" style="fill: #ffffff"/>
   </g>
   <g id="matplotlib.axis_1">
    <g id="xtick_1">
     <g id="line2d_1">
      <path d="M 73.832727 307.584 
L 73.832727 41.472 
" clip-path="url(#p96520897e0)" style="fill: none; stroke: #b0b0b0; stroke-width: 0.8; stroke-linecap: square"/>
     </g>
     <g id="line2d_2">
      <defs>
       <path id="m49a120889b" d="M 0 0 
L 0 3.5 
" style="stroke: #000000; stroke-width: 0.8"/>
      </defs>
      <g>
       <use xlink:href="#m49a120889b" x="73.832727" y="307.584" style="stroke: #000000; stroke-width: 0.8"/>
      </g>
     </g>
     <g id="text_1">
      <!-- 0 -->
      <g transform="translate(70.651477 322.182437) scale(0.1 -0.1)">
       <defs>
        <path id="DejaVuSans-30" d="M 2034 4250 
Q 1547 4250 1301 3770 
Q 1056 3291 1056 2328 
Q 1056 1369 1301 889 
Q 1547 409 2034 409 
Q 2525 409 2770 889 
Q 3016 1369 3016 2328 
Q 3016 3291 2770 3770 
Q 2525 4250 2034 4250 
z
M 2034 4750 
Q 2819 4750 3233 4129 
Q 3647 3509 3647 2328 
Q 3647 1150 3233 529 
Q 2819 -91 2034 -91 
Q 1250 -91 836 529 
Q 422 1150 422 2328 
Q 422 3509 836 4129 
Q 1250 4750 2034 4750 
z
" transform="scale(0.015625)"/>
       </defs>
       <use xlink:href="#DejaVuSans-30"/>
      </g>
     </g>
    </g>
    <g id="xtick_2">
     <g id="line2d_3">
      <path d="M 128.304966 307.584 
L 128.304966 41.472 
" clip-path="url(#p96520897e0)" style="fill: none; stroke: #b0b0b0; stroke-width: 0.8; stroke-linecap: square"/>
     </g>
     <g id="line2d_4">
      <g>
       <use xlink:href="#m49a120889b" x="128.304966" y="307.584" style="stroke: #000000; stroke-width: 0.8"/>
      </g>
     </g>
     <g id="text_2">
      <!-- 50 -->
      <g transform="translate(121.942466 322.182437) scale(0.1 -0.1)">
       <defs>
        <path id="DejaVuSans-35" d="M 691 4666 
L 3169 4666 
L 3169 4134 
L 1269 4134 
L 1269 2991 
Q 1406 3038 1543 3061 
Q 1681 3084 1819 3084 
Q 2600 3084 3056 2656 
Q 3513 2228 3513 1497 
Q 3513 744 3044 326 
Q 2575 -91 1722 -91 
Q 1428 -91 1123 -41 
Q 819 9 494 109 
L 494 744 
Q 775 591 1075 516 
Q 1375 441 1709 441 
Q 2250 441 2565 725 
Q 2881 1009 2881 1497 
Q 2881 1984 2565 2268 
Q 2250 2553 1709 2553 
Q 1456 2553 1204 2497 
Q 953 2441 691 2322 
L 691 4666 
z
" transform="scale(0.015625)"/>
       </defs>
       <use xlink:href="#DejaVuSans-35"/>
       <use xlink:href="#DejaVuSans-30" x="63.623047"/>
      </g>
     </g>
    </g>
    <g id="xtick_3">
     <g id="line2d_5">
      <path d="M 182.777206 307.584 
L 182.777206 41.472 
" clip-path="url(#p96520897e0)" style="fill: none; stroke: #b0b0b0; stroke-width: 0.8; stroke-linecap: square"/>
     </g>
     <g id="line2d_6">
      <g>
       <use xlink:href="#m49a120889b" x="182.777206" y="307.584" style="stroke: #000000; stroke-width: 0.8"/>
      </g>
     </g>
     <g id="text_3">
      <!-- 100 -->
      <g transform="translate(173.233456 322.182437) scale(0.1 -0.1)">
       <defs>
        <path id="DejaVuSans-31" d="M 794 531 
L 1825 531 
L 1825 4091 
L 703 3866 
L 703 4441 
L 1819 4666 
L 2450 4666 
L 2450 531 
L 3481 531 
L 3481 0 
L 794 0 
L 794 531 
z
" transform="scale(0.015625)"/>
       </defs>
       <use xlink:href="#DejaVuSans-31"/>
       <use xlink:href="#DejaVuSans-30" x="63.623047"/>
       <use xlink:href="#DejaVuSans-30" x="127.246094"/>
      </g>
     </g>
    </g>
    <g id="xtick_4">
     <g id="line2d_7">
      <path d="M 237.249445 307.584 
L 237.249445 41.472 
" clip-path="url(#p96520897e0)" style="fill: none; stroke: #b0b0b0; stroke-width: 0.8; stroke-linecap: square"/>
     </g>
     <g id="line2d_8">
      <g>
       <use xlink:href="#m49a120889b" x="237.249445" y="307.584" style="stroke: #000000; stroke-width: 0.8"/>
      </g>
     </g>
     <g id="text_4">
      <!-- 150 -->
      <g transform="translate(227.705695 322.182437) scale(0.1 -0.1)">
       <use xlink:href="#DejaVuSans-31"/>
       <use xlink:href="#DejaVuSans-35" x="63.623047"/>
       <use xlink:href="#DejaVuSans-30" x="127.246094"/>
      </g>
     </g>
    </g>
    <g id="xtick_5">
     <g id="line2d_9">
      <path d="M 291.721684 307.584 
L 291.721684 41.472 
" clip-path="url(#p96520897e0)" style="fill: none; stroke: #b0b0b0; stroke-width: 0.8; stroke-linecap: square"/>
     </g>
     <g id="line2d_10">
      <g>
       <use xlink:href="#m49a120889b" x="291.721684" y="307.584" style="stroke: #000000; stroke-width: 0.8"/>
      </g>
     </g>
     <g id="text_5">
      <!-- 200 -->
      <g transform="translate(282.177934 322.182437) scale(0.1 -0.1)">
       <defs>
        <path id="DejaVuSans-32" d="M 1228 531 
L 3431 531 
L 3431 0 
L 469 0 
L 469 531 
Q 828 903 1448 1529 
Q 2069 2156 2228 2338 
Q 2531 2678 2651 2914 
Q 2772 3150 2772 3378 
Q 2772 3750 2511 3984 
Q 2250 4219 1831 4219 
Q 1534 4219 1204 4116 
Q 875 4013 500 3803 
L 500 4441 
Q 881 4594 1212 4672 
Q 1544 4750 1819 4750 
Q 2544 4750 2975 4387 
Q 3406 4025 3406 3419 
Q 3406 3131 3298 2873 
Q 3191 2616 2906 2266 
Q 2828 2175 2409 1742 
Q 1991 1309 1228 531 
z
" transform="scale(0.015625)"/>
       </defs>
       <use xlink:href="#DejaVuSans-32"/>
       <use xlink:href="#DejaVuSans-30" x="63.623047"/>
       <use xlink:href="#DejaVuSans-30" x="127.246094"/>
      </g>
     </g>
    </g>
    <g id="xtick_6">
     <g id="line2d_11">
      <path d="M 346.193923 307.584 
L 346.193923 41.472 
" clip-path="url(#p96520897e0)" style="fill: none; stroke: #b0b0b0; stroke-width: 0.8; stroke-linecap: square"/>
     </g>
     <g id="line2d_12">
      <g>
       <use xlink:href="#m49a120889b" x="346.193923" y="307.584" style="stroke: #000000; stroke-width: 0.8"/>
      </g>
     </g>
     <g id="text_6">
      <!-- 250 -->
      <g transform="translate(336.650173 322.182437) scale(0.1 -0.1)">
       <use xlink:href="#DejaVuSans-32"/>
       <use xlink:href="#DejaVuSans-35" x="63.623047"/>
       <use xlink:href="#DejaVuSans-30" x="127.246094"/>
      </g>
     </g>
    </g>
    <g id="xtick_7">
     <g id="line2d_13">
      <path d="M 400.666162 307.584 
L 400.666162 41.472 
" clip-path="url(#p96520897e0)" style="fill: none; stroke: #b0b0b0; stroke-width: 0.8; stroke-linecap: square"/>
     </g>
     <g id="line2d_14">
      <g>
       <use xlink:href="#m49a120889b" x="400.666162" y="307.584" style="stroke: #000000; stroke-width: 0.8"/>
      </g>
     </g>
     <g id="text_7">
      <!-- 300 -->
      <g transform="translate(391.122412 322.182437) scale(0.1 -0.1)">
       <defs>
        <path id="DejaVuSans-33" d="M 2597 2516 
Q 3050 2419 3304 2112 
Q 3559 1806 3559 1356 
Q 3559 666 3084 287 
Q 2609 -91 1734 -91 
Q 1441 -91 1130 -33 
Q 819 25 488 141 
L 488 750 
Q 750 597 1062 519 
Q 1375 441 1716 441 
Q 2309 441 2620 675 
Q 2931 909 2931 1356 
Q 2931 1769 2642 2001 
Q 2353 2234 1838 2234 
L 1294 2234 
L 1294 2753 
L 1863 2753 
Q 2328 2753 2575 2939 
Q 2822 3125 2822 3475 
Q 2822 3834 2567 4026 
Q 2313 4219 1838 4219 
Q 1578 4219 1281 4162 
Q 984 4106 628 3988 
L 628 4550 
Q 988 4650 1302 4700 
Q 1616 4750 1894 4750 
Q 2613 4750 3031 4423 
Q 3450 4097 3450 3541 
Q 3450 3153 3228 2886 
Q 3006 2619 2597 2516 
z
" transform="scale(0.015625)"/>
       </defs>
       <use xlink:href="#DejaVuSans-33"/>
       <use xlink:href="#DejaVuSans-30" x="63.623047"/>
       <use xlink:href="#DejaVuSans-30" x="127.246094"/>
      </g>
     </g>
    </g>
    <g id="text_8">
     <!-- Generations -->
     <g transform="translate(205.662344 335.860562) scale(0.1 -0.1)">
      <defs>
       <path id="DejaVuSans-47" d="M 3809 666 
L 3809 1919 
L 2778 1919 
L 2778 2438 
L 4434 2438 
L 4434 434 
Q 4069 175 3628 42 
Q 3188 -91 2688 -91 
Q 1594 -91 976 548 
Q 359 1188 359 2328 
Q 359 3472 976 4111 
Q 1594 4750 2688 4750 
Q 3144 4750 3555 4637 
Q 3966 4525 4313 4306 
L 4313 3634 
Q 3963 3931 3569 4081 
Q 3175 4231 2741 4231 
Q 1884 4231 1454 3753 
Q 1025 3275 1025 2328 
Q 1025 1384 1454 906 
Q 1884 428 2741 428 
Q 3075 428 3337 486 
Q 3600 544 3809 666 
z
" transform="scale(0.015625)"/>
       <path id="DejaVuSans-65" d="M 3597 1894 
L 3597 1613 
L 953 1613 
Q 991 1019 1311 708 
Q 1631 397 2203 397 
Q 2534 397 2845 478 
Q 3156 559 3463 722 
L 3463 178 
Q 3153 47 2828 -22 
Q 2503 -91 2169 -91 
Q 1331 -91 842 396 
Q 353 884 353 1716 
Q 353 2575 817 3079 
Q 1281 3584 2069 3584 
Q 2775 3584 3186 3129 
Q 3597 2675 3597 1894 
z
M 3022 2063 
Q 3016 2534 2758 2815 
Q 2500 3097 2075 3097 
Q 1594 3097 1305 2825 
Q 1016 2553 972 2059 
L 3022 2063 
z
" transform="scale(0.015625)"/>
       <path id="DejaVuSans-6e" d="M 3513 2113 
L 3513 0 
L 2938 0 
L 2938 2094 
Q 2938 2591 2744 2837 
Q 2550 3084 2163 3084 
Q 1697 3084 1428 2787 
Q 1159 2491 1159 1978 
L 1159 0 
L 581 0 
L 581 3500 
L 1159 3500 
L 1159 2956 
Q 1366 3272 1645 3428 
Q 1925 3584 2291 3584 
Q 2894 3584 3203 3211 
Q 3513 2838 3513 2113 
z
" transform="scale(0.015625)"/>
       <path id="DejaVuSans-72" d="M 2631 2963 
Q 2534 3019 2420 3045 
Q 2306 3072 2169 3072 
Q 1681 3072 1420 2755 
Q 1159 2438 1159 1844 
L 1159 0 
L 581 0 
L 581 3500 
L 1159 3500 
L 1159 2956 
Q 1341 3275 1631 3429 
Q 1922 3584 2338 3584 
Q 2397 3584 2469 3576 
Q 2541 3569 2628 3553 
L 2631 2963 
z
" transform="scale(0.015625)"/>
       <path id="DejaVuSans-61" d="M 2194 1759 
Q 1497 1759 1228 1600 
Q 959 1441 959 1056 
Q 959 750 1161 570 
Q 1363 391 1709 391 
Q 2188 391 2477 730 
Q 2766 1069 2766 1631 
L 2766 1759 
L 2194 1759 
z
M 3341 1997 
L 3341 0 
L 2766 0 
L 2766 531 
Q 2569 213 2275 61 
Q 1981 -91 1556 -91 
Q 1019 -91 701 211 
Q 384 513 384 1019 
Q 384 1609 779 1909 
Q 1175 2209 1959 2209 
L 2766 2209 
L 2766 2266 
Q 2766 2663 2505 2880 
Q 2244 3097 1772 3097 
Q 1472 3097 1187 3025 
Q 903 2953 641 2809 
L 641 3341 
Q 956 3463 1253 3523 
Q 1550 3584 1831 3584 
Q 2591 3584 2966 3190 
Q 3341 2797 3341 1997 
z
" transform="scale(0.015625)"/>
       <path id="DejaVuSans-74" d="M 1172 4494 
L 1172 3500 
L 2356 3500 
L 2356 3053 
L 1172 3053 
L 1172 1153 
Q 1172 725 1289 603 
Q 1406 481 1766 481 
L 2356 481 
L 2356 0 
L 1766 0 
Q 1100 0 847 248 
Q 594 497 594 1153 
L 594 3053 
L 172 3053 
L 172 3500 
L 594 3500 
L 594 4494 
L 1172 4494 
z
" transform="scale(0.015625)"/>
       <path id="DejaVuSans-69" d="M 603 3500 
L 1178 3500 
L 1178 0 
L 603 0 
L 603 3500 
z
M 603 4863 
L 1178 4863 
L 1178 4134 
L 603 4134 
L 603 4863 
z
" transform="scale(0.015625)"/>
       <path id="DejaVuSans-6f" d="M 1959 3097 
Q 1497 3097 1228 2736 
Q 959 2375 959 1747 
Q 959 1119 1226 758 
Q 1494 397 1959 397 
Q 2419 397 2687 759 
Q 2956 1122 2956 1747 
Q 2956 2369 2687 2733 
Q 2419 3097 1959 3097 
z
M 1959 3584 
Q 2709 3584 3137 3096 
Q 3566 2609 3566 1747 
Q 3566 888 3137 398 
Q 2709 -91 1959 -91 
Q 1206 -91 779 398 
Q 353 888 353 1747 
Q 353 2609 779 3096 
Q 1206 3584 1959 3584 
z
" transform="scale(0.015625)"/>
       <path id="DejaVuSans-73" d="M 2834 3397 
L 2834 2853 
Q 2591 2978 2328 3040 
Q 2066 3103 1784 3103 
Q 1356 3103 1142 2972 
Q 928 2841 928 2578 
Q 928 2378 1081 2264 
Q 1234 2150 1697 2047 
L 1894 2003 
Q 2506 1872 2764 1633 
Q 3022 1394 3022 966 
Q 3022 478 2636 193 
Q 2250 -91 1575 -91 
Q 1294 -91 989 -36 
Q 684 19 347 128 
L 347 722 
Q 666 556 975 473 
Q 1284 391 1588 391 
Q 1994 391 2212 530 
Q 2431 669 2431 922 
Q 2431 1156 2273 1281 
Q 2116 1406 1581 1522 
L 1381 1569 
Q 847 1681 609 1914 
Q 372 2147 372 2553 
Q 372 3047 722 3315 
Q 1072 3584 1716 3584 
Q 2034 3584 2315 3537 
Q 2597 3491 2834 3397 
z
" transform="scale(0.015625)"/>
      </defs>
      <use xlink:href="#DejaVuSans-47"/>
      <use xlink:href="#DejaVuSans-65" x="77.490234"/>
      <use xlink:href="#DejaVuSans-6e" x="139.013672"/>
      <use xlink:href="#DejaVuSans-65" x="202.392578"/>
      <use xlink:href="#DejaVuSans-72" x="263.916016"/>
      <use xlink:href="#DejaVuSans-61" x="305.029297"/>
      <use xlink:href="#DejaVuSans-74" x="366.308594"/>
      <use xlink:href="#DejaVuSans-69" x="405.517578"/>
      <use xlink:href="#DejaVuSans-6f" x="433.300781"/>
      <use xlink:href="#DejaVuSans-6e" x="494.482422"/>
      <use xlink:href="#DejaVuSans-73" x="557.861328"/>
     </g>
    </g>
   </g>
   <g id="matplotlib.axis_2">
    <g id="ytick_1">
     <g id="line2d_15">
      <path d="M 57.6 278.167022 
L 414.72 278.167022 
" clip-path="url(#p96520897e0)" style="fill: none; stroke: #b0b0b0; stroke-width: 0.8; stroke-linecap: square"/>
     </g>
     <g id="line2d_16">
      <defs>
       <path id="m05c0eb710c" d="M 0 0 
L -3.5 0 
" style="stroke: #000000; stroke-width: 0.8"/>
      </defs>
      <g>
       <use xlink:href="#m05c0eb710c" x="57.6" y="278.167022" style="stroke: #000000; stroke-width: 0.8"/>
      </g>
     </g>
     <g id="text_9">
      <!-- −1.0 -->
      <g transform="translate(26.317187 281.966241) scale(0.1 -0.1)">
       <defs>
        <path id="DejaVuSans-2212" d="M 678 2272 
L 4684 2272 
L 4684 1741 
L 678 1741 
L 678 2272 
z
" transform="scale(0.015625)"/>
        <path id="DejaVuSans-2e" d="M 684 794 
L 1344 794 
L 1344 0 
L 684 0 
L 684 794 
z
" transform="scale(0.015625)"/>
       </defs>
       <use xlink:href="#DejaVuSans-2212"/>
       <use xlink:href="#DejaVuSans-31" x="83.789062"/>
       <use xlink:href="#DejaVuSans-2e" x="147.412109"/>
       <use xlink:href="#DejaVuSans-30" x="179.199219"/>
      </g>
     </g>
    </g>
    <g id="ytick_2">
     <g id="line2d_17">
      <path d="M 57.6 242.707752 
L 414.72 242.707752 
" clip-path="url(#p96520897e0)" style="fill: none; stroke: #b0b0b0; stroke-width: 0.8; stroke-linecap: square"/>
     </g>
     <g id="line2d_18">
      <g>
       <use xlink:href="#m05c0eb710c" x="57.6" y="242.707752" style="stroke: #000000; stroke-width: 0.8"/>
      </g>
     </g>
     <g id="text_10">
      <!-- −0.5 -->
      <g transform="translate(26.317187 246.50697) scale(0.1 -0.1)">
       <use xlink:href="#DejaVuSans-2212"/>
       <use xlink:href="#DejaVuSans-30" x="83.789062"/>
       <use xlink:href="#DejaVuSans-2e" x="147.412109"/>
       <use xlink:href="#DejaVuSans-35" x="179.199219"/>
      </g>
     </g>
    </g>
    <g id="ytick_3">
     <g id="line2d_19">
      <path d="M 57.6 207.248481 
L 414.72 207.248481 
" clip-path="url(#p96520897e0)" style="fill: none; stroke: #b0b0b0; stroke-width: 0.8; stroke-linecap: square"/>
     </g>
     <g id="line2d_20">
      <g>
       <use xlink:href="#m05c0eb710c" x="57.6" y="207.248481" style="stroke: #000000; stroke-width: 0.8"/>
      </g>
     </g>
     <g id="text_11">
      <!-- 0.0 -->
      <g transform="translate(34.696875 211.047699) scale(0.1 -0.1)">
       <use xlink:href="#DejaVuSans-30"/>
       <use xlink:href="#DejaVuSans-2e" x="63.623047"/>
       <use xlink:href="#DejaVuSans-30" x="95.410156"/>
      </g>
     </g>
    </g>
    <g id="ytick_4">
     <g id="line2d_21">
      <path d="M 57.6 171.78921 
L 414.72 171.78921 
" clip-path="url(#p96520897e0)" style="fill: none; stroke: #b0b0b0; stroke-width: 0.8; stroke-linecap: square"/>
     </g>
     <g id="line2d_22">
      <g>
       <use xlink:href="#m05c0eb710c" x="57.6" y="171.78921" style="stroke: #000000; stroke-width: 0.8"/>
      </g>
     </g>
     <g id="text_12">
      <!-- 0.5 -->
      <g transform="translate(34.696875 175.588429) scale(0.1 -0.1)">
       <use xlink:href="#DejaVuSans-30"/>
       <use xlink:href="#DejaVuSans-2e" x="63.623047"/>
       <use xlink:href="#DejaVuSans-35" x="95.410156"/>
      </g>
     </g>
    </g>
    <g id="ytick_5">
     <g id="line2d_23">
      <path d="M 57.6 136.329939 
L 414.72 136.329939 
" clip-path="url(#p96520897e0)" style="fill: none; stroke: #b0b0b0; stroke-width: 0.8; stroke-linecap: square"/>
     </g>
     <g id="line2d_24">
      <g>
       <use xlink:href="#m05c0eb710c" x="57.6" y="136.329939" style="stroke: #000000; stroke-width: 0.8"/>
      </g>
     </g>
     <g id="text_13">
      <!-- 1.0 -->
      <g transform="translate(34.696875 140.129158) scale(0.1 -0.1)">
       <use xlink:href="#DejaVuSans-31"/>
       <use xlink:href="#DejaVuSans-2e" x="63.623047"/>
       <use xlink:href="#DejaVuSans-30" x="95.410156"/>
      </g>
     </g>
    </g>
    <g id="ytick_6">
     <g id="line2d_25">
      <path d="M 57.6 100.870668 
L 414.72 100.870668 
" clip-path="url(#p96520897e0)" style="fill: none; stroke: #b0b0b0; stroke-width: 0.8; stroke-linecap: square"/>
     </g>
     <g id="line2d_26">
      <g>
       <use xlink:href="#m05c0eb710c" x="57.6" y="100.870668" style="stroke: #000000; stroke-width: 0.8"/>
      </g>
     </g>
     <g id="text_14">
      <!-- 1.5 -->
      <g transform="translate(34.696875 104.669887) scale(0.1 -0.1)">
       <use xlink:href="#DejaVuSans-31"/>
       <use xlink:href="#DejaVuSans-2e" x="63.623047"/>
       <use xlink:href="#DejaVuSans-35" x="95.410156"/>
      </g>
     </g>
    </g>
    <g id="ytick_7">
     <g id="line2d_27">
      <path d="M 57.6 65.411397 
L 414.72 65.411397 
" clip-path="url(#p96520897e0)" style="fill: none; stroke: #b0b0b0; stroke-width: 0.8; stroke-linecap: square"/>
     </g>
     <g id="line2d_28">
      <g>
       <use xlink:href="#m05c0eb710c" x="57.6" y="65.411397" style="stroke: #000000; stroke-width: 0.8"/>
      </g>
     </g>
     <g id="text_15">
      <!-- 2.0 -->
      <g transform="translate(34.696875 69.210616) scale(0.1 -0.1)">
       <use xlink:href="#DejaVuSans-32"/>
       <use xlink:href="#DejaVuSans-2e" x="63.623047"/>
       <use xlink:href="#DejaVuSans-30" x="95.410156"/>
      </g>
     </g>
    </g>
    <g id="text_16">
     <!-- Fitness -->
     <g transform="translate(20.2375 191.845187) rotate(-90) scale(0.1 -0.1)">
      <defs>
       <path id="DejaVuSans-46" d="M 628 4666 
L 3309 4666 
L 3309 4134 
L 1259 4134 
L 1259 2759 
L 3109 2759 
L 3109 2228 
L 1259 2228 
L 1259 0 
L 628 0 
L 628 4666 
z
" transform="scale(0.015625)"/>
      </defs>
      <use xlink:href="#DejaVuSans-46"/>
      <use xlink:href="#DejaVuSans-69" x="50.269531"/>
      <use xlink:href="#DejaVuSans-74" x="78.052734"/>
      <use xlink:href="#DejaVuSans-6e" x="117.261719"/>
      <use xlink:href="#DejaVuSans-65" x="180.640625"/>
      <use xlink:href="#DejaVuSans-73" x="242.164062"/>
      <use xlink:href="#DejaVuSans-73" x="294.263672"/>
     </g>
    </g>
   </g>
   <g id="line2d_29">
    <path d="M 73.832727 185.4298 
L 74.922172 207.859168 
L 76.011617 184.984196 
L 77.101062 192.999369 
L 78.190506 204.620161 
L 79.279951 184.807194 
L 80.369396 173.56503 
L 81.458841 199.971943 
L 82.548286 186.543123 
L 83.63773 187.880824 
L 84.727175 190.537511 
L 85.81662 158.225053 
L 86.906065 167.556555 
L 87.995509 184.524702 
L 89.084954 186.556913 
L 90.174399 176.98153 
L 91.263844 205.261185 
L 92.353289 195.183365 
L 93.442733 170.300511 
L 94.532178 182.793305 
L 95.621623 203.911468 
L 96.711068 184.656197 
L 97.800513 195.465266 
L 98.889957 176.222209 
L 99.979402 174.560549 
L 101.068847 170.575321 
L 102.158292 195.55096 
L 103.247736 175.326272 
L 104.337181 184.143811 
L 105.426626 158.197376 
L 106.516071 165.582261 
L 107.605516 165.490461 
L 109.784405 170.661703 
L 110.87385 194.020104 
L 111.963295 186.330466 
L 113.052739 169.753454 
L 114.142184 151.459917 
L 115.231629 165.685192 
L 116.321074 174.059785 
L 117.410519 187.167896 
L 118.499963 163.556355 
L 119.589408 175.179411 
L 120.678853 174.720411 
L 121.768298 186.992865 
L 122.857743 180.439203 
L 123.947187 179.018666 
L 125.036632 166.066773 
L 126.126077 167.45126 
L 127.215522 179.267077 
L 128.304966 188.239554 
L 129.394411 175.03984 
L 130.483856 184.507268 
L 131.573301 191.829903 
L 132.662746 177.39532 
L 133.75219 183.847923 
L 134.841635 204.370961 
L 135.93108 197.545544 
L 137.020525 197.919442 
L 138.109969 189.436895 
L 139.199414 185.386166 
L 141.378304 198.989031 
L 142.467749 170.145869 
L 143.557193 176.56774 
L 144.646638 180.194633 
L 145.736083 165.032446 
L 146.825528 173.380839 
L 147.914973 183.229553 
L 149.004417 169.535083 
L 150.093862 185.923965 
L 151.183307 191.720472 
L 153.362196 159.584129 
L 154.451641 166.080858 
L 155.541086 171.822699 
L 156.630531 185.320862 
L 157.719976 157.113996 
L 158.80942 168.39556 
L 159.898865 160.589793 
L 160.98831 182.94972 
L 162.077755 184.677276 
L 163.1672 159.038154 
L 164.256644 170.274705 
L 165.346089 169.233187 
L 166.435534 178.845014 
L 167.524979 160.145764 
L 168.614423 184.333321 
L 169.703868 144.857401 
L 170.793313 167.963253 
L 171.882758 201.929787 
L 172.972203 180.69382 
L 174.061647 176.052301 
L 175.151092 210.650305 
L 176.240537 184.458413 
L 177.329982 181.912635 
L 178.419426 152.503602 
L 179.508871 195.105748 
L 180.598316 184.831917 
L 181.687761 148.257551 
L 182.777206 157.803187 
L 183.86665 173.194776 
L 184.956095 173.980002 
L 186.04554 193.259897 
L 187.134985 190.432316 
L 188.22443 171.472342 
L 189.313874 196.878121 
L 190.403319 205.848923 
L 191.492764 178.96331 
L 192.582209 193.320966 
L 193.671653 169.131143 
L 194.761098 172.5833 
L 195.850543 180.187442 
L 196.939988 191.126431 
L 198.029433 186.70663 
L 199.118877 176.079782 
L 200.208322 179.732481 
L 201.297767 177.112533 
L 202.387212 160.153348 
L 203.476656 179.26294 
L 204.566101 177.352277 
L 205.655546 174.06343 
L 206.744991 168.675492 
L 207.834436 192.971987 
L 208.92388 184.218078 
L 210.013325 163.91341 
L 211.10277 171.766358 
L 212.192215 181.490669 
L 213.28166 177.488893 
L 214.371104 178.922926 
L 215.460549 173.413343 
L 216.549994 176.217383 
L 217.639439 160.413482 
L 218.728883 158.614121 
L 219.818328 164.464309 
L 220.907773 208.23346 
L 221.997218 176.288696 
L 223.086663 178.064516 
L 224.176107 196.591492 
L 225.265552 193.224536 
L 226.354997 182.258166 
L 227.444442 203.679505 
L 228.533887 190.019215 
L 229.623331 194.842661 
L 230.712776 184.546274 
L 231.802221 190.659944 
L 232.891666 177.433636 
L 233.98111 186.672845 
L 235.070555 182.192861 
L 236.16 183.57469 
L 237.249445 190.204883 
L 238.33889 188.696289 
L 239.428334 174.642006 
L 240.517779 179.757401 
L 241.607224 192.462359 
L 242.696669 167.526119 
L 243.786113 180.322976 
L 244.875558 155.523057 
L 245.965003 183.166908 
L 247.054448 177.642353 
L 248.143893 166.567536 
L 249.233337 181.183158 
L 250.322782 198.484427 
L 251.412227 163.789205 
L 252.501672 170.818906 
L 253.591117 174.711841 
L 254.680561 170.213932 
L 255.770006 207.519448 
L 256.859451 173.727453 
L 257.948896 175.588178 
L 259.03834 186.430934 
L 260.127785 173.55646 
L 261.21723 195.978638 
L 262.306675 170.151681 
L 264.485564 189.131551 
L 265.575009 179.36134 
L 266.664454 205.763131 
L 267.753899 207.110485 
L 268.843344 197.949976 
L 269.932788 191.333473 
L 271.022233 176.54814 
L 272.111678 197.890188 
L 273.201123 181.941396 
L 274.290567 184.2429 
L 275.380012 166.677657 
L 276.469457 186.328792 
L 277.558902 197.378393 
L 278.648347 191.026947 
L 279.737791 179.736518 
L 280.827236 149.323496 
L 281.916681 192.525889 
L 283.006126 174.082243 
L 284.09557 193.630348 
L 285.185015 183.011675 
L 286.27446 153.548469 
L 287.363905 180.176115 
L 288.45335 175.011374 
L 289.542794 160.774378 
L 290.632239 169.688248 
L 291.721684 181.308251 
L 292.811129 172.693913 
L 293.900574 175.696625 
L 294.990018 146.938171 
L 296.079463 167.586005 
L 297.168908 160.522617 
L 298.258353 174.729079 
L 299.347797 183.441717 
L 300.437242 147.629035 
L 301.526687 181.380647 
L 302.616132 184.357748 
L 303.705577 178.712337 
L 304.795021 181.500519 
L 305.884466 181.50111 
L 306.973911 180.154741 
L 308.063356 186.668412 
L 309.1528 183.596359 
L 310.242245 165.64461 
L 311.33169 171.848801 
L 312.421135 172.571973 
L 313.51058 183.007833 
L 314.600024 167.954191 
L 315.689469 185.502196 
L 316.778914 167.097259 
L 317.868359 182.080672 
L 318.957804 167.030674 
L 320.047248 166.838209 
L 321.136693 149.964718 
L 322.226138 182.261022 
L 323.315583 168.938777 
L 324.405027 163.740152 
L 325.494472 147.480107 
L 326.583917 175.09096 
L 327.673362 167.811073 
L 328.762807 173.43777 
L 329.852251 166.663769 
L 330.941696 161.879723 
L 332.031141 186.530909 
L 334.210031 177.985816 
L 335.299475 174.729571 
L 336.38892 192.944506 
L 337.478365 177.510268 
L 338.56781 203.83789 
L 339.657254 191.370607 
L 340.746699 197.634979 
L 341.836144 197.155097 
L 342.925589 192.542043 
L 344.015034 163.358275 
L 345.104478 172.418809 
L 346.193923 167.897949 
L 347.283368 171.307751 
L 348.372813 167.481893 
L 349.462257 181.231422 
L 350.551702 167.177239 
L 351.641147 171.779852 
L 352.730592 172.101153 
L 353.820037 165.483468 
L 354.909481 164.724935 
L 355.998926 166.271353 
L 357.088371 184.432016 
L 358.177816 162.012695 
L 359.267261 164.655297 
L 360.356705 175.033832 
L 361.44615 181.756909 
L 362.535595 184.608524 
L 363.62504 171.431761 
L 364.714484 167.435205 
L 365.803929 165.509274 
L 366.893374 165.567979 
L 367.982819 151.01382 
L 369.072264 180.71027 
L 370.161708 150.661296 
L 371.251153 157.622837 
L 372.340598 171.170839 
L 373.430043 173.134003 
L 374.519487 181.062597 
L 375.608932 178.910121 
L 376.698377 170.107258 
L 377.787822 167.798663 
L 378.877267 163.907107 
L 379.966711 175.069784 
L 381.056156 170.783447 
L 382.145601 167.805558 
L 383.235046 162.178368 
L 384.324491 174.020878 
L 385.413935 188.707813 
L 386.50338 164.377138 
L 387.592825 165.338971 
L 388.68227 176.586947 
L 389.771714 147.710296 
L 390.861159 178.207239 
L 391.950604 172.835751 
L 393.040049 189.94672 
L 394.129494 183.716526 
L 395.218938 169.34971 
L 396.308383 179.270623 
L 397.397828 175.834128 
L 398.487273 176.901156 
L 398.487273 176.901156 
" clip-path="url(#p96520897e0)" style="fill: none; stroke: #0000ff; stroke-width: 1.5; stroke-linecap: square"/>
   </g>
   <g id="line2d_30">
    <path d="M 73.832727 272.737612 
L 74.922172 293.525755 
L 76.011617 272.792735 
L 77.101062 281.186164 
L 78.190506 292.724471 
L 79.279951 277.249176 
L 80.369396 265.098237 
L 81.458841 289.515488 
L 82.548286 277.152046 
L 83.63773 275.756528 
L 84.727175 284.779132 
L 85.81662 252.121868 
L 86.906065 261.926257 
L 87.995509 276.872871 
L 89.084954 276.578836 
L 90.174399 270.053436 
L 91.263844 294.366667 
L 92.353289 286.688239 
L 93.442733 262.117143 
L 94.532178 271.81179 
L 95.621623 293.702306 
L 96.711068 272.824509 
L 97.800513 286.314544 
L 98.889957 267.453984 
L 99.979402 271.265622 
L 101.068847 262.571053 
L 102.158292 285.098571 
L 103.247736 267.315732 
L 104.337181 277.466314 
L 105.426626 253.155914 
L 106.516071 258.934751 
L 107.605516 257.909692 
L 108.69496 259.607384 
L 109.784405 263.055196 
L 110.87385 286.004357 
L 111.963295 279.680984 
L 113.052739 262.771485 
L 114.142184 248.435358 
L 115.231629 259.326109 
L 116.321074 267.138323 
L 117.410519 278.24081 
L 118.499963 257.83393 
L 119.589408 267.802135 
L 120.678853 269.42663 
L 121.768298 279.374924 
L 122.857743 276.475339 
L 123.947187 271.147908 
L 125.036632 262.048141 
L 126.126077 257.73033 
L 127.215522 273.501643 
L 128.304966 281.584189 
L 129.394411 266.224536 
L 130.483856 276.795929 
L 131.573301 284.90251 
L 132.662746 270.296201 
L 133.75219 278.777388 
L 134.841635 292.115677 
L 135.93108 283.29174 
L 137.020525 281.495496 
L 138.109969 277.876009 
L 139.199414 275.636443 
L 140.288859 281.031455 
L 141.378304 292.216607 
L 142.467749 266.024967 
L 143.557193 275.123053 
L 144.646638 271.756331 
L 145.736083 258.086689 
L 147.914973 275.266035 
L 149.004417 264.784022 
L 150.093862 282.349873 
L 151.183307 285.98361 
L 152.272752 266.994217 
L 153.362196 254.826975 
L 154.451641 259.932657 
L 155.541086 268.219165 
L 156.630531 279.868 
L 157.719976 248.724022 
L 158.80942 263.473312 
L 159.898865 253.73587 
L 160.98831 276.71313 
L 162.077755 277.664515 
L 163.1672 253.219695 
L 164.256644 266.726508 
L 165.346089 267.263836 
L 166.435534 273.855452 
L 167.524979 254.907961 
L 168.614423 274.670338 
L 169.703868 234.754388 
L 170.793313 260.299541 
L 171.882758 288.464444 
L 172.972203 275.345998 
L 174.061647 267.265983 
L 175.151092 294.467659 
L 176.240537 277.057728 
L 177.329982 275.033791 
L 178.419426 246.645906 
L 179.508871 287.877498 
L 180.598316 278.364455 
L 181.687761 239.169043 
L 183.86665 268.860001 
L 184.956095 267.34515 
L 186.04554 280.422333 
L 187.134985 284.520857 
L 188.22443 265.129377 
L 189.313874 285.466363 
L 190.403319 289.989894 
L 191.492764 268.529815 
L 192.582209 285.569046 
L 193.671653 257.372721 
L 194.761098 265.975692 
L 195.850543 275.789097 
L 196.939988 281.190995 
L 198.029433 278.014125 
L 199.118877 263.124836 
L 200.208322 273.221956 
L 201.297767 273.184199 
L 202.387212 256.25966 
L 203.476656 271.564917 
L 204.566101 273.303766 
L 205.655546 265.319341 
L 206.744991 266.257765 
L 207.834436 281.699776 
L 208.92388 276.377171 
L 210.013325 260.704118 
L 211.10277 266.674382 
L 212.192215 275.615711 
L 213.28166 274.348519 
L 214.371104 270.082571 
L 215.460549 268.365841 
L 216.549994 267.307015 
L 217.639439 249.676023 
L 218.728883 249.557593 
L 219.818328 256.864233 
L 220.907773 289.740868 
L 221.997218 266.782944 
L 223.086663 268.036729 
L 224.176107 289.676149 
L 225.265552 279.881239 
L 226.354997 278.551296 
L 227.444442 289.955552 
L 228.533887 283.080184 
L 229.623331 283.602469 
L 230.712776 279.202575 
L 231.802221 284.512093 
L 232.891666 270.741189 
L 233.98111 278.856369 
L 235.070555 273.69045 
L 236.16 277.180009 
L 237.249445 281.900463 
L 238.33889 280.379808 
L 239.428334 267.57822 
L 240.517779 272.962669 
L 241.607224 282.541595 
L 242.696669 261.887655 
L 243.786113 276.428652 
L 244.875558 250.068212 
L 245.965003 276.557182 
L 247.054448 270.422117 
L 248.143893 261.436965 
L 250.322782 283.243135 
L 251.412227 257.710249 
L 252.501672 265.70907 
L 253.591117 272.046826 
L 254.680561 265.17794 
L 255.770006 294.417375 
L 256.859451 266.438455 
L 257.948896 266.97671 
L 259.03834 278.856851 
L 260.127785 266.962421 
L 261.21723 286.87327 
L 262.306675 265.810437 
L 263.39612 275.75458 
L 264.485564 282.569998 
L 265.575009 273.737771 
L 266.664454 294.327321 
L 267.753899 295.488 
L 269.932788 280.044967 
L 271.022233 266.63738 
L 272.111678 285.413694 
L 273.201123 270.662284 
L 274.290567 276.943103 
L 275.380012 259.66416 
L 276.469457 279.410742 
L 277.558902 286.353028 
L 278.648347 282.723053 
L 279.737791 272.951505 
L 280.827236 242.657483 
L 281.916681 285.976129 
L 283.006126 265.405434 
L 284.09557 287.693503 
L 285.185015 276.735866 
L 286.27446 244.196204 
L 287.363905 274.768394 
L 288.45335 273.463593 
L 289.542794 251.907153 
L 290.632239 263.953678 
L 291.721684 277.887672 
L 292.811129 263.932645 
L 293.900574 270.13125 
L 294.990018 238.101568 
L 296.079463 262.05282 
L 297.168908 254.657899 
L 298.258353 267.499153 
L 299.347797 273.312687 
L 300.437242 237.064823 
L 301.526687 274.6626 
L 302.616132 274.603377 
L 303.705577 270.087214 
L 304.795021 274.176122 
L 305.884466 268.050567 
L 306.973911 273.715862 
L 308.063356 277.381975 
L 309.1528 275.484829 
L 310.242245 259.517498 
L 311.33169 265.582451 
L 312.421135 262.639418 
L 313.51058 278.881941 
L 314.600024 262.337868 
L 315.689469 277.874045 
L 316.778914 263.39577 
L 317.868359 277.410738 
L 318.957804 262.54485 
L 320.047248 260.855278 
L 321.136693 241.680773 
L 322.226138 277.927986 
L 323.315583 260.036391 
L 324.405027 254.978844 
L 325.494472 240.734723 
L 326.583917 269.515648 
L 327.673362 265.015742 
L 328.762807 265.03535 
L 329.852251 259.687335 
L 330.941696 259.191396 
L 332.031141 277.046464 
L 333.120586 273.045399 
L 334.210031 274.211368 
L 335.299475 270.448392 
L 336.38892 283.169451 
L 337.478365 270.261873 
L 338.56781 290.675982 
L 339.657254 279.258098 
L 340.746699 289.741649 
L 341.836144 285.926172 
L 342.925589 281.052398 
L 344.015034 254.490357 
L 345.104478 266.116297 
L 346.193923 262.775214 
L 347.283368 267.119937 
L 348.372813 260.986963 
L 349.462257 272.970876 
L 350.551702 262.371046 
L 351.641147 267.514287 
L 352.730592 268.564086 
L 353.820037 255.318203 
L 354.909481 257.515025 
L 355.998926 258.50446 
L 357.088371 274.545368 
L 358.177816 258.375973 
L 359.267261 260.807008 
L 360.356705 270.055747 
L 361.44615 274.369438 
L 362.535595 275.660353 
L 363.62504 265.308737 
L 365.803929 259.908261 
L 366.893374 255.894021 
L 367.982819 243.047537 
L 369.072264 270.569541 
L 370.161708 241.965065 
L 371.251153 255.528919 
L 372.340598 262.150516 
L 373.430043 267.984924 
L 374.519487 272.72675 
L 375.608932 271.68436 
L 376.698377 262.100323 
L 377.787822 262.504402 
L 378.877267 259.250601 
L 379.966711 267.653935 
L 381.056156 263.184268 
L 383.235046 256.408402 
L 384.324491 267.137713 
L 385.413935 281.545447 
L 386.50338 258.90819 
L 387.592825 260.555304 
L 388.68227 270.782831 
L 389.771714 239.382808 
L 390.861159 274.999993 
L 391.950604 263.620499 
L 393.040049 279.71887 
L 394.129494 277.083807 
L 395.218938 259.013255 
L 396.308383 271.271797 
L 397.397828 268.603759 
L 398.487273 270.472046 
L 398.487273 270.472046 
" clip-path="url(#p96520897e0)" style="fill: none; stroke-dasharray: 9.6,2.4,1.5,2.4; stroke-dashoffset: 0; stroke: #008000; stroke-width: 1.5"/>
   </g>
   <g id="line2d_31">
    <path d="M 73.832727 98.121988 
L 74.922172 122.192581 
L 76.011617 97.175656 
L 77.101062 104.812574 
L 78.190506 116.51585 
L 79.279951 92.365212 
L 80.369396 82.031822 
L 81.458841 110.428397 
L 82.548286 95.9342 
L 83.63773 100.00512 
L 84.727175 96.29589 
L 85.81662 64.328239 
L 86.906065 73.186853 
L 87.995509 92.176533 
L 89.084954 96.534989 
L 90.174399 83.909625 
L 91.263844 116.155703 
L 92.353289 103.678492 
L 93.442733 78.48388 
L 94.532178 93.774819 
L 95.621623 114.12063 
L 96.711068 96.487885 
L 97.800513 104.615989 
L 98.889957 84.990435 
L 99.979402 77.855475 
L 101.068847 78.579588 
L 102.158292 106.003348 
L 103.247736 83.336813 
L 104.337181 90.821307 
L 105.426626 63.238837 
L 106.516071 72.229772 
L 107.605516 73.07123 
L 108.69496 76.572261 
L 109.784405 78.26821 
L 110.87385 102.035851 
L 111.963295 92.979947 
L 113.052739 76.735422 
L 114.142184 54.484476 
L 115.231629 72.044275 
L 116.321074 80.981246 
L 117.410519 96.094981 
L 118.499963 69.27878 
L 119.589408 82.556688 
L 120.678853 80.014192 
L 121.768298 94.610805 
L 122.857743 84.403068 
L 123.947187 86.889423 
L 125.036632 70.085405 
L 126.126077 77.172191 
L 127.215522 85.032511 
L 128.304966 94.894918 
L 129.394411 83.855143 
L 130.483856 92.218607 
L 131.573301 98.757296 
L 132.662746 84.49444 
L 133.75219 88.918458 
L 134.841635 116.626245 
L 135.93108 111.799348 
L 137.020525 114.343388 
L 138.109969 100.997781 
L 139.199414 95.135888 
L 140.288859 103.979744 
L 141.378304 105.761456 
L 142.467749 74.266772 
L 143.557193 78.012428 
L 144.646638 88.632935 
L 145.736083 71.978203 
L 146.825528 80.481182 
L 147.914973 91.19307 
L 149.004417 74.286145 
L 150.093862 89.498056 
L 151.183307 97.457334 
L 152.272752 84.732152 
L 153.362196 64.341282 
L 154.451641 72.22906 
L 155.541086 75.426233 
L 156.630531 90.773723 
L 157.719976 65.503971 
L 158.80942 73.317809 
L 159.898865 67.443716 
L 160.98831 89.18631 
L 162.077755 91.690036 
L 163.1672 64.856613 
L 164.256644 73.822902 
L 165.346089 71.202539 
L 166.435534 83.834576 
L 167.524979 65.383567 
L 168.614423 93.996303 
L 169.703868 54.960413 
L 170.793313 75.626965 
L 171.882758 115.39513 
L 172.972203 86.041642 
L 174.061647 84.838619 
L 175.151092 126.832951 
L 176.240537 91.859098 
L 177.329982 88.791479 
L 178.419426 58.361298 
L 179.508871 102.333998 
L 180.598316 91.299379 
L 181.687761 57.346059 
L 182.777206 61.800759 
L 183.86665 77.529551 
L 184.956095 80.614853 
L 186.04554 106.09746 
L 187.134985 96.343774 
L 188.22443 77.815307 
L 189.313874 108.28988 
L 190.403319 121.707951 
L 191.492764 89.396805 
L 192.582209 101.072885 
L 193.671653 80.889566 
L 194.761098 79.190908 
L 195.850543 84.585787 
L 196.939988 101.061867 
L 198.029433 95.399134 
L 199.118877 89.034728 
L 200.208322 86.243005 
L 201.297767 81.040867 
L 202.387212 64.047036 
L 203.476656 86.960964 
L 204.566101 81.400788 
L 205.655546 82.807518 
L 206.744991 71.093219 
L 207.834436 104.244199 
L 208.92388 92.058986 
L 210.013325 67.122702 
L 212.192215 87.365627 
L 213.28166 80.629268 
L 214.371104 87.763281 
L 215.460549 78.460845 
L 216.549994 85.12775 
L 217.639439 71.150941 
L 218.728883 67.670648 
L 219.818328 72.064385 
L 220.907773 126.726053 
L 221.997218 85.794447 
L 223.086663 88.092303 
L 224.176107 103.506836 
L 225.265552 106.567833 
L 226.354997 85.965035 
L 227.444442 117.403458 
L 228.533887 96.958246 
L 229.623331 106.082852 
L 230.712776 89.889972 
L 231.802221 96.807795 
L 232.891666 84.126083 
L 233.98111 94.48932 
L 235.070555 90.695273 
L 236.16 89.96937 
L 237.249445 98.509304 
L 238.33889 97.012769 
L 239.428334 81.705793 
L 240.517779 86.552132 
L 241.607224 102.383123 
L 242.696669 73.164582 
L 243.786113 84.2173 
L 244.875558 60.977902 
L 245.965003 89.776633 
L 247.054448 84.86259 
L 248.143893 71.698108 
L 249.233337 89.602022 
L 250.322782 113.725719 
L 251.412227 69.86816 
L 252.501672 75.928742 
L 253.591117 77.376856 
L 254.680561 75.249924 
L 255.770006 120.621522 
L 256.859451 81.016451 
L 257.948896 84.199646 
L 259.03834 94.005016 
L 260.127785 80.1505 
L 261.21723 105.084005 
L 262.306675 74.492925 
L 263.39612 83.68615 
L 264.485564 95.693104 
L 265.575009 84.984909 
L 266.664454 117.198942 
L 267.753899 118.73297 
L 268.843344 107.845835 
L 269.932788 102.62198 
L 271.022233 86.458899 
L 272.111678 110.366682 
L 273.201123 93.220508 
L 274.290567 91.542696 
L 275.380012 73.691154 
L 276.469457 93.246841 
L 277.558902 108.403757 
L 278.648347 99.330842 
L 279.737791 86.521532 
L 280.827236 55.989509 
L 281.916681 99.075649 
L 283.006126 82.759052 
L 284.09557 99.567192 
L 285.185015 89.287484 
L 286.27446 62.900734 
L 287.363905 85.583837 
L 288.45335 76.559155 
L 289.542794 69.641604 
L 290.632239 75.422818 
L 291.721684 84.72883 
L 292.811129 81.455182 
L 293.900574 81.262 
L 294.990018 55.774773 
L 296.079463 73.119191 
L 297.168908 66.387336 
L 298.258353 81.959005 
L 299.347797 93.570747 
L 300.437242 58.193247 
L 301.526687 88.098694 
L 302.616132 94.112119 
L 303.705577 87.33746 
L 304.795021 88.824916 
L 305.884466 94.951652 
L 306.973911 86.59362 
L 308.063356 95.95485 
L 309.1528 91.707889 
L 310.242245 71.771723 
L 311.33169 78.115151 
L 313.51058 87.133725 
L 314.600024 73.570514 
L 315.689469 93.130348 
L 316.778914 70.798747 
L 317.868359 86.750607 
L 318.957804 71.516499 
L 320.047248 72.82114 
L 321.136693 58.248663 
L 322.226138 86.594058 
L 323.315583 77.841163 
L 324.405027 72.501461 
L 325.494472 54.225492 
L 326.583917 80.666273 
L 327.673362 70.606404 
L 328.762807 81.840191 
L 329.852251 73.640203 
L 330.941696 64.568049 
L 332.031141 96.015354 
L 333.120586 91.118308 
L 334.210031 81.760264 
L 335.299475 79.010751 
L 336.38892 102.719561 
L 337.478365 84.758662 
L 338.56781 116.999798 
L 339.657254 103.483117 
L 340.746699 105.52831 
L 341.836144 108.384023 
L 342.925589 104.031688 
L 344.015034 72.226194 
L 345.104478 78.721321 
L 346.193923 73.020684 
L 347.283368 75.495566 
L 348.372813 73.976824 
L 349.462257 89.491969 
L 350.551702 71.983433 
L 351.641147 76.045417 
L 352.730592 75.638219 
L 353.820037 75.648732 
L 354.909481 71.934845 
L 355.998926 74.038247 
L 357.088371 94.318663 
L 358.177816 65.649416 
L 359.267261 68.503586 
L 360.356705 80.011916 
L 361.44615 89.144381 
L 362.535595 93.556695 
L 363.62504 77.554784 
L 364.714484 72.230448 
L 365.803929 71.110287 
L 366.893374 75.241937 
L 367.982819 58.980103 
L 369.072264 90.850998 
L 370.161708 59.357527 
L 371.251153 59.716756 
L 372.340598 80.191163 
L 373.430043 78.283081 
L 374.519487 89.398444 
L 375.608932 86.135882 
L 376.698377 78.114193 
L 378.877267 68.563612 
L 379.966711 82.485632 
L 381.056156 78.382626 
L 382.145601 75.689259 
L 383.235046 67.948333 
L 384.324491 80.904044 
L 385.413935 95.870179 
L 386.50338 69.846087 
L 387.592825 70.122639 
L 388.68227 82.391064 
L 389.771714 56.037784 
L 390.861159 81.414486 
L 391.950604 82.051003 
L 393.040049 100.174571 
L 395.218938 79.686166 
L 396.308383 87.269449 
L 397.397828 83.064497 
L 398.487273 83.330266 
L 398.487273 83.330266 
" clip-path="url(#p96520897e0)" style="fill: none; stroke-dasharray: 9.6,2.4,1.5,2.4; stroke-dashoffset: 0; stroke: #008000; stroke-width: 1.5"/>
   </g>
   <g id="line2d_32">
    <path d="M 73.832727 56.816067 
L 74.922172 55.879948 
L 76.011617 56.170711 
L 77.101062 58.518116 
L 78.190506 55.156577 
L 79.279951 57.028824 
L 80.369396 54.411927 
L 81.458841 57.723823 
L 82.548286 54.433206 
L 83.63773 56.993368 
L 84.727175 54.674327 
L 85.81662 55.645911 
L 86.906065 58.574851 
L 87.995509 57.993316 
L 89.084954 57.071374 
L 90.174399 58.411737 
L 91.263844 57.738009 
L 92.353289 56.411832 
L 93.442733 57.135203 
L 94.532178 59.851386 
L 95.621623 54.950913 
L 96.711068 56.638775 
L 97.800513 55.759383 
L 98.889957 60.794598 
L 99.979402 60.886791 
L 101.068847 58.865615 
L 102.158292 54.72397 
L 103.247736 55.326784 
L 104.337181 57.39051 
L 105.426626 54.411927 
L 106.516071 57.340867 
L 107.605516 57.170659 
L 108.69496 55.518262 
L 109.784405 58.397551 
L 110.87385 56.872803 
L 111.963295 56.355096 
L 113.052739 58.000409 
L 114.142184 54.929634 
L 115.231629 55.922497 
L 116.321074 54.745249 
L 117.410519 57.404696 
L 118.499963 58.340815 
L 119.589408 57.660003 
L 120.678853 55.603362 
L 121.768298 56.589132 
L 122.857743 54.90127 
L 125.036632 56.738061 
L 126.126077 58.482659 
L 127.215522 55.333869 
L 128.304966 56.738061 
L 129.394411 56.418925 
L 131.573301 58.184794 
L 132.662746 57.752195 
L 133.75219 56.135255 
L 134.841635 55.071477 
L 135.93108 57.596174 
L 137.020525 60.971899 
L 138.109969 55.000556 
L 139.199414 56.227447 
L 140.288859 54.950913 
L 141.378304 56.27709 
L 142.467749 57.014638 
L 143.557193 54.794891 
L 144.646638 58.518116 
L 145.736083 56.638775 
L 146.825528 55.277141 
L 147.914973 54.915456 
L 149.004417 56.149432 
L 150.093862 55.050198 
L 151.183307 56.986275 
L 152.272752 54.220449 
L 153.362196 56.972088 
L 154.451641 54.284278 
L 155.541086 56.021783 
L 157.719976 57.234488 
L 158.80942 54.688513 
L 159.898865 55.433154 
L 160.98831 57.560717 
L 162.077755 57.730916 
L 163.1672 56.518211 
L 164.256644 55.731019 
L 165.346089 56.284183 
L 166.435534 54.660149 
L 167.524979 56.468568 
L 168.614423 56.872803 
L 169.703868 55.879948 
L 170.793313 58.355001 
L 171.882758 57.808931 
L 172.972203 57.553624 
L 174.061647 60.82297 
L 175.151092 54.929634 
L 176.240537 57.142296 
L 177.329982 55.099841 
L 178.419426 54.305557 
L 180.598316 58.085508 
L 181.687761 57.071374 
L 182.777206 57.376324 
L 183.86665 54.816171 
L 184.956095 57.206125 
L 186.04554 55.177848 
L 187.134985 55.617548 
L 188.22443 56.369282 
L 189.313874 57.596174 
L 190.403319 56.248718 
L 191.492764 56.667139 
L 192.582209 59.234393 
L 193.671653 55.809026 
L 194.761098 54.05025 
L 195.850543 56.546583 
L 198.029433 57.447245 
L 199.118877 54.255914 
L 200.208322 54.504128 
L 201.297767 55.362241 
L 202.387212 55.291319 
L 203.476656 56.844439 
L 204.566101 55.965047 
L 205.655546 56.340919 
L 206.744991 56.837346 
L 207.834436 55.92959 
L 208.92388 55.532448 
L 210.013325 55.801933 
L 211.10277 55.75229 
L 212.192215 59.723728 
L 213.28166 57.89403 
L 214.371104 57.035917 
L 215.460549 55.092748 
L 216.549994 55.965047 
L 217.639439 58.511023 
L 218.728883 54.752342 
L 219.818328 58.886894 
L 220.907773 54.801984 
L 221.997218 55.177848 
L 223.086663 54.05025 
L 224.176107 56.482754 
L 225.265552 57.879844 
L 226.354997 57.376324 
L 227.444442 58.610308 
L 228.533887 58.15643 
L 229.623331 58.98618 
L 230.712776 56.886989 
L 231.802221 55.099841 
L 232.891666 57.177753 
L 233.98111 55.085655 
L 235.070555 56.411832 
L 236.16 54.908363 
L 237.249445 55.596269 
L 238.33889 58.68123 
L 239.428334 54.766528 
L 240.517779 59.581893 
L 241.607224 55.745197 
L 242.696669 57.908216 
L 243.786113 57.425966 
L 244.875558 54.816171 
L 245.965003 58.709594 
L 247.054448 55.567905 
L 248.143893 57.411789 
L 249.233337 57.943673 
L 250.322782 56.121068 
L 251.412227 56.248718 
L 252.501672 55.638818 
L 253.591117 54.745249 
L 254.680561 56.170711 
L 255.770006 57.163566 
L 256.859451 57.135203 
L 257.948896 56.177804 
L 259.03834 55.064384 
L 260.127785 54.504128 
L 261.21723 56.787703 
L 263.39612 55.993411 
L 264.485564 57.028824 
L 265.575009 54.582134 
L 266.664454 58.120973 
L 267.753899 55.70974 
L 271.022233 55.390605 
L 273.201123 56.390561 
L 274.290567 58.539386 
L 275.380012 56.808974 
L 276.469457 55.787747 
L 277.558902 59.05 
L 278.648347 56.035969 
L 279.737791 56.86571 
L 280.827236 58.979087 
L 281.916681 55.149484 
L 283.006126 57.773474 
L 284.09557 55.284226 
L 285.185015 56.82316 
L 286.27446 56.184897 
L 287.363905 56.206168 
L 288.45335 58.610308 
L 289.542794 54.475756 
L 290.632239 57.404696 
L 292.811129 56.000504 
L 294.990018 55.518262 
L 296.079463 53.986421 
L 297.168908 55.887041 
L 298.258353 55.44734 
L 299.347797 55.532448 
L 300.437242 57.241581 
L 301.526687 55.433154 
L 302.616132 56.830253 
L 303.705577 58.688323 
L 304.795021 57.255767 
L 305.884466 59.908121 
L 306.973911 54.68142 
L 308.063356 54.972192 
L 309.1528 56.688418 
L 310.242245 56.80189 
L 311.33169 56.064333 
L 312.421135 54.936727 
L 313.51058 54.993463 
L 314.600024 54.383563 
L 315.689469 54.397749 
L 316.778914 55.716833 
L 317.868359 58.68123 
L 318.957804 58.057145 
L 320.047248 57.660003 
L 321.136693 55.965047 
L 322.226138 56.518211 
L 323.315583 56.326733 
L 324.405027 55.851576 
L 325.494472 55.248769 
L 326.583917 55.504076 
L 327.673362 55.574998 
L 328.762807 57.886937 
L 329.852251 55.894125 
L 330.941696 56.879896 
L 332.031141 58.177709 
L 333.120586 55.660098 
L 334.210031 55.106934 
L 335.299475 56.567853 
L 336.38892 56.60331 
L 337.478365 53.78785 
L 338.56781 58.120973 
L 339.657254 57.248674 
L 340.746699 54.319734 
L 341.836144 54.752342 
L 342.925589 58.057145 
L 344.015034 55.908311 
L 345.104478 56.716782 
L 346.193923 56.844439 
L 347.283368 55.199127 
L 348.372813 55.333869 
L 349.462257 57.163566 
L 350.551702 56.085612 
L 351.641147 57.369231 
L 352.730592 55.312598 
L 353.820037 55.440247 
L 354.909481 57.418873 
L 355.998926 57.099746 
L 357.088371 59.00745 
L 358.177816 56.177804 
L 359.267261 54.645963 
L 360.356705 54.993463 
L 361.44615 57.681273 
L 362.535595 58.014595 
L 363.62504 55.553719 
L 364.714484 57.277038 
L 365.803929 55.674284 
L 366.893374 55.12112 
L 367.982819 57.284131 
L 369.072264 59.872656 
L 370.161708 55.809026 
L 371.251153 55.277141 
L 372.340598 56.01469 
L 373.430043 55.574998 
L 374.519487 57.106839 
L 375.608932 57.135203 
L 376.698377 57.000461 
L 377.787822 58.929444 
L 378.877267 56.993368 
L 379.966711 58.085508 
L 381.056156 62.205883 
L 382.145601 57.496888 
L 383.235046 56.681325 
L 384.324491 54.546678 
L 385.413935 58.482659 
L 386.50338 56.957911 
L 387.592825 56.376375 
L 388.68227 56.404739 
L 389.771714 53.568 
L 390.861159 56.738061 
L 391.950604 56.333826 
L 393.040049 57.213218 
L 394.129494 59.908121 
L 395.218938 56.206168 
L 396.308383 57.163566 
L 397.397828 56.645868 
L 398.487273 55.922497 
L 398.487273 55.922497 
" clip-path="url(#p96520897e0)" style="fill: none; stroke: #ff0000; stroke-width: 1.5; stroke-linecap: square"/>
   </g>
   <g id="patch_3">
    <path d="M 57.6 307.584 
L 57.6 41.472 
" style="fill: none; stroke: #000000; stroke-width: 0.8; stroke-linejoin: miter; stroke-linecap: square"/>
   </g>
   <g id="patch_4">
    <path d="M 414.72 307.584 
L 414.72 41.472 
" style="fill: none; stroke: #000000; stroke-width: 0.8; stroke-linejoin: miter; stroke-linecap: square"/>
   </g>
   <g id="patch_5">
    <path d="M 57.6 307.584 
L 414.72 307.584 
" style="fill: none; stroke: #000000; stroke-width: 0.8; stroke-linejoin: miter; stroke-linecap: square"/>
   </g>
   <g id="patch_6">
    <path d="M 57.6 41.472 
L 414.72 41.472 
" style="fill: none; stroke: #000000; stroke-width: 0.8; stroke-linejoin: miter; stroke-linecap: square"/>
   </g>
   <g id="text_17">
    <!-- Population's average and best fitness -->
    <g transform="translate(123.529687 35.472) scale(0.12 -0.12)">
     <defs>
      <path id="DejaVuSans-50" d="M 1259 4147 
L 1259 2394 
L 2053 2394 
Q 2494 2394 2734 2622 
Q 2975 2850 2975 3272 
Q 2975 3691 2734 3919 
Q 2494 4147 2053 4147 
L 1259 4147 
z
M 628 4666 
L 2053 4666 
Q 2838 4666 3239 4311 
Q 3641 3956 3641 3272 
Q 3641 2581 3239 2228 
Q 2838 1875 2053 1875 
L 1259 1875 
L 1259 0 
L 628 0 
L 628 4666 
z
" transform="scale(0.015625)"/>
      <path id="DejaVuSans-70" d="M 1159 525 
L 1159 -1331 
L 581 -1331 
L 581 3500 
L 1159 3500 
L 1159 2969 
Q 1341 3281 1617 3432 
Q 1894 3584 2278 3584 
Q 2916 3584 3314 3078 
Q 3713 2572 3713 1747 
Q 3713 922 3314 415 
Q 2916 -91 2278 -91 
Q 1894 -91 1617 61 
Q 1341 213 1159 525 
z
M 3116 1747 
Q 3116 2381 2855 2742 
Q 2594 3103 2138 3103 
Q 1681 3103 1420 2742 
Q 1159 2381 1159 1747 
Q 1159 1113 1420 752 
Q 1681 391 2138 391 
Q 2594 391 2855 752 
Q 3116 1113 3116 1747 
z
" transform="scale(0.015625)"/>
      <path id="DejaVuSans-75" d="M 544 1381 
L 544 3500 
L 1119 3500 
L 1119 1403 
Q 1119 906 1312 657 
Q 1506 409 1894 409 
Q 2359 409 2629 706 
Q 2900 1003 2900 1516 
L 2900 3500 
L 3475 3500 
L 3475 0 
L 2900 0 
L 2900 538 
Q 2691 219 2414 64 
Q 2138 -91 1772 -91 
Q 1169 -91 856 284 
Q 544 659 544 1381 
z
M 1991 3584 
L 1991 3584 
z
" transform="scale(0.015625)"/>
      <path id="DejaVuSans-6c" d="M 603 4863 
L 1178 4863 
L 1178 0 
L 603 0 
L 603 4863 
z
" transform="scale(0.015625)"/>
      <path id="DejaVuSans-27" d="M 1147 4666 
L 1147 2931 
L 616 2931 
L 616 4666 
L 1147 4666 
z
" transform="scale(0.015625)"/>
      <path id="DejaVuSans-20" transform="scale(0.015625)"/>
      <path id="DejaVuSans-76" d="M 191 3500 
L 800 3500 
L 1894 563 
L 2988 3500 
L 3597 3500 
L 2284 0 
L 1503 0 
L 191 3500 
z
" transform="scale(0.015625)"/>
      <path id="DejaVuSans-67" d="M 2906 1791 
Q 2906 2416 2648 2759 
Q 2391 3103 1925 3103 
Q 1463 3103 1205 2759 
Q 947 2416 947 1791 
Q 947 1169 1205 825 
Q 1463 481 1925 481 
Q 2391 481 2648 825 
Q 2906 1169 2906 1791 
z
M 3481 434 
Q 3481 -459 3084 -895 
Q 2688 -1331 1869 -1331 
Q 1566 -1331 1297 -1286 
Q 1028 -1241 775 -1147 
L 775 -588 
Q 1028 -725 1275 -790 
Q 1522 -856 1778 -856 
Q 2344 -856 2625 -561 
Q 2906 -266 2906 331 
L 2906 616 
Q 2728 306 2450 153 
Q 2172 0 1784 0 
Q 1141 0 747 490 
Q 353 981 353 1791 
Q 353 2603 747 3093 
Q 1141 3584 1784 3584 
Q 2172 3584 2450 3431 
Q 2728 3278 2906 2969 
L 2906 3500 
L 3481 3500 
L 3481 434 
z
" transform="scale(0.015625)"/>
      <path id="DejaVuSans-64" d="M 2906 2969 
L 2906 4863 
L 3481 4863 
L 3481 0 
L 2906 0 
L 2906 525 
Q 2725 213 2448 61 
Q 2172 -91 1784 -91 
Q 1150 -91 751 415 
Q 353 922 353 1747 
Q 353 2572 751 3078 
Q 1150 3584 1784 3584 
Q 2172 3584 2448 3432 
Q 2725 3281 2906 2969 
z
M 947 1747 
Q 947 1113 1208 752 
Q 1469 391 1925 391 
Q 2381 391 2643 752 
Q 2906 1113 2906 1747 
Q 2906 2381 2643 2742 
Q 2381 3103 1925 3103 
Q 1469 3103 1208 2742 
Q 947 2381 947 1747 
z
" transform="scale(0.015625)"/>
      <path id="DejaVuSans-62" d="M 3116 1747 
Q 3116 2381 2855 2742 
Q 2594 3103 2138 3103 
Q 1681 3103 1420 2742 
Q 1159 2381 1159 1747 
Q 1159 1113 1420 752 
Q 1681 391 2138 391 
Q 2594 391 2855 752 
Q 3116 1113 3116 1747 
z
M 1159 2969 
Q 1341 3281 1617 3432 
Q 1894 3584 2278 3584 
Q 2916 3584 3314 3078 
Q 3713 2572 3713 1747 
Q 3713 922 3314 415 
Q 2916 -91 2278 -91 
Q 1894 -91 1617 61 
Q 1341 213 1159 525 
L 1159 0 
L 581 0 
L 581 4863 
L 1159 4863 
L 1159 2969 
z
" transform="scale(0.015625)"/>
      <path id="DejaVuSans-66" d="M 2375 4863 
L 2375 4384 
L 1825 4384 
Q 1516 4384 1395 4259 
Q 1275 4134 1275 3809 
L 1275 3500 
L 2222 3500 
L 2222 3053 
L 1275 3053 
L 1275 0 
L 697 0 
L 697 3053 
L 147 3053 
L 147 3500 
L 697 3500 
L 697 3744 
Q 697 4328 969 4595 
Q 1241 4863 1831 4863 
L 2375 4863 
z
" transform="scale(0.015625)"/>
     </defs>
     <use xlink:href="#DejaVuSans-50"/>
     <use xlink:href="#DejaVuSans-6f" x="56.677734"/>
     <use xlink:href="#DejaVuSans-70" x="117.859375"/>
     <use xlink:href="#DejaVuSans-75" x="181.335938"/>
     <use xlink:href="#DejaVuSans-6c" x="244.714844"/>
     <use xlink:href="#DejaVuSans-61" x="272.498047"/>
     <use xlink:href="#DejaVuSans-74" x="333.777344"/>
     <use xlink:href="#DejaVuSans-69" x="372.986328"/>
     <use xlink:href="#DejaVuSans-6f" x="400.769531"/>
     <use xlink:href="#DejaVuSans-6e" x="461.951172"/>
     <use xlink:href="#DejaVuSans-27" x="525.330078"/>
     <use xlink:href="#DejaVuSans-73" x="552.820312"/>
     <use xlink:href="#DejaVuSans-20" x="604.919922"/>
     <use xlink:href="#DejaVuSans-61" x="636.707031"/>
     <use xlink:href="#DejaVuSans-76" x="697.986328"/>
     <use xlink:href="#DejaVuSans-65" x="757.166016"/>
     <use xlink:href="#DejaVuSans-72" x="818.689453"/>
     <use xlink:href="#DejaVuSans-61" x="859.802734"/>
     <use xlink:href="#DejaVuSans-67" x="921.082031"/>
     <use xlink:href="#DejaVuSans-65" x="984.558594"/>
     <use xlink:href="#DejaVuSans-20" x="1046.082031"/>
     <use xlink:href="#DejaVuSans-61" x="1077.869141"/>
     <use xlink:href="#DejaVuSans-6e" x="1139.148438"/>
     <use xlink:href="#DejaVuSans-64" x="1202.527344"/>
     <use xlink:href="#DejaVuSans-20" x="1266.003906"/>
     <use xlink:href="#DejaVuSans-62" x="1297.791016"/>
     <use xlink:href="#DejaVuSans-65" x="1361.267578"/>
     <use xlink:href="#DejaVuSans-73" x="1422.791016"/>
     <use xlink:href="#DejaVuSans-74" x="1474.890625"/>
     <use xlink:href="#DejaVuSans-20" x="1514.099609"/>
     <use xlink:href="#DejaVuSans-66" x="1545.886719"/>
     <use xlink:href="#DejaVuSans-69" x="1581.091797"/>
     <use xlink:href="#DejaVuSans-74" x="1608.875"/>
     <use xlink:href="#DejaVuSans-6e" x="1648.083984"/>
     <use xlink:href="#DejaVuSans-65" x="1711.462891"/>
     <use xlink:href="#DejaVuSans-73" x="1772.986328"/>
     <use xlink:href="#DejaVuSans-73" x="1825.085938"/>
    </g>
   </g>
   <g id="legend_1">
    <g id="patch_7">
     <path d="M 334.779375 302.584 
L 407.72 302.584 
Q 409.72 302.584 409.72 300.584 
L 409.72 242.8715 
Q 409.72 240.8715 407.72 240.8715 
L 334.779375 240.8715 
Q 332.779375 240.8715 332.779375 242.8715 
L 332.779375 300.584 
Q 332.779375 302.584 334.779375 302.584 
z
" style="fill: #ffffff; opacity: 0.8; stroke: #cccccc; stroke-linejoin: miter"/>
    </g>
    <g id="line2d_33">
     <path d="M 336.779375 248.969937 
L 346.779375 248.969937 
L 356.779375 248.969937 
" style="fill: none; stroke: #0000ff; stroke-width: 1.5; stroke-linecap: square"/>
    </g>
    <g id="text_18">
     <!-- average -->
     <g transform="translate(364.779375 252.469937) scale(0.1 -0.1)">
      <use xlink:href="#DejaVuSans-61"/>
      <use xlink:href="#DejaVuSans-76" x="61.279297"/>
      <use xlink:href="#DejaVuSans-65" x="120.458984"/>
      <use xlink:href="#DejaVuSans-72" x="181.982422"/>
      <use xlink:href="#DejaVuSans-61" x="223.095703"/>
      <use xlink:href="#DejaVuSans-67" x="284.375"/>
      <use xlink:href="#DejaVuSans-65" x="347.851562"/>
     </g>
    </g>
    <g id="line2d_34">
     <path d="M 336.779375 263.648062 
L 346.779375 263.648062 
L 356.779375 263.648062 
" style="fill: none; stroke-dasharray: 9.6,2.4,1.5,2.4; stroke-dashoffset: 0; stroke: #008000; stroke-width: 1.5"/>
    </g>
    <g id="text_19">
     <!-- -1 sd -->
     <g transform="translate(364.779375 267.148062) scale(0.1 -0.1)">
      <defs>
       <path id="DejaVuSans-2d" d="M 313 2009 
L 1997 2009 
L 1997 1497 
L 313 1497 
L 313 2009 
z
" transform="scale(0.015625)"/>
      </defs>
      <use xlink:href="#DejaVuSans-2d"/>
      <use xlink:href="#DejaVuSans-31" x="36.083984"/>
      <use xlink:href="#DejaVuSans-20" x="99.707031"/>
      <use xlink:href="#DejaVuSans-73" x="131.494141"/>
      <use xlink:href="#DejaVuSans-64" x="183.59375"/>
     </g>
    </g>
    <g id="line2d_35">
     <path d="M 336.779375 278.326187 
L 346.779375 278.326187 
L 356.779375 278.326187 
" style="fill: none; stroke-dasharray: 9.6,2.4,1.5,2.4; stroke-dashoffset: 0; stroke: #008000; stroke-width: 1.5"/>
    </g>
    <g id="text_20">
     <!-- +1 sd -->
     <g transform="translate(364.779375 281.826187) scale(0.1 -0.1)">
      <defs>
       <path id="DejaVuSans-2b" d="M 2944 4013 
L 2944 2272 
L 4684 2272 
L 4684 1741 
L 2944 1741 
L 2944 0 
L 2419 0 
L 2419 1741 
L 678 1741 
L 678 2272 
L 2419 2272 
L 2419 4013 
L 2944 4013 
z
" transform="scale(0.015625)"/>
      </defs>
      <use xlink:href="#DejaVuSans-2b"/>
      <use xlink:href="#DejaVuSans-31" x="83.789062"/>
      <use xlink:href="#DejaVuSans-20" x="147.412109"/>
      <use xlink:href="#DejaVuSans-73" x="179.199219"/>
      <use xlink:href="#DejaVuSans-64" x="231.298828"/>
     </g>
    </g>
    <g id="line2d_36">
     <path d="M 336.779375 293.004312 
L 346.779375 293.004312 
L 356.779375 293.004312 
" style="fill: none; stroke: #ff0000; stroke-width: 1.5; stroke-linecap: square"/>
    </g>
    <g id="text_21">
     <!-- best -->
     <g transform="translate(364.779375 296.504312) scale(0.1 -0.1)">
      <use xlink:href="#DejaVuSans-62"/>
      <use xlink:href="#DejaVuSans-65" x="63.476562"/>
      <use xlink:href="#DejaVuSans-73" x="125"/>
      <use xlink:href="#DejaVuSans-74" x="177.099609"/>
     </g>
    </g>
   </g>
  </g>
 </g>
 <defs>
  <clipPath id="p96520897e0">
   <rect x="57.6" y="41.472" width="357.12" height="266.112"/>
  </clipPath>
 </defs>
</svg>
