<?xml version="1.0" encoding="utf-8" standalone="no"?>
<!DOCTYPE svg PUBLIC "-//W3C//DTD SVG 1.1//EN"
  "http://www.w3.org/Graphics/SVG/1.1/DTD/svg11.dtd">
<svg xmlns:xlink="http://www.w3.org/1999/xlink" width="460.8pt" height="345.6pt" viewBox="0 0 460.8 345.6" xmlns="http://www.w3.org/2000/svg" version="1.1">
 <metadata>
  <rdf:RDF xmlns:dc="http://purl.org/dc/elements/1.1/" xmlns:cc="http://creativecommons.org/ns#" xmlns:rdf="http://www.w3.org/1999/02/22-rdf-syntax-ns#">
   <cc:Work>
    <dc:type rdf:resource="http://purl.org/dc/dcmitype/StillImage"/>
    <dc:date>2023-02-10T08:03:55.865602</dc:date>
    <dc:format>image/svg+xml</dc:format>
    <dc:creator>
     <cc:Agent>
      <dc:title>Matplotlib v3.6.3, https://matplotlib.org/</dc:title>
     </cc:Agent>
    </dc:creator>
   </cc:Work>
  </rdf:RDF>
 </metadata>
 <defs>
  <style type="text/css">*{stroke-linejoin: round; stroke-linecap: butt}</style>
 </defs>
 <g id="figure_1">
  <g id="patch_1">
   <path d="M 0 345.6 
L 460.8 345.6 
L 460.8 0 
L 0 0 
z
" style="fill: #ffffff"/>
  </g>
  <g id="axes_1">
   <g id="patch_2">
    <path d="M 57.6 307.584 
L 414.72 307.584 
L 414.72 41.472 
L 57.6 41.472 
z
" style="fill: #ffffff"/>
   </g>
   <g id="matplotlib.axis_1">
    <g id="xtick_1">
     <g id="line2d_1">
      <path d="M 73.832727 307.584 
L 73.832727 41.472 
" clip-path="url(#pd355f7e4d8)" style="fill: none; stroke: #b0b0b0; stroke-width: 0.8; stroke-linecap: square"/>
     </g>
     <g id="line2d_2">
      <defs>
       <path id="m910a41ddea" d="M 0 0 
L 0 3.5 
" style="stroke: #000000; stroke-width: 0.8"/>
      </defs>
      <g>
       <use xlink:href="#m910a41ddea" x="73.832727" y="307.584" style="stroke: #000000; stroke-width: 0.8"/>
      </g>
     </g>
     <g id="text_1">
      <!-- 0 -->
      <g transform="translate(70.651477 322.182437) scale(0.1 -0.1)">
       <defs>
        <path id="DejaVuSans-30" d="M 2034 4250 
Q 1547 4250 1301 3770 
Q 1056 3291 1056 2328 
Q 1056 1369 1301 889 
Q 1547 409 2034 409 
Q 2525 409 2770 889 
Q 3016 1369 3016 2328 
Q 3016 3291 2770 3770 
Q 2525 4250 2034 4250 
z
M 2034 4750 
Q 2819 4750 3233 4129 
Q 3647 3509 3647 2328 
Q 3647 1150 3233 529 
Q 2819 -91 2034 -91 
Q 1250 -91 836 529 
Q 422 1150 422 2328 
Q 422 3509 836 4129 
Q 1250 4750 2034 4750 
z
" transform="scale(0.015625)"/>
       </defs>
       <use xlink:href="#DejaVuSans-30"/>
      </g>
     </g>
    </g>
    <g id="xtick_2">
     <g id="line2d_3">
      <path d="M 114.824463 307.584 
L 114.824463 41.472 
" clip-path="url(#pd355f7e4d8)" style="fill: none; stroke: #b0b0b0; stroke-width: 0.8; stroke-linecap: square"/>
     </g>
     <g id="line2d_4">
      <g>
       <use xlink:href="#m910a41ddea" x="114.824463" y="307.584" style="stroke: #000000; stroke-width: 0.8"/>
      </g>
     </g>
     <g id="text_2">
      <!-- 25 -->
      <g transform="translate(108.461963 322.182437) scale(0.1 -0.1)">
       <defs>
        <path id="DejaVuSans-32" d="M 1228 531 
L 3431 531 
L 3431 0 
L 469 0 
L 469 531 
Q 828 903 1448 1529 
Q 2069 2156 2228 2338 
Q 2531 2678 2651 2914 
Q 2772 3150 2772 3378 
Q 2772 3750 2511 3984 
Q 2250 4219 1831 4219 
Q 1534 4219 1204 4116 
Q 875 4013 500 3803 
L 500 4441 
Q 881 4594 1212 4672 
Q 1544 4750 1819 4750 
Q 2544 4750 2975 4387 
Q 3406 4025 3406 3419 
Q 3406 3131 3298 2873 
Q 3191 2616 2906 2266 
Q 2828 2175 2409 1742 
Q 1991 1309 1228 531 
z
" transform="scale(0.015625)"/>
        <path id="DejaVuSans-35" d="M 691 4666 
L 3169 4666 
L 3169 4134 
L 1269 4134 
L 1269 2991 
Q 1406 3038 1543 3061 
Q 1681 3084 1819 3084 
Q 2600 3084 3056 2656 
Q 3513 2228 3513 1497 
Q 3513 744 3044 326 
Q 2575 -91 1722 -91 
Q 1428 -91 1123 -41 
Q 819 9 494 109 
L 494 744 
Q 775 591 1075 516 
Q 1375 441 1709 441 
Q 2250 441 2565 725 
Q 2881 1009 2881 1497 
Q 2881 1984 2565 2268 
Q 2250 2553 1709 2553 
Q 1456 2553 1204 2497 
Q 953 2441 691 2322 
L 691 4666 
z
" transform="scale(0.015625)"/>
       </defs>
       <use xlink:href="#DejaVuSans-32"/>
       <use xlink:href="#DejaVuSans-35" x="63.623047"/>
      </g>
     </g>
    </g>
    <g id="xtick_3">
     <g id="line2d_5">
      <path d="M 155.816198 307.584 
L 155.816198 41.472 
" clip-path="url(#pd355f7e4d8)" style="fill: none; stroke: #b0b0b0; stroke-width: 0.8; stroke-linecap: square"/>
     </g>
     <g id="line2d_6">
      <g>
       <use xlink:href="#m910a41ddea" x="155.816198" y="307.584" style="stroke: #000000; stroke-width: 0.8"/>
      </g>
     </g>
     <g id="text_3">
      <!-- 50 -->
      <g transform="translate(149.453698 322.182437) scale(0.1 -0.1)">
       <use xlink:href="#DejaVuSans-35"/>
       <use xlink:href="#DejaVuSans-30" x="63.623047"/>
      </g>
     </g>
    </g>
    <g id="xtick_4">
     <g id="line2d_7">
      <path d="M 196.807934 307.584 
L 196.807934 41.472 
" clip-path="url(#pd355f7e4d8)" style="fill: none; stroke: #b0b0b0; stroke-width: 0.8; stroke-linecap: square"/>
     </g>
     <g id="line2d_8">
      <g>
       <use xlink:href="#m910a41ddea" x="196.807934" y="307.584" style="stroke: #000000; stroke-width: 0.8"/>
      </g>
     </g>
     <g id="text_4">
      <!-- 75 -->
      <g transform="translate(190.445434 322.182437) scale(0.1 -0.1)">
       <defs>
        <path id="DejaVuSans-37" d="M 525 4666 
L 3525 4666 
L 3525 4397 
L 1831 0 
L 1172 0 
L 2766 4134 
L 525 4134 
L 525 4666 
z
" transform="scale(0.015625)"/>
       </defs>
       <use xlink:href="#DejaVuSans-37"/>
       <use xlink:href="#DejaVuSans-35" x="63.623047"/>
      </g>
     </g>
    </g>
    <g id="xtick_5">
     <g id="line2d_9">
      <path d="M 237.799669 307.584 
L 237.799669 41.472 
" clip-path="url(#pd355f7e4d8)" style="fill: none; stroke: #b0b0b0; stroke-width: 0.8; stroke-linecap: square"/>
     </g>
     <g id="line2d_10">
      <g>
       <use xlink:href="#m910a41ddea" x="237.799669" y="307.584" style="stroke: #000000; stroke-width: 0.8"/>
      </g>
     </g>
     <g id="text_5">
      <!-- 100 -->
      <g transform="translate(228.255919 322.182437) scale(0.1 -0.1)">
       <defs>
        <path id="DejaVuSans-31" d="M 794 531 
L 1825 531 
L 1825 4091 
L 703 3866 
L 703 4441 
L 1819 4666 
L 2450 4666 
L 2450 531 
L 3481 531 
L 3481 0 
L 794 0 
L 794 531 
z
" transform="scale(0.015625)"/>
       </defs>
       <use xlink:href="#DejaVuSans-31"/>
       <use xlink:href="#DejaVuSans-30" x="63.623047"/>
       <use xlink:href="#DejaVuSans-30" x="127.246094"/>
      </g>
     </g>
    </g>
    <g id="xtick_6">
     <g id="line2d_11">
      <path d="M 278.791405 307.584 
L 278.791405 41.472 
" clip-path="url(#pd355f7e4d8)" style="fill: none; stroke: #b0b0b0; stroke-width: 0.8; stroke-linecap: square"/>
     </g>
     <g id="line2d_12">
      <g>
       <use xlink:href="#m910a41ddea" x="278.791405" y="307.584" style="stroke: #000000; stroke-width: 0.8"/>
      </g>
     </g>
     <g id="text_6">
      <!-- 125 -->
      <g transform="translate(269.247655 322.182437) scale(0.1 -0.1)">
       <use xlink:href="#DejaVuSans-31"/>
       <use xlink:href="#DejaVuSans-32" x="63.623047"/>
       <use xlink:href="#DejaVuSans-35" x="127.246094"/>
      </g>
     </g>
    </g>
    <g id="xtick_7">
     <g id="line2d_13">
      <path d="M 319.78314 307.584 
L 319.78314 41.472 
" clip-path="url(#pd355f7e4d8)" style="fill: none; stroke: #b0b0b0; stroke-width: 0.8; stroke-linecap: square"/>
     </g>
     <g id="line2d_14">
      <g>
       <use xlink:href="#m910a41ddea" x="319.78314" y="307.584" style="stroke: #000000; stroke-width: 0.8"/>
      </g>
     </g>
     <g id="text_7">
      <!-- 150 -->
      <g transform="translate(310.23939 322.182437) scale(0.1 -0.1)">
       <use xlink:href="#DejaVuSans-31"/>
       <use xlink:href="#DejaVuSans-35" x="63.623047"/>
       <use xlink:href="#DejaVuSans-30" x="127.246094"/>
      </g>
     </g>
    </g>
    <g id="xtick_8">
     <g id="line2d_15">
      <path d="M 360.774876 307.584 
L 360.774876 41.472 
" clip-path="url(#pd355f7e4d8)" style="fill: none; stroke: #b0b0b0; stroke-width: 0.8; stroke-linecap: square"/>
     </g>
     <g id="line2d_16">
      <g>
       <use xlink:href="#m910a41ddea" x="360.774876" y="307.584" style="stroke: #000000; stroke-width: 0.8"/>
      </g>
     </g>
     <g id="text_8">
      <!-- 175 -->
      <g transform="translate(351.231126 322.182437) scale(0.1 -0.1)">
       <use xlink:href="#DejaVuSans-31"/>
       <use xlink:href="#DejaVuSans-37" x="63.623047"/>
       <use xlink:href="#DejaVuSans-35" x="127.246094"/>
      </g>
     </g>
    </g>
    <g id="xtick_9">
     <g id="line2d_17">
      <path d="M 401.766612 307.584 
L 401.766612 41.472 
" clip-path="url(#pd355f7e4d8)" style="fill: none; stroke: #b0b0b0; stroke-width: 0.8; stroke-linecap: square"/>
     </g>
     <g id="line2d_18">
      <g>
       <use xlink:href="#m910a41ddea" x="401.766612" y="307.584" style="stroke: #000000; stroke-width: 0.8"/>
      </g>
     </g>
     <g id="text_9">
      <!-- 200 -->
      <g transform="translate(392.222862 322.182437) scale(0.1 -0.1)">
       <use xlink:href="#DejaVuSans-32"/>
       <use xlink:href="#DejaVuSans-30" x="63.623047"/>
       <use xlink:href="#DejaVuSans-30" x="127.246094"/>
      </g>
     </g>
    </g>
    <g id="text_10">
     <!-- Generations -->
     <g transform="translate(205.662344 335.860562) scale(0.1 -0.1)">
      <defs>
       <path id="DejaVuSans-47" d="M 3809 666 
L 3809 1919 
L 2778 1919 
L 2778 2438 
L 4434 2438 
L 4434 434 
Q 4069 175 3628 42 
Q 3188 -91 2688 -91 
Q 1594 -91 976 548 
Q 359 1188 359 2328 
Q 359 3472 976 4111 
Q 1594 4750 2688 4750 
Q 3144 4750 3555 4637 
Q 3966 4525 4313 4306 
L 4313 3634 
Q 3963 3931 3569 4081 
Q 3175 4231 2741 4231 
Q 1884 4231 1454 3753 
Q 1025 3275 1025 2328 
Q 1025 1384 1454 906 
Q 1884 428 2741 428 
Q 3075 428 3337 486 
Q 3600 544 3809 666 
z
" transform="scale(0.015625)"/>
       <path id="DejaVuSans-65" d="M 3597 1894 
L 3597 1613 
L 953 1613 
Q 991 1019 1311 708 
Q 1631 397 2203 397 
Q 2534 397 2845 478 
Q 3156 559 3463 722 
L 3463 178 
Q 3153 47 2828 -22 
Q 2503 -91 2169 -91 
Q 1331 -91 842 396 
Q 353 884 353 1716 
Q 353 2575 817 3079 
Q 1281 3584 2069 3584 
Q 2775 3584 3186 3129 
Q 3597 2675 3597 1894 
z
M 3022 2063 
Q 3016 2534 2758 2815 
Q 2500 3097 2075 3097 
Q 1594 3097 1305 2825 
Q 1016 2553 972 2059 
L 3022 2063 
z
" transform="scale(0.015625)"/>
       <path id="DejaVuSans-6e" d="M 3513 2113 
L 3513 0 
L 2938 0 
L 2938 2094 
Q 2938 2591 2744 2837 
Q 2550 3084 2163 3084 
Q 1697 3084 1428 2787 
Q 1159 2491 1159 1978 
L 1159 0 
L 581 0 
L 581 3500 
L 1159 3500 
L 1159 2956 
Q 1366 3272 1645 3428 
Q 1925 3584 2291 3584 
Q 2894 3584 3203 3211 
Q 3513 2838 3513 2113 
z
" transform="scale(0.015625)"/>
       <path id="DejaVuSans-72" d="M 2631 2963 
Q 2534 3019 2420 3045 
Q 2306 3072 2169 3072 
Q 1681 3072 1420 2755 
Q 1159 2438 1159 1844 
L 1159 0 
L 581 0 
L 581 3500 
L 1159 3500 
L 1159 2956 
Q 1341 3275 1631 3429 
Q 1922 3584 2338 3584 
Q 2397 3584 2469 3576 
Q 2541 3569 2628 3553 
L 2631 2963 
z
" transform="scale(0.015625)"/>
       <path id="DejaVuSans-61" d="M 2194 1759 
Q 1497 1759 1228 1600 
Q 959 1441 959 1056 
Q 959 750 1161 570 
Q 1363 391 1709 391 
Q 2188 391 2477 730 
Q 2766 1069 2766 1631 
L 2766 1759 
L 2194 1759 
z
M 3341 1997 
L 3341 0 
L 2766 0 
L 2766 531 
Q 2569 213 2275 61 
Q 1981 -91 1556 -91 
Q 1019 -91 701 211 
Q 384 513 384 1019 
Q 384 1609 779 1909 
Q 1175 2209 1959 2209 
L 2766 2209 
L 2766 2266 
Q 2766 2663 2505 2880 
Q 2244 3097 1772 3097 
Q 1472 3097 1187 3025 
Q 903 2953 641 2809 
L 641 3341 
Q 956 3463 1253 3523 
Q 1550 3584 1831 3584 
Q 2591 3584 2966 3190 
Q 3341 2797 3341 1997 
z
" transform="scale(0.015625)"/>
       <path id="DejaVuSans-74" d="M 1172 4494 
L 1172 3500 
L 2356 3500 
L 2356 3053 
L 1172 3053 
L 1172 1153 
Q 1172 725 1289 603 
Q 1406 481 1766 481 
L 2356 481 
L 2356 0 
L 1766 0 
Q 1100 0 847 248 
Q 594 497 594 1153 
L 594 3053 
L 172 3053 
L 172 3500 
L 594 3500 
L 594 4494 
L 1172 4494 
z
" transform="scale(0.015625)"/>
       <path id="DejaVuSans-69" d="M 603 3500 
L 1178 3500 
L 1178 0 
L 603 0 
L 603 3500 
z
M 603 4863 
L 1178 4863 
L 1178 4134 
L 603 4134 
L 603 4863 
z
" transform="scale(0.015625)"/>
       <path id="DejaVuSans-6f" d="M 1959 3097 
Q 1497 3097 1228 2736 
Q 959 2375 959 1747 
Q 959 1119 1226 758 
Q 1494 397 1959 397 
Q 2419 397 2687 759 
Q 2956 1122 2956 1747 
Q 2956 2369 2687 2733 
Q 2419 3097 1959 3097 
z
M 1959 3584 
Q 2709 3584 3137 3096 
Q 3566 2609 3566 1747 
Q 3566 888 3137 398 
Q 2709 -91 1959 -91 
Q 1206 -91 779 398 
Q 353 888 353 1747 
Q 353 2609 779 3096 
Q 1206 3584 1959 3584 
z
" transform="scale(0.015625)"/>
       <path id="DejaVuSans-73" d="M 2834 3397 
L 2834 2853 
Q 2591 2978 2328 3040 
Q 2066 3103 1784 3103 
Q 1356 3103 1142 2972 
Q 928 2841 928 2578 
Q 928 2378 1081 2264 
Q 1234 2150 1697 2047 
L 1894 2003 
Q 2506 1872 2764 1633 
Q 3022 1394 3022 966 
Q 3022 478 2636 193 
Q 2250 -91 1575 -91 
Q 1294 -91 989 -36 
Q 684 19 347 128 
L 347 722 
Q 666 556 975 473 
Q 1284 391 1588 391 
Q 1994 391 2212 530 
Q 2431 669 2431 922 
Q 2431 1156 2273 1281 
Q 2116 1406 1581 1522 
L 1381 1569 
Q 847 1681 609 1914 
Q 372 2147 372 2553 
Q 372 3047 722 3315 
Q 1072 3584 1716 3584 
Q 2034 3584 2315 3537 
Q 2597 3491 2834 3397 
z
" transform="scale(0.015625)"/>
      </defs>
      <use xlink:href="#DejaVuSans-47"/>
      <use xlink:href="#DejaVuSans-65" x="77.490234"/>
      <use xlink:href="#DejaVuSans-6e" x="139.013672"/>
      <use xlink:href="#DejaVuSans-65" x="202.392578"/>
      <use xlink:href="#DejaVuSans-72" x="263.916016"/>
      <use xlink:href="#DejaVuSans-61" x="305.029297"/>
      <use xlink:href="#DejaVuSans-74" x="366.308594"/>
      <use xlink:href="#DejaVuSans-69" x="405.517578"/>
      <use xlink:href="#DejaVuSans-6f" x="433.300781"/>
      <use xlink:href="#DejaVuSans-6e" x="494.482422"/>
      <use xlink:href="#DejaVuSans-73" x="557.861328"/>
     </g>
    </g>
   </g>
   <g id="matplotlib.axis_2">
    <g id="ytick_1">
     <g id="line2d_19">
      <path d="M 57.6 297.574161 
L 414.72 297.574161 
" clip-path="url(#pd355f7e4d8)" style="fill: none; stroke: #b0b0b0; stroke-width: 0.8; stroke-linecap: square"/>
     </g>
     <g id="line2d_20">
      <defs>
       <path id="m5f9dbdb639" d="M 0 0 
L -3.5 0 
" style="stroke: #000000; stroke-width: 0.8"/>
      </defs>
      <g>
       <use xlink:href="#m5f9dbdb639" x="57.6" y="297.574161" style="stroke: #000000; stroke-width: 0.8"/>
      </g>
     </g>
     <g id="text_11">
      <!-- −0.5 -->
      <g transform="translate(26.317187 301.373379) scale(0.1 -0.1)">
       <defs>
        <path id="DejaVuSans-2212" d="M 678 2272 
L 4684 2272 
L 4684 1741 
L 678 1741 
L 678 2272 
z
" transform="scale(0.015625)"/>
        <path id="DejaVuSans-2e" d="M 684 794 
L 1344 794 
L 1344 0 
L 684 0 
L 684 794 
z
" transform="scale(0.015625)"/>
       </defs>
       <use xlink:href="#DejaVuSans-2212"/>
       <use xlink:href="#DejaVuSans-30" x="83.789062"/>
       <use xlink:href="#DejaVuSans-2e" x="147.412109"/>
       <use xlink:href="#DejaVuSans-35" x="179.199219"/>
      </g>
     </g>
    </g>
    <g id="ytick_2">
     <g id="line2d_21">
      <path d="M 57.6 256.657795 
L 414.72 256.657795 
" clip-path="url(#pd355f7e4d8)" style="fill: none; stroke: #b0b0b0; stroke-width: 0.8; stroke-linecap: square"/>
     </g>
     <g id="line2d_22">
      <g>
       <use xlink:href="#m5f9dbdb639" x="57.6" y="256.657795" style="stroke: #000000; stroke-width: 0.8"/>
      </g>
     </g>
     <g id="text_12">
      <!-- 0.0 -->
      <g transform="translate(34.696875 260.457013) scale(0.1 -0.1)">
       <use xlink:href="#DejaVuSans-30"/>
       <use xlink:href="#DejaVuSans-2e" x="63.623047"/>
       <use xlink:href="#DejaVuSans-30" x="95.410156"/>
      </g>
     </g>
    </g>
    <g id="ytick_3">
     <g id="line2d_23">
      <path d="M 57.6 215.741429 
L 414.72 215.741429 
" clip-path="url(#pd355f7e4d8)" style="fill: none; stroke: #b0b0b0; stroke-width: 0.8; stroke-linecap: square"/>
     </g>
     <g id="line2d_24">
      <g>
       <use xlink:href="#m5f9dbdb639" x="57.6" y="215.741429" style="stroke: #000000; stroke-width: 0.8"/>
      </g>
     </g>
     <g id="text_13">
      <!-- 0.5 -->
      <g transform="translate(34.696875 219.540648) scale(0.1 -0.1)">
       <use xlink:href="#DejaVuSans-30"/>
       <use xlink:href="#DejaVuSans-2e" x="63.623047"/>
       <use xlink:href="#DejaVuSans-35" x="95.410156"/>
      </g>
     </g>
    </g>
    <g id="ytick_4">
     <g id="line2d_25">
      <path d="M 57.6 174.825063 
L 414.72 174.825063 
" clip-path="url(#pd355f7e4d8)" style="fill: none; stroke: #b0b0b0; stroke-width: 0.8; stroke-linecap: square"/>
     </g>
     <g id="line2d_26">
      <g>
       <use xlink:href="#m5f9dbdb639" x="57.6" y="174.825063" style="stroke: #000000; stroke-width: 0.8"/>
      </g>
     </g>
     <g id="text_14">
      <!-- 1.0 -->
      <g transform="translate(34.696875 178.624282) scale(0.1 -0.1)">
       <use xlink:href="#DejaVuSans-31"/>
       <use xlink:href="#DejaVuSans-2e" x="63.623047"/>
       <use xlink:href="#DejaVuSans-30" x="95.410156"/>
      </g>
     </g>
    </g>
    <g id="ytick_5">
     <g id="line2d_27">
      <path d="M 57.6 133.908697 
L 414.72 133.908697 
" clip-path="url(#pd355f7e4d8)" style="fill: none; stroke: #b0b0b0; stroke-width: 0.8; stroke-linecap: square"/>
     </g>
     <g id="line2d_28">
      <g>
       <use xlink:href="#m5f9dbdb639" x="57.6" y="133.908697" style="stroke: #000000; stroke-width: 0.8"/>
      </g>
     </g>
     <g id="text_15">
      <!-- 1.5 -->
      <g transform="translate(34.696875 137.707916) scale(0.1 -0.1)">
       <use xlink:href="#DejaVuSans-31"/>
       <use xlink:href="#DejaVuSans-2e" x="63.623047"/>
       <use xlink:href="#DejaVuSans-35" x="95.410156"/>
      </g>
     </g>
    </g>
    <g id="ytick_6">
     <g id="line2d_29">
      <path d="M 57.6 92.992331 
L 414.72 92.992331 
" clip-path="url(#pd355f7e4d8)" style="fill: none; stroke: #b0b0b0; stroke-width: 0.8; stroke-linecap: square"/>
     </g>
     <g id="line2d_30">
      <g>
       <use xlink:href="#m5f9dbdb639" x="57.6" y="92.992331" style="stroke: #000000; stroke-width: 0.8"/>
      </g>
     </g>
     <g id="text_16">
      <!-- 2.0 -->
      <g transform="translate(34.696875 96.79155) scale(0.1 -0.1)">
       <use xlink:href="#DejaVuSans-32"/>
       <use xlink:href="#DejaVuSans-2e" x="63.623047"/>
       <use xlink:href="#DejaVuSans-30" x="95.410156"/>
      </g>
     </g>
    </g>
    <g id="ytick_7">
     <g id="line2d_31">
      <path d="M 57.6 52.075965 
L 414.72 52.075965 
" clip-path="url(#pd355f7e4d8)" style="fill: none; stroke: #b0b0b0; stroke-width: 0.8; stroke-linecap: square"/>
     </g>
     <g id="line2d_32">
      <g>
       <use xlink:href="#m5f9dbdb639" x="57.6" y="52.075965" style="stroke: #000000; stroke-width: 0.8"/>
      </g>
     </g>
     <g id="text_17">
      <!-- 2.5 -->
      <g transform="translate(34.696875 55.875184) scale(0.1 -0.1)">
       <use xlink:href="#DejaVuSans-32"/>
       <use xlink:href="#DejaVuSans-2e" x="63.623047"/>
       <use xlink:href="#DejaVuSans-35" x="95.410156"/>
      </g>
     </g>
    </g>
    <g id="text_18">
     <!-- Fitness -->
     <g transform="translate(20.2375 191.845187) rotate(-90) scale(0.1 -0.1)">
      <defs>
       <path id="DejaVuSans-46" d="M 628 4666 
L 3309 4666 
L 3309 4134 
L 1259 4134 
L 1259 2759 
L 3109 2759 
L 3109 2228 
L 1259 2228 
L 1259 0 
L 628 0 
L 628 4666 
z
" transform="scale(0.015625)"/>
      </defs>
      <use xlink:href="#DejaVuSans-46"/>
      <use xlink:href="#DejaVuSans-69" x="50.269531"/>
      <use xlink:href="#DejaVuSans-74" x="78.052734"/>
      <use xlink:href="#DejaVuSans-6e" x="117.261719"/>
      <use xlink:href="#DejaVuSans-65" x="180.640625"/>
      <use xlink:href="#DejaVuSans-73" x="242.164062"/>
      <use xlink:href="#DejaVuSans-73" x="294.263672"/>
     </g>
    </g>
   </g>
   <g id="line2d_33">
    <path d="M 73.832727 167.779037 
L 75.472397 162.706658 
L 77.112066 156.237439 
L 78.751736 182.226719 
L 80.391405 166.56689 
L 82.031074 153.586059 
L 83.670744 172.705936 
L 85.310413 166.542681 
L 86.950083 176.716649 
L 88.589752 172.297681 
L 90.229421 173.91831 
L 91.869091 149.955186 
L 93.50876 151.859274 
L 95.14843 156.088436 
L 96.788099 146.896234 
L 98.427769 196.818746 
L 100.067438 158.218473 
L 101.707107 175.44506 
L 103.346777 170.104678 
L 104.986446 139.354438 
L 106.626116 169.455358 
L 108.265785 152.635436 
L 109.905455 145.718069 
L 111.545124 158.281667 
L 113.184793 137.346694 
L 114.824463 175.600883 
L 116.464132 162.675744 
L 118.103802 146.641869 
L 119.743471 179.915854 
L 121.38314 146.42399 
L 123.02281 189.719416 
L 124.662479 176.123703 
L 126.302149 185.966134 
L 127.941818 183.622082 
L 129.581488 153.363292 
L 131.221157 145.550653 
L 132.860826 172.539315 
L 134.500496 188.831871 
L 136.140165 175.156826 
L 137.779835 182.616335 
L 139.419504 164.561988 
L 141.059174 174.825517 
L 142.698843 184.209004 
L 144.338512 181.26098 
L 145.978182 167.527857 
L 147.617851 151.303267 
L 149.257521 170.275276 
L 150.89719 160.342374 
L 152.53686 161.591233 
L 154.176529 157.677014 
L 155.816198 132.236809 
L 157.455868 161.370284 
L 159.095537 157.153171 
L 160.735207 146.110753 
L 162.374876 137.141317 
L 164.014545 140.510553 
L 165.654215 138.149906 
L 167.293884 153.09063 
L 168.933554 138.983804 
L 170.573223 156.039791 
L 172.212893 160.677092 
L 173.852562 170.937781 
L 175.492231 154.478036 
L 177.131901 166.312753 
L 178.77157 166.779541 
L 180.41124 182.104198 
L 182.050909 165.484993 
L 183.690579 173.716456 
L 185.330248 157.641894 
L 186.969917 150.383558 
L 188.609587 139.695635 
L 190.249256 165.601605 
L 191.888926 180.225682 
L 193.528595 153.918732 
L 195.168264 166.919907 
L 196.807934 158.145847 
L 198.447603 173.95218 
L 200.087273 154.337329 
L 201.726942 167.971799 
L 203.366612 163.891869 
L 205.006281 146.873615 
L 206.64595 165.528409 
L 208.28562 152.339133 
L 209.925289 153.896569 
L 211.564959 165.682642 
L 213.204628 159.032709 
L 214.844298 166.5986 
L 216.483967 179.350867 
L 218.123636 168.638509 
L 219.763306 159.993108 
L 221.402975 161.226736 
L 223.042645 143.591896 
L 224.682314 172.724121 
L 226.321983 181.333379 
L 227.961653 175.083631 
L 229.601322 170.170486 
L 231.240992 172.893356 
L 232.880661 168.305722 
L 234.520331 180.841246 
L 236.16 156.264718 
L 237.799669 159.839103 
L 239.439339 194.567323 
L 241.079008 182.406638 
L 242.718678 194.065416 
L 244.358347 165.208467 
L 245.998017 143.547115 
L 247.637686 166.075212 
L 249.277355 167.030609 
L 250.917025 157.418672 
L 252.556694 161.683521 
L 254.196364 147.722857 
L 255.836033 165.445668 
L 257.475702 162.043131 
L 259.115372 150.391855 
L 260.755041 193.018411 
L 262.394711 185.277262 
L 264.03438 170.643865 
L 265.67405 168.695904 
L 267.313719 191.888097 
L 268.953388 165.309962 
L 270.593058 188.452713 
L 272.232727 157.230003 
L 273.872397 185.575497 
L 275.512066 187.861926 
L 277.151736 187.996723 
L 278.791405 168.20434 
L 280.431074 141.838174 
L 282.070744 169.971473 
L 283.710413 178.993758 
L 285.350083 163.36939 
L 286.989752 149.602282 
L 288.629421 165.528296 
L 290.269091 194.032569 
L 291.90876 175.083177 
L 293.54843 162.813836 
L 295.188099 186.796055 
L 296.827769 181.273369 
L 298.467438 157.294105 
L 300.107107 159.425165 
L 301.746777 178.331709 
L 303.386446 173.026788 
L 305.026116 175.822399 
L 306.665785 164.975471 
L 308.305455 169.15826 
L 309.945124 172.596485 
L 311.584793 171.642565 
L 313.224463 136.623725 
L 314.864132 166.390495 
L 316.503802 158.940193 
L 318.143471 160.432389 
L 319.78314 171.319212 
L 321.42281 148.098834 
L 323.062479 175.083745 
L 324.702149 161.428248 
L 326.341818 164.907959 
L 327.981488 179.465661 
L 329.621157 171.147023 
L 331.260826 179.822656 
L 332.900496 157.41083 
L 334.540165 156.376669 
L 336.179835 158.813921 
L 337.819504 166.82921 
L 339.459174 187.326604 
L 341.098843 166.166023 
L 342.738512 194.927728 
L 344.378182 187.131342 
L 346.017851 163.027169 
L 347.657521 145.498144 
L 349.29719 155.931362 
L 350.93686 172.346895 
L 352.576529 158.198015 
L 354.216198 160.850987 
L 355.855868 141.834879 
L 357.495537 153.43967 
L 359.135207 169.364773 
L 360.774876 149.217101 
L 362.414545 161.636127 
L 364.054215 153.617087 
L 365.693884 162.937495 
L 367.333554 175.07704 
L 368.973223 159.925596 
L 370.612893 150.375488 
L 372.252562 154.042845 
L 373.892231 187.696101 
L 375.531901 179.808563 
L 377.17157 173.948998 
L 378.81124 182.969579 
L 380.450909 174.42681 
L 382.090579 175.616227 
L 383.730248 195.008992 
L 385.369917 192.592767 
L 387.009587 183.592644 
L 388.649256 200.616808 
L 390.288926 167.04618 
L 391.928595 162.603458 
L 393.568264 152.042376 
L 395.207934 164.982858 
L 396.847603 176.042211 
L 398.487273 156.694793 
L 398.487273 156.694793 
" clip-path="url(#pd355f7e4d8)" style="fill: none; stroke: #0000ff; stroke-width: 1.5; stroke-linecap: square"/>
   </g>
   <g id="line2d_34">
    <path d="M 73.832727 253.104616 
L 75.472397 250.92065 
L 77.112066 242.19612 
L 78.751736 276.71799 
L 80.391405 246.977409 
L 82.031074 230.976277 
L 83.670744 265.403908 
L 85.310413 253.23234 
L 86.950083 266.520225 
L 88.589752 259.322362 
L 90.229421 269.117717 
L 91.869091 234.578181 
L 93.50876 227.431487 
L 95.14843 240.950143 
L 96.788099 225.156376 
L 98.427769 286.365363 
L 100.067438 241.778443 
L 101.707107 265.629176 
L 103.346777 260.660648 
L 104.986446 211.231043 
L 106.626116 265.16785 
L 108.265785 238.299338 
L 109.905455 228.667194 
L 111.545124 244.28088 
L 113.184793 216.57846 
L 114.824463 277.695905 
L 116.464132 254.916483 
L 118.103802 229.057127 
L 119.743471 274.983556 
L 121.38314 226.931653 
L 123.02281 287.311647 
L 124.662479 274.010586 
L 126.302149 279.832977 
L 127.941818 278.269782 
L 129.581488 233.086577 
L 131.221157 220.485166 
L 132.860826 264.338661 
L 134.500496 282.943097 
L 136.140165 267.022332 
L 137.779835 279.300848 
L 139.419504 253.766072 
L 141.059174 270.204471 
L 142.698843 284.076818 
L 144.338512 280.616673 
L 145.978182 260.101088 
L 147.617851 237.418541 
L 149.257521 260.64519 
L 150.89719 247.329657 
L 152.53686 249.296019 
L 154.176529 247.343072 
L 155.816198 210.905617 
L 157.455868 248.441788 
L 159.095537 243.145669 
L 160.735207 234.488778 
L 162.374876 209.638643 
L 164.014545 218.230465 
L 165.654215 212.291329 
L 167.293884 241.522461 
L 168.933554 217.024261 
L 170.573223 242.321454 
L 172.212893 250.756101 
L 173.852562 261.979225 
L 175.492231 237.594535 
L 177.131901 250.350868 
L 178.77157 259.669109 
L 180.41124 279.055283 
L 182.050909 258.249199 
L 183.690579 271.640326 
L 185.330248 244.024564 
L 186.969917 231.584958 
L 188.609587 215.47687 
L 190.249256 257.929028 
L 191.888926 275.544298 
L 193.528595 236.613002 
L 195.168264 262.869978 
L 196.807934 246.531329 
L 198.447603 272.022877 
L 200.087273 243.163059 
L 201.726942 261.060127 
L 203.366612 255.268221 
L 205.006281 227.114803 
L 206.64595 257.50219 
L 208.28562 243.402055 
L 209.925289 239.33243 
L 211.564959 255.159275 
L 213.204628 246.021475 
L 214.844298 260.786608 
L 216.483967 272.0409 
L 218.123636 260.30858 
L 219.763306 244.913088 
L 221.402975 249.044137 
L 223.042645 223.273722 
L 224.682314 266.457933 
L 226.321983 283.546982 
L 227.961653 271.417023 
L 229.601322 264.934743 
L 231.240992 266.779657 
L 232.880661 254.325519 
L 234.520331 274.344093 
L 236.16 243.45197 
L 237.799669 247.490602 
L 239.439339 291.719296 
L 241.079008 277.838591 
L 242.718678 287.889141 
L 244.358347 253.213801 
L 245.998017 223.543403 
L 247.637686 254.41271 
L 249.277355 255.642609 
L 250.917025 241.282904 
L 252.556694 254.471198 
L 254.196364 227.834117 
L 255.836033 256.454768 
L 257.475702 253.431119 
L 259.115372 229.408895 
L 260.755041 291.346258 
L 262.394711 280.173734 
L 264.03438 267.425654 
L 265.67405 263.727166 
L 267.313719 289.931707 
L 268.953388 258.747395 
L 270.593058 290.255391 
L 272.232727 242.396203 
L 273.872397 277.671964 
L 275.512066 282.095532 
L 277.151736 282.383981 
L 278.791405 256.70882 
L 280.431074 214.834102 
L 282.070744 262.748275 
L 283.710413 276.356195 
L 285.350083 252.450275 
L 286.989752 231.417516 
L 288.629421 254.125159 
L 290.269091 285.534392 
L 291.90876 264.341628 
L 293.54843 245.963685 
L 295.188099 282.323286 
L 296.827769 276.620508 
L 298.467438 243.191384 
L 300.107107 244.09765 
L 301.746777 272.302449 
L 303.386446 264.560214 
L 305.026116 272.755308 
L 306.665785 251.078975 
L 308.305455 259.892711 
L 309.945124 254.15227 
L 311.584793 263.932962 
L 313.224463 211.894178 
L 314.864132 260.674489 
L 318.143471 243.761204 
L 319.78314 264.6967 
L 321.42281 229.968744 
L 323.062479 270.57691 
L 324.702149 255.945762 
L 326.341818 254.034645 
L 327.981488 277.146506 
L 329.621157 263.19006 
L 331.260826 276.68447 
L 332.900496 243.417471 
L 334.540165 245.441556 
L 336.179835 244.732869 
L 337.819504 258.354583 
L 339.459174 289.154084 
L 341.098843 252.988426 
L 342.738512 285.764419 
L 344.378182 274.139002 
L 346.017851 248.320744 
L 347.657521 220.589536 
L 349.29719 235.350975 
L 350.93686 261.098029 
L 352.576529 242.359559 
L 354.216198 248.334943 
L 355.855868 213.489673 
L 357.495537 232.101485 
L 359.135207 254.20902 
L 360.774876 237.506707 
L 362.414545 252.943084 
L 364.054215 234.600278 
L 365.693884 245.270986 
L 367.333554 264.779742 
L 368.973223 241.319801 
L 370.612893 228.539345 
L 372.252562 237.573652 
L 373.892231 281.686302 
L 375.531901 259.897855 
L 377.17157 259.054902 
L 378.81124 277.965542 
L 380.450909 259.211129 
L 382.090579 267.001265 
L 383.730248 288.866909 
L 385.369917 287.747853 
L 387.009587 271.826644 
L 388.649256 295.488 
L 390.288926 255.208806 
L 391.928595 244.604375 
L 393.568264 241.5285 
L 395.207934 262.27749 
L 396.847603 268.598737 
L 398.487273 242.499741 
L 398.487273 242.499741 
" clip-path="url(#pd355f7e4d8)" style="fill: none; stroke-dasharray: 9.6,2.4,1.5,2.4; stroke-dashoffset: 0; stroke: #008000; stroke-width: 1.5"/>
   </g>
   <g id="line2d_35">
    <path d="M 73.832727 82.453458 
L 75.472397 74.492667 
L 77.112066 70.278759 
L 78.751736 87.735448 
L 80.391405 86.15637 
L 82.031074 76.195842 
L 83.670744 80.007963 
L 85.310413 79.853021 
L 86.950083 86.913073 
L 88.589752 85.273001 
L 90.229421 78.718903 
L 91.869091 65.332192 
L 93.50876 76.287062 
L 95.14843 71.226729 
L 96.788099 68.636091 
L 98.427769 107.272129 
L 100.067438 74.658504 
L 101.707107 85.260943 
L 103.346777 79.548708 
L 104.986446 67.477833 
L 106.626116 73.742866 
L 108.265785 66.971534 
L 109.905455 62.768945 
L 111.545124 72.282453 
L 113.184793 58.114929 
L 114.824463 73.50586 
L 116.464132 70.435004 
L 118.103802 64.226611 
L 119.743471 84.848153 
L 121.38314 65.916328 
L 123.02281 92.127184 
L 124.662479 78.236819 
L 126.302149 92.099292 
L 127.941818 88.974382 
L 129.581488 73.640007 
L 131.221157 70.616141 
L 132.860826 80.739969 
L 134.500496 94.720646 
L 136.140165 83.291321 
L 137.779835 85.931821 
L 139.419504 75.357905 
L 141.059174 79.446564 
L 142.698843 84.34119 
L 144.338512 81.905286 
L 145.978182 74.954625 
L 147.617851 65.187992 
L 149.257521 79.905362 
L 150.89719 73.355091 
L 152.53686 73.886446 
L 154.176529 68.010956 
L 155.816198 53.568 
L 157.455868 74.298781 
L 159.095537 71.160673 
L 160.735207 57.732727 
L 162.374876 64.643991 
L 164.014545 62.790641 
L 165.654215 64.008482 
L 167.293884 64.6588 
L 168.933554 60.943347 
L 170.573223 69.758127 
L 172.212893 70.598083 
L 173.852562 79.896336 
L 175.492231 71.361536 
L 177.131901 82.274639 
L 178.77157 73.889973 
L 180.41124 85.153113 
L 182.050909 72.720787 
L 183.690579 75.792587 
L 185.330248 71.259223 
L 186.969917 69.182157 
L 188.609587 63.9144 
L 190.249256 73.274181 
L 191.888926 84.907066 
L 193.528595 71.224462 
L 195.168264 70.969836 
L 196.807934 69.760365 
L 198.447603 75.881484 
L 200.087273 65.511599 
L 201.726942 74.88347 
L 203.366612 72.515516 
L 205.006281 66.632428 
L 206.64595 73.554629 
L 208.28562 61.276211 
L 209.925289 68.460708 
L 211.564959 76.206009 
L 213.204628 72.043943 
L 214.844298 72.410592 
L 216.483967 86.660834 
L 218.123636 76.968438 
L 219.763306 75.073127 
L 221.402975 73.409335 
L 223.042645 63.91007 
L 224.682314 78.990309 
L 226.321983 79.119776 
L 227.961653 78.75024 
L 229.601322 75.406228 
L 231.240992 79.007054 
L 232.880661 82.285925 
L 234.520331 87.338399 
L 236.16 69.077465 
L 237.799669 72.187604 
L 239.439339 97.415351 
L 241.079008 86.974684 
L 242.718678 100.24169 
L 244.358347 77.203132 
L 245.998017 63.550827 
L 247.637686 77.737713 
L 249.277355 78.418609 
L 252.556694 68.895844 
L 254.196364 67.611597 
L 255.836033 74.436568 
L 257.475702 70.655143 
L 259.115372 71.374815 
L 260.755041 94.690564 
L 262.394711 90.380791 
L 264.03438 73.862075 
L 265.67405 73.664643 
L 267.313719 93.844487 
L 268.953388 71.872529 
L 270.593058 86.650034 
L 272.232727 72.063803 
L 273.872397 93.47903 
L 275.512066 93.62832 
L 277.151736 93.609464 
L 278.791405 79.69986 
L 280.431074 68.842247 
L 282.070744 77.194671 
L 283.710413 81.631321 
L 285.350083 74.288505 
L 286.989752 67.787048 
L 288.629421 76.931434 
L 290.269091 102.530746 
L 291.90876 85.824725 
L 293.54843 79.663986 
L 295.188099 91.268824 
L 296.827769 85.92623 
L 298.467438 71.396826 
L 300.107107 74.75268 
L 301.746777 84.360968 
L 303.386446 81.493363 
L 305.026116 78.88949 
L 306.665785 78.871967 
L 308.305455 78.423808 
L 309.945124 91.040699 
L 311.584793 79.352168 
L 313.224463 61.353271 
L 314.864132 72.106501 
L 316.503802 65.600871 
L 318.143471 77.103575 
L 319.78314 77.941725 
L 321.42281 66.228924 
L 323.062479 79.59058 
L 324.702149 66.910735 
L 326.341818 75.781273 
L 327.981488 81.784817 
L 329.621157 79.103985 
L 331.260826 82.960843 
L 332.900496 71.404189 
L 334.540165 67.311782 
L 336.179835 72.894973 
L 337.819504 75.303836 
L 339.459174 85.499124 
L 341.098843 79.34362 
L 342.738512 104.091037 
L 344.378182 100.123682 
L 346.017851 77.733594 
L 347.657521 70.406752 
L 349.29719 76.51175 
L 350.93686 83.595761 
L 352.576529 74.036472 
L 354.216198 73.367031 
L 355.855868 70.180084 
L 357.495537 74.777855 
L 359.135207 84.520526 
L 360.774876 60.927495 
L 362.414545 70.32917 
L 364.054215 72.633897 
L 365.693884 80.604004 
L 367.333554 85.374337 
L 368.973223 78.53139 
L 370.612893 72.211632 
L 372.252562 70.512038 
L 373.892231 93.705901 
L 375.531901 99.719271 
L 377.17157 88.843094 
L 378.81124 87.973616 
L 380.450909 89.642491 
L 382.090579 84.231188 
L 383.730248 101.151075 
L 385.369917 97.437682 
L 387.009587 95.358645 
L 388.649256 105.745616 
L 390.288926 78.883553 
L 391.928595 80.602542 
L 393.568264 62.556251 
L 395.207934 67.688227 
L 396.847603 83.485684 
L 398.487273 70.889846 
L 398.487273 70.889846 
" clip-path="url(#pd355f7e4d8)" style="fill: none; stroke-dasharray: 9.6,2.4,1.5,2.4; stroke-dashoffset: 0; stroke: #008000; stroke-width: 1.5"/>
   </g>
   <g id="line2d_36">
    <path d="M 73.832727 83.475179 
L 75.472397 81.609396 
L 77.112066 83.524287 
L 78.751736 81.732146 
L 80.391405 81.642134 
L 82.031074 81.903994 
L 83.670744 82.992374 
L 85.310413 85.381886 
L 86.950083 83.638853 
L 88.589752 82.910537 
L 90.229421 81.560298 
L 91.869091 79.449014 
L 93.50876 85.602832 
L 95.14843 84.007093 
L 96.788099 82.206776 
L 98.427769 79.702699 
L 100.067438 85.111842 
L 101.707107 82.296797 
L 103.346777 81.961276 
L 104.986446 80.823808 
L 106.626116 82.12494 
L 108.265785 83.70432 
L 109.905455 83.319701 
L 111.545124 80.578308 
L 113.184793 83.94981 
L 114.824463 80.062764 
L 116.464132 78.769807 
L 118.103802 79.138047 
L 119.743471 81.49483 
L 121.38314 81.527569 
L 123.02281 81.159319 
L 124.662479 80.218243 
L 126.302149 81.838526 
L 127.941818 82.763243 
L 129.581488 83.21332 
L 132.860826 80.594667 
L 134.500496 85.40644 
L 136.140165 80.750156 
L 137.779835 80.611037 
L 139.419504 81.928548 
L 141.059174 81.453917 
L 142.698843 80.005481 
L 144.338512 81.241146 
L 145.978182 82.321342 
L 147.617851 80.455558 
L 149.257521 82.239515 
L 150.89719 80.65196 
L 152.53686 79.735427 
L 154.176529 80.676504 
L 155.816198 81.98583 
L 157.455868 79.097133 
L 159.095537 81.715776 
L 160.735207 81.077482 
L 162.374876 81.077482 
L 164.014545 80.7747 
L 165.654215 81.012015 
L 167.293884 80.193689 
L 168.933554 80.488287 
L 170.573223 79.211699 
L 172.212893 81.838526 
L 173.852562 79.350818 
L 175.492231 83.565201 
L 177.131901 81.838526 
L 178.77157 81.49483 
L 180.41124 81.887624 
L 182.050909 82.452276 
L 183.690579 80.840167 
L 185.330248 80.831983 
L 186.969917 80.250971 
L 188.609587 82.910537 
L 190.249256 84.170766 
L 193.528595 82.239515 
L 195.168264 81.764884 
L 196.807934 80.602852 
L 198.447603 80.250971 
L 200.087273 79.571764 
L 201.726942 80.357362 
L 203.366612 79.236253 
L 205.006281 79.440829 
L 206.64595 81.077482 
L 208.28562 82.280428 
L 209.925289 82.272244 
L 211.564959 79.841808 
L 213.204628 79.964558 
L 214.844298 80.447373 
L 216.483967 84.015277 
L 218.123636 81.290254 
L 219.763306 82.738689 
L 221.402975 82.779603 
L 223.042645 82.337711 
L 224.682314 82.296797 
L 226.321983 79.432645 
L 227.961653 80.807438 
L 229.601322 79.882731 
L 231.240992 80.365537 
L 232.880661 81.38845 
L 234.520331 81.535744 
L 236.16 80.512841 
L 237.799669 81.273884 
L 239.439339 81.355721 
L 241.079008 80.439189 
L 242.718678 81.576667 
L 244.358347 82.468645 
L 245.998017 80.447373 
L 247.637686 82.558657 
L 249.277355 81.306613 
L 250.917025 80.291894 
L 252.556694 81.552113 
L 254.196364 81.273884 
L 255.836033 81.977646 
L 257.475702 81.183863 
L 259.115372 81.077482 
L 260.755041 79.252612 
L 262.394711 81.5112 
L 264.03438 81.519384 
L 265.67405 81.977646 
L 267.313719 79.989112 
L 268.953388 80.660135 
L 270.593058 81.028384 
L 272.232727 80.930188 
L 273.872397 81.012015 
L 275.512066 82.632309 
L 277.151736 85.635571 
L 278.791405 81.126581 
L 280.431074 81.543928 
L 282.070744 81.200232 
L 283.710413 82.419538 
L 285.350083 80.971102 
L 286.989752 86.683028 
L 288.629421 82.378624 
L 290.269091 80.717417 
L 291.90876 82.403178 
L 293.54843 84.350798 
L 295.188099 81.928548 
L 296.827769 82.411363 
L 298.467438 81.822167 
L 300.107107 84.383527 
L 301.746777 81.24933 
L 303.386446 78.524307 
L 305.026116 80.193689 
L 306.665785 81.593036 
L 308.305455 80.070939 
L 309.945124 84.129843 
L 314.864132 81.805798 
L 316.503802 81.86308 
L 318.143471 79.432645 
L 319.78314 83.033287 
L 321.42281 80.668319 
L 323.062479 84.252593 
L 324.702149 80.218243 
L 326.341818 80.815623 
L 327.981488 78.982568 
L 329.621157 80.660135 
L 331.260826 81.584852 
L 332.900496 81.789428 
L 334.540165 82.362255 
L 336.179835 81.093852 
L 337.819504 79.465383 
L 339.459174 81.396634 
L 341.098843 81.331167 
L 342.738512 83.638853 
L 344.378182 80.324623 
L 346.017851 82.067657 
L 347.657521 81.715776 
L 349.29719 84.07256 
L 350.93686 82.738689 
L 352.576529 83.385168 
L 354.216198 82.034928 
L 355.855868 80.291894 
L 357.495537 80.570123 
L 359.135207 85.799234 
L 360.774876 81.658494 
L 362.414545 79.350818 
L 364.054215 81.183863 
L 365.693884 82.37044 
L 367.333554 81.478461 
L 368.973223 83.622483 
L 370.612893 82.264059 
L 372.252562 80.169145 
L 373.892231 82.632309 
L 375.531901 82.984189 
L 377.17157 81.773059 
L 378.81124 83.311516 
L 380.450909 83.761603 
L 382.090579 81.413004 
L 385.369917 80.856536 
L 387.009587 82.067657 
L 388.649256 82.575026 
L 390.288926 81.093852 
L 391.928595 79.309895 
L 393.568264 81.63395 
L 395.207934 81.380265 
L 396.847603 84.653571 
L 398.487273 82.795972 
L 398.487273 82.795972 
" clip-path="url(#pd355f7e4d8)" style="fill: none; stroke: #ff0000; stroke-width: 1.5; stroke-linecap: square"/>
   </g>
   <g id="patch_3">
    <path d="M 57.6 307.584 
L 57.6 41.472 
" style="fill: none; stroke: #000000; stroke-width: 0.8; stroke-linejoin: miter; stroke-linecap: square"/>
   </g>
   <g id="patch_4">
    <path d="M 414.72 307.584 
L 414.72 41.472 
" style="fill: none; stroke: #000000; stroke-width: 0.8; stroke-linejoin: miter; stroke-linecap: square"/>
   </g>
   <g id="patch_5">
    <path d="M 57.6 307.584 
L 414.72 307.584 
" style="fill: none; stroke: #000000; stroke-width: 0.8; stroke-linejoin: miter; stroke-linecap: square"/>
   </g>
   <g id="patch_6">
    <path d="M 57.6 41.472 
L 414.72 41.472 
" style="fill: none; stroke: #000000; stroke-width: 0.8; stroke-linejoin: miter; stroke-linecap: square"/>
   </g>
   <g id="text_19">
    <!-- Population's average and best fitness -->
    <g transform="translate(123.529687 35.472) scale(0.12 -0.12)">
     <defs>
      <path id="DejaVuSans-50" d="M 1259 4147 
L 1259 2394 
L 2053 2394 
Q 2494 2394 2734 2622 
Q 2975 2850 2975 3272 
Q 2975 3691 2734 3919 
Q 2494 4147 2053 4147 
L 1259 4147 
z
M 628 4666 
L 2053 4666 
Q 2838 4666 3239 4311 
Q 3641 3956 3641 3272 
Q 3641 2581 3239 2228 
Q 2838 1875 2053 1875 
L 1259 1875 
L 1259 0 
L 628 0 
L 628 4666 
z
" transform="scale(0.015625)"/>
      <path id="DejaVuSans-70" d="M 1159 525 
L 1159 -1331 
L 581 -1331 
L 581 3500 
L 1159 3500 
L 1159 2969 
Q 1341 3281 1617 3432 
Q 1894 3584 2278 3584 
Q 2916 3584 3314 3078 
Q 3713 2572 3713 1747 
Q 3713 922 3314 415 
Q 2916 -91 2278 -91 
Q 1894 -91 1617 61 
Q 1341 213 1159 525 
z
M 3116 1747 
Q 3116 2381 2855 2742 
Q 2594 3103 2138 3103 
Q 1681 3103 1420 2742 
Q 1159 2381 1159 1747 
Q 1159 1113 1420 752 
Q 1681 391 2138 391 
Q 2594 391 2855 752 
Q 3116 1113 3116 1747 
z
" transform="scale(0.015625)"/>
      <path id="DejaVuSans-75" d="M 544 1381 
L 544 3500 
L 1119 3500 
L 1119 1403 
Q 1119 906 1312 657 
Q 1506 409 1894 409 
Q 2359 409 2629 706 
Q 2900 1003 2900 1516 
L 2900 3500 
L 3475 3500 
L 3475 0 
L 2900 0 
L 2900 538 
Q 2691 219 2414 64 
Q 2138 -91 1772 -91 
Q 1169 -91 856 284 
Q 544 659 544 1381 
z
M 1991 3584 
L 1991 3584 
z
" transform="scale(0.015625)"/>
      <path id="DejaVuSans-6c" d="M 603 4863 
L 1178 4863 
L 1178 0 
L 603 0 
L 603 4863 
z
" transform="scale(0.015625)"/>
      <path id="DejaVuSans-27" d="M 1147 4666 
L 1147 2931 
L 616 2931 
L 616 4666 
L 1147 4666 
z
" transform="scale(0.015625)"/>
      <path id="DejaVuSans-20" transform="scale(0.015625)"/>
      <path id="DejaVuSans-76" d="M 191 3500 
L 800 3500 
L 1894 563 
L 2988 3500 
L 3597 3500 
L 2284 0 
L 1503 0 
L 191 3500 
z
" transform="scale(0.015625)"/>
      <path id="DejaVuSans-67" d="M 2906 1791 
Q 2906 2416 2648 2759 
Q 2391 3103 1925 3103 
Q 1463 3103 1205 2759 
Q 947 2416 947 1791 
Q 947 1169 1205 825 
Q 1463 481 1925 481 
Q 2391 481 2648 825 
Q 2906 1169 2906 1791 
z
M 3481 434 
Q 3481 -459 3084 -895 
Q 2688 -1331 1869 -1331 
Q 1566 -1331 1297 -1286 
Q 1028 -1241 775 -1147 
L 775 -588 
Q 1028 -725 1275 -790 
Q 1522 -856 1778 -856 
Q 2344 -856 2625 -561 
Q 2906 -266 2906 331 
L 2906 616 
Q 2728 306 2450 153 
Q 2172 0 1784 0 
Q 1141 0 747 490 
Q 353 981 353 1791 
Q 353 2603 747 3093 
Q 1141 3584 1784 3584 
Q 2172 3584 2450 3431 
Q 2728 3278 2906 2969 
L 2906 3500 
L 3481 3500 
L 3481 434 
z
" transform="scale(0.015625)"/>
      <path id="DejaVuSans-64" d="M 2906 2969 
L 2906 4863 
L 3481 4863 
L 3481 0 
L 2906 0 
L 2906 525 
Q 2725 213 2448 61 
Q 2172 -91 1784 -91 
Q 1150 -91 751 415 
Q 353 922 353 1747 
Q 353 2572 751 3078 
Q 1150 3584 1784 3584 
Q 2172 3584 2448 3432 
Q 2725 3281 2906 2969 
z
M 947 1747 
Q 947 1113 1208 752 
Q 1469 391 1925 391 
Q 2381 391 2643 752 
Q 2906 1113 2906 1747 
Q 2906 2381 2643 2742 
Q 2381 3103 1925 3103 
Q 1469 3103 1208 2742 
Q 947 2381 947 1747 
z
" transform="scale(0.015625)"/>
      <path id="DejaVuSans-62" d="M 3116 1747 
Q 3116 2381 2855 2742 
Q 2594 3103 2138 3103 
Q 1681 3103 1420 2742 
Q 1159 2381 1159 1747 
Q 1159 1113 1420 752 
Q 1681 391 2138 391 
Q 2594 391 2855 752 
Q 3116 1113 3116 1747 
z
M 1159 2969 
Q 1341 3281 1617 3432 
Q 1894 3584 2278 3584 
Q 2916 3584 3314 3078 
Q 3713 2572 3713 1747 
Q 3713 922 3314 415 
Q 2916 -91 2278 -91 
Q 1894 -91 1617 61 
Q 1341 213 1159 525 
L 1159 0 
L 581 0 
L 581 4863 
L 1159 4863 
L 1159 2969 
z
" transform="scale(0.015625)"/>
      <path id="DejaVuSans-66" d="M 2375 4863 
L 2375 4384 
L 1825 4384 
Q 1516 4384 1395 4259 
Q 1275 4134 1275 3809 
L 1275 3500 
L 2222 3500 
L 2222 3053 
L 1275 3053 
L 1275 0 
L 697 0 
L 697 3053 
L 147 3053 
L 147 3500 
L 697 3500 
L 697 3744 
Q 697 4328 969 4595 
Q 1241 4863 1831 4863 
L 2375 4863 
z
" transform="scale(0.015625)"/>
     </defs>
     <use xlink:href="#DejaVuSans-50"/>
     <use xlink:href="#DejaVuSans-6f" x="56.677734"/>
     <use xlink:href="#DejaVuSans-70" x="117.859375"/>
     <use xlink:href="#DejaVuSans-75" x="181.335938"/>
     <use xlink:href="#DejaVuSans-6c" x="244.714844"/>
     <use xlink:href="#DejaVuSans-61" x="272.498047"/>
     <use xlink:href="#DejaVuSans-74" x="333.777344"/>
     <use xlink:href="#DejaVuSans-69" x="372.986328"/>
     <use xlink:href="#DejaVuSans-6f" x="400.769531"/>
     <use xlink:href="#DejaVuSans-6e" x="461.951172"/>
     <use xlink:href="#DejaVuSans-27" x="525.330078"/>
     <use xlink:href="#DejaVuSans-73" x="552.820312"/>
     <use xlink:href="#DejaVuSans-20" x="604.919922"/>
     <use xlink:href="#DejaVuSans-61" x="636.707031"/>
     <use xlink:href="#DejaVuSans-76" x="697.986328"/>
     <use xlink:href="#DejaVuSans-65" x="757.166016"/>
     <use xlink:href="#DejaVuSans-72" x="818.689453"/>
     <use xlink:href="#DejaVuSans-61" x="859.802734"/>
     <use xlink:href="#DejaVuSans-67" x="921.082031"/>
     <use xlink:href="#DejaVuSans-65" x="984.558594"/>
     <use xlink:href="#DejaVuSans-20" x="1046.082031"/>
     <use xlink:href="#DejaVuSans-61" x="1077.869141"/>
     <use xlink:href="#DejaVuSans-6e" x="1139.148438"/>
     <use xlink:href="#DejaVuSans-64" x="1202.527344"/>
     <use xlink:href="#DejaVuSans-20" x="1266.003906"/>
     <use xlink:href="#DejaVuSans-62" x="1297.791016"/>
     <use xlink:href="#DejaVuSans-65" x="1361.267578"/>
     <use xlink:href="#DejaVuSans-73" x="1422.791016"/>
     <use xlink:href="#DejaVuSans-74" x="1474.890625"/>
     <use xlink:href="#DejaVuSans-20" x="1514.099609"/>
     <use xlink:href="#DejaVuSans-66" x="1545.886719"/>
     <use xlink:href="#DejaVuSans-69" x="1581.091797"/>
     <use xlink:href="#DejaVuSans-74" x="1608.875"/>
     <use xlink:href="#DejaVuSans-6e" x="1648.083984"/>
     <use xlink:href="#DejaVuSans-65" x="1711.462891"/>
     <use xlink:href="#DejaVuSans-73" x="1772.986328"/>
     <use xlink:href="#DejaVuSans-73" x="1825.085938"/>
    </g>
   </g>
   <g id="legend_1">
    <g id="patch_7">
     <path d="M 64.6 302.584 
L 137.540625 302.584 
Q 139.540625 302.584 139.540625 300.584 
L 139.540625 242.8715 
Q 139.540625 240.8715 137.540625 240.8715 
L 64.6 240.8715 
Q 62.6 240.8715 62.6 242.8715 
L 62.6 300.584 
Q 62.6 302.584 64.6 302.584 
z
" style="fill: #ffffff; opacity: 0.8; stroke: #cccccc; stroke-linejoin: miter"/>
    </g>
    <g id="line2d_37">
     <path d="M 66.6 248.969937 
L 76.6 248.969937 
L 86.6 248.969937 
" style="fill: none; stroke: #0000ff; stroke-width: 1.5; stroke-linecap: square"/>
    </g>
    <g id="text_20">
     <!-- average -->
     <g transform="translate(94.6 252.469937) scale(0.1 -0.1)">
      <use xlink:href="#DejaVuSans-61"/>
      <use xlink:href="#DejaVuSans-76" x="61.279297"/>
      <use xlink:href="#DejaVuSans-65" x="120.458984"/>
      <use xlink:href="#DejaVuSans-72" x="181.982422"/>
      <use xlink:href="#DejaVuSans-61" x="223.095703"/>
      <use xlink:href="#DejaVuSans-67" x="284.375"/>
      <use xlink:href="#DejaVuSans-65" x="347.851562"/>
     </g>
    </g>
    <g id="line2d_38">
     <path d="M 66.6 263.648062 
L 76.6 263.648062 
L 86.6 263.648062 
" style="fill: none; stroke-dasharray: 9.6,2.4,1.5,2.4; stroke-dashoffset: 0; stroke: #008000; stroke-width: 1.5"/>
    </g>
    <g id="text_21">
     <!-- -1 sd -->
     <g transform="translate(94.6 267.148062) scale(0.1 -0.1)">
      <defs>
       <path id="DejaVuSans-2d" d="M 313 2009 
L 1997 2009 
L 1997 1497 
L 313 1497 
L 313 2009 
z
" transform="scale(0.015625)"/>
      </defs>
      <use xlink:href="#DejaVuSans-2d"/>
      <use xlink:href="#DejaVuSans-31" x="36.083984"/>
      <use xlink:href="#DejaVuSans-20" x="99.707031"/>
      <use xlink:href="#DejaVuSans-73" x="131.494141"/>
      <use xlink:href="#DejaVuSans-64" x="183.59375"/>
     </g>
    </g>
    <g id="line2d_39">
     <path d="M 66.6 278.326187 
L 76.6 278.326187 
L 86.6 278.326187 
" style="fill: none; stroke-dasharray: 9.6,2.4,1.5,2.4; stroke-dashoffset: 0; stroke: #008000; stroke-width: 1.5"/>
    </g>
    <g id="text_22">
     <!-- +1 sd -->
     <g transform="translate(94.6 281.826187) scale(0.1 -0.1)">
      <defs>
       <path id="DejaVuSans-2b" d="M 2944 4013 
L 2944 2272 
L 4684 2272 
L 4684 1741 
L 2944 1741 
L 2944 0 
L 2419 0 
L 2419 1741 
L 678 1741 
L 678 2272 
L 2419 2272 
L 2419 4013 
L 2944 4013 
z
" transform="scale(0.015625)"/>
      </defs>
      <use xlink:href="#DejaVuSans-2b"/>
      <use xlink:href="#DejaVuSans-31" x="83.789062"/>
      <use xlink:href="#DejaVuSans-20" x="147.412109"/>
      <use xlink:href="#DejaVuSans-73" x="179.199219"/>
      <use xlink:href="#DejaVuSans-64" x="231.298828"/>
     </g>
    </g>
    <g id="line2d_40">
     <path d="M 66.6 293.004312 
L 76.6 293.004312 
L 86.6 293.004312 
" style="fill: none; stroke: #ff0000; stroke-width: 1.5; stroke-linecap: square"/>
    </g>
    <g id="text_23">
     <!-- best -->
     <g transform="translate(94.6 296.504312) scale(0.1 -0.1)">
      <use xlink:href="#DejaVuSans-62"/>
      <use xlink:href="#DejaVuSans-65" x="63.476562"/>
      <use xlink:href="#DejaVuSans-73" x="125"/>
      <use xlink:href="#DejaVuSans-74" x="177.099609"/>
     </g>
    </g>
   </g>
  </g>
 </g>
 <defs>
  <clipPath id="pd355f7e4d8">
   <rect x="57.6" y="41.472" width="357.12" height="266.112"/>
  </clipPath>
 </defs>
</svg>
