<?xml version="1.0" encoding="utf-8" standalone="no"?>
<!DOCTYPE svg PUBLIC "-//W3C//DTD SVG 1.1//EN"
  "http://www.w3.org/Graphics/SVG/1.1/DTD/svg11.dtd">
<svg xmlns:xlink="http://www.w3.org/1999/xlink" width="460.8pt" height="345.6pt" viewBox="0 0 460.8 345.6" xmlns="http://www.w3.org/2000/svg" version="1.1">
 <metadata>
  <rdf:RDF xmlns:dc="http://purl.org/dc/elements/1.1/" xmlns:cc="http://creativecommons.org/ns#" xmlns:rdf="http://www.w3.org/1999/02/22-rdf-syntax-ns#">
   <cc:Work>
    <dc:type rdf:resource="http://purl.org/dc/dcmitype/StillImage"/>
    <dc:date>2023-02-18T04:34:32.015754</dc:date>
    <dc:format>image/svg+xml</dc:format>
    <dc:creator>
     <cc:Agent>
      <dc:title>Matplotlib v3.6.3, https://matplotlib.org/</dc:title>
     </cc:Agent>
    </dc:creator>
   </cc:Work>
  </rdf:RDF>
 </metadata>
 <defs>
  <style type="text/css">*{stroke-linejoin: round; stroke-linecap: butt}</style>
 </defs>
 <g id="figure_1">
  <g id="patch_1">
   <path d="M 0 345.6 
L 460.8 345.6 
L 460.8 0 
L 0 0 
z
" style="fill: #ffffff"/>
  </g>
  <g id="axes_1">
   <g id="patch_2">
    <path d="M 57.6 307.584 
L 414.72 307.584 
L 414.72 41.472 
L 57.6 41.472 
z
" style="fill: #ffffff"/>
   </g>
   <g id="matplotlib.axis_1">
    <g id="xtick_1">
     <g id="line2d_1">
      <path d="M 73.832727 307.584 
L 73.832727 41.472 
" clip-path="url(#pdfb71cc719)" style="fill: none; stroke: #b0b0b0; stroke-width: 0.8; stroke-linecap: square"/>
     </g>
     <g id="line2d_2">
      <defs>
       <path id="m1e2fba7148" d="M 0 0 
L 0 3.5 
" style="stroke: #000000; stroke-width: 0.8"/>
      </defs>
      <g>
       <use xlink:href="#m1e2fba7148" x="73.832727" y="307.584" style="stroke: #000000; stroke-width: 0.8"/>
      </g>
     </g>
     <g id="text_1">
      <!-- 0 -->
      <g transform="translate(70.651477 322.182437) scale(0.1 -0.1)">
       <defs>
        <path id="DejaVuSans-30" d="M 2034 4250 
Q 1547 4250 1301 3770 
Q 1056 3291 1056 2328 
Q 1056 1369 1301 889 
Q 1547 409 2034 409 
Q 2525 409 2770 889 
Q 3016 1369 3016 2328 
Q 3016 3291 2770 3770 
Q 2525 4250 2034 4250 
z
M 2034 4750 
Q 2819 4750 3233 4129 
Q 3647 3509 3647 2328 
Q 3647 1150 3233 529 
Q 2819 -91 2034 -91 
Q 1250 -91 836 529 
Q 422 1150 422 2328 
Q 422 3509 836 4129 
Q 1250 4750 2034 4750 
z
" transform="scale(0.015625)"/>
       </defs>
       <use xlink:href="#DejaVuSans-30"/>
      </g>
     </g>
    </g>
    <g id="xtick_2">
     <g id="line2d_3">
      <path d="M 123.933737 307.584 
L 123.933737 41.472 
" clip-path="url(#pdfb71cc719)" style="fill: none; stroke: #b0b0b0; stroke-width: 0.8; stroke-linecap: square"/>
     </g>
     <g id="line2d_4">
      <g>
       <use xlink:href="#m1e2fba7148" x="123.933737" y="307.584" style="stroke: #000000; stroke-width: 0.8"/>
      </g>
     </g>
     <g id="text_2">
      <!-- 100 -->
      <g transform="translate(114.389987 322.182437) scale(0.1 -0.1)">
       <defs>
        <path id="DejaVuSans-31" d="M 794 531 
L 1825 531 
L 1825 4091 
L 703 3866 
L 703 4441 
L 1819 4666 
L 2450 4666 
L 2450 531 
L 3481 531 
L 3481 0 
L 794 0 
L 794 531 
z
" transform="scale(0.015625)"/>
       </defs>
       <use xlink:href="#DejaVuSans-31"/>
       <use xlink:href="#DejaVuSans-30" x="63.623047"/>
       <use xlink:href="#DejaVuSans-30" x="127.246094"/>
      </g>
     </g>
    </g>
    <g id="xtick_3">
     <g id="line2d_5">
      <path d="M 174.034747 307.584 
L 174.034747 41.472 
" clip-path="url(#pdfb71cc719)" style="fill: none; stroke: #b0b0b0; stroke-width: 0.8; stroke-linecap: square"/>
     </g>
     <g id="line2d_6">
      <g>
       <use xlink:href="#m1e2fba7148" x="174.034747" y="307.584" style="stroke: #000000; stroke-width: 0.8"/>
      </g>
     </g>
     <g id="text_3">
      <!-- 200 -->
      <g transform="translate(164.490997 322.182437) scale(0.1 -0.1)">
       <defs>
        <path id="DejaVuSans-32" d="M 1228 531 
L 3431 531 
L 3431 0 
L 469 0 
L 469 531 
Q 828 903 1448 1529 
Q 2069 2156 2228 2338 
Q 2531 2678 2651 2914 
Q 2772 3150 2772 3378 
Q 2772 3750 2511 3984 
Q 2250 4219 1831 4219 
Q 1534 4219 1204 4116 
Q 875 4013 500 3803 
L 500 4441 
Q 881 4594 1212 4672 
Q 1544 4750 1819 4750 
Q 2544 4750 2975 4387 
Q 3406 4025 3406 3419 
Q 3406 3131 3298 2873 
Q 3191 2616 2906 2266 
Q 2828 2175 2409 1742 
Q 1991 1309 1228 531 
z
" transform="scale(0.015625)"/>
       </defs>
       <use xlink:href="#DejaVuSans-32"/>
       <use xlink:href="#DejaVuSans-30" x="63.623047"/>
       <use xlink:href="#DejaVuSans-30" x="127.246094"/>
      </g>
     </g>
    </g>
    <g id="xtick_4">
     <g id="line2d_7">
      <path d="M 224.135758 307.584 
L 224.135758 41.472 
" clip-path="url(#pdfb71cc719)" style="fill: none; stroke: #b0b0b0; stroke-width: 0.8; stroke-linecap: square"/>
     </g>
     <g id="line2d_8">
      <g>
       <use xlink:href="#m1e2fba7148" x="224.135758" y="307.584" style="stroke: #000000; stroke-width: 0.8"/>
      </g>
     </g>
     <g id="text_4">
      <!-- 300 -->
      <g transform="translate(214.592008 322.182437) scale(0.1 -0.1)">
       <defs>
        <path id="DejaVuSans-33" d="M 2597 2516 
Q 3050 2419 3304 2112 
Q 3559 1806 3559 1356 
Q 3559 666 3084 287 
Q 2609 -91 1734 -91 
Q 1441 -91 1130 -33 
Q 819 25 488 141 
L 488 750 
Q 750 597 1062 519 
Q 1375 441 1716 441 
Q 2309 441 2620 675 
Q 2931 909 2931 1356 
Q 2931 1769 2642 2001 
Q 2353 2234 1838 2234 
L 1294 2234 
L 1294 2753 
L 1863 2753 
Q 2328 2753 2575 2939 
Q 2822 3125 2822 3475 
Q 2822 3834 2567 4026 
Q 2313 4219 1838 4219 
Q 1578 4219 1281 4162 
Q 984 4106 628 3988 
L 628 4550 
Q 988 4650 1302 4700 
Q 1616 4750 1894 4750 
Q 2613 4750 3031 4423 
Q 3450 4097 3450 3541 
Q 3450 3153 3228 2886 
Q 3006 2619 2597 2516 
z
" transform="scale(0.015625)"/>
       </defs>
       <use xlink:href="#DejaVuSans-33"/>
       <use xlink:href="#DejaVuSans-30" x="63.623047"/>
       <use xlink:href="#DejaVuSans-30" x="127.246094"/>
      </g>
     </g>
    </g>
    <g id="xtick_5">
     <g id="line2d_9">
      <path d="M 274.236768 307.584 
L 274.236768 41.472 
" clip-path="url(#pdfb71cc719)" style="fill: none; stroke: #b0b0b0; stroke-width: 0.8; stroke-linecap: square"/>
     </g>
     <g id="line2d_10">
      <g>
       <use xlink:href="#m1e2fba7148" x="274.236768" y="307.584" style="stroke: #000000; stroke-width: 0.8"/>
      </g>
     </g>
     <g id="text_5">
      <!-- 400 -->
      <g transform="translate(264.693018 322.182437) scale(0.1 -0.1)">
       <defs>
        <path id="DejaVuSans-34" d="M 2419 4116 
L 825 1625 
L 2419 1625 
L 2419 4116 
z
M 2253 4666 
L 3047 4666 
L 3047 1625 
L 3713 1625 
L 3713 1100 
L 3047 1100 
L 3047 0 
L 2419 0 
L 2419 1100 
L 313 1100 
L 313 1709 
L 2253 4666 
z
" transform="scale(0.015625)"/>
       </defs>
       <use xlink:href="#DejaVuSans-34"/>
       <use xlink:href="#DejaVuSans-30" x="63.623047"/>
       <use xlink:href="#DejaVuSans-30" x="127.246094"/>
      </g>
     </g>
    </g>
    <g id="xtick_6">
     <g id="line2d_11">
      <path d="M 324.337778 307.584 
L 324.337778 41.472 
" clip-path="url(#pdfb71cc719)" style="fill: none; stroke: #b0b0b0; stroke-width: 0.8; stroke-linecap: square"/>
     </g>
     <g id="line2d_12">
      <g>
       <use xlink:href="#m1e2fba7148" x="324.337778" y="307.584" style="stroke: #000000; stroke-width: 0.8"/>
      </g>
     </g>
     <g id="text_6">
      <!-- 500 -->
      <g transform="translate(314.794028 322.182437) scale(0.1 -0.1)">
       <defs>
        <path id="DejaVuSans-35" d="M 691 4666 
L 3169 4666 
L 3169 4134 
L 1269 4134 
L 1269 2991 
Q 1406 3038 1543 3061 
Q 1681 3084 1819 3084 
Q 2600 3084 3056 2656 
Q 3513 2228 3513 1497 
Q 3513 744 3044 326 
Q 2575 -91 1722 -91 
Q 1428 -91 1123 -41 
Q 819 9 494 109 
L 494 744 
Q 775 591 1075 516 
Q 1375 441 1709 441 
Q 2250 441 2565 725 
Q 2881 1009 2881 1497 
Q 2881 1984 2565 2268 
Q 2250 2553 1709 2553 
Q 1456 2553 1204 2497 
Q 953 2441 691 2322 
L 691 4666 
z
" transform="scale(0.015625)"/>
       </defs>
       <use xlink:href="#DejaVuSans-35"/>
       <use xlink:href="#DejaVuSans-30" x="63.623047"/>
       <use xlink:href="#DejaVuSans-30" x="127.246094"/>
      </g>
     </g>
    </g>
    <g id="xtick_7">
     <g id="line2d_13">
      <path d="M 374.438788 307.584 
L 374.438788 41.472 
" clip-path="url(#pdfb71cc719)" style="fill: none; stroke: #b0b0b0; stroke-width: 0.8; stroke-linecap: square"/>
     </g>
     <g id="line2d_14">
      <g>
       <use xlink:href="#m1e2fba7148" x="374.438788" y="307.584" style="stroke: #000000; stroke-width: 0.8"/>
      </g>
     </g>
     <g id="text_7">
      <!-- 600 -->
      <g transform="translate(364.895038 322.182437) scale(0.1 -0.1)">
       <defs>
        <path id="DejaVuSans-36" d="M 2113 2584 
Q 1688 2584 1439 2293 
Q 1191 2003 1191 1497 
Q 1191 994 1439 701 
Q 1688 409 2113 409 
Q 2538 409 2786 701 
Q 3034 994 3034 1497 
Q 3034 2003 2786 2293 
Q 2538 2584 2113 2584 
z
M 3366 4563 
L 3366 3988 
Q 3128 4100 2886 4159 
Q 2644 4219 2406 4219 
Q 1781 4219 1451 3797 
Q 1122 3375 1075 2522 
Q 1259 2794 1537 2939 
Q 1816 3084 2150 3084 
Q 2853 3084 3261 2657 
Q 3669 2231 3669 1497 
Q 3669 778 3244 343 
Q 2819 -91 2113 -91 
Q 1303 -91 875 529 
Q 447 1150 447 2328 
Q 447 3434 972 4092 
Q 1497 4750 2381 4750 
Q 2619 4750 2861 4703 
Q 3103 4656 3366 4563 
z
" transform="scale(0.015625)"/>
       </defs>
       <use xlink:href="#DejaVuSans-36"/>
       <use xlink:href="#DejaVuSans-30" x="63.623047"/>
       <use xlink:href="#DejaVuSans-30" x="127.246094"/>
      </g>
     </g>
    </g>
    <g id="text_8">
     <!-- Generations -->
     <g transform="translate(205.662344 335.860562) scale(0.1 -0.1)">
      <defs>
       <path id="DejaVuSans-47" d="M 3809 666 
L 3809 1919 
L 2778 1919 
L 2778 2438 
L 4434 2438 
L 4434 434 
Q 4069 175 3628 42 
Q 3188 -91 2688 -91 
Q 1594 -91 976 548 
Q 359 1188 359 2328 
Q 359 3472 976 4111 
Q 1594 4750 2688 4750 
Q 3144 4750 3555 4637 
Q 3966 4525 4313 4306 
L 4313 3634 
Q 3963 3931 3569 4081 
Q 3175 4231 2741 4231 
Q 1884 4231 1454 3753 
Q 1025 3275 1025 2328 
Q 1025 1384 1454 906 
Q 1884 428 2741 428 
Q 3075 428 3337 486 
Q 3600 544 3809 666 
z
" transform="scale(0.015625)"/>
       <path id="DejaVuSans-65" d="M 3597 1894 
L 3597 1613 
L 953 1613 
Q 991 1019 1311 708 
Q 1631 397 2203 397 
Q 2534 397 2845 478 
Q 3156 559 3463 722 
L 3463 178 
Q 3153 47 2828 -22 
Q 2503 -91 2169 -91 
Q 1331 -91 842 396 
Q 353 884 353 1716 
Q 353 2575 817 3079 
Q 1281 3584 2069 3584 
Q 2775 3584 3186 3129 
Q 3597 2675 3597 1894 
z
M 3022 2063 
Q 3016 2534 2758 2815 
Q 2500 3097 2075 3097 
Q 1594 3097 1305 2825 
Q 1016 2553 972 2059 
L 3022 2063 
z
" transform="scale(0.015625)"/>
       <path id="DejaVuSans-6e" d="M 3513 2113 
L 3513 0 
L 2938 0 
L 2938 2094 
Q 2938 2591 2744 2837 
Q 2550 3084 2163 3084 
Q 1697 3084 1428 2787 
Q 1159 2491 1159 1978 
L 1159 0 
L 581 0 
L 581 3500 
L 1159 3500 
L 1159 2956 
Q 1366 3272 1645 3428 
Q 1925 3584 2291 3584 
Q 2894 3584 3203 3211 
Q 3513 2838 3513 2113 
z
" transform="scale(0.015625)"/>
       <path id="DejaVuSans-72" d="M 2631 2963 
Q 2534 3019 2420 3045 
Q 2306 3072 2169 3072 
Q 1681 3072 1420 2755 
Q 1159 2438 1159 1844 
L 1159 0 
L 581 0 
L 581 3500 
L 1159 3500 
L 1159 2956 
Q 1341 3275 1631 3429 
Q 1922 3584 2338 3584 
Q 2397 3584 2469 3576 
Q 2541 3569 2628 3553 
L 2631 2963 
z
" transform="scale(0.015625)"/>
       <path id="DejaVuSans-61" d="M 2194 1759 
Q 1497 1759 1228 1600 
Q 959 1441 959 1056 
Q 959 750 1161 570 
Q 1363 391 1709 391 
Q 2188 391 2477 730 
Q 2766 1069 2766 1631 
L 2766 1759 
L 2194 1759 
z
M 3341 1997 
L 3341 0 
L 2766 0 
L 2766 531 
Q 2569 213 2275 61 
Q 1981 -91 1556 -91 
Q 1019 -91 701 211 
Q 384 513 384 1019 
Q 384 1609 779 1909 
Q 1175 2209 1959 2209 
L 2766 2209 
L 2766 2266 
Q 2766 2663 2505 2880 
Q 2244 3097 1772 3097 
Q 1472 3097 1187 3025 
Q 903 2953 641 2809 
L 641 3341 
Q 956 3463 1253 3523 
Q 1550 3584 1831 3584 
Q 2591 3584 2966 3190 
Q 3341 2797 3341 1997 
z
" transform="scale(0.015625)"/>
       <path id="DejaVuSans-74" d="M 1172 4494 
L 1172 3500 
L 2356 3500 
L 2356 3053 
L 1172 3053 
L 1172 1153 
Q 1172 725 1289 603 
Q 1406 481 1766 481 
L 2356 481 
L 2356 0 
L 1766 0 
Q 1100 0 847 248 
Q 594 497 594 1153 
L 594 3053 
L 172 3053 
L 172 3500 
L 594 3500 
L 594 4494 
L 1172 4494 
z
" transform="scale(0.015625)"/>
       <path id="DejaVuSans-69" d="M 603 3500 
L 1178 3500 
L 1178 0 
L 603 0 
L 603 3500 
z
M 603 4863 
L 1178 4863 
L 1178 4134 
L 603 4134 
L 603 4863 
z
" transform="scale(0.015625)"/>
       <path id="DejaVuSans-6f" d="M 1959 3097 
Q 1497 3097 1228 2736 
Q 959 2375 959 1747 
Q 959 1119 1226 758 
Q 1494 397 1959 397 
Q 2419 397 2687 759 
Q 2956 1122 2956 1747 
Q 2956 2369 2687 2733 
Q 2419 3097 1959 3097 
z
M 1959 3584 
Q 2709 3584 3137 3096 
Q 3566 2609 3566 1747 
Q 3566 888 3137 398 
Q 2709 -91 1959 -91 
Q 1206 -91 779 398 
Q 353 888 353 1747 
Q 353 2609 779 3096 
Q 1206 3584 1959 3584 
z
" transform="scale(0.015625)"/>
       <path id="DejaVuSans-73" d="M 2834 3397 
L 2834 2853 
Q 2591 2978 2328 3040 
Q 2066 3103 1784 3103 
Q 1356 3103 1142 2972 
Q 928 2841 928 2578 
Q 928 2378 1081 2264 
Q 1234 2150 1697 2047 
L 1894 2003 
Q 2506 1872 2764 1633 
Q 3022 1394 3022 966 
Q 3022 478 2636 193 
Q 2250 -91 1575 -91 
Q 1294 -91 989 -36 
Q 684 19 347 128 
L 347 722 
Q 666 556 975 473 
Q 1284 391 1588 391 
Q 1994 391 2212 530 
Q 2431 669 2431 922 
Q 2431 1156 2273 1281 
Q 2116 1406 1581 1522 
L 1381 1569 
Q 847 1681 609 1914 
Q 372 2147 372 2553 
Q 372 3047 722 3315 
Q 1072 3584 1716 3584 
Q 2034 3584 2315 3537 
Q 2597 3491 2834 3397 
z
" transform="scale(0.015625)"/>
      </defs>
      <use xlink:href="#DejaVuSans-47"/>
      <use xlink:href="#DejaVuSans-65" x="77.490234"/>
      <use xlink:href="#DejaVuSans-6e" x="139.013672"/>
      <use xlink:href="#DejaVuSans-65" x="202.392578"/>
      <use xlink:href="#DejaVuSans-72" x="263.916016"/>
      <use xlink:href="#DejaVuSans-61" x="305.029297"/>
      <use xlink:href="#DejaVuSans-74" x="366.308594"/>
      <use xlink:href="#DejaVuSans-69" x="405.517578"/>
      <use xlink:href="#DejaVuSans-6f" x="433.300781"/>
      <use xlink:href="#DejaVuSans-6e" x="494.482422"/>
      <use xlink:href="#DejaVuSans-73" x="557.861328"/>
     </g>
    </g>
   </g>
   <g id="matplotlib.axis_2">
    <g id="ytick_1">
     <g id="line2d_15">
      <path d="M 57.6 276.174109 
L 414.72 276.174109 
" clip-path="url(#pdfb71cc719)" style="fill: none; stroke: #b0b0b0; stroke-width: 0.8; stroke-linecap: square"/>
     </g>
     <g id="line2d_16">
      <defs>
       <path id="mff6ed1b938" d="M 0 0 
L -3.5 0 
" style="stroke: #000000; stroke-width: 0.8"/>
      </defs>
      <g>
       <use xlink:href="#mff6ed1b938" x="57.6" y="276.174109" style="stroke: #000000; stroke-width: 0.8"/>
      </g>
     </g>
     <g id="text_9">
      <!-- −1.0 -->
      <g transform="translate(26.317187 279.973328) scale(0.1 -0.1)">
       <defs>
        <path id="DejaVuSans-2212" d="M 678 2272 
L 4684 2272 
L 4684 1741 
L 678 1741 
L 678 2272 
z
" transform="scale(0.015625)"/>
        <path id="DejaVuSans-2e" d="M 684 794 
L 1344 794 
L 1344 0 
L 684 0 
L 684 794 
z
" transform="scale(0.015625)"/>
       </defs>
       <use xlink:href="#DejaVuSans-2212"/>
       <use xlink:href="#DejaVuSans-31" x="83.789062"/>
       <use xlink:href="#DejaVuSans-2e" x="147.412109"/>
       <use xlink:href="#DejaVuSans-30" x="179.199219"/>
      </g>
     </g>
    </g>
    <g id="ytick_2">
     <g id="line2d_17">
      <path d="M 57.6 241.871142 
L 414.72 241.871142 
" clip-path="url(#pdfb71cc719)" style="fill: none; stroke: #b0b0b0; stroke-width: 0.8; stroke-linecap: square"/>
     </g>
     <g id="line2d_18">
      <g>
       <use xlink:href="#mff6ed1b938" x="57.6" y="241.871142" style="stroke: #000000; stroke-width: 0.8"/>
      </g>
     </g>
     <g id="text_10">
      <!-- −0.5 -->
      <g transform="translate(26.317187 245.670361) scale(0.1 -0.1)">
       <use xlink:href="#DejaVuSans-2212"/>
       <use xlink:href="#DejaVuSans-30" x="83.789062"/>
       <use xlink:href="#DejaVuSans-2e" x="147.412109"/>
       <use xlink:href="#DejaVuSans-35" x="179.199219"/>
      </g>
     </g>
    </g>
    <g id="ytick_3">
     <g id="line2d_19">
      <path d="M 57.6 207.568175 
L 414.72 207.568175 
" clip-path="url(#pdfb71cc719)" style="fill: none; stroke: #b0b0b0; stroke-width: 0.8; stroke-linecap: square"/>
     </g>
     <g id="line2d_20">
      <g>
       <use xlink:href="#mff6ed1b938" x="57.6" y="207.568175" style="stroke: #000000; stroke-width: 0.8"/>
      </g>
     </g>
     <g id="text_11">
      <!-- 0.0 -->
      <g transform="translate(34.696875 211.367394) scale(0.1 -0.1)">
       <use xlink:href="#DejaVuSans-30"/>
       <use xlink:href="#DejaVuSans-2e" x="63.623047"/>
       <use xlink:href="#DejaVuSans-30" x="95.410156"/>
      </g>
     </g>
    </g>
    <g id="ytick_4">
     <g id="line2d_21">
      <path d="M 57.6 173.265208 
L 414.72 173.265208 
" clip-path="url(#pdfb71cc719)" style="fill: none; stroke: #b0b0b0; stroke-width: 0.8; stroke-linecap: square"/>
     </g>
     <g id="line2d_22">
      <g>
       <use xlink:href="#mff6ed1b938" x="57.6" y="173.265208" style="stroke: #000000; stroke-width: 0.8"/>
      </g>
     </g>
     <g id="text_12">
      <!-- 0.5 -->
      <g transform="translate(34.696875 177.064427) scale(0.1 -0.1)">
       <use xlink:href="#DejaVuSans-30"/>
       <use xlink:href="#DejaVuSans-2e" x="63.623047"/>
       <use xlink:href="#DejaVuSans-35" x="95.410156"/>
      </g>
     </g>
    </g>
    <g id="ytick_5">
     <g id="line2d_23">
      <path d="M 57.6 138.962241 
L 414.72 138.962241 
" clip-path="url(#pdfb71cc719)" style="fill: none; stroke: #b0b0b0; stroke-width: 0.8; stroke-linecap: square"/>
     </g>
     <g id="line2d_24">
      <g>
       <use xlink:href="#mff6ed1b938" x="57.6" y="138.962241" style="stroke: #000000; stroke-width: 0.8"/>
      </g>
     </g>
     <g id="text_13">
      <!-- 1.0 -->
      <g transform="translate(34.696875 142.76146) scale(0.1 -0.1)">
       <use xlink:href="#DejaVuSans-31"/>
       <use xlink:href="#DejaVuSans-2e" x="63.623047"/>
       <use xlink:href="#DejaVuSans-30" x="95.410156"/>
      </g>
     </g>
    </g>
    <g id="ytick_6">
     <g id="line2d_25">
      <path d="M 57.6 104.659274 
L 414.72 104.659274 
" clip-path="url(#pdfb71cc719)" style="fill: none; stroke: #b0b0b0; stroke-width: 0.8; stroke-linecap: square"/>
     </g>
     <g id="line2d_26">
      <g>
       <use xlink:href="#mff6ed1b938" x="57.6" y="104.659274" style="stroke: #000000; stroke-width: 0.8"/>
      </g>
     </g>
     <g id="text_14">
      <!-- 1.5 -->
      <g transform="translate(34.696875 108.458492) scale(0.1 -0.1)">
       <use xlink:href="#DejaVuSans-31"/>
       <use xlink:href="#DejaVuSans-2e" x="63.623047"/>
       <use xlink:href="#DejaVuSans-35" x="95.410156"/>
      </g>
     </g>
    </g>
    <g id="ytick_7">
     <g id="line2d_27">
      <path d="M 57.6 70.356307 
L 414.72 70.356307 
" clip-path="url(#pdfb71cc719)" style="fill: none; stroke: #b0b0b0; stroke-width: 0.8; stroke-linecap: square"/>
     </g>
     <g id="line2d_28">
      <g>
       <use xlink:href="#mff6ed1b938" x="57.6" y="70.356307" style="stroke: #000000; stroke-width: 0.8"/>
      </g>
     </g>
     <g id="text_15">
      <!-- 2.0 -->
      <g transform="translate(34.696875 74.155525) scale(0.1 -0.1)">
       <use xlink:href="#DejaVuSans-32"/>
       <use xlink:href="#DejaVuSans-2e" x="63.623047"/>
       <use xlink:href="#DejaVuSans-30" x="95.410156"/>
      </g>
     </g>
    </g>
    <g id="text_16">
     <!-- Fitness -->
     <g transform="translate(20.2375 191.845187) rotate(-90) scale(0.1 -0.1)">
      <defs>
       <path id="DejaVuSans-46" d="M 628 4666 
L 3309 4666 
L 3309 4134 
L 1259 4134 
L 1259 2759 
L 3109 2759 
L 3109 2228 
L 1259 2228 
L 1259 0 
L 628 0 
L 628 4666 
z
" transform="scale(0.015625)"/>
      </defs>
      <use xlink:href="#DejaVuSans-46"/>
      <use xlink:href="#DejaVuSans-69" x="50.269531"/>
      <use xlink:href="#DejaVuSans-74" x="78.052734"/>
      <use xlink:href="#DejaVuSans-6e" x="117.261719"/>
      <use xlink:href="#DejaVuSans-65" x="180.640625"/>
      <use xlink:href="#DejaVuSans-73" x="242.164062"/>
      <use xlink:href="#DejaVuSans-73" x="294.263672"/>
     </g>
    </g>
   </g>
   <g id="line2d_29">
    <path d="M 73.832727 176.290158 
L 74.333737 181.459996 
L 74.834747 189.4301 
L 75.335758 180.466925 
L 75.836768 181.297057 
L 76.337778 174.224071 
L 76.838788 172.476621 
L 77.339798 162.675882 
L 77.840808 197.320926 
L 78.341818 191.914492 
L 78.842828 177.329728 
L 79.343838 185.751392 
L 79.844848 182.792762 
L 80.345859 198.473315 
L 80.846869 168.987056 
L 81.347879 182.259922 
L 81.848889 190.222308 
L 82.349899 169.06843 
L 82.850909 162.5138 
L 83.351919 172.530553 
L 83.852929 176.448904 
L 84.353939 192.733285 
L 84.854949 166.343536 
L 85.35596 172.650804 
L 85.85697 163.633125 
L 86.35798 187.537815 
L 86.85899 175.529394 
L 87.36 195.905356 
L 87.86101 179.073844 
L 88.36202 183.208304 
L 88.86303 165.481007 
L 89.36404 193.188466 
L 89.865051 164.964557 
L 90.366061 190.161897 
L 90.867071 192.282773 
L 91.368081 187.515708 
L 91.869091 193.679666 
L 92.370101 184.236535 
L 92.871111 178.585312 
L 93.372121 179.896448 
L 93.873131 176.266622 
L 94.374141 193.352644 
L 94.875152 185.850395 
L 95.376162 211.270894 
L 96.378182 174.762247 
L 96.879192 189.227617 
L 97.380202 186.221343 
L 97.881212 182.303944 
L 98.382222 171.740727 
L 99.384242 202.122484 
L 99.885253 195.00881 
L 100.386263 191.167831 
L 100.887273 203.84373 
L 101.388283 186.08718 
L 101.889293 208.683212 
L 102.390303 192.516319 
L 102.891313 208.705509 
L 103.392323 207.8628 
L 103.893333 206.436368 
L 104.394343 209.435018 
L 104.895354 201.052041 
L 105.396364 180.786705 
L 105.897374 179.866909 
L 106.398384 172.711596 
L 106.899394 186.479759 
L 107.400404 170.895921 
L 107.901414 206.913941 
L 108.402424 204.175421 
L 108.903434 207.189603 
L 109.404444 198.452447 
L 109.905455 178.554344 
L 110.406465 179.641653 
L 110.907475 176.643192 
L 111.408485 191.142961 
L 111.909495 177.344498 
L 112.911515 189.471359 
L 113.412525 186.508249 
L 113.913535 200.987722 
L 114.414545 174.623224 
L 114.915556 186.621735 
L 115.416566 173.444536 
L 115.917576 184.216525 
L 116.418586 180.583079 
L 116.919596 191.919161 
L 117.420606 190.534179 
L 117.921616 189.690898 
L 118.422626 189.314613 
L 118.923636 178.045135 
L 119.424646 197.599066 
L 119.925657 187.246049 
L 120.426667 183.276624 
L 121.929697 195.757663 
L 122.430707 179.330925 
L 122.931717 200.458504 
L 123.432727 215.768585 
L 123.933737 209.409863 
L 124.434747 186.023529 
L 124.935758 198.419383 
L 125.436768 185.684788 
L 125.937778 200.472987 
L 126.438788 208.265383 
L 126.939798 183.402878 
L 127.440808 187.246716 
L 127.941818 197.029065 
L 128.442828 180.625958 
L 128.943838 188.577481 
L 129.444848 170.777957 
L 129.945859 183.97812 
L 130.446869 190.886833 
L 130.947879 169.588406 
L 131.949899 199.346135 
L 132.450909 192.496213 
L 132.951919 191.03929 
L 133.452929 188.896879 
L 133.953939 185.489166 
L 134.454949 201.541811 
L 135.45697 201.729524 
L 135.95798 190.501115 
L 136.45899 196.418758 
L 136.96 187.485217 
L 137.46101 162.580119 
L 137.96202 171.401699 
L 138.46303 186.185802 
L 138.96404 173.505519 
L 139.966061 192.120119 
L 140.467071 189.066298 
L 140.968081 163.595582 
L 141.469091 170.683719 
L 141.970101 191.211758 
L 142.471111 192.638094 
L 142.972121 198.474744 
L 143.473131 171.909288 
L 143.974141 184.966808 
L 144.475152 184.810348 
L 144.976162 181.867725 
L 145.477172 174.985406 
L 145.978182 211.451461 
L 146.479192 195.207958 
L 146.980202 164.210749 
L 147.481212 188.936232 
L 147.982222 194.046326 
L 148.483232 182.848694 
L 148.984242 181.815222 
L 149.485253 195.82341 
L 149.986263 188.328212 
L 150.487273 188.254175 
L 150.988283 180.491795 
L 151.489293 183.494924 
L 151.990303 163.851712 
L 152.491313 194.692365 
L 152.992323 164.875464 
L 153.493333 191.398805 
L 153.994343 155.555253 
L 154.495354 191.627872 
L 154.996364 189.443535 
L 155.497374 163.65304 
L 155.998384 196.049429 
L 156.499394 190.618126 
L 157.000404 187.674169 
L 157.501414 172.152076 
L 158.002424 161.68586 
L 158.503434 175.956275 
L 159.004444 169.49655 
L 160.507475 182.080403 
L 161.008485 184.110663 
L 161.509495 193.256977 
L 162.010505 183.886931 
L 162.511515 168.509864 
L 163.012525 189.354919 
L 163.513535 171.557206 
L 164.014545 179.764381 
L 164.515556 172.836897 
L 165.016566 157.79657 
L 166.018586 184.462649 
L 166.519596 173.427956 
L 167.020606 187.975177 
L 167.521616 176.635856 
L 168.022626 192.962353 
L 168.523636 177.56013 
L 169.024646 192.902894 
L 169.525657 173.097028 
L 170.026667 181.110582 
L 170.527677 172.68644 
L 171.028687 180.998622 
L 171.529697 198.491133 
L 172.030707 184.567654 
L 172.531717 182.289175 
L 173.032727 170.352886 
L 173.533737 168.255736 
L 174.034747 172.788016 
L 174.535758 201.192778 
L 175.537778 157.424479 
L 176.038788 170.332113 
L 176.539798 161.525113 
L 177.040808 155.593367 
L 177.541818 151.545522 
L 178.042828 144.748579 
L 178.543838 162.229657 
L 179.044848 185.665826 
L 179.545859 173.865033 
L 180.046869 175.564078 
L 180.547879 153.869357 
L 181.048889 172.759048 
L 181.549899 183.652241 
L 182.050909 160.372247 
L 182.551919 163.900307 
L 183.052929 182.328528 
L 183.553939 183.462908 
L 184.054949 164.236286 
L 184.55596 175.249825 
L 185.05697 175.111374 
L 185.55798 166.555738 
L 186.05899 178.265627 
L 186.56 179.817932 
L 187.06101 193.855659 
L 188.06303 182.874803 
L 188.56404 195.299719 
L 189.065051 172.908552 
L 189.566061 205.08302 
L 190.067071 198.258159 
L 190.568081 181.448276 
L 191.069091 180.510566 
L 191.570101 193.525112 
L 192.572121 174.023112 
L 193.574141 190.677299 
L 194.075152 205.685704 
L 194.576162 183.228123 
L 195.077172 179.152264 
L 195.578182 176.810324 
L 196.079192 163.953382 
L 197.081212 186.316057 
L 197.582222 196.919962 
L 198.083232 193.166837 
L 198.584242 182.60743 
L 199.085253 194.697892 
L 199.586263 174.392536 
L 200.087273 169.438426 
L 200.588283 186.155596 
L 201.089293 188.084185 
L 201.590303 171.474783 
L 202.091313 179.004285 
L 202.592323 168.480325 
L 203.093333 182.682897 
L 203.594343 191.92526 
L 204.095354 192.700983 
L 204.596364 199.700885 
L 205.097374 202.924887 
L 205.598384 208.281963 
L 206.099394 199.753102 
L 206.600404 176.728854 
L 207.101414 190.816416 
L 207.602424 185.811232 
L 208.103434 178.707659 
L 208.604444 183.262331 
L 209.105455 174.07895 
L 209.606465 177.561845 
L 210.107475 188.328689 
L 210.608485 194.058142 
L 211.109495 171.622286 
L 211.610505 180.881515 
L 212.111515 170.988253 
L 212.612525 168.199993 
L 213.113535 167.058277 
L 213.614545 175.36817 
L 214.115556 171.334999 
L 214.616566 190.488156 
L 215.117576 174.046172 
L 215.618586 197.435269 
L 216.119596 185.383398 
L 216.620606 208.14294 
L 217.121616 196.50442 
L 217.622626 189.215611 
L 218.123636 190.659289 
L 218.624646 192.606269 
L 219.125657 181.082949 
L 219.626667 198.793857 
L 220.127677 175.241249 
L 220.628687 168.684428 
L 221.129697 176.787456 
L 221.630707 192.439899 
L 222.131717 177.040345 
L 222.632727 191.923925 
L 223.133737 161.094991 
L 223.634747 172.638321 
L 224.135758 171.577978 
L 224.636768 179.054119 
L 225.137778 194.934869 
L 225.638788 195.344217 
L 226.139798 161.082223 
L 226.640808 163.371756 
L 227.141818 168.055254 
L 227.642828 168.067927 
L 228.143838 184.531827 
L 228.644848 181.308396 
L 229.145859 178.886892 
L 229.646869 189.448776 
L 230.147879 182.958083 
L 230.648889 179.809738 
L 231.149899 171.597607 
L 231.650909 181.370237 
L 232.151919 163.322683 
L 232.652929 182.22276 
L 233.153939 180.527432 
L 233.654949 191.7122 
L 234.15596 161.107474 
L 234.65697 184.411766 
L 235.65899 164.570072 
L 236.16 183.905702 
L 236.66101 179.525213 
L 237.16202 186.766284 
L 237.66303 171.46859 
L 238.16404 187.925343 
L 238.665051 185.586071 
L 239.166061 184.600909 
L 239.667071 176.75401 
L 240.168081 178.145472 
L 240.669091 175.16159 
L 241.170101 167.393302 
L 241.671111 181.988738 
L 242.172121 173.103031 
L 242.673131 204.645848 
L 243.174141 180.099407 
L 243.675152 195.444744 
L 244.176162 168.014757 
L 244.677172 209.094943 
L 245.178182 164.861362 
L 245.679192 178.119745 
L 246.180202 174.253896 
L 246.681212 192.359478 
L 247.182222 192.635712 
L 247.683232 167.280865 
L 248.184242 169.951065 
L 248.685253 176.114832 
L 249.186263 175.525487 
L 249.687273 183.780306 
L 250.188283 202.614826 
L 250.689293 184.126099 
L 251.190303 184.670563 
L 251.691313 186.692247 
L 252.192323 196.335954 
L 252.693333 180.094452 
L 253.194343 180.394127 
L 253.695354 200.231342 
L 254.196364 194.164291 
L 254.697374 180.34191 
L 255.198384 189.923967 
L 255.699394 185.085915 
L 256.200404 190.09148 
L 257.202424 203.625525 
L 257.703434 196.42781 
L 258.204444 183.667487 
L 258.705455 158.655288 
L 259.206465 190.389725 
L 259.707475 170.360413 
L 260.208485 175.179218 
L 260.709495 178.417514 
L 261.210505 171.5169 
L 261.711515 182.570269 
L 262.713535 177.443214 
L 263.214545 159.198038 
L 263.715556 171.259056 
L 264.216566 174.880592 
L 264.717576 183.212687 
L 265.218586 179.785916 
L 265.719596 195.624739 
L 266.220606 188.649231 
L 266.721616 202.405007 
L 267.222626 188.258082 
L 267.723636 184.299901 
L 268.224646 197.316638 
L 268.725657 180.64673 
L 269.226667 192.443711 
L 269.727677 171.692989 
L 270.228687 164.646302 
L 270.729697 179.238879 
L 271.230707 176.71904 
L 271.731717 178.723 
L 272.232727 172.059649 
L 272.733737 189.225521 
L 273.234747 189.244102 
L 273.735758 173.075589 
L 274.236768 179.194285 
L 274.737778 189.884138 
L 275.238788 190.160086 
L 275.739798 170.350504 
L 276.240808 185.136226 
L 276.741818 174.891168 
L 277.242828 168.400571 
L 277.743838 177.704679 
L 278.244848 174.552712 
L 278.745859 184.201756 
L 279.246869 173.65245 
L 279.747879 149.591491 
L 280.248889 175.347589 
L 280.749899 156.718504 
L 281.250909 187.78775 
L 281.751919 178.131465 
L 282.252929 163.325542 
L 282.753939 178.184158 
L 283.254949 162.388404 
L 283.75596 191.305519 
L 284.25697 161.699009 
L 284.75798 168.240586 
L 285.25899 168.3939 
L 285.76 201.46015 
L 286.26101 189.969323 
L 286.76202 183.410501 
L 287.26303 161.033246 
L 287.76404 182.328528 
L 288.265051 193.326345 
L 288.766061 178.884225 
L 289.267071 178.170913 
L 289.768081 173.428528 
L 290.269091 194.88389 
L 290.770101 174.822277 
L 291.271111 172.817935 
L 291.772121 184.131721 
L 292.273131 161.140157 
L 292.774141 173.503899 
L 293.275152 182.641447 
L 293.776162 167.524225 
L 294.277172 186.443169 
L 294.778182 190.188958 
L 295.279192 173.027279 
L 295.780202 167.288773 
L 296.782222 192.603029 
L 297.784242 173.323809 
L 298.285253 189.673365 
L 298.786263 192.574348 
L 299.287273 203.942542 
L 299.788283 196.985042 
L 300.289293 206.555094 
L 300.790303 190.887023 
L 301.291313 193.843082 
L 301.792323 191.930691 
L 302.293333 185.315268 
L 302.794343 174.317547 
L 303.295354 187.986136 
L 303.796364 171.370827 
L 304.297374 172.996501 
L 304.798384 180.755642 
L 305.299394 181.26809 
L 305.800404 192.569489 
L 306.301414 179.062123 
L 306.802424 188.60216 
L 307.303434 188.758524 
L 307.804444 195.073605 
L 308.305455 173.614336 
L 308.806465 165.855291 
L 309.307475 192.312883 
L 309.808485 188.867341 
L 310.309495 192.329558 
L 310.810505 170.09952 
L 311.311515 181.825894 
L 311.812525 184.368697 
L 312.313535 179.186853 
L 312.814545 172.412875 
L 313.315556 163.84142 
L 313.816566 181.83952 
L 314.317576 190.988694 
L 314.818586 183.157993 
L 315.319596 208.283678 
L 315.820606 202.61092 
L 316.321616 182.516813 
L 316.822626 178.743392 
L 317.323636 178.169198 
L 317.824646 195.954524 
L 318.325657 171.066293 
L 318.826667 173.667314 
L 319.327677 188.003763 
L 319.828687 176.185152 
L 320.329697 183.484062 
L 320.830707 165.996409 
L 321.331717 161.790389 
L 321.832727 172.31654 
L 322.333737 153.097064 
L 322.834747 173.103412 
L 323.335758 167.899747 
L 323.836768 181.919751 
L 324.337778 174.47515 
L 324.838788 187.546105 
L 325.840808 173.490464 
L 326.341818 181.518883 
L 326.842828 181.778061 
L 327.343838 200.746173 
L 327.844848 190.747048 
L 328.345859 192.212833 
L 328.846869 196.490794 
L 329.347879 164.368828 
L 329.848889 192.817995 
L 330.349899 162.168865 
L 330.850909 161.827169 
L 331.351919 163.170512 
L 331.852929 195.108575 
L 332.854949 173.009079 
L 333.35596 217.595027 
L 334.35798 161.006566 
L 334.85899 163.179373 
L 335.36 184.779189 
L 335.86101 184.163642 
L 336.36202 168.312908 
L 336.86303 199.982169 
L 337.36404 186.284327 
L 337.865051 192.452382 
L 338.366061 176.182484 
L 338.867071 181.040452 
L 339.368081 189.577889 
L 339.869091 200.657461 
L 340.370101 214.621818 
L 340.871111 201.958496 
L 341.372121 199.981883 
L 341.873131 174.833425 
L 342.374141 177.267507 
L 342.875152 182.053818 
L 343.376162 184.008992 
L 343.877172 186.783626 
L 344.378182 183.390491 
L 344.879192 187.527333 
L 345.380202 193.192754 
L 345.881212 175.282508 
L 346.382222 199.76425 
L 346.883232 177.487808 
L 347.384242 196.721291 
L 347.885253 167.488779 
L 348.386263 194.724096 
L 348.887273 179.707019 
L 349.388283 176.251662 
L 350.390303 164.705093 
L 351.392323 191.56889 
L 351.893333 156.035685 
L 353.396364 188.733845 
L 353.897374 167.728423 
L 354.398384 171.523093 
L 354.899394 171.536815 
L 355.400404 205.386411 
L 356.402424 179.288904 
L 356.903434 186.615732 
L 357.404444 174.662577 
L 357.905455 169.254905 
L 358.406465 186.156358 
L 358.907475 190.270808 
L 359.408485 164.280212 
L 359.909495 170.035583 
L 360.410505 160.644098 
L 360.911515 169.703321 
L 361.412525 182.301657 
L 361.913535 158.331697 
L 362.414545 190.01506 
L 362.915556 178.886797 
L 363.416566 188.692205 
L 363.917576 188.707832 
L 364.418586 198.919253 
L 364.919596 191.201944 
L 365.420606 154.716068 
L 365.921616 158.100152 
L 366.422626 197.34408 
L 366.923636 166.941646 
L 367.424646 182.260113 
L 367.925657 192.945868 
L 368.426667 180.543821 
L 368.927677 153.053995 
L 369.428687 171.755973 
L 369.929697 194.895611 
L 370.430707 187.519043 
L 370.931717 172.88616 
L 371.432727 167.084575 
L 371.933737 196.524049 
L 372.434747 187.717811 
L 372.935758 175.161495 
L 373.436768 177.302286 
L 373.937778 182.906629 
L 374.438788 185.903564 
L 374.939798 173.043382 
L 375.941818 165.887592 
L 376.442828 166.713722 
L 376.943838 173.573458 
L 377.444848 188.96053 
L 377.945859 179.21763 
L 378.446869 185.295639 
L 378.947879 162.451007 
L 379.448889 171.412181 
L 379.949899 169.462057 
L 380.450909 164.842876 
L 380.951919 175.938171 
L 381.452929 178.710994 
L 381.953939 174.685065 
L 382.454949 160.172337 
L 382.95596 167.859156 
L 383.45697 170.138397 
L 383.95798 189.095646 
L 384.45899 169.388973 
L 384.96 198.741259 
L 385.46101 172.270898 
L 385.96202 191.19232 
L 386.46303 169.989941 
L 386.96404 177.67495 
L 387.465051 165.027255 
L 387.966061 195.836655 
L 388.467071 194.171437 
L 388.968081 202.247689 
L 389.469091 183.562577 
L 390.471111 205.611381 
L 390.972121 180.294648 
L 391.473131 173.308944 
L 391.974141 186.4203 
L 392.475152 159.890005 
L 392.976162 178.722619 
L 393.477172 181.931471 
L 393.978182 186.849469 
L 394.479192 187.104644 
L 394.980202 184.897248 
L 395.481212 183.472437 
L 395.982222 181.240171 
L 396.483232 179.729888 
L 396.984242 179.779341 
L 397.485253 159.814252 
L 397.986263 154.702538 
L 398.487273 162.576594 
L 398.487273 162.576594 
" clip-path="url(#pdfb71cc719)" style="fill: none; stroke: #0000ff; stroke-width: 1.5; stroke-linecap: square"/>
   </g>
   <g id="line2d_30">
    <path d="M 73.832727 265.903641 
L 74.834747 278.010145 
L 75.335758 268.668061 
L 75.836768 271.502316 
L 76.337778 267.248155 
L 76.838788 262.030215 
L 77.339798 253.419289 
L 77.840808 286.746839 
L 78.842828 266.634477 
L 79.343838 273.721691 
L 79.844848 268.797679 
L 80.345859 282.843536 
L 80.846869 256.602099 
L 81.347879 275.318234 
L 81.848889 281.007951 
L 82.349899 256.826282 
L 82.850909 249.086817 
L 83.351919 259.428465 
L 83.852929 264.764529 
L 84.353939 281.257662 
L 84.854949 255.229326 
L 85.35596 262.2786 
L 85.85697 254.095063 
L 86.35798 269.215103 
L 86.85899 267.466683 
L 87.36 281.58163 
L 87.86101 273.116185 
L 88.36202 274.295623 
L 88.86303 256.415458 
L 89.36404 282.523666 
L 89.865051 255.274657 
L 90.366061 277.461638 
L 90.867071 279.348957 
L 91.368081 274.190202 
L 91.869091 281.114044 
L 92.370101 277.730624 
L 92.871111 267.602038 
L 93.372121 273.630925 
L 93.873131 268.539273 
L 94.374141 280.570072 
L 94.875152 278.089066 
L 95.376162 292.308609 
L 95.877172 283.155988 
L 96.378182 263.540569 
L 96.879192 276.378182 
L 97.380202 277.258118 
L 97.881212 270.79278 
L 98.382222 259.375689 
L 99.384242 291.62331 
L 99.885253 283.753093 
L 100.386263 279.46023 
L 100.887273 290.20371 
L 101.388283 276.020564 
L 101.889293 293.985583 
L 102.390303 274.851684 
L 102.891313 289.005146 
L 103.392323 293.253255 
L 103.893333 286.824605 
L 104.394343 292.429891 
L 104.895354 285.138573 
L 105.396364 270.724871 
L 106.398384 265.884975 
L 106.899394 272.322264 
L 107.400404 264.107253 
L 107.901414 292.640299 
L 108.402424 285.955508 
L 108.903434 290.521346 
L 109.404444 280.948938 
L 109.905455 262.699088 
L 110.406465 266.819572 
L 110.907475 266.177412 
L 111.408485 278.565092 
L 111.909495 266.341501 
L 112.911515 277.206236 
L 113.412525 277.62653 
L 113.913535 287.088837 
L 114.414545 264.843775 
L 114.915556 273.665079 
L 115.416566 261.402091 
L 115.917576 275.689584 
L 116.418586 270.900218 
L 116.919596 280.726366 
L 117.420606 278.214707 
L 117.921616 277.842164 
L 118.422626 278.319883 
L 118.923636 268.29542 
L 119.424646 281.528726 
L 120.426667 268.56354 
L 121.428687 281.427424 
L 121.929697 279.546009 
L 122.430707 269.008475 
L 122.931717 283.974744 
L 123.432727 293.866249 
L 123.933737 286.458272 
L 124.434747 270.150906 
L 124.935758 279.17145 
L 125.436768 273.04181 
L 126.438788 291.828721 
L 126.939798 268.123901 
L 127.941818 281.446695 
L 128.442828 267.929696 
L 128.943838 277.401486 
L 129.444848 263.10281 
L 129.945859 274.211452 
L 130.446869 278.410194 
L 130.947879 257.368969 
L 131.448889 274.061807 
L 131.949899 286.307274 
L 132.450909 280.565174 
L 132.951919 278.547622 
L 133.452929 279.025123 
L 133.953939 274.387669 
L 134.454949 288.385166 
L 134.95596 285.432223 
L 135.45697 288.487326 
L 135.95798 280.111594 
L 136.45899 279.13557 
L 136.96 277.147515 
L 137.46101 252.162699 
L 137.96202 264.321621 
L 138.46303 272.627132 
L 138.96404 263.199088 
L 139.465051 273.102997 
L 139.966061 278.928323 
L 140.467071 279.56161 
L 140.968081 255.334838 
L 141.469091 260.220367 
L 141.970101 276.741103 
L 142.972121 284.022745 
L 143.473131 259.838145 
L 143.974141 272.453953 
L 144.475152 273.950961 
L 145.477172 265.435974 
L 145.978182 293.336025 
L 146.479192 279.456891 
L 146.980202 253.543223 
L 147.481212 278.560804 
L 147.982222 282.029412 
L 148.483232 270.078238 
L 148.984242 269.553729 
L 149.485253 281.511205 
L 149.986263 273.960489 
L 150.487273 276.089575 
L 150.988283 270.161317 
L 151.489293 272.918199 
L 151.990303 255.244482 
L 152.491313 284.498926 
L 152.992323 253.153714 
L 153.493333 281.703549 
L 153.994343 242.8737 
L 154.495354 278.409843 
L 154.996364 276.330457 
L 155.497374 248.44979 
L 155.998384 280.744292 
L 157.000404 272.353757 
L 158.002424 251.755439 
L 158.503434 265.867607 
L 159.004444 259.141803 
L 159.505455 263.843546 
L 160.006465 269.85572 
L 160.507475 274.137782 
L 161.008485 274.169622 
L 161.509495 282.553456 
L 162.010505 272.955324 
L 162.511515 259.157711 
L 163.012525 273.24941 
L 163.513535 260.904336 
L 164.014545 271.612263 
L 164.515556 264.124668 
L 165.016566 248.178553 
L 165.517576 256.108392 
L 166.018586 273.008592 
L 166.519596 264.657497 
L 167.020606 280.184007 
L 167.521616 263.286109 
L 168.022626 279.928531 
L 168.523636 266.76682 
L 169.024646 279.881186 
L 169.525657 265.776778 
L 170.026667 272.601906 
L 170.527677 262.439698 
L 171.028687 270.904532 
L 171.529697 285.536845 
L 172.030707 275.265805 
L 172.531717 273.923062 
L 173.032727 263.060155 
L 173.533737 261.953197 
L 174.034747 259.260158 
L 174.535758 288.549446 
L 175.036768 270.584857 
L 175.537778 246.106522 
L 176.038788 260.194299 
L 176.539798 252.611015 
L 177.040808 248.611421 
L 178.042828 235.929158 
L 179.044848 278.32038 
L 179.545859 264.615442 
L 180.046869 270.076043 
L 180.547879 241.488839 
L 181.048889 262.508713 
L 181.549899 271.932959 
L 182.050909 252.552932 
L 182.551919 257.889389 
L 183.052929 274.424003 
L 183.553939 277.514311 
L 184.054949 257.033398 
L 184.55596 265.345688 
L 185.05697 264.374727 
L 185.55798 256.472865 
L 186.05899 270.039539 
L 186.56 267.148874 
L 187.06101 283.296495 
L 187.56202 276.621174 
L 188.06303 272.705258 
L 188.56404 281.389066 
L 189.065051 261.631589 
L 189.566061 292.059046 
L 190.067071 287.207904 
L 190.568081 267.851033 
L 191.570101 277.364944 
L 192.071111 275.312382 
L 192.572121 263.633526 
L 193.073131 274.510409 
L 193.574141 274.989059 
L 194.075152 289.447597 
L 194.576162 274.649063 
L 195.077172 269.493914 
L 195.578182 267.18176 
L 196.079192 254.677971 
L 196.580202 269.285081 
L 197.081212 276.707552 
L 197.582222 280.024762 
L 198.083232 277.780541 
L 198.584242 271.510613 
L 199.085253 278.968649 
L 199.586263 266.56617 
L 200.087273 259.355584 
L 200.588283 274.496959 
L 201.089293 277.489592 
L 201.590303 262.047744 
L 202.091313 268.795593 
L 202.592323 261.739069 
L 203.093333 273.067509 
L 203.594343 280.010782 
L 204.095354 279.376284 
L 204.596364 279.272286 
L 205.097374 293.199478 
L 205.598384 290.286969 
L 206.099394 285.757537 
L 206.600404 266.71666 
L 207.101414 280.899103 
L 208.103434 272.595392 
L 208.604444 273.824536 
L 209.105455 265.704495 
L 209.606465 267.753007 
L 210.107475 278.219475 
L 210.608485 282.437246 
L 211.109495 264.415481 
L 211.610505 273.881605 
L 212.111515 263.18734 
L 212.612525 261.566507 
L 213.113535 261.647646 
L 213.614545 270.811035 
L 214.115556 263.88142 
L 214.616566 282.189177 
L 215.117576 264.728826 
L 215.618586 284.973292 
L 216.119596 278.954464 
L 216.620606 291.607054 
L 217.121616 287.171657 
L 217.622626 278.574699 
L 218.123636 278.889985 
L 218.624646 283.810714 
L 219.125657 272.600023 
L 219.626667 280.837722 
L 220.127677 264.763658 
L 220.628687 258.454529 
L 221.129697 265.093103 
L 221.630707 277.796314 
L 222.131717 265.60255 
L 222.632727 280.309238 
L 223.133737 250.869091 
L 223.634747 262.552432 
L 224.135758 261.11239 
L 225.137778 278.755896 
L 225.638788 280.572486 
L 226.139798 245.488296 
L 226.640808 252.103613 
L 227.141818 261.061317 
L 227.642828 258.164597 
L 228.143838 272.354923 
L 229.145859 269.927888 
L 229.646869 277.752062 
L 230.147879 277.132424 
L 230.648889 272.206729 
L 231.149899 261.786518 
L 231.650909 274.081015 
L 232.151919 253.306339 
L 232.652929 271.764997 
L 233.153939 272.271713 
L 233.654949 281.241486 
L 234.15596 251.554727 
L 234.65697 272.731204 
L 235.15798 268.083821 
L 235.65899 256.934611 
L 236.16 270.496294 
L 237.16202 275.994401 
L 237.66303 262.462744 
L 238.16404 275.583086 
L 238.665051 277.178245 
L 239.166061 271.835939 
L 239.667071 269.471377 
L 240.168081 270.909076 
L 241.170101 255.772919 
L 241.671111 273.855099 
L 242.172121 263.442226 
L 242.673131 289.095368 
L 243.174141 267.249205 
L 243.675152 279.93985 
L 244.176162 258.186762 
L 244.677172 292.746954 
L 245.178182 255.505416 
L 245.679192 266.863728 
L 246.180202 263.415877 
L 246.681212 274.809263 
L 247.182222 278.981788 
L 247.683232 258.386979 
L 248.184242 256.931392 
L 248.685253 267.468892 
L 249.186263 261.51248 
L 250.188283 286.056193 
L 250.689293 273.251616 
L 251.190303 271.952104 
L 251.691313 276.201249 
L 252.192323 287.476676 
L 252.693333 269.454454 
L 253.194343 267.990547 
L 253.695354 288.382076 
L 254.697374 272.169105 
L 255.198384 279.801329 
L 255.699394 273.282045 
L 256.200404 281.086406 
L 256.701414 283.690945 
L 257.202424 290.117673 
L 257.703434 284.643608 
L 258.204444 274.549805 
L 258.705455 247.977122 
L 259.206465 279.853589 
L 259.707475 263.833914 
L 260.709495 268.125549 
L 261.210505 262.777802 
L 261.711515 274.293283 
L 262.212525 267.101121 
L 262.713535 270.799525 
L 263.214545 251.023541 
L 264.717576 277.597056 
L 265.218586 268.678207 
L 265.719596 286.280988 
L 266.220606 280.366423 
L 266.721616 288.91437 
L 267.723636 272.385968 
L 268.224646 284.617076 
L 268.725657 272.219985 
L 269.226667 283.125007 
L 269.727677 266.391809 
L 270.228687 258.861584 
L 270.729697 271.344839 
L 271.230707 267.949249 
L 271.731717 271.011339 
L 272.232727 264.311425 
L 272.733737 279.830888 
L 273.234747 278.824755 
L 273.735758 262.574415 
L 274.236768 267.94452 
L 274.737778 281.365792 
L 275.238788 280.490183 
L 275.739798 261.355918 
L 276.240808 273.024625 
L 276.741818 262.62887 
L 277.242828 257.450022 
L 277.743838 269.219361 
L 278.244848 267.297852 
L 278.745859 273.920148 
L 279.246869 263.750013 
L 279.747879 236.1924 
L 280.248889 262.935978 
L 280.749899 246.759945 
L 281.250909 276.766576 
L 281.751919 270.188579 
L 282.252929 252.106952 
L 282.753939 266.554987 
L 283.254949 255.956585 
L 283.75596 285.977971 
L 284.25697 251.267591 
L 284.75798 259.813044 
L 285.25899 258.689801 
L 285.76 285.971565 
L 286.76202 273.026781 
L 287.26303 252.852538 
L 287.76404 274.597637 
L 288.265051 283.146596 
L 288.766061 268.298648 
L 289.267071 267.260294 
L 289.768081 262.777401 
L 290.269091 283.039864 
L 290.770101 267.370965 
L 291.271111 260.471754 
L 291.772121 272.855858 
L 292.273131 248.804777 
L 292.774141 261.415323 
L 293.275152 270.764284 
L 293.776162 256.369052 
L 294.277172 273.503141 
L 294.778182 276.418344 
L 295.279192 265.418708 
L 295.780202 259.616667 
L 296.281212 272.010664 
L 296.782222 277.419466 
L 297.283232 275.615776 
L 297.784242 261.509726 
L 298.285253 270.685845 
L 298.786263 283.962579 
L 299.287273 285.77225 
L 299.788283 279.403598 
L 300.289293 285.525698 
L 300.790303 281.038213 
L 301.291313 279.285791 
L 301.792323 276.620927 
L 302.293333 275.110445 
L 302.794343 260.302697 
L 303.295354 278.963524 
L 303.796364 263.229986 
L 304.297374 260.985035 
L 304.798384 269.765312 
L 305.299394 272.491595 
L 305.800404 279.329474 
L 306.301414 271.238189 
L 306.802424 278.009409 
L 307.303434 277.857209 
L 307.804444 280.997318 
L 308.305455 264.035389 
L 308.806465 257.517999 
L 309.307475 282.167965 
L 309.808485 275.683087 
L 310.309495 281.806256 
L 310.810505 257.853375 
L 311.311515 274.487976 
L 311.812525 275.931962 
L 312.814545 261.643755 
L 313.315556 254.747983 
L 314.317576 282.436386 
L 314.818586 271.753648 
L 315.319596 287.732884 
L 315.820606 288.244816 
L 316.321616 269.569522 
L 316.822626 269.149403 
L 317.323636 264.137336 
L 317.824646 284.363511 
L 318.325657 260.681779 
L 318.826667 266.162635 
L 319.327677 279.332055 
L 319.828687 264.755972 
L 320.329697 271.37534 
L 320.830707 256.184743 
L 321.331717 250.661125 
L 321.832727 267.564099 
L 322.333737 242.735337 
L 322.834747 268.724868 
L 323.335758 259.30908 
L 323.836768 274.034996 
L 324.337778 265.52212 
L 324.838788 278.490834 
L 325.339798 273.768445 
L 325.840808 263.676898 
L 326.341818 271.274373 
L 326.842828 269.649882 
L 327.343838 283.298981 
L 327.844848 278.310768 
L 328.846869 286.318181 
L 329.347879 259.80174 
L 329.848889 283.244232 
L 330.349899 250.63668 
L 330.850909 252.445403 
L 331.351919 253.216808 
L 331.852929 278.556097 
L 332.353939 275.300616 
L 332.854949 266.956037 
L 333.35596 295.488 
L 334.35798 251.051614 
L 334.85899 255.024896 
L 335.36 276.08566 
L 335.86101 271.561858 
L 336.36202 258.128755 
L 336.86303 286.225796 
L 337.36404 273.102003 
L 337.865051 278.431033 
L 338.366061 265.785616 
L 338.867071 268.077227 
L 339.368081 278.499141 
L 340.370101 291.028296 
L 340.871111 284.019634 
L 341.372121 288.651743 
L 341.873131 264.325965 
L 342.374141 265.194151 
L 342.875152 269.984107 
L 343.376162 271.79702 
L 343.877172 275.950185 
L 344.378182 268.640143 
L 344.879192 273.78864 
L 345.380202 282.413792 
L 345.881212 267.10846 
L 346.382222 282.542436 
L 346.883232 263.560907 
L 347.384242 280.162761 
L 347.885253 259.32836 
L 348.386263 279.266159 
L 348.887273 268.983614 
L 349.388283 266.582038 
L 349.889293 257.931715 
L 350.390303 256.034235 
L 350.891313 265.323651 
L 351.392323 281.969255 
L 351.893333 248.60398 
L 352.394343 256.656447 
L 352.895354 271.394072 
L 353.396364 278.338257 
L 353.897374 257.207375 
L 354.398384 257.499073 
L 354.899394 264.4082 
L 355.400404 285.013174 
L 355.901414 279.116112 
L 356.402424 271.495775 
L 356.903434 274.858374 
L 357.404444 264.592497 
L 357.905455 260.945868 
L 358.406465 275.841622 
L 358.907475 276.594836 
L 359.408485 255.674923 
L 359.909495 258.130834 
L 360.410505 255.539444 
L 360.911515 260.210174 
L 361.412525 273.096979 
L 361.913535 248.902791 
L 362.414545 277.171636 
L 362.915556 271.026229 
L 363.416566 278.580539 
L 363.917576 278.9099 
L 364.418586 290.116749 
L 364.919596 278.500478 
L 365.420606 244.698775 
L 365.921616 248.237313 
L 366.422626 284.705823 
L 366.923636 259.540091 
L 367.925657 286.712237 
L 368.426667 274.490548 
L 368.927677 246.431917 
L 369.929697 282.626127 
L 370.430707 278.053848 
L 370.931717 264.400051 
L 371.432727 255.234508 
L 371.933737 283.763009 
L 372.434747 279.058348 
L 372.935758 268.559926 
L 373.436768 266.494679 
L 373.937778 273.794756 
L 374.438788 277.928315 
L 374.939798 264.805014 
L 375.440808 260.852092 
L 375.941818 259.666249 
L 376.442828 258.874434 
L 376.943838 266.291541 
L 377.444848 281.830248 
L 377.945859 272.406882 
L 378.446869 276.15635 
L 378.947879 255.42979 
L 379.448889 266.299355 
L 379.949899 264.172424 
L 380.450909 253.790917 
L 380.951919 267.280534 
L 381.452929 266.561131 
L 381.953939 264.862737 
L 382.454949 248.068825 
L 382.95596 257.988894 
L 383.45697 256.723362 
L 383.95798 278.278789 
L 384.45899 257.26265 
L 384.96 285.105917 
L 385.46101 263.760764 
L 385.96202 281.104896 
L 386.46303 258.206715 
L 386.96404 264.873226 
L 387.465051 257.654643 
L 387.966061 282.929318 
L 388.467071 283.76784 
L 388.968081 287.894667 
L 389.469091 271.881193 
L 389.970101 282.036448 
L 390.471111 289.452545 
L 390.972121 271.748461 
L 391.473131 261.974186 
L 391.974141 273.837851 
L 392.475152 251.780762 
L 392.976162 269.466077 
L 393.477172 270.770158 
L 393.978182 276.880063 
L 394.479192 276.493803 
L 394.980202 276.438555 
L 395.481212 274.942317 
L 395.982222 273.045376 
L 396.483232 269.224128 
L 396.984242 269.93507 
L 397.485253 246.276173 
L 397.986263 242.976014 
L 398.487273 254.044298 
L 398.487273 254.044298 
" clip-path="url(#pdfb71cc719)" style="fill: none; stroke-dasharray: 9.6,2.4,1.5,2.4; stroke-dashoffset: 0; stroke: #008000; stroke-width: 1.5"/>
   </g>
   <g id="line2d_31">
    <path d="M 73.832727 86.676675 
L 74.333737 91.090104 
L 74.834747 100.850055 
L 75.335758 92.265789 
L 75.836768 91.091799 
L 76.337778 81.199986 
L 76.838788 82.923027 
L 77.339798 71.932474 
L 77.840808 107.895012 
L 78.341818 107.105749 
L 78.842828 88.024979 
L 79.343838 97.781093 
L 79.844848 96.787844 
L 80.345859 114.103093 
L 80.846869 81.372013 
L 81.347879 89.20161 
L 81.848889 99.436665 
L 82.349899 81.310579 
L 82.850909 75.940783 
L 83.351919 85.63264 
L 83.852929 88.13328 
L 84.353939 104.208908 
L 84.854949 77.457745 
L 85.35596 83.023008 
L 85.85697 73.171187 
L 86.35798 105.860526 
L 86.85899 83.592105 
L 87.36 110.229082 
L 87.86101 85.031503 
L 88.36202 92.120985 
L 88.86303 74.546555 
L 89.36404 103.853266 
L 89.865051 74.654456 
L 90.366061 102.862156 
L 90.867071 105.216589 
L 91.368081 100.841215 
L 91.869091 106.245287 
L 92.370101 90.742446 
L 92.871111 89.568585 
L 93.372121 86.161971 
L 93.873131 83.993971 
L 94.374141 106.135217 
L 94.875152 93.611723 
L 95.376162 130.23318 
L 96.378182 85.983925 
L 96.879192 102.077052 
L 97.380202 95.184568 
L 97.881212 93.815108 
L 98.382222 84.105765 
L 98.883232 96.938381 
L 99.384242 112.621657 
L 99.885253 106.264528 
L 100.386263 102.875431 
L 100.887273 117.48375 
L 101.388283 96.153797 
L 101.889293 123.380841 
L 102.390303 110.180953 
L 102.891313 128.405872 
L 103.392323 122.472344 
L 103.893333 126.04813 
L 104.394343 126.440146 
L 104.895354 116.965508 
L 105.396364 90.848538 
L 105.897374 91.319915 
L 106.398384 79.538216 
L 106.899394 100.637254 
L 107.400404 77.684589 
L 107.901414 121.187584 
L 108.903434 123.857861 
L 109.404444 115.955957 
L 109.905455 94.4096 
L 110.406465 92.463733 
L 110.907475 87.108973 
L 111.408485 103.720831 
L 111.909495 88.347495 
L 112.410505 93.588143 
L 112.911515 101.736482 
L 113.412525 95.389968 
L 113.913535 114.886608 
L 114.414545 84.402672 
L 114.915556 99.578391 
L 115.416566 85.486981 
L 115.917576 92.743467 
L 116.418586 90.265939 
L 116.919596 103.111956 
L 117.420606 102.853651 
L 118.422626 100.309343 
L 118.923636 87.794851 
L 119.424646 113.669405 
L 119.925657 99.987546 
L 120.426667 97.989709 
L 120.927677 100.272599 
L 121.428687 100.891658 
L 121.929697 111.969317 
L 122.430707 89.653375 
L 122.931717 116.942264 
L 123.432727 137.670921 
L 123.933737 132.361454 
L 124.434747 101.896152 
L 124.935758 117.667316 
L 125.436768 98.327766 
L 125.937778 119.124846 
L 126.438788 124.702045 
L 126.939798 98.681856 
L 127.440808 99.065933 
L 127.941818 112.611434 
L 128.442828 93.322219 
L 128.943838 99.753475 
L 129.444848 78.453104 
L 129.945859 93.744787 
L 130.446869 103.363471 
L 130.947879 81.807844 
L 131.949899 112.384996 
L 132.450909 104.427253 
L 132.951919 103.530959 
L 133.452929 98.768636 
L 133.953939 96.590663 
L 134.454949 114.698455 
L 134.95596 117.803475 
L 135.45697 114.971722 
L 135.95798 100.890635 
L 136.45899 113.701945 
L 136.96 97.822918 
L 137.46101 72.99754 
L 137.96202 78.481777 
L 138.46303 99.744471 
L 138.96404 83.81195 
L 139.966061 105.311916 
L 140.467071 98.570986 
L 140.968081 71.856326 
L 141.469091 81.14707 
L 141.970101 105.682413 
L 142.471111 104.655567 
L 142.972121 112.926743 
L 143.473131 83.980431 
L 143.974141 97.479662 
L 144.976162 93.881821 
L 145.477172 84.534839 
L 145.978182 129.566897 
L 146.479192 110.959026 
L 146.980202 74.878275 
L 147.481212 99.311661 
L 147.982222 106.06324 
L 148.483232 95.619151 
L 148.984242 94.076715 
L 149.485253 110.135616 
L 149.986263 102.695936 
L 150.487273 100.418776 
L 150.988283 90.822272 
L 151.489293 94.071649 
L 151.990303 72.458942 
L 152.491313 104.885805 
L 152.992323 76.597214 
L 153.493333 101.09406 
L 153.994343 68.236806 
L 154.495354 104.8459 
L 154.996364 102.556613 
L 155.497374 78.856291 
L 155.998384 111.354566 
L 156.499394 104.763401 
L 157.000404 102.994581 
L 157.501414 83.43211 
L 158.002424 71.616281 
L 158.503434 86.044944 
L 159.004444 79.851298 
L 159.505455 84.130262 
L 160.006465 85.152484 
L 161.008485 94.051704 
L 161.509495 103.960498 
L 162.010505 94.818537 
L 162.511515 77.862016 
L 163.012525 105.460427 
L 163.513535 82.210076 
L 164.014545 87.9165 
L 164.515556 81.549126 
L 165.016566 67.414588 
L 165.517576 83.589444 
L 166.018586 95.916706 
L 166.519596 82.198415 
L 167.020606 95.766348 
L 167.521616 89.985602 
L 168.022626 105.996174 
L 168.523636 88.353439 
L 169.024646 105.924602 
L 169.525657 80.417278 
L 170.026667 89.619258 
L 170.527677 82.933183 
L 171.028687 91.092711 
L 171.529697 111.445422 
L 172.030707 93.869503 
L 172.531717 90.655287 
L 173.032727 77.645616 
L 173.533737 74.558275 
L 174.034747 86.315873 
L 174.535758 113.83611 
L 175.036768 85.582786 
L 175.537778 68.742435 
L 176.038788 80.469927 
L 177.040808 62.575314 
L 177.541818 61.476312 
L 178.042828 53.568 
L 178.543838 68.151503 
L 179.044848 93.011271 
L 179.545859 83.114624 
L 180.046869 81.052113 
L 180.547879 66.249876 
L 181.048889 83.009384 
L 181.549899 95.371523 
L 182.050909 68.191562 
L 182.551919 69.911225 
L 183.052929 90.233054 
L 183.553939 89.411506 
L 184.054949 71.439173 
L 184.55596 85.153962 
L 185.05697 85.848021 
L 185.55798 76.638611 
L 186.05899 86.491716 
L 186.56 92.48699 
L 187.06101 104.414824 
L 188.06303 93.044348 
L 188.56404 109.210372 
L 189.065051 84.185515 
L 189.566061 118.106995 
L 190.067071 109.308415 
L 190.568081 95.045519 
L 191.069091 88.622854 
L 191.570101 109.68528 
L 192.071111 91.256874 
L 192.572121 84.412699 
L 193.073131 90.751332 
L 194.075152 121.923811 
L 194.576162 91.807183 
L 195.578182 86.438888 
L 196.079192 73.228792 
L 196.580202 83.304001 
L 197.081212 95.924563 
L 197.582222 113.815162 
L 198.083232 108.553132 
L 198.584242 93.704248 
L 199.085253 110.427136 
L 199.586263 82.218903 
L 200.087273 79.521268 
L 200.588283 97.814233 
L 201.089293 98.678778 
L 201.590303 80.901823 
L 202.091313 89.212977 
L 202.592323 75.221581 
L 203.093333 92.298285 
L 203.594343 103.839738 
L 204.095354 106.025682 
L 204.596364 120.129484 
L 205.097374 112.650296 
L 205.598384 126.276956 
L 206.099394 113.748666 
L 206.600404 86.741049 
L 207.101414 100.73373 
L 207.602424 95.16424 
L 208.103434 84.819927 
L 208.604444 92.700126 
L 209.105455 82.453406 
L 209.606465 87.370683 
L 210.107475 98.437903 
L 210.608485 105.679038 
L 211.109495 78.829092 
L 211.610505 87.881424 
L 212.111515 78.789166 
L 212.612525 74.833479 
L 213.113535 72.468907 
L 213.614545 79.925305 
L 214.115556 78.788577 
L 214.616566 98.787135 
L 215.117576 83.363519 
L 215.618586 109.897246 
L 216.119596 91.812331 
L 216.620606 124.678826 
L 217.121616 105.837183 
L 217.622626 99.856523 
L 218.123636 102.428594 
L 218.624646 101.401824 
L 219.125657 89.565876 
L 219.626667 116.749992 
L 220.127677 85.718841 
L 220.628687 78.914326 
L 221.129697 88.481808 
L 221.630707 107.083485 
L 222.131717 88.47814 
L 222.632727 103.538613 
L 223.133737 71.320891 
L 223.634747 82.724211 
L 224.135758 82.043567 
L 224.636768 87.380101 
L 225.137778 111.113841 
L 225.638788 110.115949 
L 226.139798 76.67615 
L 226.640808 74.639898 
L 227.141818 75.049191 
L 227.642828 77.971257 
L 228.143838 96.708731 
L 228.644848 91.508223 
L 229.145859 87.845896 
L 229.646869 101.145491 
L 230.147879 88.783742 
L 230.648889 87.412747 
L 231.149899 81.408697 
L 231.650909 88.659458 
L 232.151919 73.339027 
L 232.652929 92.680523 
L 233.153939 88.783151 
L 233.654949 102.182914 
L 234.15596 70.660221 
L 234.65697 96.092329 
L 235.15798 82.25289 
L 235.65899 72.205533 
L 236.16 97.315111 
L 236.66101 85.722741 
L 237.16202 97.538167 
L 237.66303 80.474436 
L 238.16404 100.267601 
L 238.665051 93.993897 
L 239.166061 97.365879 
L 239.667071 84.036643 
L 240.168081 85.381869 
L 240.669091 87.644363 
L 241.170101 79.013686 
L 241.671111 90.122377 
L 242.172121 82.763835 
L 242.673131 120.196329 
L 243.174141 92.949608 
L 243.675152 110.949638 
L 244.176162 77.842753 
L 244.677172 125.442932 
L 245.178182 74.217307 
L 245.679192 89.375761 
L 246.180202 85.091914 
L 246.681212 109.909693 
L 247.182222 106.289636 
L 247.683232 76.17475 
L 248.184242 82.970738 
L 248.685253 84.760771 
L 249.186263 89.538495 
L 249.687273 92.827132 
L 250.188283 119.17346 
L 250.689293 95.000581 
L 251.190303 97.389023 
L 251.691313 97.183244 
L 252.192323 105.195232 
L 252.693333 90.734451 
L 253.194343 92.797706 
L 253.695354 112.080608 
L 254.196364 107.502754 
L 254.697374 88.514715 
L 255.198384 100.046606 
L 255.699394 96.889785 
L 256.200404 99.096554 
L 256.701414 109.940874 
L 257.202424 117.133378 
L 257.703434 108.212012 
L 258.204444 92.78517 
L 258.705455 69.333454 
L 259.206465 100.925861 
L 259.707475 76.886912 
L 260.208485 84.280561 
L 260.709495 88.709478 
L 261.210505 80.255998 
L 261.711515 90.847254 
L 262.212525 92.482717 
L 262.713535 84.086902 
L 263.214545 67.372534 
L 263.715556 83.233335 
L 264.216566 82.480326 
L 264.717576 88.828318 
L 265.218586 90.893624 
L 265.719596 104.96849 
L 266.220606 96.932039 
L 266.721616 115.895643 
L 267.222626 96.84479 
L 267.723636 96.213833 
L 268.224646 110.0162 
L 268.725657 89.073475 
L 269.226667 101.762415 
L 269.727677 76.994168 
L 270.228687 70.431019 
L 270.729697 87.132919 
L 271.230707 85.488831 
L 271.731717 86.434661 
L 272.232727 79.807873 
L 272.733737 98.620153 
L 273.234747 99.663449 
L 273.735758 83.576762 
L 274.737778 98.402483 
L 275.238788 99.82999 
L 275.739798 79.345089 
L 276.240808 97.247828 
L 276.741818 87.153466 
L 277.242828 79.35112 
L 277.743838 86.189996 
L 278.244848 81.807573 
L 278.745859 94.483363 
L 279.246869 83.554888 
L 279.747879 62.990583 
L 280.248889 87.759199 
L 280.749899 66.677064 
L 281.250909 98.808923 
L 282.252929 74.544132 
L 282.753939 89.813329 
L 283.254949 68.820223 
L 283.75596 96.633068 
L 284.25697 72.130428 
L 284.75798 76.668127 
L 285.25899 78.097999 
L 285.76 116.948736 
L 286.26101 100.933432 
L 286.76202 93.79422 
L 287.26303 69.213955 
L 287.76404 90.05942 
L 288.265051 103.506094 
L 288.766061 89.469802 
L 289.267071 89.081532 
L 289.768081 84.079656 
L 290.269091 106.727917 
L 290.770101 82.273588 
L 291.271111 85.164117 
L 291.772121 95.407584 
L 292.273131 73.475536 
L 292.774141 85.592476 
L 293.275152 94.518611 
L 293.776162 78.679398 
L 294.277172 99.383197 
L 294.778182 103.959572 
L 295.279192 80.635849 
L 295.780202 74.960879 
L 296.281212 87.1057 
L 296.782222 107.786592 
L 297.283232 90.11401 
L 297.784242 85.137891 
L 298.285253 108.660885 
L 298.786263 101.186118 
L 299.287273 122.112834 
L 299.788283 114.566486 
L 300.289293 127.58449 
L 300.790303 100.735833 
L 301.291313 108.400372 
L 301.792323 107.240455 
L 302.293333 95.520092 
L 302.794343 88.332396 
L 303.295354 97.008747 
L 303.796364 79.511668 
L 304.297374 85.007968 
L 304.798384 91.745972 
L 305.299394 90.044585 
L 305.800404 105.809504 
L 306.301414 86.886058 
L 306.802424 99.19491 
L 307.303434 99.659839 
L 307.804444 109.149892 
L 308.305455 83.193283 
L 308.806465 74.192582 
L 309.307475 102.457801 
L 309.808485 102.051595 
L 310.309495 102.852861 
L 310.810505 82.345666 
L 311.311515 89.163813 
L 311.812525 92.805432 
L 312.313535 90.356975 
L 312.814545 83.181994 
L 313.315556 72.934857 
L 313.816566 95.599697 
L 314.317576 99.541001 
L 314.818586 94.562338 
L 315.319596 128.834471 
L 315.820606 116.977023 
L 316.321616 95.464104 
L 316.822626 88.337381 
L 317.323636 92.20106 
L 317.824646 107.545537 
L 318.325657 81.450807 
L 318.826667 81.171993 
L 319.327677 96.675472 
L 319.828687 87.614332 
L 320.329697 95.592783 
L 320.830707 75.808074 
L 321.331717 72.919653 
L 321.832727 77.068981 
L 322.333737 63.458792 
L 322.834747 77.481956 
L 323.335758 76.490415 
L 323.836768 89.804506 
L 324.337778 83.428179 
L 324.838788 96.601375 
L 325.339798 88.101686 
L 325.840808 83.30403 
L 326.341818 91.763392 
L 326.842828 93.906239 
L 327.343838 118.193364 
L 327.844848 103.183328 
L 328.345859 102.417944 
L 328.846869 106.663407 
L 329.347879 68.935917 
L 329.848889 102.391757 
L 330.349899 73.701049 
L 330.850909 71.208936 
L 331.351919 73.124215 
L 331.852929 111.661052 
L 332.854949 79.06212 
L 333.35596 139.702055 
L 333.85697 97.629225 
L 334.35798 70.961518 
L 334.85899 71.333851 
L 335.36 93.472718 
L 335.86101 96.765425 
L 336.36202 78.49706 
L 336.86303 113.738541 
L 337.36404 99.466651 
L 337.865051 106.47373 
L 338.366061 86.579352 
L 339.368081 100.656636 
L 339.869091 116.265962 
L 340.370101 138.215339 
L 340.871111 119.897359 
L 341.372121 111.312023 
L 341.873131 85.340885 
L 342.875152 94.123529 
L 343.376162 96.220964 
L 343.877172 97.617067 
L 344.378182 98.140839 
L 345.380202 103.971717 
L 345.881212 83.456555 
L 346.382222 116.986064 
L 346.883232 91.414708 
L 347.384242 113.279821 
L 347.885253 75.649198 
L 348.386263 110.182032 
L 348.887273 90.430424 
L 349.388283 85.921285 
L 349.889293 83.901862 
L 350.390303 73.375952 
L 350.891313 89.368964 
L 351.392323 101.168525 
L 351.893333 63.46739 
L 352.394343 76.13887 
L 352.895354 83.092155 
L 353.396364 99.129433 
L 353.897374 78.249472 
L 354.398384 85.547114 
L 354.899394 78.66543 
L 355.400404 125.759648 
L 355.901414 102.901866 
L 356.402424 87.082034 
L 356.903434 98.37309 
L 357.404444 84.732657 
L 357.905455 77.563943 
L 358.406465 96.471094 
L 358.907475 103.946781 
L 359.408485 72.885502 
L 359.909495 81.940333 
L 360.410505 65.748753 
L 361.412525 91.506336 
L 361.913535 67.760603 
L 362.414545 102.858485 
L 362.915556 86.747365 
L 363.416566 98.80387 
L 363.917576 98.505764 
L 364.418586 107.721757 
L 364.919596 103.90341 
L 365.420606 64.733361 
L 365.921616 67.962991 
L 366.422626 109.982337 
L 366.923636 74.343201 
L 367.424646 90.818824 
L 367.925657 99.179499 
L 368.426667 86.597094 
L 368.927677 59.676072 
L 369.428687 79.316823 
L 369.929697 107.165094 
L 370.430707 96.984238 
L 370.931717 81.372268 
L 371.432727 78.934642 
L 371.933737 109.285089 
L 372.935758 81.763063 
L 373.436768 88.109894 
L 373.937778 92.018501 
L 374.438788 93.878814 
L 374.939798 81.28175 
L 375.440808 77.532893 
L 375.941818 72.108936 
L 376.442828 74.55301 
L 376.943838 80.855375 
L 377.444848 96.090813 
L 377.945859 86.028378 
L 378.446869 94.434929 
L 378.947879 69.472224 
L 379.448889 76.525007 
L 379.949899 74.751689 
L 380.450909 75.894835 
L 380.951919 84.595808 
L 381.452929 90.860857 
L 381.953939 84.507392 
L 382.454949 72.275849 
L 383.45697 83.553433 
L 383.95798 99.912503 
L 384.45899 81.515296 
L 384.96 112.376601 
L 385.46101 80.781032 
L 385.96202 101.279743 
L 386.46303 81.773167 
L 386.96404 90.476673 
L 387.465051 72.399867 
L 387.966061 108.743993 
L 388.467071 104.575033 
L 388.968081 116.600711 
L 389.469091 95.243962 
L 390.471111 121.770217 
L 390.972121 88.840835 
L 391.473131 84.643702 
L 391.974141 99.002749 
L 392.475152 67.999248 
L 392.976162 87.979161 
L 393.477172 93.092784 
L 393.978182 96.818874 
L 394.479192 97.715486 
L 394.980202 93.355942 
L 395.481212 92.002556 
L 395.982222 89.434967 
L 396.483232 90.235647 
L 396.984242 89.623612 
L 397.485253 73.352331 
L 397.986263 66.429062 
L 398.487273 71.108889 
L 398.487273 71.108889 
" clip-path="url(#pdfb71cc719)" style="fill: none; stroke-dasharray: 9.6,2.4,1.5,2.4; stroke-dashoffset: 0; stroke: #008000; stroke-width: 1.5"/>
   </g>
   <g id="line2d_32">
    <path d="M 73.832727 61.636496 
L 74.333737 61.904054 
L 74.834747 62.72047 
L 75.335758 62.624414 
L 75.836768 63.509438 
L 76.337778 59.887041 
L 76.838788 59.619474 
L 77.840808 63.948515 
L 78.341818 64.092587 
L 79.343838 60.977876 
L 79.844848 60.902405 
L 80.345859 64.785508 
L 80.846869 60.525075 
L 81.347879 62.830233 
L 81.848889 63.475129 
L 82.349899 63.1321 
L 82.850909 59.914479 
L 83.351919 64.662013 
L 83.852929 60.758333 
L 84.353939 63.65351 
L 84.854949 59.935065 
L 85.35596 59.839017 
L 85.85697 60.422166 
L 86.35798 59.996812 
L 86.85899 59.941926 
L 87.36 62.432318 
L 87.86101 61.533586 
L 88.36202 62.281384 
L 88.86303 60.47019 
L 89.36404 62.178483 
L 90.366061 63.180124 
L 91.368081 62.967451 
L 91.869091 62.802794 
L 92.370101 58.549224 
L 92.871111 61.176834 
L 93.372121 60.353565 
L 93.873131 63.667225 
L 94.374141 60.799504 
L 94.875152 61.766844 
L 95.376162 62.377432 
L 95.877172 61.869754 
L 96.378182 60.710309 
L 96.879192 61.856031 
L 97.380202 60.079136 
L 97.881212 62.57639 
L 98.382222 62.789071 
L 98.883232 62.30197 
L 99.384242 62.06185 
L 99.885253 67.907072 
L 100.386263 60.085998 
L 100.887273 63.090938 
L 101.889293 60.621123 
L 102.390303 60.319256 
L 102.891313 62.548951 
L 103.392323 62.51465 
L 103.893333 66.562402 
L 104.394343 61.519863 
L 104.895354 61.759983 
L 105.396364 59.523426 
L 105.897374 61.149387 
L 106.398384 63.303619 
L 106.899394 61.588464 
L 107.400404 61.691374 
L 107.901414 63.289895 
L 108.402424 62.878257 
L 108.903434 63.797582 
L 109.404444 66.082154 
L 109.905455 59.811578 
L 110.406465 63.646648 
L 110.907475 60.950429 
L 111.408485 63.680949 
L 111.909495 61.609049 
L 112.410505 61.012177 
L 112.911515 60.88869 
L 113.412525 61.293458 
L 113.913535 61.856031 
L 114.414545 62.624414 
L 114.915556 60.778919 
L 115.416566 64.812946 
L 115.917576 63.962231 
L 116.418586 61.464977 
L 116.919596 61.622773 
L 117.420606 61.142533 
L 117.921616 61.574749 
L 118.422626 65.450981 
L 118.923636 62.480342 
L 119.424646 62.686161 
L 119.925657 61.965802 
L 120.426667 62.226507 
L 121.428687 60.134022 
L 121.929697 61.080786 
L 122.430707 62.960589 
L 122.931717 63.331058 
L 123.933737 65.149114 
L 124.434747 66.384021 
L 124.935758 59.715522 
L 125.436768 62.981166 
L 125.937778 59.811578 
L 126.438788 59.152958 
L 126.939798 64.243521 
L 127.440808 60.820081 
L 127.941818 62.000102 
L 128.442828 61.931501 
L 128.943838 60.099722 
L 129.444848 60.861243 
L 129.945859 62.583251 
L 130.446869 62.548951 
L 130.947879 61.190557 
L 131.448889 61.842307 
L 131.949899 64.524803 
L 132.450909 60.326118 
L 132.951919 62.164759 
L 133.452929 65.917505 
L 133.953939 62.137312 
L 134.454949 62.85768 
L 134.95596 64.82667 
L 135.45697 60.868105 
L 135.95798 64.373869 
L 136.45899 60.710309 
L 136.96 64.133749 
L 137.46101 60.751472 
L 137.96202 61.567887 
L 138.46303 60.840666 
L 138.96404 59.441102 
L 139.465051 61.334629 
L 140.467071 63.433967 
L 140.968081 62.452903 
L 141.469091 59.619474 
L 141.970101 60.387865 
L 142.972121 66.356582 
L 143.473131 62.926281 
L 143.974141 63.1321 
L 144.475152 61.485562 
L 144.976162 60.566238 
L 145.477172 63.015475 
L 145.978182 62.747908 
L 146.479192 63.37222 
L 146.980202 61.499278 
L 147.481212 62.041265 
L 147.982222 59.976227 
L 148.483232 62.425464 
L 148.984242 60.120299 
L 149.485253 61.121948 
L 149.986263 63.996539 
L 150.487273 61.58161 
L 150.988283 62.555813 
L 151.489293 61.252296 
L 151.990303 63.344781 
L 152.491313 60.710309 
L 152.992323 60.847528 
L 153.493333 61.108224 
L 153.994343 60.538799 
L 154.495354 60.559376 
L 154.996364 62.446041 
L 155.497374 62.699885 
L 155.998384 63.468268 
L 156.499394 60.971014 
L 157.000404 60.806357 
L 157.501414 60.813219 
L 158.002424 59.736107 
L 158.503434 63.502576 
L 159.004444 59.825293 
L 159.505455 61.080786 
L 160.006465 61.348344 
L 160.507475 61.012177 
L 161.008485 59.983089 
L 161.509495 62.020688 
L 162.010505 59.962503 
L 162.511515 60.984738 
L 163.012525 61.307182 
L 163.513535 63.427105 
L 164.014545 60.47019 
L 164.515556 62.940004 
L 165.016566 61.773706 
L 165.517576 60.223208 
L 166.018586 60.429027 
L 166.519596 62.967451 
L 167.020606 62.658722 
L 167.521616 60.977876 
L 168.022626 60.751472 
L 168.523636 61.430677 
L 169.024646 62.349993 
L 169.525657 59.098072 
L 170.026667 60.579961 
L 170.527677 58.809929 
L 171.529697 60.010535 
L 172.030707 60.182046 
L 173.032727 62.185336 
L 173.533737 60.408442 
L 174.034747 61.005315 
L 174.535758 62.452903 
L 175.537778 62.253946 
L 176.038788 64.003393 
L 176.539798 61.40323 
L 177.040808 60.284956 
L 177.541818 60.525075 
L 178.042828 60.984738 
L 178.543838 61.753121 
L 179.044848 63.481991 
L 179.545859 61.965802 
L 180.046869 61.725682 
L 180.547879 62.658722 
L 181.048889 61.492416 
L 181.549899 62.054988 
L 182.050909 59.310753 
L 182.551919 59.653783 
L 183.052929 62.185336 
L 183.553939 62.446041 
L 184.054949 61.725682 
L 184.55596 61.663935 
L 185.05697 61.890331 
L 185.55798 63.557462 
L 186.05899 60.929852 
L 186.56 61.437539 
L 187.06101 59.85274 
L 187.56202 64.037701 
L 188.06303 61.965802 
L 188.56404 64.48364 
L 189.065051 59.722384 
L 189.566061 62.57639 
L 190.067071 63.543739 
L 191.069091 58.63841 
L 191.570101 62.425464 
L 192.071111 60.161461 
L 193.073131 61.327767 
L 193.574141 60.737756 
L 194.075152 62.363717 
L 194.576162 61.945217 
L 195.077172 60.024251 
L 195.578182 61.82173 
L 196.079192 60.627985 
L 196.580202 59.070634 
L 197.081212 60.909267 
L 197.582222 59.365639 
L 198.083232 61.711959 
L 198.584242 62.452903 
L 199.085253 64.023978 
L 200.087273 60.634847 
L 200.588283 66.205649 
L 201.089293 60.442751 
L 201.590303 60.950428 
L 202.091313 60.525075 
L 202.592323 61.279743 
L 203.093333 63.674087 
L 203.594343 62.665584 
L 204.095354 63.89363 
L 204.596364 62.151036 
L 205.097374 63.440829 
L 205.598384 64.072002 
L 206.099394 58.899115 
L 206.600404 60.88869 
L 207.101414 61.609049 
L 207.602424 61.746259 
L 208.103434 60.518214 
L 208.604444 62.713608 
L 209.105455 61.904054 
L 209.606465 61.314044 
L 210.107475 61.16311 
L 210.608485 59.880179 
L 211.109495 60.216347 
L 211.610505 61.698235 
L 212.612525 59.228421 
L 213.113535 60.147746 
L 213.614545 58.947139 
L 214.115556 62.013826 
L 214.616566 62.377432 
L 215.117576 64.078864 
L 215.618586 62.295108 
L 216.119596 62.789071 
L 216.620606 65.396095 
L 217.622626 59.303892 
L 218.123636 60.854381 
L 218.624646 59.461687 
L 219.125657 59.708668 
L 219.626667 59.633197 
L 220.127677 59.921341 
L 220.628687 60.531937 
L 221.129697 61.485562 
L 222.131717 62.363717 
L 222.632727 62.960589 
L 223.133737 62.933143 
L 223.634747 61.176834 
L 224.135758 61.396368 
L 224.636768 62.212783 
L 225.137778 60.051698 
L 225.638788 62.103012 
L 226.139798 59.969365 
L 226.640808 61.307182 
L 227.141818 60.50449 
L 227.642828 62.795932 
L 228.143838 60.820081 
L 228.644848 62.034403 
L 229.145859 59.98995 
L 229.646869 63.173262 
L 230.147879 60.586823 
L 230.648889 61.835445 
L 231.650909 59.983089 
L 232.151919 59.619474 
L 232.652929 62.356855 
L 233.153939 60.92299 
L 233.654949 60.058559 
L 234.15596 63.324196 
L 234.65697 64.147473 
L 235.15798 60.703448 
L 235.65899 62.926281 
L 236.16 60.552522 
L 236.66101 60.621123 
L 237.16202 60.326118 
L 237.66303 61.0602 
L 238.16404 61.554163 
L 238.665051 63.104661 
L 239.166061 59.399939 
L 239.667071 61.197411 
L 240.168081 60.861243 
L 240.669091 63.001752 
L 241.170101 64.161188 
L 241.671111 63.591762 
L 242.172121 61.149387 
L 242.673131 63.049776 
L 243.174141 59.928203 
L 244.176162 60.614262 
L 244.677172 63.23501 
L 245.178182 63.221286 
L 245.679192 60.497637 
L 246.180202 62.809656 
L 246.681212 61.231719 
L 247.182222 60.792642 
L 247.683232 62.57639 
L 248.184242 61.314044 
L 248.685253 62.171621 
L 249.186263 61.307182 
L 249.687273 62.322555 
L 250.188283 60.984738 
L 250.689293 62.898842 
L 251.190303 63.022329 
L 251.691313 59.893902 
L 252.192323 61.904054 
L 252.693333 61.698235 
L 253.194343 63.475129 
L 253.695354 63.475129 
L 254.196364 63.344781 
L 254.697374 60.168323 
L 255.198384 61.108224 
L 255.699394 62.638137 
L 256.200404 62.391156 
L 256.701414 62.596975 
L 257.202424 64.010254 
L 257.703434 62.761632 
L 258.204444 60.161461 
L 258.705455 63.756419 
L 259.206465 59.722384 
L 259.707475 59.784131 
L 260.208485 62.09615 
L 260.709495 60.195769 
L 261.210505 59.15982 
L 261.711515 62.61756 
L 262.212525 62.212783 
L 262.713535 61.492416 
L 263.214545 63.036052 
L 263.715556 61.224858 
L 264.216566 60.751472 
L 264.717576 58.851091 
L 265.218586 59.818431 
L 265.719596 62.638137 
L 266.220606 61.0259 
L 266.721616 61.458116 
L 267.222626 62.356855 
L 267.723636 62.226507 
L 268.224646 62.528366 
L 268.725657 60.291817 
L 269.226667 62.034403 
L 269.727677 62.768494 
L 270.228687 61.416953 
L 270.729697 62.020688 
L 271.230707 62.411741 
L 271.731717 63.193847 
L 272.232727 60.6074 
L 272.733737 60.744618 
L 273.234747 66.610426 
L 273.735758 62.816518 
L 274.236768 62.89198 
L 274.737778 63.23501 
L 275.238788 62.000102 
L 275.739798 61.485562 
L 276.240808 62.871395 
L 276.741818 61.965802 
L 277.242828 60.573099 
L 277.743838 61.54044 
L 278.244848 59.640059 
L 278.745859 62.548951 
L 279.246869 59.941926 
L 279.747879 61.759983 
L 280.248889 62.33627 
L 280.749899 60.881828 
L 281.250909 64.058278 
L 281.751919 61.92464 
L 282.252929 60.559376 
L 282.753939 64.195497 
L 283.254949 61.986379 
L 283.75596 60.772057 
L 284.25697 60.792642 
L 284.75798 62.555813 
L 285.25899 60.861243 
L 285.76 61.492416 
L 286.26101 61.794283 
L 286.76202 60.408442 
L 287.26303 60.422166 
L 287.76404 62.274531 
L 288.265051 62.741047 
L 288.766061 61.519863 
L 289.267071 60.820081 
L 289.768081 62.871395 
L 290.269091 61.622773 
L 290.770101 59.839017 
L 291.271111 59.61262 
L 291.772121 62.09615 
L 292.774141 59.180397 
L 293.776162 62.171621 
L 294.277172 62.734185 
L 294.778182 61.382653 
L 295.279192 60.538799 
L 295.780202 63.543739 
L 296.281212 61.272881 
L 296.782222 59.633197 
L 297.283232 60.64857 
L 297.784242 60.518214 
L 298.285253 62.384294 
L 298.786263 61.849169 
L 299.287273 65.6225 
L 299.788283 63.317334 
L 300.790303 62.487204 
L 301.291313 62.315693 
L 301.792323 65.595053 
L 302.293333 63.310481 
L 302.794343 64.442478 
L 303.295354 61.711959 
L 303.796364 62.260807 
L 304.297374 60.703448 
L 304.798384 62.020688 
L 305.299394 59.907626 
L 305.800404 60.134022 
L 306.301414 60.614262 
L 306.802424 60.6074 
L 307.303434 60.772057 
L 307.804444 63.008613 
L 308.305455 59.180397 
L 309.307475 63.646648 
L 309.808485 60.305541 
L 310.309495 60.435889 
L 310.810505 61.149387 
L 311.311515 63.399667 
L 311.812525 62.693023 
L 312.313535 60.854381 
L 312.814545 60.833804 
L 313.315556 62.686161 
L 313.816566 62.912565 
L 314.317576 61.732544 
L 314.818586 65.464704 
L 315.319596 62.391156 
L 315.820606 61.670796 
L 316.822626 64.476779 
L 317.323636 61.670796 
L 317.824646 60.833804 
L 318.325657 62.802794 
L 318.826667 61.40323 
L 319.327677 61.279743 
L 319.828687 63.392805 
L 320.329697 61.464977 
L 320.830707 62.741047 
L 321.331717 61.622773 
L 321.832727 61.396368 
L 322.333737 60.792642 
L 322.834747 61.176834 
L 323.335758 62.027549 
L 323.836768 61.032762 
L 324.337778 61.972664 
L 324.838788 62.171621 
L 325.339798 62.699885 
L 325.840808 59.640059 
L 326.341818 64.764922 
L 326.842828 63.89363 
L 327.343838 63.578039 
L 327.844848 61.444392 
L 328.345859 61.217996 
L 328.846869 61.794283 
L 329.347879 61.533586 
L 329.848889 64.270959 
L 330.349899 63.722111 
L 330.850909 60.079136 
L 331.351919 62.741047 
L 331.852929 62.349993 
L 332.353939 61.16311 
L 332.854949 60.78578 
L 333.35596 64.387592 
L 333.85697 59.084349 
L 334.35798 61.910916 
L 334.85899 59.969365 
L 335.36 62.638137 
L 335.86101 60.950429 
L 336.36202 62.212783 
L 336.86303 60.6074 
L 337.36404 65.176561 
L 337.865051 61.95894 
L 338.366061 63.866183 
L 338.867071 62.006964 
L 339.368081 62.830233 
L 339.869091 59.406801 
L 340.370101 62.384294 
L 340.871111 64.229797 
L 341.372121 62.72047 
L 341.873131 63.831882 
L 342.374141 62.548951 
L 342.875152 61.945217 
L 343.376162 60.477051 
L 344.378182 61.897193 
L 344.879192 62.247084 
L 345.380202 63.248733 
L 345.881212 60.806357 
L 346.382222 59.859602 
L 346.883232 65.917505 
L 347.384242 62.843956 
L 347.885253 61.705097 
L 348.386263 61.759983 
L 348.887273 65.354933 
L 349.388283 59.784131 
L 349.889293 61.650211 
L 350.390303 62.795932 
L 350.891313 61.492416 
L 351.392323 60.984738 
L 351.893333 60.23007 
L 352.394343 63.145823 
L 352.895354 63.65351 
L 353.396364 60.957291 
L 353.897374 60.559376 
L 354.899394 63.049776 
L 355.400404 62.693023 
L 355.901414 60.085998 
L 356.402424 62.837095 
L 356.903434 60.408442 
L 357.404444 60.353565 
L 357.905455 62.583251 
L 358.406465 61.952078 
L 358.907475 59.441102 
L 359.909495 62.768494 
L 360.911515 60.559376 
L 361.412525 61.204272 
L 361.913535 61.231719 
L 362.414545 61.574749 
L 362.915556 62.480342 
L 363.416566 60.971014 
L 363.917576 63.084076 
L 364.418586 60.868105 
L 365.420606 61.286605 
L 365.921616 62.109874 
L 366.422626 61.485562 
L 366.923636 60.120299 
L 367.424646 62.946866 
L 367.925657 60.559376 
L 368.426667 61.437539 
L 368.927677 61.904054 
L 369.428687 60.442751 
L 369.929697 61.705097 
L 370.430707 61.286605 
L 370.931717 60.113437 
L 371.432727 61.279743 
L 371.933737 62.137312 
L 372.434747 60.854381 
L 373.436768 62.452903 
L 373.937778 60.88869 
L 374.438788 62.329408 
L 374.939798 60.435889 
L 375.440808 60.044836 
L 375.941818 60.044836 
L 376.442828 61.68452 
L 376.943838 62.885119 
L 377.444848 60.88869 
L 377.945859 61.464977 
L 378.446869 61.108224 
L 378.947879 61.12881 
L 379.448889 59.166681 
L 379.949899 60.943576 
L 380.450909 59.887041 
L 380.951919 62.795932 
L 381.452929 62.61756 
L 381.953939 61.005315 
L 382.454949 60.456466 
L 382.95596 60.943576 
L 383.45697 63.166401 
L 383.95798 61.698235 
L 384.45899 64.531664 
L 384.96 60.003674 
L 385.46101 62.974305 
L 385.96202 60.511352 
L 386.46303 63.523153 
L 386.96404 62.555813 
L 387.966061 62.308831 
L 388.467071 61.26602 
L 388.968081 61.938355 
L 389.469091 63.82502 
L 389.970101 62.144174 
L 390.471111 58.933415 
L 390.972121 60.600546 
L 391.473131 63.365358 
L 391.974141 61.533586 
L 392.475152 61.464977 
L 392.976162 61.554163 
L 393.477172 64.367007 
L 393.978182 62.404879 
L 394.479192 61.073924 
L 394.980202 60.182046 
L 395.481212 60.09286 
L 395.982222 58.63841 
L 396.483232 61.739397 
L 396.984242 61.005315 
L 397.485253 61.362068 
L 397.986263 59.118658 
L 398.487273 59.482264 
L 398.487273 59.482264 
" clip-path="url(#pdfb71cc719)" style="fill: none; stroke: #ff0000; stroke-width: 1.5; stroke-linecap: square"/>
   </g>
   <g id="patch_3">
    <path d="M 57.6 307.584 
L 57.6 41.472 
" style="fill: none; stroke: #000000; stroke-width: 0.8; stroke-linejoin: miter; stroke-linecap: square"/>
   </g>
   <g id="patch_4">
    <path d="M 414.72 307.584 
L 414.72 41.472 
" style="fill: none; stroke: #000000; stroke-width: 0.8; stroke-linejoin: miter; stroke-linecap: square"/>
   </g>
   <g id="patch_5">
    <path d="M 57.6 307.584 
L 414.72 307.584 
" style="fill: none; stroke: #000000; stroke-width: 0.8; stroke-linejoin: miter; stroke-linecap: square"/>
   </g>
   <g id="patch_6">
    <path d="M 57.6 41.472 
L 414.72 41.472 
" style="fill: none; stroke: #000000; stroke-width: 0.8; stroke-linejoin: miter; stroke-linecap: square"/>
   </g>
   <g id="text_17">
    <!-- Population's average and best fitness -->
    <g transform="translate(123.529687 35.472) scale(0.12 -0.12)">
     <defs>
      <path id="DejaVuSans-50" d="M 1259 4147 
L 1259 2394 
L 2053 2394 
Q 2494 2394 2734 2622 
Q 2975 2850 2975 3272 
Q 2975 3691 2734 3919 
Q 2494 4147 2053 4147 
L 1259 4147 
z
M 628 4666 
L 2053 4666 
Q 2838 4666 3239 4311 
Q 3641 3956 3641 3272 
Q 3641 2581 3239 2228 
Q 2838 1875 2053 1875 
L 1259 1875 
L 1259 0 
L 628 0 
L 628 4666 
z
" transform="scale(0.015625)"/>
      <path id="DejaVuSans-70" d="M 1159 525 
L 1159 -1331 
L 581 -1331 
L 581 3500 
L 1159 3500 
L 1159 2969 
Q 1341 3281 1617 3432 
Q 1894 3584 2278 3584 
Q 2916 3584 3314 3078 
Q 3713 2572 3713 1747 
Q 3713 922 3314 415 
Q 2916 -91 2278 -91 
Q 1894 -91 1617 61 
Q 1341 213 1159 525 
z
M 3116 1747 
Q 3116 2381 2855 2742 
Q 2594 3103 2138 3103 
Q 1681 3103 1420 2742 
Q 1159 2381 1159 1747 
Q 1159 1113 1420 752 
Q 1681 391 2138 391 
Q 2594 391 2855 752 
Q 3116 1113 3116 1747 
z
" transform="scale(0.015625)"/>
      <path id="DejaVuSans-75" d="M 544 1381 
L 544 3500 
L 1119 3500 
L 1119 1403 
Q 1119 906 1312 657 
Q 1506 409 1894 409 
Q 2359 409 2629 706 
Q 2900 1003 2900 1516 
L 2900 3500 
L 3475 3500 
L 3475 0 
L 2900 0 
L 2900 538 
Q 2691 219 2414 64 
Q 2138 -91 1772 -91 
Q 1169 -91 856 284 
Q 544 659 544 1381 
z
M 1991 3584 
L 1991 3584 
z
" transform="scale(0.015625)"/>
      <path id="DejaVuSans-6c" d="M 603 4863 
L 1178 4863 
L 1178 0 
L 603 0 
L 603 4863 
z
" transform="scale(0.015625)"/>
      <path id="DejaVuSans-27" d="M 1147 4666 
L 1147 2931 
L 616 2931 
L 616 4666 
L 1147 4666 
z
" transform="scale(0.015625)"/>
      <path id="DejaVuSans-20" transform="scale(0.015625)"/>
      <path id="DejaVuSans-76" d="M 191 3500 
L 800 3500 
L 1894 563 
L 2988 3500 
L 3597 3500 
L 2284 0 
L 1503 0 
L 191 3500 
z
" transform="scale(0.015625)"/>
      <path id="DejaVuSans-67" d="M 2906 1791 
Q 2906 2416 2648 2759 
Q 2391 3103 1925 3103 
Q 1463 3103 1205 2759 
Q 947 2416 947 1791 
Q 947 1169 1205 825 
Q 1463 481 1925 481 
Q 2391 481 2648 825 
Q 2906 1169 2906 1791 
z
M 3481 434 
Q 3481 -459 3084 -895 
Q 2688 -1331 1869 -1331 
Q 1566 -1331 1297 -1286 
Q 1028 -1241 775 -1147 
L 775 -588 
Q 1028 -725 1275 -790 
Q 1522 -856 1778 -856 
Q 2344 -856 2625 -561 
Q 2906 -266 2906 331 
L 2906 616 
Q 2728 306 2450 153 
Q 2172 0 1784 0 
Q 1141 0 747 490 
Q 353 981 353 1791 
Q 353 2603 747 3093 
Q 1141 3584 1784 3584 
Q 2172 3584 2450 3431 
Q 2728 3278 2906 2969 
L 2906 3500 
L 3481 3500 
L 3481 434 
z
" transform="scale(0.015625)"/>
      <path id="DejaVuSans-64" d="M 2906 2969 
L 2906 4863 
L 3481 4863 
L 3481 0 
L 2906 0 
L 2906 525 
Q 2725 213 2448 61 
Q 2172 -91 1784 -91 
Q 1150 -91 751 415 
Q 353 922 353 1747 
Q 353 2572 751 3078 
Q 1150 3584 1784 3584 
Q 2172 3584 2448 3432 
Q 2725 3281 2906 2969 
z
M 947 1747 
Q 947 1113 1208 752 
Q 1469 391 1925 391 
Q 2381 391 2643 752 
Q 2906 1113 2906 1747 
Q 2906 2381 2643 2742 
Q 2381 3103 1925 3103 
Q 1469 3103 1208 2742 
Q 947 2381 947 1747 
z
" transform="scale(0.015625)"/>
      <path id="DejaVuSans-62" d="M 3116 1747 
Q 3116 2381 2855 2742 
Q 2594 3103 2138 3103 
Q 1681 3103 1420 2742 
Q 1159 2381 1159 1747 
Q 1159 1113 1420 752 
Q 1681 391 2138 391 
Q 2594 391 2855 752 
Q 3116 1113 3116 1747 
z
M 1159 2969 
Q 1341 3281 1617 3432 
Q 1894 3584 2278 3584 
Q 2916 3584 3314 3078 
Q 3713 2572 3713 1747 
Q 3713 922 3314 415 
Q 2916 -91 2278 -91 
Q 1894 -91 1617 61 
Q 1341 213 1159 525 
L 1159 0 
L 581 0 
L 581 4863 
L 1159 4863 
L 1159 2969 
z
" transform="scale(0.015625)"/>
      <path id="DejaVuSans-66" d="M 2375 4863 
L 2375 4384 
L 1825 4384 
Q 1516 4384 1395 4259 
Q 1275 4134 1275 3809 
L 1275 3500 
L 2222 3500 
L 2222 3053 
L 1275 3053 
L 1275 0 
L 697 0 
L 697 3053 
L 147 3053 
L 147 3500 
L 697 3500 
L 697 3744 
Q 697 4328 969 4595 
Q 1241 4863 1831 4863 
L 2375 4863 
z
" transform="scale(0.015625)"/>
     </defs>
     <use xlink:href="#DejaVuSans-50"/>
     <use xlink:href="#DejaVuSans-6f" x="56.677734"/>
     <use xlink:href="#DejaVuSans-70" x="117.859375"/>
     <use xlink:href="#DejaVuSans-75" x="181.335938"/>
     <use xlink:href="#DejaVuSans-6c" x="244.714844"/>
     <use xlink:href="#DejaVuSans-61" x="272.498047"/>
     <use xlink:href="#DejaVuSans-74" x="333.777344"/>
     <use xlink:href="#DejaVuSans-69" x="372.986328"/>
     <use xlink:href="#DejaVuSans-6f" x="400.769531"/>
     <use xlink:href="#DejaVuSans-6e" x="461.951172"/>
     <use xlink:href="#DejaVuSans-27" x="525.330078"/>
     <use xlink:href="#DejaVuSans-73" x="552.820312"/>
     <use xlink:href="#DejaVuSans-20" x="604.919922"/>
     <use xlink:href="#DejaVuSans-61" x="636.707031"/>
     <use xlink:href="#DejaVuSans-76" x="697.986328"/>
     <use xlink:href="#DejaVuSans-65" x="757.166016"/>
     <use xlink:href="#DejaVuSans-72" x="818.689453"/>
     <use xlink:href="#DejaVuSans-61" x="859.802734"/>
     <use xlink:href="#DejaVuSans-67" x="921.082031"/>
     <use xlink:href="#DejaVuSans-65" x="984.558594"/>
     <use xlink:href="#DejaVuSans-20" x="1046.082031"/>
     <use xlink:href="#DejaVuSans-61" x="1077.869141"/>
     <use xlink:href="#DejaVuSans-6e" x="1139.148438"/>
     <use xlink:href="#DejaVuSans-64" x="1202.527344"/>
     <use xlink:href="#DejaVuSans-20" x="1266.003906"/>
     <use xlink:href="#DejaVuSans-62" x="1297.791016"/>
     <use xlink:href="#DejaVuSans-65" x="1361.267578"/>
     <use xlink:href="#DejaVuSans-73" x="1422.791016"/>
     <use xlink:href="#DejaVuSans-74" x="1474.890625"/>
     <use xlink:href="#DejaVuSans-20" x="1514.099609"/>
     <use xlink:href="#DejaVuSans-66" x="1545.886719"/>
     <use xlink:href="#DejaVuSans-69" x="1581.091797"/>
     <use xlink:href="#DejaVuSans-74" x="1608.875"/>
     <use xlink:href="#DejaVuSans-6e" x="1648.083984"/>
     <use xlink:href="#DejaVuSans-65" x="1711.462891"/>
     <use xlink:href="#DejaVuSans-73" x="1772.986328"/>
     <use xlink:href="#DejaVuSans-73" x="1825.085938"/>
    </g>
   </g>
   <g id="legend_1">
    <g id="patch_7">
     <path d="M 64.6 205.38425 
L 137.540625 205.38425 
Q 139.540625 205.38425 139.540625 203.38425 
L 139.540625 145.67175 
Q 139.540625 143.67175 137.540625 143.67175 
L 64.6 143.67175 
Q 62.6 143.67175 62.6 145.67175 
L 62.6 203.38425 
Q 62.6 205.38425 64.6 205.38425 
z
" style="fill: #ffffff; opacity: 0.8; stroke: #cccccc; stroke-linejoin: miter"/>
    </g>
    <g id="line2d_33">
     <path d="M 66.6 151.770188 
L 76.6 151.770188 
L 86.6 151.770188 
" style="fill: none; stroke: #0000ff; stroke-width: 1.5; stroke-linecap: square"/>
    </g>
    <g id="text_18">
     <!-- average -->
     <g transform="translate(94.6 155.270188) scale(0.1 -0.1)">
      <use xlink:href="#DejaVuSans-61"/>
      <use xlink:href="#DejaVuSans-76" x="61.279297"/>
      <use xlink:href="#DejaVuSans-65" x="120.458984"/>
      <use xlink:href="#DejaVuSans-72" x="181.982422"/>
      <use xlink:href="#DejaVuSans-61" x="223.095703"/>
      <use xlink:href="#DejaVuSans-67" x="284.375"/>
      <use xlink:href="#DejaVuSans-65" x="347.851562"/>
     </g>
    </g>
    <g id="line2d_34">
     <path d="M 66.6 166.448313 
L 76.6 166.448313 
L 86.6 166.448313 
" style="fill: none; stroke-dasharray: 9.6,2.4,1.5,2.4; stroke-dashoffset: 0; stroke: #008000; stroke-width: 1.5"/>
    </g>
    <g id="text_19">
     <!-- -1 sd -->
     <g transform="translate(94.6 169.948313) scale(0.1 -0.1)">
      <defs>
       <path id="DejaVuSans-2d" d="M 313 2009 
L 1997 2009 
L 1997 1497 
L 313 1497 
L 313 2009 
z
" transform="scale(0.015625)"/>
      </defs>
      <use xlink:href="#DejaVuSans-2d"/>
      <use xlink:href="#DejaVuSans-31" x="36.083984"/>
      <use xlink:href="#DejaVuSans-20" x="99.707031"/>
      <use xlink:href="#DejaVuSans-73" x="131.494141"/>
      <use xlink:href="#DejaVuSans-64" x="183.59375"/>
     </g>
    </g>
    <g id="line2d_35">
     <path d="M 66.6 181.126438 
L 76.6 181.126438 
L 86.6 181.126438 
" style="fill: none; stroke-dasharray: 9.6,2.4,1.5,2.4; stroke-dashoffset: 0; stroke: #008000; stroke-width: 1.5"/>
    </g>
    <g id="text_20">
     <!-- +1 sd -->
     <g transform="translate(94.6 184.626438) scale(0.1 -0.1)">
      <defs>
       <path id="DejaVuSans-2b" d="M 2944 4013 
L 2944 2272 
L 4684 2272 
L 4684 1741 
L 2944 1741 
L 2944 0 
L 2419 0 
L 2419 1741 
L 678 1741 
L 678 2272 
L 2419 2272 
L 2419 4013 
L 2944 4013 
z
" transform="scale(0.015625)"/>
      </defs>
      <use xlink:href="#DejaVuSans-2b"/>
      <use xlink:href="#DejaVuSans-31" x="83.789062"/>
      <use xlink:href="#DejaVuSans-20" x="147.412109"/>
      <use xlink:href="#DejaVuSans-73" x="179.199219"/>
      <use xlink:href="#DejaVuSans-64" x="231.298828"/>
     </g>
    </g>
    <g id="line2d_36">
     <path d="M 66.6 195.804563 
L 76.6 195.804563 
L 86.6 195.804563 
" style="fill: none; stroke: #ff0000; stroke-width: 1.5; stroke-linecap: square"/>
    </g>
    <g id="text_21">
     <!-- best -->
     <g transform="translate(94.6 199.304563) scale(0.1 -0.1)">
      <use xlink:href="#DejaVuSans-62"/>
      <use xlink:href="#DejaVuSans-65" x="63.476562"/>
      <use xlink:href="#DejaVuSans-73" x="125"/>
      <use xlink:href="#DejaVuSans-74" x="177.099609"/>
     </g>
    </g>
   </g>
  </g>
 </g>
 <defs>
  <clipPath id="pdfb71cc719">
   <rect x="57.6" y="41.472" width="357.12" height="266.112"/>
  </clipPath>
 </defs>
</svg>
