<?xml version="1.0" encoding="utf-8" standalone="no"?>
<!DOCTYPE svg PUBLIC "-//W3C//DTD SVG 1.1//EN"
  "http://www.w3.org/Graphics/SVG/1.1/DTD/svg11.dtd">
<svg xmlns:xlink="http://www.w3.org/1999/xlink" width="460.8pt" height="345.6pt" viewBox="0 0 460.8 345.6" xmlns="http://www.w3.org/2000/svg" version="1.1">
 <metadata>
  <rdf:RDF xmlns:dc="http://purl.org/dc/elements/1.1/" xmlns:cc="http://creativecommons.org/ns#" xmlns:rdf="http://www.w3.org/1999/02/22-rdf-syntax-ns#">
   <cc:Work>
    <dc:type rdf:resource="http://purl.org/dc/dcmitype/StillImage"/>
    <dc:date>2023-03-23T18:58:49.762689</dc:date>
    <dc:format>image/svg+xml</dc:format>
    <dc:creator>
     <cc:Agent>
      <dc:title>Matplotlib v3.6.3, https://matplotlib.org/</dc:title>
     </cc:Agent>
    </dc:creator>
   </cc:Work>
  </rdf:RDF>
 </metadata>
 <defs>
  <style type="text/css">*{stroke-linejoin: round; stroke-linecap: butt}</style>
 </defs>
 <g id="figure_1">
  <g id="patch_1">
   <path d="M 0 345.6 
L 460.8 345.6 
L 460.8 0 
L 0 0 
z
" style="fill: #ffffff"/>
  </g>
  <g id="axes_1">
   <g id="patch_2">
    <path d="M 57.6 307.584 
L 414.72 307.584 
L 414.72 41.472 
L 57.6 41.472 
z
" style="fill: #ffffff"/>
   </g>
   <g id="matplotlib.axis_1">
    <g id="xtick_1">
     <g id="line2d_1">
      <path d="M 73.832727 307.584 
L 73.832727 41.472 
" clip-path="url(#pcc5dae0af3)" style="fill: none; stroke: #b0b0b0; stroke-width: 0.8; stroke-linecap: square"/>
     </g>
     <g id="line2d_2">
      <defs>
       <path id="ma4f74c23e3" d="M 0 0 
L 0 3.5 
" style="stroke: #000000; stroke-width: 0.8"/>
      </defs>
      <g>
       <use xlink:href="#ma4f74c23e3" x="73.832727" y="307.584" style="stroke: #000000; stroke-width: 0.8"/>
      </g>
     </g>
     <g id="text_1">
      <!-- 0 -->
      <g transform="translate(70.651477 322.182437) scale(0.1 -0.1)">
       <defs>
        <path id="DejaVuSans-30" d="M 2034 4250 
Q 1547 4250 1301 3770 
Q 1056 3291 1056 2328 
Q 1056 1369 1301 889 
Q 1547 409 2034 409 
Q 2525 409 2770 889 
Q 3016 1369 3016 2328 
Q 3016 3291 2770 3770 
Q 2525 4250 2034 4250 
z
M 2034 4750 
Q 2819 4750 3233 4129 
Q 3647 3509 3647 2328 
Q 3647 1150 3233 529 
Q 2819 -91 2034 -91 
Q 1250 -91 836 529 
Q 422 1150 422 2328 
Q 422 3509 836 4129 
Q 1250 4750 2034 4750 
z
" transform="scale(0.015625)"/>
       </defs>
       <use xlink:href="#DejaVuSans-30"/>
      </g>
     </g>
    </g>
    <g id="xtick_2">
     <g id="line2d_3">
      <path d="M 139.419504 307.584 
L 139.419504 41.472 
" clip-path="url(#pcc5dae0af3)" style="fill: none; stroke: #b0b0b0; stroke-width: 0.8; stroke-linecap: square"/>
     </g>
     <g id="line2d_4">
      <g>
       <use xlink:href="#ma4f74c23e3" x="139.419504" y="307.584" style="stroke: #000000; stroke-width: 0.8"/>
      </g>
     </g>
     <g id="text_2">
      <!-- 20 -->
      <g transform="translate(133.057004 322.182437) scale(0.1 -0.1)">
       <defs>
        <path id="DejaVuSans-32" d="M 1228 531 
L 3431 531 
L 3431 0 
L 469 0 
L 469 531 
Q 828 903 1448 1529 
Q 2069 2156 2228 2338 
Q 2531 2678 2651 2914 
Q 2772 3150 2772 3378 
Q 2772 3750 2511 3984 
Q 2250 4219 1831 4219 
Q 1534 4219 1204 4116 
Q 875 4013 500 3803 
L 500 4441 
Q 881 4594 1212 4672 
Q 1544 4750 1819 4750 
Q 2544 4750 2975 4387 
Q 3406 4025 3406 3419 
Q 3406 3131 3298 2873 
Q 3191 2616 2906 2266 
Q 2828 2175 2409 1742 
Q 1991 1309 1228 531 
z
" transform="scale(0.015625)"/>
       </defs>
       <use xlink:href="#DejaVuSans-32"/>
       <use xlink:href="#DejaVuSans-30" x="63.623047"/>
      </g>
     </g>
    </g>
    <g id="xtick_3">
     <g id="line2d_5">
      <path d="M 205.006281 307.584 
L 205.006281 41.472 
" clip-path="url(#pcc5dae0af3)" style="fill: none; stroke: #b0b0b0; stroke-width: 0.8; stroke-linecap: square"/>
     </g>
     <g id="line2d_6">
      <g>
       <use xlink:href="#ma4f74c23e3" x="205.006281" y="307.584" style="stroke: #000000; stroke-width: 0.8"/>
      </g>
     </g>
     <g id="text_3">
      <!-- 40 -->
      <g transform="translate(198.643781 322.182437) scale(0.1 -0.1)">
       <defs>
        <path id="DejaVuSans-34" d="M 2419 4116 
L 825 1625 
L 2419 1625 
L 2419 4116 
z
M 2253 4666 
L 3047 4666 
L 3047 1625 
L 3713 1625 
L 3713 1100 
L 3047 1100 
L 3047 0 
L 2419 0 
L 2419 1100 
L 313 1100 
L 313 1709 
L 2253 4666 
z
" transform="scale(0.015625)"/>
       </defs>
       <use xlink:href="#DejaVuSans-34"/>
       <use xlink:href="#DejaVuSans-30" x="63.623047"/>
      </g>
     </g>
    </g>
    <g id="xtick_4">
     <g id="line2d_7">
      <path d="M 270.593058 307.584 
L 270.593058 41.472 
" clip-path="url(#pcc5dae0af3)" style="fill: none; stroke: #b0b0b0; stroke-width: 0.8; stroke-linecap: square"/>
     </g>
     <g id="line2d_8">
      <g>
       <use xlink:href="#ma4f74c23e3" x="270.593058" y="307.584" style="stroke: #000000; stroke-width: 0.8"/>
      </g>
     </g>
     <g id="text_4">
      <!-- 60 -->
      <g transform="translate(264.230558 322.182437) scale(0.1 -0.1)">
       <defs>
        <path id="DejaVuSans-36" d="M 2113 2584 
Q 1688 2584 1439 2293 
Q 1191 2003 1191 1497 
Q 1191 994 1439 701 
Q 1688 409 2113 409 
Q 2538 409 2786 701 
Q 3034 994 3034 1497 
Q 3034 2003 2786 2293 
Q 2538 2584 2113 2584 
z
M 3366 4563 
L 3366 3988 
Q 3128 4100 2886 4159 
Q 2644 4219 2406 4219 
Q 1781 4219 1451 3797 
Q 1122 3375 1075 2522 
Q 1259 2794 1537 2939 
Q 1816 3084 2150 3084 
Q 2853 3084 3261 2657 
Q 3669 2231 3669 1497 
Q 3669 778 3244 343 
Q 2819 -91 2113 -91 
Q 1303 -91 875 529 
Q 447 1150 447 2328 
Q 447 3434 972 4092 
Q 1497 4750 2381 4750 
Q 2619 4750 2861 4703 
Q 3103 4656 3366 4563 
z
" transform="scale(0.015625)"/>
       </defs>
       <use xlink:href="#DejaVuSans-36"/>
       <use xlink:href="#DejaVuSans-30" x="63.623047"/>
      </g>
     </g>
    </g>
    <g id="xtick_5">
     <g id="line2d_9">
      <path d="M 336.179835 307.584 
L 336.179835 41.472 
" clip-path="url(#pcc5dae0af3)" style="fill: none; stroke: #b0b0b0; stroke-width: 0.8; stroke-linecap: square"/>
     </g>
     <g id="line2d_10">
      <g>
       <use xlink:href="#ma4f74c23e3" x="336.179835" y="307.584" style="stroke: #000000; stroke-width: 0.8"/>
      </g>
     </g>
     <g id="text_5">
      <!-- 80 -->
      <g transform="translate(329.817335 322.182437) scale(0.1 -0.1)">
       <defs>
        <path id="DejaVuSans-38" d="M 2034 2216 
Q 1584 2216 1326 1975 
Q 1069 1734 1069 1313 
Q 1069 891 1326 650 
Q 1584 409 2034 409 
Q 2484 409 2743 651 
Q 3003 894 3003 1313 
Q 3003 1734 2745 1975 
Q 2488 2216 2034 2216 
z
M 1403 2484 
Q 997 2584 770 2862 
Q 544 3141 544 3541 
Q 544 4100 942 4425 
Q 1341 4750 2034 4750 
Q 2731 4750 3128 4425 
Q 3525 4100 3525 3541 
Q 3525 3141 3298 2862 
Q 3072 2584 2669 2484 
Q 3125 2378 3379 2068 
Q 3634 1759 3634 1313 
Q 3634 634 3220 271 
Q 2806 -91 2034 -91 
Q 1263 -91 848 271 
Q 434 634 434 1313 
Q 434 1759 690 2068 
Q 947 2378 1403 2484 
z
M 1172 3481 
Q 1172 3119 1398 2916 
Q 1625 2713 2034 2713 
Q 2441 2713 2670 2916 
Q 2900 3119 2900 3481 
Q 2900 3844 2670 4047 
Q 2441 4250 2034 4250 
Q 1625 4250 1398 4047 
Q 1172 3844 1172 3481 
z
" transform="scale(0.015625)"/>
       </defs>
       <use xlink:href="#DejaVuSans-38"/>
       <use xlink:href="#DejaVuSans-30" x="63.623047"/>
      </g>
     </g>
    </g>
    <g id="xtick_6">
     <g id="line2d_11">
      <path d="M 401.766612 307.584 
L 401.766612 41.472 
" clip-path="url(#pcc5dae0af3)" style="fill: none; stroke: #b0b0b0; stroke-width: 0.8; stroke-linecap: square"/>
     </g>
     <g id="line2d_12">
      <g>
       <use xlink:href="#ma4f74c23e3" x="401.766612" y="307.584" style="stroke: #000000; stroke-width: 0.8"/>
      </g>
     </g>
     <g id="text_6">
      <!-- 100 -->
      <g transform="translate(392.222862 322.182437) scale(0.1 -0.1)">
       <defs>
        <path id="DejaVuSans-31" d="M 794 531 
L 1825 531 
L 1825 4091 
L 703 3866 
L 703 4441 
L 1819 4666 
L 2450 4666 
L 2450 531 
L 3481 531 
L 3481 0 
L 794 0 
L 794 531 
z
" transform="scale(0.015625)"/>
       </defs>
       <use xlink:href="#DejaVuSans-31"/>
       <use xlink:href="#DejaVuSans-30" x="63.623047"/>
       <use xlink:href="#DejaVuSans-30" x="127.246094"/>
      </g>
     </g>
    </g>
    <g id="text_7">
     <!-- Generations -->
     <g transform="translate(205.662344 335.860562) scale(0.1 -0.1)">
      <defs>
       <path id="DejaVuSans-47" d="M 3809 666 
L 3809 1919 
L 2778 1919 
L 2778 2438 
L 4434 2438 
L 4434 434 
Q 4069 175 3628 42 
Q 3188 -91 2688 -91 
Q 1594 -91 976 548 
Q 359 1188 359 2328 
Q 359 3472 976 4111 
Q 1594 4750 2688 4750 
Q 3144 4750 3555 4637 
Q 3966 4525 4313 4306 
L 4313 3634 
Q 3963 3931 3569 4081 
Q 3175 4231 2741 4231 
Q 1884 4231 1454 3753 
Q 1025 3275 1025 2328 
Q 1025 1384 1454 906 
Q 1884 428 2741 428 
Q 3075 428 3337 486 
Q 3600 544 3809 666 
z
" transform="scale(0.015625)"/>
       <path id="DejaVuSans-65" d="M 3597 1894 
L 3597 1613 
L 953 1613 
Q 991 1019 1311 708 
Q 1631 397 2203 397 
Q 2534 397 2845 478 
Q 3156 559 3463 722 
L 3463 178 
Q 3153 47 2828 -22 
Q 2503 -91 2169 -91 
Q 1331 -91 842 396 
Q 353 884 353 1716 
Q 353 2575 817 3079 
Q 1281 3584 2069 3584 
Q 2775 3584 3186 3129 
Q 3597 2675 3597 1894 
z
M 3022 2063 
Q 3016 2534 2758 2815 
Q 2500 3097 2075 3097 
Q 1594 3097 1305 2825 
Q 1016 2553 972 2059 
L 3022 2063 
z
" transform="scale(0.015625)"/>
       <path id="DejaVuSans-6e" d="M 3513 2113 
L 3513 0 
L 2938 0 
L 2938 2094 
Q 2938 2591 2744 2837 
Q 2550 3084 2163 3084 
Q 1697 3084 1428 2787 
Q 1159 2491 1159 1978 
L 1159 0 
L 581 0 
L 581 3500 
L 1159 3500 
L 1159 2956 
Q 1366 3272 1645 3428 
Q 1925 3584 2291 3584 
Q 2894 3584 3203 3211 
Q 3513 2838 3513 2113 
z
" transform="scale(0.015625)"/>
       <path id="DejaVuSans-72" d="M 2631 2963 
Q 2534 3019 2420 3045 
Q 2306 3072 2169 3072 
Q 1681 3072 1420 2755 
Q 1159 2438 1159 1844 
L 1159 0 
L 581 0 
L 581 3500 
L 1159 3500 
L 1159 2956 
Q 1341 3275 1631 3429 
Q 1922 3584 2338 3584 
Q 2397 3584 2469 3576 
Q 2541 3569 2628 3553 
L 2631 2963 
z
" transform="scale(0.015625)"/>
       <path id="DejaVuSans-61" d="M 2194 1759 
Q 1497 1759 1228 1600 
Q 959 1441 959 1056 
Q 959 750 1161 570 
Q 1363 391 1709 391 
Q 2188 391 2477 730 
Q 2766 1069 2766 1631 
L 2766 1759 
L 2194 1759 
z
M 3341 1997 
L 3341 0 
L 2766 0 
L 2766 531 
Q 2569 213 2275 61 
Q 1981 -91 1556 -91 
Q 1019 -91 701 211 
Q 384 513 384 1019 
Q 384 1609 779 1909 
Q 1175 2209 1959 2209 
L 2766 2209 
L 2766 2266 
Q 2766 2663 2505 2880 
Q 2244 3097 1772 3097 
Q 1472 3097 1187 3025 
Q 903 2953 641 2809 
L 641 3341 
Q 956 3463 1253 3523 
Q 1550 3584 1831 3584 
Q 2591 3584 2966 3190 
Q 3341 2797 3341 1997 
z
" transform="scale(0.015625)"/>
       <path id="DejaVuSans-74" d="M 1172 4494 
L 1172 3500 
L 2356 3500 
L 2356 3053 
L 1172 3053 
L 1172 1153 
Q 1172 725 1289 603 
Q 1406 481 1766 481 
L 2356 481 
L 2356 0 
L 1766 0 
Q 1100 0 847 248 
Q 594 497 594 1153 
L 594 3053 
L 172 3053 
L 172 3500 
L 594 3500 
L 594 4494 
L 1172 4494 
z
" transform="scale(0.015625)"/>
       <path id="DejaVuSans-69" d="M 603 3500 
L 1178 3500 
L 1178 0 
L 603 0 
L 603 3500 
z
M 603 4863 
L 1178 4863 
L 1178 4134 
L 603 4134 
L 603 4863 
z
" transform="scale(0.015625)"/>
       <path id="DejaVuSans-6f" d="M 1959 3097 
Q 1497 3097 1228 2736 
Q 959 2375 959 1747 
Q 959 1119 1226 758 
Q 1494 397 1959 397 
Q 2419 397 2687 759 
Q 2956 1122 2956 1747 
Q 2956 2369 2687 2733 
Q 2419 3097 1959 3097 
z
M 1959 3584 
Q 2709 3584 3137 3096 
Q 3566 2609 3566 1747 
Q 3566 888 3137 398 
Q 2709 -91 1959 -91 
Q 1206 -91 779 398 
Q 353 888 353 1747 
Q 353 2609 779 3096 
Q 1206 3584 1959 3584 
z
" transform="scale(0.015625)"/>
       <path id="DejaVuSans-73" d="M 2834 3397 
L 2834 2853 
Q 2591 2978 2328 3040 
Q 2066 3103 1784 3103 
Q 1356 3103 1142 2972 
Q 928 2841 928 2578 
Q 928 2378 1081 2264 
Q 1234 2150 1697 2047 
L 1894 2003 
Q 2506 1872 2764 1633 
Q 3022 1394 3022 966 
Q 3022 478 2636 193 
Q 2250 -91 1575 -91 
Q 1294 -91 989 -36 
Q 684 19 347 128 
L 347 722 
Q 666 556 975 473 
Q 1284 391 1588 391 
Q 1994 391 2212 530 
Q 2431 669 2431 922 
Q 2431 1156 2273 1281 
Q 2116 1406 1581 1522 
L 1381 1569 
Q 847 1681 609 1914 
Q 372 2147 372 2553 
Q 372 3047 722 3315 
Q 1072 3584 1716 3584 
Q 2034 3584 2315 3537 
Q 2597 3491 2834 3397 
z
" transform="scale(0.015625)"/>
      </defs>
      <use xlink:href="#DejaVuSans-47"/>
      <use xlink:href="#DejaVuSans-65" x="77.490234"/>
      <use xlink:href="#DejaVuSans-6e" x="139.013672"/>
      <use xlink:href="#DejaVuSans-65" x="202.392578"/>
      <use xlink:href="#DejaVuSans-72" x="263.916016"/>
      <use xlink:href="#DejaVuSans-61" x="305.029297"/>
      <use xlink:href="#DejaVuSans-74" x="366.308594"/>
      <use xlink:href="#DejaVuSans-69" x="405.517578"/>
      <use xlink:href="#DejaVuSans-6f" x="433.300781"/>
      <use xlink:href="#DejaVuSans-6e" x="494.482422"/>
      <use xlink:href="#DejaVuSans-73" x="557.861328"/>
     </g>
    </g>
   </g>
   <g id="matplotlib.axis_2">
    <g id="ytick_1">
     <g id="line2d_13">
      <path d="M 57.6 293.197222 
L 414.72 293.197222 
" clip-path="url(#pcc5dae0af3)" style="fill: none; stroke: #b0b0b0; stroke-width: 0.8; stroke-linecap: square"/>
     </g>
     <g id="line2d_14">
      <defs>
       <path id="m72981f20be" d="M 0 0 
L -3.5 0 
" style="stroke: #000000; stroke-width: 0.8"/>
      </defs>
      <g>
       <use xlink:href="#m72981f20be" x="57.6" y="293.197222" style="stroke: #000000; stroke-width: 0.8"/>
      </g>
     </g>
     <g id="text_8">
      <!-- −1.5 -->
      <g transform="translate(26.317187 296.996441) scale(0.1 -0.1)">
       <defs>
        <path id="DejaVuSans-2212" d="M 678 2272 
L 4684 2272 
L 4684 1741 
L 678 1741 
L 678 2272 
z
" transform="scale(0.015625)"/>
        <path id="DejaVuSans-2e" d="M 684 794 
L 1344 794 
L 1344 0 
L 684 0 
L 684 794 
z
" transform="scale(0.015625)"/>
        <path id="DejaVuSans-35" d="M 691 4666 
L 3169 4666 
L 3169 4134 
L 1269 4134 
L 1269 2991 
Q 1406 3038 1543 3061 
Q 1681 3084 1819 3084 
Q 2600 3084 3056 2656 
Q 3513 2228 3513 1497 
Q 3513 744 3044 326 
Q 2575 -91 1722 -91 
Q 1428 -91 1123 -41 
Q 819 9 494 109 
L 494 744 
Q 775 591 1075 516 
Q 1375 441 1709 441 
Q 2250 441 2565 725 
Q 2881 1009 2881 1497 
Q 2881 1984 2565 2268 
Q 2250 2553 1709 2553 
Q 1456 2553 1204 2497 
Q 953 2441 691 2322 
L 691 4666 
z
" transform="scale(0.015625)"/>
       </defs>
       <use xlink:href="#DejaVuSans-2212"/>
       <use xlink:href="#DejaVuSans-31" x="83.789062"/>
       <use xlink:href="#DejaVuSans-2e" x="147.412109"/>
       <use xlink:href="#DejaVuSans-35" x="179.199219"/>
      </g>
     </g>
    </g>
    <g id="ytick_2">
     <g id="line2d_15">
      <path d="M 57.6 260.639789 
L 414.72 260.639789 
" clip-path="url(#pcc5dae0af3)" style="fill: none; stroke: #b0b0b0; stroke-width: 0.8; stroke-linecap: square"/>
     </g>
     <g id="line2d_16">
      <g>
       <use xlink:href="#m72981f20be" x="57.6" y="260.639789" style="stroke: #000000; stroke-width: 0.8"/>
      </g>
     </g>
     <g id="text_9">
      <!-- −1.0 -->
      <g transform="translate(26.317187 264.439008) scale(0.1 -0.1)">
       <use xlink:href="#DejaVuSans-2212"/>
       <use xlink:href="#DejaVuSans-31" x="83.789062"/>
       <use xlink:href="#DejaVuSans-2e" x="147.412109"/>
       <use xlink:href="#DejaVuSans-30" x="179.199219"/>
      </g>
     </g>
    </g>
    <g id="ytick_3">
     <g id="line2d_17">
      <path d="M 57.6 228.082356 
L 414.72 228.082356 
" clip-path="url(#pcc5dae0af3)" style="fill: none; stroke: #b0b0b0; stroke-width: 0.8; stroke-linecap: square"/>
     </g>
     <g id="line2d_18">
      <g>
       <use xlink:href="#m72981f20be" x="57.6" y="228.082356" style="stroke: #000000; stroke-width: 0.8"/>
      </g>
     </g>
     <g id="text_10">
      <!-- −0.5 -->
      <g transform="translate(26.317187 231.881574) scale(0.1 -0.1)">
       <use xlink:href="#DejaVuSans-2212"/>
       <use xlink:href="#DejaVuSans-30" x="83.789062"/>
       <use xlink:href="#DejaVuSans-2e" x="147.412109"/>
       <use xlink:href="#DejaVuSans-35" x="179.199219"/>
      </g>
     </g>
    </g>
    <g id="ytick_4">
     <g id="line2d_19">
      <path d="M 57.6 195.524922 
L 414.72 195.524922 
" clip-path="url(#pcc5dae0af3)" style="fill: none; stroke: #b0b0b0; stroke-width: 0.8; stroke-linecap: square"/>
     </g>
     <g id="line2d_20">
      <g>
       <use xlink:href="#m72981f20be" x="57.6" y="195.524922" style="stroke: #000000; stroke-width: 0.8"/>
      </g>
     </g>
     <g id="text_11">
      <!-- 0.0 -->
      <g transform="translate(34.696875 199.324141) scale(0.1 -0.1)">
       <use xlink:href="#DejaVuSans-30"/>
       <use xlink:href="#DejaVuSans-2e" x="63.623047"/>
       <use xlink:href="#DejaVuSans-30" x="95.410156"/>
      </g>
     </g>
    </g>
    <g id="ytick_5">
     <g id="line2d_21">
      <path d="M 57.6 162.967489 
L 414.72 162.967489 
" clip-path="url(#pcc5dae0af3)" style="fill: none; stroke: #b0b0b0; stroke-width: 0.8; stroke-linecap: square"/>
     </g>
     <g id="line2d_22">
      <g>
       <use xlink:href="#m72981f20be" x="57.6" y="162.967489" style="stroke: #000000; stroke-width: 0.8"/>
      </g>
     </g>
     <g id="text_12">
      <!-- 0.5 -->
      <g transform="translate(34.696875 166.766708) scale(0.1 -0.1)">
       <use xlink:href="#DejaVuSans-30"/>
       <use xlink:href="#DejaVuSans-2e" x="63.623047"/>
       <use xlink:href="#DejaVuSans-35" x="95.410156"/>
      </g>
     </g>
    </g>
    <g id="ytick_6">
     <g id="line2d_23">
      <path d="M 57.6 130.410056 
L 414.72 130.410056 
" clip-path="url(#pcc5dae0af3)" style="fill: none; stroke: #b0b0b0; stroke-width: 0.8; stroke-linecap: square"/>
     </g>
     <g id="line2d_24">
      <g>
       <use xlink:href="#m72981f20be" x="57.6" y="130.410056" style="stroke: #000000; stroke-width: 0.8"/>
      </g>
     </g>
     <g id="text_13">
      <!-- 1.0 -->
      <g transform="translate(34.696875 134.209275) scale(0.1 -0.1)">
       <use xlink:href="#DejaVuSans-31"/>
       <use xlink:href="#DejaVuSans-2e" x="63.623047"/>
       <use xlink:href="#DejaVuSans-30" x="95.410156"/>
      </g>
     </g>
    </g>
    <g id="ytick_7">
     <g id="line2d_25">
      <path d="M 57.6 97.852623 
L 414.72 97.852623 
" clip-path="url(#pcc5dae0af3)" style="fill: none; stroke: #b0b0b0; stroke-width: 0.8; stroke-linecap: square"/>
     </g>
     <g id="line2d_26">
      <g>
       <use xlink:href="#m72981f20be" x="57.6" y="97.852623" style="stroke: #000000; stroke-width: 0.8"/>
      </g>
     </g>
     <g id="text_14">
      <!-- 1.5 -->
      <g transform="translate(34.696875 101.651842) scale(0.1 -0.1)">
       <use xlink:href="#DejaVuSans-31"/>
       <use xlink:href="#DejaVuSans-2e" x="63.623047"/>
       <use xlink:href="#DejaVuSans-35" x="95.410156"/>
      </g>
     </g>
    </g>
    <g id="ytick_8">
     <g id="line2d_27">
      <path d="M 57.6 65.29519 
L 414.72 65.29519 
" clip-path="url(#pcc5dae0af3)" style="fill: none; stroke: #b0b0b0; stroke-width: 0.8; stroke-linecap: square"/>
     </g>
     <g id="line2d_28">
      <g>
       <use xlink:href="#m72981f20be" x="57.6" y="65.29519" style="stroke: #000000; stroke-width: 0.8"/>
      </g>
     </g>
     <g id="text_15">
      <!-- 2.0 -->
      <g transform="translate(34.696875 69.094409) scale(0.1 -0.1)">
       <use xlink:href="#DejaVuSans-32"/>
       <use xlink:href="#DejaVuSans-2e" x="63.623047"/>
       <use xlink:href="#DejaVuSans-30" x="95.410156"/>
      </g>
     </g>
    </g>
    <g id="text_16">
     <!-- Fitness -->
     <g transform="translate(20.2375 191.845187) rotate(-90) scale(0.1 -0.1)">
      <defs>
       <path id="DejaVuSans-46" d="M 628 4666 
L 3309 4666 
L 3309 4134 
L 1259 4134 
L 1259 2759 
L 3109 2759 
L 3109 2228 
L 1259 2228 
L 1259 0 
L 628 0 
L 628 4666 
z
" transform="scale(0.015625)"/>
      </defs>
      <use xlink:href="#DejaVuSans-46"/>
      <use xlink:href="#DejaVuSans-69" x="50.269531"/>
      <use xlink:href="#DejaVuSans-74" x="78.052734"/>
      <use xlink:href="#DejaVuSans-6e" x="117.261719"/>
      <use xlink:href="#DejaVuSans-65" x="180.640625"/>
      <use xlink:href="#DejaVuSans-73" x="242.164062"/>
      <use xlink:href="#DejaVuSans-73" x="294.263672"/>
     </g>
    </g>
   </g>
   <g id="line2d_29">
    <path d="M 73.832727 259.554541 
L 77.112066 257.137785 
L 80.391405 258.197981 
L 83.670744 259.373666 
L 86.950083 259.644978 
L 90.229421 259.464104 
L 93.50876 259.735416 
L 96.788099 256.340489 
L 100.067438 259.464104 
L 103.346777 256.805066 
L 106.626116 253.634876 
L 109.905455 259.373666 
L 113.184793 259.735416 
L 116.464132 259.192792 
L 119.743471 257.926669 
L 123.02281 259.192792 
L 126.302149 258.378856 
L 129.581488 259.283229 
L 132.860826 256.49568 
L 136.140165 259.192792 
L 139.419504 257.112733 
L 142.698843 258.559731 
L 145.978182 252.986983 
L 149.257521 257.293608 
L 152.53686 257.022296 
L 155.816198 256.473342 
L 159.095537 256.238476 
L 162.374876 257.384045 
L 165.654215 259.011917 
L 168.933554 249.559409 
L 172.212893 239.938055 
L 175.492231 247.099966 
L 178.77157 223.079815 
L 182.050909 220.199477 
L 185.330248 208.195733 
L 188.609587 219.15357 
L 191.888926 220.049894 
L 195.168264 225.887261 
L 198.447603 213.025719 
L 201.726942 211.034741 
L 205.006281 218.029072 
L 208.28562 214.342576 
L 211.564959 207.096739 
L 214.844298 210.780793 
L 218.123636 179.287716 
L 221.402975 198.868209 
L 224.682314 194.550732 
L 227.961653 218.483158 
L 231.240992 207.228777 
L 234.520331 213.497711 
L 237.799669 209.333796 
L 241.079008 215.154522 
L 244.358347 189.849167 
L 247.637686 212.511944 
L 250.917025 187.62676 
L 254.196364 196.49233 
L 257.475702 212.266497 
L 260.755041 226.359887 
L 264.03438 220.470518 
L 267.313719 199.162583 
L 270.593058 225.129396 
L 273.872397 207.898917 
L 277.151736 209.149575 
L 280.431074 187.482603 
L 283.710413 216.534867 
L 286.989752 201.745291 
L 290.269091 206.834561 
L 293.54843 192.87529 
L 296.827769 196.288032 
L 300.107107 180.934128 
L 303.386446 203.326407 
L 306.665785 192.783134 
L 309.945124 184.372012 
L 313.224463 194.401058 
L 316.503802 218.87023 
L 319.78314 169.848412 
L 323.062479 201.258648 
L 326.341818 205.347952 
L 329.621157 207.176414 
L 332.900496 204.593705 
L 336.179835 196.375485 
L 339.459174 164.207837 
L 342.738512 196.03309 
L 346.017851 208.573851 
L 349.29719 205.883431 
L 352.576529 205.37029 
L 355.855868 217.243443 
L 359.135207 193.788887 
L 362.414545 183.129222 
L 365.693884 170.856608 
L 368.973223 199.791574 
L 372.252562 192.919604 
L 375.531901 191.644981 
L 378.81124 202.842929 
L 382.090579 181.528573 
L 385.369917 207.527039 
L 388.649256 193.104548 
L 391.928595 209.796745 
L 395.207934 195.968608 
L 398.487273 193.542718 
" clip-path="url(#pcc5dae0af3)" style="fill: none; stroke: #0000ff; stroke-width: 1.5; stroke-linecap: square"/>
   </g>
   <g id="line2d_30">
    <path d="M 73.832727 262.212844 
L 77.112066 275.24801 
L 80.391405 266.909588 
L 83.670744 261.950733 
L 86.950083 261.987636 
L 90.229421 262.401577 
L 93.50876 262.235153 
L 96.788099 278.886029 
L 100.067438 262.401577 
L 103.346777 279.970852 
L 106.626116 286.446744 
L 109.905455 262.373133 
L 113.184793 262.235153 
L 116.464132 262.109307 
L 119.743471 266.173838 
L 123.02281 261.899875 
L 126.302149 266.51168 
L 129.581488 262.340759 
L 132.860826 279.263239 
L 136.140165 262.662569 
L 139.419504 268.06984 
L 142.698843 266.595431 
L 145.978182 285.500794 
L 149.257521 268.199838 
L 152.53686 268.030416 
L 155.816198 277.883915 
L 159.095537 278.117746 
L 162.374876 261.988362 
L 165.654215 262.400602 
L 168.933554 288.677003 
L 172.212893 295.488 
L 175.492231 288.440783 
L 178.77157 292.042796 
L 182.050909 284.743828 
L 185.330248 279.770205 
L 188.609587 286.333022 
L 191.888926 287.927559 
L 195.168264 284.768349 
L 198.447603 282.524947 
L 201.726942 284.338965 
L 205.006281 285.311573 
L 208.28562 285.803129 
L 211.564959 280.310751 
L 214.844298 286.862828 
L 218.123636 264.16856 
L 221.402975 279.255088 
L 224.682314 275.656087 
L 227.961653 292.657941 
L 231.240992 287.577073 
L 234.520331 290.407973 
L 237.799669 286.990395 
L 241.079008 289.576618 
L 244.358347 274.567314 
L 247.637686 289.975647 
L 250.917025 273.559224 
L 254.196364 281.040263 
L 257.475702 285.976756 
L 260.755041 291.566595 
L 264.03438 285.715804 
L 267.313719 276.09226 
L 270.593058 290.827077 
L 273.872397 281.325514 
L 277.151736 284.934606 
L 280.431074 271.78012 
L 283.710413 288.631525 
L 286.989752 281.023619 
L 290.269091 285.734596 
L 293.54843 275.336497 
L 296.827769 279.872841 
L 300.107107 269.550058 
L 303.386446 282.288733 
L 306.665785 275.645148 
L 309.945124 274.933701 
L 313.224463 278.51806 
L 316.503802 291.422934 
L 319.78314 258.586023 
L 323.062479 282.412092 
L 326.341818 288.371272 
L 329.621157 288.211173 
L 332.900496 285.345795 
L 336.179835 278.293131 
L 339.459174 256.016164 
L 342.738512 282.34024 
L 346.017851 288.607291 
L 349.29719 283.462761 
L 352.576529 287.852594 
L 355.855868 291.226649 
L 359.135207 279.065417 
L 362.414545 270.962578 
L 365.693884 262.636117 
L 368.973223 283.200621 
L 372.252562 279.488928 
L 375.531901 277.67978 
L 378.81124 283.929415 
L 382.090579 269.927521 
L 385.369917 285.620646 
L 388.649256 278.890614 
L 391.928595 288.388139 
L 395.207934 278.437614 
L 398.487273 276.798875 
" clip-path="url(#pcc5dae0af3)" style="fill: none; stroke-dasharray: 9.6,2.4,1.5,2.4; stroke-dashoffset: 0; stroke: #008000; stroke-width: 1.5"/>
   </g>
   <g id="line2d_31">
    <path d="M 73.832727 256.896238 
L 77.112066 239.027559 
L 80.391405 249.486375 
L 83.670744 256.7966 
L 86.950083 257.30232 
L 90.229421 256.526631 
L 93.50876 257.235678 
L 96.788099 233.79495 
L 100.067438 256.526631 
L 103.346777 233.639279 
L 106.626116 220.823008 
L 109.905455 256.3742 
L 113.184793 257.235678 
L 116.464132 256.276276 
L 119.743471 249.6795 
L 123.02281 256.485708 
L 126.302149 250.246032 
L 129.581488 256.225699 
L 132.860826 233.728121 
L 136.140165 255.723015 
L 139.419504 246.155627 
L 142.698843 250.52403 
L 145.978182 220.473172 
L 149.257521 246.387378 
L 152.53686 246.014176 
L 155.816198 235.062769 
L 159.095537 234.359206 
L 162.374876 252.779729 
L 165.654215 255.623232 
L 168.933554 210.441815 
L 172.212893 184.388109 
L 175.492231 205.759149 
L 178.77157 154.116834 
L 182.050909 155.655126 
L 185.330248 136.62126 
L 188.609587 151.974118 
L 191.888926 152.172229 
L 195.168264 167.006173 
L 198.447603 143.52649 
L 201.726942 137.730517 
L 205.006281 150.746572 
L 208.28562 142.882023 
L 211.564959 133.882727 
L 214.844298 134.698758 
L 218.123636 94.406873 
L 221.402975 118.48133 
L 224.682314 113.445376 
L 227.961653 144.308375 
L 231.240992 126.880481 
L 234.520331 136.587448 
L 237.799669 131.677196 
L 241.079008 140.732426 
L 244.358347 105.13102 
L 247.637686 135.048241 
L 250.917025 101.694296 
L 254.196364 111.944397 
L 257.475702 138.556239 
L 260.755041 161.153178 
L 264.03438 155.225232 
L 267.313719 122.232905 
L 270.593058 159.431715 
L 273.872397 134.472321 
L 277.151736 133.364544 
L 280.431074 103.185087 
L 283.710413 144.438209 
L 286.989752 122.466964 
L 290.269091 127.934526 
L 293.54843 110.414083 
L 296.827769 112.703224 
L 300.107107 92.318197 
L 303.386446 124.364081 
L 306.665785 109.921121 
L 309.945124 93.810323 
L 313.224463 110.284057 
L 316.503802 146.317526 
L 319.78314 81.110801 
L 323.062479 120.105204 
L 326.341818 122.324632 
L 329.621157 126.141654 
L 332.900496 123.841615 
L 336.179835 114.457839 
L 339.459174 72.39951 
L 342.738512 109.725939 
L 346.017851 128.540412 
L 349.29719 128.304102 
L 352.576529 122.887987 
L 355.855868 143.260237 
L 359.135207 108.512358 
L 362.414545 95.295867 
L 365.693884 79.077098 
L 368.973223 116.382527 
L 372.252562 106.350281 
L 375.531901 105.610182 
L 378.81124 121.756442 
L 382.090579 93.129624 
L 385.369917 129.433433 
L 388.649256 107.318483 
L 391.928595 131.20535 
L 395.207934 113.499601 
L 398.487273 110.28656 
" clip-path="url(#pcc5dae0af3)" style="fill: none; stroke-dasharray: 9.6,2.4,1.5,2.4; stroke-dashoffset: 0; stroke: #008000; stroke-width: 1.5"/>
   </g>
   <g id="line2d_32">
    <path d="M 73.832727 247.616815 
L 77.112066 106.167793 
L 80.391405 189.013436 
L 83.670744 254.128302 
L 86.950083 254.128302 
L 90.229421 247.616815 
L 93.50876 247.616815 
L 96.788099 68.296982 
L 100.067438 247.616815 
L 103.346777 62.677576 
L 106.626116 55.619117 
L 109.905455 247.616815 
L 113.184793 247.616815 
L 116.464132 247.616815 
L 119.743471 195.524922 
L 123.02281 254.128302 
L 126.302149 195.524922 
L 129.581488 247.616815 
L 132.860826 66.447723 
L 136.140165 247.616815 
L 139.419504 195.524922 
L 142.698843 195.524922 
L 145.978182 63.771501 
L 149.257521 195.524922 
L 152.53686 195.524922 
L 155.816198 77.862359 
L 159.095537 73.975001 
L 162.374876 247.616815 
L 165.654215 247.616815 
L 168.933554 57.859075 
L 172.212893 59.669266 
L 175.492231 67.593741 
L 178.77157 56.009809 
L 182.050909 54.499142 
L 185.330248 57.266525 
L 188.609587 59.421828 
L 191.888926 56.166087 
L 195.168264 59.714847 
L 198.447603 57.780932 
L 201.726942 59.421828 
L 205.006281 56.491661 
L 208.28562 54.06939 
L 211.564959 60.222741 
L 214.844298 60.294372 
L 218.123636 60.958537 
L 221.402975 58.855327 
L 224.682314 57.917673 
L 227.961653 55.052625 
L 231.240992 55.287038 
L 234.520331 59.102766 
L 237.799669 54.915876 
L 241.079008 56.100969 
L 244.358347 58.406038 
L 247.637686 53.971717 
L 250.917025 57.305593 
L 254.196364 55.508427 
L 257.475702 56.08144 
L 260.755041 57.663729 
L 264.03438 61.186438 
L 267.313719 58.783705 
L 270.593058 61.53155 
L 273.872397 59.832049 
L 277.151736 54.616353 
L 280.431074 58.204179 
L 283.710413 57.507451 
L 286.989752 58.549291 
L 290.269091 60.157623 
L 293.54843 55.202383 
L 296.827769 56.778168 
L 300.107107 57.220945 
L 303.386446 59.806007 
L 306.665785 57.136297 
L 309.945124 55.593075 
L 313.224463 54.889834 
L 316.503802 55.892606 
L 319.78314 54.928901 
L 323.062479 55.521452 
L 326.341818 55.247963 
L 329.621157 56.765143 
L 332.900496 59.806007 
L 336.179835 58.204179 
L 339.459174 55.567032 
L 342.738512 55.62563 
L 346.017851 54.941927 
L 349.29719 54.818211 
L 352.576529 56.843278 
L 355.855868 57.702797 
L 359.135207 55.059129 
L 362.414545 53.568 
L 365.693884 54.303804 
L 368.973223 56.28329 
L 372.252562 55.007044 
L 375.531901 56.179105 
L 378.81124 55.56052 
L 382.090579 54.147525 
L 385.369917 57.650704 
L 388.649256 55.436796 
L 391.928595 54.453562 
L 395.207934 55.749353 
L 398.487273 55.990279 
" clip-path="url(#pcc5dae0af3)" style="fill: none; stroke: #ff0000; stroke-width: 1.5; stroke-linecap: square"/>
   </g>
   <g id="patch_3">
    <path d="M 57.6 307.584 
L 57.6 41.472 
" style="fill: none; stroke: #000000; stroke-width: 0.8; stroke-linejoin: miter; stroke-linecap: square"/>
   </g>
   <g id="patch_4">
    <path d="M 414.72 307.584 
L 414.72 41.472 
" style="fill: none; stroke: #000000; stroke-width: 0.8; stroke-linejoin: miter; stroke-linecap: square"/>
   </g>
   <g id="patch_5">
    <path d="M 57.6 307.584 
L 414.72 307.584 
" style="fill: none; stroke: #000000; stroke-width: 0.8; stroke-linejoin: miter; stroke-linecap: square"/>
   </g>
   <g id="patch_6">
    <path d="M 57.6 41.472 
L 414.72 41.472 
" style="fill: none; stroke: #000000; stroke-width: 0.8; stroke-linejoin: miter; stroke-linecap: square"/>
   </g>
   <g id="text_17">
    <!-- [ANN] - Population's average and best fitness -->
    <g transform="translate(99.7875 35.472) scale(0.12 -0.12)">
     <defs>
      <path id="DejaVuSans-5b" d="M 550 4863 
L 1875 4863 
L 1875 4416 
L 1125 4416 
L 1125 -397 
L 1875 -397 
L 1875 -844 
L 550 -844 
L 550 4863 
z
" transform="scale(0.015625)"/>
      <path id="DejaVuSans-41" d="M 2188 4044 
L 1331 1722 
L 3047 1722 
L 2188 4044 
z
M 1831 4666 
L 2547 4666 
L 4325 0 
L 3669 0 
L 3244 1197 
L 1141 1197 
L 716 0 
L 50 0 
L 1831 4666 
z
" transform="scale(0.015625)"/>
      <path id="DejaVuSans-4e" d="M 628 4666 
L 1478 4666 
L 3547 763 
L 3547 4666 
L 4159 4666 
L 4159 0 
L 3309 0 
L 1241 3903 
L 1241 0 
L 628 0 
L 628 4666 
z
" transform="scale(0.015625)"/>
      <path id="DejaVuSans-5d" d="M 1947 4863 
L 1947 -844 
L 622 -844 
L 622 -397 
L 1369 -397 
L 1369 4416 
L 622 4416 
L 622 4863 
L 1947 4863 
z
" transform="scale(0.015625)"/>
      <path id="DejaVuSans-20" transform="scale(0.015625)"/>
      <path id="DejaVuSans-2d" d="M 313 2009 
L 1997 2009 
L 1997 1497 
L 313 1497 
L 313 2009 
z
" transform="scale(0.015625)"/>
      <path id="DejaVuSans-50" d="M 1259 4147 
L 1259 2394 
L 2053 2394 
Q 2494 2394 2734 2622 
Q 2975 2850 2975 3272 
Q 2975 3691 2734 3919 
Q 2494 4147 2053 4147 
L 1259 4147 
z
M 628 4666 
L 2053 4666 
Q 2838 4666 3239 4311 
Q 3641 3956 3641 3272 
Q 3641 2581 3239 2228 
Q 2838 1875 2053 1875 
L 1259 1875 
L 1259 0 
L 628 0 
L 628 4666 
z
" transform="scale(0.015625)"/>
      <path id="DejaVuSans-70" d="M 1159 525 
L 1159 -1331 
L 581 -1331 
L 581 3500 
L 1159 3500 
L 1159 2969 
Q 1341 3281 1617 3432 
Q 1894 3584 2278 3584 
Q 2916 3584 3314 3078 
Q 3713 2572 3713 1747 
Q 3713 922 3314 415 
Q 2916 -91 2278 -91 
Q 1894 -91 1617 61 
Q 1341 213 1159 525 
z
M 3116 1747 
Q 3116 2381 2855 2742 
Q 2594 3103 2138 3103 
Q 1681 3103 1420 2742 
Q 1159 2381 1159 1747 
Q 1159 1113 1420 752 
Q 1681 391 2138 391 
Q 2594 391 2855 752 
Q 3116 1113 3116 1747 
z
" transform="scale(0.015625)"/>
      <path id="DejaVuSans-75" d="M 544 1381 
L 544 3500 
L 1119 3500 
L 1119 1403 
Q 1119 906 1312 657 
Q 1506 409 1894 409 
Q 2359 409 2629 706 
Q 2900 1003 2900 1516 
L 2900 3500 
L 3475 3500 
L 3475 0 
L 2900 0 
L 2900 538 
Q 2691 219 2414 64 
Q 2138 -91 1772 -91 
Q 1169 -91 856 284 
Q 544 659 544 1381 
z
M 1991 3584 
L 1991 3584 
z
" transform="scale(0.015625)"/>
      <path id="DejaVuSans-6c" d="M 603 4863 
L 1178 4863 
L 1178 0 
L 603 0 
L 603 4863 
z
" transform="scale(0.015625)"/>
      <path id="DejaVuSans-27" d="M 1147 4666 
L 1147 2931 
L 616 2931 
L 616 4666 
L 1147 4666 
z
" transform="scale(0.015625)"/>
      <path id="DejaVuSans-76" d="M 191 3500 
L 800 3500 
L 1894 563 
L 2988 3500 
L 3597 3500 
L 2284 0 
L 1503 0 
L 191 3500 
z
" transform="scale(0.015625)"/>
      <path id="DejaVuSans-67" d="M 2906 1791 
Q 2906 2416 2648 2759 
Q 2391 3103 1925 3103 
Q 1463 3103 1205 2759 
Q 947 2416 947 1791 
Q 947 1169 1205 825 
Q 1463 481 1925 481 
Q 2391 481 2648 825 
Q 2906 1169 2906 1791 
z
M 3481 434 
Q 3481 -459 3084 -895 
Q 2688 -1331 1869 -1331 
Q 1566 -1331 1297 -1286 
Q 1028 -1241 775 -1147 
L 775 -588 
Q 1028 -725 1275 -790 
Q 1522 -856 1778 -856 
Q 2344 -856 2625 -561 
Q 2906 -266 2906 331 
L 2906 616 
Q 2728 306 2450 153 
Q 2172 0 1784 0 
Q 1141 0 747 490 
Q 353 981 353 1791 
Q 353 2603 747 3093 
Q 1141 3584 1784 3584 
Q 2172 3584 2450 3431 
Q 2728 3278 2906 2969 
L 2906 3500 
L 3481 3500 
L 3481 434 
z
" transform="scale(0.015625)"/>
      <path id="DejaVuSans-64" d="M 2906 2969 
L 2906 4863 
L 3481 4863 
L 3481 0 
L 2906 0 
L 2906 525 
Q 2725 213 2448 61 
Q 2172 -91 1784 -91 
Q 1150 -91 751 415 
Q 353 922 353 1747 
Q 353 2572 751 3078 
Q 1150 3584 1784 3584 
Q 2172 3584 2448 3432 
Q 2725 3281 2906 2969 
z
M 947 1747 
Q 947 1113 1208 752 
Q 1469 391 1925 391 
Q 2381 391 2643 752 
Q 2906 1113 2906 1747 
Q 2906 2381 2643 2742 
Q 2381 3103 1925 3103 
Q 1469 3103 1208 2742 
Q 947 2381 947 1747 
z
" transform="scale(0.015625)"/>
      <path id="DejaVuSans-62" d="M 3116 1747 
Q 3116 2381 2855 2742 
Q 2594 3103 2138 3103 
Q 1681 3103 1420 2742 
Q 1159 2381 1159 1747 
Q 1159 1113 1420 752 
Q 1681 391 2138 391 
Q 2594 391 2855 752 
Q 3116 1113 3116 1747 
z
M 1159 2969 
Q 1341 3281 1617 3432 
Q 1894 3584 2278 3584 
Q 2916 3584 3314 3078 
Q 3713 2572 3713 1747 
Q 3713 922 3314 415 
Q 2916 -91 2278 -91 
Q 1894 -91 1617 61 
Q 1341 213 1159 525 
L 1159 0 
L 581 0 
L 581 4863 
L 1159 4863 
L 1159 2969 
z
" transform="scale(0.015625)"/>
      <path id="DejaVuSans-66" d="M 2375 4863 
L 2375 4384 
L 1825 4384 
Q 1516 4384 1395 4259 
Q 1275 4134 1275 3809 
L 1275 3500 
L 2222 3500 
L 2222 3053 
L 1275 3053 
L 1275 0 
L 697 0 
L 697 3053 
L 147 3053 
L 147 3500 
L 697 3500 
L 697 3744 
Q 697 4328 969 4595 
Q 1241 4863 1831 4863 
L 2375 4863 
z
" transform="scale(0.015625)"/>
     </defs>
     <use xlink:href="#DejaVuSans-5b"/>
     <use xlink:href="#DejaVuSans-41" x="39.013672"/>
     <use xlink:href="#DejaVuSans-4e" x="107.421875"/>
     <use xlink:href="#DejaVuSans-4e" x="182.226562"/>
     <use xlink:href="#DejaVuSans-5d" x="257.03125"/>
     <use xlink:href="#DejaVuSans-20" x="296.044922"/>
     <use xlink:href="#DejaVuSans-2d" x="327.832031"/>
     <use xlink:href="#DejaVuSans-20" x="363.916016"/>
     <use xlink:href="#DejaVuSans-50" x="395.703125"/>
     <use xlink:href="#DejaVuSans-6f" x="452.380859"/>
     <use xlink:href="#DejaVuSans-70" x="513.5625"/>
     <use xlink:href="#DejaVuSans-75" x="577.039062"/>
     <use xlink:href="#DejaVuSans-6c" x="640.417969"/>
     <use xlink:href="#DejaVuSans-61" x="668.201172"/>
     <use xlink:href="#DejaVuSans-74" x="729.480469"/>
     <use xlink:href="#DejaVuSans-69" x="768.689453"/>
     <use xlink:href="#DejaVuSans-6f" x="796.472656"/>
     <use xlink:href="#DejaVuSans-6e" x="857.654297"/>
     <use xlink:href="#DejaVuSans-27" x="921.033203"/>
     <use xlink:href="#DejaVuSans-73" x="948.523438"/>
     <use xlink:href="#DejaVuSans-20" x="1000.623047"/>
     <use xlink:href="#DejaVuSans-61" x="1032.410156"/>
     <use xlink:href="#DejaVuSans-76" x="1093.689453"/>
     <use xlink:href="#DejaVuSans-65" x="1152.869141"/>
     <use xlink:href="#DejaVuSans-72" x="1214.392578"/>
     <use xlink:href="#DejaVuSans-61" x="1255.505859"/>
     <use xlink:href="#DejaVuSans-67" x="1316.785156"/>
     <use xlink:href="#DejaVuSans-65" x="1380.261719"/>
     <use xlink:href="#DejaVuSans-20" x="1441.785156"/>
     <use xlink:href="#DejaVuSans-61" x="1473.572266"/>
     <use xlink:href="#DejaVuSans-6e" x="1534.851562"/>
     <use xlink:href="#DejaVuSans-64" x="1598.230469"/>
     <use xlink:href="#DejaVuSans-20" x="1661.707031"/>
     <use xlink:href="#DejaVuSans-62" x="1693.494141"/>
     <use xlink:href="#DejaVuSans-65" x="1756.970703"/>
     <use xlink:href="#DejaVuSans-73" x="1818.494141"/>
     <use xlink:href="#DejaVuSans-74" x="1870.59375"/>
     <use xlink:href="#DejaVuSans-20" x="1909.802734"/>
     <use xlink:href="#DejaVuSans-66" x="1941.589844"/>
     <use xlink:href="#DejaVuSans-69" x="1976.794922"/>
     <use xlink:href="#DejaVuSans-74" x="2004.578125"/>
     <use xlink:href="#DejaVuSans-6e" x="2043.787109"/>
     <use xlink:href="#DejaVuSans-65" x="2107.166016"/>
     <use xlink:href="#DejaVuSans-73" x="2168.689453"/>
     <use xlink:href="#DejaVuSans-73" x="2220.789062"/>
    </g>
   </g>
   <g id="legend_1">
    <g id="patch_7">
     <path d="M 64.6 205.38425 
L 137.540625 205.38425 
Q 139.540625 205.38425 139.540625 203.38425 
L 139.540625 145.67175 
Q 139.540625 143.67175 137.540625 143.67175 
L 64.6 143.67175 
Q 62.6 143.67175 62.6 145.67175 
L 62.6 203.38425 
Q 62.6 205.38425 64.6 205.38425 
z
" style="fill: #ffffff; opacity: 0.8; stroke: #cccccc; stroke-linejoin: miter"/>
    </g>
    <g id="line2d_33">
     <path d="M 66.6 151.770188 
L 76.6 151.770188 
L 86.6 151.770188 
" style="fill: none; stroke: #0000ff; stroke-width: 1.5; stroke-linecap: square"/>
    </g>
    <g id="text_18">
     <!-- average -->
     <g transform="translate(94.6 155.270188) scale(0.1 -0.1)">
      <use xlink:href="#DejaVuSans-61"/>
      <use xlink:href="#DejaVuSans-76" x="61.279297"/>
      <use xlink:href="#DejaVuSans-65" x="120.458984"/>
      <use xlink:href="#DejaVuSans-72" x="181.982422"/>
      <use xlink:href="#DejaVuSans-61" x="223.095703"/>
      <use xlink:href="#DejaVuSans-67" x="284.375"/>
      <use xlink:href="#DejaVuSans-65" x="347.851562"/>
     </g>
    </g>
    <g id="line2d_34">
     <path d="M 66.6 166.448313 
L 76.6 166.448313 
L 86.6 166.448313 
" style="fill: none; stroke-dasharray: 9.6,2.4,1.5,2.4; stroke-dashoffset: 0; stroke: #008000; stroke-width: 1.5"/>
    </g>
    <g id="text_19">
     <!-- -1 sd -->
     <g transform="translate(94.6 169.948313) scale(0.1 -0.1)">
      <use xlink:href="#DejaVuSans-2d"/>
      <use xlink:href="#DejaVuSans-31" x="36.083984"/>
      <use xlink:href="#DejaVuSans-20" x="99.707031"/>
      <use xlink:href="#DejaVuSans-73" x="131.494141"/>
      <use xlink:href="#DejaVuSans-64" x="183.59375"/>
     </g>
    </g>
    <g id="line2d_35">
     <path d="M 66.6 181.126438 
L 76.6 181.126438 
L 86.6 181.126438 
" style="fill: none; stroke-dasharray: 9.6,2.4,1.5,2.4; stroke-dashoffset: 0; stroke: #008000; stroke-width: 1.5"/>
    </g>
    <g id="text_20">
     <!-- +1 sd -->
     <g transform="translate(94.6 184.626438) scale(0.1 -0.1)">
      <defs>
       <path id="DejaVuSans-2b" d="M 2944 4013 
L 2944 2272 
L 4684 2272 
L 4684 1741 
L 2944 1741 
L 2944 0 
L 2419 0 
L 2419 1741 
L 678 1741 
L 678 2272 
L 2419 2272 
L 2419 4013 
L 2944 4013 
z
" transform="scale(0.015625)"/>
      </defs>
      <use xlink:href="#DejaVuSans-2b"/>
      <use xlink:href="#DejaVuSans-31" x="83.789062"/>
      <use xlink:href="#DejaVuSans-20" x="147.412109"/>
      <use xlink:href="#DejaVuSans-73" x="179.199219"/>
      <use xlink:href="#DejaVuSans-64" x="231.298828"/>
     </g>
    </g>
    <g id="line2d_36">
     <path d="M 66.6 195.804563 
L 76.6 195.804563 
L 86.6 195.804563 
" style="fill: none; stroke: #ff0000; stroke-width: 1.5; stroke-linecap: square"/>
    </g>
    <g id="text_21">
     <!-- best -->
     <g transform="translate(94.6 199.304563) scale(0.1 -0.1)">
      <use xlink:href="#DejaVuSans-62"/>
      <use xlink:href="#DejaVuSans-65" x="63.476562"/>
      <use xlink:href="#DejaVuSans-73" x="125"/>
      <use xlink:href="#DejaVuSans-74" x="177.099609"/>
     </g>
    </g>
   </g>
  </g>
 </g>
 <defs>
  <clipPath id="pcc5dae0af3">
   <rect x="57.6" y="41.472" width="357.12" height="266.112"/>
  </clipPath>
 </defs>
</svg>
