<?xml version="1.0" encoding="utf-8" standalone="no"?>
<!DOCTYPE svg PUBLIC "-//W3C//DTD SVG 1.1//EN"
  "http://www.w3.org/Graphics/SVG/1.1/DTD/svg11.dtd">
<svg xmlns:xlink="http://www.w3.org/1999/xlink" width="460.8pt" height="345.6pt" viewBox="0 0 460.8 345.6" xmlns="http://www.w3.org/2000/svg" version="1.1">
 <metadata>
  <rdf:RDF xmlns:dc="http://purl.org/dc/elements/1.1/" xmlns:cc="http://creativecommons.org/ns#" xmlns:rdf="http://www.w3.org/1999/02/22-rdf-syntax-ns#">
   <cc:Work>
    <dc:type rdf:resource="http://purl.org/dc/dcmitype/StillImage"/>
    <dc:date>2023-02-14T02:35:33.820512</dc:date>
    <dc:format>image/svg+xml</dc:format>
    <dc:creator>
     <cc:Agent>
      <dc:title>Matplotlib v3.6.3, https://matplotlib.org/</dc:title>
     </cc:Agent>
    </dc:creator>
   </cc:Work>
  </rdf:RDF>
 </metadata>
 <defs>
  <style type="text/css">*{stroke-linejoin: round; stroke-linecap: butt}</style>
 </defs>
 <g id="figure_1">
  <g id="patch_1">
   <path d="M 0 345.6 
L 460.8 345.6 
L 460.8 0 
L 0 0 
z
" style="fill: #ffffff"/>
  </g>
  <g id="axes_1">
   <g id="patch_2">
    <path d="M 57.6 307.584 
L 414.72 307.584 
L 414.72 41.472 
L 57.6 41.472 
z
" style="fill: #ffffff"/>
   </g>
   <g id="matplotlib.axis_1">
    <g id="xtick_1">
     <g id="line2d_1">
      <path d="M 73.832727 307.584 
L 73.832727 41.472 
" clip-path="url(#pefe007f6ca)" style="fill: none; stroke: #b0b0b0; stroke-width: 0.8; stroke-linecap: square"/>
     </g>
     <g id="line2d_2">
      <defs>
       <path id="m91a866d4de" d="M 0 0 
L 0 3.5 
" style="stroke: #000000; stroke-width: 0.8"/>
      </defs>
      <g>
       <use xlink:href="#m91a866d4de" x="73.832727" y="307.584" style="stroke: #000000; stroke-width: 0.8"/>
      </g>
     </g>
     <g id="text_1">
      <!-- 0 -->
      <g transform="translate(70.651477 322.182437) scale(0.1 -0.1)">
       <defs>
        <path id="DejaVuSans-30" d="M 2034 4250 
Q 1547 4250 1301 3770 
Q 1056 3291 1056 2328 
Q 1056 1369 1301 889 
Q 1547 409 2034 409 
Q 2525 409 2770 889 
Q 3016 1369 3016 2328 
Q 3016 3291 2770 3770 
Q 2525 4250 2034 4250 
z
M 2034 4750 
Q 2819 4750 3233 4129 
Q 3647 3509 3647 2328 
Q 3647 1150 3233 529 
Q 2819 -91 2034 -91 
Q 1250 -91 836 529 
Q 422 1150 422 2328 
Q 422 3509 836 4129 
Q 1250 4750 2034 4750 
z
" transform="scale(0.015625)"/>
       </defs>
       <use xlink:href="#DejaVuSans-30"/>
      </g>
     </g>
    </g>
    <g id="xtick_2">
     <g id="line2d_3">
      <path d="M 122.144416 307.584 
L 122.144416 41.472 
" clip-path="url(#pefe007f6ca)" style="fill: none; stroke: #b0b0b0; stroke-width: 0.8; stroke-linecap: square"/>
     </g>
     <g id="line2d_4">
      <g>
       <use xlink:href="#m91a866d4de" x="122.144416" y="307.584" style="stroke: #000000; stroke-width: 0.8"/>
      </g>
     </g>
     <g id="text_2">
      <!-- 50 -->
      <g transform="translate(115.781916 322.182437) scale(0.1 -0.1)">
       <defs>
        <path id="DejaVuSans-35" d="M 691 4666 
L 3169 4666 
L 3169 4134 
L 1269 4134 
L 1269 2991 
Q 1406 3038 1543 3061 
Q 1681 3084 1819 3084 
Q 2600 3084 3056 2656 
Q 3513 2228 3513 1497 
Q 3513 744 3044 326 
Q 2575 -91 1722 -91 
Q 1428 -91 1123 -41 
Q 819 9 494 109 
L 494 744 
Q 775 591 1075 516 
Q 1375 441 1709 441 
Q 2250 441 2565 725 
Q 2881 1009 2881 1497 
Q 2881 1984 2565 2268 
Q 2250 2553 1709 2553 
Q 1456 2553 1204 2497 
Q 953 2441 691 2322 
L 691 4666 
z
" transform="scale(0.015625)"/>
       </defs>
       <use xlink:href="#DejaVuSans-35"/>
       <use xlink:href="#DejaVuSans-30" x="63.623047"/>
      </g>
     </g>
    </g>
    <g id="xtick_3">
     <g id="line2d_5">
      <path d="M 170.456104 307.584 
L 170.456104 41.472 
" clip-path="url(#pefe007f6ca)" style="fill: none; stroke: #b0b0b0; stroke-width: 0.8; stroke-linecap: square"/>
     </g>
     <g id="line2d_6">
      <g>
       <use xlink:href="#m91a866d4de" x="170.456104" y="307.584" style="stroke: #000000; stroke-width: 0.8"/>
      </g>
     </g>
     <g id="text_3">
      <!-- 100 -->
      <g transform="translate(160.912354 322.182437) scale(0.1 -0.1)">
       <defs>
        <path id="DejaVuSans-31" d="M 794 531 
L 1825 531 
L 1825 4091 
L 703 3866 
L 703 4441 
L 1819 4666 
L 2450 4666 
L 2450 531 
L 3481 531 
L 3481 0 
L 794 0 
L 794 531 
z
" transform="scale(0.015625)"/>
       </defs>
       <use xlink:href="#DejaVuSans-31"/>
       <use xlink:href="#DejaVuSans-30" x="63.623047"/>
       <use xlink:href="#DejaVuSans-30" x="127.246094"/>
      </g>
     </g>
    </g>
    <g id="xtick_4">
     <g id="line2d_7">
      <path d="M 218.767792 307.584 
L 218.767792 41.472 
" clip-path="url(#pefe007f6ca)" style="fill: none; stroke: #b0b0b0; stroke-width: 0.8; stroke-linecap: square"/>
     </g>
     <g id="line2d_8">
      <g>
       <use xlink:href="#m91a866d4de" x="218.767792" y="307.584" style="stroke: #000000; stroke-width: 0.8"/>
      </g>
     </g>
     <g id="text_4">
      <!-- 150 -->
      <g transform="translate(209.224042 322.182437) scale(0.1 -0.1)">
       <use xlink:href="#DejaVuSans-31"/>
       <use xlink:href="#DejaVuSans-35" x="63.623047"/>
       <use xlink:href="#DejaVuSans-30" x="127.246094"/>
      </g>
     </g>
    </g>
    <g id="xtick_5">
     <g id="line2d_9">
      <path d="M 267.079481 307.584 
L 267.079481 41.472 
" clip-path="url(#pefe007f6ca)" style="fill: none; stroke: #b0b0b0; stroke-width: 0.8; stroke-linecap: square"/>
     </g>
     <g id="line2d_10">
      <g>
       <use xlink:href="#m91a866d4de" x="267.079481" y="307.584" style="stroke: #000000; stroke-width: 0.8"/>
      </g>
     </g>
     <g id="text_5">
      <!-- 200 -->
      <g transform="translate(257.535731 322.182437) scale(0.1 -0.1)">
       <defs>
        <path id="DejaVuSans-32" d="M 1228 531 
L 3431 531 
L 3431 0 
L 469 0 
L 469 531 
Q 828 903 1448 1529 
Q 2069 2156 2228 2338 
Q 2531 2678 2651 2914 
Q 2772 3150 2772 3378 
Q 2772 3750 2511 3984 
Q 2250 4219 1831 4219 
Q 1534 4219 1204 4116 
Q 875 4013 500 3803 
L 500 4441 
Q 881 4594 1212 4672 
Q 1544 4750 1819 4750 
Q 2544 4750 2975 4387 
Q 3406 4025 3406 3419 
Q 3406 3131 3298 2873 
Q 3191 2616 2906 2266 
Q 2828 2175 2409 1742 
Q 1991 1309 1228 531 
z
" transform="scale(0.015625)"/>
       </defs>
       <use xlink:href="#DejaVuSans-32"/>
       <use xlink:href="#DejaVuSans-30" x="63.623047"/>
       <use xlink:href="#DejaVuSans-30" x="127.246094"/>
      </g>
     </g>
    </g>
    <g id="xtick_6">
     <g id="line2d_11">
      <path d="M 315.391169 307.584 
L 315.391169 41.472 
" clip-path="url(#pefe007f6ca)" style="fill: none; stroke: #b0b0b0; stroke-width: 0.8; stroke-linecap: square"/>
     </g>
     <g id="line2d_12">
      <g>
       <use xlink:href="#m91a866d4de" x="315.391169" y="307.584" style="stroke: #000000; stroke-width: 0.8"/>
      </g>
     </g>
     <g id="text_6">
      <!-- 250 -->
      <g transform="translate(305.847419 322.182437) scale(0.1 -0.1)">
       <use xlink:href="#DejaVuSans-32"/>
       <use xlink:href="#DejaVuSans-35" x="63.623047"/>
       <use xlink:href="#DejaVuSans-30" x="127.246094"/>
      </g>
     </g>
    </g>
    <g id="xtick_7">
     <g id="line2d_13">
      <path d="M 363.702857 307.584 
L 363.702857 41.472 
" clip-path="url(#pefe007f6ca)" style="fill: none; stroke: #b0b0b0; stroke-width: 0.8; stroke-linecap: square"/>
     </g>
     <g id="line2d_14">
      <g>
       <use xlink:href="#m91a866d4de" x="363.702857" y="307.584" style="stroke: #000000; stroke-width: 0.8"/>
      </g>
     </g>
     <g id="text_7">
      <!-- 300 -->
      <g transform="translate(354.159107 322.182437) scale(0.1 -0.1)">
       <defs>
        <path id="DejaVuSans-33" d="M 2597 2516 
Q 3050 2419 3304 2112 
Q 3559 1806 3559 1356 
Q 3559 666 3084 287 
Q 2609 -91 1734 -91 
Q 1441 -91 1130 -33 
Q 819 25 488 141 
L 488 750 
Q 750 597 1062 519 
Q 1375 441 1716 441 
Q 2309 441 2620 675 
Q 2931 909 2931 1356 
Q 2931 1769 2642 2001 
Q 2353 2234 1838 2234 
L 1294 2234 
L 1294 2753 
L 1863 2753 
Q 2328 2753 2575 2939 
Q 2822 3125 2822 3475 
Q 2822 3834 2567 4026 
Q 2313 4219 1838 4219 
Q 1578 4219 1281 4162 
Q 984 4106 628 3988 
L 628 4550 
Q 988 4650 1302 4700 
Q 1616 4750 1894 4750 
Q 2613 4750 3031 4423 
Q 3450 4097 3450 3541 
Q 3450 3153 3228 2886 
Q 3006 2619 2597 2516 
z
" transform="scale(0.015625)"/>
       </defs>
       <use xlink:href="#DejaVuSans-33"/>
       <use xlink:href="#DejaVuSans-30" x="63.623047"/>
       <use xlink:href="#DejaVuSans-30" x="127.246094"/>
      </g>
     </g>
    </g>
    <g id="xtick_8">
     <g id="line2d_15">
      <path d="M 412.014545 307.584 
L 412.014545 41.472 
" clip-path="url(#pefe007f6ca)" style="fill: none; stroke: #b0b0b0; stroke-width: 0.8; stroke-linecap: square"/>
     </g>
     <g id="line2d_16">
      <g>
       <use xlink:href="#m91a866d4de" x="412.014545" y="307.584" style="stroke: #000000; stroke-width: 0.8"/>
      </g>
     </g>
     <g id="text_8">
      <!-- 350 -->
      <g transform="translate(402.470795 322.182437) scale(0.1 -0.1)">
       <use xlink:href="#DejaVuSans-33"/>
       <use xlink:href="#DejaVuSans-35" x="63.623047"/>
       <use xlink:href="#DejaVuSans-30" x="127.246094"/>
      </g>
     </g>
    </g>
    <g id="text_9">
     <!-- Generations -->
     <g transform="translate(205.662344 335.860562) scale(0.1 -0.1)">
      <defs>
       <path id="DejaVuSans-47" d="M 3809 666 
L 3809 1919 
L 2778 1919 
L 2778 2438 
L 4434 2438 
L 4434 434 
Q 4069 175 3628 42 
Q 3188 -91 2688 -91 
Q 1594 -91 976 548 
Q 359 1188 359 2328 
Q 359 3472 976 4111 
Q 1594 4750 2688 4750 
Q 3144 4750 3555 4637 
Q 3966 4525 4313 4306 
L 4313 3634 
Q 3963 3931 3569 4081 
Q 3175 4231 2741 4231 
Q 1884 4231 1454 3753 
Q 1025 3275 1025 2328 
Q 1025 1384 1454 906 
Q 1884 428 2741 428 
Q 3075 428 3337 486 
Q 3600 544 3809 666 
z
" transform="scale(0.015625)"/>
       <path id="DejaVuSans-65" d="M 3597 1894 
L 3597 1613 
L 953 1613 
Q 991 1019 1311 708 
Q 1631 397 2203 397 
Q 2534 397 2845 478 
Q 3156 559 3463 722 
L 3463 178 
Q 3153 47 2828 -22 
Q 2503 -91 2169 -91 
Q 1331 -91 842 396 
Q 353 884 353 1716 
Q 353 2575 817 3079 
Q 1281 3584 2069 3584 
Q 2775 3584 3186 3129 
Q 3597 2675 3597 1894 
z
M 3022 2063 
Q 3016 2534 2758 2815 
Q 2500 3097 2075 3097 
Q 1594 3097 1305 2825 
Q 1016 2553 972 2059 
L 3022 2063 
z
" transform="scale(0.015625)"/>
       <path id="DejaVuSans-6e" d="M 3513 2113 
L 3513 0 
L 2938 0 
L 2938 2094 
Q 2938 2591 2744 2837 
Q 2550 3084 2163 3084 
Q 1697 3084 1428 2787 
Q 1159 2491 1159 1978 
L 1159 0 
L 581 0 
L 581 3500 
L 1159 3500 
L 1159 2956 
Q 1366 3272 1645 3428 
Q 1925 3584 2291 3584 
Q 2894 3584 3203 3211 
Q 3513 2838 3513 2113 
z
" transform="scale(0.015625)"/>
       <path id="DejaVuSans-72" d="M 2631 2963 
Q 2534 3019 2420 3045 
Q 2306 3072 2169 3072 
Q 1681 3072 1420 2755 
Q 1159 2438 1159 1844 
L 1159 0 
L 581 0 
L 581 3500 
L 1159 3500 
L 1159 2956 
Q 1341 3275 1631 3429 
Q 1922 3584 2338 3584 
Q 2397 3584 2469 3576 
Q 2541 3569 2628 3553 
L 2631 2963 
z
" transform="scale(0.015625)"/>
       <path id="DejaVuSans-61" d="M 2194 1759 
Q 1497 1759 1228 1600 
Q 959 1441 959 1056 
Q 959 750 1161 570 
Q 1363 391 1709 391 
Q 2188 391 2477 730 
Q 2766 1069 2766 1631 
L 2766 1759 
L 2194 1759 
z
M 3341 1997 
L 3341 0 
L 2766 0 
L 2766 531 
Q 2569 213 2275 61 
Q 1981 -91 1556 -91 
Q 1019 -91 701 211 
Q 384 513 384 1019 
Q 384 1609 779 1909 
Q 1175 2209 1959 2209 
L 2766 2209 
L 2766 2266 
Q 2766 2663 2505 2880 
Q 2244 3097 1772 3097 
Q 1472 3097 1187 3025 
Q 903 2953 641 2809 
L 641 3341 
Q 956 3463 1253 3523 
Q 1550 3584 1831 3584 
Q 2591 3584 2966 3190 
Q 3341 2797 3341 1997 
z
" transform="scale(0.015625)"/>
       <path id="DejaVuSans-74" d="M 1172 4494 
L 1172 3500 
L 2356 3500 
L 2356 3053 
L 1172 3053 
L 1172 1153 
Q 1172 725 1289 603 
Q 1406 481 1766 481 
L 2356 481 
L 2356 0 
L 1766 0 
Q 1100 0 847 248 
Q 594 497 594 1153 
L 594 3053 
L 172 3053 
L 172 3500 
L 594 3500 
L 594 4494 
L 1172 4494 
z
" transform="scale(0.015625)"/>
       <path id="DejaVuSans-69" d="M 603 3500 
L 1178 3500 
L 1178 0 
L 603 0 
L 603 3500 
z
M 603 4863 
L 1178 4863 
L 1178 4134 
L 603 4134 
L 603 4863 
z
" transform="scale(0.015625)"/>
       <path id="DejaVuSans-6f" d="M 1959 3097 
Q 1497 3097 1228 2736 
Q 959 2375 959 1747 
Q 959 1119 1226 758 
Q 1494 397 1959 397 
Q 2419 397 2687 759 
Q 2956 1122 2956 1747 
Q 2956 2369 2687 2733 
Q 2419 3097 1959 3097 
z
M 1959 3584 
Q 2709 3584 3137 3096 
Q 3566 2609 3566 1747 
Q 3566 888 3137 398 
Q 2709 -91 1959 -91 
Q 1206 -91 779 398 
Q 353 888 353 1747 
Q 353 2609 779 3096 
Q 1206 3584 1959 3584 
z
" transform="scale(0.015625)"/>
       <path id="DejaVuSans-73" d="M 2834 3397 
L 2834 2853 
Q 2591 2978 2328 3040 
Q 2066 3103 1784 3103 
Q 1356 3103 1142 2972 
Q 928 2841 928 2578 
Q 928 2378 1081 2264 
Q 1234 2150 1697 2047 
L 1894 2003 
Q 2506 1872 2764 1633 
Q 3022 1394 3022 966 
Q 3022 478 2636 193 
Q 2250 -91 1575 -91 
Q 1294 -91 989 -36 
Q 684 19 347 128 
L 347 722 
Q 666 556 975 473 
Q 1284 391 1588 391 
Q 1994 391 2212 530 
Q 2431 669 2431 922 
Q 2431 1156 2273 1281 
Q 2116 1406 1581 1522 
L 1381 1569 
Q 847 1681 609 1914 
Q 372 2147 372 2553 
Q 372 3047 722 3315 
Q 1072 3584 1716 3584 
Q 2034 3584 2315 3537 
Q 2597 3491 2834 3397 
z
" transform="scale(0.015625)"/>
      </defs>
      <use xlink:href="#DejaVuSans-47"/>
      <use xlink:href="#DejaVuSans-65" x="77.490234"/>
      <use xlink:href="#DejaVuSans-6e" x="139.013672"/>
      <use xlink:href="#DejaVuSans-65" x="202.392578"/>
      <use xlink:href="#DejaVuSans-72" x="263.916016"/>
      <use xlink:href="#DejaVuSans-61" x="305.029297"/>
      <use xlink:href="#DejaVuSans-74" x="366.308594"/>
      <use xlink:href="#DejaVuSans-69" x="405.517578"/>
      <use xlink:href="#DejaVuSans-6f" x="433.300781"/>
      <use xlink:href="#DejaVuSans-6e" x="494.482422"/>
      <use xlink:href="#DejaVuSans-73" x="557.861328"/>
     </g>
    </g>
   </g>
   <g id="matplotlib.axis_2">
    <g id="ytick_1">
     <g id="line2d_17">
      <path d="M 57.6 273.774548 
L 414.72 273.774548 
" clip-path="url(#pefe007f6ca)" style="fill: none; stroke: #b0b0b0; stroke-width: 0.8; stroke-linecap: square"/>
     </g>
     <g id="line2d_18">
      <defs>
       <path id="m9ab325cc06" d="M 0 0 
L -3.5 0 
" style="stroke: #000000; stroke-width: 0.8"/>
      </defs>
      <g>
       <use xlink:href="#m9ab325cc06" x="57.6" y="273.774548" style="stroke: #000000; stroke-width: 0.8"/>
      </g>
     </g>
     <g id="text_10">
      <!-- −1.0 -->
      <g transform="translate(26.317187 277.573766) scale(0.1 -0.1)">
       <defs>
        <path id="DejaVuSans-2212" d="M 678 2272 
L 4684 2272 
L 4684 1741 
L 678 1741 
L 678 2272 
z
" transform="scale(0.015625)"/>
        <path id="DejaVuSans-2e" d="M 684 794 
L 1344 794 
L 1344 0 
L 684 0 
L 684 794 
z
" transform="scale(0.015625)"/>
       </defs>
       <use xlink:href="#DejaVuSans-2212"/>
       <use xlink:href="#DejaVuSans-31" x="83.789062"/>
       <use xlink:href="#DejaVuSans-2e" x="147.412109"/>
       <use xlink:href="#DejaVuSans-30" x="179.199219"/>
      </g>
     </g>
    </g>
    <g id="ytick_2">
     <g id="line2d_19">
      <path d="M 57.6 239.300557 
L 414.72 239.300557 
" clip-path="url(#pefe007f6ca)" style="fill: none; stroke: #b0b0b0; stroke-width: 0.8; stroke-linecap: square"/>
     </g>
     <g id="line2d_20">
      <g>
       <use xlink:href="#m9ab325cc06" x="57.6" y="239.300557" style="stroke: #000000; stroke-width: 0.8"/>
      </g>
     </g>
     <g id="text_11">
      <!-- −0.5 -->
      <g transform="translate(26.317187 243.099775) scale(0.1 -0.1)">
       <use xlink:href="#DejaVuSans-2212"/>
       <use xlink:href="#DejaVuSans-30" x="83.789062"/>
       <use xlink:href="#DejaVuSans-2e" x="147.412109"/>
       <use xlink:href="#DejaVuSans-35" x="179.199219"/>
      </g>
     </g>
    </g>
    <g id="ytick_3">
     <g id="line2d_21">
      <path d="M 57.6 204.826565 
L 414.72 204.826565 
" clip-path="url(#pefe007f6ca)" style="fill: none; stroke: #b0b0b0; stroke-width: 0.8; stroke-linecap: square"/>
     </g>
     <g id="line2d_22">
      <g>
       <use xlink:href="#m9ab325cc06" x="57.6" y="204.826565" style="stroke: #000000; stroke-width: 0.8"/>
      </g>
     </g>
     <g id="text_12">
      <!-- 0.0 -->
      <g transform="translate(34.696875 208.625784) scale(0.1 -0.1)">
       <use xlink:href="#DejaVuSans-30"/>
       <use xlink:href="#DejaVuSans-2e" x="63.623047"/>
       <use xlink:href="#DejaVuSans-30" x="95.410156"/>
      </g>
     </g>
    </g>
    <g id="ytick_4">
     <g id="line2d_23">
      <path d="M 57.6 170.352574 
L 414.72 170.352574 
" clip-path="url(#pefe007f6ca)" style="fill: none; stroke: #b0b0b0; stroke-width: 0.8; stroke-linecap: square"/>
     </g>
     <g id="line2d_24">
      <g>
       <use xlink:href="#m9ab325cc06" x="57.6" y="170.352574" style="stroke: #000000; stroke-width: 0.8"/>
      </g>
     </g>
     <g id="text_13">
      <!-- 0.5 -->
      <g transform="translate(34.696875 174.151793) scale(0.1 -0.1)">
       <use xlink:href="#DejaVuSans-30"/>
       <use xlink:href="#DejaVuSans-2e" x="63.623047"/>
       <use xlink:href="#DejaVuSans-35" x="95.410156"/>
      </g>
     </g>
    </g>
    <g id="ytick_5">
     <g id="line2d_25">
      <path d="M 57.6 135.878583 
L 414.72 135.878583 
" clip-path="url(#pefe007f6ca)" style="fill: none; stroke: #b0b0b0; stroke-width: 0.8; stroke-linecap: square"/>
     </g>
     <g id="line2d_26">
      <g>
       <use xlink:href="#m9ab325cc06" x="57.6" y="135.878583" style="stroke: #000000; stroke-width: 0.8"/>
      </g>
     </g>
     <g id="text_14">
      <!-- 1.0 -->
      <g transform="translate(34.696875 139.677802) scale(0.1 -0.1)">
       <use xlink:href="#DejaVuSans-31"/>
       <use xlink:href="#DejaVuSans-2e" x="63.623047"/>
       <use xlink:href="#DejaVuSans-30" x="95.410156"/>
      </g>
     </g>
    </g>
    <g id="ytick_6">
     <g id="line2d_27">
      <path d="M 57.6 101.404592 
L 414.72 101.404592 
" clip-path="url(#pefe007f6ca)" style="fill: none; stroke: #b0b0b0; stroke-width: 0.8; stroke-linecap: square"/>
     </g>
     <g id="line2d_28">
      <g>
       <use xlink:href="#m9ab325cc06" x="57.6" y="101.404592" style="stroke: #000000; stroke-width: 0.8"/>
      </g>
     </g>
     <g id="text_15">
      <!-- 1.5 -->
      <g transform="translate(34.696875 105.203811) scale(0.1 -0.1)">
       <use xlink:href="#DejaVuSans-31"/>
       <use xlink:href="#DejaVuSans-2e" x="63.623047"/>
       <use xlink:href="#DejaVuSans-35" x="95.410156"/>
      </g>
     </g>
    </g>
    <g id="ytick_7">
     <g id="line2d_29">
      <path d="M 57.6 66.930601 
L 414.72 66.930601 
" clip-path="url(#pefe007f6ca)" style="fill: none; stroke: #b0b0b0; stroke-width: 0.8; stroke-linecap: square"/>
     </g>
     <g id="line2d_30">
      <g>
       <use xlink:href="#m9ab325cc06" x="57.6" y="66.930601" style="stroke: #000000; stroke-width: 0.8"/>
      </g>
     </g>
     <g id="text_16">
      <!-- 2.0 -->
      <g transform="translate(34.696875 70.72982) scale(0.1 -0.1)">
       <use xlink:href="#DejaVuSans-32"/>
       <use xlink:href="#DejaVuSans-2e" x="63.623047"/>
       <use xlink:href="#DejaVuSans-30" x="95.410156"/>
      </g>
     </g>
    </g>
    <g id="text_17">
     <!-- Fitness -->
     <g transform="translate(20.2375 191.845187) rotate(-90) scale(0.1 -0.1)">
      <defs>
       <path id="DejaVuSans-46" d="M 628 4666 
L 3309 4666 
L 3309 4134 
L 1259 4134 
L 1259 2759 
L 3109 2759 
L 3109 2228 
L 1259 2228 
L 1259 0 
L 628 0 
L 628 4666 
z
" transform="scale(0.015625)"/>
      </defs>
      <use xlink:href="#DejaVuSans-46"/>
      <use xlink:href="#DejaVuSans-69" x="50.269531"/>
      <use xlink:href="#DejaVuSans-74" x="78.052734"/>
      <use xlink:href="#DejaVuSans-6e" x="117.261719"/>
      <use xlink:href="#DejaVuSans-65" x="180.640625"/>
      <use xlink:href="#DejaVuSans-73" x="242.164062"/>
      <use xlink:href="#DejaVuSans-73" x="294.263672"/>
     </g>
    </g>
   </g>
   <g id="line2d_31">
    <path d="M 73.832727 167.343952 
L 74.798961 190.789618 
L 75.765195 181.793343 
L 76.731429 182.48694 
L 77.697662 191.556185 
L 78.663896 176.275589 
L 79.63013 181.817571 
L 80.596364 181.270104 
L 81.562597 163.600172 
L 82.528831 180.078836 
L 83.495065 193.697499 
L 84.461299 168.711612 
L 85.427532 155.923868 
L 86.393766 184.270586 
L 87.36 172.620771 
L 88.326234 173.448243 
L 89.292468 165.328277 
L 90.258701 176.33994 
L 91.224935 162.36926 
L 92.191169 175.63533 
L 93.157403 203.024916 
L 94.123636 173.790397 
L 95.08987 187.451291 
L 96.056104 184.675177 
L 97.022338 177.66106 
L 97.988571 156.472005 
L 98.954805 193.801304 
L 99.921039 189.348031 
L 100.887273 178.132109 
L 101.853506 190.050247 
L 102.81974 185.501691 
L 104.752208 165.749722 
L 105.718442 159.465017 
L 106.684675 166.109017 
L 107.650909 162.221021 
L 108.617143 181.163139 
L 109.583377 167.539688 
L 110.54961 167.001702 
L 111.515844 178.17884 
L 112.482078 181.277286 
L 113.448312 173.931741 
L 114.414545 182.815401 
L 115.380779 178.579984 
L 116.347013 165.405748 
L 117.313247 178.500598 
L 118.279481 173.081765 
L 119.245714 168.933012 
L 120.211948 179.974935 
L 121.178182 180.747823 
L 122.144416 183.628412 
L 123.110649 193.950021 
L 125.043117 162.889721 
L 126.009351 198.414499 
L 126.975584 184.345855 
L 127.941818 187.840847 
L 128.908052 184.363091 
L 129.874286 178.917255 
L 130.840519 170.379483 
L 131.806753 189.275827 
L 133.739221 170.374504 
L 135.671688 187.499267 
L 136.637922 178.43864 
L 137.604156 188.707389 
L 138.57039 186.235891 
L 139.536623 179.140378 
L 140.502857 177.617968 
L 141.469091 190.672693 
L 142.435325 185.483496 
L 143.401558 166.348899 
L 144.367792 171.098362 
L 145.334026 198.551341 
L 146.30026 180.197293 
L 147.266494 182.214021 
L 148.232727 174.239325 
L 149.198961 182.776809 
L 150.165195 175.692213 
L 151.131429 185.735827 
L 152.097662 174.273512 
L 154.03013 183.184943 
L 154.996364 169.757228 
L 155.962597 186.450492 
L 156.928831 171.206763 
L 157.895065 157.733082 
L 158.861299 174.281651 
L 159.827532 163.371591 
L 160.793766 172.607939 
L 161.76 197.637493 
L 162.726234 181.888816 
L 163.692468 205.585089 
L 164.658701 175.506053 
L 165.624935 176.576949 
L 166.591169 179.217848 
L 167.557403 177.771377 
L 168.523636 164.545622 
L 169.48987 156.459747 
L 170.456104 171.558398 
L 171.422338 156.796539 
L 172.388571 205.543624 
L 173.354805 164.781098 
L 174.321039 164.479355 
L 175.287273 161.42946 
L 176.253506 174.339683 
L 177.21974 169.511026 
L 178.185974 159.788402 
L 179.152208 170.887878 
L 180.118442 175.889001 
L 181.084675 159.715337 
L 182.050909 174.375689 
L 183.017143 166.532952 
L 183.983377 166.201044 
L 184.94961 181.805409 
L 185.915844 156.709205 
L 186.882078 184.928082 
L 187.848312 181.460094 
L 188.814545 186.413911 
L 189.780779 178.366724 
L 190.747013 190.666086 
L 191.713247 169.227285 
L 192.679481 175.828671 
L 193.645714 162.556856 
L 194.611948 155.842471 
L 195.578182 154.803655 
L 196.544416 163.982451 
L 197.510649 166.850017 
L 198.476883 191.314293 
L 199.443117 186.810937 
L 200.409351 184.86306 
L 201.375584 199.05514 
L 202.341818 182.82354 
L 203.308052 178.516302 
L 204.274286 168.251001 
L 205.240519 164.10129 
L 206.206753 188.156763 
L 207.172987 164.4422 
L 208.139221 174.432571 
L 209.105455 167.591974 
L 210.071688 164.195998 
L 211.037922 162.007091 
L 212.004156 167.286495 
L 212.97039 182.168822 
L 213.936623 163.132858 
L 214.902857 175.901642 
L 215.869091 168.241425 
L 216.835325 179.945824 
L 217.801558 169.37131 
L 218.767792 179.236905 
L 219.734026 198.832879 
L 220.70026 185.59592 
L 221.666494 174.565392 
L 222.632727 180.554003 
L 223.598961 193.468726 
L 224.565195 176.159622 
L 225.531429 175.397555 
L 226.497662 183.164067 
L 227.463896 157.002042 
L 228.43013 164.359079 
L 229.396364 177.297647 
L 230.362597 175.629106 
L 231.328831 160.253897 
L 232.295065 171.20954 
L 233.261299 147.904644 
L 234.227532 155.214374 
L 235.193766 152.733587 
L 236.16 178.927596 
L 237.126234 154.944615 
L 238.092468 174.699361 
L 239.058701 158.878098 
L 240.024935 181.930185 
L 240.991169 155.549921 
L 241.957403 179.488373 
L 242.923636 187.177893 
L 243.88987 169.202292 
L 244.856104 176.902058 
L 245.822338 171.605033 
L 246.788571 164.879732 
L 247.754805 192.071572 
L 248.721039 172.056643 
L 249.687273 191.757092 
L 250.653506 181.170034 
L 251.61974 183.914451 
L 252.585974 166.591366 
L 253.552208 162.90849 
L 254.518442 176.230198 
L 255.484675 183.3689 
L 256.450909 167.684958 
L 257.417143 169.719497 
L 258.383377 158.980658 
L 259.34961 177.000405 
L 261.282078 152.902701 
L 262.248312 169.418712 
L 263.214545 165.315924 
L 264.180779 173.663801 
L 265.147013 176.64561 
L 266.113247 151.274189 
L 267.079481 172.328413 
L 268.045714 148.982147 
L 269.011948 178.721997 
L 269.978182 177.253119 
L 270.944416 185.827374 
L 271.910649 172.867643 
L 272.876883 190.590722 
L 273.843117 172.853662 
L 274.809351 196.672126 
L 275.775584 162.935016 
L 276.741818 193.79709 
L 277.708052 179.757462 
L 278.674286 172.995485 
L 279.640519 181.521477 
L 280.606753 176.464525 
L 281.572987 174.843638 
L 282.539221 185.763214 
L 283.505455 173.261796 
L 284.471688 187.83816 
L 285.437922 175.768107 
L 286.404156 169.245289 
L 287.37039 194.861188 
L 288.336623 189.427033 
L 289.302857 182.696849 
L 290.269091 177.247276 
L 291.235325 185.924763 
L 292.201558 207.036731 
L 293.167792 211.786194 
L 294.134026 199.352766 
L 295.10026 183.491282 
L 296.066494 190.334657 
L 297.032727 206.794168 
L 297.998961 195.194532 
L 298.965195 205.052657 
L 299.931429 197.37281 
L 300.897662 207.597221 
L 301.863896 199.392219 
L 302.83013 198.080484 
L 304.762597 186.370723 
L 305.728831 184.3855 
L 306.695065 190.896296 
L 307.661299 187.499842 
L 308.627532 198.396879 
L 309.593766 196.794891 
L 310.56 205.669263 
L 311.526234 200.354906 
L 312.492468 212.266819 
L 313.458701 209.52221 
L 315.391169 186.787858 
L 316.357403 181.117365 
L 317.323636 222.665419 
L 318.28987 188.464922 
L 319.256104 186.820991 
L 320.222338 193.401502 
L 321.188571 178.441608 
L 322.154805 187.476571 
L 323.121039 175.432125 
L 324.087273 196.15559 
L 325.053506 202.539408 
L 326.01974 179.795383 
L 326.985974 171.572283 
L 327.952208 191.765806 
L 328.918442 163.59031 
L 329.884675 171.232714 
L 330.850909 209.36746 
L 331.817143 211.135018 
L 332.783377 179.551001 
L 333.74961 183.885244 
L 334.715844 205.897557 
L 335.682078 180.899221 
L 336.648312 196.778708 
L 337.614545 208.323377 
L 338.580779 195.350527 
L 339.547013 191.718022 
L 342.445714 164.496496 
L 343.411948 165.468854 
L 344.378182 182.508104 
L 345.344416 174.856218 
L 346.310649 168.33891 
L 347.276883 180.829411 
L 348.243117 188.503226 
L 349.209351 213.921379 
L 350.175584 197.072503 
L 351.141818 189.044946 
L 352.108052 189.823293 
L 353.074286 209.774445 
L 354.040519 191.715148 
L 355.006753 204.698341 
L 355.972987 205.267066 
L 356.939221 201.152883 
L 357.905455 177.667189 
L 358.871688 194.556093 
L 359.837922 184.517554 
L 360.804156 188.8743 
L 361.77039 187.739244 
L 362.736623 187.177318 
L 363.702857 169.936396 
L 364.669091 188.116447 
L 365.635325 197.38976 
L 366.601558 187.872927 
L 367.567792 204.62652 
L 368.534026 179.177533 
L 369.50026 176.053615 
L 370.466494 193.855218 
L 371.432727 172.120037 
L 372.398961 193.13586 
L 373.365195 188.693025 
L 374.331429 193.774683 
L 375.297662 183.403087 
L 376.263896 176.952524 
L 377.23013 185.190275 
L 378.196364 186.900952 
L 379.162597 178.347667 
L 380.128831 181.987929 
L 381.095065 188.91452 
L 382.061299 160.793415 
L 383.027532 174.514446 
L 383.993766 191.478523 
L 384.96 173.88319 
L 385.926234 209.277445 
L 386.892468 167.378523 
L 387.858701 195.460174 
L 388.824935 185.751531 
L 389.791169 169.361543 
L 390.757403 176.736391 
L 391.723636 169.549905 
L 392.68987 192.853557 
L 393.656104 201.517924 
L 394.622338 186.646993 
L 395.588571 190.373919 
L 396.554805 199.708327 
L 397.521039 189.108915 
L 398.487273 200.71152 
L 398.487273 200.71152 
" clip-path="url(#pefe007f6ca)" style="fill: none; stroke: #0000ff; stroke-width: 1.5; stroke-linecap: square"/>
   </g>
   <g id="line2d_32">
    <path d="M 73.832727 258.603323 
L 74.798961 277.174333 
L 75.765195 272.118401 
L 76.731429 273.036639 
L 77.697662 281.578696 
L 78.663896 267.267524 
L 79.63013 275.77602 
L 80.596364 273.758204 
L 81.562597 251.693661 
L 83.495065 284.790744 
L 84.461299 259.884045 
L 85.427532 247.838808 
L 86.393766 272.075235 
L 87.36 260.038376 
L 88.326234 264.228524 
L 89.292468 260.626658 
L 90.258701 271.485866 
L 91.224935 254.19062 
L 92.191169 267.596776 
L 93.157403 287.428392 
L 94.123636 263.416741 
L 95.08987 275.871904 
L 96.056104 273.864527 
L 97.022338 268.526003 
L 97.988571 247.460023 
L 98.954805 284.32265 
L 100.887273 268.995976 
L 101.853506 282.388651 
L 103.785974 265.61875 
L 105.718442 250.206667 
L 106.684675 255.248185 
L 107.650909 256.754654 
L 108.617143 272.472662 
L 109.583377 261.103941 
L 110.54961 260.250925 
L 111.515844 270.508818 
L 112.482078 269.700725 
L 113.448312 265.936967 
L 114.414545 272.534501 
L 115.380779 272.592934 
L 116.347013 255.171323 
L 117.313247 270.454261 
L 118.279481 265.731253 
L 119.245714 262.347113 
L 120.211948 269.121953 
L 121.178182 270.639524 
L 122.144416 276.241018 
L 123.110649 283.916569 
L 124.076883 269.33059 
L 125.043117 252.21865 
L 126.009351 282.4664 
L 126.975584 273.059974 
L 127.941818 280.346006 
L 128.908052 273.897759 
L 129.874286 274.416213 
L 130.840519 265.168769 
L 131.806753 281.338216 
L 132.772987 270.650036 
L 133.739221 261.799463 
L 134.705455 269.006493 
L 135.671688 279.812664 
L 136.637922 270.696142 
L 137.604156 280.549662 
L 139.536623 269.838907 
L 140.502857 269.77697 
L 141.469091 281.242873 
L 142.435325 276.482092 
L 143.401558 253.908403 
L 144.367792 262.513439 
L 145.334026 284.042793 
L 146.30026 273.637824 
L 147.266494 264.673397 
L 148.232727 266.26675 
L 149.198961 272.518132 
L 150.165195 268.857853 
L 151.131429 277.668481 
L 152.097662 262.736836 
L 153.063896 271.362135 
L 154.03013 271.544004 
L 154.996364 262.853207 
L 155.962597 277.78279 
L 156.928831 260.829943 
L 157.895065 250.336728 
L 158.861299 264.779201 
L 159.827532 252.143974 
L 160.793766 260.529144 
L 161.76 286.432167 
L 162.726234 273.975105 
L 163.692468 289.795608 
L 164.658701 265.393686 
L 165.624935 268.870719 
L 166.591169 269.568639 
L 167.557403 269.674447 
L 168.523636 258.443216 
L 169.48987 249.894088 
L 170.456104 262.69457 
L 171.422338 248.881239 
L 172.388571 286.350445 
L 173.354805 256.594146 
L 174.321039 255.402424 
L 175.287273 252.759081 
L 176.253506 265.846749 
L 177.21974 260.345696 
L 178.185974 249.222148 
L 179.152208 262.112573 
L 180.118442 267.167284 
L 181.084675 253.609272 
L 182.050909 262.342225 
L 183.017143 260.608961 
L 183.983377 260.879184 
L 184.94961 272.716568 
L 185.915844 245.155832 
L 186.882078 276.59001 
L 187.848312 272.95841 
L 188.814545 278.455015 
L 189.780779 271.945115 
L 190.747013 281.979568 
L 191.713247 260.766265 
L 192.679481 268.267519 
L 193.645714 253.756027 
L 194.611948 248.961164 
L 195.578182 247.088711 
L 196.544416 253.920045 
L 197.510649 259.074626 
L 198.476883 281.240998 
L 199.443117 274.779669 
L 200.409351 275.74492 
L 201.375584 287.784032 
L 202.341818 273.017414 
L 203.308052 270.85211 
L 204.274286 258.834601 
L 205.240519 255.111709 
L 206.206753 278.141558 
L 207.172987 256.269029 
L 208.139221 268.345968 
L 209.105455 259.491285 
L 210.071688 253.401924 
L 211.037922 251.557437 
L 212.004156 256.476782 
L 212.97039 272.15859 
L 213.936623 254.512104 
L 214.902857 266.058704 
L 215.869091 257.298988 
L 216.835325 271.334256 
L 217.801558 257.942602 
L 218.767792 265.858524 
L 219.734026 283.375591 
L 220.70026 277.582224 
L 221.666494 264.965007 
L 222.632727 269.405989 
L 223.598961 279.200922 
L 224.565195 268.052861 
L 225.531429 264.758819 
L 226.497662 271.143917 
L 227.463896 246.442384 
L 229.396364 269.759761 
L 230.362597 265.549486 
L 231.328831 252.166506 
L 232.295065 265.92517 
L 233.261299 242.241287 
L 234.227532 248.186953 
L 235.193766 246.296636 
L 236.16 270.906068 
L 237.126234 244.23902 
L 238.092468 267.767283 
L 239.058701 249.295754 
L 240.024935 274.507054 
L 240.991169 245.327499 
L 241.957403 274.495066 
L 242.923636 279.140121 
L 243.88987 256.151436 
L 244.856104 266.961815 
L 245.822338 263.63827 
L 246.788571 257.765446 
L 247.754805 277.032229 
L 248.721039 264.210168 
L 249.687273 278.689757 
L 250.653506 270.450877 
L 251.61974 274.545909 
L 252.585974 258.934767 
L 253.552208 256.294482 
L 255.484675 277.707863 
L 256.450909 255.778905 
L 257.417143 261.993722 
L 258.383377 248.805241 
L 259.34961 268.716338 
L 260.315844 258.191888 
L 261.282078 240.583311 
L 262.248312 261.903029 
L 263.214545 257.677076 
L 264.180779 266.919174 
L 265.147013 267.318542 
L 266.113247 240.148519 
L 267.079481 264.043274 
L 268.045714 235.262262 
L 269.011948 269.115805 
L 269.978182 266.604561 
L 270.944416 275.786633 
L 271.910649 265.710556 
L 272.876883 277.481168 
L 273.843117 260.194608 
L 274.809351 283.171919 
L 275.775584 253.593796 
L 276.741818 278.888803 
L 277.708052 270.116971 
L 278.674286 262.771131 
L 279.640519 268.398826 
L 280.606753 266.1817 
L 281.572987 266.425364 
L 282.539221 274.751343 
L 283.505455 262.144037 
L 284.471688 273.184213 
L 285.437922 261.693341 
L 286.404156 257.795999 
L 287.37039 283.169718 
L 289.302857 270.970141 
L 290.269091 267.779297 
L 291.235325 272.651234 
L 292.201558 287.89449 
L 293.167792 295.085235 
L 294.134026 286.931764 
L 295.10026 274.108421 
L 296.066494 274.547055 
L 297.032727 290.862603 
L 297.998961 284.860583 
L 298.965195 291.598906 
L 299.931429 284.532037 
L 300.897662 288.042155 
L 301.863896 288.917693 
L 302.83013 284.420281 
L 303.796364 277.305264 
L 304.762597 276.970565 
L 305.728831 274.06297 
L 306.695065 280.536665 
L 307.661299 273.333723 
L 308.627532 283.221924 
L 309.593766 280.591808 
L 310.56 290.209954 
L 311.526234 285.473497 
L 312.492468 291.931895 
L 313.458701 288.980147 
L 314.424935 287.218919 
L 315.391169 266.450334 
L 316.357403 268.629933 
L 317.323636 294.876199 
L 318.28987 277.497259 
L 320.222338 281.972887 
L 321.188571 270.450085 
L 322.154805 273.185383 
L 323.121039 266.862187 
L 324.087273 282.483587 
L 325.053506 287.519864 
L 326.01974 267.000882 
L 326.985974 259.623583 
L 327.952208 279.814479 
L 328.918442 258.924374 
L 329.884675 261.779372 
L 330.850909 289.320079 
L 331.817143 290.860931 
L 332.783377 270.60119 
L 333.74961 272.611877 
L 334.715844 289.762967 
L 335.682078 262.740866 
L 336.648312 288.041797 
L 337.614545 290.082916 
L 338.580779 281.630673 
L 339.547013 280.928206 
L 340.513247 270.71221 
L 341.479481 262.342917 
L 342.445714 256.856396 
L 343.411948 257.490542 
L 344.378182 271.916386 
L 346.310649 259.970694 
L 347.276883 270.942029 
L 348.243117 277.513376 
L 349.209351 295.488 
L 350.175584 284.253586 
L 351.141818 278.516925 
L 352.108052 276.914967 
L 353.074286 288.18926 
L 354.040519 279.265278 
L 355.006753 287.572544 
L 355.972987 284.604722 
L 356.939221 285.333856 
L 357.905455 267.890992 
L 358.871688 283.152748 
L 359.837922 272.302152 
L 360.804156 279.081806 
L 361.77039 279.628163 
L 362.736623 279.409519 
L 363.702857 262.116841 
L 364.669091 276.592054 
L 365.635325 286.583156 
L 366.601558 278.735866 
L 367.567792 290.798632 
L 368.534026 268.445071 
L 369.50026 263.92272 
L 370.466494 280.022525 
L 371.432727 256.877304 
L 372.398961 279.994836 
L 373.365195 272.688927 
L 374.331429 279.085004 
L 375.297662 271.109622 
L 376.263896 269.421193 
L 377.23013 274.37736 
L 378.196364 274.812322 
L 379.162597 268.642784 
L 380.128831 271.934057 
L 381.095065 279.310871 
L 382.061299 252.715111 
L 383.027532 266.15735 
L 383.993766 277.619032 
L 384.96 265.258673 
L 385.926234 292.025693 
L 386.892468 256.156863 
L 387.858701 282.056269 
L 388.824935 275.167436 
L 389.791169 258.306013 
L 390.757403 266.359668 
L 391.723636 259.397152 
L 392.68987 279.461723 
L 393.656104 284.758289 
L 394.622338 272.835771 
L 395.588571 276.764295 
L 396.554805 285.40598 
L 397.521039 276.077495 
L 398.487273 285.180533 
L 398.487273 285.180533 
" clip-path="url(#pefe007f6ca)" style="fill: none; stroke-dasharray: 9.6,2.4,1.5,2.4; stroke-dashoffset: 0; stroke: #008000; stroke-width: 1.5"/>
   </g>
   <g id="line2d_33">
    <path d="M 73.832727 76.084581 
L 74.798961 104.404903 
L 75.765195 91.468284 
L 76.731429 91.937241 
L 77.697662 101.533675 
L 78.663896 85.283654 
L 79.63013 87.859121 
L 80.596364 88.782004 
L 81.562597 75.506684 
L 82.528831 91.10744 
L 83.495065 102.604255 
L 84.461299 77.539179 
L 85.427532 64.008928 
L 86.393766 96.465936 
L 87.36 85.203166 
L 88.326234 82.667962 
L 89.292468 70.029897 
L 90.258701 81.194014 
L 91.224935 70.547899 
L 92.191169 83.673885 
L 93.157403 118.62144 
L 94.123636 84.164053 
L 95.08987 99.030678 
L 96.056104 95.485827 
L 97.022338 86.796117 
L 97.988571 65.483986 
L 98.954805 103.279959 
L 99.921039 102.057332 
L 100.887273 87.268242 
L 101.853506 97.711843 
L 102.81974 97.06859 
L 103.785974 85.880588 
L 104.752208 73.395498 
L 105.718442 68.723368 
L 106.684675 76.969849 
L 107.650909 67.687389 
L 108.617143 89.853615 
L 109.583377 73.975435 
L 110.54961 73.752479 
L 111.515844 85.848863 
L 112.482078 92.853847 
L 113.448312 81.926515 
L 114.414545 93.096301 
L 116.347013 75.640173 
L 117.313247 86.546935 
L 118.279481 80.432278 
L 119.245714 75.518911 
L 120.211948 90.827917 
L 121.178182 90.856122 
L 122.144416 91.015806 
L 123.110649 103.983473 
L 124.076883 86.398706 
L 125.043117 73.560792 
L 126.009351 114.362597 
L 126.975584 95.631735 
L 127.941818 95.335687 
L 128.908052 94.828424 
L 129.874286 83.418296 
L 130.840519 75.590198 
L 131.806753 97.213438 
L 132.772987 88.608631 
L 133.739221 78.949544 
L 134.705455 88.203653 
L 135.671688 95.18587 
L 136.637922 86.181139 
L 137.604156 96.865117 
L 138.57039 97.543481 
L 139.536623 88.441849 
L 140.502857 85.458966 
L 141.469091 100.102514 
L 142.435325 94.484901 
L 143.401558 78.789394 
L 144.367792 79.683284 
L 145.334026 113.059889 
L 146.30026 86.756761 
L 147.266494 99.754646 
L 148.232727 82.2119 
L 149.198961 93.035487 
L 150.165195 82.526572 
L 151.131429 93.803173 
L 152.097662 85.810187 
L 153.063896 85.637145 
L 154.03013 94.825881 
L 154.996364 76.661248 
L 155.962597 95.118193 
L 156.928831 81.583583 
L 157.895065 65.129436 
L 158.861299 83.784102 
L 159.827532 74.599208 
L 160.793766 84.686735 
L 161.76 108.842819 
L 162.726234 89.802527 
L 163.692468 121.37457 
L 164.658701 85.61842 
L 165.624935 84.28318 
L 166.591169 88.867057 
L 167.557403 85.868308 
L 168.523636 70.648028 
L 169.48987 63.025406 
L 170.456104 80.422226 
L 171.422338 64.711839 
L 172.388571 124.736804 
L 173.354805 72.96805 
L 174.321039 73.556286 
L 175.287273 70.099839 
L 176.253506 82.832617 
L 177.21974 78.676356 
L 178.185974 70.354657 
L 179.152208 79.663183 
L 180.118442 84.610719 
L 181.084675 65.821401 
L 182.050909 86.409152 
L 183.017143 72.456943 
L 183.983377 71.522904 
L 184.94961 90.894249 
L 185.915844 68.262578 
L 186.882078 93.266153 
L 187.848312 89.961778 
L 188.814545 94.372807 
L 189.780779 84.788333 
L 190.747013 99.352604 
L 191.713247 77.688306 
L 192.679481 83.389824 
L 193.645714 71.357684 
L 194.611948 62.723779 
L 195.578182 62.518599 
L 196.544416 74.044858 
L 197.510649 74.625408 
L 198.476883 101.387588 
L 199.443117 98.842205 
L 200.409351 93.981199 
L 201.375584 110.326249 
L 202.341818 92.629667 
L 203.308052 86.180495 
L 204.274286 77.667401 
L 205.240519 73.090872 
L 206.206753 98.171967 
L 207.172987 72.615371 
L 208.139221 80.519174 
L 209.105455 75.692663 
L 210.071688 74.990073 
L 211.037922 72.456746 
L 212.004156 78.096209 
L 212.97039 92.179053 
L 213.936623 71.753612 
L 214.902857 85.744579 
L 215.869091 79.183863 
L 216.835325 88.557392 
L 217.801558 80.800018 
L 218.767792 92.615285 
L 219.734026 114.290167 
L 220.70026 93.609615 
L 221.666494 84.165777 
L 222.632727 91.702017 
L 223.598961 107.736529 
L 224.565195 84.266383 
L 225.531429 86.036292 
L 226.497662 95.184217 
L 227.463896 67.5617 
L 228.43013 70.719093 
L 229.396364 84.835533 
L 230.362597 85.708726 
L 231.328831 68.341288 
L 232.295065 76.493909 
L 233.261299 53.568 
L 234.227532 62.241796 
L 235.193766 59.170539 
L 236.16 86.949125 
L 237.126234 65.650211 
L 238.092468 81.63144 
L 239.058701 68.460441 
L 240.024935 89.353316 
L 240.991169 65.772343 
L 241.957403 84.48168 
L 242.923636 95.215664 
L 243.88987 82.253148 
L 244.856104 86.842301 
L 246.788571 71.994019 
L 247.754805 107.110914 
L 248.721039 79.903117 
L 249.687273 104.824428 
L 250.653506 91.88919 
L 251.61974 93.282992 
L 252.585974 74.247965 
L 253.552208 69.522498 
L 254.518442 85.692161 
L 255.484675 89.029936 
L 256.450909 79.59101 
L 257.417143 77.445273 
L 258.383377 69.156075 
L 259.34961 85.284472 
L 260.315844 71.837624 
L 261.282078 65.222092 
L 262.248312 76.934396 
L 263.214545 72.954772 
L 264.180779 80.408428 
L 265.147013 85.972677 
L 266.113247 62.399858 
L 267.079481 80.613551 
L 268.045714 62.702033 
L 269.011948 88.32819 
L 269.978182 87.901676 
L 270.944416 95.868114 
L 271.910649 80.02473 
L 272.876883 103.700276 
L 273.843117 85.512716 
L 274.809351 110.172333 
L 275.775584 72.276237 
L 276.741818 108.705377 
L 277.708052 89.397954 
L 278.674286 83.219839 
L 279.640519 94.644128 
L 280.606753 86.747351 
L 281.572987 83.261912 
L 282.539221 96.775086 
L 283.505455 84.379555 
L 284.471688 102.492107 
L 285.437922 89.842874 
L 286.404156 80.694578 
L 287.37039 106.552658 
L 288.336623 101.807139 
L 290.269091 86.715256 
L 291.235325 99.198292 
L 292.201558 126.178972 
L 293.167792 128.487153 
L 294.134026 111.773768 
L 295.10026 92.874143 
L 296.066494 106.12226 
L 297.032727 122.725734 
L 297.998961 105.528482 
L 298.965195 118.506408 
L 299.931429 110.213582 
L 300.897662 127.152286 
L 301.863896 109.866745 
L 302.83013 111.740687 
L 303.796364 107.024805 
L 304.762597 95.77088 
L 305.728831 94.708029 
L 306.695065 101.255926 
L 307.661299 101.66596 
L 308.627532 113.571833 
L 309.593766 112.997975 
L 310.56 121.128572 
L 311.526234 115.236314 
L 312.492468 132.601742 
L 313.458701 130.064274 
L 314.424935 109.894489 
L 315.391169 107.125382 
L 316.357403 93.604798 
L 317.323636 150.454639 
L 318.28987 99.432584 
L 319.256104 93.901583 
L 320.222338 104.830117 
L 321.188571 86.433132 
L 322.154805 101.76776 
L 323.121039 84.002063 
L 324.087273 109.827594 
L 325.053506 117.558951 
L 326.01974 92.589885 
L 326.985974 83.520984 
L 327.952208 103.717134 
L 328.918442 68.256245 
L 329.884675 80.686056 
L 330.850909 129.414841 
L 331.817143 131.409106 
L 332.783377 88.500811 
L 333.74961 95.158611 
L 334.715844 122.032148 
L 335.682078 99.057577 
L 336.648312 105.515619 
L 337.614545 126.563837 
L 338.580779 109.070382 
L 339.547013 102.507838 
L 340.513247 94.909207 
L 341.479481 84.41778 
L 342.445714 72.136596 
L 343.411948 73.447166 
L 344.378182 93.099821 
L 345.344416 83.676772 
L 346.310649 76.707126 
L 347.276883 90.716794 
L 348.243117 99.493076 
L 349.209351 132.354757 
L 350.175584 109.89142 
L 351.141818 99.572968 
L 352.108052 102.731619 
L 353.074286 131.35963 
L 354.040519 104.165019 
L 355.006753 121.824139 
L 355.972987 125.929411 
L 356.939221 116.97191 
L 357.905455 87.443385 
L 358.871688 105.959438 
L 359.837922 96.732956 
L 360.804156 98.666794 
L 361.77039 95.850325 
L 362.736623 94.945117 
L 363.702857 77.755952 
L 364.669091 99.64084 
L 365.635325 108.196363 
L 366.601558 97.009988 
L 367.567792 118.454409 
L 368.534026 89.909995 
L 369.50026 88.18451 
L 370.466494 107.687911 
L 371.432727 87.362769 
L 372.398961 106.276884 
L 373.365195 104.697123 
L 374.331429 108.464361 
L 375.297662 95.696551 
L 376.263896 84.483855 
L 377.23013 96.00319 
L 378.196364 98.989582 
L 379.162597 88.05255 
L 380.128831 92.041801 
L 381.095065 98.518169 
L 382.061299 68.871719 
L 383.027532 82.871543 
L 383.993766 105.338015 
L 384.96 82.507707 
L 385.926234 126.529197 
L 386.892468 78.600182 
L 387.858701 108.864078 
L 388.824935 96.335627 
L 389.791169 80.417072 
L 390.757403 87.113114 
L 391.723636 79.702659 
L 392.68987 106.24539 
L 393.656104 118.277559 
L 394.622338 100.458216 
L 395.588571 103.983544 
L 396.554805 114.010673 
L 397.521039 102.140335 
L 398.487273 116.242506 
L 398.487273 116.242506 
" clip-path="url(#pefe007f6ca)" style="fill: none; stroke-dasharray: 9.6,2.4,1.5,2.4; stroke-dashoffset: 0; stroke: #008000; stroke-width: 1.5"/>
   </g>
   <g id="line2d_34">
    <path d="M 73.832727 57.774305 
L 74.798961 60.449487 
L 75.765195 61.407867 
L 76.731429 57.298567 
L 77.697662 56.602192 
L 78.663896 58.787844 
L 79.63013 57.994942 
L 80.596364 59.187743 
L 81.562597 57.098618 
L 82.528831 55.947184 
L 83.495065 61.001072 
L 84.461299 58.877475 
L 85.427532 57.071042 
L 86.393766 59.160159 
L 87.36 57.988046 
L 88.326234 57.574355 
L 89.292468 58.64995 
L 90.258701 56.815933 
L 91.224935 56.367771 
L 92.191169 56.429826 
L 93.157403 62.676506 
L 94.123636 59.353221 
L 95.08987 58.608582 
L 96.056104 58.891267 
L 97.988571 58.091469 
L 98.954805 58.484472 
L 99.921039 59.304958 
L 100.887273 59.160159 
L 101.853506 60.814914 
L 102.81974 58.346578 
L 103.785974 57.34683 
L 104.752208 57.457149 
L 105.718442 58.732685 
L 106.684675 56.857301 
L 107.650909 59.036057 
L 108.617143 63.124669 
L 109.583377 57.636411 
L 110.54961 58.79474 
L 111.515844 58.339682 
L 112.482078 59.118792 
L 113.448312 56.209189 
L 114.414545 61.352707 
L 115.380779 55.843762 
L 116.347013 58.822316 
L 117.313247 58.81542 
L 118.279481 61.414762 
L 119.245714 60.856282 
L 121.178182 58.546527 
L 122.144416 57.305463 
L 123.110649 58.787844 
L 124.076883 57.732938 
L 125.043117 56.898668 
L 126.009351 62.966095 
L 126.975584 57.89152 
L 127.941818 58.953322 
L 128.908052 60.435703 
L 129.874286 58.105261 
L 130.840519 56.436714 
L 131.806753 58.408633 
L 132.772987 59.063632 
L 133.739221 57.539884 
L 134.705455 57.843256 
L 135.671688 58.822316 
L 136.637922 56.91246 
L 137.604156 57.739833 
L 138.57039 59.801383 
L 139.536623 59.925486 
L 140.502857 58.119045 
L 141.469091 57.698466 
L 142.435325 59.987541 
L 143.401558 59.601434 
L 144.367792 62.173193 
L 145.334026 60.070276 
L 146.30026 58.45 
L 147.266494 58.236259 
L 148.232727 58.415529 
L 149.198961 57.381302 
L 150.165195 59.601434 
L 151.131429 56.850405 
L 152.097662 58.656846 
L 153.063896 59.794487 
L 154.03013 56.843509 
L 154.996364 56.498769 
L 155.962597 62.104242 
L 156.928831 58.229363 
L 157.895065 56.057503 
L 158.861299 59.677273 
L 159.827532 57.415782 
L 160.793766 57.381302 
L 161.76 56.016136 
L 162.726234 57.705362 
L 163.692468 59.704848 
L 164.658701 59.560058 
L 165.624935 58.746477 
L 166.591169 56.93314 
L 167.557403 55.395599 
L 168.523636 60.022012 
L 169.48987 58.643054 
L 170.456104 59.442852 
L 171.422338 57.650203 
L 172.388571 59.360109 
L 173.354805 58.953322 
L 174.321039 61.063127 
L 175.287273 55.95408 
L 176.253506 57.912207 
L 177.21974 58.263843 
L 178.185974 58.980898 
L 179.152208 60.090963 
L 180.118442 55.416287 
L 181.084675 59.098112 
L 182.050909 58.077677 
L 183.983377 58.50516 
L 184.94961 56.981403 
L 186.882078 61.104494 
L 187.848312 58.463792 
L 188.814545 58.32589 
L 189.780779 56.13335 
L 190.747013 59.442852 
L 191.713247 58.746477 
L 192.679481 57.036562 
L 193.645714 59.787591 
L 194.611948 59.056745 
L 195.578182 56.719407 
L 196.544416 58.801636 
L 197.510649 57.119305 
L 198.476883 58.436209 
L 199.443117 58.760269 
L 200.409351 57.532988 
L 201.375584 64.014097 
L 202.341818 57.863944 
L 203.308052 57.450253 
L 204.274286 55.905817 
L 205.240519 58.47068 
L 206.206753 57.746729 
L 207.172987 57.932887 
L 208.139221 56.222981 
L 209.105455 59.28427 
L 210.071688 58.643054 
L 211.037922 56.843509 
L 212.004156 56.953828 
L 212.97039 59.256694 
L 213.936623 58.79474 
L 214.902857 60.270225 
L 215.869091 56.553929 
L 216.835325 56.15403 
L 217.801558 59.187743 
L 218.767792 59.380796 
L 219.734026 61.276868 
L 220.70026 59.75312 
L 221.666494 57.236512 
L 222.632727 57.064146 
L 223.598961 59.036057 
L 224.565195 59.311845 
L 225.531429 57.450253 
L 226.497662 59.160159 
L 227.463896 55.671396 
L 228.43013 56.988299 
L 229.396364 55.878241 
L 230.362597 58.16042 
L 231.328831 56.919356 
L 232.295065 56.547033 
L 233.261299 59.42906 
L 234.227532 57.505413 
L 236.16 59.325637 
L 237.126234 57.532988 
L 238.092468 57.774305 
L 239.058701 59.08432 
L 240.024935 56.822829 
L 240.991169 56.781462 
L 241.957403 58.849899 
L 242.923636 56.705615 
L 243.88987 60.876969 
L 244.856104 57.83636 
L 245.822338 60.001324 
L 246.788571 57.195144 
L 247.754805 59.380796 
L 248.721039 57.54678 
L 249.687273 58.32589 
L 250.653506 58.456896 
L 251.61974 58.119045 
L 252.585974 58.318994 
L 253.552208 56.781462 
L 254.518442 62.06977 
L 255.484675 57.636411 
L 256.450909 57.753625 
L 257.417143 57.712258 
L 258.383377 59.132584 
L 259.34961 57.698466 
L 260.315844 55.774819 
L 261.282078 58.808532 
L 262.248312 57.34683 
L 263.214545 58.863683 
L 264.180779 58.705109 
L 265.147013 57.05725 
L 266.113247 58.091469 
L 267.079481 57.139985 
L 268.045714 59.560058 
L 269.011948 56.29882 
L 269.978182 57.326151 
L 270.944416 59.566954 
L 271.910649 58.925738 
L 272.876883 59.380796 
L 273.843117 59.704848 
L 274.809351 56.822829 
L 275.775584 56.829725 
L 276.741818 59.311845 
L 277.708052 59.532483 
L 278.674286 59.056745 
L 279.640519 58.877475 
L 280.606753 60.656332 
L 281.572987 57.83636 
L 282.539221 62.152505 
L 283.505455 59.773799 
L 284.471688 58.518943 
L 285.437922 56.091974 
L 286.404156 58.705109 
L 287.37039 59.677273 
L 288.336623 58.518943 
L 289.302857 59.884118 
L 290.269091 58.332786 
L 291.235325 57.291671 
L 292.201558 60.53223 
L 293.167792 57.919103 
L 294.134026 58.753373 
L 295.10026 57.236512 
L 297.032727 57.912207 
L 297.998961 58.236259 
L 298.965195 61.159654 
L 299.931429 58.339682 
L 300.897662 60.621861 
L 301.863896 59.635905 
L 302.83013 59.525587 
L 304.762597 62.35935 
L 305.728831 58.877475 
L 306.695065 59.470427 
L 307.661299 55.740347 
L 308.627532 59.684169 
L 309.593766 56.967619 
L 310.56 62.014611 
L 311.526234 58.994689 
L 312.492468 57.436461 
L 313.458701 61.469922 
L 314.424935 60.656332 
L 315.391169 62.662723 
L 316.357403 58.298314 
L 317.323636 61.649183 
L 318.28987 58.705109 
L 319.256104 60.201274 
L 320.222338 58.601687 
L 321.188571 56.388451 
L 322.154805 62.531716 
L 323.121039 61.980139 
L 324.087273 59.539379 
L 325.053506 59.71864 
L 326.01974 58.856795 
L 326.985974 58.484472 
L 327.952208 59.367005 
L 328.918442 57.071042 
L 329.884675 57.229616 
L 330.850909 57.20204 
L 331.817143 57.988046 
L 332.783377 59.415268 
L 333.74961 59.015369 
L 334.715844 62.111138 
L 335.682078 62.242136 
L 336.648312 59.442852 
L 337.614545 57.388198 
L 338.580779 61.876717 
L 340.513247 58.077677 
L 341.479481 58.16042 
L 342.445714 58.580999 
L 343.411948 58.243155 
L 345.344416 57.291671 
L 346.310649 58.498264 
L 347.276883 58.925738 
L 348.243117 56.395347 
L 349.209351 60.546013 
L 350.175584 59.13948 
L 351.141818 58.167316 
L 352.108052 59.877222 
L 353.074286 56.93314 
L 354.040519 56.850405 
L 355.006753 60.456383 
L 355.972987 57.919103 
L 356.939221 59.89791 
L 357.905455 58.436209 
L 358.871688 58.698213 
L 359.837922 61.097598 
L 360.804156 58.705109 
L 361.77039 58.608582 
L 362.736623 59.55317 
L 363.702857 56.981403 
L 364.669091 56.533249 
L 365.635325 59.132584 
L 366.601558 58.30521 
L 367.567792 59.656585 
L 368.534026 57.83636 
L 369.50026 58.105261 
L 370.466494 61.883604 
L 371.432727 58.008734 
L 372.398961 64.020993 
L 373.365195 60.118539 
L 374.331429 61.869821 
L 375.297662 56.374667 
L 376.263896 56.919356 
L 377.23013 60.49775 
L 378.196364 59.89791 
L 379.162597 58.79474 
L 380.128831 63.179828 
L 381.095065 58.629262 
L 382.061299 60.166802 
L 383.027532 59.298062 
L 383.993766 61.097598 
L 384.96 56.967619 
L 385.926234 58.732685 
L 386.892468 57.608835 
L 387.858701 55.740347 
L 388.824935 58.518943 
L 389.791169 57.071042 
L 390.757403 59.622113 
L 391.723636 56.850405 
L 392.68987 58.236259 
L 393.656104 60.601173 
L 394.622338 59.953061 
L 395.588571 58.194892 
L 396.554805 59.615217 
L 397.521039 60.773547 
L 398.487273 62.979878 
L 398.487273 62.979878 
" clip-path="url(#pefe007f6ca)" style="fill: none; stroke: #ff0000; stroke-width: 1.5; stroke-linecap: square"/>
   </g>
   <g id="patch_3">
    <path d="M 57.6 307.584 
L 57.6 41.472 
" style="fill: none; stroke: #000000; stroke-width: 0.8; stroke-linejoin: miter; stroke-linecap: square"/>
   </g>
   <g id="patch_4">
    <path d="M 414.72 307.584 
L 414.72 41.472 
" style="fill: none; stroke: #000000; stroke-width: 0.8; stroke-linejoin: miter; stroke-linecap: square"/>
   </g>
   <g id="patch_5">
    <path d="M 57.6 307.584 
L 414.72 307.584 
" style="fill: none; stroke: #000000; stroke-width: 0.8; stroke-linejoin: miter; stroke-linecap: square"/>
   </g>
   <g id="patch_6">
    <path d="M 57.6 41.472 
L 414.72 41.472 
" style="fill: none; stroke: #000000; stroke-width: 0.8; stroke-linejoin: miter; stroke-linecap: square"/>
   </g>
   <g id="text_18">
    <!-- Population's average and best fitness -->
    <g transform="translate(123.529687 35.472) scale(0.12 -0.12)">
     <defs>
      <path id="DejaVuSans-50" d="M 1259 4147 
L 1259 2394 
L 2053 2394 
Q 2494 2394 2734 2622 
Q 2975 2850 2975 3272 
Q 2975 3691 2734 3919 
Q 2494 4147 2053 4147 
L 1259 4147 
z
M 628 4666 
L 2053 4666 
Q 2838 4666 3239 4311 
Q 3641 3956 3641 3272 
Q 3641 2581 3239 2228 
Q 2838 1875 2053 1875 
L 1259 1875 
L 1259 0 
L 628 0 
L 628 4666 
z
" transform="scale(0.015625)"/>
      <path id="DejaVuSans-70" d="M 1159 525 
L 1159 -1331 
L 581 -1331 
L 581 3500 
L 1159 3500 
L 1159 2969 
Q 1341 3281 1617 3432 
Q 1894 3584 2278 3584 
Q 2916 3584 3314 3078 
Q 3713 2572 3713 1747 
Q 3713 922 3314 415 
Q 2916 -91 2278 -91 
Q 1894 -91 1617 61 
Q 1341 213 1159 525 
z
M 3116 1747 
Q 3116 2381 2855 2742 
Q 2594 3103 2138 3103 
Q 1681 3103 1420 2742 
Q 1159 2381 1159 1747 
Q 1159 1113 1420 752 
Q 1681 391 2138 391 
Q 2594 391 2855 752 
Q 3116 1113 3116 1747 
z
" transform="scale(0.015625)"/>
      <path id="DejaVuSans-75" d="M 544 1381 
L 544 3500 
L 1119 3500 
L 1119 1403 
Q 1119 906 1312 657 
Q 1506 409 1894 409 
Q 2359 409 2629 706 
Q 2900 1003 2900 1516 
L 2900 3500 
L 3475 3500 
L 3475 0 
L 2900 0 
L 2900 538 
Q 2691 219 2414 64 
Q 2138 -91 1772 -91 
Q 1169 -91 856 284 
Q 544 659 544 1381 
z
M 1991 3584 
L 1991 3584 
z
" transform="scale(0.015625)"/>
      <path id="DejaVuSans-6c" d="M 603 4863 
L 1178 4863 
L 1178 0 
L 603 0 
L 603 4863 
z
" transform="scale(0.015625)"/>
      <path id="DejaVuSans-27" d="M 1147 4666 
L 1147 2931 
L 616 2931 
L 616 4666 
L 1147 4666 
z
" transform="scale(0.015625)"/>
      <path id="DejaVuSans-20" transform="scale(0.015625)"/>
      <path id="DejaVuSans-76" d="M 191 3500 
L 800 3500 
L 1894 563 
L 2988 3500 
L 3597 3500 
L 2284 0 
L 1503 0 
L 191 3500 
z
" transform="scale(0.015625)"/>
      <path id="DejaVuSans-67" d="M 2906 1791 
Q 2906 2416 2648 2759 
Q 2391 3103 1925 3103 
Q 1463 3103 1205 2759 
Q 947 2416 947 1791 
Q 947 1169 1205 825 
Q 1463 481 1925 481 
Q 2391 481 2648 825 
Q 2906 1169 2906 1791 
z
M 3481 434 
Q 3481 -459 3084 -895 
Q 2688 -1331 1869 -1331 
Q 1566 -1331 1297 -1286 
Q 1028 -1241 775 -1147 
L 775 -588 
Q 1028 -725 1275 -790 
Q 1522 -856 1778 -856 
Q 2344 -856 2625 -561 
Q 2906 -266 2906 331 
L 2906 616 
Q 2728 306 2450 153 
Q 2172 0 1784 0 
Q 1141 0 747 490 
Q 353 981 353 1791 
Q 353 2603 747 3093 
Q 1141 3584 1784 3584 
Q 2172 3584 2450 3431 
Q 2728 3278 2906 2969 
L 2906 3500 
L 3481 3500 
L 3481 434 
z
" transform="scale(0.015625)"/>
      <path id="DejaVuSans-64" d="M 2906 2969 
L 2906 4863 
L 3481 4863 
L 3481 0 
L 2906 0 
L 2906 525 
Q 2725 213 2448 61 
Q 2172 -91 1784 -91 
Q 1150 -91 751 415 
Q 353 922 353 1747 
Q 353 2572 751 3078 
Q 1150 3584 1784 3584 
Q 2172 3584 2448 3432 
Q 2725 3281 2906 2969 
z
M 947 1747 
Q 947 1113 1208 752 
Q 1469 391 1925 391 
Q 2381 391 2643 752 
Q 2906 1113 2906 1747 
Q 2906 2381 2643 2742 
Q 2381 3103 1925 3103 
Q 1469 3103 1208 2742 
Q 947 2381 947 1747 
z
" transform="scale(0.015625)"/>
      <path id="DejaVuSans-62" d="M 3116 1747 
Q 3116 2381 2855 2742 
Q 2594 3103 2138 3103 
Q 1681 3103 1420 2742 
Q 1159 2381 1159 1747 
Q 1159 1113 1420 752 
Q 1681 391 2138 391 
Q 2594 391 2855 752 
Q 3116 1113 3116 1747 
z
M 1159 2969 
Q 1341 3281 1617 3432 
Q 1894 3584 2278 3584 
Q 2916 3584 3314 3078 
Q 3713 2572 3713 1747 
Q 3713 922 3314 415 
Q 2916 -91 2278 -91 
Q 1894 -91 1617 61 
Q 1341 213 1159 525 
L 1159 0 
L 581 0 
L 581 4863 
L 1159 4863 
L 1159 2969 
z
" transform="scale(0.015625)"/>
      <path id="DejaVuSans-66" d="M 2375 4863 
L 2375 4384 
L 1825 4384 
Q 1516 4384 1395 4259 
Q 1275 4134 1275 3809 
L 1275 3500 
L 2222 3500 
L 2222 3053 
L 1275 3053 
L 1275 0 
L 697 0 
L 697 3053 
L 147 3053 
L 147 3500 
L 697 3500 
L 697 3744 
Q 697 4328 969 4595 
Q 1241 4863 1831 4863 
L 2375 4863 
z
" transform="scale(0.015625)"/>
     </defs>
     <use xlink:href="#DejaVuSans-50"/>
     <use xlink:href="#DejaVuSans-6f" x="56.677734"/>
     <use xlink:href="#DejaVuSans-70" x="117.859375"/>
     <use xlink:href="#DejaVuSans-75" x="181.335938"/>
     <use xlink:href="#DejaVuSans-6c" x="244.714844"/>
     <use xlink:href="#DejaVuSans-61" x="272.498047"/>
     <use xlink:href="#DejaVuSans-74" x="333.777344"/>
     <use xlink:href="#DejaVuSans-69" x="372.986328"/>
     <use xlink:href="#DejaVuSans-6f" x="400.769531"/>
     <use xlink:href="#DejaVuSans-6e" x="461.951172"/>
     <use xlink:href="#DejaVuSans-27" x="525.330078"/>
     <use xlink:href="#DejaVuSans-73" x="552.820312"/>
     <use xlink:href="#DejaVuSans-20" x="604.919922"/>
     <use xlink:href="#DejaVuSans-61" x="636.707031"/>
     <use xlink:href="#DejaVuSans-76" x="697.986328"/>
     <use xlink:href="#DejaVuSans-65" x="757.166016"/>
     <use xlink:href="#DejaVuSans-72" x="818.689453"/>
     <use xlink:href="#DejaVuSans-61" x="859.802734"/>
     <use xlink:href="#DejaVuSans-67" x="921.082031"/>
     <use xlink:href="#DejaVuSans-65" x="984.558594"/>
     <use xlink:href="#DejaVuSans-20" x="1046.082031"/>
     <use xlink:href="#DejaVuSans-61" x="1077.869141"/>
     <use xlink:href="#DejaVuSans-6e" x="1139.148438"/>
     <use xlink:href="#DejaVuSans-64" x="1202.527344"/>
     <use xlink:href="#DejaVuSans-20" x="1266.003906"/>
     <use xlink:href="#DejaVuSans-62" x="1297.791016"/>
     <use xlink:href="#DejaVuSans-65" x="1361.267578"/>
     <use xlink:href="#DejaVuSans-73" x="1422.791016"/>
     <use xlink:href="#DejaVuSans-74" x="1474.890625"/>
     <use xlink:href="#DejaVuSans-20" x="1514.099609"/>
     <use xlink:href="#DejaVuSans-66" x="1545.886719"/>
     <use xlink:href="#DejaVuSans-69" x="1581.091797"/>
     <use xlink:href="#DejaVuSans-74" x="1608.875"/>
     <use xlink:href="#DejaVuSans-6e" x="1648.083984"/>
     <use xlink:href="#DejaVuSans-65" x="1711.462891"/>
     <use xlink:href="#DejaVuSans-73" x="1772.986328"/>
     <use xlink:href="#DejaVuSans-73" x="1825.085938"/>
    </g>
   </g>
   <g id="legend_1">
    <g id="patch_7">
     <path d="M 334.779375 205.38425 
L 407.72 205.38425 
Q 409.72 205.38425 409.72 203.38425 
L 409.72 145.67175 
Q 409.72 143.67175 407.72 143.67175 
L 334.779375 143.67175 
Q 332.779375 143.67175 332.779375 145.67175 
L 332.779375 203.38425 
Q 332.779375 205.38425 334.779375 205.38425 
z
" style="fill: #ffffff; opacity: 0.8; stroke: #cccccc; stroke-linejoin: miter"/>
    </g>
    <g id="line2d_35">
     <path d="M 336.779375 151.770188 
L 346.779375 151.770188 
L 356.779375 151.770188 
" style="fill: none; stroke: #0000ff; stroke-width: 1.5; stroke-linecap: square"/>
    </g>
    <g id="text_19">
     <!-- average -->
     <g transform="translate(364.779375 155.270188) scale(0.1 -0.1)">
      <use xlink:href="#DejaVuSans-61"/>
      <use xlink:href="#DejaVuSans-76" x="61.279297"/>
      <use xlink:href="#DejaVuSans-65" x="120.458984"/>
      <use xlink:href="#DejaVuSans-72" x="181.982422"/>
      <use xlink:href="#DejaVuSans-61" x="223.095703"/>
      <use xlink:href="#DejaVuSans-67" x="284.375"/>
      <use xlink:href="#DejaVuSans-65" x="347.851562"/>
     </g>
    </g>
    <g id="line2d_36">
     <path d="M 336.779375 166.448313 
L 346.779375 166.448313 
L 356.779375 166.448313 
" style="fill: none; stroke-dasharray: 9.6,2.4,1.5,2.4; stroke-dashoffset: 0; stroke: #008000; stroke-width: 1.5"/>
    </g>
    <g id="text_20">
     <!-- -1 sd -->
     <g transform="translate(364.779375 169.948313) scale(0.1 -0.1)">
      <defs>
       <path id="DejaVuSans-2d" d="M 313 2009 
L 1997 2009 
L 1997 1497 
L 313 1497 
L 313 2009 
z
" transform="scale(0.015625)"/>
      </defs>
      <use xlink:href="#DejaVuSans-2d"/>
      <use xlink:href="#DejaVuSans-31" x="36.083984"/>
      <use xlink:href="#DejaVuSans-20" x="99.707031"/>
      <use xlink:href="#DejaVuSans-73" x="131.494141"/>
      <use xlink:href="#DejaVuSans-64" x="183.59375"/>
     </g>
    </g>
    <g id="line2d_37">
     <path d="M 336.779375 181.126438 
L 346.779375 181.126438 
L 356.779375 181.126438 
" style="fill: none; stroke-dasharray: 9.6,2.4,1.5,2.4; stroke-dashoffset: 0; stroke: #008000; stroke-width: 1.5"/>
    </g>
    <g id="text_21">
     <!-- +1 sd -->
     <g transform="translate(364.779375 184.626438) scale(0.1 -0.1)">
      <defs>
       <path id="DejaVuSans-2b" d="M 2944 4013 
L 2944 2272 
L 4684 2272 
L 4684 1741 
L 2944 1741 
L 2944 0 
L 2419 0 
L 2419 1741 
L 678 1741 
L 678 2272 
L 2419 2272 
L 2419 4013 
L 2944 4013 
z
" transform="scale(0.015625)"/>
      </defs>
      <use xlink:href="#DejaVuSans-2b"/>
      <use xlink:href="#DejaVuSans-31" x="83.789062"/>
      <use xlink:href="#DejaVuSans-20" x="147.412109"/>
      <use xlink:href="#DejaVuSans-73" x="179.199219"/>
      <use xlink:href="#DejaVuSans-64" x="231.298828"/>
     </g>
    </g>
    <g id="line2d_38">
     <path d="M 336.779375 195.804563 
L 346.779375 195.804563 
L 356.779375 195.804563 
" style="fill: none; stroke: #ff0000; stroke-width: 1.5; stroke-linecap: square"/>
    </g>
    <g id="text_22">
     <!-- best -->
     <g transform="translate(364.779375 199.304563) scale(0.1 -0.1)">
      <use xlink:href="#DejaVuSans-62"/>
      <use xlink:href="#DejaVuSans-65" x="63.476562"/>
      <use xlink:href="#DejaVuSans-73" x="125"/>
      <use xlink:href="#DejaVuSans-74" x="177.099609"/>
     </g>
    </g>
   </g>
  </g>
 </g>
 <defs>
  <clipPath id="pefe007f6ca">
   <rect x="57.6" y="41.472" width="357.12" height="266.112"/>
  </clipPath>
 </defs>
</svg>
