<?xml version="1.0" encoding="utf-8" standalone="no"?>
<!DOCTYPE svg PUBLIC "-//W3C//DTD SVG 1.1//EN"
  "http://www.w3.org/Graphics/SVG/1.1/DTD/svg11.dtd">
<svg xmlns:xlink="http://www.w3.org/1999/xlink" width="460.8pt" height="345.6pt" viewBox="0 0 460.8 345.6" xmlns="http://www.w3.org/2000/svg" version="1.1">
 <metadata>
  <rdf:RDF xmlns:dc="http://purl.org/dc/elements/1.1/" xmlns:cc="http://creativecommons.org/ns#" xmlns:rdf="http://www.w3.org/1999/02/22-rdf-syntax-ns#">
   <cc:Work>
    <dc:type rdf:resource="http://purl.org/dc/dcmitype/StillImage"/>
    <dc:date>2023-02-14T02:35:35.837914</dc:date>
    <dc:format>image/svg+xml</dc:format>
    <dc:creator>
     <cc:Agent>
      <dc:title>Matplotlib v3.6.3, https://matplotlib.org/</dc:title>
     </cc:Agent>
    </dc:creator>
   </cc:Work>
  </rdf:RDF>
 </metadata>
 <defs>
  <style type="text/css">*{stroke-linejoin: round; stroke-linecap: butt}</style>
 </defs>
 <g id="figure_1">
  <g id="patch_1">
   <path d="M 0 345.6 
L 460.8 345.6 
L 460.8 0 
L 0 0 
z
" style="fill: #ffffff"/>
  </g>
  <g id="axes_1">
   <g id="patch_2">
    <path d="M 57.6 307.584 
L 414.72 307.584 
L 414.72 41.472 
L 57.6 41.472 
z
" style="fill: #ffffff"/>
   </g>
   <g id="PolyCollection_1">
    <path d="M 73.832727 189.543452 
L 73.832727 307.584 
L 74.798961 307.584 
L 75.765195 307.584 
L 76.731429 307.584 
L 77.697662 307.584 
L 78.663896 307.584 
L 79.63013 307.584 
L 80.596364 307.584 
L 81.562597 307.584 
L 82.528831 307.584 
L 83.495065 307.584 
L 84.461299 307.584 
L 85.427532 307.584 
L 86.393766 307.584 
L 87.36 307.584 
L 88.326234 307.584 
L 89.292468 307.584 
L 90.258701 307.584 
L 91.224935 307.584 
L 92.191169 307.584 
L 93.157403 307.584 
L 94.123636 307.584 
L 95.08987 307.584 
L 96.056104 307.584 
L 97.022338 307.584 
L 97.988571 307.584 
L 98.954805 307.584 
L 99.921039 307.584 
L 100.887273 307.584 
L 101.853506 307.584 
L 102.81974 307.584 
L 103.785974 307.584 
L 104.752208 307.584 
L 105.718442 307.584 
L 106.684675 307.584 
L 107.650909 307.584 
L 108.617143 307.584 
L 109.583377 307.584 
L 110.54961 307.584 
L 111.515844 307.584 
L 112.482078 307.584 
L 113.448312 307.584 
L 114.414545 307.584 
L 115.380779 307.584 
L 116.347013 307.584 
L 117.313247 307.584 
L 118.279481 307.584 
L 119.245714 307.584 
L 120.211948 307.584 
L 121.178182 307.584 
L 122.144416 307.584 
L 123.110649 307.584 
L 124.076883 307.584 
L 125.043117 307.584 
L 126.009351 307.584 
L 126.975584 307.584 
L 127.941818 307.584 
L 128.908052 307.584 
L 129.874286 307.584 
L 130.840519 307.584 
L 131.806753 307.584 
L 132.772987 307.584 
L 133.739221 307.584 
L 134.705455 307.584 
L 135.671688 307.584 
L 136.637922 307.584 
L 137.604156 307.584 
L 138.57039 307.584 
L 139.536623 307.584 
L 140.502857 307.584 
L 141.469091 307.584 
L 142.435325 307.584 
L 143.401558 307.584 
L 144.367792 307.584 
L 145.334026 307.584 
L 146.30026 307.584 
L 147.266494 307.584 
L 148.232727 307.584 
L 149.198961 307.584 
L 150.165195 307.584 
L 151.131429 307.584 
L 152.097662 307.584 
L 153.063896 307.584 
L 154.03013 307.584 
L 154.996364 307.584 
L 155.962597 307.584 
L 156.928831 307.584 
L 157.895065 307.584 
L 158.861299 307.584 
L 159.827532 307.584 
L 160.793766 307.584 
L 161.76 307.584 
L 162.726234 307.584 
L 163.692468 307.584 
L 164.658701 307.584 
L 165.624935 307.584 
L 166.591169 307.584 
L 167.557403 307.584 
L 168.523636 307.584 
L 169.48987 307.584 
L 170.456104 307.584 
L 171.422338 307.584 
L 172.388571 307.584 
L 173.354805 307.584 
L 174.321039 307.584 
L 175.287273 307.584 
L 176.253506 307.584 
L 177.21974 307.584 
L 178.185974 307.584 
L 179.152208 307.584 
L 180.118442 307.584 
L 181.084675 307.584 
L 182.050909 307.584 
L 183.017143 307.584 
L 183.983377 307.584 
L 184.94961 307.584 
L 185.915844 307.584 
L 186.882078 307.584 
L 187.848312 307.584 
L 188.814545 307.584 
L 189.780779 307.584 
L 190.747013 307.584 
L 191.713247 307.584 
L 192.679481 307.584 
L 193.645714 307.584 
L 194.611948 307.584 
L 195.578182 307.584 
L 196.544416 307.584 
L 197.510649 307.584 
L 198.476883 307.584 
L 199.443117 307.584 
L 200.409351 307.584 
L 201.375584 307.584 
L 202.341818 307.584 
L 203.308052 307.584 
L 204.274286 307.584 
L 205.240519 307.584 
L 206.206753 307.584 
L 207.172987 307.584 
L 208.139221 307.584 
L 209.105455 307.584 
L 210.071688 307.584 
L 211.037922 307.584 
L 212.004156 307.584 
L 212.97039 307.584 
L 213.936623 307.584 
L 214.902857 307.584 
L 215.869091 307.584 
L 216.835325 307.584 
L 217.801558 307.584 
L 218.767792 307.584 
L 219.734026 307.584 
L 220.70026 307.584 
L 221.666494 307.584 
L 222.632727 307.584 
L 223.598961 307.584 
L 224.565195 307.584 
L 225.531429 307.584 
L 226.497662 307.584 
L 227.463896 307.584 
L 228.43013 307.584 
L 229.396364 307.584 
L 230.362597 307.584 
L 231.328831 307.584 
L 232.295065 307.584 
L 233.261299 307.584 
L 234.227532 307.584 
L 235.193766 307.584 
L 236.16 307.584 
L 237.126234 307.584 
L 238.092468 307.584 
L 239.058701 307.584 
L 240.024935 307.584 
L 240.991169 307.584 
L 241.957403 307.584 
L 242.923636 307.584 
L 243.88987 307.584 
L 244.856104 307.584 
L 245.822338 307.584 
L 246.788571 307.584 
L 247.754805 307.584 
L 248.721039 307.584 
L 249.687273 307.584 
L 250.653506 307.584 
L 251.61974 307.584 
L 252.585974 307.584 
L 253.552208 307.584 
L 254.518442 307.584 
L 255.484675 307.584 
L 256.450909 307.584 
L 257.417143 307.584 
L 258.383377 307.584 
L 259.34961 307.584 
L 260.315844 307.584 
L 261.282078 307.584 
L 262.248312 307.584 
L 263.214545 307.584 
L 264.180779 307.584 
L 265.147013 307.584 
L 266.113247 307.584 
L 267.079481 307.584 
L 268.045714 307.584 
L 269.011948 307.584 
L 269.978182 307.584 
L 270.944416 307.584 
L 271.910649 307.584 
L 272.876883 307.584 
L 273.843117 307.584 
L 274.809351 307.584 
L 275.775584 307.584 
L 276.741818 307.584 
L 277.708052 307.584 
L 278.674286 307.584 
L 279.640519 307.584 
L 280.606753 307.584 
L 281.572987 307.584 
L 282.539221 307.584 
L 283.505455 307.584 
L 284.471688 307.584 
L 285.437922 307.584 
L 286.404156 307.584 
L 287.37039 307.584 
L 288.336623 307.584 
L 289.302857 307.584 
L 290.269091 307.584 
L 291.235325 307.584 
L 292.201558 307.584 
L 293.167792 307.584 
L 294.134026 307.584 
L 295.10026 307.584 
L 296.066494 307.584 
L 297.032727 307.584 
L 297.998961 307.584 
L 298.965195 307.584 
L 299.931429 307.584 
L 300.897662 307.584 
L 301.863896 307.584 
L 302.83013 307.584 
L 303.796364 307.584 
L 304.762597 307.584 
L 305.728831 307.584 
L 306.695065 307.584 
L 307.661299 307.584 
L 308.627532 307.584 
L 309.593766 307.584 
L 310.56 307.584 
L 311.526234 307.584 
L 312.492468 307.584 
L 313.458701 307.584 
L 314.424935 307.584 
L 315.391169 307.584 
L 316.357403 307.584 
L 317.323636 307.584 
L 318.28987 307.584 
L 319.256104 307.584 
L 320.222338 307.584 
L 321.188571 307.584 
L 322.154805 307.584 
L 323.121039 307.584 
L 324.087273 307.584 
L 325.053506 307.584 
L 326.01974 307.584 
L 326.985974 307.584 
L 327.952208 307.584 
L 328.918442 307.584 
L 329.884675 307.584 
L 330.850909 307.584 
L 331.817143 307.584 
L 332.783377 307.584 
L 333.74961 307.584 
L 334.715844 307.584 
L 335.682078 307.584 
L 336.648312 307.584 
L 337.614545 307.584 
L 338.580779 307.584 
L 339.547013 307.584 
L 340.513247 307.584 
L 341.479481 307.584 
L 342.445714 307.584 
L 343.411948 307.584 
L 344.378182 307.584 
L 345.344416 307.584 
L 346.310649 307.584 
L 347.276883 307.584 
L 348.243117 307.584 
L 349.209351 307.584 
L 350.175584 307.584 
L 351.141818 307.584 
L 352.108052 307.584 
L 353.074286 307.584 
L 354.040519 307.584 
L 355.006753 307.584 
L 355.972987 307.584 
L 356.939221 307.584 
L 357.905455 307.584 
L 358.871688 307.584 
L 359.837922 307.584 
L 360.804156 307.584 
L 361.77039 307.584 
L 362.736623 307.584 
L 363.702857 307.584 
L 364.669091 307.584 
L 365.635325 307.584 
L 366.601558 307.584 
L 367.567792 307.584 
L 368.534026 307.584 
L 369.50026 307.584 
L 370.466494 307.584 
L 371.432727 307.584 
L 372.398961 307.584 
L 373.365195 307.584 
L 374.331429 307.584 
L 375.297662 307.584 
L 376.263896 307.584 
L 377.23013 307.584 
L 378.196364 307.584 
L 379.162597 307.584 
L 380.128831 307.584 
L 381.095065 307.584 
L 382.061299 307.584 
L 383.027532 307.584 
L 383.993766 307.584 
L 384.96 307.584 
L 385.926234 307.584 
L 386.892468 307.584 
L 387.858701 307.584 
L 388.824935 307.584 
L 389.791169 307.584 
L 390.757403 307.584 
L 391.723636 307.584 
L 392.68987 307.584 
L 393.656104 307.584 
L 394.622338 307.584 
L 395.588571 307.584 
L 396.554805 307.584 
L 397.521039 307.584 
L 398.487273 307.584 
L 398.487273 172.184548 
L 398.487273 172.184548 
L 397.521039 189.543452 
L 396.554805 199.958795 
L 395.588571 193.015233 
L 394.622338 189.543452 
L 393.656104 182.59989 
L 392.68987 199.958795 
L 391.723636 196.487014 
L 390.757403 179.12811 
L 389.791169 175.656329 
L 388.824935 172.184548 
L 387.858701 186.071671 
L 386.892468 189.543452 
L 385.926234 186.071671 
L 384.96 189.543452 
L 383.993766 196.487014 
L 383.027532 189.543452 
L 382.061299 193.015233 
L 381.095065 210.374137 
L 380.128831 203.430575 
L 379.162597 196.487014 
L 378.196364 182.59989 
L 377.23013 186.071671 
L 376.263896 175.656329 
L 375.297662 182.59989 
L 374.331429 186.071671 
L 373.365195 189.543452 
L 372.398961 186.071671 
L 371.432727 182.59989 
L 370.466494 175.656329 
L 369.50026 165.240986 
L 368.534026 182.59989 
L 367.567792 186.071671 
L 366.601558 189.543452 
L 365.635325 175.656329 
L 364.669091 168.712767 
L 363.702857 172.184548 
L 362.736623 154.825644 
L 361.77039 161.769205 
L 360.804156 175.656329 
L 359.837922 168.712767 
L 358.871688 158.297425 
L 357.905455 161.769205 
L 356.939221 158.297425 
L 355.972987 161.769205 
L 355.006753 165.240986 
L 354.040519 186.071671 
L 353.074286 196.487014 
L 352.108052 203.430575 
L 351.141818 210.374137 
L 350.175584 206.902356 
L 349.209351 193.015233 
L 348.243117 196.487014 
L 347.276883 193.015233 
L 346.310649 196.487014 
L 345.344416 189.543452 
L 344.378182 179.12811 
L 343.411948 199.958795 
L 342.445714 203.430575 
L 341.479481 227.733041 
L 340.513247 238.148384 
L 339.547013 231.204822 
L 338.580779 213.845918 
L 337.614545 193.015233 
L 336.648312 203.430575 
L 335.682078 186.071671 
L 334.715844 179.12811 
L 333.74961 161.769205 
L 332.783377 158.297425 
L 331.817143 175.656329 
L 330.850909 172.184548 
L 329.884675 179.12811 
L 328.918442 175.656329 
L 327.952208 189.543452 
L 326.985974 193.015233 
L 326.01974 203.430575 
L 325.053506 182.59989 
L 324.087273 179.12811 
L 323.121039 182.59989 
L 322.154805 175.656329 
L 321.188571 179.12811 
L 320.222338 172.184548 
L 319.256104 175.656329 
L 318.28987 182.59989 
L 317.323636 175.656329 
L 316.357403 186.071671 
L 315.391169 189.543452 
L 314.424935 175.656329 
L 313.458701 168.712767 
L 312.492468 140.938521 
L 311.526234 144.410301 
L 310.56 147.882082 
L 309.593766 161.769205 
L 308.627532 172.184548 
L 307.661299 165.240986 
L 306.695065 168.712767 
L 305.728831 165.240986 
L 304.762597 151.353863 
L 303.796364 144.410301 
L 302.83013 175.656329 
L 301.863896 168.712767 
L 300.897662 147.882082 
L 299.931429 123.579616 
L 298.965195 127.051397 
L 297.998961 133.994959 
L 297.032727 137.46674 
L 296.066494 133.994959 
L 295.10026 123.579616 
L 294.134026 127.051397 
L 293.167792 144.410301 
L 292.201558 158.297425 
L 291.235325 158.297425 
L 290.269091 161.769205 
L 289.302857 165.240986 
L 288.336623 151.353863 
L 287.37039 179.12811 
L 286.404156 210.374137 
L 285.437922 206.902356 
L 284.471688 199.958795 
L 283.505455 203.430575 
L 282.539221 210.374137 
L 281.572987 210.374137 
L 280.606753 220.789479 
L 279.640519 210.374137 
L 278.674286 213.845918 
L 277.708052 227.733041 
L 276.741818 217.317699 
L 275.775584 227.733041 
L 274.809351 224.26126 
L 273.843117 213.845918 
L 272.876883 210.374137 
L 271.910649 213.845918 
L 270.944416 220.789479 
L 269.978182 203.430575 
L 269.011948 189.543452 
L 268.045714 193.015233 
L 267.079481 182.59989 
L 266.113247 179.12811 
L 265.147013 175.656329 
L 264.180779 179.12811 
L 263.214545 193.015233 
L 262.248312 196.487014 
L 261.282078 193.015233 
L 260.315844 189.543452 
L 259.34961 193.015233 
L 258.383377 186.071671 
L 257.417143 182.59989 
L 256.450909 193.015233 
L 255.484675 189.543452 
L 254.518442 175.656329 
L 253.552208 179.12811 
L 252.585974 189.543452 
L 251.61974 172.184548 
L 250.653506 175.656329 
L 249.687273 189.543452 
L 248.721039 193.015233 
L 247.754805 186.071671 
L 246.788571 189.543452 
L 245.822338 175.656329 
L 244.856104 193.015233 
L 243.88987 199.958795 
L 242.923636 196.487014 
L 241.957403 193.015233 
L 240.991169 182.59989 
L 240.024935 199.958795 
L 239.058701 196.487014 
L 238.092468 189.543452 
L 237.126234 193.015233 
L 236.16 196.487014 
L 235.193766 193.015233 
L 234.227532 189.543452 
L 233.261299 199.958795 
L 232.295065 196.487014 
L 231.328831 193.015233 
L 230.362597 189.543452 
L 229.396364 193.015233 
L 228.43013 172.184548 
L 227.463896 168.712767 
L 226.497662 179.12811 
L 225.531429 182.59989 
L 224.565195 179.12811 
L 223.598961 172.184548 
L 222.632727 175.656329 
L 221.666494 172.184548 
L 220.70026 189.543452 
L 219.734026 193.015233 
L 218.767792 196.487014 
L 217.801558 186.071671 
L 216.835325 182.59989 
L 215.869091 179.12811 
L 214.902857 186.071671 
L 213.936623 189.543452 
L 212.97039 182.59989 
L 212.004156 179.12811 
L 211.037922 175.656329 
L 210.071688 186.071671 
L 209.105455 189.543452 
L 208.139221 186.071671 
L 207.172987 193.015233 
L 206.206753 186.071671 
L 205.240519 196.487014 
L 204.274286 182.59989 
L 203.308052 179.12811 
L 202.341818 175.656329 
L 201.375584 203.430575 
L 200.409351 186.071671 
L 199.443117 179.12811 
L 198.476883 193.015233 
L 197.510649 189.543452 
L 196.544416 186.071671 
L 195.578182 189.543452 
L 194.611948 196.487014 
L 193.645714 206.902356 
L 192.679481 213.845918 
L 191.713247 206.902356 
L 190.747013 199.958795 
L 189.780779 203.430575 
L 188.814545 199.958795 
L 187.848312 179.12811 
L 186.882078 199.958795 
L 185.915844 203.430575 
L 184.94961 186.071671 
L 183.983377 189.543452 
L 183.017143 193.015233 
L 182.050909 189.543452 
L 181.084675 182.59989 
L 180.118442 186.071671 
L 179.152208 182.59989 
L 178.185974 172.184548 
L 177.21974 168.712767 
L 176.253506 172.184548 
L 175.287273 179.12811 
L 174.321039 182.59989 
L 173.354805 186.071671 
L 172.388571 179.12811 
L 171.422338 175.656329 
L 170.456104 179.12811 
L 169.48987 182.59989 
L 168.523636 186.071671 
L 167.557403 199.958795 
L 166.591169 196.487014 
L 165.624935 206.902356 
L 164.658701 203.430575 
L 163.692468 175.656329 
L 162.726234 189.543452 
L 161.76 182.59989 
L 160.793766 193.015233 
L 159.827532 199.958795 
L 158.861299 193.015233 
L 157.895065 189.543452 
L 156.928831 186.071671 
L 155.962597 189.543452 
L 154.996364 165.240986 
L 154.03013 168.712767 
L 153.063896 182.59989 
L 152.097662 179.12811 
L 151.131429 186.071671 
L 150.165195 189.543452 
L 149.198961 179.12811 
L 148.232727 186.071671 
L 147.266494 196.487014 
L 146.30026 206.902356 
L 145.334026 186.071671 
L 144.367792 175.656329 
L 143.401558 172.184548 
L 142.435325 175.656329 
L 141.469091 179.12811 
L 140.502857 175.656329 
L 139.536623 172.184548 
L 138.57039 179.12811 
L 137.604156 175.656329 
L 136.637922 168.712767 
L 135.671688 165.240986 
L 134.705455 158.297425 
L 133.739221 154.825644 
L 132.772987 168.712767 
L 131.806753 175.656329 
L 130.840519 172.184548 
L 129.874286 186.071671 
L 128.908052 182.59989 
L 127.941818 179.12811 
L 126.975584 182.59989 
L 126.009351 179.12811 
L 125.043117 193.015233 
L 124.076883 186.071671 
L 123.110649 165.240986 
L 122.144416 158.297425 
L 121.178182 175.656329 
L 120.211948 172.184548 
L 119.245714 158.297425 
L 118.279481 168.712767 
L 117.313247 186.071671 
L 116.347013 196.487014 
L 115.380779 186.071671 
L 114.414545 179.12811 
L 113.448312 186.071671 
L 112.482078 179.12811 
L 111.515844 168.712767 
L 110.54961 179.12811 
L 109.583377 172.184548 
L 108.617143 189.543452 
L 107.650909 193.015233 
L 106.684675 175.656329 
L 105.718442 165.240986 
L 104.752208 179.12811 
L 103.785974 186.071671 
L 102.81974 172.184548 
L 101.853506 182.59989 
L 100.887273 179.12811 
L 99.921039 186.071671 
L 98.954805 182.59989 
L 97.988571 179.12811 
L 97.022338 182.59989 
L 96.056104 165.240986 
L 95.08987 179.12811 
L 94.123636 182.59989 
L 93.157403 196.487014 
L 92.191169 189.543452 
L 91.224935 196.487014 
L 90.258701 179.12811 
L 89.292468 189.543452 
L 88.326234 193.015233 
L 87.36 179.12811 
L 86.393766 186.071671 
L 85.427532 182.59989 
L 84.461299 193.015233 
L 83.495065 182.59989 
L 82.528831 175.656329 
L 81.562597 189.543452 
L 80.596364 179.12811 
L 79.63013 175.656329 
L 78.663896 193.015233 
L 77.697662 172.184548 
L 76.731429 182.59989 
L 75.765195 179.12811 
L 74.798961 172.184548 
L 73.832727 189.543452 
z
" clip-path="url(#pb04ce42e1a)" style="fill: #1f77b4"/>
   </g>
   <g id="PolyCollection_2">
    <path d="M 73.832727 57.615781 
L 73.832727 189.543452 
L 74.798961 172.184548 
L 75.765195 179.12811 
L 76.731429 182.59989 
L 77.697662 172.184548 
L 78.663896 193.015233 
L 79.63013 175.656329 
L 80.596364 179.12811 
L 81.562597 189.543452 
L 82.528831 175.656329 
L 83.495065 182.59989 
L 84.461299 193.015233 
L 85.427532 182.59989 
L 86.393766 186.071671 
L 87.36 179.12811 
L 88.326234 193.015233 
L 89.292468 189.543452 
L 90.258701 179.12811 
L 91.224935 196.487014 
L 92.191169 189.543452 
L 93.157403 196.487014 
L 94.123636 182.59989 
L 95.08987 179.12811 
L 96.056104 165.240986 
L 97.022338 182.59989 
L 97.988571 179.12811 
L 98.954805 182.59989 
L 99.921039 186.071671 
L 100.887273 179.12811 
L 101.853506 182.59989 
L 102.81974 172.184548 
L 103.785974 186.071671 
L 104.752208 179.12811 
L 105.718442 165.240986 
L 106.684675 175.656329 
L 107.650909 193.015233 
L 108.617143 189.543452 
L 109.583377 172.184548 
L 110.54961 179.12811 
L 111.515844 168.712767 
L 112.482078 179.12811 
L 113.448312 186.071671 
L 114.414545 179.12811 
L 115.380779 186.071671 
L 116.347013 196.487014 
L 117.313247 186.071671 
L 118.279481 168.712767 
L 119.245714 158.297425 
L 120.211948 172.184548 
L 121.178182 175.656329 
L 122.144416 158.297425 
L 123.110649 165.240986 
L 124.076883 186.071671 
L 125.043117 193.015233 
L 126.009351 179.12811 
L 126.975584 182.59989 
L 127.941818 179.12811 
L 128.908052 182.59989 
L 129.874286 186.071671 
L 130.840519 172.184548 
L 131.806753 175.656329 
L 132.772987 168.712767 
L 133.739221 154.825644 
L 134.705455 158.297425 
L 135.671688 165.240986 
L 136.637922 168.712767 
L 137.604156 175.656329 
L 138.57039 179.12811 
L 139.536623 172.184548 
L 140.502857 175.656329 
L 141.469091 179.12811 
L 142.435325 175.656329 
L 143.401558 172.184548 
L 144.367792 175.656329 
L 145.334026 186.071671 
L 146.30026 206.902356 
L 147.266494 196.487014 
L 148.232727 186.071671 
L 149.198961 179.12811 
L 150.165195 189.543452 
L 151.131429 186.071671 
L 152.097662 179.12811 
L 153.063896 182.59989 
L 154.03013 168.712767 
L 154.996364 165.240986 
L 155.962597 189.543452 
L 156.928831 186.071671 
L 157.895065 189.543452 
L 158.861299 193.015233 
L 159.827532 199.958795 
L 160.793766 193.015233 
L 161.76 182.59989 
L 162.726234 189.543452 
L 163.692468 175.656329 
L 164.658701 203.430575 
L 165.624935 206.902356 
L 166.591169 196.487014 
L 167.557403 199.958795 
L 168.523636 186.071671 
L 169.48987 182.59989 
L 170.456104 179.12811 
L 171.422338 175.656329 
L 172.388571 179.12811 
L 173.354805 186.071671 
L 174.321039 182.59989 
L 175.287273 179.12811 
L 176.253506 172.184548 
L 177.21974 168.712767 
L 178.185974 172.184548 
L 179.152208 182.59989 
L 180.118442 186.071671 
L 181.084675 182.59989 
L 182.050909 189.543452 
L 183.017143 193.015233 
L 183.983377 189.543452 
L 184.94961 186.071671 
L 185.915844 203.430575 
L 186.882078 199.958795 
L 187.848312 179.12811 
L 188.814545 199.958795 
L 189.780779 203.430575 
L 190.747013 199.958795 
L 191.713247 206.902356 
L 192.679481 213.845918 
L 193.645714 206.902356 
L 194.611948 196.487014 
L 195.578182 189.543452 
L 196.544416 186.071671 
L 197.510649 189.543452 
L 198.476883 193.015233 
L 199.443117 179.12811 
L 200.409351 186.071671 
L 201.375584 203.430575 
L 202.341818 175.656329 
L 203.308052 179.12811 
L 204.274286 182.59989 
L 205.240519 196.487014 
L 206.206753 186.071671 
L 207.172987 193.015233 
L 208.139221 186.071671 
L 209.105455 189.543452 
L 210.071688 186.071671 
L 211.037922 175.656329 
L 212.004156 179.12811 
L 212.97039 182.59989 
L 213.936623 189.543452 
L 214.902857 186.071671 
L 215.869091 179.12811 
L 216.835325 182.59989 
L 217.801558 186.071671 
L 218.767792 196.487014 
L 219.734026 193.015233 
L 220.70026 189.543452 
L 221.666494 172.184548 
L 222.632727 175.656329 
L 223.598961 172.184548 
L 224.565195 179.12811 
L 225.531429 182.59989 
L 226.497662 179.12811 
L 227.463896 168.712767 
L 228.43013 172.184548 
L 229.396364 193.015233 
L 230.362597 189.543452 
L 231.328831 193.015233 
L 232.295065 196.487014 
L 233.261299 199.958795 
L 234.227532 189.543452 
L 235.193766 193.015233 
L 236.16 196.487014 
L 237.126234 193.015233 
L 238.092468 189.543452 
L 239.058701 196.487014 
L 240.024935 199.958795 
L 240.991169 182.59989 
L 241.957403 193.015233 
L 242.923636 196.487014 
L 243.88987 199.958795 
L 244.856104 193.015233 
L 245.822338 175.656329 
L 246.788571 189.543452 
L 247.754805 186.071671 
L 248.721039 193.015233 
L 249.687273 189.543452 
L 250.653506 175.656329 
L 251.61974 172.184548 
L 252.585974 189.543452 
L 253.552208 179.12811 
L 254.518442 175.656329 
L 255.484675 189.543452 
L 256.450909 193.015233 
L 257.417143 182.59989 
L 258.383377 186.071671 
L 259.34961 193.015233 
L 260.315844 189.543452 
L 261.282078 193.015233 
L 262.248312 196.487014 
L 263.214545 193.015233 
L 264.180779 179.12811 
L 265.147013 175.656329 
L 266.113247 179.12811 
L 267.079481 182.59989 
L 268.045714 193.015233 
L 269.011948 189.543452 
L 269.978182 203.430575 
L 270.944416 220.789479 
L 271.910649 213.845918 
L 272.876883 210.374137 
L 273.843117 213.845918 
L 274.809351 224.26126 
L 275.775584 227.733041 
L 276.741818 217.317699 
L 277.708052 227.733041 
L 278.674286 213.845918 
L 279.640519 210.374137 
L 280.606753 220.789479 
L 281.572987 210.374137 
L 282.539221 210.374137 
L 283.505455 203.430575 
L 284.471688 199.958795 
L 285.437922 206.902356 
L 286.404156 210.374137 
L 287.37039 179.12811 
L 288.336623 151.353863 
L 289.302857 165.240986 
L 290.269091 161.769205 
L 291.235325 158.297425 
L 292.201558 158.297425 
L 293.167792 144.410301 
L 294.134026 127.051397 
L 295.10026 123.579616 
L 296.066494 133.994959 
L 297.032727 137.46674 
L 297.998961 133.994959 
L 298.965195 127.051397 
L 299.931429 123.579616 
L 300.897662 147.882082 
L 301.863896 168.712767 
L 302.83013 175.656329 
L 303.796364 144.410301 
L 304.762597 151.353863 
L 305.728831 165.240986 
L 306.695065 168.712767 
L 307.661299 165.240986 
L 308.627532 172.184548 
L 309.593766 161.769205 
L 310.56 147.882082 
L 311.526234 144.410301 
L 312.492468 140.938521 
L 313.458701 168.712767 
L 314.424935 175.656329 
L 315.391169 189.543452 
L 316.357403 186.071671 
L 317.323636 175.656329 
L 318.28987 182.59989 
L 319.256104 175.656329 
L 320.222338 172.184548 
L 321.188571 179.12811 
L 322.154805 175.656329 
L 323.121039 182.59989 
L 324.087273 179.12811 
L 325.053506 182.59989 
L 326.01974 203.430575 
L 326.985974 193.015233 
L 327.952208 189.543452 
L 328.918442 175.656329 
L 329.884675 179.12811 
L 330.850909 172.184548 
L 331.817143 175.656329 
L 332.783377 158.297425 
L 333.74961 161.769205 
L 334.715844 179.12811 
L 335.682078 186.071671 
L 336.648312 203.430575 
L 337.614545 193.015233 
L 338.580779 213.845918 
L 339.547013 231.204822 
L 340.513247 238.148384 
L 341.479481 227.733041 
L 342.445714 203.430575 
L 343.411948 199.958795 
L 344.378182 179.12811 
L 345.344416 189.543452 
L 346.310649 196.487014 
L 347.276883 193.015233 
L 348.243117 196.487014 
L 349.209351 193.015233 
L 350.175584 206.902356 
L 351.141818 210.374137 
L 352.108052 203.430575 
L 353.074286 196.487014 
L 354.040519 186.071671 
L 355.006753 165.240986 
L 355.972987 161.769205 
L 356.939221 158.297425 
L 357.905455 161.769205 
L 358.871688 158.297425 
L 359.837922 168.712767 
L 360.804156 175.656329 
L 361.77039 161.769205 
L 362.736623 154.825644 
L 363.702857 172.184548 
L 364.669091 168.712767 
L 365.635325 175.656329 
L 366.601558 189.543452 
L 367.567792 186.071671 
L 368.534026 182.59989 
L 369.50026 165.240986 
L 370.466494 175.656329 
L 371.432727 182.59989 
L 372.398961 186.071671 
L 373.365195 189.543452 
L 374.331429 186.071671 
L 375.297662 182.59989 
L 376.263896 175.656329 
L 377.23013 186.071671 
L 378.196364 182.59989 
L 379.162597 196.487014 
L 380.128831 203.430575 
L 381.095065 210.374137 
L 382.061299 193.015233 
L 383.027532 189.543452 
L 383.993766 196.487014 
L 384.96 189.543452 
L 385.926234 186.071671 
L 386.892468 189.543452 
L 387.858701 186.071671 
L 388.824935 172.184548 
L 389.791169 175.656329 
L 390.757403 179.12811 
L 391.723636 196.487014 
L 392.68987 199.958795 
L 393.656104 182.59989 
L 394.622338 189.543452 
L 395.588571 193.015233 
L 396.554805 199.958795 
L 397.521039 189.543452 
L 398.487273 172.184548 
L 398.487273 172.184548 
L 398.487273 172.184548 
L 397.521039 189.543452 
L 396.554805 199.958795 
L 395.588571 193.015233 
L 394.622338 189.543452 
L 393.656104 182.59989 
L 392.68987 199.958795 
L 391.723636 196.487014 
L 390.757403 179.12811 
L 389.791169 175.656329 
L 388.824935 172.184548 
L 387.858701 186.071671 
L 386.892468 189.543452 
L 385.926234 186.071671 
L 384.96 189.543452 
L 383.993766 196.487014 
L 383.027532 189.543452 
L 382.061299 193.015233 
L 381.095065 210.374137 
L 380.128831 203.430575 
L 379.162597 196.487014 
L 378.196364 182.59989 
L 377.23013 186.071671 
L 376.263896 175.656329 
L 375.297662 182.59989 
L 374.331429 186.071671 
L 373.365195 189.543452 
L 372.398961 186.071671 
L 371.432727 182.59989 
L 370.466494 175.656329 
L 369.50026 165.240986 
L 368.534026 182.59989 
L 367.567792 186.071671 
L 366.601558 189.543452 
L 365.635325 175.656329 
L 364.669091 168.712767 
L 363.702857 172.184548 
L 362.736623 154.825644 
L 361.77039 161.769205 
L 360.804156 175.656329 
L 359.837922 168.712767 
L 358.871688 158.297425 
L 357.905455 161.769205 
L 356.939221 158.297425 
L 355.972987 161.769205 
L 355.006753 165.240986 
L 354.040519 186.071671 
L 353.074286 196.487014 
L 352.108052 203.430575 
L 351.141818 210.374137 
L 350.175584 206.902356 
L 349.209351 193.015233 
L 348.243117 196.487014 
L 347.276883 193.015233 
L 346.310649 196.487014 
L 345.344416 189.543452 
L 344.378182 179.12811 
L 343.411948 199.958795 
L 342.445714 203.430575 
L 341.479481 227.733041 
L 340.513247 238.148384 
L 339.547013 231.204822 
L 338.580779 213.845918 
L 337.614545 193.015233 
L 336.648312 203.430575 
L 335.682078 186.071671 
L 334.715844 179.12811 
L 333.74961 161.769205 
L 332.783377 158.297425 
L 331.817143 175.656329 
L 330.850909 172.184548 
L 329.884675 179.12811 
L 328.918442 175.656329 
L 327.952208 189.543452 
L 326.985974 193.015233 
L 326.01974 203.430575 
L 325.053506 182.59989 
L 324.087273 179.12811 
L 323.121039 182.59989 
L 322.154805 175.656329 
L 321.188571 179.12811 
L 320.222338 172.184548 
L 319.256104 175.656329 
L 318.28987 182.59989 
L 317.323636 175.656329 
L 316.357403 186.071671 
L 315.391169 189.543452 
L 314.424935 175.656329 
L 313.458701 168.712767 
L 312.492468 140.938521 
L 311.526234 144.410301 
L 310.56 147.882082 
L 309.593766 161.769205 
L 308.627532 172.184548 
L 307.661299 165.240986 
L 306.695065 168.712767 
L 305.728831 165.240986 
L 304.762597 151.353863 
L 303.796364 144.410301 
L 302.83013 175.656329 
L 301.863896 168.712767 
L 300.897662 147.882082 
L 299.931429 123.579616 
L 298.965195 127.051397 
L 297.998961 133.994959 
L 297.032727 137.46674 
L 296.066494 133.994959 
L 295.10026 123.579616 
L 294.134026 127.051397 
L 293.167792 144.410301 
L 292.201558 158.297425 
L 291.235325 158.297425 
L 290.269091 161.769205 
L 289.302857 165.240986 
L 288.336623 151.353863 
L 287.37039 179.12811 
L 286.404156 127.051397 
L 285.437922 116.636055 
L 284.471688 106.220712 
L 283.505455 109.692493 
L 282.539221 102.748932 
L 281.572987 102.748932 
L 280.606753 102.748932 
L 279.640519 95.80537 
L 278.674286 95.80537 
L 277.708052 109.692493 
L 276.741818 95.80537 
L 275.775584 102.748932 
L 274.809351 109.692493 
L 273.843117 92.333589 
L 272.876883 95.80537 
L 271.910649 113.164274 
L 270.944416 113.164274 
L 269.978182 81.918247 
L 269.011948 74.974685 
L 268.045714 61.087562 
L 267.079481 57.615781 
L 266.113247 57.615781 
L 265.147013 57.615781 
L 264.180779 57.615781 
L 263.214545 57.615781 
L 262.248312 57.615781 
L 261.282078 57.615781 
L 260.315844 57.615781 
L 259.34961 57.615781 
L 258.383377 57.615781 
L 257.417143 57.615781 
L 256.450909 57.615781 
L 255.484675 57.615781 
L 254.518442 57.615781 
L 253.552208 57.615781 
L 252.585974 57.615781 
L 251.61974 57.615781 
L 250.653506 57.615781 
L 249.687273 57.615781 
L 248.721039 57.615781 
L 247.754805 57.615781 
L 246.788571 57.615781 
L 245.822338 57.615781 
L 244.856104 57.615781 
L 243.88987 57.615781 
L 242.923636 57.615781 
L 241.957403 57.615781 
L 240.991169 57.615781 
L 240.024935 57.615781 
L 239.058701 57.615781 
L 238.092468 57.615781 
L 237.126234 57.615781 
L 236.16 57.615781 
L 235.193766 57.615781 
L 234.227532 57.615781 
L 233.261299 57.615781 
L 232.295065 57.615781 
L 231.328831 57.615781 
L 230.362597 57.615781 
L 229.396364 57.615781 
L 228.43013 57.615781 
L 227.463896 57.615781 
L 226.497662 57.615781 
L 225.531429 57.615781 
L 224.565195 57.615781 
L 223.598961 57.615781 
L 222.632727 57.615781 
L 221.666494 57.615781 
L 220.70026 57.615781 
L 219.734026 57.615781 
L 218.767792 57.615781 
L 217.801558 57.615781 
L 216.835325 57.615781 
L 215.869091 57.615781 
L 214.902857 57.615781 
L 213.936623 57.615781 
L 212.97039 57.615781 
L 212.004156 57.615781 
L 211.037922 57.615781 
L 210.071688 57.615781 
L 209.105455 57.615781 
L 208.139221 57.615781 
L 207.172987 57.615781 
L 206.206753 57.615781 
L 205.240519 57.615781 
L 204.274286 57.615781 
L 203.308052 57.615781 
L 202.341818 57.615781 
L 201.375584 57.615781 
L 200.409351 57.615781 
L 199.443117 57.615781 
L 198.476883 57.615781 
L 197.510649 57.615781 
L 196.544416 57.615781 
L 195.578182 57.615781 
L 194.611948 57.615781 
L 193.645714 57.615781 
L 192.679481 57.615781 
L 191.713247 57.615781 
L 190.747013 57.615781 
L 189.780779 57.615781 
L 188.814545 57.615781 
L 187.848312 57.615781 
L 186.882078 57.615781 
L 185.915844 57.615781 
L 184.94961 57.615781 
L 183.983377 57.615781 
L 183.017143 57.615781 
L 182.050909 57.615781 
L 181.084675 57.615781 
L 180.118442 57.615781 
L 179.152208 57.615781 
L 178.185974 57.615781 
L 177.21974 57.615781 
L 176.253506 57.615781 
L 175.287273 57.615781 
L 174.321039 57.615781 
L 173.354805 57.615781 
L 172.388571 57.615781 
L 171.422338 57.615781 
L 170.456104 57.615781 
L 169.48987 57.615781 
L 168.523636 57.615781 
L 167.557403 57.615781 
L 166.591169 57.615781 
L 165.624935 57.615781 
L 164.658701 57.615781 
L 163.692468 57.615781 
L 162.726234 57.615781 
L 161.76 57.615781 
L 160.793766 57.615781 
L 159.827532 57.615781 
L 158.861299 57.615781 
L 157.895065 57.615781 
L 156.928831 57.615781 
L 155.962597 57.615781 
L 154.996364 57.615781 
L 154.03013 57.615781 
L 153.063896 57.615781 
L 152.097662 57.615781 
L 151.131429 57.615781 
L 150.165195 57.615781 
L 149.198961 57.615781 
L 148.232727 57.615781 
L 147.266494 57.615781 
L 146.30026 57.615781 
L 145.334026 57.615781 
L 144.367792 57.615781 
L 143.401558 57.615781 
L 142.435325 57.615781 
L 141.469091 57.615781 
L 140.502857 57.615781 
L 139.536623 57.615781 
L 138.57039 57.615781 
L 137.604156 57.615781 
L 136.637922 57.615781 
L 135.671688 57.615781 
L 134.705455 57.615781 
L 133.739221 57.615781 
L 132.772987 57.615781 
L 131.806753 57.615781 
L 130.840519 57.615781 
L 129.874286 57.615781 
L 128.908052 57.615781 
L 127.941818 57.615781 
L 126.975584 57.615781 
L 126.009351 57.615781 
L 125.043117 57.615781 
L 124.076883 57.615781 
L 123.110649 57.615781 
L 122.144416 57.615781 
L 121.178182 57.615781 
L 120.211948 57.615781 
L 119.245714 57.615781 
L 118.279481 57.615781 
L 117.313247 57.615781 
L 116.347013 57.615781 
L 115.380779 57.615781 
L 114.414545 57.615781 
L 113.448312 57.615781 
L 112.482078 57.615781 
L 111.515844 57.615781 
L 110.54961 57.615781 
L 109.583377 57.615781 
L 108.617143 57.615781 
L 107.650909 57.615781 
L 106.684675 57.615781 
L 105.718442 57.615781 
L 104.752208 57.615781 
L 103.785974 57.615781 
L 102.81974 57.615781 
L 101.853506 57.615781 
L 100.887273 57.615781 
L 99.921039 57.615781 
L 98.954805 57.615781 
L 97.988571 57.615781 
L 97.022338 57.615781 
L 96.056104 57.615781 
L 95.08987 57.615781 
L 94.123636 57.615781 
L 93.157403 57.615781 
L 92.191169 57.615781 
L 91.224935 57.615781 
L 90.258701 57.615781 
L 89.292468 57.615781 
L 88.326234 57.615781 
L 87.36 57.615781 
L 86.393766 57.615781 
L 85.427532 57.615781 
L 84.461299 57.615781 
L 83.495065 57.615781 
L 82.528831 57.615781 
L 81.562597 57.615781 
L 80.596364 57.615781 
L 79.63013 57.615781 
L 78.663896 57.615781 
L 77.697662 57.615781 
L 76.731429 57.615781 
L 75.765195 57.615781 
L 74.798961 57.615781 
L 73.832727 57.615781 
z
" clip-path="url(#pb04ce42e1a)" style="fill: #ff7f0e"/>
   </g>
   <g id="PolyCollection_3">
    <path d="M 73.832727 57.615781 
L 73.832727 57.615781 
L 74.798961 57.615781 
L 75.765195 57.615781 
L 76.731429 57.615781 
L 77.697662 57.615781 
L 78.663896 57.615781 
L 79.63013 57.615781 
L 80.596364 57.615781 
L 81.562597 57.615781 
L 82.528831 57.615781 
L 83.495065 57.615781 
L 84.461299 57.615781 
L 85.427532 57.615781 
L 86.393766 57.615781 
L 87.36 57.615781 
L 88.326234 57.615781 
L 89.292468 57.615781 
L 90.258701 57.615781 
L 91.224935 57.615781 
L 92.191169 57.615781 
L 93.157403 57.615781 
L 94.123636 57.615781 
L 95.08987 57.615781 
L 96.056104 57.615781 
L 97.022338 57.615781 
L 97.988571 57.615781 
L 98.954805 57.615781 
L 99.921039 57.615781 
L 100.887273 57.615781 
L 101.853506 57.615781 
L 102.81974 57.615781 
L 103.785974 57.615781 
L 104.752208 57.615781 
L 105.718442 57.615781 
L 106.684675 57.615781 
L 107.650909 57.615781 
L 108.617143 57.615781 
L 109.583377 57.615781 
L 110.54961 57.615781 
L 111.515844 57.615781 
L 112.482078 57.615781 
L 113.448312 57.615781 
L 114.414545 57.615781 
L 115.380779 57.615781 
L 116.347013 57.615781 
L 117.313247 57.615781 
L 118.279481 57.615781 
L 119.245714 57.615781 
L 120.211948 57.615781 
L 121.178182 57.615781 
L 122.144416 57.615781 
L 123.110649 57.615781 
L 124.076883 57.615781 
L 125.043117 57.615781 
L 126.009351 57.615781 
L 126.975584 57.615781 
L 127.941818 57.615781 
L 128.908052 57.615781 
L 129.874286 57.615781 
L 130.840519 57.615781 
L 131.806753 57.615781 
L 132.772987 57.615781 
L 133.739221 57.615781 
L 134.705455 57.615781 
L 135.671688 57.615781 
L 136.637922 57.615781 
L 137.604156 57.615781 
L 138.57039 57.615781 
L 139.536623 57.615781 
L 140.502857 57.615781 
L 141.469091 57.615781 
L 142.435325 57.615781 
L 143.401558 57.615781 
L 144.367792 57.615781 
L 145.334026 57.615781 
L 146.30026 57.615781 
L 147.266494 57.615781 
L 148.232727 57.615781 
L 149.198961 57.615781 
L 150.165195 57.615781 
L 151.131429 57.615781 
L 152.097662 57.615781 
L 153.063896 57.615781 
L 154.03013 57.615781 
L 154.996364 57.615781 
L 155.962597 57.615781 
L 156.928831 57.615781 
L 157.895065 57.615781 
L 158.861299 57.615781 
L 159.827532 57.615781 
L 160.793766 57.615781 
L 161.76 57.615781 
L 162.726234 57.615781 
L 163.692468 57.615781 
L 164.658701 57.615781 
L 165.624935 57.615781 
L 166.591169 57.615781 
L 167.557403 57.615781 
L 168.523636 57.615781 
L 169.48987 57.615781 
L 170.456104 57.615781 
L 171.422338 57.615781 
L 172.388571 57.615781 
L 173.354805 57.615781 
L 174.321039 57.615781 
L 175.287273 57.615781 
L 176.253506 57.615781 
L 177.21974 57.615781 
L 178.185974 57.615781 
L 179.152208 57.615781 
L 180.118442 57.615781 
L 181.084675 57.615781 
L 182.050909 57.615781 
L 183.017143 57.615781 
L 183.983377 57.615781 
L 184.94961 57.615781 
L 185.915844 57.615781 
L 186.882078 57.615781 
L 187.848312 57.615781 
L 188.814545 57.615781 
L 189.780779 57.615781 
L 190.747013 57.615781 
L 191.713247 57.615781 
L 192.679481 57.615781 
L 193.645714 57.615781 
L 194.611948 57.615781 
L 195.578182 57.615781 
L 196.544416 57.615781 
L 197.510649 57.615781 
L 198.476883 57.615781 
L 199.443117 57.615781 
L 200.409351 57.615781 
L 201.375584 57.615781 
L 202.341818 57.615781 
L 203.308052 57.615781 
L 204.274286 57.615781 
L 205.240519 57.615781 
L 206.206753 57.615781 
L 207.172987 57.615781 
L 208.139221 57.615781 
L 209.105455 57.615781 
L 210.071688 57.615781 
L 211.037922 57.615781 
L 212.004156 57.615781 
L 212.97039 57.615781 
L 213.936623 57.615781 
L 214.902857 57.615781 
L 215.869091 57.615781 
L 216.835325 57.615781 
L 217.801558 57.615781 
L 218.767792 57.615781 
L 219.734026 57.615781 
L 220.70026 57.615781 
L 221.666494 57.615781 
L 222.632727 57.615781 
L 223.598961 57.615781 
L 224.565195 57.615781 
L 225.531429 57.615781 
L 226.497662 57.615781 
L 227.463896 57.615781 
L 228.43013 57.615781 
L 229.396364 57.615781 
L 230.362597 57.615781 
L 231.328831 57.615781 
L 232.295065 57.615781 
L 233.261299 57.615781 
L 234.227532 57.615781 
L 235.193766 57.615781 
L 236.16 57.615781 
L 237.126234 57.615781 
L 238.092468 57.615781 
L 239.058701 57.615781 
L 240.024935 57.615781 
L 240.991169 57.615781 
L 241.957403 57.615781 
L 242.923636 57.615781 
L 243.88987 57.615781 
L 244.856104 57.615781 
L 245.822338 57.615781 
L 246.788571 57.615781 
L 247.754805 57.615781 
L 248.721039 57.615781 
L 249.687273 57.615781 
L 250.653506 57.615781 
L 251.61974 57.615781 
L 252.585974 57.615781 
L 253.552208 57.615781 
L 254.518442 57.615781 
L 255.484675 57.615781 
L 256.450909 57.615781 
L 257.417143 57.615781 
L 258.383377 57.615781 
L 259.34961 57.615781 
L 260.315844 57.615781 
L 261.282078 57.615781 
L 262.248312 57.615781 
L 263.214545 57.615781 
L 264.180779 57.615781 
L 265.147013 57.615781 
L 266.113247 57.615781 
L 267.079481 57.615781 
L 268.045714 61.087562 
L 269.011948 74.974685 
L 269.978182 81.918247 
L 270.944416 113.164274 
L 271.910649 113.164274 
L 272.876883 95.80537 
L 273.843117 92.333589 
L 274.809351 109.692493 
L 275.775584 102.748932 
L 276.741818 95.80537 
L 277.708052 109.692493 
L 278.674286 95.80537 
L 279.640519 95.80537 
L 280.606753 102.748932 
L 281.572987 102.748932 
L 282.539221 102.748932 
L 283.505455 109.692493 
L 284.471688 106.220712 
L 285.437922 116.636055 
L 286.404156 127.051397 
L 287.37039 179.12811 
L 288.336623 151.353863 
L 289.302857 165.240986 
L 290.269091 161.769205 
L 291.235325 158.297425 
L 292.201558 158.297425 
L 293.167792 144.410301 
L 294.134026 127.051397 
L 295.10026 123.579616 
L 296.066494 133.994959 
L 297.032727 137.46674 
L 297.998961 133.994959 
L 298.965195 127.051397 
L 299.931429 123.579616 
L 300.897662 147.882082 
L 301.863896 168.712767 
L 302.83013 175.656329 
L 303.796364 144.410301 
L 304.762597 151.353863 
L 305.728831 165.240986 
L 306.695065 168.712767 
L 307.661299 165.240986 
L 308.627532 172.184548 
L 309.593766 161.769205 
L 310.56 147.882082 
L 311.526234 144.410301 
L 312.492468 140.938521 
L 313.458701 168.712767 
L 314.424935 175.656329 
L 315.391169 189.543452 
L 316.357403 186.071671 
L 317.323636 175.656329 
L 318.28987 182.59989 
L 319.256104 175.656329 
L 320.222338 172.184548 
L 321.188571 179.12811 
L 322.154805 175.656329 
L 323.121039 182.59989 
L 324.087273 179.12811 
L 325.053506 182.59989 
L 326.01974 203.430575 
L 326.985974 193.015233 
L 327.952208 189.543452 
L 328.918442 175.656329 
L 329.884675 179.12811 
L 330.850909 172.184548 
L 331.817143 175.656329 
L 332.783377 158.297425 
L 333.74961 161.769205 
L 334.715844 179.12811 
L 335.682078 186.071671 
L 336.648312 203.430575 
L 337.614545 193.015233 
L 338.580779 213.845918 
L 339.547013 231.204822 
L 340.513247 238.148384 
L 341.479481 227.733041 
L 342.445714 203.430575 
L 343.411948 199.958795 
L 344.378182 179.12811 
L 345.344416 189.543452 
L 346.310649 196.487014 
L 347.276883 193.015233 
L 348.243117 196.487014 
L 349.209351 193.015233 
L 350.175584 206.902356 
L 351.141818 210.374137 
L 352.108052 203.430575 
L 353.074286 196.487014 
L 354.040519 186.071671 
L 355.006753 165.240986 
L 355.972987 161.769205 
L 356.939221 158.297425 
L 357.905455 161.769205 
L 358.871688 158.297425 
L 359.837922 168.712767 
L 360.804156 175.656329 
L 361.77039 161.769205 
L 362.736623 154.825644 
L 363.702857 172.184548 
L 364.669091 168.712767 
L 365.635325 175.656329 
L 366.601558 189.543452 
L 367.567792 186.071671 
L 368.534026 182.59989 
L 369.50026 165.240986 
L 370.466494 175.656329 
L 371.432727 182.59989 
L 372.398961 186.071671 
L 373.365195 189.543452 
L 374.331429 186.071671 
L 375.297662 182.59989 
L 376.263896 175.656329 
L 377.23013 186.071671 
L 378.196364 182.59989 
L 379.162597 196.487014 
L 380.128831 203.430575 
L 381.095065 210.374137 
L 382.061299 193.015233 
L 383.027532 189.543452 
L 383.993766 196.487014 
L 384.96 189.543452 
L 385.926234 186.071671 
L 386.892468 189.543452 
L 387.858701 186.071671 
L 388.824935 172.184548 
L 389.791169 175.656329 
L 390.757403 179.12811 
L 391.723636 196.487014 
L 392.68987 199.958795 
L 393.656104 182.59989 
L 394.622338 189.543452 
L 395.588571 193.015233 
L 396.554805 199.958795 
L 397.521039 189.543452 
L 398.487273 172.184548 
L 398.487273 57.615781 
L 398.487273 57.615781 
L 397.521039 57.615781 
L 396.554805 57.615781 
L 395.588571 57.615781 
L 394.622338 57.615781 
L 393.656104 57.615781 
L 392.68987 57.615781 
L 391.723636 57.615781 
L 390.757403 57.615781 
L 389.791169 57.615781 
L 388.824935 57.615781 
L 387.858701 57.615781 
L 386.892468 57.615781 
L 385.926234 57.615781 
L 384.96 57.615781 
L 383.993766 57.615781 
L 383.027532 57.615781 
L 382.061299 57.615781 
L 381.095065 57.615781 
L 380.128831 57.615781 
L 379.162597 57.615781 
L 378.196364 57.615781 
L 377.23013 57.615781 
L 376.263896 57.615781 
L 375.297662 57.615781 
L 374.331429 57.615781 
L 373.365195 57.615781 
L 372.398961 57.615781 
L 371.432727 57.615781 
L 370.466494 57.615781 
L 369.50026 57.615781 
L 368.534026 57.615781 
L 367.567792 57.615781 
L 366.601558 57.615781 
L 365.635325 57.615781 
L 364.669091 57.615781 
L 363.702857 57.615781 
L 362.736623 57.615781 
L 361.77039 57.615781 
L 360.804156 57.615781 
L 359.837922 57.615781 
L 358.871688 57.615781 
L 357.905455 57.615781 
L 356.939221 57.615781 
L 355.972987 57.615781 
L 355.006753 57.615781 
L 354.040519 57.615781 
L 353.074286 57.615781 
L 352.108052 57.615781 
L 351.141818 57.615781 
L 350.175584 57.615781 
L 349.209351 57.615781 
L 348.243117 57.615781 
L 347.276883 57.615781 
L 346.310649 57.615781 
L 345.344416 57.615781 
L 344.378182 57.615781 
L 343.411948 57.615781 
L 342.445714 57.615781 
L 341.479481 57.615781 
L 340.513247 57.615781 
L 339.547013 57.615781 
L 338.580779 57.615781 
L 337.614545 57.615781 
L 336.648312 57.615781 
L 335.682078 57.615781 
L 334.715844 57.615781 
L 333.74961 57.615781 
L 332.783377 57.615781 
L 331.817143 57.615781 
L 330.850909 57.615781 
L 329.884675 57.615781 
L 328.918442 57.615781 
L 327.952208 57.615781 
L 326.985974 57.615781 
L 326.01974 57.615781 
L 325.053506 57.615781 
L 324.087273 57.615781 
L 323.121039 57.615781 
L 322.154805 57.615781 
L 321.188571 57.615781 
L 320.222338 57.615781 
L 319.256104 57.615781 
L 318.28987 57.615781 
L 317.323636 57.615781 
L 316.357403 57.615781 
L 315.391169 57.615781 
L 314.424935 57.615781 
L 313.458701 57.615781 
L 312.492468 57.615781 
L 311.526234 57.615781 
L 310.56 57.615781 
L 309.593766 57.615781 
L 308.627532 57.615781 
L 307.661299 57.615781 
L 306.695065 57.615781 
L 305.728831 57.615781 
L 304.762597 57.615781 
L 303.796364 57.615781 
L 302.83013 57.615781 
L 301.863896 57.615781 
L 300.897662 57.615781 
L 299.931429 57.615781 
L 298.965195 57.615781 
L 297.998961 57.615781 
L 297.032727 57.615781 
L 296.066494 57.615781 
L 295.10026 57.615781 
L 294.134026 57.615781 
L 293.167792 57.615781 
L 292.201558 57.615781 
L 291.235325 57.615781 
L 290.269091 57.615781 
L 289.302857 57.615781 
L 288.336623 57.615781 
L 287.37039 57.615781 
L 286.404156 57.615781 
L 285.437922 54.144 
L 284.471688 54.144 
L 283.505455 57.615781 
L 282.539221 57.615781 
L 281.572987 54.144 
L 280.606753 57.615781 
L 279.640519 57.615781 
L 278.674286 57.615781 
L 277.708052 57.615781 
L 276.741818 57.615781 
L 275.775584 57.615781 
L 274.809351 57.615781 
L 273.843117 57.615781 
L 272.876883 57.615781 
L 271.910649 57.615781 
L 270.944416 57.615781 
L 269.978182 57.615781 
L 269.011948 57.615781 
L 268.045714 57.615781 
L 267.079481 57.615781 
L 266.113247 57.615781 
L 265.147013 57.615781 
L 264.180779 57.615781 
L 263.214545 57.615781 
L 262.248312 57.615781 
L 261.282078 57.615781 
L 260.315844 57.615781 
L 259.34961 57.615781 
L 258.383377 57.615781 
L 257.417143 57.615781 
L 256.450909 57.615781 
L 255.484675 57.615781 
L 254.518442 57.615781 
L 253.552208 57.615781 
L 252.585974 57.615781 
L 251.61974 57.615781 
L 250.653506 57.615781 
L 249.687273 57.615781 
L 248.721039 57.615781 
L 247.754805 57.615781 
L 246.788571 57.615781 
L 245.822338 57.615781 
L 244.856104 57.615781 
L 243.88987 57.615781 
L 242.923636 57.615781 
L 241.957403 57.615781 
L 240.991169 57.615781 
L 240.024935 57.615781 
L 239.058701 57.615781 
L 238.092468 57.615781 
L 237.126234 57.615781 
L 236.16 57.615781 
L 235.193766 57.615781 
L 234.227532 57.615781 
L 233.261299 57.615781 
L 232.295065 57.615781 
L 231.328831 57.615781 
L 230.362597 57.615781 
L 229.396364 57.615781 
L 228.43013 57.615781 
L 227.463896 57.615781 
L 226.497662 57.615781 
L 225.531429 57.615781 
L 224.565195 57.615781 
L 223.598961 57.615781 
L 222.632727 57.615781 
L 221.666494 57.615781 
L 220.70026 57.615781 
L 219.734026 57.615781 
L 218.767792 57.615781 
L 217.801558 57.615781 
L 216.835325 57.615781 
L 215.869091 57.615781 
L 214.902857 57.615781 
L 213.936623 57.615781 
L 212.97039 57.615781 
L 212.004156 57.615781 
L 211.037922 57.615781 
L 210.071688 57.615781 
L 209.105455 57.615781 
L 208.139221 57.615781 
L 207.172987 57.615781 
L 206.206753 57.615781 
L 205.240519 57.615781 
L 204.274286 57.615781 
L 203.308052 57.615781 
L 202.341818 57.615781 
L 201.375584 57.615781 
L 200.409351 57.615781 
L 199.443117 57.615781 
L 198.476883 57.615781 
L 197.510649 57.615781 
L 196.544416 57.615781 
L 195.578182 57.615781 
L 194.611948 57.615781 
L 193.645714 57.615781 
L 192.679481 57.615781 
L 191.713247 57.615781 
L 190.747013 57.615781 
L 189.780779 57.615781 
L 188.814545 57.615781 
L 187.848312 57.615781 
L 186.882078 57.615781 
L 185.915844 57.615781 
L 184.94961 57.615781 
L 183.983377 57.615781 
L 183.017143 57.615781 
L 182.050909 57.615781 
L 181.084675 57.615781 
L 180.118442 57.615781 
L 179.152208 57.615781 
L 178.185974 57.615781 
L 177.21974 57.615781 
L 176.253506 57.615781 
L 175.287273 57.615781 
L 174.321039 57.615781 
L 173.354805 57.615781 
L 172.388571 57.615781 
L 171.422338 57.615781 
L 170.456104 57.615781 
L 169.48987 57.615781 
L 168.523636 57.615781 
L 167.557403 57.615781 
L 166.591169 57.615781 
L 165.624935 57.615781 
L 164.658701 57.615781 
L 163.692468 57.615781 
L 162.726234 57.615781 
L 161.76 57.615781 
L 160.793766 57.615781 
L 159.827532 57.615781 
L 158.861299 57.615781 
L 157.895065 57.615781 
L 156.928831 57.615781 
L 155.962597 57.615781 
L 154.996364 57.615781 
L 154.03013 57.615781 
L 153.063896 57.615781 
L 152.097662 57.615781 
L 151.131429 57.615781 
L 150.165195 57.615781 
L 149.198961 57.615781 
L 148.232727 57.615781 
L 147.266494 57.615781 
L 146.30026 57.615781 
L 145.334026 57.615781 
L 144.367792 57.615781 
L 143.401558 57.615781 
L 142.435325 57.615781 
L 141.469091 57.615781 
L 140.502857 57.615781 
L 139.536623 57.615781 
L 138.57039 57.615781 
L 137.604156 57.615781 
L 136.637922 57.615781 
L 135.671688 57.615781 
L 134.705455 57.615781 
L 133.739221 57.615781 
L 132.772987 57.615781 
L 131.806753 57.615781 
L 130.840519 57.615781 
L 129.874286 57.615781 
L 128.908052 57.615781 
L 127.941818 57.615781 
L 126.975584 57.615781 
L 126.009351 57.615781 
L 125.043117 57.615781 
L 124.076883 57.615781 
L 123.110649 57.615781 
L 122.144416 57.615781 
L 121.178182 57.615781 
L 120.211948 57.615781 
L 119.245714 57.615781 
L 118.279481 57.615781 
L 117.313247 57.615781 
L 116.347013 57.615781 
L 115.380779 57.615781 
L 114.414545 57.615781 
L 113.448312 57.615781 
L 112.482078 57.615781 
L 111.515844 57.615781 
L 110.54961 57.615781 
L 109.583377 57.615781 
L 108.617143 57.615781 
L 107.650909 57.615781 
L 106.684675 57.615781 
L 105.718442 57.615781 
L 104.752208 57.615781 
L 103.785974 57.615781 
L 102.81974 57.615781 
L 101.853506 57.615781 
L 100.887273 57.615781 
L 99.921039 57.615781 
L 98.954805 57.615781 
L 97.988571 57.615781 
L 97.022338 57.615781 
L 96.056104 57.615781 
L 95.08987 57.615781 
L 94.123636 57.615781 
L 93.157403 57.615781 
L 92.191169 57.615781 
L 91.224935 57.615781 
L 90.258701 57.615781 
L 89.292468 57.615781 
L 88.326234 57.615781 
L 87.36 57.615781 
L 86.393766 57.615781 
L 85.427532 57.615781 
L 84.461299 57.615781 
L 83.495065 57.615781 
L 82.528831 57.615781 
L 81.562597 57.615781 
L 80.596364 57.615781 
L 79.63013 57.615781 
L 78.663896 57.615781 
L 77.697662 57.615781 
L 76.731429 57.615781 
L 75.765195 57.615781 
L 74.798961 57.615781 
L 73.832727 57.615781 
z
" clip-path="url(#pb04ce42e1a)" style="fill: #2ca02c"/>
   </g>
   <g id="matplotlib.axis_1">
    <g id="xtick_1">
     <g id="line2d_1">
      <defs>
       <path id="m8ba249bcf6" d="M 0 0 
L 0 3.5 
" style="stroke: #000000; stroke-width: 0.8"/>
      </defs>
      <g>
       <use xlink:href="#m8ba249bcf6" x="73.832727" y="307.584" style="stroke: #000000; stroke-width: 0.8"/>
      </g>
     </g>
     <g id="text_1">
      <!-- 0 -->
      <g transform="translate(70.651477 322.182437) scale(0.1 -0.1)">
       <defs>
        <path id="DejaVuSans-30" d="M 2034 4250 
Q 1547 4250 1301 3770 
Q 1056 3291 1056 2328 
Q 1056 1369 1301 889 
Q 1547 409 2034 409 
Q 2525 409 2770 889 
Q 3016 1369 3016 2328 
Q 3016 3291 2770 3770 
Q 2525 4250 2034 4250 
z
M 2034 4750 
Q 2819 4750 3233 4129 
Q 3647 3509 3647 2328 
Q 3647 1150 3233 529 
Q 2819 -91 2034 -91 
Q 1250 -91 836 529 
Q 422 1150 422 2328 
Q 422 3509 836 4129 
Q 1250 4750 2034 4750 
z
" transform="scale(0.015625)"/>
       </defs>
       <use xlink:href="#DejaVuSans-30"/>
      </g>
     </g>
    </g>
    <g id="xtick_2">
     <g id="line2d_2">
      <g>
       <use xlink:href="#m8ba249bcf6" x="122.144416" y="307.584" style="stroke: #000000; stroke-width: 0.8"/>
      </g>
     </g>
     <g id="text_2">
      <!-- 50 -->
      <g transform="translate(115.781916 322.182437) scale(0.1 -0.1)">
       <defs>
        <path id="DejaVuSans-35" d="M 691 4666 
L 3169 4666 
L 3169 4134 
L 1269 4134 
L 1269 2991 
Q 1406 3038 1543 3061 
Q 1681 3084 1819 3084 
Q 2600 3084 3056 2656 
Q 3513 2228 3513 1497 
Q 3513 744 3044 326 
Q 2575 -91 1722 -91 
Q 1428 -91 1123 -41 
Q 819 9 494 109 
L 494 744 
Q 775 591 1075 516 
Q 1375 441 1709 441 
Q 2250 441 2565 725 
Q 2881 1009 2881 1497 
Q 2881 1984 2565 2268 
Q 2250 2553 1709 2553 
Q 1456 2553 1204 2497 
Q 953 2441 691 2322 
L 691 4666 
z
" transform="scale(0.015625)"/>
       </defs>
       <use xlink:href="#DejaVuSans-35"/>
       <use xlink:href="#DejaVuSans-30" x="63.623047"/>
      </g>
     </g>
    </g>
    <g id="xtick_3">
     <g id="line2d_3">
      <g>
       <use xlink:href="#m8ba249bcf6" x="170.456104" y="307.584" style="stroke: #000000; stroke-width: 0.8"/>
      </g>
     </g>
     <g id="text_3">
      <!-- 100 -->
      <g transform="translate(160.912354 322.182437) scale(0.1 -0.1)">
       <defs>
        <path id="DejaVuSans-31" d="M 794 531 
L 1825 531 
L 1825 4091 
L 703 3866 
L 703 4441 
L 1819 4666 
L 2450 4666 
L 2450 531 
L 3481 531 
L 3481 0 
L 794 0 
L 794 531 
z
" transform="scale(0.015625)"/>
       </defs>
       <use xlink:href="#DejaVuSans-31"/>
       <use xlink:href="#DejaVuSans-30" x="63.623047"/>
       <use xlink:href="#DejaVuSans-30" x="127.246094"/>
      </g>
     </g>
    </g>
    <g id="xtick_4">
     <g id="line2d_4">
      <g>
       <use xlink:href="#m8ba249bcf6" x="218.767792" y="307.584" style="stroke: #000000; stroke-width: 0.8"/>
      </g>
     </g>
     <g id="text_4">
      <!-- 150 -->
      <g transform="translate(209.224042 322.182437) scale(0.1 -0.1)">
       <use xlink:href="#DejaVuSans-31"/>
       <use xlink:href="#DejaVuSans-35" x="63.623047"/>
       <use xlink:href="#DejaVuSans-30" x="127.246094"/>
      </g>
     </g>
    </g>
    <g id="xtick_5">
     <g id="line2d_5">
      <g>
       <use xlink:href="#m8ba249bcf6" x="267.079481" y="307.584" style="stroke: #000000; stroke-width: 0.8"/>
      </g>
     </g>
     <g id="text_5">
      <!-- 200 -->
      <g transform="translate(257.535731 322.182437) scale(0.1 -0.1)">
       <defs>
        <path id="DejaVuSans-32" d="M 1228 531 
L 3431 531 
L 3431 0 
L 469 0 
L 469 531 
Q 828 903 1448 1529 
Q 2069 2156 2228 2338 
Q 2531 2678 2651 2914 
Q 2772 3150 2772 3378 
Q 2772 3750 2511 3984 
Q 2250 4219 1831 4219 
Q 1534 4219 1204 4116 
Q 875 4013 500 3803 
L 500 4441 
Q 881 4594 1212 4672 
Q 1544 4750 1819 4750 
Q 2544 4750 2975 4387 
Q 3406 4025 3406 3419 
Q 3406 3131 3298 2873 
Q 3191 2616 2906 2266 
Q 2828 2175 2409 1742 
Q 1991 1309 1228 531 
z
" transform="scale(0.015625)"/>
       </defs>
       <use xlink:href="#DejaVuSans-32"/>
       <use xlink:href="#DejaVuSans-30" x="63.623047"/>
       <use xlink:href="#DejaVuSans-30" x="127.246094"/>
      </g>
     </g>
    </g>
    <g id="xtick_6">
     <g id="line2d_6">
      <g>
       <use xlink:href="#m8ba249bcf6" x="315.391169" y="307.584" style="stroke: #000000; stroke-width: 0.8"/>
      </g>
     </g>
     <g id="text_6">
      <!-- 250 -->
      <g transform="translate(305.847419 322.182437) scale(0.1 -0.1)">
       <use xlink:href="#DejaVuSans-32"/>
       <use xlink:href="#DejaVuSans-35" x="63.623047"/>
       <use xlink:href="#DejaVuSans-30" x="127.246094"/>
      </g>
     </g>
    </g>
    <g id="xtick_7">
     <g id="line2d_7">
      <g>
       <use xlink:href="#m8ba249bcf6" x="363.702857" y="307.584" style="stroke: #000000; stroke-width: 0.8"/>
      </g>
     </g>
     <g id="text_7">
      <!-- 300 -->
      <g transform="translate(354.159107 322.182437) scale(0.1 -0.1)">
       <defs>
        <path id="DejaVuSans-33" d="M 2597 2516 
Q 3050 2419 3304 2112 
Q 3559 1806 3559 1356 
Q 3559 666 3084 287 
Q 2609 -91 1734 -91 
Q 1441 -91 1130 -33 
Q 819 25 488 141 
L 488 750 
Q 750 597 1062 519 
Q 1375 441 1716 441 
Q 2309 441 2620 675 
Q 2931 909 2931 1356 
Q 2931 1769 2642 2001 
Q 2353 2234 1838 2234 
L 1294 2234 
L 1294 2753 
L 1863 2753 
Q 2328 2753 2575 2939 
Q 2822 3125 2822 3475 
Q 2822 3834 2567 4026 
Q 2313 4219 1838 4219 
Q 1578 4219 1281 4162 
Q 984 4106 628 3988 
L 628 4550 
Q 988 4650 1302 4700 
Q 1616 4750 1894 4750 
Q 2613 4750 3031 4423 
Q 3450 4097 3450 3541 
Q 3450 3153 3228 2886 
Q 3006 2619 2597 2516 
z
" transform="scale(0.015625)"/>
       </defs>
       <use xlink:href="#DejaVuSans-33"/>
       <use xlink:href="#DejaVuSans-30" x="63.623047"/>
       <use xlink:href="#DejaVuSans-30" x="127.246094"/>
      </g>
     </g>
    </g>
    <g id="xtick_8">
     <g id="line2d_8">
      <g>
       <use xlink:href="#m8ba249bcf6" x="412.014545" y="307.584" style="stroke: #000000; stroke-width: 0.8"/>
      </g>
     </g>
     <g id="text_8">
      <!-- 350 -->
      <g transform="translate(402.470795 322.182437) scale(0.1 -0.1)">
       <use xlink:href="#DejaVuSans-33"/>
       <use xlink:href="#DejaVuSans-35" x="63.623047"/>
       <use xlink:href="#DejaVuSans-30" x="127.246094"/>
      </g>
     </g>
    </g>
    <g id="text_9">
     <!-- Generations -->
     <g transform="translate(205.662344 335.860562) scale(0.1 -0.1)">
      <defs>
       <path id="DejaVuSans-47" d="M 3809 666 
L 3809 1919 
L 2778 1919 
L 2778 2438 
L 4434 2438 
L 4434 434 
Q 4069 175 3628 42 
Q 3188 -91 2688 -91 
Q 1594 -91 976 548 
Q 359 1188 359 2328 
Q 359 3472 976 4111 
Q 1594 4750 2688 4750 
Q 3144 4750 3555 4637 
Q 3966 4525 4313 4306 
L 4313 3634 
Q 3963 3931 3569 4081 
Q 3175 4231 2741 4231 
Q 1884 4231 1454 3753 
Q 1025 3275 1025 2328 
Q 1025 1384 1454 906 
Q 1884 428 2741 428 
Q 3075 428 3337 486 
Q 3600 544 3809 666 
z
" transform="scale(0.015625)"/>
       <path id="DejaVuSans-65" d="M 3597 1894 
L 3597 1613 
L 953 1613 
Q 991 1019 1311 708 
Q 1631 397 2203 397 
Q 2534 397 2845 478 
Q 3156 559 3463 722 
L 3463 178 
Q 3153 47 2828 -22 
Q 2503 -91 2169 -91 
Q 1331 -91 842 396 
Q 353 884 353 1716 
Q 353 2575 817 3079 
Q 1281 3584 2069 3584 
Q 2775 3584 3186 3129 
Q 3597 2675 3597 1894 
z
M 3022 2063 
Q 3016 2534 2758 2815 
Q 2500 3097 2075 3097 
Q 1594 3097 1305 2825 
Q 1016 2553 972 2059 
L 3022 2063 
z
" transform="scale(0.015625)"/>
       <path id="DejaVuSans-6e" d="M 3513 2113 
L 3513 0 
L 2938 0 
L 2938 2094 
Q 2938 2591 2744 2837 
Q 2550 3084 2163 3084 
Q 1697 3084 1428 2787 
Q 1159 2491 1159 1978 
L 1159 0 
L 581 0 
L 581 3500 
L 1159 3500 
L 1159 2956 
Q 1366 3272 1645 3428 
Q 1925 3584 2291 3584 
Q 2894 3584 3203 3211 
Q 3513 2838 3513 2113 
z
" transform="scale(0.015625)"/>
       <path id="DejaVuSans-72" d="M 2631 2963 
Q 2534 3019 2420 3045 
Q 2306 3072 2169 3072 
Q 1681 3072 1420 2755 
Q 1159 2438 1159 1844 
L 1159 0 
L 581 0 
L 581 3500 
L 1159 3500 
L 1159 2956 
Q 1341 3275 1631 3429 
Q 1922 3584 2338 3584 
Q 2397 3584 2469 3576 
Q 2541 3569 2628 3553 
L 2631 2963 
z
" transform="scale(0.015625)"/>
       <path id="DejaVuSans-61" d="M 2194 1759 
Q 1497 1759 1228 1600 
Q 959 1441 959 1056 
Q 959 750 1161 570 
Q 1363 391 1709 391 
Q 2188 391 2477 730 
Q 2766 1069 2766 1631 
L 2766 1759 
L 2194 1759 
z
M 3341 1997 
L 3341 0 
L 2766 0 
L 2766 531 
Q 2569 213 2275 61 
Q 1981 -91 1556 -91 
Q 1019 -91 701 211 
Q 384 513 384 1019 
Q 384 1609 779 1909 
Q 1175 2209 1959 2209 
L 2766 2209 
L 2766 2266 
Q 2766 2663 2505 2880 
Q 2244 3097 1772 3097 
Q 1472 3097 1187 3025 
Q 903 2953 641 2809 
L 641 3341 
Q 956 3463 1253 3523 
Q 1550 3584 1831 3584 
Q 2591 3584 2966 3190 
Q 3341 2797 3341 1997 
z
" transform="scale(0.015625)"/>
       <path id="DejaVuSans-74" d="M 1172 4494 
L 1172 3500 
L 2356 3500 
L 2356 3053 
L 1172 3053 
L 1172 1153 
Q 1172 725 1289 603 
Q 1406 481 1766 481 
L 2356 481 
L 2356 0 
L 1766 0 
Q 1100 0 847 248 
Q 594 497 594 1153 
L 594 3053 
L 172 3053 
L 172 3500 
L 594 3500 
L 594 4494 
L 1172 4494 
z
" transform="scale(0.015625)"/>
       <path id="DejaVuSans-69" d="M 603 3500 
L 1178 3500 
L 1178 0 
L 603 0 
L 603 3500 
z
M 603 4863 
L 1178 4863 
L 1178 4134 
L 603 4134 
L 603 4863 
z
" transform="scale(0.015625)"/>
       <path id="DejaVuSans-6f" d="M 1959 3097 
Q 1497 3097 1228 2736 
Q 959 2375 959 1747 
Q 959 1119 1226 758 
Q 1494 397 1959 397 
Q 2419 397 2687 759 
Q 2956 1122 2956 1747 
Q 2956 2369 2687 2733 
Q 2419 3097 1959 3097 
z
M 1959 3584 
Q 2709 3584 3137 3096 
Q 3566 2609 3566 1747 
Q 3566 888 3137 398 
Q 2709 -91 1959 -91 
Q 1206 -91 779 398 
Q 353 888 353 1747 
Q 353 2609 779 3096 
Q 1206 3584 1959 3584 
z
" transform="scale(0.015625)"/>
       <path id="DejaVuSans-73" d="M 2834 3397 
L 2834 2853 
Q 2591 2978 2328 3040 
Q 2066 3103 1784 3103 
Q 1356 3103 1142 2972 
Q 928 2841 928 2578 
Q 928 2378 1081 2264 
Q 1234 2150 1697 2047 
L 1894 2003 
Q 2506 1872 2764 1633 
Q 3022 1394 3022 966 
Q 3022 478 2636 193 
Q 2250 -91 1575 -91 
Q 1294 -91 989 -36 
Q 684 19 347 128 
L 347 722 
Q 666 556 975 473 
Q 1284 391 1588 391 
Q 1994 391 2212 530 
Q 2431 669 2431 922 
Q 2431 1156 2273 1281 
Q 2116 1406 1581 1522 
L 1381 1569 
Q 847 1681 609 1914 
Q 372 2147 372 2553 
Q 372 3047 722 3315 
Q 1072 3584 1716 3584 
Q 2034 3584 2315 3537 
Q 2597 3491 2834 3397 
z
" transform="scale(0.015625)"/>
      </defs>
      <use xlink:href="#DejaVuSans-47"/>
      <use xlink:href="#DejaVuSans-65" x="77.490234"/>
      <use xlink:href="#DejaVuSans-6e" x="139.013672"/>
      <use xlink:href="#DejaVuSans-65" x="202.392578"/>
      <use xlink:href="#DejaVuSans-72" x="263.916016"/>
      <use xlink:href="#DejaVuSans-61" x="305.029297"/>
      <use xlink:href="#DejaVuSans-74" x="366.308594"/>
      <use xlink:href="#DejaVuSans-69" x="405.517578"/>
      <use xlink:href="#DejaVuSans-6f" x="433.300781"/>
      <use xlink:href="#DejaVuSans-6e" x="494.482422"/>
      <use xlink:href="#DejaVuSans-73" x="557.861328"/>
     </g>
    </g>
   </g>
   <g id="matplotlib.axis_2">
    <g id="ytick_1">
     <g id="line2d_9">
      <defs>
       <path id="me12737879f" d="M 0 0 
L -3.5 0 
" style="stroke: #000000; stroke-width: 0.8"/>
      </defs>
      <g>
       <use xlink:href="#me12737879f" x="57.6" y="307.584" style="stroke: #000000; stroke-width: 0.8"/>
      </g>
     </g>
     <g id="text_10">
      <!-- 0 -->
      <g transform="translate(44.2375 311.383219) scale(0.1 -0.1)">
       <use xlink:href="#DejaVuSans-30"/>
      </g>
     </g>
    </g>
    <g id="ytick_2">
     <g id="line2d_10">
      <g>
       <use xlink:href="#me12737879f" x="57.6" y="272.866192" style="stroke: #000000; stroke-width: 0.8"/>
      </g>
     </g>
     <g id="text_11">
      <!-- 10 -->
      <g transform="translate(37.875 276.665411) scale(0.1 -0.1)">
       <use xlink:href="#DejaVuSans-31"/>
       <use xlink:href="#DejaVuSans-30" x="63.623047"/>
      </g>
     </g>
    </g>
    <g id="ytick_3">
     <g id="line2d_11">
      <g>
       <use xlink:href="#me12737879f" x="57.6" y="238.148384" style="stroke: #000000; stroke-width: 0.8"/>
      </g>
     </g>
     <g id="text_12">
      <!-- 20 -->
      <g transform="translate(37.875 241.947602) scale(0.1 -0.1)">
       <use xlink:href="#DejaVuSans-32"/>
       <use xlink:href="#DejaVuSans-30" x="63.623047"/>
      </g>
     </g>
    </g>
    <g id="ytick_4">
     <g id="line2d_12">
      <g>
       <use xlink:href="#me12737879f" x="57.6" y="203.430575" style="stroke: #000000; stroke-width: 0.8"/>
      </g>
     </g>
     <g id="text_13">
      <!-- 30 -->
      <g transform="translate(37.875 207.229794) scale(0.1 -0.1)">
       <use xlink:href="#DejaVuSans-33"/>
       <use xlink:href="#DejaVuSans-30" x="63.623047"/>
      </g>
     </g>
    </g>
    <g id="ytick_5">
     <g id="line2d_13">
      <g>
       <use xlink:href="#me12737879f" x="57.6" y="168.712767" style="stroke: #000000; stroke-width: 0.8"/>
      </g>
     </g>
     <g id="text_14">
      <!-- 40 -->
      <g transform="translate(37.875 172.511986) scale(0.1 -0.1)">
       <defs>
        <path id="DejaVuSans-34" d="M 2419 4116 
L 825 1625 
L 2419 1625 
L 2419 4116 
z
M 2253 4666 
L 3047 4666 
L 3047 1625 
L 3713 1625 
L 3713 1100 
L 3047 1100 
L 3047 0 
L 2419 0 
L 2419 1100 
L 313 1100 
L 313 1709 
L 2253 4666 
z
" transform="scale(0.015625)"/>
       </defs>
       <use xlink:href="#DejaVuSans-34"/>
       <use xlink:href="#DejaVuSans-30" x="63.623047"/>
      </g>
     </g>
    </g>
    <g id="ytick_6">
     <g id="line2d_14">
      <g>
       <use xlink:href="#me12737879f" x="57.6" y="133.994959" style="stroke: #000000; stroke-width: 0.8"/>
      </g>
     </g>
     <g id="text_15">
      <!-- 50 -->
      <g transform="translate(37.875 137.794178) scale(0.1 -0.1)">
       <use xlink:href="#DejaVuSans-35"/>
       <use xlink:href="#DejaVuSans-30" x="63.623047"/>
      </g>
     </g>
    </g>
    <g id="ytick_7">
     <g id="line2d_15">
      <g>
       <use xlink:href="#me12737879f" x="57.6" y="99.277151" style="stroke: #000000; stroke-width: 0.8"/>
      </g>
     </g>
     <g id="text_16">
      <!-- 60 -->
      <g transform="translate(37.875 103.076369) scale(0.1 -0.1)">
       <defs>
        <path id="DejaVuSans-36" d="M 2113 2584 
Q 1688 2584 1439 2293 
Q 1191 2003 1191 1497 
Q 1191 994 1439 701 
Q 1688 409 2113 409 
Q 2538 409 2786 701 
Q 3034 994 3034 1497 
Q 3034 2003 2786 2293 
Q 2538 2584 2113 2584 
z
M 3366 4563 
L 3366 3988 
Q 3128 4100 2886 4159 
Q 2644 4219 2406 4219 
Q 1781 4219 1451 3797 
Q 1122 3375 1075 2522 
Q 1259 2794 1537 2939 
Q 1816 3084 2150 3084 
Q 2853 3084 3261 2657 
Q 3669 2231 3669 1497 
Q 3669 778 3244 343 
Q 2819 -91 2113 -91 
Q 1303 -91 875 529 
Q 447 1150 447 2328 
Q 447 3434 972 4092 
Q 1497 4750 2381 4750 
Q 2619 4750 2861 4703 
Q 3103 4656 3366 4563 
z
" transform="scale(0.015625)"/>
       </defs>
       <use xlink:href="#DejaVuSans-36"/>
       <use xlink:href="#DejaVuSans-30" x="63.623047"/>
      </g>
     </g>
    </g>
    <g id="ytick_8">
     <g id="line2d_16">
      <g>
       <use xlink:href="#me12737879f" x="57.6" y="64.559342" style="stroke: #000000; stroke-width: 0.8"/>
      </g>
     </g>
     <g id="text_17">
      <!-- 70 -->
      <g transform="translate(37.875 68.358561) scale(0.1 -0.1)">
       <defs>
        <path id="DejaVuSans-37" d="M 525 4666 
L 3525 4666 
L 3525 4397 
L 1831 0 
L 1172 0 
L 2766 4134 
L 525 4134 
L 525 4666 
z
" transform="scale(0.015625)"/>
       </defs>
       <use xlink:href="#DejaVuSans-37"/>
       <use xlink:href="#DejaVuSans-30" x="63.623047"/>
      </g>
     </g>
    </g>
    <g id="text_18">
     <!-- Size per Species -->
     <g transform="translate(31.795312 215.520969) rotate(-90) scale(0.1 -0.1)">
      <defs>
       <path id="DejaVuSans-53" d="M 3425 4513 
L 3425 3897 
Q 3066 4069 2747 4153 
Q 2428 4238 2131 4238 
Q 1616 4238 1336 4038 
Q 1056 3838 1056 3469 
Q 1056 3159 1242 3001 
Q 1428 2844 1947 2747 
L 2328 2669 
Q 3034 2534 3370 2195 
Q 3706 1856 3706 1288 
Q 3706 609 3251 259 
Q 2797 -91 1919 -91 
Q 1588 -91 1214 -16 
Q 841 59 441 206 
L 441 856 
Q 825 641 1194 531 
Q 1563 422 1919 422 
Q 2459 422 2753 634 
Q 3047 847 3047 1241 
Q 3047 1584 2836 1778 
Q 2625 1972 2144 2069 
L 1759 2144 
Q 1053 2284 737 2584 
Q 422 2884 422 3419 
Q 422 4038 858 4394 
Q 1294 4750 2059 4750 
Q 2388 4750 2728 4690 
Q 3069 4631 3425 4513 
z
" transform="scale(0.015625)"/>
       <path id="DejaVuSans-7a" d="M 353 3500 
L 3084 3500 
L 3084 2975 
L 922 459 
L 3084 459 
L 3084 0 
L 275 0 
L 275 525 
L 2438 3041 
L 353 3041 
L 353 3500 
z
" transform="scale(0.015625)"/>
       <path id="DejaVuSans-20" transform="scale(0.015625)"/>
       <path id="DejaVuSans-70" d="M 1159 525 
L 1159 -1331 
L 581 -1331 
L 581 3500 
L 1159 3500 
L 1159 2969 
Q 1341 3281 1617 3432 
Q 1894 3584 2278 3584 
Q 2916 3584 3314 3078 
Q 3713 2572 3713 1747 
Q 3713 922 3314 415 
Q 2916 -91 2278 -91 
Q 1894 -91 1617 61 
Q 1341 213 1159 525 
z
M 3116 1747 
Q 3116 2381 2855 2742 
Q 2594 3103 2138 3103 
Q 1681 3103 1420 2742 
Q 1159 2381 1159 1747 
Q 1159 1113 1420 752 
Q 1681 391 2138 391 
Q 2594 391 2855 752 
Q 3116 1113 3116 1747 
z
" transform="scale(0.015625)"/>
       <path id="DejaVuSans-63" d="M 3122 3366 
L 3122 2828 
Q 2878 2963 2633 3030 
Q 2388 3097 2138 3097 
Q 1578 3097 1268 2742 
Q 959 2388 959 1747 
Q 959 1106 1268 751 
Q 1578 397 2138 397 
Q 2388 397 2633 464 
Q 2878 531 3122 666 
L 3122 134 
Q 2881 22 2623 -34 
Q 2366 -91 2075 -91 
Q 1284 -91 818 406 
Q 353 903 353 1747 
Q 353 2603 823 3093 
Q 1294 3584 2113 3584 
Q 2378 3584 2631 3529 
Q 2884 3475 3122 3366 
z
" transform="scale(0.015625)"/>
      </defs>
      <use xlink:href="#DejaVuSans-53"/>
      <use xlink:href="#DejaVuSans-69" x="63.476562"/>
      <use xlink:href="#DejaVuSans-7a" x="91.259766"/>
      <use xlink:href="#DejaVuSans-65" x="143.75"/>
      <use xlink:href="#DejaVuSans-20" x="205.273438"/>
      <use xlink:href="#DejaVuSans-70" x="237.060547"/>
      <use xlink:href="#DejaVuSans-65" x="300.537109"/>
      <use xlink:href="#DejaVuSans-72" x="362.060547"/>
      <use xlink:href="#DejaVuSans-20" x="403.173828"/>
      <use xlink:href="#DejaVuSans-53" x="434.960938"/>
      <use xlink:href="#DejaVuSans-70" x="498.4375"/>
      <use xlink:href="#DejaVuSans-65" x="561.914062"/>
      <use xlink:href="#DejaVuSans-63" x="623.4375"/>
      <use xlink:href="#DejaVuSans-69" x="678.417969"/>
      <use xlink:href="#DejaVuSans-65" x="706.201172"/>
      <use xlink:href="#DejaVuSans-73" x="767.724609"/>
     </g>
    </g>
   </g>
   <g id="patch_3">
    <path d="M 57.6 307.584 
L 57.6 41.472 
" style="fill: none; stroke: #000000; stroke-width: 0.8; stroke-linejoin: miter; stroke-linecap: square"/>
   </g>
   <g id="patch_4">
    <path d="M 414.72 307.584 
L 414.72 41.472 
" style="fill: none; stroke: #000000; stroke-width: 0.8; stroke-linejoin: miter; stroke-linecap: square"/>
   </g>
   <g id="patch_5">
    <path d="M 57.6 307.584 
L 414.72 307.584 
" style="fill: none; stroke: #000000; stroke-width: 0.8; stroke-linejoin: miter; stroke-linecap: square"/>
   </g>
   <g id="patch_6">
    <path d="M 57.6 41.472 
L 414.72 41.472 
" style="fill: none; stroke: #000000; stroke-width: 0.8; stroke-linejoin: miter; stroke-linecap: square"/>
   </g>
   <g id="text_19">
    <!-- Speciation -->
    <g transform="translate(204.714375 35.472) scale(0.12 -0.12)">
     <use xlink:href="#DejaVuSans-53"/>
     <use xlink:href="#DejaVuSans-70" x="63.476562"/>
     <use xlink:href="#DejaVuSans-65" x="126.953125"/>
     <use xlink:href="#DejaVuSans-63" x="188.476562"/>
     <use xlink:href="#DejaVuSans-69" x="243.457031"/>
     <use xlink:href="#DejaVuSans-61" x="271.240234"/>
     <use xlink:href="#DejaVuSans-74" x="332.519531"/>
     <use xlink:href="#DejaVuSans-69" x="371.728516"/>
     <use xlink:href="#DejaVuSans-6f" x="399.511719"/>
     <use xlink:href="#DejaVuSans-6e" x="460.693359"/>
    </g>
   </g>
  </g>
 </g>
 <defs>
  <clipPath id="pb04ce42e1a">
   <rect x="57.6" y="41.472" width="357.12" height="266.112"/>
  </clipPath>
 </defs>
</svg>
