<?xml version="1.0" encoding="utf-8" standalone="no"?>
<!DOCTYPE svg PUBLIC "-//W3C//DTD SVG 1.1//EN"
  "http://www.w3.org/Graphics/SVG/1.1/DTD/svg11.dtd">
<svg xmlns:xlink="http://www.w3.org/1999/xlink" width="460.8pt" height="345.6pt" viewBox="0 0 460.8 345.6" xmlns="http://www.w3.org/2000/svg" version="1.1">
 <metadata>
  <rdf:RDF xmlns:dc="http://purl.org/dc/elements/1.1/" xmlns:cc="http://creativecommons.org/ns#" xmlns:rdf="http://www.w3.org/1999/02/22-rdf-syntax-ns#">
   <cc:Work>
    <dc:type rdf:resource="http://purl.org/dc/dcmitype/StillImage"/>
    <dc:date>2023-02-09T22:29:48.878898</dc:date>
    <dc:format>image/svg+xml</dc:format>
    <dc:creator>
     <cc:Agent>
      <dc:title>Matplotlib v3.6.3, https://matplotlib.org/</dc:title>
     </cc:Agent>
    </dc:creator>
   </cc:Work>
  </rdf:RDF>
 </metadata>
 <defs>
  <style type="text/css">*{stroke-linejoin: round; stroke-linecap: butt}</style>
 </defs>
 <g id="figure_1">
  <g id="patch_1">
   <path d="M 0 345.6 
L 460.8 345.6 
L 460.8 0 
L 0 0 
z
" style="fill: #ffffff"/>
  </g>
  <g id="axes_1">
   <g id="patch_2">
    <path d="M 57.6 307.584 
L 414.72 307.584 
L 414.72 41.472 
L 57.6 41.472 
z
" style="fill: #ffffff"/>
   </g>
   <g id="matplotlib.axis_1">
    <g id="xtick_1">
     <g id="line2d_1">
      <path d="M 73.832727 307.584 
L 73.832727 41.472 
" clip-path="url(#ped1a5c85a5)" style="fill: none; stroke: #b0b0b0; stroke-width: 0.8; stroke-linecap: square"/>
     </g>
     <g id="line2d_2">
      <defs>
       <path id="m514f071014" d="M 0 0 
L 0 3.5 
" style="stroke: #000000; stroke-width: 0.8"/>
      </defs>
      <g>
       <use xlink:href="#m514f071014" x="73.832727" y="307.584" style="stroke: #000000; stroke-width: 0.8"/>
      </g>
     </g>
     <g id="text_1">
      <!-- 0 -->
      <g transform="translate(70.651477 322.182437) scale(0.1 -0.1)">
       <defs>
        <path id="DejaVuSans-30" d="M 2034 4250 
Q 1547 4250 1301 3770 
Q 1056 3291 1056 2328 
Q 1056 1369 1301 889 
Q 1547 409 2034 409 
Q 2525 409 2770 889 
Q 3016 1369 3016 2328 
Q 3016 3291 2770 3770 
Q 2525 4250 2034 4250 
z
M 2034 4750 
Q 2819 4750 3233 4129 
Q 3647 3509 3647 2328 
Q 3647 1150 3233 529 
Q 2819 -91 2034 -91 
Q 1250 -91 836 529 
Q 422 1150 422 2328 
Q 422 3509 836 4129 
Q 1250 4750 2034 4750 
z
" transform="scale(0.015625)"/>
       </defs>
       <use xlink:href="#DejaVuSans-30"/>
      </g>
     </g>
    </g>
    <g id="xtick_2">
     <g id="line2d_3">
      <path d="M 118.612665 307.584 
L 118.612665 41.472 
" clip-path="url(#ped1a5c85a5)" style="fill: none; stroke: #b0b0b0; stroke-width: 0.8; stroke-linecap: square"/>
     </g>
     <g id="line2d_4">
      <g>
       <use xlink:href="#m514f071014" x="118.612665" y="307.584" style="stroke: #000000; stroke-width: 0.8"/>
      </g>
     </g>
     <g id="text_2">
      <!-- 20 -->
      <g transform="translate(112.250165 322.182437) scale(0.1 -0.1)">
       <defs>
        <path id="DejaVuSans-32" d="M 1228 531 
L 3431 531 
L 3431 0 
L 469 0 
L 469 531 
Q 828 903 1448 1529 
Q 2069 2156 2228 2338 
Q 2531 2678 2651 2914 
Q 2772 3150 2772 3378 
Q 2772 3750 2511 3984 
Q 2250 4219 1831 4219 
Q 1534 4219 1204 4116 
Q 875 4013 500 3803 
L 500 4441 
Q 881 4594 1212 4672 
Q 1544 4750 1819 4750 
Q 2544 4750 2975 4387 
Q 3406 4025 3406 3419 
Q 3406 3131 3298 2873 
Q 3191 2616 2906 2266 
Q 2828 2175 2409 1742 
Q 1991 1309 1228 531 
z
" transform="scale(0.015625)"/>
       </defs>
       <use xlink:href="#DejaVuSans-32"/>
       <use xlink:href="#DejaVuSans-30" x="63.623047"/>
      </g>
     </g>
    </g>
    <g id="xtick_3">
     <g id="line2d_5">
      <path d="M 163.392602 307.584 
L 163.392602 41.472 
" clip-path="url(#ped1a5c85a5)" style="fill: none; stroke: #b0b0b0; stroke-width: 0.8; stroke-linecap: square"/>
     </g>
     <g id="line2d_6">
      <g>
       <use xlink:href="#m514f071014" x="163.392602" y="307.584" style="stroke: #000000; stroke-width: 0.8"/>
      </g>
     </g>
     <g id="text_3">
      <!-- 40 -->
      <g transform="translate(157.030102 322.182437) scale(0.1 -0.1)">
       <defs>
        <path id="DejaVuSans-34" d="M 2419 4116 
L 825 1625 
L 2419 1625 
L 2419 4116 
z
M 2253 4666 
L 3047 4666 
L 3047 1625 
L 3713 1625 
L 3713 1100 
L 3047 1100 
L 3047 0 
L 2419 0 
L 2419 1100 
L 313 1100 
L 313 1709 
L 2253 4666 
z
" transform="scale(0.015625)"/>
       </defs>
       <use xlink:href="#DejaVuSans-34"/>
       <use xlink:href="#DejaVuSans-30" x="63.623047"/>
      </g>
     </g>
    </g>
    <g id="xtick_4">
     <g id="line2d_7">
      <path d="M 208.172539 307.584 
L 208.172539 41.472 
" clip-path="url(#ped1a5c85a5)" style="fill: none; stroke: #b0b0b0; stroke-width: 0.8; stroke-linecap: square"/>
     </g>
     <g id="line2d_8">
      <g>
       <use xlink:href="#m514f071014" x="208.172539" y="307.584" style="stroke: #000000; stroke-width: 0.8"/>
      </g>
     </g>
     <g id="text_4">
      <!-- 60 -->
      <g transform="translate(201.810039 322.182437) scale(0.1 -0.1)">
       <defs>
        <path id="DejaVuSans-36" d="M 2113 2584 
Q 1688 2584 1439 2293 
Q 1191 2003 1191 1497 
Q 1191 994 1439 701 
Q 1688 409 2113 409 
Q 2538 409 2786 701 
Q 3034 994 3034 1497 
Q 3034 2003 2786 2293 
Q 2538 2584 2113 2584 
z
M 3366 4563 
L 3366 3988 
Q 3128 4100 2886 4159 
Q 2644 4219 2406 4219 
Q 1781 4219 1451 3797 
Q 1122 3375 1075 2522 
Q 1259 2794 1537 2939 
Q 1816 3084 2150 3084 
Q 2853 3084 3261 2657 
Q 3669 2231 3669 1497 
Q 3669 778 3244 343 
Q 2819 -91 2113 -91 
Q 1303 -91 875 529 
Q 447 1150 447 2328 
Q 447 3434 972 4092 
Q 1497 4750 2381 4750 
Q 2619 4750 2861 4703 
Q 3103 4656 3366 4563 
z
" transform="scale(0.015625)"/>
       </defs>
       <use xlink:href="#DejaVuSans-36"/>
       <use xlink:href="#DejaVuSans-30" x="63.623047"/>
      </g>
     </g>
    </g>
    <g id="xtick_5">
     <g id="line2d_9">
      <path d="M 252.952476 307.584 
L 252.952476 41.472 
" clip-path="url(#ped1a5c85a5)" style="fill: none; stroke: #b0b0b0; stroke-width: 0.8; stroke-linecap: square"/>
     </g>
     <g id="line2d_10">
      <g>
       <use xlink:href="#m514f071014" x="252.952476" y="307.584" style="stroke: #000000; stroke-width: 0.8"/>
      </g>
     </g>
     <g id="text_5">
      <!-- 80 -->
      <g transform="translate(246.589976 322.182437) scale(0.1 -0.1)">
       <defs>
        <path id="DejaVuSans-38" d="M 2034 2216 
Q 1584 2216 1326 1975 
Q 1069 1734 1069 1313 
Q 1069 891 1326 650 
Q 1584 409 2034 409 
Q 2484 409 2743 651 
Q 3003 894 3003 1313 
Q 3003 1734 2745 1975 
Q 2488 2216 2034 2216 
z
M 1403 2484 
Q 997 2584 770 2862 
Q 544 3141 544 3541 
Q 544 4100 942 4425 
Q 1341 4750 2034 4750 
Q 2731 4750 3128 4425 
Q 3525 4100 3525 3541 
Q 3525 3141 3298 2862 
Q 3072 2584 2669 2484 
Q 3125 2378 3379 2068 
Q 3634 1759 3634 1313 
Q 3634 634 3220 271 
Q 2806 -91 2034 -91 
Q 1263 -91 848 271 
Q 434 634 434 1313 
Q 434 1759 690 2068 
Q 947 2378 1403 2484 
z
M 1172 3481 
Q 1172 3119 1398 2916 
Q 1625 2713 2034 2713 
Q 2441 2713 2670 2916 
Q 2900 3119 2900 3481 
Q 2900 3844 2670 4047 
Q 2441 4250 2034 4250 
Q 1625 4250 1398 4047 
Q 1172 3844 1172 3481 
z
" transform="scale(0.015625)"/>
       </defs>
       <use xlink:href="#DejaVuSans-38"/>
       <use xlink:href="#DejaVuSans-30" x="63.623047"/>
      </g>
     </g>
    </g>
    <g id="xtick_6">
     <g id="line2d_11">
      <path d="M 297.732414 307.584 
L 297.732414 41.472 
" clip-path="url(#ped1a5c85a5)" style="fill: none; stroke: #b0b0b0; stroke-width: 0.8; stroke-linecap: square"/>
     </g>
     <g id="line2d_12">
      <g>
       <use xlink:href="#m514f071014" x="297.732414" y="307.584" style="stroke: #000000; stroke-width: 0.8"/>
      </g>
     </g>
     <g id="text_6">
      <!-- 100 -->
      <g transform="translate(288.188664 322.182437) scale(0.1 -0.1)">
       <defs>
        <path id="DejaVuSans-31" d="M 794 531 
L 1825 531 
L 1825 4091 
L 703 3866 
L 703 4441 
L 1819 4666 
L 2450 4666 
L 2450 531 
L 3481 531 
L 3481 0 
L 794 0 
L 794 531 
z
" transform="scale(0.015625)"/>
       </defs>
       <use xlink:href="#DejaVuSans-31"/>
       <use xlink:href="#DejaVuSans-30" x="63.623047"/>
       <use xlink:href="#DejaVuSans-30" x="127.246094"/>
      </g>
     </g>
    </g>
    <g id="xtick_7">
     <g id="line2d_13">
      <path d="M 342.512351 307.584 
L 342.512351 41.472 
" clip-path="url(#ped1a5c85a5)" style="fill: none; stroke: #b0b0b0; stroke-width: 0.8; stroke-linecap: square"/>
     </g>
     <g id="line2d_14">
      <g>
       <use xlink:href="#m514f071014" x="342.512351" y="307.584" style="stroke: #000000; stroke-width: 0.8"/>
      </g>
     </g>
     <g id="text_7">
      <!-- 120 -->
      <g transform="translate(332.968601 322.182437) scale(0.1 -0.1)">
       <use xlink:href="#DejaVuSans-31"/>
       <use xlink:href="#DejaVuSans-32" x="63.623047"/>
       <use xlink:href="#DejaVuSans-30" x="127.246094"/>
      </g>
     </g>
    </g>
    <g id="xtick_8">
     <g id="line2d_15">
      <path d="M 387.292288 307.584 
L 387.292288 41.472 
" clip-path="url(#ped1a5c85a5)" style="fill: none; stroke: #b0b0b0; stroke-width: 0.8; stroke-linecap: square"/>
     </g>
     <g id="line2d_16">
      <g>
       <use xlink:href="#m514f071014" x="387.292288" y="307.584" style="stroke: #000000; stroke-width: 0.8"/>
      </g>
     </g>
     <g id="text_8">
      <!-- 140 -->
      <g transform="translate(377.748538 322.182437) scale(0.1 -0.1)">
       <use xlink:href="#DejaVuSans-31"/>
       <use xlink:href="#DejaVuSans-34" x="63.623047"/>
       <use xlink:href="#DejaVuSans-30" x="127.246094"/>
      </g>
     </g>
    </g>
    <g id="text_9">
     <!-- Generations -->
     <g transform="translate(205.662344 335.860562) scale(0.1 -0.1)">
      <defs>
       <path id="DejaVuSans-47" d="M 3809 666 
L 3809 1919 
L 2778 1919 
L 2778 2438 
L 4434 2438 
L 4434 434 
Q 4069 175 3628 42 
Q 3188 -91 2688 -91 
Q 1594 -91 976 548 
Q 359 1188 359 2328 
Q 359 3472 976 4111 
Q 1594 4750 2688 4750 
Q 3144 4750 3555 4637 
Q 3966 4525 4313 4306 
L 4313 3634 
Q 3963 3931 3569 4081 
Q 3175 4231 2741 4231 
Q 1884 4231 1454 3753 
Q 1025 3275 1025 2328 
Q 1025 1384 1454 906 
Q 1884 428 2741 428 
Q 3075 428 3337 486 
Q 3600 544 3809 666 
z
" transform="scale(0.015625)"/>
       <path id="DejaVuSans-65" d="M 3597 1894 
L 3597 1613 
L 953 1613 
Q 991 1019 1311 708 
Q 1631 397 2203 397 
Q 2534 397 2845 478 
Q 3156 559 3463 722 
L 3463 178 
Q 3153 47 2828 -22 
Q 2503 -91 2169 -91 
Q 1331 -91 842 396 
Q 353 884 353 1716 
Q 353 2575 817 3079 
Q 1281 3584 2069 3584 
Q 2775 3584 3186 3129 
Q 3597 2675 3597 1894 
z
M 3022 2063 
Q 3016 2534 2758 2815 
Q 2500 3097 2075 3097 
Q 1594 3097 1305 2825 
Q 1016 2553 972 2059 
L 3022 2063 
z
" transform="scale(0.015625)"/>
       <path id="DejaVuSans-6e" d="M 3513 2113 
L 3513 0 
L 2938 0 
L 2938 2094 
Q 2938 2591 2744 2837 
Q 2550 3084 2163 3084 
Q 1697 3084 1428 2787 
Q 1159 2491 1159 1978 
L 1159 0 
L 581 0 
L 581 3500 
L 1159 3500 
L 1159 2956 
Q 1366 3272 1645 3428 
Q 1925 3584 2291 3584 
Q 2894 3584 3203 3211 
Q 3513 2838 3513 2113 
z
" transform="scale(0.015625)"/>
       <path id="DejaVuSans-72" d="M 2631 2963 
Q 2534 3019 2420 3045 
Q 2306 3072 2169 3072 
Q 1681 3072 1420 2755 
Q 1159 2438 1159 1844 
L 1159 0 
L 581 0 
L 581 3500 
L 1159 3500 
L 1159 2956 
Q 1341 3275 1631 3429 
Q 1922 3584 2338 3584 
Q 2397 3584 2469 3576 
Q 2541 3569 2628 3553 
L 2631 2963 
z
" transform="scale(0.015625)"/>
       <path id="DejaVuSans-61" d="M 2194 1759 
Q 1497 1759 1228 1600 
Q 959 1441 959 1056 
Q 959 750 1161 570 
Q 1363 391 1709 391 
Q 2188 391 2477 730 
Q 2766 1069 2766 1631 
L 2766 1759 
L 2194 1759 
z
M 3341 1997 
L 3341 0 
L 2766 0 
L 2766 531 
Q 2569 213 2275 61 
Q 1981 -91 1556 -91 
Q 1019 -91 701 211 
Q 384 513 384 1019 
Q 384 1609 779 1909 
Q 1175 2209 1959 2209 
L 2766 2209 
L 2766 2266 
Q 2766 2663 2505 2880 
Q 2244 3097 1772 3097 
Q 1472 3097 1187 3025 
Q 903 2953 641 2809 
L 641 3341 
Q 956 3463 1253 3523 
Q 1550 3584 1831 3584 
Q 2591 3584 2966 3190 
Q 3341 2797 3341 1997 
z
" transform="scale(0.015625)"/>
       <path id="DejaVuSans-74" d="M 1172 4494 
L 1172 3500 
L 2356 3500 
L 2356 3053 
L 1172 3053 
L 1172 1153 
Q 1172 725 1289 603 
Q 1406 481 1766 481 
L 2356 481 
L 2356 0 
L 1766 0 
Q 1100 0 847 248 
Q 594 497 594 1153 
L 594 3053 
L 172 3053 
L 172 3500 
L 594 3500 
L 594 4494 
L 1172 4494 
z
" transform="scale(0.015625)"/>
       <path id="DejaVuSans-69" d="M 603 3500 
L 1178 3500 
L 1178 0 
L 603 0 
L 603 3500 
z
M 603 4863 
L 1178 4863 
L 1178 4134 
L 603 4134 
L 603 4863 
z
" transform="scale(0.015625)"/>
       <path id="DejaVuSans-6f" d="M 1959 3097 
Q 1497 3097 1228 2736 
Q 959 2375 959 1747 
Q 959 1119 1226 758 
Q 1494 397 1959 397 
Q 2419 397 2687 759 
Q 2956 1122 2956 1747 
Q 2956 2369 2687 2733 
Q 2419 3097 1959 3097 
z
M 1959 3584 
Q 2709 3584 3137 3096 
Q 3566 2609 3566 1747 
Q 3566 888 3137 398 
Q 2709 -91 1959 -91 
Q 1206 -91 779 398 
Q 353 888 353 1747 
Q 353 2609 779 3096 
Q 1206 3584 1959 3584 
z
" transform="scale(0.015625)"/>
       <path id="DejaVuSans-73" d="M 2834 3397 
L 2834 2853 
Q 2591 2978 2328 3040 
Q 2066 3103 1784 3103 
Q 1356 3103 1142 2972 
Q 928 2841 928 2578 
Q 928 2378 1081 2264 
Q 1234 2150 1697 2047 
L 1894 2003 
Q 2506 1872 2764 1633 
Q 3022 1394 3022 966 
Q 3022 478 2636 193 
Q 2250 -91 1575 -91 
Q 1294 -91 989 -36 
Q 684 19 347 128 
L 347 722 
Q 666 556 975 473 
Q 1284 391 1588 391 
Q 1994 391 2212 530 
Q 2431 669 2431 922 
Q 2431 1156 2273 1281 
Q 2116 1406 1581 1522 
L 1381 1569 
Q 847 1681 609 1914 
Q 372 2147 372 2553 
Q 372 3047 722 3315 
Q 1072 3584 1716 3584 
Q 2034 3584 2315 3537 
Q 2597 3491 2834 3397 
z
" transform="scale(0.015625)"/>
      </defs>
      <use xlink:href="#DejaVuSans-47"/>
      <use xlink:href="#DejaVuSans-65" x="77.490234"/>
      <use xlink:href="#DejaVuSans-6e" x="139.013672"/>
      <use xlink:href="#DejaVuSans-65" x="202.392578"/>
      <use xlink:href="#DejaVuSans-72" x="263.916016"/>
      <use xlink:href="#DejaVuSans-61" x="305.029297"/>
      <use xlink:href="#DejaVuSans-74" x="366.308594"/>
      <use xlink:href="#DejaVuSans-69" x="405.517578"/>
      <use xlink:href="#DejaVuSans-6f" x="433.300781"/>
      <use xlink:href="#DejaVuSans-6e" x="494.482422"/>
      <use xlink:href="#DejaVuSans-73" x="557.861328"/>
     </g>
    </g>
   </g>
   <g id="matplotlib.axis_2">
    <g id="ytick_1">
     <g id="line2d_17">
      <path d="M 57.6 293.080695 
L 414.72 293.080695 
" clip-path="url(#ped1a5c85a5)" style="fill: none; stroke: #b0b0b0; stroke-width: 0.8; stroke-linecap: square"/>
     </g>
     <g id="line2d_18">
      <defs>
       <path id="m9e03acdcc9" d="M 0 0 
L -3.5 0 
" style="stroke: #000000; stroke-width: 0.8"/>
      </defs>
      <g>
       <use xlink:href="#m9e03acdcc9" x="57.6" y="293.080695" style="stroke: #000000; stroke-width: 0.8"/>
      </g>
     </g>
     <g id="text_10">
      <!-- −1.0 -->
      <g transform="translate(26.317187 296.879914) scale(0.1 -0.1)">
       <defs>
        <path id="DejaVuSans-2212" d="M 678 2272 
L 4684 2272 
L 4684 1741 
L 678 1741 
L 678 2272 
z
" transform="scale(0.015625)"/>
        <path id="DejaVuSans-2e" d="M 684 794 
L 1344 794 
L 1344 0 
L 684 0 
L 684 794 
z
" transform="scale(0.015625)"/>
       </defs>
       <use xlink:href="#DejaVuSans-2212"/>
       <use xlink:href="#DejaVuSans-31" x="83.789062"/>
       <use xlink:href="#DejaVuSans-2e" x="147.412109"/>
       <use xlink:href="#DejaVuSans-30" x="179.199219"/>
      </g>
     </g>
    </g>
    <g id="ytick_2">
     <g id="line2d_19">
      <path d="M 57.6 257.156224 
L 414.72 257.156224 
" clip-path="url(#ped1a5c85a5)" style="fill: none; stroke: #b0b0b0; stroke-width: 0.8; stroke-linecap: square"/>
     </g>
     <g id="line2d_20">
      <g>
       <use xlink:href="#m9e03acdcc9" x="57.6" y="257.156224" style="stroke: #000000; stroke-width: 0.8"/>
      </g>
     </g>
     <g id="text_11">
      <!-- −0.5 -->
      <g transform="translate(26.317187 260.955443) scale(0.1 -0.1)">
       <defs>
        <path id="DejaVuSans-35" d="M 691 4666 
L 3169 4666 
L 3169 4134 
L 1269 4134 
L 1269 2991 
Q 1406 3038 1543 3061 
Q 1681 3084 1819 3084 
Q 2600 3084 3056 2656 
Q 3513 2228 3513 1497 
Q 3513 744 3044 326 
Q 2575 -91 1722 -91 
Q 1428 -91 1123 -41 
Q 819 9 494 109 
L 494 744 
Q 775 591 1075 516 
Q 1375 441 1709 441 
Q 2250 441 2565 725 
Q 2881 1009 2881 1497 
Q 2881 1984 2565 2268 
Q 2250 2553 1709 2553 
Q 1456 2553 1204 2497 
Q 953 2441 691 2322 
L 691 4666 
z
" transform="scale(0.015625)"/>
       </defs>
       <use xlink:href="#DejaVuSans-2212"/>
       <use xlink:href="#DejaVuSans-30" x="83.789062"/>
       <use xlink:href="#DejaVuSans-2e" x="147.412109"/>
       <use xlink:href="#DejaVuSans-35" x="179.199219"/>
      </g>
     </g>
    </g>
    <g id="ytick_3">
     <g id="line2d_21">
      <path d="M 57.6 221.231753 
L 414.72 221.231753 
" clip-path="url(#ped1a5c85a5)" style="fill: none; stroke: #b0b0b0; stroke-width: 0.8; stroke-linecap: square"/>
     </g>
     <g id="line2d_22">
      <g>
       <use xlink:href="#m9e03acdcc9" x="57.6" y="221.231753" style="stroke: #000000; stroke-width: 0.8"/>
      </g>
     </g>
     <g id="text_12">
      <!-- 0.0 -->
      <g transform="translate(34.696875 225.030972) scale(0.1 -0.1)">
       <use xlink:href="#DejaVuSans-30"/>
       <use xlink:href="#DejaVuSans-2e" x="63.623047"/>
       <use xlink:href="#DejaVuSans-30" x="95.410156"/>
      </g>
     </g>
    </g>
    <g id="ytick_4">
     <g id="line2d_23">
      <path d="M 57.6 185.307282 
L 414.72 185.307282 
" clip-path="url(#ped1a5c85a5)" style="fill: none; stroke: #b0b0b0; stroke-width: 0.8; stroke-linecap: square"/>
     </g>
     <g id="line2d_24">
      <g>
       <use xlink:href="#m9e03acdcc9" x="57.6" y="185.307282" style="stroke: #000000; stroke-width: 0.8"/>
      </g>
     </g>
     <g id="text_13">
      <!-- 0.5 -->
      <g transform="translate(34.696875 189.106501) scale(0.1 -0.1)">
       <use xlink:href="#DejaVuSans-30"/>
       <use xlink:href="#DejaVuSans-2e" x="63.623047"/>
       <use xlink:href="#DejaVuSans-35" x="95.410156"/>
      </g>
     </g>
    </g>
    <g id="ytick_5">
     <g id="line2d_25">
      <path d="M 57.6 149.382812 
L 414.72 149.382812 
" clip-path="url(#ped1a5c85a5)" style="fill: none; stroke: #b0b0b0; stroke-width: 0.8; stroke-linecap: square"/>
     </g>
     <g id="line2d_26">
      <g>
       <use xlink:href="#m9e03acdcc9" x="57.6" y="149.382812" style="stroke: #000000; stroke-width: 0.8"/>
      </g>
     </g>
     <g id="text_14">
      <!-- 1.0 -->
      <g transform="translate(34.696875 153.18203) scale(0.1 -0.1)">
       <use xlink:href="#DejaVuSans-31"/>
       <use xlink:href="#DejaVuSans-2e" x="63.623047"/>
       <use xlink:href="#DejaVuSans-30" x="95.410156"/>
      </g>
     </g>
    </g>
    <g id="ytick_6">
     <g id="line2d_27">
      <path d="M 57.6 113.458341 
L 414.72 113.458341 
" clip-path="url(#ped1a5c85a5)" style="fill: none; stroke: #b0b0b0; stroke-width: 0.8; stroke-linecap: square"/>
     </g>
     <g id="line2d_28">
      <g>
       <use xlink:href="#m9e03acdcc9" x="57.6" y="113.458341" style="stroke: #000000; stroke-width: 0.8"/>
      </g>
     </g>
     <g id="text_15">
      <!-- 1.5 -->
      <g transform="translate(34.696875 117.257559) scale(0.1 -0.1)">
       <use xlink:href="#DejaVuSans-31"/>
       <use xlink:href="#DejaVuSans-2e" x="63.623047"/>
       <use xlink:href="#DejaVuSans-35" x="95.410156"/>
      </g>
     </g>
    </g>
    <g id="ytick_7">
     <g id="line2d_29">
      <path d="M 57.6 77.53387 
L 414.72 77.53387 
" clip-path="url(#ped1a5c85a5)" style="fill: none; stroke: #b0b0b0; stroke-width: 0.8; stroke-linecap: square"/>
     </g>
     <g id="line2d_30">
      <g>
       <use xlink:href="#m9e03acdcc9" x="57.6" y="77.53387" style="stroke: #000000; stroke-width: 0.8"/>
      </g>
     </g>
     <g id="text_16">
      <!-- 2.0 -->
      <g transform="translate(34.696875 81.333089) scale(0.1 -0.1)">
       <use xlink:href="#DejaVuSans-32"/>
       <use xlink:href="#DejaVuSans-2e" x="63.623047"/>
       <use xlink:href="#DejaVuSans-30" x="95.410156"/>
      </g>
     </g>
    </g>
    <g id="ytick_8">
     <g id="line2d_31">
      <path d="M 57.6 41.609399 
L 414.72 41.609399 
" clip-path="url(#ped1a5c85a5)" style="fill: none; stroke: #b0b0b0; stroke-width: 0.8; stroke-linecap: square"/>
     </g>
     <g id="line2d_32">
      <g>
       <use xlink:href="#m9e03acdcc9" x="57.6" y="41.609399" style="stroke: #000000; stroke-width: 0.8"/>
      </g>
     </g>
     <g id="text_17">
      <!-- 2.5 -->
      <g transform="translate(34.696875 45.408618) scale(0.1 -0.1)">
       <use xlink:href="#DejaVuSans-32"/>
       <use xlink:href="#DejaVuSans-2e" x="63.623047"/>
       <use xlink:href="#DejaVuSans-35" x="95.410156"/>
      </g>
     </g>
    </g>
    <g id="text_18">
     <!-- Fitness -->
     <g transform="translate(20.2375 191.845187) rotate(-90) scale(0.1 -0.1)">
      <defs>
       <path id="DejaVuSans-46" d="M 628 4666 
L 3309 4666 
L 3309 4134 
L 1259 4134 
L 1259 2759 
L 3109 2759 
L 3109 2228 
L 1259 2228 
L 1259 0 
L 628 0 
L 628 4666 
z
" transform="scale(0.015625)"/>
      </defs>
      <use xlink:href="#DejaVuSans-46"/>
      <use xlink:href="#DejaVuSans-69" x="50.269531"/>
      <use xlink:href="#DejaVuSans-74" x="78.052734"/>
      <use xlink:href="#DejaVuSans-6e" x="117.261719"/>
      <use xlink:href="#DejaVuSans-65" x="180.640625"/>
      <use xlink:href="#DejaVuSans-73" x="242.164062"/>
      <use xlink:href="#DejaVuSans-73" x="294.263672"/>
     </g>
    </g>
   </g>
   <g id="line2d_33">
    <path d="M 73.832727 187.778587 
L 76.071724 162.340469 
L 78.310721 168.236672 
L 80.549718 165.969339 
L 82.788715 173.822928 
L 85.027712 162.334481 
L 87.266708 161.100775 
L 89.505705 162.375694 
L 91.744702 152.923667 
L 93.983699 183.524132 
L 96.222696 169.289658 
L 98.461693 179.634309 
L 100.70069 179.557371 
L 102.939687 173.241051 
L 107.41768 154.613814 
L 109.656677 182.685495 
L 111.895674 177.470858 
L 114.134671 168.362408 
L 116.373668 179.433332 
L 118.612665 162.958469 
L 120.851661 165.831329 
L 123.090658 151.444876 
L 125.329655 174.824023 
L 127.568652 153.639961 
L 129.807649 150.826277 
L 132.046646 167.072221 
L 134.285643 154.223734 
L 136.524639 174.845478 
L 138.763636 165.044384 
L 141.002633 166.981112 
L 143.24163 163.435067 
L 145.480627 181.683102 
L 147.719624 181.391016 
L 152.197618 172.817142 
L 154.436614 166.515591 
L 156.675611 176.644894 
L 158.914608 169.194159 
L 161.153605 167.628451 
L 163.392602 165.740919 
L 165.631599 171.697995 
L 167.870596 185.96919 
L 170.109592 167.35772 
L 172.348589 196.941222 
L 174.587586 159.85689 
L 176.826583 188.461052 
L 179.06558 168.443936 
L 181.304577 177.529634 
L 183.543574 169.523566 
L 185.782571 151.251782 
L 188.021567 161.577672 
L 190.260564 168.490339 
L 192.499561 169.368393 
L 194.738558 171.682028 
L 196.977555 157.303459 
L 199.216552 137.039862 
L 201.455549 146.638281 
L 203.694545 150.002209 
L 205.933542 166.360018 
L 208.172539 179.711447 
L 210.411536 177.243236 
L 212.650533 168.243557 
L 214.88953 179.409682 
L 217.128527 177.94556 
L 219.367524 159.774963 
L 221.60652 182.219873 
L 223.845517 149.458652 
L 226.084514 160.616094 
L 228.323511 164.421693 
L 230.562508 180.474244 
L 232.801505 179.622534 
L 235.040502 157.388679 
L 237.279498 161.337178 
L 239.518495 157.840829 
L 241.757492 176.44222 
L 243.996489 168.231184 
L 246.235486 183.008416 
L 248.474483 154.923762 
L 250.71348 172.132282 
L 252.952476 145.888957 
L 255.191473 170.338853 
L 257.43047 149.614225 
L 259.669467 136.01352 
L 261.908464 167.111538 
L 264.147461 158.052184 
L 266.386458 147.939446 
L 268.625455 160.420206 
L 270.864451 154.566513 
L 273.103448 159.569395 
L 275.342445 160.552628 
L 277.581442 156.114459 
L 279.820439 160.122731 
L 282.059436 161.681953 
L 284.298433 176.741092 
L 286.537429 154.151286 
L 288.776426 147.798243 
L 291.015423 143.052819 
L 293.25442 164.68444 
L 295.493417 144.551569 
L 297.732414 138.056025 
L 299.971411 155.08602 
L 302.210408 160.191686 
L 304.449404 162.609203 
L 306.688401 163.117236 
L 308.927398 157.535171 
L 311.166395 163.215529 
L 313.405392 189.702442 
L 315.644389 190.527707 
L 317.883386 165.238076 
L 320.122382 176.943167 
L 322.361379 157.431889 
L 324.600376 190.601452 
L 326.839373 173.528746 
L 329.07837 163.714181 
L 331.317367 172.953455 
L 333.556364 183.354089 
L 335.795361 182.232447 
L 338.034357 177.362286 
L 340.273354 191.67699 
L 342.512351 194.249182 
L 344.751348 177.054433 
L 346.990345 197.358046 
L 349.229342 162.493148 
L 351.468339 171.73352 
L 353.707335 178.715142 
L 355.946332 168.226194 
L 358.185329 169.934802 
L 360.424326 183.283637 
L 362.663323 206.743614 
L 364.90232 202.491752 
L 367.141317 187.530707 
L 369.380313 166.71567 
L 371.61931 178.385734 
L 373.858307 186.893547 
L 376.097304 168.439646 
L 378.336301 177.172984 
L 380.575298 161.591144 
L 382.814295 161.459321 
L 385.053292 162.916757 
L 387.292288 145.846047 
L 389.531285 182.522437 
L 391.770282 189.096416 
L 394.009279 168.940892 
L 396.248276 160.425295 
L 398.487273 158.113455 
L 398.487273 158.113455 
" clip-path="url(#ped1a5c85a5)" style="fill: none; stroke: #0000ff; stroke-width: 1.5; stroke-linecap: square"/>
   </g>
   <g id="line2d_34">
    <path d="M 73.832727 252.409031 
L 76.071724 240.98351 
L 78.310721 253.442868 
L 80.549718 254.149027 
L 82.788715 261.532963 
L 85.027712 251.0305 
L 87.266708 246.38363 
L 89.505705 249.442953 
L 91.744702 237.225767 
L 93.983699 273.978522 
L 96.222696 259.662675 
L 98.461693 263.418926 
L 100.70069 269.41581 
L 102.939687 259.763423 
L 105.178683 254.020985 
L 107.41768 237.041673 
L 109.656677 270.700954 
L 111.895674 266.426782 
L 114.134671 259.699992 
L 116.373668 267.750917 
L 118.612665 248.219164 
L 120.851661 259.388514 
L 123.090658 239.412022 
L 125.329655 268.892637 
L 127.568652 244.43053 
L 129.807649 243.00111 
L 132.046646 258.960632 
L 134.285643 239.858341 
L 136.524639 267.136601 
L 138.763636 256.847331 
L 141.002633 254.624096 
L 143.24163 258.492234 
L 145.480627 277.574502 
L 147.719624 275.084189 
L 149.958621 270.969303 
L 152.197618 263.602783 
L 154.436614 259.249755 
L 156.675611 271.581276 
L 158.914608 259.661531 
L 161.153605 258.186351 
L 163.392602 251.66299 
L 165.631599 255.803301 
L 167.870596 278.085916 
L 170.109592 261.157672 
L 172.348589 287.486337 
L 174.587586 247.347005 
L 176.826583 274.680293 
L 179.06558 259.539591 
L 181.304577 272.444019 
L 183.543574 259.607967 
L 185.782571 240.133449 
L 188.021567 249.494898 
L 190.260564 260.932465 
L 192.499561 261.022208 
L 194.738558 258.454201 
L 196.977555 238.822742 
L 199.216552 213.316767 
L 201.455549 227.248503 
L 203.694545 238.921335 
L 205.933542 251.991396 
L 208.172539 272.631243 
L 210.411536 270.916139 
L 212.650533 258.927922 
L 214.88953 266.438039 
L 217.128527 260.239728 
L 219.367524 248.214837 
L 221.60652 270.707073 
L 223.845517 233.423535 
L 226.084514 247.009149 
L 228.323511 258.344894 
L 230.562508 274.260663 
L 232.801505 268.894779 
L 235.040502 249.35892 
L 237.279498 252.262533 
L 239.518495 247.668899 
L 241.757492 267.971222 
L 243.996489 257.922019 
L 246.235486 267.329262 
L 248.474483 242.811567 
L 250.71348 264.038559 
L 252.952476 228.860551 
L 255.191473 261.051389 
L 257.43047 230.839268 
L 259.669467 218.018636 
L 261.908464 256.741187 
L 264.147461 247.117945 
L 266.386458 233.512113 
L 268.625455 242.935702 
L 270.864451 242.820671 
L 273.103448 250.038301 
L 275.342445 251.40775 
L 277.581442 243.469139 
L 279.820439 249.179179 
L 282.059436 248.393626 
L 284.298433 267.131244 
L 286.537429 237.669245 
L 288.776426 228.8462 
L 291.015423 225.884835 
L 293.25442 249.316098 
L 295.493417 226.031966 
L 297.732414 222.54405 
L 299.971411 242.404378 
L 302.210408 250.609253 
L 304.449404 251.485286 
L 306.688401 253.841661 
L 308.927398 245.730817 
L 311.166395 253.341485 
L 313.405392 282.240737 
L 315.644389 274.330884 
L 317.883386 257.557113 
L 320.122382 268.820973 
L 322.361379 247.829624 
L 324.600376 276.846661 
L 326.839373 262.653287 
L 329.07837 257.084658 
L 331.317367 263.117691 
L 333.556364 269.704198 
L 335.795361 275.411834 
L 338.034357 268.162401 
L 340.273354 281.183155 
L 342.512351 280.082297 
L 344.751348 265.363024 
L 346.990345 279.990599 
L 349.229342 248.495965 
L 351.468339 259.091763 
L 353.707335 267.013884 
L 355.946332 247.665421 
L 358.185329 254.908199 
L 360.424326 274.087001 
L 362.663323 294.419541 
L 364.90232 295.488 
L 367.141317 277.438973 
L 369.380313 254.68186 
L 371.61931 268.50299 
L 373.858307 279.347958 
L 376.097304 252.084642 
L 378.336301 266.133412 
L 380.575298 253.539355 
L 382.814295 248.484279 
L 385.053292 254.684799 
L 387.292288 234.803998 
L 389.531285 276.464812 
L 391.770282 276.948279 
L 394.009279 256.560996 
L 396.248276 249.654518 
L 398.487273 243.366815 
L 398.487273 243.366815 
" clip-path="url(#ped1a5c85a5)" style="fill: none; stroke-dasharray: 9.6,2.4,1.5,2.4; stroke-dashoffset: 0; stroke: #008000; stroke-width: 1.5"/>
   </g>
   <g id="line2d_35">
    <path d="M 73.832727 123.148142 
L 76.071724 83.697427 
L 78.310721 83.030477 
L 80.549718 77.789652 
L 82.788715 86.112892 
L 85.027712 73.638462 
L 87.266708 75.81792 
L 89.505705 75.308436 
L 91.744702 68.621566 
L 93.983699 93.069741 
L 96.222696 78.916642 
L 98.461693 95.849692 
L 100.70069 89.698933 
L 102.939687 86.718678 
L 105.178683 73.536305 
L 107.41768 72.185954 
L 109.656677 94.670035 
L 111.895674 88.514934 
L 114.134671 77.024824 
L 116.373668 91.115747 
L 118.612665 77.697774 
L 120.851661 72.274144 
L 123.090658 63.477731 
L 125.329655 80.755408 
L 127.568652 62.849392 
L 129.807649 58.651444 
L 132.046646 75.183809 
L 134.285643 68.589127 
L 136.524639 82.554354 
L 138.763636 73.241437 
L 141.002633 79.338128 
L 143.24163 68.377901 
L 145.480627 85.791701 
L 147.719624 87.697844 
L 149.958621 83.084479 
L 152.197618 82.031501 
L 154.436614 73.781427 
L 156.675611 81.708512 
L 158.914608 78.726787 
L 161.153605 77.070551 
L 163.392602 79.818849 
L 165.631599 87.592689 
L 167.870596 93.852465 
L 170.109592 73.557768 
L 172.348589 106.396108 
L 174.587586 72.366776 
L 176.826583 102.24181 
L 179.06558 77.348282 
L 181.304577 82.61525 
L 183.543574 79.439166 
L 185.782571 62.370114 
L 188.021567 73.660447 
L 190.260564 76.048212 
L 192.499561 77.714577 
L 194.738558 84.909856 
L 196.977555 75.784176 
L 199.216552 60.762956 
L 201.455549 66.02806 
L 203.694545 61.083083 
L 205.933542 80.728639 
L 208.172539 86.791652 
L 210.411536 83.570333 
L 212.650533 77.559193 
L 214.88953 92.381324 
L 217.128527 95.651391 
L 219.367524 71.335089 
L 221.60652 93.732674 
L 223.845517 65.493769 
L 226.084514 74.22304 
L 228.323511 70.498492 
L 230.562508 86.687824 
L 232.801505 90.35029 
L 235.040502 65.418439 
L 237.279498 70.411823 
L 239.518495 68.012758 
L 241.757492 84.913219 
L 243.996489 78.540349 
L 246.235486 98.687569 
L 248.474483 67.035957 
L 250.71348 80.226005 
L 252.952476 62.917364 
L 255.191473 79.626317 
L 257.43047 68.389182 
L 259.669467 54.008403 
L 261.908464 77.481889 
L 264.147461 68.986424 
L 266.386458 62.366779 
L 268.625455 77.90471 
L 270.864451 66.312355 
L 273.103448 69.100489 
L 275.342445 69.697505 
L 277.581442 68.759779 
L 279.820439 71.066283 
L 282.059436 74.970281 
L 284.298433 86.35094 
L 286.537429 70.633326 
L 288.776426 66.750286 
L 291.015423 60.220804 
L 293.25442 80.052782 
L 295.493417 63.071172 
L 297.732414 53.568 
L 299.971411 67.767663 
L 302.210408 69.77412 
L 304.449404 73.733121 
L 306.688401 72.39281 
L 308.927398 69.339526 
L 311.166395 73.089573 
L 313.405392 97.164146 
L 315.644389 106.72453 
L 317.883386 72.919039 
L 320.122382 85.065362 
L 322.361379 67.034154 
L 324.600376 104.356242 
L 326.839373 84.404205 
L 329.07837 70.343703 
L 331.317367 82.78922 
L 333.556364 97.003979 
L 335.795361 89.05306 
L 338.034357 86.562172 
L 340.273354 102.170825 
L 342.512351 108.416067 
L 344.751348 88.745842 
L 346.990345 114.725493 
L 349.229342 76.490331 
L 351.468339 84.375278 
L 353.707335 90.4164 
L 355.946332 88.786968 
L 358.185329 84.961405 
L 360.424326 92.480272 
L 362.663323 119.067686 
L 364.90232 109.495505 
L 367.141317 97.622442 
L 369.380313 78.74948 
L 371.61931 88.268479 
L 373.858307 94.439137 
L 376.097304 84.794649 
L 378.336301 88.212557 
L 380.575298 69.642932 
L 382.814295 74.434363 
L 385.053292 71.148715 
L 387.292288 56.888097 
L 389.531285 88.580063 
L 391.770282 101.244553 
L 394.009279 81.320788 
L 396.248276 71.196072 
L 398.487273 72.860096 
L 398.487273 72.860096 
" clip-path="url(#ped1a5c85a5)" style="fill: none; stroke-dasharray: 9.6,2.4,1.5,2.4; stroke-dashoffset: 0; stroke: #008000; stroke-width: 1.5"/>
   </g>
   <g id="line2d_36">
    <path d="M 73.832727 74.257557 
L 76.071724 67.051112 
L 78.310721 67.985149 
L 80.549718 67.180436 
L 82.788715 69.652038 
L 85.027712 67.237916 
L 87.266708 67.079848 
L 89.505705 65.693164 
L 91.744702 66.540985 
L 93.983699 66.152997 
L 96.222696 66.964887 
L 98.461693 67.633082 
L 100.70069 67.051112 
L 102.939687 66.749348 
L 105.178683 67.273838 
L 107.41768 65.765016 
L 109.656677 70.622006 
L 111.895674 66.246399 
L 114.134671 67.079848 
L 116.373668 67.40317 
L 118.612665 65.908712 
L 120.851661 67.510944 
L 123.090658 66.95771 
L 125.329655 65.362656 
L 127.568652 65.247704 
L 129.807649 67.53968 
L 132.046646 65.3914 
L 134.285643 67.166063 
L 136.524639 66.972073 
L 138.763636 67.216357 
L 141.002633 68.373129 
L 143.24163 66.354173 
L 145.480627 68.674893 
L 147.719624 67.618718 
L 149.958621 67.28821 
L 152.197618 66.203291 
L 154.436614 66.727789 
L 156.675611 67.022367 
L 158.914608 65.729086 
L 161.153605 67.108592 
L 163.392602 66.849936 
L 165.631599 68.409051 
L 167.870596 66.311065 
L 170.109592 67.180436 
L 172.348589 66.828377 
L 174.587586 68.358757 
L 179.06558 67.870189 
L 181.304577 66.641573 
L 185.782571 65.937448 
L 188.021567 66.002114 
L 190.260564 67.496572 
L 192.499561 66.246399 
L 194.738558 67.09422 
L 196.977555 65.707536 
L 199.216552 66.569721 
L 201.455549 66.418839 
L 203.694545 66.95771 
L 205.933542 65.56384 
L 208.172539 68.840148 
L 210.411536 69.098804 
L 212.650533 66.555349 
L 214.88953 66.699053 
L 217.128527 68.035443 
L 219.367524 66.792455 
L 221.60652 67.697748 
L 223.845517 65.657242 
L 226.084514 66.232035 
L 228.323511 66.490691 
L 230.562508 66.174555 
L 232.801505 66.540985 
L 235.040502 66.778083 
L 237.279498 67.42472 
L 241.757492 66.426025 
L 246.235486 68.279727 
L 248.474483 66.993632 
L 250.71348 65.477616 
L 252.952476 67.532494 
L 255.191473 67.877375 
L 257.43047 69.10599 
L 259.669467 67.669012 
L 261.908464 67.53968 
L 264.147461 66.684681 
L 266.386458 67.022367 
L 268.625455 68.071365 
L 270.864451 66.519427 
L 273.103448 67.144514 
L 275.342445 67.475014 
L 277.581442 67.985149 
L 279.820439 65.944634 
L 282.059436 66.90023 
L 284.298433 67.029554 
L 286.537429 67.776787 
L 288.776426 65.77938 
L 291.015423 66.14581 
L 293.25442 67.647454 
L 295.493417 66.519427 
L 297.732414 66.778083 
L 299.971411 67.252288 
L 302.210408 66.964887 
L 304.449404 66.246399 
L 306.688401 67.819895 
L 308.927398 66.770897 
L 311.166395 65.535096 
L 313.405392 67.324132 
L 315.644389 65.844046 
L 317.883386 66.361359 
L 320.122382 65.635684 
L 322.361379 65.341106 
L 324.600376 65.95182 
L 326.839373 65.980556 
L 329.07837 66.612829 
L 331.317367 67.122955 
L 333.556364 68.078551 
L 335.795361 66.742161 
L 338.034357 67.051112 
L 340.273354 68.933549 
L 342.512351 67.34569 
L 344.751348 66.612829 
L 346.990345 66.519427 
L 349.229342 66.059595 
L 351.468339 66.770897 
L 353.707335 68.947922 
L 355.946332 68.480903 
L 358.185329 66.253585 
L 360.424326 66.770897 
L 362.663323 67.410356 
L 364.90232 64.974675 
L 367.141317 67.942032 
L 369.380313 67.812708 
L 371.61931 66.440397 
L 373.858307 66.684681 
L 376.097304 68.502461 
L 378.336301 68.897628 
L 380.575298 66.411653 
L 382.814295 68.250983 
L 387.292288 65.908712 
L 389.531285 66.921779 
L 391.770282 68.976657 
L 394.009279 67.072661 
L 396.248276 66.045222 
L 398.487273 66.706231 
L 398.487273 66.706231 
" clip-path="url(#ped1a5c85a5)" style="fill: none; stroke: #ff0000; stroke-width: 1.5; stroke-linecap: square"/>
   </g>
   <g id="patch_3">
    <path d="M 57.6 307.584 
L 57.6 41.472 
" style="fill: none; stroke: #000000; stroke-width: 0.8; stroke-linejoin: miter; stroke-linecap: square"/>
   </g>
   <g id="patch_4">
    <path d="M 414.72 307.584 
L 414.72 41.472 
" style="fill: none; stroke: #000000; stroke-width: 0.8; stroke-linejoin: miter; stroke-linecap: square"/>
   </g>
   <g id="patch_5">
    <path d="M 57.6 307.584 
L 414.72 307.584 
" style="fill: none; stroke: #000000; stroke-width: 0.8; stroke-linejoin: miter; stroke-linecap: square"/>
   </g>
   <g id="patch_6">
    <path d="M 57.6 41.472 
L 414.72 41.472 
" style="fill: none; stroke: #000000; stroke-width: 0.8; stroke-linejoin: miter; stroke-linecap: square"/>
   </g>
   <g id="text_19">
    <!-- Population's average and best fitness -->
    <g transform="translate(123.529687 35.472) scale(0.12 -0.12)">
     <defs>
      <path id="DejaVuSans-50" d="M 1259 4147 
L 1259 2394 
L 2053 2394 
Q 2494 2394 2734 2622 
Q 2975 2850 2975 3272 
Q 2975 3691 2734 3919 
Q 2494 4147 2053 4147 
L 1259 4147 
z
M 628 4666 
L 2053 4666 
Q 2838 4666 3239 4311 
Q 3641 3956 3641 3272 
Q 3641 2581 3239 2228 
Q 2838 1875 2053 1875 
L 1259 1875 
L 1259 0 
L 628 0 
L 628 4666 
z
" transform="scale(0.015625)"/>
      <path id="DejaVuSans-70" d="M 1159 525 
L 1159 -1331 
L 581 -1331 
L 581 3500 
L 1159 3500 
L 1159 2969 
Q 1341 3281 1617 3432 
Q 1894 3584 2278 3584 
Q 2916 3584 3314 3078 
Q 3713 2572 3713 1747 
Q 3713 922 3314 415 
Q 2916 -91 2278 -91 
Q 1894 -91 1617 61 
Q 1341 213 1159 525 
z
M 3116 1747 
Q 3116 2381 2855 2742 
Q 2594 3103 2138 3103 
Q 1681 3103 1420 2742 
Q 1159 2381 1159 1747 
Q 1159 1113 1420 752 
Q 1681 391 2138 391 
Q 2594 391 2855 752 
Q 3116 1113 3116 1747 
z
" transform="scale(0.015625)"/>
      <path id="DejaVuSans-75" d="M 544 1381 
L 544 3500 
L 1119 3500 
L 1119 1403 
Q 1119 906 1312 657 
Q 1506 409 1894 409 
Q 2359 409 2629 706 
Q 2900 1003 2900 1516 
L 2900 3500 
L 3475 3500 
L 3475 0 
L 2900 0 
L 2900 538 
Q 2691 219 2414 64 
Q 2138 -91 1772 -91 
Q 1169 -91 856 284 
Q 544 659 544 1381 
z
M 1991 3584 
L 1991 3584 
z
" transform="scale(0.015625)"/>
      <path id="DejaVuSans-6c" d="M 603 4863 
L 1178 4863 
L 1178 0 
L 603 0 
L 603 4863 
z
" transform="scale(0.015625)"/>
      <path id="DejaVuSans-27" d="M 1147 4666 
L 1147 2931 
L 616 2931 
L 616 4666 
L 1147 4666 
z
" transform="scale(0.015625)"/>
      <path id="DejaVuSans-20" transform="scale(0.015625)"/>
      <path id="DejaVuSans-76" d="M 191 3500 
L 800 3500 
L 1894 563 
L 2988 3500 
L 3597 3500 
L 2284 0 
L 1503 0 
L 191 3500 
z
" transform="scale(0.015625)"/>
      <path id="DejaVuSans-67" d="M 2906 1791 
Q 2906 2416 2648 2759 
Q 2391 3103 1925 3103 
Q 1463 3103 1205 2759 
Q 947 2416 947 1791 
Q 947 1169 1205 825 
Q 1463 481 1925 481 
Q 2391 481 2648 825 
Q 2906 1169 2906 1791 
z
M 3481 434 
Q 3481 -459 3084 -895 
Q 2688 -1331 1869 -1331 
Q 1566 -1331 1297 -1286 
Q 1028 -1241 775 -1147 
L 775 -588 
Q 1028 -725 1275 -790 
Q 1522 -856 1778 -856 
Q 2344 -856 2625 -561 
Q 2906 -266 2906 331 
L 2906 616 
Q 2728 306 2450 153 
Q 2172 0 1784 0 
Q 1141 0 747 490 
Q 353 981 353 1791 
Q 353 2603 747 3093 
Q 1141 3584 1784 3584 
Q 2172 3584 2450 3431 
Q 2728 3278 2906 2969 
L 2906 3500 
L 3481 3500 
L 3481 434 
z
" transform="scale(0.015625)"/>
      <path id="DejaVuSans-64" d="M 2906 2969 
L 2906 4863 
L 3481 4863 
L 3481 0 
L 2906 0 
L 2906 525 
Q 2725 213 2448 61 
Q 2172 -91 1784 -91 
Q 1150 -91 751 415 
Q 353 922 353 1747 
Q 353 2572 751 3078 
Q 1150 3584 1784 3584 
Q 2172 3584 2448 3432 
Q 2725 3281 2906 2969 
z
M 947 1747 
Q 947 1113 1208 752 
Q 1469 391 1925 391 
Q 2381 391 2643 752 
Q 2906 1113 2906 1747 
Q 2906 2381 2643 2742 
Q 2381 3103 1925 3103 
Q 1469 3103 1208 2742 
Q 947 2381 947 1747 
z
" transform="scale(0.015625)"/>
      <path id="DejaVuSans-62" d="M 3116 1747 
Q 3116 2381 2855 2742 
Q 2594 3103 2138 3103 
Q 1681 3103 1420 2742 
Q 1159 2381 1159 1747 
Q 1159 1113 1420 752 
Q 1681 391 2138 391 
Q 2594 391 2855 752 
Q 3116 1113 3116 1747 
z
M 1159 2969 
Q 1341 3281 1617 3432 
Q 1894 3584 2278 3584 
Q 2916 3584 3314 3078 
Q 3713 2572 3713 1747 
Q 3713 922 3314 415 
Q 2916 -91 2278 -91 
Q 1894 -91 1617 61 
Q 1341 213 1159 525 
L 1159 0 
L 581 0 
L 581 4863 
L 1159 4863 
L 1159 2969 
z
" transform="scale(0.015625)"/>
      <path id="DejaVuSans-66" d="M 2375 4863 
L 2375 4384 
L 1825 4384 
Q 1516 4384 1395 4259 
Q 1275 4134 1275 3809 
L 1275 3500 
L 2222 3500 
L 2222 3053 
L 1275 3053 
L 1275 0 
L 697 0 
L 697 3053 
L 147 3053 
L 147 3500 
L 697 3500 
L 697 3744 
Q 697 4328 969 4595 
Q 1241 4863 1831 4863 
L 2375 4863 
z
" transform="scale(0.015625)"/>
     </defs>
     <use xlink:href="#DejaVuSans-50"/>
     <use xlink:href="#DejaVuSans-6f" x="56.677734"/>
     <use xlink:href="#DejaVuSans-70" x="117.859375"/>
     <use xlink:href="#DejaVuSans-75" x="181.335938"/>
     <use xlink:href="#DejaVuSans-6c" x="244.714844"/>
     <use xlink:href="#DejaVuSans-61" x="272.498047"/>
     <use xlink:href="#DejaVuSans-74" x="333.777344"/>
     <use xlink:href="#DejaVuSans-69" x="372.986328"/>
     <use xlink:href="#DejaVuSans-6f" x="400.769531"/>
     <use xlink:href="#DejaVuSans-6e" x="461.951172"/>
     <use xlink:href="#DejaVuSans-27" x="525.330078"/>
     <use xlink:href="#DejaVuSans-73" x="552.820312"/>
     <use xlink:href="#DejaVuSans-20" x="604.919922"/>
     <use xlink:href="#DejaVuSans-61" x="636.707031"/>
     <use xlink:href="#DejaVuSans-76" x="697.986328"/>
     <use xlink:href="#DejaVuSans-65" x="757.166016"/>
     <use xlink:href="#DejaVuSans-72" x="818.689453"/>
     <use xlink:href="#DejaVuSans-61" x="859.802734"/>
     <use xlink:href="#DejaVuSans-67" x="921.082031"/>
     <use xlink:href="#DejaVuSans-65" x="984.558594"/>
     <use xlink:href="#DejaVuSans-20" x="1046.082031"/>
     <use xlink:href="#DejaVuSans-61" x="1077.869141"/>
     <use xlink:href="#DejaVuSans-6e" x="1139.148438"/>
     <use xlink:href="#DejaVuSans-64" x="1202.527344"/>
     <use xlink:href="#DejaVuSans-20" x="1266.003906"/>
     <use xlink:href="#DejaVuSans-62" x="1297.791016"/>
     <use xlink:href="#DejaVuSans-65" x="1361.267578"/>
     <use xlink:href="#DejaVuSans-73" x="1422.791016"/>
     <use xlink:href="#DejaVuSans-74" x="1474.890625"/>
     <use xlink:href="#DejaVuSans-20" x="1514.099609"/>
     <use xlink:href="#DejaVuSans-66" x="1545.886719"/>
     <use xlink:href="#DejaVuSans-69" x="1581.091797"/>
     <use xlink:href="#DejaVuSans-74" x="1608.875"/>
     <use xlink:href="#DejaVuSans-6e" x="1648.083984"/>
     <use xlink:href="#DejaVuSans-65" x="1711.462891"/>
     <use xlink:href="#DejaVuSans-73" x="1772.986328"/>
     <use xlink:href="#DejaVuSans-73" x="1825.085938"/>
    </g>
   </g>
   <g id="legend_1">
    <g id="patch_7">
     <path d="M 64.6 302.584 
L 137.540625 302.584 
Q 139.540625 302.584 139.540625 300.584 
L 139.540625 242.8715 
Q 139.540625 240.8715 137.540625 240.8715 
L 64.6 240.8715 
Q 62.6 240.8715 62.6 242.8715 
L 62.6 300.584 
Q 62.6 302.584 64.6 302.584 
z
" style="fill: #ffffff; opacity: 0.8; stroke: #cccccc; stroke-linejoin: miter"/>
    </g>
    <g id="line2d_37">
     <path d="M 66.6 248.969937 
L 76.6 248.969937 
L 86.6 248.969937 
" style="fill: none; stroke: #0000ff; stroke-width: 1.5; stroke-linecap: square"/>
    </g>
    <g id="text_20">
     <!-- average -->
     <g transform="translate(94.6 252.469937) scale(0.1 -0.1)">
      <use xlink:href="#DejaVuSans-61"/>
      <use xlink:href="#DejaVuSans-76" x="61.279297"/>
      <use xlink:href="#DejaVuSans-65" x="120.458984"/>
      <use xlink:href="#DejaVuSans-72" x="181.982422"/>
      <use xlink:href="#DejaVuSans-61" x="223.095703"/>
      <use xlink:href="#DejaVuSans-67" x="284.375"/>
      <use xlink:href="#DejaVuSans-65" x="347.851562"/>
     </g>
    </g>
    <g id="line2d_38">
     <path d="M 66.6 263.648062 
L 76.6 263.648062 
L 86.6 263.648062 
" style="fill: none; stroke-dasharray: 9.6,2.4,1.5,2.4; stroke-dashoffset: 0; stroke: #008000; stroke-width: 1.5"/>
    </g>
    <g id="text_21">
     <!-- -1 sd -->
     <g transform="translate(94.6 267.148062) scale(0.1 -0.1)">
      <defs>
       <path id="DejaVuSans-2d" d="M 313 2009 
L 1997 2009 
L 1997 1497 
L 313 1497 
L 313 2009 
z
" transform="scale(0.015625)"/>
      </defs>
      <use xlink:href="#DejaVuSans-2d"/>
      <use xlink:href="#DejaVuSans-31" x="36.083984"/>
      <use xlink:href="#DejaVuSans-20" x="99.707031"/>
      <use xlink:href="#DejaVuSans-73" x="131.494141"/>
      <use xlink:href="#DejaVuSans-64" x="183.59375"/>
     </g>
    </g>
    <g id="line2d_39">
     <path d="M 66.6 278.326187 
L 76.6 278.326187 
L 86.6 278.326187 
" style="fill: none; stroke-dasharray: 9.6,2.4,1.5,2.4; stroke-dashoffset: 0; stroke: #008000; stroke-width: 1.5"/>
    </g>
    <g id="text_22">
     <!-- +1 sd -->
     <g transform="translate(94.6 281.826187) scale(0.1 -0.1)">
      <defs>
       <path id="DejaVuSans-2b" d="M 2944 4013 
L 2944 2272 
L 4684 2272 
L 4684 1741 
L 2944 1741 
L 2944 0 
L 2419 0 
L 2419 1741 
L 678 1741 
L 678 2272 
L 2419 2272 
L 2419 4013 
L 2944 4013 
z
" transform="scale(0.015625)"/>
      </defs>
      <use xlink:href="#DejaVuSans-2b"/>
      <use xlink:href="#DejaVuSans-31" x="83.789062"/>
      <use xlink:href="#DejaVuSans-20" x="147.412109"/>
      <use xlink:href="#DejaVuSans-73" x="179.199219"/>
      <use xlink:href="#DejaVuSans-64" x="231.298828"/>
     </g>
    </g>
    <g id="line2d_40">
     <path d="M 66.6 293.004312 
L 76.6 293.004312 
L 86.6 293.004312 
" style="fill: none; stroke: #ff0000; stroke-width: 1.5; stroke-linecap: square"/>
    </g>
    <g id="text_23">
     <!-- best -->
     <g transform="translate(94.6 296.504312) scale(0.1 -0.1)">
      <use xlink:href="#DejaVuSans-62"/>
      <use xlink:href="#DejaVuSans-65" x="63.476562"/>
      <use xlink:href="#DejaVuSans-73" x="125"/>
      <use xlink:href="#DejaVuSans-74" x="177.099609"/>
     </g>
    </g>
   </g>
  </g>
 </g>
 <defs>
  <clipPath id="ped1a5c85a5">
   <rect x="57.6" y="41.472" width="357.12" height="266.112"/>
  </clipPath>
 </defs>
</svg>
