<?xml version="1.0" encoding="utf-8" standalone="no"?>
<!DOCTYPE svg PUBLIC "-//W3C//DTD SVG 1.1//EN"
  "http://www.w3.org/Graphics/SVG/1.1/DTD/svg11.dtd">
<svg xmlns:xlink="http://www.w3.org/1999/xlink" width="460.8pt" height="345.6pt" viewBox="0 0 460.8 345.6" xmlns="http://www.w3.org/2000/svg" version="1.1">
 <metadata>
  <rdf:RDF xmlns:dc="http://purl.org/dc/elements/1.1/" xmlns:cc="http://creativecommons.org/ns#" xmlns:rdf="http://www.w3.org/1999/02/22-rdf-syntax-ns#">
   <cc:Work>
    <dc:type rdf:resource="http://purl.org/dc/dcmitype/StillImage"/>
    <dc:date>2023-02-11T03:35:21.289437</dc:date>
    <dc:format>image/svg+xml</dc:format>
    <dc:creator>
     <cc:Agent>
      <dc:title>Matplotlib v3.6.3, https://matplotlib.org/</dc:title>
     </cc:Agent>
    </dc:creator>
   </cc:Work>
  </rdf:RDF>
 </metadata>
 <defs>
  <style type="text/css">*{stroke-linejoin: round; stroke-linecap: butt}</style>
 </defs>
 <g id="figure_1">
  <g id="patch_1">
   <path d="M 0 345.6 
L 460.8 345.6 
L 460.8 0 
L 0 0 
z
" style="fill: #ffffff"/>
  </g>
  <g id="axes_1">
   <g id="patch_2">
    <path d="M 57.6 307.584 
L 414.72 307.584 
L 414.72 41.472 
L 57.6 41.472 
z
" style="fill: #ffffff"/>
   </g>
   <g id="matplotlib.axis_1">
    <g id="xtick_1">
     <g id="line2d_1">
      <path d="M 73.832727 307.584 
L 73.832727 41.472 
" clip-path="url(#pbe9a186422)" style="fill: none; stroke: #b0b0b0; stroke-width: 0.8; stroke-linecap: square"/>
     </g>
     <g id="line2d_2">
      <defs>
       <path id="md9a7223a36" d="M 0 0 
L 0 3.5 
" style="stroke: #000000; stroke-width: 0.8"/>
      </defs>
      <g>
       <use xlink:href="#md9a7223a36" x="73.832727" y="307.584" style="stroke: #000000; stroke-width: 0.8"/>
      </g>
     </g>
     <g id="text_1">
      <!-- 0 -->
      <g transform="translate(70.651477 322.182437) scale(0.1 -0.1)">
       <defs>
        <path id="DejaVuSans-30" d="M 2034 4250 
Q 1547 4250 1301 3770 
Q 1056 3291 1056 2328 
Q 1056 1369 1301 889 
Q 1547 409 2034 409 
Q 2525 409 2770 889 
Q 3016 1369 3016 2328 
Q 3016 3291 2770 3770 
Q 2525 4250 2034 4250 
z
M 2034 4750 
Q 2819 4750 3233 4129 
Q 3647 3509 3647 2328 
Q 3647 1150 3233 529 
Q 2819 -91 2034 -91 
Q 1250 -91 836 529 
Q 422 1150 422 2328 
Q 422 3509 836 4129 
Q 1250 4750 2034 4750 
z
" transform="scale(0.015625)"/>
       </defs>
       <use xlink:href="#DejaVuSans-30"/>
      </g>
     </g>
    </g>
    <g id="xtick_2">
     <g id="line2d_3">
      <path d="M 128.122785 307.584 
L 128.122785 41.472 
" clip-path="url(#pbe9a186422)" style="fill: none; stroke: #b0b0b0; stroke-width: 0.8; stroke-linecap: square"/>
     </g>
     <g id="line2d_4">
      <g>
       <use xlink:href="#md9a7223a36" x="128.122785" y="307.584" style="stroke: #000000; stroke-width: 0.8"/>
      </g>
     </g>
     <g id="text_2">
      <!-- 50 -->
      <g transform="translate(121.760285 322.182437) scale(0.1 -0.1)">
       <defs>
        <path id="DejaVuSans-35" d="M 691 4666 
L 3169 4666 
L 3169 4134 
L 1269 4134 
L 1269 2991 
Q 1406 3038 1543 3061 
Q 1681 3084 1819 3084 
Q 2600 3084 3056 2656 
Q 3513 2228 3513 1497 
Q 3513 744 3044 326 
Q 2575 -91 1722 -91 
Q 1428 -91 1123 -41 
Q 819 9 494 109 
L 494 744 
Q 775 591 1075 516 
Q 1375 441 1709 441 
Q 2250 441 2565 725 
Q 2881 1009 2881 1497 
Q 2881 1984 2565 2268 
Q 2250 2553 1709 2553 
Q 1456 2553 1204 2497 
Q 953 2441 691 2322 
L 691 4666 
z
" transform="scale(0.015625)"/>
       </defs>
       <use xlink:href="#DejaVuSans-35"/>
       <use xlink:href="#DejaVuSans-30" x="63.623047"/>
      </g>
     </g>
    </g>
    <g id="xtick_3">
     <g id="line2d_5">
      <path d="M 182.412843 307.584 
L 182.412843 41.472 
" clip-path="url(#pbe9a186422)" style="fill: none; stroke: #b0b0b0; stroke-width: 0.8; stroke-linecap: square"/>
     </g>
     <g id="line2d_6">
      <g>
       <use xlink:href="#md9a7223a36" x="182.412843" y="307.584" style="stroke: #000000; stroke-width: 0.8"/>
      </g>
     </g>
     <g id="text_3">
      <!-- 100 -->
      <g transform="translate(172.869093 322.182437) scale(0.1 -0.1)">
       <defs>
        <path id="DejaVuSans-31" d="M 794 531 
L 1825 531 
L 1825 4091 
L 703 3866 
L 703 4441 
L 1819 4666 
L 2450 4666 
L 2450 531 
L 3481 531 
L 3481 0 
L 794 0 
L 794 531 
z
" transform="scale(0.015625)"/>
       </defs>
       <use xlink:href="#DejaVuSans-31"/>
       <use xlink:href="#DejaVuSans-30" x="63.623047"/>
       <use xlink:href="#DejaVuSans-30" x="127.246094"/>
      </g>
     </g>
    </g>
    <g id="xtick_4">
     <g id="line2d_7">
      <path d="M 236.702901 307.584 
L 236.702901 41.472 
" clip-path="url(#pbe9a186422)" style="fill: none; stroke: #b0b0b0; stroke-width: 0.8; stroke-linecap: square"/>
     </g>
     <g id="line2d_8">
      <g>
       <use xlink:href="#md9a7223a36" x="236.702901" y="307.584" style="stroke: #000000; stroke-width: 0.8"/>
      </g>
     </g>
     <g id="text_4">
      <!-- 150 -->
      <g transform="translate(227.159151 322.182437) scale(0.1 -0.1)">
       <use xlink:href="#DejaVuSans-31"/>
       <use xlink:href="#DejaVuSans-35" x="63.623047"/>
       <use xlink:href="#DejaVuSans-30" x="127.246094"/>
      </g>
     </g>
    </g>
    <g id="xtick_5">
     <g id="line2d_9">
      <path d="M 290.992958 307.584 
L 290.992958 41.472 
" clip-path="url(#pbe9a186422)" style="fill: none; stroke: #b0b0b0; stroke-width: 0.8; stroke-linecap: square"/>
     </g>
     <g id="line2d_10">
      <g>
       <use xlink:href="#md9a7223a36" x="290.992958" y="307.584" style="stroke: #000000; stroke-width: 0.8"/>
      </g>
     </g>
     <g id="text_5">
      <!-- 200 -->
      <g transform="translate(281.449208 322.182437) scale(0.1 -0.1)">
       <defs>
        <path id="DejaVuSans-32" d="M 1228 531 
L 3431 531 
L 3431 0 
L 469 0 
L 469 531 
Q 828 903 1448 1529 
Q 2069 2156 2228 2338 
Q 2531 2678 2651 2914 
Q 2772 3150 2772 3378 
Q 2772 3750 2511 3984 
Q 2250 4219 1831 4219 
Q 1534 4219 1204 4116 
Q 875 4013 500 3803 
L 500 4441 
Q 881 4594 1212 4672 
Q 1544 4750 1819 4750 
Q 2544 4750 2975 4387 
Q 3406 4025 3406 3419 
Q 3406 3131 3298 2873 
Q 3191 2616 2906 2266 
Q 2828 2175 2409 1742 
Q 1991 1309 1228 531 
z
" transform="scale(0.015625)"/>
       </defs>
       <use xlink:href="#DejaVuSans-32"/>
       <use xlink:href="#DejaVuSans-30" x="63.623047"/>
       <use xlink:href="#DejaVuSans-30" x="127.246094"/>
      </g>
     </g>
    </g>
    <g id="xtick_6">
     <g id="line2d_11">
      <path d="M 345.283016 307.584 
L 345.283016 41.472 
" clip-path="url(#pbe9a186422)" style="fill: none; stroke: #b0b0b0; stroke-width: 0.8; stroke-linecap: square"/>
     </g>
     <g id="line2d_12">
      <g>
       <use xlink:href="#md9a7223a36" x="345.283016" y="307.584" style="stroke: #000000; stroke-width: 0.8"/>
      </g>
     </g>
     <g id="text_6">
      <!-- 250 -->
      <g transform="translate(335.739266 322.182437) scale(0.1 -0.1)">
       <use xlink:href="#DejaVuSans-32"/>
       <use xlink:href="#DejaVuSans-35" x="63.623047"/>
       <use xlink:href="#DejaVuSans-30" x="127.246094"/>
      </g>
     </g>
    </g>
    <g id="xtick_7">
     <g id="line2d_13">
      <path d="M 399.573074 307.584 
L 399.573074 41.472 
" clip-path="url(#pbe9a186422)" style="fill: none; stroke: #b0b0b0; stroke-width: 0.8; stroke-linecap: square"/>
     </g>
     <g id="line2d_14">
      <g>
       <use xlink:href="#md9a7223a36" x="399.573074" y="307.584" style="stroke: #000000; stroke-width: 0.8"/>
      </g>
     </g>
     <g id="text_7">
      <!-- 300 -->
      <g transform="translate(390.029324 322.182437) scale(0.1 -0.1)">
       <defs>
        <path id="DejaVuSans-33" d="M 2597 2516 
Q 3050 2419 3304 2112 
Q 3559 1806 3559 1356 
Q 3559 666 3084 287 
Q 2609 -91 1734 -91 
Q 1441 -91 1130 -33 
Q 819 25 488 141 
L 488 750 
Q 750 597 1062 519 
Q 1375 441 1716 441 
Q 2309 441 2620 675 
Q 2931 909 2931 1356 
Q 2931 1769 2642 2001 
Q 2353 2234 1838 2234 
L 1294 2234 
L 1294 2753 
L 1863 2753 
Q 2328 2753 2575 2939 
Q 2822 3125 2822 3475 
Q 2822 3834 2567 4026 
Q 2313 4219 1838 4219 
Q 1578 4219 1281 4162 
Q 984 4106 628 3988 
L 628 4550 
Q 988 4650 1302 4700 
Q 1616 4750 1894 4750 
Q 2613 4750 3031 4423 
Q 3450 4097 3450 3541 
Q 3450 3153 3228 2886 
Q 3006 2619 2597 2516 
z
" transform="scale(0.015625)"/>
       </defs>
       <use xlink:href="#DejaVuSans-33"/>
       <use xlink:href="#DejaVuSans-30" x="63.623047"/>
       <use xlink:href="#DejaVuSans-30" x="127.246094"/>
      </g>
     </g>
    </g>
    <g id="text_8">
     <!-- Generations -->
     <g transform="translate(205.662344 335.860562) scale(0.1 -0.1)">
      <defs>
       <path id="DejaVuSans-47" d="M 3809 666 
L 3809 1919 
L 2778 1919 
L 2778 2438 
L 4434 2438 
L 4434 434 
Q 4069 175 3628 42 
Q 3188 -91 2688 -91 
Q 1594 -91 976 548 
Q 359 1188 359 2328 
Q 359 3472 976 4111 
Q 1594 4750 2688 4750 
Q 3144 4750 3555 4637 
Q 3966 4525 4313 4306 
L 4313 3634 
Q 3963 3931 3569 4081 
Q 3175 4231 2741 4231 
Q 1884 4231 1454 3753 
Q 1025 3275 1025 2328 
Q 1025 1384 1454 906 
Q 1884 428 2741 428 
Q 3075 428 3337 486 
Q 3600 544 3809 666 
z
" transform="scale(0.015625)"/>
       <path id="DejaVuSans-65" d="M 3597 1894 
L 3597 1613 
L 953 1613 
Q 991 1019 1311 708 
Q 1631 397 2203 397 
Q 2534 397 2845 478 
Q 3156 559 3463 722 
L 3463 178 
Q 3153 47 2828 -22 
Q 2503 -91 2169 -91 
Q 1331 -91 842 396 
Q 353 884 353 1716 
Q 353 2575 817 3079 
Q 1281 3584 2069 3584 
Q 2775 3584 3186 3129 
Q 3597 2675 3597 1894 
z
M 3022 2063 
Q 3016 2534 2758 2815 
Q 2500 3097 2075 3097 
Q 1594 3097 1305 2825 
Q 1016 2553 972 2059 
L 3022 2063 
z
" transform="scale(0.015625)"/>
       <path id="DejaVuSans-6e" d="M 3513 2113 
L 3513 0 
L 2938 0 
L 2938 2094 
Q 2938 2591 2744 2837 
Q 2550 3084 2163 3084 
Q 1697 3084 1428 2787 
Q 1159 2491 1159 1978 
L 1159 0 
L 581 0 
L 581 3500 
L 1159 3500 
L 1159 2956 
Q 1366 3272 1645 3428 
Q 1925 3584 2291 3584 
Q 2894 3584 3203 3211 
Q 3513 2838 3513 2113 
z
" transform="scale(0.015625)"/>
       <path id="DejaVuSans-72" d="M 2631 2963 
Q 2534 3019 2420 3045 
Q 2306 3072 2169 3072 
Q 1681 3072 1420 2755 
Q 1159 2438 1159 1844 
L 1159 0 
L 581 0 
L 581 3500 
L 1159 3500 
L 1159 2956 
Q 1341 3275 1631 3429 
Q 1922 3584 2338 3584 
Q 2397 3584 2469 3576 
Q 2541 3569 2628 3553 
L 2631 2963 
z
" transform="scale(0.015625)"/>
       <path id="DejaVuSans-61" d="M 2194 1759 
Q 1497 1759 1228 1600 
Q 959 1441 959 1056 
Q 959 750 1161 570 
Q 1363 391 1709 391 
Q 2188 391 2477 730 
Q 2766 1069 2766 1631 
L 2766 1759 
L 2194 1759 
z
M 3341 1997 
L 3341 0 
L 2766 0 
L 2766 531 
Q 2569 213 2275 61 
Q 1981 -91 1556 -91 
Q 1019 -91 701 211 
Q 384 513 384 1019 
Q 384 1609 779 1909 
Q 1175 2209 1959 2209 
L 2766 2209 
L 2766 2266 
Q 2766 2663 2505 2880 
Q 2244 3097 1772 3097 
Q 1472 3097 1187 3025 
Q 903 2953 641 2809 
L 641 3341 
Q 956 3463 1253 3523 
Q 1550 3584 1831 3584 
Q 2591 3584 2966 3190 
Q 3341 2797 3341 1997 
z
" transform="scale(0.015625)"/>
       <path id="DejaVuSans-74" d="M 1172 4494 
L 1172 3500 
L 2356 3500 
L 2356 3053 
L 1172 3053 
L 1172 1153 
Q 1172 725 1289 603 
Q 1406 481 1766 481 
L 2356 481 
L 2356 0 
L 1766 0 
Q 1100 0 847 248 
Q 594 497 594 1153 
L 594 3053 
L 172 3053 
L 172 3500 
L 594 3500 
L 594 4494 
L 1172 4494 
z
" transform="scale(0.015625)"/>
       <path id="DejaVuSans-69" d="M 603 3500 
L 1178 3500 
L 1178 0 
L 603 0 
L 603 3500 
z
M 603 4863 
L 1178 4863 
L 1178 4134 
L 603 4134 
L 603 4863 
z
" transform="scale(0.015625)"/>
       <path id="DejaVuSans-6f" d="M 1959 3097 
Q 1497 3097 1228 2736 
Q 959 2375 959 1747 
Q 959 1119 1226 758 
Q 1494 397 1959 397 
Q 2419 397 2687 759 
Q 2956 1122 2956 1747 
Q 2956 2369 2687 2733 
Q 2419 3097 1959 3097 
z
M 1959 3584 
Q 2709 3584 3137 3096 
Q 3566 2609 3566 1747 
Q 3566 888 3137 398 
Q 2709 -91 1959 -91 
Q 1206 -91 779 398 
Q 353 888 353 1747 
Q 353 2609 779 3096 
Q 1206 3584 1959 3584 
z
" transform="scale(0.015625)"/>
       <path id="DejaVuSans-73" d="M 2834 3397 
L 2834 2853 
Q 2591 2978 2328 3040 
Q 2066 3103 1784 3103 
Q 1356 3103 1142 2972 
Q 928 2841 928 2578 
Q 928 2378 1081 2264 
Q 1234 2150 1697 2047 
L 1894 2003 
Q 2506 1872 2764 1633 
Q 3022 1394 3022 966 
Q 3022 478 2636 193 
Q 2250 -91 1575 -91 
Q 1294 -91 989 -36 
Q 684 19 347 128 
L 347 722 
Q 666 556 975 473 
Q 1284 391 1588 391 
Q 1994 391 2212 530 
Q 2431 669 2431 922 
Q 2431 1156 2273 1281 
Q 2116 1406 1581 1522 
L 1381 1569 
Q 847 1681 609 1914 
Q 372 2147 372 2553 
Q 372 3047 722 3315 
Q 1072 3584 1716 3584 
Q 2034 3584 2315 3537 
Q 2597 3491 2834 3397 
z
" transform="scale(0.015625)"/>
      </defs>
      <use xlink:href="#DejaVuSans-47"/>
      <use xlink:href="#DejaVuSans-65" x="77.490234"/>
      <use xlink:href="#DejaVuSans-6e" x="139.013672"/>
      <use xlink:href="#DejaVuSans-65" x="202.392578"/>
      <use xlink:href="#DejaVuSans-72" x="263.916016"/>
      <use xlink:href="#DejaVuSans-61" x="305.029297"/>
      <use xlink:href="#DejaVuSans-74" x="366.308594"/>
      <use xlink:href="#DejaVuSans-69" x="405.517578"/>
      <use xlink:href="#DejaVuSans-6f" x="433.300781"/>
      <use xlink:href="#DejaVuSans-6e" x="494.482422"/>
      <use xlink:href="#DejaVuSans-73" x="557.861328"/>
     </g>
    </g>
   </g>
   <g id="matplotlib.axis_2">
    <g id="ytick_1">
     <g id="line2d_15">
      <path d="M 57.6 286.880052 
L 414.72 286.880052 
" clip-path="url(#pbe9a186422)" style="fill: none; stroke: #b0b0b0; stroke-width: 0.8; stroke-linecap: square"/>
     </g>
     <g id="line2d_16">
      <defs>
       <path id="m88ed454e38" d="M 0 0 
L -3.5 0 
" style="stroke: #000000; stroke-width: 0.8"/>
      </defs>
      <g>
       <use xlink:href="#m88ed454e38" x="57.6" y="286.880052" style="stroke: #000000; stroke-width: 0.8"/>
      </g>
     </g>
     <g id="text_9">
      <!-- −0.5 -->
      <g transform="translate(26.317187 290.67927) scale(0.1 -0.1)">
       <defs>
        <path id="DejaVuSans-2212" d="M 678 2272 
L 4684 2272 
L 4684 1741 
L 678 1741 
L 678 2272 
z
" transform="scale(0.015625)"/>
        <path id="DejaVuSans-2e" d="M 684 794 
L 1344 794 
L 1344 0 
L 684 0 
L 684 794 
z
" transform="scale(0.015625)"/>
       </defs>
       <use xlink:href="#DejaVuSans-2212"/>
       <use xlink:href="#DejaVuSans-30" x="83.789062"/>
       <use xlink:href="#DejaVuSans-2e" x="147.412109"/>
       <use xlink:href="#DejaVuSans-35" x="179.199219"/>
      </g>
     </g>
    </g>
    <g id="ytick_2">
     <g id="line2d_17">
      <path d="M 57.6 245.475769 
L 414.72 245.475769 
" clip-path="url(#pbe9a186422)" style="fill: none; stroke: #b0b0b0; stroke-width: 0.8; stroke-linecap: square"/>
     </g>
     <g id="line2d_18">
      <g>
       <use xlink:href="#m88ed454e38" x="57.6" y="245.475769" style="stroke: #000000; stroke-width: 0.8"/>
      </g>
     </g>
     <g id="text_10">
      <!-- 0.0 -->
      <g transform="translate(34.696875 249.274988) scale(0.1 -0.1)">
       <use xlink:href="#DejaVuSans-30"/>
       <use xlink:href="#DejaVuSans-2e" x="63.623047"/>
       <use xlink:href="#DejaVuSans-30" x="95.410156"/>
      </g>
     </g>
    </g>
    <g id="ytick_3">
     <g id="line2d_19">
      <path d="M 57.6 204.071486 
L 414.72 204.071486 
" clip-path="url(#pbe9a186422)" style="fill: none; stroke: #b0b0b0; stroke-width: 0.8; stroke-linecap: square"/>
     </g>
     <g id="line2d_20">
      <g>
       <use xlink:href="#m88ed454e38" x="57.6" y="204.071486" style="stroke: #000000; stroke-width: 0.8"/>
      </g>
     </g>
     <g id="text_11">
      <!-- 0.5 -->
      <g transform="translate(34.696875 207.870705) scale(0.1 -0.1)">
       <use xlink:href="#DejaVuSans-30"/>
       <use xlink:href="#DejaVuSans-2e" x="63.623047"/>
       <use xlink:href="#DejaVuSans-35" x="95.410156"/>
      </g>
     </g>
    </g>
    <g id="ytick_4">
     <g id="line2d_21">
      <path d="M 57.6 162.667203 
L 414.72 162.667203 
" clip-path="url(#pbe9a186422)" style="fill: none; stroke: #b0b0b0; stroke-width: 0.8; stroke-linecap: square"/>
     </g>
     <g id="line2d_22">
      <g>
       <use xlink:href="#m88ed454e38" x="57.6" y="162.667203" style="stroke: #000000; stroke-width: 0.8"/>
      </g>
     </g>
     <g id="text_12">
      <!-- 1.0 -->
      <g transform="translate(34.696875 166.466422) scale(0.1 -0.1)">
       <use xlink:href="#DejaVuSans-31"/>
       <use xlink:href="#DejaVuSans-2e" x="63.623047"/>
       <use xlink:href="#DejaVuSans-30" x="95.410156"/>
      </g>
     </g>
    </g>
    <g id="ytick_5">
     <g id="line2d_23">
      <path d="M 57.6 121.262921 
L 414.72 121.262921 
" clip-path="url(#pbe9a186422)" style="fill: none; stroke: #b0b0b0; stroke-width: 0.8; stroke-linecap: square"/>
     </g>
     <g id="line2d_24">
      <g>
       <use xlink:href="#m88ed454e38" x="57.6" y="121.262921" style="stroke: #000000; stroke-width: 0.8"/>
      </g>
     </g>
     <g id="text_13">
      <!-- 1.5 -->
      <g transform="translate(34.696875 125.062139) scale(0.1 -0.1)">
       <use xlink:href="#DejaVuSans-31"/>
       <use xlink:href="#DejaVuSans-2e" x="63.623047"/>
       <use xlink:href="#DejaVuSans-35" x="95.410156"/>
      </g>
     </g>
    </g>
    <g id="ytick_6">
     <g id="line2d_25">
      <path d="M 57.6 79.858638 
L 414.72 79.858638 
" clip-path="url(#pbe9a186422)" style="fill: none; stroke: #b0b0b0; stroke-width: 0.8; stroke-linecap: square"/>
     </g>
     <g id="line2d_26">
      <g>
       <use xlink:href="#m88ed454e38" x="57.6" y="79.858638" style="stroke: #000000; stroke-width: 0.8"/>
      </g>
     </g>
     <g id="text_14">
      <!-- 2.0 -->
      <g transform="translate(34.696875 83.657857) scale(0.1 -0.1)">
       <use xlink:href="#DejaVuSans-32"/>
       <use xlink:href="#DejaVuSans-2e" x="63.623047"/>
       <use xlink:href="#DejaVuSans-30" x="95.410156"/>
      </g>
     </g>
    </g>
    <g id="text_15">
     <!-- Fitness -->
     <g transform="translate(20.2375 191.845187) rotate(-90) scale(0.1 -0.1)">
      <defs>
       <path id="DejaVuSans-46" d="M 628 4666 
L 3309 4666 
L 3309 4134 
L 1259 4134 
L 1259 2759 
L 3109 2759 
L 3109 2228 
L 1259 2228 
L 1259 0 
L 628 0 
L 628 4666 
z
" transform="scale(0.015625)"/>
      </defs>
      <use xlink:href="#DejaVuSans-46"/>
      <use xlink:href="#DejaVuSans-69" x="50.269531"/>
      <use xlink:href="#DejaVuSans-74" x="78.052734"/>
      <use xlink:href="#DejaVuSans-6e" x="117.261719"/>
      <use xlink:href="#DejaVuSans-65" x="180.640625"/>
      <use xlink:href="#DejaVuSans-73" x="242.164062"/>
      <use xlink:href="#DejaVuSans-73" x="294.263672"/>
     </g>
    </g>
   </g>
   <g id="line2d_27">
    <path d="M 73.832727 215.153917 
L 74.918528 205.769061 
L 76.00433 173.586662 
L 77.090131 184.067812 
L 78.175932 178.375298 
L 79.261733 188.609402 
L 80.347534 186.85432 
L 81.433335 204.454361 
L 82.519137 184.540856 
L 83.604938 198.911247 
L 84.690739 175.003839 
L 85.77654 177.307758 
L 86.862341 159.971325 
L 87.948142 185.087277 
L 89.033943 161.648888 
L 90.119745 154.404404 
L 91.205546 163.479187 
L 92.291347 180.744313 
L 93.377148 184.447581 
L 94.462949 171.555093 
L 95.54875 189.74894 
L 96.634552 171.794662 
L 97.720353 173.430937 
L 98.806154 170.191512 
L 99.891955 152.510733 
L 100.977756 185.308675 
L 102.063557 185.415291 
L 103.149358 167.808925 
L 104.23516 174.91022 
L 105.320961 174.673295 
L 106.406762 188.25321 
L 107.492563 164.756279 
L 108.578364 174.781521 
L 109.664165 194.625904 
L 110.749967 176.125435 
L 111.835768 176.003867 
L 112.921569 180.161778 
L 114.00737 169.763322 
L 115.093171 151.246522 
L 116.178972 169.177567 
L 117.264773 165.570333 
L 118.350575 181.850038 
L 119.436376 176.006398 
L 120.522177 179.469636 
L 121.607978 183.774992 
L 122.693779 170.17564 
L 123.77958 171.57476 
L 124.865382 168.300716 
L 125.951183 181.212066 
L 127.036984 171.456642 
L 128.122785 171.111147 
L 129.208586 182.375527 
L 130.294387 154.552769 
L 131.380189 179.859066 
L 132.46599 160.978139 
L 133.551791 154.266619 
L 135.723393 183.23363 
L 136.809194 176.881984 
L 137.894995 189.637953 
L 138.980797 163.491724 
L 140.066598 174.000935 
L 141.152399 186.957025 
L 142.2382 161.366764 
L 143.324001 178.088343 
L 144.409802 171.437781 
L 145.495604 197.39378 
L 146.581405 182.010709 
L 147.667206 170.387721 
L 148.753007 172.866804 
L 149.838808 177.18826 
L 150.924609 167.256983 
L 152.01041 190.624985 
L 153.096212 157.02771 
L 154.182013 184.87117 
L 155.267814 175.684135 
L 156.353615 179.384182 
L 157.439416 166.211525 
L 158.525217 174.500547 
L 159.611019 172.050908 
L 160.69682 185.225637 
L 161.782621 155.273088 
L 162.868422 171.429959 
L 163.954223 190.663744 
L 165.040024 170.536087 
L 166.125825 175.727379 
L 167.211627 190.857194 
L 168.297428 192.769842 
L 169.383229 206.576445 
L 170.46903 164.47174 
L 171.554831 195.776943 
L 172.640632 194.238544 
L 173.726434 179.571077 
L 174.812235 195.862397 
L 175.898036 194.822459 
L 176.983837 175.937966 
L 178.069638 167.633992 
L 179.155439 183.441917 
L 180.24124 179.878963 
L 181.327042 166.126071 
L 183.498644 173.211494 
L 184.584445 180.937993 
L 185.670246 168.783306 
L 186.756047 205.195612 
L 187.841849 200.493581 
L 188.92765 175.423978 
L 190.013451 175.357961 
L 191.099252 166.69446 
L 192.185053 194.350911 
L 193.270854 173.596323 
L 194.356656 159.333583 
L 195.442457 185.911798 
L 196.528258 177.599313 
L 197.614059 170.247868 
L 198.69986 158.681466 
L 199.785661 176.624932 
L 200.871462 155.04272 
L 201.957264 151.540837 
L 203.043065 152.621719 
L 204.128866 174.581515 
L 205.214667 184.369718 
L 206.300468 169.801046 
L 207.386269 151.363029 
L 208.472071 160.937769 
L 209.557872 169.040242 
L 210.643673 148.305668 
L 211.729474 155.785811 
L 212.815275 177.159392 
L 213.901076 160.195482 
L 214.986877 177.936413 
L 216.072679 183.580391 
L 217.15848 168.437925 
L 218.244281 164.352473 
L 219.330082 174.193351 
L 220.415883 155.620769 
L 221.501684 164.357764 
L 222.587486 162.00922 
L 223.673287 155.620539 
L 224.759088 161.094185 
L 225.844889 138.699759 
L 226.93069 164.336141 
L 228.016491 159.97742 
L 229.102292 160.533502 
L 230.188094 141.850395 
L 231.273895 160.79895 
L 232.359696 176.115084 
L 233.445497 176.35822 
L 234.531298 166.462021 
L 235.617099 172.283578 
L 236.702901 174.023018 
L 237.788702 152.19008 
L 238.874503 147.394429 
L 239.960304 140.479454 
L 241.046105 155.842743 
L 242.131906 141.214839 
L 243.217708 143.248019 
L 244.303509 162.882045 
L 245.38931 150.345749 
L 246.475111 148.703264 
L 247.560912 158.91609 
L 248.646713 153.469817 
L 249.732514 158.003241 
L 250.818316 163.725197 
L 251.904117 166.091567 
L 252.989918 152.011811 
L 254.075719 168.981701 
L 255.16152 140.633914 
L 256.247321 164.001801 
L 257.333123 170.430161 
L 258.418924 166.284442 
L 259.504725 158.454778 
L 260.590526 162.431199 
L 261.676327 177.435076 
L 262.762128 170.127104 
L 263.847929 173.733647 
L 264.933731 175.533239 
L 266.019532 170.553109 
L 267.105333 151.451703 
L 268.191134 159.968449 
L 269.276935 170.466735 
L 270.362736 193.142941 
L 271.448538 173.40851 
L 272.534339 168.025378 
L 273.62014 172.186163 
L 274.705941 144.779403 
L 275.791742 169.957002 
L 276.877543 177.749633 
L 277.963344 166.302844 
L 279.049146 161.883512 
L 280.134947 176.710156 
L 281.220748 163.426627 
L 282.306549 170.142056 
L 283.39235 174.559434 
L 284.478151 172.697391 
L 285.563953 148.680147 
L 286.649754 175.634795 
L 287.735555 174.255227 
L 288.821356 162.917584 
L 289.907157 187.157491 
L 290.992958 149.887771 
L 292.07876 162.571399 
L 293.164561 179.105969 
L 294.250362 180.591693 
L 295.336163 167.75556 
L 296.421964 176.386052 
L 297.507765 151.233871 
L 298.593566 147.953846 
L 299.679368 161.733307 
L 300.765169 161.72123 
L 301.85097 165.759873 
L 302.936771 148.848063 
L 304.022572 155.739346 
L 305.108373 181.300971 
L 306.194175 169.713062 
L 307.279976 179.052028 
L 308.365777 161.281425 
L 309.451578 173.717086 
L 310.537379 158.625915 
L 311.62318 164.974802 
L 312.708981 166.423147 
L 313.794783 182.713317 
L 314.880584 181.530419 
L 315.966385 180.045616 
L 317.052186 173.111779 
L 318.137987 176.415611 
L 319.223788 174.904584 
L 320.30959 161.13421 
L 321.395391 178.154705 
L 322.481192 168.913384 
L 323.566993 141.459469 
L 324.652794 158.544602 
L 325.738595 170.117559 
L 326.824396 156.434249 
L 327.910198 150.357364 
L 328.995999 158.850074 
L 330.0818 170.328031 
L 331.167601 165.481774 
L 332.253402 142.877452 
L 333.339203 175.622258 
L 334.425005 171.824221 
L 335.510806 173.806681 
L 336.596607 159.084238 
L 337.682408 167.015688 
L 338.768209 188.506466 
L 339.85401 185.254735 
L 340.939811 164.295311 
L 342.025613 166.956227 
L 343.111414 177.239555 
L 344.197215 175.97293 
L 345.283016 162.29652 
L 346.368817 157.074519 
L 347.454618 157.178491 
L 348.54042 154.868362 
L 349.626221 174.488241 
L 350.712022 148.451388 
L 351.797823 151.105747 
L 352.883624 157.576891 
L 353.969425 152.719939 
L 355.055227 139.954309 
L 356.141028 152.988032 
L 357.226829 153.601965 
L 358.31263 160.342238 
L 359.398431 179.274691 
L 360.484232 176.828963 
L 361.570033 157.063018 
L 362.655835 158.120323 
L 363.741636 149.834291 
L 364.827437 153.004594 
L 366.999039 147.0709 
L 368.08484 156.137748 
L 370.256443 179.983969 
L 371.342244 158.227744 
L 372.428045 153.895821 
L 373.513846 143.226972 
L 374.599647 131.21881 
L 375.685448 154.297673 
L 376.77125 149.321798 
L 377.857051 165.547791 
L 378.942852 172.20721 
L 380.028653 147.035131 
L 381.114454 165.43462 
L 382.200255 164.094386 
L 383.286057 151.163023 
L 384.371858 151.322544 
L 385.457659 184.522339 
L 386.54346 165.333295 
L 387.629261 156.478988 
L 388.715062 155.023282 
L 389.800863 166.439133 
L 390.886665 158.470994 
L 391.972466 173.60909 
L 393.058267 163.427547 
L 394.144068 160.464956 
L 395.229869 147.452049 
L 396.31567 142.029123 
L 397.401472 159.960858 
L 398.487273 130.256276 
L 398.487273 130.256276 
" clip-path="url(#pbe9a186422)" style="fill: none; stroke: #0000ff; stroke-width: 1.5; stroke-linecap: square"/>
   </g>
   <g id="line2d_28">
    <path d="M 73.832727 282.294238 
L 74.918528 269.048128 
L 76.00433 246.699257 
L 77.090131 261.194425 
L 78.175932 257.150236 
L 79.261733 267.734093 
L 80.347534 267.596825 
L 81.433335 281.192769 
L 82.519137 269.494608 
L 83.604938 280.185121 
L 84.690739 255.010652 
L 85.77654 263.297905 
L 86.862341 241.035537 
L 87.948142 267.097131 
L 89.033943 239.951988 
L 90.119745 238.206346 
L 91.205546 237.404774 
L 92.291347 262.328697 
L 93.377148 263.966575 
L 94.462949 249.996248 
L 95.54875 273.100097 
L 96.634552 255.410707 
L 97.720353 253.722869 
L 98.806154 251.609304 
L 99.891955 223.542958 
L 100.977756 263.72992 
L 102.063557 266.047078 
L 103.149358 249.160154 
L 104.23516 250.880633 
L 105.320961 261.721206 
L 106.406762 266.262894 
L 107.492563 245.286863 
L 108.578364 263.888613 
L 109.664165 271.629368 
L 110.749967 260.465453 
L 111.835768 254.651891 
L 112.921569 258.934666 
L 114.00737 250.453362 
L 115.093171 229.123999 
L 116.178972 244.631805 
L 117.264773 249.785278 
L 118.350575 266.740523 
L 119.436376 252.82725 
L 120.522177 269.372016 
L 121.607978 264.419365 
L 122.693779 252.819258 
L 123.77958 260.860164 
L 124.865382 247.350636 
L 125.951183 265.440669 
L 127.036984 249.057829 
L 128.122785 250.613702 
L 129.208586 259.67702 
L 130.294387 234.416468 
L 131.380189 260.122116 
L 133.551791 230.84006 
L 134.637592 252.20286 
L 135.723393 265.401873 
L 136.809194 264.158952 
L 137.894995 267.772736 
L 138.980797 240.673097 
L 140.066598 254.972206 
L 141.152399 272.713884 
L 142.2382 247.435768 
L 143.324001 257.911846 
L 144.409802 251.78943 
L 145.495604 278.401118 
L 147.667206 251.086043 
L 148.753007 254.510476 
L 149.838808 259.098168 
L 150.924609 247.2759 
L 152.01041 266.934826 
L 153.096212 230.705453 
L 154.182013 261.204652 
L 155.267814 258.900366 
L 156.353615 260.657678 
L 157.439416 244.071928 
L 158.525217 258.457643 
L 159.611019 259.032659 
L 160.69682 271.926235 
L 161.782621 231.642756 
L 162.868422 258.64568 
L 163.954223 279.381595 
L 165.040024 253.162529 
L 166.125825 256.295376 
L 167.211627 278.408708 
L 168.297428 273.61474 
L 169.383229 295.488 
L 170.46903 244.246203 
L 171.554831 275.099989 
L 172.640632 272.853401 
L 173.726434 257.227762 
L 174.812235 281.693157 
L 175.898036 276.605896 
L 176.983837 256.62842 
L 178.069638 250.838752 
L 179.155439 255.383767 
L 180.24124 262.214172 
L 181.327042 250.396892 
L 182.412843 250.854077 
L 183.498644 253.41371 
L 184.584445 262.757131 
L 185.670246 249.371057 
L 186.756047 281.915038 
L 187.841849 283.824648 
L 188.92765 260.460274 
L 190.013451 257.566782 
L 191.099252 242.225234 
L 192.185053 278.499747 
L 193.270854 254.005325 
L 194.356656 236.457276 
L 195.442457 263.143071 
L 196.528258 263.32671 
L 198.69986 238.666177 
L 199.785661 257.77265 
L 200.871462 240.32941 
L 201.957264 230.51016 
L 203.043065 231.662786 
L 204.128866 255.700514 
L 205.214667 273.681458 
L 207.386269 227.228579 
L 208.472071 241.04129 
L 209.557872 247.8958 
L 210.643673 219.688701 
L 211.729474 237.58541 
L 212.815275 262.782023 
L 213.901076 244.477182 
L 214.986877 256.594628 
L 216.072679 266.218334 
L 217.15848 253.611161 
L 218.244281 248.008161 
L 219.330082 250.47375 
L 220.415883 235.224003 
L 221.501684 248.672661 
L 222.587486 242.540268 
L 223.673287 232.668267 
L 224.759088 247.313696 
L 225.844889 210.498578 
L 226.93069 243.774946 
L 228.016491 239.546252 
L 229.102292 238.59422 
L 230.188094 217.630058 
L 231.273895 240.532381 
L 232.359696 258.409926 
L 233.445497 253.075498 
L 234.531298 250.024275 
L 235.617099 252.330865 
L 236.702901 259.00309 
L 237.788702 230.025474 
L 238.874503 217.192301 
L 239.960304 223.189013 
L 241.046105 234.953833 
L 242.131906 215.90844 
L 243.217708 215.631011 
L 244.303509 251.042256 
L 245.38931 228.89598 
L 246.475111 230.015907 
L 247.560912 239.115002 
L 248.646713 234.770798 
L 249.732514 245.146997 
L 250.818316 244.744213 
L 251.904117 249.777097 
L 252.989918 232.159988 
L 254.075719 249.691179 
L 255.16152 208.890598 
L 256.247321 246.017011 
L 257.333123 253.039761 
L 258.418924 241.591096 
L 259.504725 239.827898 
L 260.590526 240.842647 
L 261.676327 256.934403 
L 262.762128 255.120235 
L 263.847929 254.952854 
L 264.933731 258.534385 
L 266.019532 257.45582 
L 267.105333 225.497156 
L 268.191134 241.276518 
L 269.276935 247.981068 
L 270.362736 276.090083 
L 271.448538 251.135615 
L 272.534339 253.362289 
L 273.62014 255.210913 
L 274.705941 224.821488 
L 275.791742 250.322969 
L 276.877543 254.781221 
L 277.963344 241.737591 
L 279.049146 239.224671 
L 280.134947 257.422615 
L 281.220748 243.22836 
L 282.306549 249.332564 
L 283.39235 258.483943 
L 284.478151 253.544497 
L 285.563953 229.114576 
L 286.649754 263.559251 
L 287.735555 264.912256 
L 288.821356 241.288405 
L 289.907157 269.476095 
L 290.992958 222.872253 
L 292.07876 247.74972 
L 293.164561 265.014988 
L 294.250362 266.644277 
L 295.336163 248.541258 
L 296.421964 261.871195 
L 297.507765 227.818537 
L 298.593566 230.047424 
L 299.679368 246.135857 
L 300.765169 247.037293 
L 301.85097 244.57113 
L 302.936771 224.485463 
L 304.022572 239.722419 
L 305.108373 276.655631 
L 306.194175 253.460875 
L 307.279976 260.025701 
L 308.365777 242.176379 
L 309.451578 250.49691 
L 310.537379 233.901006 
L 311.62318 250.057837 
L 312.708981 246.74373 
L 313.794783 264.593255 
L 314.880584 265.388218 
L 315.966385 256.720391 
L 317.052186 251.600241 
L 318.137987 258.74674 
L 319.223788 262.603999 
L 320.30959 240.435897 
L 321.395391 265.418228 
L 322.481192 248.469718 
L 323.566993 216.657158 
L 324.652794 238.796195 
L 325.738595 256.048621 
L 326.824396 235.794045 
L 327.910198 232.166349 
L 328.995999 243.960234 
L 330.0818 253.146092 
L 331.167601 246.0729 
L 332.253402 222.209975 
L 333.339203 259.335033 
L 334.425005 256.772573 
L 335.510806 255.277299 
L 336.596607 245.769284 
L 337.682408 246.102338 
L 338.768209 274.313422 
L 339.85401 269.133132 
L 340.939811 240.460489 
L 342.025613 250.150881 
L 343.111414 256.865408 
L 344.197215 262.040601 
L 345.283016 237.416568 
L 346.368817 233.727618 
L 347.454618 234.111458 
L 348.54042 231.95979 
L 349.626221 252.236436 
L 350.712022 226.642853 
L 351.797823 235.873737 
L 352.883624 241.799699 
L 353.969425 234.602542 
L 355.055227 220.875425 
L 356.141028 234.341969 
L 357.226829 231.881838 
L 358.31263 235.79909 
L 359.398431 265.206822 
L 360.484232 256.988463 
L 361.570033 238.102483 
L 362.655835 239.581163 
L 363.741636 230.688235 
L 364.827437 234.320141 
L 365.913238 226.055697 
L 366.999039 222.90965 
L 368.08484 231.575304 
L 369.170642 253.221759 
L 370.256443 266.629392 
L 371.342244 237.749584 
L 372.428045 237.344278 
L 373.513846 220.601165 
L 374.599647 201.744498 
L 375.685448 237.891356 
L 376.77125 231.712617 
L 377.857051 254.783212 
L 378.942852 257.721889 
L 380.028653 220.345592 
L 381.114454 250.434866 
L 382.200255 249.295658 
L 383.286057 226.215118 
L 384.371858 227.79078 
L 385.457659 266.831973 
L 386.54346 246.611065 
L 387.629261 232.81473 
L 388.715062 235.971051 
L 389.800863 246.851952 
L 390.886665 242.330702 
L 391.972466 259.535427 
L 394.144068 241.259703 
L 395.229869 228.593675 
L 396.31567 220.955603 
L 397.401472 240.450291 
L 398.487273 206.944551 
L 398.487273 206.944551 
" clip-path="url(#pbe9a186422)" style="fill: none; stroke-dasharray: 9.6,2.4,1.5,2.4; stroke-dashoffset: 0; stroke: #008000; stroke-width: 1.5"/>
   </g>
   <g id="line2d_29">
    <path d="M 73.832727 148.013597 
L 74.918528 142.489994 
L 76.00433 100.474068 
L 77.090131 106.941198 
L 78.175932 99.60036 
L 79.261733 109.484711 
L 80.347534 106.111816 
L 81.433335 127.715952 
L 82.519137 99.587105 
L 83.604938 117.637373 
L 84.690739 94.997027 
L 85.77654 91.31761 
L 86.862341 78.907112 
L 87.948142 103.077424 
L 89.033943 83.345787 
L 90.119745 70.602462 
L 91.205546 89.5536 
L 92.291347 99.15993 
L 93.377148 104.928587 
L 94.462949 93.113937 
L 95.54875 106.397782 
L 96.634552 88.178617 
L 97.720353 93.139004 
L 98.806154 88.77372 
L 99.891955 81.478507 
L 100.977756 106.887431 
L 102.063557 104.783504 
L 103.149358 86.457697 
L 104.23516 98.939806 
L 105.320961 87.625384 
L 106.406762 110.243526 
L 107.492563 84.225696 
L 108.578364 85.67443 
L 109.664165 117.62244 
L 110.749967 91.785417 
L 111.835768 97.355843 
L 112.921569 101.388891 
L 114.00737 89.073282 
L 115.093171 73.369045 
L 116.178972 93.723328 
L 117.264773 81.355388 
L 118.350575 96.959552 
L 119.436376 99.185546 
L 120.522177 89.567257 
L 121.607978 103.130618 
L 122.693779 87.532023 
L 123.77958 82.289355 
L 124.865382 89.250797 
L 125.951183 96.983463 
L 127.036984 93.855455 
L 128.122785 91.608592 
L 129.208586 105.074033 
L 130.294387 74.689069 
L 131.380189 99.596017 
L 132.46599 75.932089 
L 133.551791 77.693179 
L 134.637592 85.109575 
L 135.723393 101.065387 
L 136.809194 89.605015 
L 137.894995 111.50317 
L 138.980797 86.310351 
L 140.066598 93.029665 
L 141.152399 101.200167 
L 142.2382 75.297759 
L 143.324001 98.26484 
L 144.409802 91.086132 
L 145.495604 116.386442 
L 146.581405 98.804591 
L 147.667206 89.6894 
L 148.753007 91.223132 
L 149.838808 95.278352 
L 150.924609 87.238065 
L 152.01041 114.315144 
L 153.096212 83.349967 
L 154.182013 108.537689 
L 155.267814 92.467903 
L 156.353615 98.110687 
L 157.439416 88.351122 
L 158.525217 90.543451 
L 159.611019 85.069157 
L 160.69682 98.525039 
L 161.782621 78.903421 
L 162.868422 84.214239 
L 163.954223 101.945894 
L 165.040024 87.909646 
L 166.125825 95.159382 
L 168.297428 111.924944 
L 169.383229 117.66489 
L 170.46903 84.697277 
L 171.554831 116.453898 
L 172.640632 115.623687 
L 173.726434 101.914392 
L 174.812235 110.031637 
L 175.898036 113.039022 
L 176.983837 95.247513 
L 178.069638 84.429232 
L 179.155439 111.500068 
L 180.24124 97.543755 
L 181.327042 81.85525 
L 182.412843 88.591829 
L 183.498644 93.009278 
L 184.584445 99.118855 
L 185.670246 88.195555 
L 186.756047 128.476186 
L 187.841849 117.162514 
L 188.92765 90.387681 
L 190.013451 93.149139 
L 191.099252 91.163685 
L 192.185053 110.202074 
L 193.270854 93.187322 
L 194.356656 82.209891 
L 195.442457 108.680525 
L 196.528258 91.871915 
L 197.614059 89.396135 
L 198.69986 78.696755 
L 199.785661 95.477214 
L 200.871462 69.756029 
L 201.957264 72.571513 
L 203.043065 73.580652 
L 204.128866 93.462517 
L 205.214667 95.057979 
L 206.300468 89.767735 
L 207.386269 75.497479 
L 208.472071 80.834249 
L 209.557872 90.184685 
L 210.643673 76.922634 
L 211.729474 73.986212 
L 212.815275 91.536762 
L 213.901076 75.913782 
L 214.986877 99.278198 
L 216.072679 100.942448 
L 217.15848 83.264688 
L 218.244281 80.696784 
L 219.330082 97.912951 
L 220.415883 76.017536 
L 221.501684 80.042867 
L 222.587486 81.478172 
L 223.673287 78.572812 
L 224.759088 74.874675 
L 225.844889 66.90094 
L 226.93069 84.897335 
L 228.016491 80.408587 
L 229.102292 82.472785 
L 230.188094 66.070733 
L 231.273895 81.065518 
L 232.359696 93.820242 
L 233.445497 99.640941 
L 234.531298 82.899766 
L 235.617099 92.236291 
L 236.702901 89.042946 
L 237.788702 74.354685 
L 238.874503 77.596556 
L 239.960304 57.769894 
L 241.046105 76.731652 
L 242.131906 66.521239 
L 243.217708 70.865028 
L 244.303509 74.721834 
L 245.38931 71.795517 
L 246.475111 67.39062 
L 247.560912 78.717179 
L 248.646713 72.168837 
L 249.732514 70.859484 
L 250.818316 82.706181 
L 251.904117 82.406038 
L 252.989918 71.863634 
L 254.075719 88.272224 
L 255.16152 72.377231 
L 256.247321 81.986591 
L 257.333123 87.820561 
L 258.418924 90.977789 
L 259.504725 77.081658 
L 260.590526 84.019751 
L 261.676327 97.935748 
L 262.762128 85.133974 
L 263.847929 92.514441 
L 264.933731 92.532093 
L 266.019532 83.650398 
L 267.105333 77.406249 
L 268.191134 78.66038 
L 269.276935 92.952403 
L 270.362736 110.195798 
L 271.448538 95.681404 
L 272.534339 82.688467 
L 273.62014 89.161412 
L 274.705941 64.737319 
L 275.791742 89.591036 
L 276.877543 100.718045 
L 277.963344 90.868098 
L 279.049146 84.542353 
L 280.134947 95.997697 
L 281.220748 83.624894 
L 282.306549 90.951549 
L 283.39235 90.634925 
L 284.478151 91.850284 
L 285.563953 68.245717 
L 286.649754 87.710339 
L 287.735555 83.598198 
L 288.821356 84.546764 
L 289.907157 104.838887 
L 290.992958 76.90329 
L 292.07876 77.393077 
L 293.164561 93.196949 
L 294.250362 94.539109 
L 295.336163 86.969862 
L 296.421964 90.90091 
L 297.507765 74.649205 
L 298.593566 65.860269 
L 299.679368 77.330756 
L 300.765169 76.405168 
L 301.85097 86.948616 
L 302.936771 73.210664 
L 304.022572 71.756274 
L 305.108373 85.946311 
L 306.194175 85.965249 
L 307.279976 98.078355 
L 308.365777 80.386472 
L 309.451578 96.937262 
L 310.537379 83.350825 
L 311.62318 79.891767 
L 312.708981 86.102563 
L 313.794783 100.833378 
L 314.880584 97.67262 
L 315.966385 103.37084 
L 317.052186 94.623316 
L 318.137987 94.084481 
L 319.223788 87.205168 
L 320.30959 81.832522 
L 321.395391 90.891182 
L 322.481192 89.357051 
L 323.566993 66.26178 
L 324.652794 78.29301 
L 325.738595 84.186497 
L 326.824396 77.074452 
L 327.910198 68.54838 
L 328.995999 73.739914 
L 330.0818 87.50997 
L 331.167601 84.890649 
L 332.253402 63.544928 
L 333.339203 91.909483 
L 334.425005 86.875869 
L 335.510806 92.336063 
L 336.596607 72.399191 
L 338.768209 102.69951 
L 339.85401 101.376338 
L 340.939811 88.130133 
L 342.025613 83.761574 
L 343.111414 97.613702 
L 344.197215 89.905258 
L 345.283016 87.176472 
L 346.368817 80.421421 
L 347.454618 80.245524 
L 348.54042 77.776933 
L 349.626221 96.740046 
L 350.712022 70.259923 
L 351.797823 66.337757 
L 352.883624 73.354083 
L 353.969425 70.837337 
L 355.055227 59.033193 
L 356.141028 71.634096 
L 357.226829 75.322093 
L 358.31263 84.885385 
L 359.398431 93.34256 
L 360.484232 96.669463 
L 361.570033 76.023553 
L 362.655835 76.659483 
L 363.741636 68.980347 
L 364.827437 71.689046 
L 365.913238 73.997025 
L 366.999039 71.232149 
L 368.08484 80.700192 
L 369.170642 83.124577 
L 370.256443 93.338547 
L 371.342244 78.705904 
L 372.428045 70.447365 
L 373.513846 65.852779 
L 374.599647 60.693122 
L 375.685448 70.70399 
L 376.77125 66.930979 
L 377.857051 76.312371 
L 378.942852 86.69253 
L 380.028653 73.724671 
L 381.114454 80.434373 
L 382.200255 78.893115 
L 383.286057 76.110929 
L 384.371858 74.854309 
L 385.457659 102.212705 
L 386.54346 84.055524 
L 387.629261 80.143246 
L 388.715062 74.075514 
L 389.800863 86.026315 
L 390.886665 74.611286 
L 391.972466 87.682754 
L 393.058267 76.889085 
L 394.144068 79.670208 
L 395.229869 66.310424 
L 396.31567 63.102644 
L 397.401472 79.471425 
L 398.487273 53.568 
L 398.487273 53.568 
" clip-path="url(#pbe9a186422)" style="fill: none; stroke-dasharray: 9.6,2.4,1.5,2.4; stroke-dashoffset: 0; stroke: #008000; stroke-width: 1.5"/>
   </g>
   <g id="line2d_30">
    <path d="M 73.832727 70.724852 
L 74.918528 67.271734 
L 76.00433 70.915313 
L 77.090131 73.060056 
L 78.175932 67.528444 
L 79.261733 67.669222 
L 80.347534 69.151494 
L 81.433335 73.00209 
L 82.519137 67.412512 
L 83.604938 69.739434 
L 84.690739 71.19686 
L 85.77654 70.178313 
L 86.862341 67.909357 
L 87.948142 67.246897 
L 89.033943 66.393966 
L 90.119745 70.749698 
L 91.205546 68.613238 
L 92.291347 72.546646 
L 93.377148 71.263108 
L 94.462949 70.633767 
L 95.54875 71.668868 
L 96.634552 69.366793 
L 97.720353 70.244561 
L 98.806154 67.462196 
L 99.891955 71.437005 
L 100.977756 67.164085 
L 102.063557 69.0604 
L 103.149358 72.472116 
L 104.23516 72.753662 
L 105.320961 68.696041 
L 106.406762 67.925922 
L 107.492563 70.35221 
L 108.578364 70.418458 
L 109.664165 73.33332 
L 110.749967 70.476424 
L 111.835768 72.604612 
L 112.921569 72.248535 
L 114.00737 69.491006 
L 115.093171 67.925922 
L 116.178972 69.366793 
L 118.350575 70.782817 
L 119.436376 71.056091 
L 120.522177 70.037545 
L 121.607978 70.501271 
L 122.693779 73.209106 
L 123.77958 67.453913 
L 124.865382 72.016662 
L 125.951183 73.681114 
L 127.036984 72.985525 
L 128.122785 70.136912 
L 130.294387 67.164085 
L 131.380189 71.768245 
L 132.46599 67.702341 
L 133.551791 67.379383 
L 134.637592 69.706305 
L 138.980797 66.253187 
L 140.066598 74.120003 
L 141.152399 73.623149 
L 142.2382 69.13493 
L 143.324001 70.517835 
L 144.409802 66.89082 
L 145.495604 68.14123 
L 146.581405 66.990187 
L 147.667206 69.110083 
L 148.753007 67.644375 
L 149.838808 70.112065 
L 150.924609 67.611246 
L 152.01041 69.20946 
L 153.096212 68.845101 
L 154.182013 70.517835 
L 155.267814 68.513861 
L 156.353615 70.435023 
L 157.439416 67.371111 
L 158.525217 72.281654 
L 159.611019 69.052117 
L 160.69682 66.41053 
L 161.782621 68.422776 
L 162.868422 68.364811 
L 163.954223 69.300545 
L 165.040024 69.325391 
L 166.125825 66.625829 
L 167.211627 71.01468 
L 168.297428 68.464178 
L 169.383229 70.849065 
L 170.46903 67.395948 
L 171.554831 68.911349 
L 172.640632 67.048153 
L 173.726434 66.675512 
L 174.812235 71.801364 
L 175.898036 69.863648 
L 176.983837 67.429077 
L 178.069638 68.513861 
L 179.155439 71.635749 
L 180.24124 67.983887 
L 181.327042 69.201178 
L 182.412843 67.942486 
L 183.498644 70.724852 
L 184.584445 67.950768 
L 185.670246 69.383357 
L 186.756047 74.558893 
L 187.841849 68.373093 
L 188.92765 70.650321 
L 190.013451 70.244561 
L 191.099252 69.457878 
L 192.185053 70.617202 
L 193.270854 73.507217 
L 194.356656 69.424759 
L 195.442457 68.795418 
L 196.528258 71.437005 
L 197.614059 72.116039 
L 198.69986 67.015024 
L 199.785661 68.745724 
L 200.871462 66.675512 
L 201.957264 70.120347 
L 203.043065 67.106119 
L 204.128866 69.308827 
L 206.300468 67.843119 
L 207.386269 72.356184 
L 208.472071 66.087572 
L 209.557872 67.40423 
L 210.643673 69.772553 
L 211.729474 69.242579 
L 212.815275 68.050135 
L 213.901076 69.234297 
L 214.986877 69.623502 
L 216.072679 67.55328 
L 217.15848 71.370757 
L 218.244281 70.890467 
L 219.330082 67.395948 
L 220.415883 69.855365 
L 221.501684 69.234297 
L 222.587486 67.99217 
L 223.673287 66.501615 
L 224.759088 68.530426 
L 225.844889 68.447613 
L 226.93069 65.82259 
L 228.016491 70.103793 
L 229.102292 70.20316 
L 230.188094 69.110083 
L 231.273895 68.265434 
L 232.359696 69.308827 
L 233.445497 70.153476 
L 234.531298 68.406212 
L 235.617099 67.876238 
L 236.702901 68.033571 
L 237.788702 71.428723 
L 239.960304 69.350228 
L 241.046105 70.989843 
L 242.131906 65.772897 
L 243.217708 69.383357 
L 244.303509 68.041853 
L 246.475111 68.248879 
L 247.560912 66.220068 
L 248.646713 66.195222 
L 251.904117 70.112065 
L 252.989918 68.994152 
L 254.075719 68.455895 
L 255.16152 66.128974 
L 256.247321 67.561563 
L 257.333123 68.571827 
L 258.418924 68.240597 
L 259.504725 67.718905 
L 260.590526 73.40785 
L 261.676327 66.733478 
L 262.762128 68.845101 
L 263.847929 67.834837 
L 264.933731 74.078602 
L 266.019532 70.087228 
L 267.105333 73.043491 
L 268.191134 69.573809 
L 269.276935 73.40785 
L 270.362736 70.567519 
L 272.534339 66.716923 
L 273.62014 68.265434 
L 274.705941 70.012698 
L 275.791742 69.366793 
L 276.877543 70.625485 
L 277.963344 67.934204 
L 279.049146 66.733478 
L 280.134947 69.0604 
L 281.220748 68.62151 
L 282.306549 70.310809 
L 283.39235 71.138894 
L 284.478151 74.318747 
L 285.563953 69.118365 
L 286.649754 73.07662 
L 287.735555 66.625829 
L 288.821356 69.896767 
L 289.907157 68.80369 
L 290.992958 71.321073 
L 292.07876 69.457878 
L 293.164561 70.145194 
L 294.250362 68.720887 
L 295.336163 69.093529 
L 296.421964 71.950424 
L 297.507765 67.826555 
L 298.593566 70.60892 
L 299.679368 67.768589 
L 300.765169 67.470478 
L 301.85097 71.784799 
L 302.936771 68.166067 
L 304.022572 69.888484 
L 305.108373 71.163741 
L 306.194175 68.497307 
L 307.279976 71.097493 
L 308.365777 68.778853 
L 309.451578 69.399912 
L 310.537379 69.027281 
L 311.62318 69.168049 
L 312.708981 69.159767 
L 313.794783 66.808008 
L 314.880584 70.890467 
L 315.966385 67.627811 
L 317.052186 67.925922 
L 318.137987 70.211442 
L 319.223788 70.02098 
L 320.30959 70.68345 
L 321.395391 68.273716 
L 322.481192 68.033571 
L 323.566993 66.48505 
L 324.652794 70.60892 
L 325.738595 67.545008 
L 326.824396 68.356528 
L 327.910198 68.124665 
L 328.995999 69.052117 
L 330.0818 67.064718 
L 331.167601 69.267426 
L 332.253402 70.385339 
L 333.339203 68.373093 
L 334.425005 67.934204 
L 335.510806 68.754006 
L 336.596607 68.373093 
L 337.682408 70.774535 
L 338.768209 68.820254 
L 339.85401 71.130612 
L 340.939811 71.561219 
L 342.025613 68.406212 
L 343.111414 68.911349 
L 344.197215 68.54699 
L 345.283016 68.422776 
L 346.368817 66.808008 
L 347.454618 73.416132 
L 348.54042 70.145194 
L 349.626221 68.571827 
L 350.712022 70.252843 
L 351.797823 68.894785 
L 352.883624 68.662922 
L 353.969425 69.267426 
L 355.055227 69.068682 
L 357.226829 70.617202 
L 358.31263 69.093529 
L 359.398431 71.701997 
L 360.484232 70.815946 
L 361.570033 73.209106 
L 362.655835 71.412168 
L 363.741636 68.95275 
L 364.827437 71.254825 
L 365.913238 71.147176 
L 366.999039 70.087228 
L 368.08484 68.522143 
L 369.170642 70.716569 
L 370.256443 69.491006 
L 371.342244 73.846739 
L 372.428045 66.99847 
L 373.513846 67.834837 
L 374.599647 65.963359 
L 375.685448 70.633767 
L 376.77125 66.551298 
L 377.857051 68.795418 
L 378.942852 68.820254 
L 380.028653 68.580109 
L 381.114454 67.644375 
L 382.200255 70.219724 
L 383.286057 70.261126 
L 384.371858 68.273716 
L 385.457659 74.277336 
L 386.54346 69.772553 
L 387.629261 67.88452 
L 388.715062 68.083264 
L 389.800863 68.149502 
L 390.886665 66.791444 
L 391.972466 65.872274 
L 393.058267 67.139238 
L 394.144068 68.961033 
L 395.229869 68.745724 
L 396.31567 68.331682 
L 397.401472 69.94645 
L 398.487273 67.694059 
L 398.487273 67.694059 
" clip-path="url(#pbe9a186422)" style="fill: none; stroke: #ff0000; stroke-width: 1.5; stroke-linecap: square"/>
   </g>
   <g id="patch_3">
    <path d="M 57.6 307.584 
L 57.6 41.472 
" style="fill: none; stroke: #000000; stroke-width: 0.8; stroke-linejoin: miter; stroke-linecap: square"/>
   </g>
   <g id="patch_4">
    <path d="M 414.72 307.584 
L 414.72 41.472 
" style="fill: none; stroke: #000000; stroke-width: 0.8; stroke-linejoin: miter; stroke-linecap: square"/>
   </g>
   <g id="patch_5">
    <path d="M 57.6 307.584 
L 414.72 307.584 
" style="fill: none; stroke: #000000; stroke-width: 0.8; stroke-linejoin: miter; stroke-linecap: square"/>
   </g>
   <g id="patch_6">
    <path d="M 57.6 41.472 
L 414.72 41.472 
" style="fill: none; stroke: #000000; stroke-width: 0.8; stroke-linejoin: miter; stroke-linecap: square"/>
   </g>
   <g id="text_16">
    <!-- Population's average and best fitness -->
    <g transform="translate(123.529687 35.472) scale(0.12 -0.12)">
     <defs>
      <path id="DejaVuSans-50" d="M 1259 4147 
L 1259 2394 
L 2053 2394 
Q 2494 2394 2734 2622 
Q 2975 2850 2975 3272 
Q 2975 3691 2734 3919 
Q 2494 4147 2053 4147 
L 1259 4147 
z
M 628 4666 
L 2053 4666 
Q 2838 4666 3239 4311 
Q 3641 3956 3641 3272 
Q 3641 2581 3239 2228 
Q 2838 1875 2053 1875 
L 1259 1875 
L 1259 0 
L 628 0 
L 628 4666 
z
" transform="scale(0.015625)"/>
      <path id="DejaVuSans-70" d="M 1159 525 
L 1159 -1331 
L 581 -1331 
L 581 3500 
L 1159 3500 
L 1159 2969 
Q 1341 3281 1617 3432 
Q 1894 3584 2278 3584 
Q 2916 3584 3314 3078 
Q 3713 2572 3713 1747 
Q 3713 922 3314 415 
Q 2916 -91 2278 -91 
Q 1894 -91 1617 61 
Q 1341 213 1159 525 
z
M 3116 1747 
Q 3116 2381 2855 2742 
Q 2594 3103 2138 3103 
Q 1681 3103 1420 2742 
Q 1159 2381 1159 1747 
Q 1159 1113 1420 752 
Q 1681 391 2138 391 
Q 2594 391 2855 752 
Q 3116 1113 3116 1747 
z
" transform="scale(0.015625)"/>
      <path id="DejaVuSans-75" d="M 544 1381 
L 544 3500 
L 1119 3500 
L 1119 1403 
Q 1119 906 1312 657 
Q 1506 409 1894 409 
Q 2359 409 2629 706 
Q 2900 1003 2900 1516 
L 2900 3500 
L 3475 3500 
L 3475 0 
L 2900 0 
L 2900 538 
Q 2691 219 2414 64 
Q 2138 -91 1772 -91 
Q 1169 -91 856 284 
Q 544 659 544 1381 
z
M 1991 3584 
L 1991 3584 
z
" transform="scale(0.015625)"/>
      <path id="DejaVuSans-6c" d="M 603 4863 
L 1178 4863 
L 1178 0 
L 603 0 
L 603 4863 
z
" transform="scale(0.015625)"/>
      <path id="DejaVuSans-27" d="M 1147 4666 
L 1147 2931 
L 616 2931 
L 616 4666 
L 1147 4666 
z
" transform="scale(0.015625)"/>
      <path id="DejaVuSans-20" transform="scale(0.015625)"/>
      <path id="DejaVuSans-76" d="M 191 3500 
L 800 3500 
L 1894 563 
L 2988 3500 
L 3597 3500 
L 2284 0 
L 1503 0 
L 191 3500 
z
" transform="scale(0.015625)"/>
      <path id="DejaVuSans-67" d="M 2906 1791 
Q 2906 2416 2648 2759 
Q 2391 3103 1925 3103 
Q 1463 3103 1205 2759 
Q 947 2416 947 1791 
Q 947 1169 1205 825 
Q 1463 481 1925 481 
Q 2391 481 2648 825 
Q 2906 1169 2906 1791 
z
M 3481 434 
Q 3481 -459 3084 -895 
Q 2688 -1331 1869 -1331 
Q 1566 -1331 1297 -1286 
Q 1028 -1241 775 -1147 
L 775 -588 
Q 1028 -725 1275 -790 
Q 1522 -856 1778 -856 
Q 2344 -856 2625 -561 
Q 2906 -266 2906 331 
L 2906 616 
Q 2728 306 2450 153 
Q 2172 0 1784 0 
Q 1141 0 747 490 
Q 353 981 353 1791 
Q 353 2603 747 3093 
Q 1141 3584 1784 3584 
Q 2172 3584 2450 3431 
Q 2728 3278 2906 2969 
L 2906 3500 
L 3481 3500 
L 3481 434 
z
" transform="scale(0.015625)"/>
      <path id="DejaVuSans-64" d="M 2906 2969 
L 2906 4863 
L 3481 4863 
L 3481 0 
L 2906 0 
L 2906 525 
Q 2725 213 2448 61 
Q 2172 -91 1784 -91 
Q 1150 -91 751 415 
Q 353 922 353 1747 
Q 353 2572 751 3078 
Q 1150 3584 1784 3584 
Q 2172 3584 2448 3432 
Q 2725 3281 2906 2969 
z
M 947 1747 
Q 947 1113 1208 752 
Q 1469 391 1925 391 
Q 2381 391 2643 752 
Q 2906 1113 2906 1747 
Q 2906 2381 2643 2742 
Q 2381 3103 1925 3103 
Q 1469 3103 1208 2742 
Q 947 2381 947 1747 
z
" transform="scale(0.015625)"/>
      <path id="DejaVuSans-62" d="M 3116 1747 
Q 3116 2381 2855 2742 
Q 2594 3103 2138 3103 
Q 1681 3103 1420 2742 
Q 1159 2381 1159 1747 
Q 1159 1113 1420 752 
Q 1681 391 2138 391 
Q 2594 391 2855 752 
Q 3116 1113 3116 1747 
z
M 1159 2969 
Q 1341 3281 1617 3432 
Q 1894 3584 2278 3584 
Q 2916 3584 3314 3078 
Q 3713 2572 3713 1747 
Q 3713 922 3314 415 
Q 2916 -91 2278 -91 
Q 1894 -91 1617 61 
Q 1341 213 1159 525 
L 1159 0 
L 581 0 
L 581 4863 
L 1159 4863 
L 1159 2969 
z
" transform="scale(0.015625)"/>
      <path id="DejaVuSans-66" d="M 2375 4863 
L 2375 4384 
L 1825 4384 
Q 1516 4384 1395 4259 
Q 1275 4134 1275 3809 
L 1275 3500 
L 2222 3500 
L 2222 3053 
L 1275 3053 
L 1275 0 
L 697 0 
L 697 3053 
L 147 3053 
L 147 3500 
L 697 3500 
L 697 3744 
Q 697 4328 969 4595 
Q 1241 4863 1831 4863 
L 2375 4863 
z
" transform="scale(0.015625)"/>
     </defs>
     <use xlink:href="#DejaVuSans-50"/>
     <use xlink:href="#DejaVuSans-6f" x="56.677734"/>
     <use xlink:href="#DejaVuSans-70" x="117.859375"/>
     <use xlink:href="#DejaVuSans-75" x="181.335938"/>
     <use xlink:href="#DejaVuSans-6c" x="244.714844"/>
     <use xlink:href="#DejaVuSans-61" x="272.498047"/>
     <use xlink:href="#DejaVuSans-74" x="333.777344"/>
     <use xlink:href="#DejaVuSans-69" x="372.986328"/>
     <use xlink:href="#DejaVuSans-6f" x="400.769531"/>
     <use xlink:href="#DejaVuSans-6e" x="461.951172"/>
     <use xlink:href="#DejaVuSans-27" x="525.330078"/>
     <use xlink:href="#DejaVuSans-73" x="552.820312"/>
     <use xlink:href="#DejaVuSans-20" x="604.919922"/>
     <use xlink:href="#DejaVuSans-61" x="636.707031"/>
     <use xlink:href="#DejaVuSans-76" x="697.986328"/>
     <use xlink:href="#DejaVuSans-65" x="757.166016"/>
     <use xlink:href="#DejaVuSans-72" x="818.689453"/>
     <use xlink:href="#DejaVuSans-61" x="859.802734"/>
     <use xlink:href="#DejaVuSans-67" x="921.082031"/>
     <use xlink:href="#DejaVuSans-65" x="984.558594"/>
     <use xlink:href="#DejaVuSans-20" x="1046.082031"/>
     <use xlink:href="#DejaVuSans-61" x="1077.869141"/>
     <use xlink:href="#DejaVuSans-6e" x="1139.148438"/>
     <use xlink:href="#DejaVuSans-64" x="1202.527344"/>
     <use xlink:href="#DejaVuSans-20" x="1266.003906"/>
     <use xlink:href="#DejaVuSans-62" x="1297.791016"/>
     <use xlink:href="#DejaVuSans-65" x="1361.267578"/>
     <use xlink:href="#DejaVuSans-73" x="1422.791016"/>
     <use xlink:href="#DejaVuSans-74" x="1474.890625"/>
     <use xlink:href="#DejaVuSans-20" x="1514.099609"/>
     <use xlink:href="#DejaVuSans-66" x="1545.886719"/>
     <use xlink:href="#DejaVuSans-69" x="1581.091797"/>
     <use xlink:href="#DejaVuSans-74" x="1608.875"/>
     <use xlink:href="#DejaVuSans-6e" x="1648.083984"/>
     <use xlink:href="#DejaVuSans-65" x="1711.462891"/>
     <use xlink:href="#DejaVuSans-73" x="1772.986328"/>
     <use xlink:href="#DejaVuSans-73" x="1825.085938"/>
    </g>
   </g>
   <g id="legend_1">
    <g id="patch_7">
     <path d="M 334.779375 302.584 
L 407.72 302.584 
Q 409.72 302.584 409.72 300.584 
L 409.72 242.8715 
Q 409.72 240.8715 407.72 240.8715 
L 334.779375 240.8715 
Q 332.779375 240.8715 332.779375 242.8715 
L 332.779375 300.584 
Q 332.779375 302.584 334.779375 302.584 
z
" style="fill: #ffffff; opacity: 0.8; stroke: #cccccc; stroke-linejoin: miter"/>
    </g>
    <g id="line2d_31">
     <path d="M 336.779375 248.969937 
L 346.779375 248.969937 
L 356.779375 248.969937 
" style="fill: none; stroke: #0000ff; stroke-width: 1.5; stroke-linecap: square"/>
    </g>
    <g id="text_17">
     <!-- average -->
     <g transform="translate(364.779375 252.469937) scale(0.1 -0.1)">
      <use xlink:href="#DejaVuSans-61"/>
      <use xlink:href="#DejaVuSans-76" x="61.279297"/>
      <use xlink:href="#DejaVuSans-65" x="120.458984"/>
      <use xlink:href="#DejaVuSans-72" x="181.982422"/>
      <use xlink:href="#DejaVuSans-61" x="223.095703"/>
      <use xlink:href="#DejaVuSans-67" x="284.375"/>
      <use xlink:href="#DejaVuSans-65" x="347.851562"/>
     </g>
    </g>
    <g id="line2d_32">
     <path d="M 336.779375 263.648062 
L 346.779375 263.648062 
L 356.779375 263.648062 
" style="fill: none; stroke-dasharray: 9.6,2.4,1.5,2.4; stroke-dashoffset: 0; stroke: #008000; stroke-width: 1.5"/>
    </g>
    <g id="text_18">
     <!-- -1 sd -->
     <g transform="translate(364.779375 267.148062) scale(0.1 -0.1)">
      <defs>
       <path id="DejaVuSans-2d" d="M 313 2009 
L 1997 2009 
L 1997 1497 
L 313 1497 
L 313 2009 
z
" transform="scale(0.015625)"/>
      </defs>
      <use xlink:href="#DejaVuSans-2d"/>
      <use xlink:href="#DejaVuSans-31" x="36.083984"/>
      <use xlink:href="#DejaVuSans-20" x="99.707031"/>
      <use xlink:href="#DejaVuSans-73" x="131.494141"/>
      <use xlink:href="#DejaVuSans-64" x="183.59375"/>
     </g>
    </g>
    <g id="line2d_33">
     <path d="M 336.779375 278.326187 
L 346.779375 278.326187 
L 356.779375 278.326187 
" style="fill: none; stroke-dasharray: 9.6,2.4,1.5,2.4; stroke-dashoffset: 0; stroke: #008000; stroke-width: 1.5"/>
    </g>
    <g id="text_19">
     <!-- +1 sd -->
     <g transform="translate(364.779375 281.826187) scale(0.1 -0.1)">
      <defs>
       <path id="DejaVuSans-2b" d="M 2944 4013 
L 2944 2272 
L 4684 2272 
L 4684 1741 
L 2944 1741 
L 2944 0 
L 2419 0 
L 2419 1741 
L 678 1741 
L 678 2272 
L 2419 2272 
L 2419 4013 
L 2944 4013 
z
" transform="scale(0.015625)"/>
      </defs>
      <use xlink:href="#DejaVuSans-2b"/>
      <use xlink:href="#DejaVuSans-31" x="83.789062"/>
      <use xlink:href="#DejaVuSans-20" x="147.412109"/>
      <use xlink:href="#DejaVuSans-73" x="179.199219"/>
      <use xlink:href="#DejaVuSans-64" x="231.298828"/>
     </g>
    </g>
    <g id="line2d_34">
     <path d="M 336.779375 293.004312 
L 346.779375 293.004312 
L 356.779375 293.004312 
" style="fill: none; stroke: #ff0000; stroke-width: 1.5; stroke-linecap: square"/>
    </g>
    <g id="text_20">
     <!-- best -->
     <g transform="translate(364.779375 296.504312) scale(0.1 -0.1)">
      <use xlink:href="#DejaVuSans-62"/>
      <use xlink:href="#DejaVuSans-65" x="63.476562"/>
      <use xlink:href="#DejaVuSans-73" x="125"/>
      <use xlink:href="#DejaVuSans-74" x="177.099609"/>
     </g>
    </g>
   </g>
  </g>
 </g>
 <defs>
  <clipPath id="pbe9a186422">
   <rect x="57.6" y="41.472" width="357.12" height="266.112"/>
  </clipPath>
 </defs>
</svg>
