<?xml version="1.0" encoding="utf-8" standalone="no"?>
<!DOCTYPE svg PUBLIC "-//W3C//DTD SVG 1.1//EN"
  "http://www.w3.org/Graphics/SVG/1.1/DTD/svg11.dtd">
<svg xmlns:xlink="http://www.w3.org/1999/xlink" width="460.8pt" height="345.6pt" viewBox="0 0 460.8 345.6" xmlns="http://www.w3.org/2000/svg" version="1.1">
 <metadata>
  <rdf:RDF xmlns:dc="http://purl.org/dc/elements/1.1/" xmlns:cc="http://creativecommons.org/ns#" xmlns:rdf="http://www.w3.org/1999/02/22-rdf-syntax-ns#">
   <cc:Work>
    <dc:type rdf:resource="http://purl.org/dc/dcmitype/StillImage"/>
    <dc:date>2023-02-11T03:35:21.446438</dc:date>
    <dc:format>image/svg+xml</dc:format>
    <dc:creator>
     <cc:Agent>
      <dc:title>Matplotlib v3.6.3, https://matplotlib.org/</dc:title>
     </cc:Agent>
    </dc:creator>
   </cc:Work>
  </rdf:RDF>
 </metadata>
 <defs>
  <style type="text/css">*{stroke-linejoin: round; stroke-linecap: butt}</style>
 </defs>
 <g id="figure_1">
  <g id="patch_1">
   <path d="M 0 345.6 
L 460.8 345.6 
L 460.8 0 
L 0 0 
z
" style="fill: #ffffff"/>
  </g>
  <g id="axes_1">
   <g id="patch_2">
    <path d="M 57.6 307.584 
L 414.72 307.584 
L 414.72 41.472 
L 57.6 41.472 
z
" style="fill: #ffffff"/>
   </g>
   <g id="PolyCollection_1">
    <path d="M 73.832727 54.144 
L 73.832727 307.584 
L 74.918528 307.584 
L 76.00433 307.584 
L 77.090131 307.584 
L 78.175932 307.584 
L 79.261733 307.584 
L 80.347534 307.584 
L 81.433335 307.584 
L 82.519137 307.584 
L 83.604938 307.584 
L 84.690739 307.584 
L 85.77654 307.584 
L 86.862341 307.584 
L 87.948142 307.584 
L 89.033943 307.584 
L 90.119745 307.584 
L 91.205546 307.584 
L 92.291347 307.584 
L 93.377148 307.584 
L 94.462949 307.584 
L 95.54875 307.584 
L 96.634552 307.584 
L 97.720353 307.584 
L 98.806154 307.584 
L 99.891955 307.584 
L 100.977756 307.584 
L 102.063557 307.584 
L 103.149358 307.584 
L 104.23516 307.584 
L 105.320961 307.584 
L 106.406762 307.584 
L 107.492563 307.584 
L 108.578364 307.584 
L 109.664165 307.584 
L 110.749967 307.584 
L 111.835768 307.584 
L 112.921569 307.584 
L 114.00737 307.584 
L 115.093171 307.584 
L 116.178972 307.584 
L 117.264773 307.584 
L 118.350575 307.584 
L 119.436376 307.584 
L 120.522177 307.584 
L 121.607978 307.584 
L 122.693779 307.584 
L 123.77958 307.584 
L 124.865382 307.584 
L 125.951183 307.584 
L 127.036984 307.584 
L 128.122785 307.584 
L 129.208586 307.584 
L 130.294387 307.584 
L 131.380189 307.584 
L 132.46599 307.584 
L 133.551791 307.584 
L 134.637592 307.584 
L 135.723393 307.584 
L 136.809194 307.584 
L 137.894995 307.584 
L 138.980797 307.584 
L 140.066598 307.584 
L 141.152399 307.584 
L 142.2382 307.584 
L 143.324001 307.584 
L 144.409802 307.584 
L 145.495604 307.584 
L 146.581405 307.584 
L 147.667206 307.584 
L 148.753007 307.584 
L 149.838808 307.584 
L 150.924609 307.584 
L 152.01041 307.584 
L 153.096212 307.584 
L 154.182013 307.584 
L 155.267814 307.584 
L 156.353615 307.584 
L 157.439416 307.584 
L 158.525217 307.584 
L 159.611019 307.584 
L 160.69682 307.584 
L 161.782621 307.584 
L 162.868422 307.584 
L 163.954223 307.584 
L 165.040024 307.584 
L 166.125825 307.584 
L 167.211627 307.584 
L 168.297428 307.584 
L 169.383229 307.584 
L 170.46903 307.584 
L 171.554831 307.584 
L 172.640632 307.584 
L 173.726434 307.584 
L 174.812235 307.584 
L 175.898036 307.584 
L 176.983837 307.584 
L 178.069638 307.584 
L 179.155439 307.584 
L 180.24124 307.584 
L 181.327042 307.584 
L 182.412843 307.584 
L 183.498644 307.584 
L 184.584445 307.584 
L 185.670246 307.584 
L 186.756047 307.584 
L 187.841849 307.584 
L 188.92765 307.584 
L 190.013451 307.584 
L 191.099252 307.584 
L 192.185053 307.584 
L 193.270854 307.584 
L 194.356656 307.584 
L 195.442457 307.584 
L 196.528258 307.584 
L 197.614059 307.584 
L 198.69986 307.584 
L 199.785661 307.584 
L 200.871462 307.584 
L 201.957264 307.584 
L 203.043065 307.584 
L 204.128866 307.584 
L 205.214667 307.584 
L 206.300468 307.584 
L 207.386269 307.584 
L 208.472071 307.584 
L 209.557872 307.584 
L 210.643673 307.584 
L 211.729474 307.584 
L 212.815275 307.584 
L 213.901076 307.584 
L 214.986877 307.584 
L 216.072679 307.584 
L 217.15848 307.584 
L 218.244281 307.584 
L 219.330082 307.584 
L 220.415883 307.584 
L 221.501684 307.584 
L 222.587486 307.584 
L 223.673287 307.584 
L 224.759088 307.584 
L 225.844889 307.584 
L 226.93069 307.584 
L 228.016491 307.584 
L 229.102292 307.584 
L 230.188094 307.584 
L 231.273895 307.584 
L 232.359696 307.584 
L 233.445497 307.584 
L 234.531298 307.584 
L 235.617099 307.584 
L 236.702901 307.584 
L 237.788702 307.584 
L 238.874503 307.584 
L 239.960304 307.584 
L 241.046105 307.584 
L 242.131906 307.584 
L 243.217708 307.584 
L 244.303509 307.584 
L 245.38931 307.584 
L 246.475111 307.584 
L 247.560912 307.584 
L 248.646713 307.584 
L 249.732514 307.584 
L 250.818316 307.584 
L 251.904117 307.584 
L 252.989918 307.584 
L 254.075719 307.584 
L 255.16152 307.584 
L 256.247321 307.584 
L 257.333123 307.584 
L 258.418924 307.584 
L 259.504725 307.584 
L 260.590526 307.584 
L 261.676327 307.584 
L 262.762128 307.584 
L 263.847929 307.584 
L 264.933731 307.584 
L 266.019532 307.584 
L 267.105333 307.584 
L 268.191134 307.584 
L 269.276935 307.584 
L 270.362736 307.584 
L 271.448538 307.584 
L 272.534339 307.584 
L 273.62014 307.584 
L 274.705941 307.584 
L 275.791742 307.584 
L 276.877543 307.584 
L 277.963344 307.584 
L 279.049146 307.584 
L 280.134947 307.584 
L 281.220748 307.584 
L 282.306549 307.584 
L 283.39235 307.584 
L 284.478151 307.584 
L 285.563953 307.584 
L 286.649754 307.584 
L 287.735555 307.584 
L 288.821356 307.584 
L 289.907157 307.584 
L 290.992958 307.584 
L 292.07876 307.584 
L 293.164561 307.584 
L 294.250362 307.584 
L 295.336163 307.584 
L 296.421964 307.584 
L 297.507765 307.584 
L 298.593566 307.584 
L 299.679368 307.584 
L 300.765169 307.584 
L 301.85097 307.584 
L 302.936771 307.584 
L 304.022572 307.584 
L 305.108373 307.584 
L 306.194175 307.584 
L 307.279976 307.584 
L 308.365777 307.584 
L 309.451578 307.584 
L 310.537379 307.584 
L 311.62318 307.584 
L 312.708981 307.584 
L 313.794783 307.584 
L 314.880584 307.584 
L 315.966385 307.584 
L 317.052186 307.584 
L 318.137987 307.584 
L 319.223788 307.584 
L 320.30959 307.584 
L 321.395391 307.584 
L 322.481192 307.584 
L 323.566993 307.584 
L 324.652794 307.584 
L 325.738595 307.584 
L 326.824396 307.584 
L 327.910198 307.584 
L 328.995999 307.584 
L 330.0818 307.584 
L 331.167601 307.584 
L 332.253402 307.584 
L 333.339203 307.584 
L 334.425005 307.584 
L 335.510806 307.584 
L 336.596607 307.584 
L 337.682408 307.584 
L 338.768209 307.584 
L 339.85401 307.584 
L 340.939811 307.584 
L 342.025613 307.584 
L 343.111414 307.584 
L 344.197215 307.584 
L 345.283016 307.584 
L 346.368817 307.584 
L 347.454618 307.584 
L 348.54042 307.584 
L 349.626221 307.584 
L 350.712022 307.584 
L 351.797823 307.584 
L 352.883624 307.584 
L 353.969425 307.584 
L 355.055227 307.584 
L 356.141028 307.584 
L 357.226829 307.584 
L 358.31263 307.584 
L 359.398431 307.584 
L 360.484232 307.584 
L 361.570033 307.584 
L 362.655835 307.584 
L 363.741636 307.584 
L 364.827437 307.584 
L 365.913238 307.584 
L 366.999039 307.584 
L 368.08484 307.584 
L 369.170642 307.584 
L 370.256443 307.584 
L 371.342244 307.584 
L 372.428045 307.584 
L 373.513846 307.584 
L 374.599647 307.584 
L 375.685448 307.584 
L 376.77125 307.584 
L 377.857051 307.584 
L 378.942852 307.584 
L 380.028653 307.584 
L 381.114454 307.584 
L 382.200255 307.584 
L 383.286057 307.584 
L 384.371858 307.584 
L 385.457659 307.584 
L 386.54346 307.584 
L 387.629261 307.584 
L 388.715062 307.584 
L 389.800863 307.584 
L 390.886665 307.584 
L 391.972466 307.584 
L 393.058267 307.584 
L 394.144068 307.584 
L 395.229869 307.584 
L 396.31567 307.584 
L 397.401472 307.584 
L 398.487273 307.584 
L 398.487273 156.224 
L 398.487273 156.224 
L 397.401472 173.824 
L 396.31567 173.824 
L 395.229869 166.784 
L 394.144068 163.264 
L 393.058267 170.304 
L 391.972466 191.424 
L 390.886665 159.744 
L 389.800863 135.104 
L 388.715062 142.144 
L 387.629261 149.184 
L 386.54346 180.864 
L 385.457659 212.544 
L 384.371858 187.904 
L 383.286057 131.584 
L 382.200255 166.784 
L 381.114454 54.144 
L 380.028653 54.144 
L 378.942852 54.144 
L 377.857051 54.144 
L 376.77125 54.144 
L 375.685448 54.144 
L 374.599647 54.144 
L 373.513846 54.144 
L 372.428045 54.144 
L 371.342244 54.144 
L 370.256443 54.144 
L 369.170642 54.144 
L 368.08484 54.144 
L 366.999039 54.144 
L 365.913238 54.144 
L 364.827437 54.144 
L 363.741636 54.144 
L 362.655835 54.144 
L 361.570033 54.144 
L 360.484232 54.144 
L 359.398431 54.144 
L 358.31263 54.144 
L 357.226829 54.144 
L 356.141028 54.144 
L 355.055227 54.144 
L 353.969425 54.144 
L 352.883624 54.144 
L 351.797823 54.144 
L 350.712022 54.144 
L 349.626221 54.144 
L 348.54042 54.144 
L 347.454618 54.144 
L 346.368817 54.144 
L 345.283016 54.144 
L 344.197215 54.144 
L 343.111414 54.144 
L 342.025613 54.144 
L 340.939811 54.144 
L 339.85401 54.144 
L 338.768209 54.144 
L 337.682408 54.144 
L 336.596607 54.144 
L 335.510806 54.144 
L 334.425005 54.144 
L 333.339203 54.144 
L 332.253402 54.144 
L 331.167601 54.144 
L 330.0818 54.144 
L 328.995999 54.144 
L 327.910198 54.144 
L 326.824396 54.144 
L 325.738595 54.144 
L 324.652794 54.144 
L 323.566993 54.144 
L 322.481192 54.144 
L 321.395391 54.144 
L 320.30959 54.144 
L 319.223788 54.144 
L 318.137987 54.144 
L 317.052186 54.144 
L 315.966385 54.144 
L 314.880584 54.144 
L 313.794783 54.144 
L 312.708981 54.144 
L 311.62318 54.144 
L 310.537379 54.144 
L 309.451578 54.144 
L 308.365777 54.144 
L 307.279976 54.144 
L 306.194175 54.144 
L 305.108373 54.144 
L 304.022572 54.144 
L 302.936771 54.144 
L 301.85097 54.144 
L 300.765169 54.144 
L 299.679368 54.144 
L 298.593566 54.144 
L 297.507765 54.144 
L 296.421964 54.144 
L 295.336163 54.144 
L 294.250362 54.144 
L 293.164561 54.144 
L 292.07876 54.144 
L 290.992958 54.144 
L 289.907157 54.144 
L 288.821356 54.144 
L 287.735555 54.144 
L 286.649754 54.144 
L 285.563953 54.144 
L 284.478151 54.144 
L 283.39235 54.144 
L 282.306549 54.144 
L 281.220748 54.144 
L 280.134947 54.144 
L 279.049146 54.144 
L 277.963344 54.144 
L 276.877543 54.144 
L 275.791742 54.144 
L 274.705941 54.144 
L 273.62014 54.144 
L 272.534339 54.144 
L 271.448538 54.144 
L 270.362736 54.144 
L 269.276935 54.144 
L 268.191134 54.144 
L 267.105333 54.144 
L 266.019532 54.144 
L 264.933731 54.144 
L 263.847929 54.144 
L 262.762128 54.144 
L 261.676327 54.144 
L 260.590526 54.144 
L 259.504725 54.144 
L 258.418924 54.144 
L 257.333123 54.144 
L 256.247321 54.144 
L 255.16152 54.144 
L 254.075719 54.144 
L 252.989918 54.144 
L 251.904117 54.144 
L 250.818316 54.144 
L 249.732514 54.144 
L 248.646713 54.144 
L 247.560912 54.144 
L 246.475111 54.144 
L 245.38931 54.144 
L 244.303509 54.144 
L 243.217708 54.144 
L 242.131906 54.144 
L 241.046105 54.144 
L 239.960304 54.144 
L 238.874503 54.144 
L 237.788702 54.144 
L 236.702901 54.144 
L 235.617099 54.144 
L 234.531298 54.144 
L 233.445497 54.144 
L 232.359696 54.144 
L 231.273895 54.144 
L 230.188094 54.144 
L 229.102292 54.144 
L 228.016491 54.144 
L 226.93069 54.144 
L 225.844889 54.144 
L 224.759088 54.144 
L 223.673287 54.144 
L 222.587486 54.144 
L 221.501684 54.144 
L 220.415883 54.144 
L 219.330082 54.144 
L 218.244281 54.144 
L 217.15848 54.144 
L 216.072679 54.144 
L 214.986877 54.144 
L 213.901076 54.144 
L 212.815275 54.144 
L 211.729474 54.144 
L 210.643673 54.144 
L 209.557872 54.144 
L 208.472071 54.144 
L 207.386269 54.144 
L 206.300468 54.144 
L 205.214667 54.144 
L 204.128866 54.144 
L 203.043065 54.144 
L 201.957264 54.144 
L 200.871462 54.144 
L 199.785661 54.144 
L 198.69986 54.144 
L 197.614059 54.144 
L 196.528258 54.144 
L 195.442457 54.144 
L 194.356656 54.144 
L 193.270854 54.144 
L 192.185053 54.144 
L 191.099252 54.144 
L 190.013451 54.144 
L 188.92765 54.144 
L 187.841849 54.144 
L 186.756047 54.144 
L 185.670246 54.144 
L 184.584445 54.144 
L 183.498644 54.144 
L 182.412843 54.144 
L 181.327042 54.144 
L 180.24124 54.144 
L 179.155439 54.144 
L 178.069638 54.144 
L 176.983837 54.144 
L 175.898036 54.144 
L 174.812235 54.144 
L 173.726434 54.144 
L 172.640632 54.144 
L 171.554831 54.144 
L 170.46903 54.144 
L 169.383229 54.144 
L 168.297428 54.144 
L 167.211627 54.144 
L 166.125825 54.144 
L 165.040024 54.144 
L 163.954223 54.144 
L 162.868422 54.144 
L 161.782621 54.144 
L 160.69682 54.144 
L 159.611019 54.144 
L 158.525217 54.144 
L 157.439416 54.144 
L 156.353615 54.144 
L 155.267814 54.144 
L 154.182013 54.144 
L 153.096212 54.144 
L 152.01041 54.144 
L 150.924609 54.144 
L 149.838808 54.144 
L 148.753007 54.144 
L 147.667206 54.144 
L 146.581405 54.144 
L 145.495604 54.144 
L 144.409802 54.144 
L 143.324001 54.144 
L 142.2382 54.144 
L 141.152399 54.144 
L 140.066598 54.144 
L 138.980797 54.144 
L 137.894995 54.144 
L 136.809194 54.144 
L 135.723393 54.144 
L 134.637592 54.144 
L 133.551791 54.144 
L 132.46599 54.144 
L 131.380189 54.144 
L 130.294387 54.144 
L 129.208586 54.144 
L 128.122785 54.144 
L 127.036984 54.144 
L 125.951183 54.144 
L 124.865382 54.144 
L 123.77958 54.144 
L 122.693779 54.144 
L 121.607978 54.144 
L 120.522177 54.144 
L 119.436376 54.144 
L 118.350575 54.144 
L 117.264773 54.144 
L 116.178972 54.144 
L 115.093171 54.144 
L 114.00737 54.144 
L 112.921569 54.144 
L 111.835768 54.144 
L 110.749967 54.144 
L 109.664165 54.144 
L 108.578364 54.144 
L 107.492563 54.144 
L 106.406762 54.144 
L 105.320961 54.144 
L 104.23516 54.144 
L 103.149358 54.144 
L 102.063557 54.144 
L 100.977756 54.144 
L 99.891955 54.144 
L 98.806154 54.144 
L 97.720353 54.144 
L 96.634552 54.144 
L 95.54875 54.144 
L 94.462949 54.144 
L 93.377148 54.144 
L 92.291347 54.144 
L 91.205546 54.144 
L 90.119745 54.144 
L 89.033943 54.144 
L 87.948142 54.144 
L 86.862341 54.144 
L 85.77654 54.144 
L 84.690739 54.144 
L 83.604938 54.144 
L 82.519137 54.144 
L 81.433335 54.144 
L 80.347534 54.144 
L 79.261733 54.144 
L 78.175932 54.144 
L 77.090131 54.144 
L 76.00433 54.144 
L 74.918528 54.144 
L 73.832727 54.144 
z
" clip-path="url(#p29495f6a49)" style="fill: #1f77b4"/>
   </g>
   <g id="PolyCollection_2">
    <path d="M 73.832727 54.144 
L 73.832727 54.144 
L 74.918528 54.144 
L 76.00433 54.144 
L 77.090131 54.144 
L 78.175932 54.144 
L 79.261733 54.144 
L 80.347534 54.144 
L 81.433335 54.144 
L 82.519137 54.144 
L 83.604938 54.144 
L 84.690739 54.144 
L 85.77654 54.144 
L 86.862341 54.144 
L 87.948142 54.144 
L 89.033943 54.144 
L 90.119745 54.144 
L 91.205546 54.144 
L 92.291347 54.144 
L 93.377148 54.144 
L 94.462949 54.144 
L 95.54875 54.144 
L 96.634552 54.144 
L 97.720353 54.144 
L 98.806154 54.144 
L 99.891955 54.144 
L 100.977756 54.144 
L 102.063557 54.144 
L 103.149358 54.144 
L 104.23516 54.144 
L 105.320961 54.144 
L 106.406762 54.144 
L 107.492563 54.144 
L 108.578364 54.144 
L 109.664165 54.144 
L 110.749967 54.144 
L 111.835768 54.144 
L 112.921569 54.144 
L 114.00737 54.144 
L 115.093171 54.144 
L 116.178972 54.144 
L 117.264773 54.144 
L 118.350575 54.144 
L 119.436376 54.144 
L 120.522177 54.144 
L 121.607978 54.144 
L 122.693779 54.144 
L 123.77958 54.144 
L 124.865382 54.144 
L 125.951183 54.144 
L 127.036984 54.144 
L 128.122785 54.144 
L 129.208586 54.144 
L 130.294387 54.144 
L 131.380189 54.144 
L 132.46599 54.144 
L 133.551791 54.144 
L 134.637592 54.144 
L 135.723393 54.144 
L 136.809194 54.144 
L 137.894995 54.144 
L 138.980797 54.144 
L 140.066598 54.144 
L 141.152399 54.144 
L 142.2382 54.144 
L 143.324001 54.144 
L 144.409802 54.144 
L 145.495604 54.144 
L 146.581405 54.144 
L 147.667206 54.144 
L 148.753007 54.144 
L 149.838808 54.144 
L 150.924609 54.144 
L 152.01041 54.144 
L 153.096212 54.144 
L 154.182013 54.144 
L 155.267814 54.144 
L 156.353615 54.144 
L 157.439416 54.144 
L 158.525217 54.144 
L 159.611019 54.144 
L 160.69682 54.144 
L 161.782621 54.144 
L 162.868422 54.144 
L 163.954223 54.144 
L 165.040024 54.144 
L 166.125825 54.144 
L 167.211627 54.144 
L 168.297428 54.144 
L 169.383229 54.144 
L 170.46903 54.144 
L 171.554831 54.144 
L 172.640632 54.144 
L 173.726434 54.144 
L 174.812235 54.144 
L 175.898036 54.144 
L 176.983837 54.144 
L 178.069638 54.144 
L 179.155439 54.144 
L 180.24124 54.144 
L 181.327042 54.144 
L 182.412843 54.144 
L 183.498644 54.144 
L 184.584445 54.144 
L 185.670246 54.144 
L 186.756047 54.144 
L 187.841849 54.144 
L 188.92765 54.144 
L 190.013451 54.144 
L 191.099252 54.144 
L 192.185053 54.144 
L 193.270854 54.144 
L 194.356656 54.144 
L 195.442457 54.144 
L 196.528258 54.144 
L 197.614059 54.144 
L 198.69986 54.144 
L 199.785661 54.144 
L 200.871462 54.144 
L 201.957264 54.144 
L 203.043065 54.144 
L 204.128866 54.144 
L 205.214667 54.144 
L 206.300468 54.144 
L 207.386269 54.144 
L 208.472071 54.144 
L 209.557872 54.144 
L 210.643673 54.144 
L 211.729474 54.144 
L 212.815275 54.144 
L 213.901076 54.144 
L 214.986877 54.144 
L 216.072679 54.144 
L 217.15848 54.144 
L 218.244281 54.144 
L 219.330082 54.144 
L 220.415883 54.144 
L 221.501684 54.144 
L 222.587486 54.144 
L 223.673287 54.144 
L 224.759088 54.144 
L 225.844889 54.144 
L 226.93069 54.144 
L 228.016491 54.144 
L 229.102292 54.144 
L 230.188094 54.144 
L 231.273895 54.144 
L 232.359696 54.144 
L 233.445497 54.144 
L 234.531298 54.144 
L 235.617099 54.144 
L 236.702901 54.144 
L 237.788702 54.144 
L 238.874503 54.144 
L 239.960304 54.144 
L 241.046105 54.144 
L 242.131906 54.144 
L 243.217708 54.144 
L 244.303509 54.144 
L 245.38931 54.144 
L 246.475111 54.144 
L 247.560912 54.144 
L 248.646713 54.144 
L 249.732514 54.144 
L 250.818316 54.144 
L 251.904117 54.144 
L 252.989918 54.144 
L 254.075719 54.144 
L 255.16152 54.144 
L 256.247321 54.144 
L 257.333123 54.144 
L 258.418924 54.144 
L 259.504725 54.144 
L 260.590526 54.144 
L 261.676327 54.144 
L 262.762128 54.144 
L 263.847929 54.144 
L 264.933731 54.144 
L 266.019532 54.144 
L 267.105333 54.144 
L 268.191134 54.144 
L 269.276935 54.144 
L 270.362736 54.144 
L 271.448538 54.144 
L 272.534339 54.144 
L 273.62014 54.144 
L 274.705941 54.144 
L 275.791742 54.144 
L 276.877543 54.144 
L 277.963344 54.144 
L 279.049146 54.144 
L 280.134947 54.144 
L 281.220748 54.144 
L 282.306549 54.144 
L 283.39235 54.144 
L 284.478151 54.144 
L 285.563953 54.144 
L 286.649754 54.144 
L 287.735555 54.144 
L 288.821356 54.144 
L 289.907157 54.144 
L 290.992958 54.144 
L 292.07876 54.144 
L 293.164561 54.144 
L 294.250362 54.144 
L 295.336163 54.144 
L 296.421964 54.144 
L 297.507765 54.144 
L 298.593566 54.144 
L 299.679368 54.144 
L 300.765169 54.144 
L 301.85097 54.144 
L 302.936771 54.144 
L 304.022572 54.144 
L 305.108373 54.144 
L 306.194175 54.144 
L 307.279976 54.144 
L 308.365777 54.144 
L 309.451578 54.144 
L 310.537379 54.144 
L 311.62318 54.144 
L 312.708981 54.144 
L 313.794783 54.144 
L 314.880584 54.144 
L 315.966385 54.144 
L 317.052186 54.144 
L 318.137987 54.144 
L 319.223788 54.144 
L 320.30959 54.144 
L 321.395391 54.144 
L 322.481192 54.144 
L 323.566993 54.144 
L 324.652794 54.144 
L 325.738595 54.144 
L 326.824396 54.144 
L 327.910198 54.144 
L 328.995999 54.144 
L 330.0818 54.144 
L 331.167601 54.144 
L 332.253402 54.144 
L 333.339203 54.144 
L 334.425005 54.144 
L 335.510806 54.144 
L 336.596607 54.144 
L 337.682408 54.144 
L 338.768209 54.144 
L 339.85401 54.144 
L 340.939811 54.144 
L 342.025613 54.144 
L 343.111414 54.144 
L 344.197215 54.144 
L 345.283016 54.144 
L 346.368817 54.144 
L 347.454618 54.144 
L 348.54042 54.144 
L 349.626221 54.144 
L 350.712022 54.144 
L 351.797823 54.144 
L 352.883624 54.144 
L 353.969425 54.144 
L 355.055227 54.144 
L 356.141028 54.144 
L 357.226829 54.144 
L 358.31263 54.144 
L 359.398431 54.144 
L 360.484232 54.144 
L 361.570033 54.144 
L 362.655835 54.144 
L 363.741636 54.144 
L 364.827437 54.144 
L 365.913238 54.144 
L 366.999039 54.144 
L 368.08484 54.144 
L 369.170642 54.144 
L 370.256443 54.144 
L 371.342244 54.144 
L 372.428045 54.144 
L 373.513846 54.144 
L 374.599647 54.144 
L 375.685448 54.144 
L 376.77125 54.144 
L 377.857051 54.144 
L 378.942852 54.144 
L 380.028653 54.144 
L 381.114454 54.144 
L 382.200255 166.784 
L 383.286057 131.584 
L 384.371858 187.904 
L 385.457659 212.544 
L 386.54346 180.864 
L 387.629261 149.184 
L 388.715062 142.144 
L 389.800863 135.104 
L 390.886665 159.744 
L 391.972466 191.424 
L 393.058267 170.304 
L 394.144068 163.264 
L 395.229869 166.784 
L 396.31567 173.824 
L 397.401472 173.824 
L 398.487273 156.224 
L 398.487273 54.144 
L 398.487273 54.144 
L 397.401472 54.144 
L 396.31567 54.144 
L 395.229869 54.144 
L 394.144068 54.144 
L 393.058267 54.144 
L 391.972466 54.144 
L 390.886665 54.144 
L 389.800863 54.144 
L 388.715062 54.144 
L 387.629261 54.144 
L 386.54346 54.144 
L 385.457659 54.144 
L 384.371858 54.144 
L 383.286057 54.144 
L 382.200255 54.144 
L 381.114454 54.144 
L 380.028653 54.144 
L 378.942852 54.144 
L 377.857051 54.144 
L 376.77125 54.144 
L 375.685448 54.144 
L 374.599647 54.144 
L 373.513846 54.144 
L 372.428045 54.144 
L 371.342244 54.144 
L 370.256443 54.144 
L 369.170642 54.144 
L 368.08484 54.144 
L 366.999039 54.144 
L 365.913238 54.144 
L 364.827437 54.144 
L 363.741636 54.144 
L 362.655835 54.144 
L 361.570033 54.144 
L 360.484232 54.144 
L 359.398431 54.144 
L 358.31263 54.144 
L 357.226829 54.144 
L 356.141028 54.144 
L 355.055227 54.144 
L 353.969425 54.144 
L 352.883624 54.144 
L 351.797823 54.144 
L 350.712022 54.144 
L 349.626221 54.144 
L 348.54042 54.144 
L 347.454618 54.144 
L 346.368817 54.144 
L 345.283016 54.144 
L 344.197215 54.144 
L 343.111414 54.144 
L 342.025613 54.144 
L 340.939811 54.144 
L 339.85401 54.144 
L 338.768209 54.144 
L 337.682408 54.144 
L 336.596607 54.144 
L 335.510806 54.144 
L 334.425005 54.144 
L 333.339203 54.144 
L 332.253402 54.144 
L 331.167601 54.144 
L 330.0818 54.144 
L 328.995999 54.144 
L 327.910198 54.144 
L 326.824396 54.144 
L 325.738595 54.144 
L 324.652794 54.144 
L 323.566993 54.144 
L 322.481192 54.144 
L 321.395391 54.144 
L 320.30959 54.144 
L 319.223788 54.144 
L 318.137987 54.144 
L 317.052186 54.144 
L 315.966385 54.144 
L 314.880584 54.144 
L 313.794783 54.144 
L 312.708981 54.144 
L 311.62318 54.144 
L 310.537379 54.144 
L 309.451578 54.144 
L 308.365777 54.144 
L 307.279976 54.144 
L 306.194175 54.144 
L 305.108373 54.144 
L 304.022572 54.144 
L 302.936771 54.144 
L 301.85097 54.144 
L 300.765169 54.144 
L 299.679368 54.144 
L 298.593566 54.144 
L 297.507765 54.144 
L 296.421964 54.144 
L 295.336163 54.144 
L 294.250362 54.144 
L 293.164561 54.144 
L 292.07876 54.144 
L 290.992958 54.144 
L 289.907157 54.144 
L 288.821356 54.144 
L 287.735555 54.144 
L 286.649754 54.144 
L 285.563953 54.144 
L 284.478151 54.144 
L 283.39235 54.144 
L 282.306549 54.144 
L 281.220748 54.144 
L 280.134947 54.144 
L 279.049146 54.144 
L 277.963344 54.144 
L 276.877543 54.144 
L 275.791742 54.144 
L 274.705941 54.144 
L 273.62014 54.144 
L 272.534339 54.144 
L 271.448538 54.144 
L 270.362736 54.144 
L 269.276935 54.144 
L 268.191134 54.144 
L 267.105333 54.144 
L 266.019532 54.144 
L 264.933731 54.144 
L 263.847929 54.144 
L 262.762128 54.144 
L 261.676327 54.144 
L 260.590526 54.144 
L 259.504725 54.144 
L 258.418924 54.144 
L 257.333123 54.144 
L 256.247321 54.144 
L 255.16152 54.144 
L 254.075719 54.144 
L 252.989918 54.144 
L 251.904117 54.144 
L 250.818316 54.144 
L 249.732514 54.144 
L 248.646713 54.144 
L 247.560912 54.144 
L 246.475111 54.144 
L 245.38931 54.144 
L 244.303509 54.144 
L 243.217708 54.144 
L 242.131906 54.144 
L 241.046105 54.144 
L 239.960304 54.144 
L 238.874503 54.144 
L 237.788702 54.144 
L 236.702901 54.144 
L 235.617099 54.144 
L 234.531298 54.144 
L 233.445497 54.144 
L 232.359696 54.144 
L 231.273895 54.144 
L 230.188094 54.144 
L 229.102292 54.144 
L 228.016491 54.144 
L 226.93069 54.144 
L 225.844889 54.144 
L 224.759088 54.144 
L 223.673287 54.144 
L 222.587486 54.144 
L 221.501684 54.144 
L 220.415883 54.144 
L 219.330082 54.144 
L 218.244281 54.144 
L 217.15848 54.144 
L 216.072679 54.144 
L 214.986877 54.144 
L 213.901076 54.144 
L 212.815275 54.144 
L 211.729474 54.144 
L 210.643673 54.144 
L 209.557872 54.144 
L 208.472071 54.144 
L 207.386269 54.144 
L 206.300468 54.144 
L 205.214667 54.144 
L 204.128866 54.144 
L 203.043065 54.144 
L 201.957264 54.144 
L 200.871462 54.144 
L 199.785661 54.144 
L 198.69986 54.144 
L 197.614059 54.144 
L 196.528258 54.144 
L 195.442457 54.144 
L 194.356656 54.144 
L 193.270854 54.144 
L 192.185053 54.144 
L 191.099252 54.144 
L 190.013451 54.144 
L 188.92765 54.144 
L 187.841849 54.144 
L 186.756047 54.144 
L 185.670246 54.144 
L 184.584445 54.144 
L 183.498644 54.144 
L 182.412843 54.144 
L 181.327042 54.144 
L 180.24124 54.144 
L 179.155439 54.144 
L 178.069638 54.144 
L 176.983837 54.144 
L 175.898036 54.144 
L 174.812235 54.144 
L 173.726434 54.144 
L 172.640632 54.144 
L 171.554831 54.144 
L 170.46903 54.144 
L 169.383229 54.144 
L 168.297428 54.144 
L 167.211627 54.144 
L 166.125825 54.144 
L 165.040024 54.144 
L 163.954223 54.144 
L 162.868422 54.144 
L 161.782621 54.144 
L 160.69682 54.144 
L 159.611019 54.144 
L 158.525217 54.144 
L 157.439416 54.144 
L 156.353615 54.144 
L 155.267814 54.144 
L 154.182013 54.144 
L 153.096212 54.144 
L 152.01041 54.144 
L 150.924609 54.144 
L 149.838808 54.144 
L 148.753007 54.144 
L 147.667206 54.144 
L 146.581405 54.144 
L 145.495604 54.144 
L 144.409802 54.144 
L 143.324001 54.144 
L 142.2382 54.144 
L 141.152399 54.144 
L 140.066598 54.144 
L 138.980797 54.144 
L 137.894995 54.144 
L 136.809194 54.144 
L 135.723393 54.144 
L 134.637592 54.144 
L 133.551791 54.144 
L 132.46599 54.144 
L 131.380189 54.144 
L 130.294387 54.144 
L 129.208586 54.144 
L 128.122785 54.144 
L 127.036984 54.144 
L 125.951183 54.144 
L 124.865382 54.144 
L 123.77958 54.144 
L 122.693779 54.144 
L 121.607978 54.144 
L 120.522177 54.144 
L 119.436376 54.144 
L 118.350575 54.144 
L 117.264773 54.144 
L 116.178972 54.144 
L 115.093171 54.144 
L 114.00737 54.144 
L 112.921569 54.144 
L 111.835768 54.144 
L 110.749967 54.144 
L 109.664165 54.144 
L 108.578364 54.144 
L 107.492563 54.144 
L 106.406762 54.144 
L 105.320961 54.144 
L 104.23516 54.144 
L 103.149358 54.144 
L 102.063557 54.144 
L 100.977756 54.144 
L 99.891955 54.144 
L 98.806154 54.144 
L 97.720353 54.144 
L 96.634552 54.144 
L 95.54875 54.144 
L 94.462949 54.144 
L 93.377148 54.144 
L 92.291347 54.144 
L 91.205546 54.144 
L 90.119745 54.144 
L 89.033943 54.144 
L 87.948142 54.144 
L 86.862341 54.144 
L 85.77654 54.144 
L 84.690739 54.144 
L 83.604938 54.144 
L 82.519137 54.144 
L 81.433335 54.144 
L 80.347534 54.144 
L 79.261733 54.144 
L 78.175932 54.144 
L 77.090131 54.144 
L 76.00433 54.144 
L 74.918528 54.144 
L 73.832727 54.144 
z
" clip-path="url(#p29495f6a49)" style="fill: #ff7f0e"/>
   </g>
   <g id="matplotlib.axis_1">
    <g id="xtick_1">
     <g id="line2d_1">
      <defs>
       <path id="m6355342336" d="M 0 0 
L 0 3.5 
" style="stroke: #000000; stroke-width: 0.8"/>
      </defs>
      <g>
       <use xlink:href="#m6355342336" x="73.832727" y="307.584" style="stroke: #000000; stroke-width: 0.8"/>
      </g>
     </g>
     <g id="text_1">
      <!-- 0 -->
      <g transform="translate(70.651477 322.182437) scale(0.1 -0.1)">
       <defs>
        <path id="DejaVuSans-30" d="M 2034 4250 
Q 1547 4250 1301 3770 
Q 1056 3291 1056 2328 
Q 1056 1369 1301 889 
Q 1547 409 2034 409 
Q 2525 409 2770 889 
Q 3016 1369 3016 2328 
Q 3016 3291 2770 3770 
Q 2525 4250 2034 4250 
z
M 2034 4750 
Q 2819 4750 3233 4129 
Q 3647 3509 3647 2328 
Q 3647 1150 3233 529 
Q 2819 -91 2034 -91 
Q 1250 -91 836 529 
Q 422 1150 422 2328 
Q 422 3509 836 4129 
Q 1250 4750 2034 4750 
z
" transform="scale(0.015625)"/>
       </defs>
       <use xlink:href="#DejaVuSans-30"/>
      </g>
     </g>
    </g>
    <g id="xtick_2">
     <g id="line2d_2">
      <g>
       <use xlink:href="#m6355342336" x="128.122785" y="307.584" style="stroke: #000000; stroke-width: 0.8"/>
      </g>
     </g>
     <g id="text_2">
      <!-- 50 -->
      <g transform="translate(121.760285 322.182437) scale(0.1 -0.1)">
       <defs>
        <path id="DejaVuSans-35" d="M 691 4666 
L 3169 4666 
L 3169 4134 
L 1269 4134 
L 1269 2991 
Q 1406 3038 1543 3061 
Q 1681 3084 1819 3084 
Q 2600 3084 3056 2656 
Q 3513 2228 3513 1497 
Q 3513 744 3044 326 
Q 2575 -91 1722 -91 
Q 1428 -91 1123 -41 
Q 819 9 494 109 
L 494 744 
Q 775 591 1075 516 
Q 1375 441 1709 441 
Q 2250 441 2565 725 
Q 2881 1009 2881 1497 
Q 2881 1984 2565 2268 
Q 2250 2553 1709 2553 
Q 1456 2553 1204 2497 
Q 953 2441 691 2322 
L 691 4666 
z
" transform="scale(0.015625)"/>
       </defs>
       <use xlink:href="#DejaVuSans-35"/>
       <use xlink:href="#DejaVuSans-30" x="63.623047"/>
      </g>
     </g>
    </g>
    <g id="xtick_3">
     <g id="line2d_3">
      <g>
       <use xlink:href="#m6355342336" x="182.412843" y="307.584" style="stroke: #000000; stroke-width: 0.8"/>
      </g>
     </g>
     <g id="text_3">
      <!-- 100 -->
      <g transform="translate(172.869093 322.182437) scale(0.1 -0.1)">
       <defs>
        <path id="DejaVuSans-31" d="M 794 531 
L 1825 531 
L 1825 4091 
L 703 3866 
L 703 4441 
L 1819 4666 
L 2450 4666 
L 2450 531 
L 3481 531 
L 3481 0 
L 794 0 
L 794 531 
z
" transform="scale(0.015625)"/>
       </defs>
       <use xlink:href="#DejaVuSans-31"/>
       <use xlink:href="#DejaVuSans-30" x="63.623047"/>
       <use xlink:href="#DejaVuSans-30" x="127.246094"/>
      </g>
     </g>
    </g>
    <g id="xtick_4">
     <g id="line2d_4">
      <g>
       <use xlink:href="#m6355342336" x="236.702901" y="307.584" style="stroke: #000000; stroke-width: 0.8"/>
      </g>
     </g>
     <g id="text_4">
      <!-- 150 -->
      <g transform="translate(227.159151 322.182437) scale(0.1 -0.1)">
       <use xlink:href="#DejaVuSans-31"/>
       <use xlink:href="#DejaVuSans-35" x="63.623047"/>
       <use xlink:href="#DejaVuSans-30" x="127.246094"/>
      </g>
     </g>
    </g>
    <g id="xtick_5">
     <g id="line2d_5">
      <g>
       <use xlink:href="#m6355342336" x="290.992958" y="307.584" style="stroke: #000000; stroke-width: 0.8"/>
      </g>
     </g>
     <g id="text_5">
      <!-- 200 -->
      <g transform="translate(281.449208 322.182437) scale(0.1 -0.1)">
       <defs>
        <path id="DejaVuSans-32" d="M 1228 531 
L 3431 531 
L 3431 0 
L 469 0 
L 469 531 
Q 828 903 1448 1529 
Q 2069 2156 2228 2338 
Q 2531 2678 2651 2914 
Q 2772 3150 2772 3378 
Q 2772 3750 2511 3984 
Q 2250 4219 1831 4219 
Q 1534 4219 1204 4116 
Q 875 4013 500 3803 
L 500 4441 
Q 881 4594 1212 4672 
Q 1544 4750 1819 4750 
Q 2544 4750 2975 4387 
Q 3406 4025 3406 3419 
Q 3406 3131 3298 2873 
Q 3191 2616 2906 2266 
Q 2828 2175 2409 1742 
Q 1991 1309 1228 531 
z
" transform="scale(0.015625)"/>
       </defs>
       <use xlink:href="#DejaVuSans-32"/>
       <use xlink:href="#DejaVuSans-30" x="63.623047"/>
       <use xlink:href="#DejaVuSans-30" x="127.246094"/>
      </g>
     </g>
    </g>
    <g id="xtick_6">
     <g id="line2d_6">
      <g>
       <use xlink:href="#m6355342336" x="345.283016" y="307.584" style="stroke: #000000; stroke-width: 0.8"/>
      </g>
     </g>
     <g id="text_6">
      <!-- 250 -->
      <g transform="translate(335.739266 322.182437) scale(0.1 -0.1)">
       <use xlink:href="#DejaVuSans-32"/>
       <use xlink:href="#DejaVuSans-35" x="63.623047"/>
       <use xlink:href="#DejaVuSans-30" x="127.246094"/>
      </g>
     </g>
    </g>
    <g id="xtick_7">
     <g id="line2d_7">
      <g>
       <use xlink:href="#m6355342336" x="399.573074" y="307.584" style="stroke: #000000; stroke-width: 0.8"/>
      </g>
     </g>
     <g id="text_7">
      <!-- 300 -->
      <g transform="translate(390.029324 322.182437) scale(0.1 -0.1)">
       <defs>
        <path id="DejaVuSans-33" d="M 2597 2516 
Q 3050 2419 3304 2112 
Q 3559 1806 3559 1356 
Q 3559 666 3084 287 
Q 2609 -91 1734 -91 
Q 1441 -91 1130 -33 
Q 819 25 488 141 
L 488 750 
Q 750 597 1062 519 
Q 1375 441 1716 441 
Q 2309 441 2620 675 
Q 2931 909 2931 1356 
Q 2931 1769 2642 2001 
Q 2353 2234 1838 2234 
L 1294 2234 
L 1294 2753 
L 1863 2753 
Q 2328 2753 2575 2939 
Q 2822 3125 2822 3475 
Q 2822 3834 2567 4026 
Q 2313 4219 1838 4219 
Q 1578 4219 1281 4162 
Q 984 4106 628 3988 
L 628 4550 
Q 988 4650 1302 4700 
Q 1616 4750 1894 4750 
Q 2613 4750 3031 4423 
Q 3450 4097 3450 3541 
Q 3450 3153 3228 2886 
Q 3006 2619 2597 2516 
z
" transform="scale(0.015625)"/>
       </defs>
       <use xlink:href="#DejaVuSans-33"/>
       <use xlink:href="#DejaVuSans-30" x="63.623047"/>
       <use xlink:href="#DejaVuSans-30" x="127.246094"/>
      </g>
     </g>
    </g>
    <g id="text_8">
     <!-- Generations -->
     <g transform="translate(205.662344 335.860562) scale(0.1 -0.1)">
      <defs>
       <path id="DejaVuSans-47" d="M 3809 666 
L 3809 1919 
L 2778 1919 
L 2778 2438 
L 4434 2438 
L 4434 434 
Q 4069 175 3628 42 
Q 3188 -91 2688 -91 
Q 1594 -91 976 548 
Q 359 1188 359 2328 
Q 359 3472 976 4111 
Q 1594 4750 2688 4750 
Q 3144 4750 3555 4637 
Q 3966 4525 4313 4306 
L 4313 3634 
Q 3963 3931 3569 4081 
Q 3175 4231 2741 4231 
Q 1884 4231 1454 3753 
Q 1025 3275 1025 2328 
Q 1025 1384 1454 906 
Q 1884 428 2741 428 
Q 3075 428 3337 486 
Q 3600 544 3809 666 
z
" transform="scale(0.015625)"/>
       <path id="DejaVuSans-65" d="M 3597 1894 
L 3597 1613 
L 953 1613 
Q 991 1019 1311 708 
Q 1631 397 2203 397 
Q 2534 397 2845 478 
Q 3156 559 3463 722 
L 3463 178 
Q 3153 47 2828 -22 
Q 2503 -91 2169 -91 
Q 1331 -91 842 396 
Q 353 884 353 1716 
Q 353 2575 817 3079 
Q 1281 3584 2069 3584 
Q 2775 3584 3186 3129 
Q 3597 2675 3597 1894 
z
M 3022 2063 
Q 3016 2534 2758 2815 
Q 2500 3097 2075 3097 
Q 1594 3097 1305 2825 
Q 1016 2553 972 2059 
L 3022 2063 
z
" transform="scale(0.015625)"/>
       <path id="DejaVuSans-6e" d="M 3513 2113 
L 3513 0 
L 2938 0 
L 2938 2094 
Q 2938 2591 2744 2837 
Q 2550 3084 2163 3084 
Q 1697 3084 1428 2787 
Q 1159 2491 1159 1978 
L 1159 0 
L 581 0 
L 581 3500 
L 1159 3500 
L 1159 2956 
Q 1366 3272 1645 3428 
Q 1925 3584 2291 3584 
Q 2894 3584 3203 3211 
Q 3513 2838 3513 2113 
z
" transform="scale(0.015625)"/>
       <path id="DejaVuSans-72" d="M 2631 2963 
Q 2534 3019 2420 3045 
Q 2306 3072 2169 3072 
Q 1681 3072 1420 2755 
Q 1159 2438 1159 1844 
L 1159 0 
L 581 0 
L 581 3500 
L 1159 3500 
L 1159 2956 
Q 1341 3275 1631 3429 
Q 1922 3584 2338 3584 
Q 2397 3584 2469 3576 
Q 2541 3569 2628 3553 
L 2631 2963 
z
" transform="scale(0.015625)"/>
       <path id="DejaVuSans-61" d="M 2194 1759 
Q 1497 1759 1228 1600 
Q 959 1441 959 1056 
Q 959 750 1161 570 
Q 1363 391 1709 391 
Q 2188 391 2477 730 
Q 2766 1069 2766 1631 
L 2766 1759 
L 2194 1759 
z
M 3341 1997 
L 3341 0 
L 2766 0 
L 2766 531 
Q 2569 213 2275 61 
Q 1981 -91 1556 -91 
Q 1019 -91 701 211 
Q 384 513 384 1019 
Q 384 1609 779 1909 
Q 1175 2209 1959 2209 
L 2766 2209 
L 2766 2266 
Q 2766 2663 2505 2880 
Q 2244 3097 1772 3097 
Q 1472 3097 1187 3025 
Q 903 2953 641 2809 
L 641 3341 
Q 956 3463 1253 3523 
Q 1550 3584 1831 3584 
Q 2591 3584 2966 3190 
Q 3341 2797 3341 1997 
z
" transform="scale(0.015625)"/>
       <path id="DejaVuSans-74" d="M 1172 4494 
L 1172 3500 
L 2356 3500 
L 2356 3053 
L 1172 3053 
L 1172 1153 
Q 1172 725 1289 603 
Q 1406 481 1766 481 
L 2356 481 
L 2356 0 
L 1766 0 
Q 1100 0 847 248 
Q 594 497 594 1153 
L 594 3053 
L 172 3053 
L 172 3500 
L 594 3500 
L 594 4494 
L 1172 4494 
z
" transform="scale(0.015625)"/>
       <path id="DejaVuSans-69" d="M 603 3500 
L 1178 3500 
L 1178 0 
L 603 0 
L 603 3500 
z
M 603 4863 
L 1178 4863 
L 1178 4134 
L 603 4134 
L 603 4863 
z
" transform="scale(0.015625)"/>
       <path id="DejaVuSans-6f" d="M 1959 3097 
Q 1497 3097 1228 2736 
Q 959 2375 959 1747 
Q 959 1119 1226 758 
Q 1494 397 1959 397 
Q 2419 397 2687 759 
Q 2956 1122 2956 1747 
Q 2956 2369 2687 2733 
Q 2419 3097 1959 3097 
z
M 1959 3584 
Q 2709 3584 3137 3096 
Q 3566 2609 3566 1747 
Q 3566 888 3137 398 
Q 2709 -91 1959 -91 
Q 1206 -91 779 398 
Q 353 888 353 1747 
Q 353 2609 779 3096 
Q 1206 3584 1959 3584 
z
" transform="scale(0.015625)"/>
       <path id="DejaVuSans-73" d="M 2834 3397 
L 2834 2853 
Q 2591 2978 2328 3040 
Q 2066 3103 1784 3103 
Q 1356 3103 1142 2972 
Q 928 2841 928 2578 
Q 928 2378 1081 2264 
Q 1234 2150 1697 2047 
L 1894 2003 
Q 2506 1872 2764 1633 
Q 3022 1394 3022 966 
Q 3022 478 2636 193 
Q 2250 -91 1575 -91 
Q 1294 -91 989 -36 
Q 684 19 347 128 
L 347 722 
Q 666 556 975 473 
Q 1284 391 1588 391 
Q 1994 391 2212 530 
Q 2431 669 2431 922 
Q 2431 1156 2273 1281 
Q 2116 1406 1581 1522 
L 1381 1569 
Q 847 1681 609 1914 
Q 372 2147 372 2553 
Q 372 3047 722 3315 
Q 1072 3584 1716 3584 
Q 2034 3584 2315 3537 
Q 2597 3491 2834 3397 
z
" transform="scale(0.015625)"/>
      </defs>
      <use xlink:href="#DejaVuSans-47"/>
      <use xlink:href="#DejaVuSans-65" x="77.490234"/>
      <use xlink:href="#DejaVuSans-6e" x="139.013672"/>
      <use xlink:href="#DejaVuSans-65" x="202.392578"/>
      <use xlink:href="#DejaVuSans-72" x="263.916016"/>
      <use xlink:href="#DejaVuSans-61" x="305.029297"/>
      <use xlink:href="#DejaVuSans-74" x="366.308594"/>
      <use xlink:href="#DejaVuSans-69" x="405.517578"/>
      <use xlink:href="#DejaVuSans-6f" x="433.300781"/>
      <use xlink:href="#DejaVuSans-6e" x="494.482422"/>
      <use xlink:href="#DejaVuSans-73" x="557.861328"/>
     </g>
    </g>
   </g>
   <g id="matplotlib.axis_2">
    <g id="ytick_1">
     <g id="line2d_8">
      <defs>
       <path id="mc75b3dec4d" d="M 0 0 
L -3.5 0 
" style="stroke: #000000; stroke-width: 0.8"/>
      </defs>
      <g>
       <use xlink:href="#mc75b3dec4d" x="57.6" y="307.584" style="stroke: #000000; stroke-width: 0.8"/>
      </g>
     </g>
     <g id="text_9">
      <!-- 0 -->
      <g transform="translate(44.2375 311.383219) scale(0.1 -0.1)">
       <use xlink:href="#DejaVuSans-30"/>
      </g>
     </g>
    </g>
    <g id="ytick_2">
     <g id="line2d_9">
      <g>
       <use xlink:href="#mc75b3dec4d" x="57.6" y="272.384" style="stroke: #000000; stroke-width: 0.8"/>
      </g>
     </g>
     <g id="text_10">
      <!-- 10 -->
      <g transform="translate(37.875 276.183219) scale(0.1 -0.1)">
       <use xlink:href="#DejaVuSans-31"/>
       <use xlink:href="#DejaVuSans-30" x="63.623047"/>
      </g>
     </g>
    </g>
    <g id="ytick_3">
     <g id="line2d_10">
      <g>
       <use xlink:href="#mc75b3dec4d" x="57.6" y="237.184" style="stroke: #000000; stroke-width: 0.8"/>
      </g>
     </g>
     <g id="text_11">
      <!-- 20 -->
      <g transform="translate(37.875 240.983219) scale(0.1 -0.1)">
       <use xlink:href="#DejaVuSans-32"/>
       <use xlink:href="#DejaVuSans-30" x="63.623047"/>
      </g>
     </g>
    </g>
    <g id="ytick_4">
     <g id="line2d_11">
      <g>
       <use xlink:href="#mc75b3dec4d" x="57.6" y="201.984" style="stroke: #000000; stroke-width: 0.8"/>
      </g>
     </g>
     <g id="text_12">
      <!-- 30 -->
      <g transform="translate(37.875 205.783219) scale(0.1 -0.1)">
       <use xlink:href="#DejaVuSans-33"/>
       <use xlink:href="#DejaVuSans-30" x="63.623047"/>
      </g>
     </g>
    </g>
    <g id="ytick_5">
     <g id="line2d_12">
      <g>
       <use xlink:href="#mc75b3dec4d" x="57.6" y="166.784" style="stroke: #000000; stroke-width: 0.8"/>
      </g>
     </g>
     <g id="text_13">
      <!-- 40 -->
      <g transform="translate(37.875 170.583219) scale(0.1 -0.1)">
       <defs>
        <path id="DejaVuSans-34" d="M 2419 4116 
L 825 1625 
L 2419 1625 
L 2419 4116 
z
M 2253 4666 
L 3047 4666 
L 3047 1625 
L 3713 1625 
L 3713 1100 
L 3047 1100 
L 3047 0 
L 2419 0 
L 2419 1100 
L 313 1100 
L 313 1709 
L 2253 4666 
z
" transform="scale(0.015625)"/>
       </defs>
       <use xlink:href="#DejaVuSans-34"/>
       <use xlink:href="#DejaVuSans-30" x="63.623047"/>
      </g>
     </g>
    </g>
    <g id="ytick_6">
     <g id="line2d_13">
      <g>
       <use xlink:href="#mc75b3dec4d" x="57.6" y="131.584" style="stroke: #000000; stroke-width: 0.8"/>
      </g>
     </g>
     <g id="text_14">
      <!-- 50 -->
      <g transform="translate(37.875 135.383219) scale(0.1 -0.1)">
       <use xlink:href="#DejaVuSans-35"/>
       <use xlink:href="#DejaVuSans-30" x="63.623047"/>
      </g>
     </g>
    </g>
    <g id="ytick_7">
     <g id="line2d_14">
      <g>
       <use xlink:href="#mc75b3dec4d" x="57.6" y="96.384" style="stroke: #000000; stroke-width: 0.8"/>
      </g>
     </g>
     <g id="text_15">
      <!-- 60 -->
      <g transform="translate(37.875 100.183219) scale(0.1 -0.1)">
       <defs>
        <path id="DejaVuSans-36" d="M 2113 2584 
Q 1688 2584 1439 2293 
Q 1191 2003 1191 1497 
Q 1191 994 1439 701 
Q 1688 409 2113 409 
Q 2538 409 2786 701 
Q 3034 994 3034 1497 
Q 3034 2003 2786 2293 
Q 2538 2584 2113 2584 
z
M 3366 4563 
L 3366 3988 
Q 3128 4100 2886 4159 
Q 2644 4219 2406 4219 
Q 1781 4219 1451 3797 
Q 1122 3375 1075 2522 
Q 1259 2794 1537 2939 
Q 1816 3084 2150 3084 
Q 2853 3084 3261 2657 
Q 3669 2231 3669 1497 
Q 3669 778 3244 343 
Q 2819 -91 2113 -91 
Q 1303 -91 875 529 
Q 447 1150 447 2328 
Q 447 3434 972 4092 
Q 1497 4750 2381 4750 
Q 2619 4750 2861 4703 
Q 3103 4656 3366 4563 
z
" transform="scale(0.015625)"/>
       </defs>
       <use xlink:href="#DejaVuSans-36"/>
       <use xlink:href="#DejaVuSans-30" x="63.623047"/>
      </g>
     </g>
    </g>
    <g id="ytick_8">
     <g id="line2d_15">
      <g>
       <use xlink:href="#mc75b3dec4d" x="57.6" y="61.184" style="stroke: #000000; stroke-width: 0.8"/>
      </g>
     </g>
     <g id="text_16">
      <!-- 70 -->
      <g transform="translate(37.875 64.983219) scale(0.1 -0.1)">
       <defs>
        <path id="DejaVuSans-37" d="M 525 4666 
L 3525 4666 
L 3525 4397 
L 1831 0 
L 1172 0 
L 2766 4134 
L 525 4134 
L 525 4666 
z
" transform="scale(0.015625)"/>
       </defs>
       <use xlink:href="#DejaVuSans-37"/>
       <use xlink:href="#DejaVuSans-30" x="63.623047"/>
      </g>
     </g>
    </g>
    <g id="text_17">
     <!-- Size per Species -->
     <g transform="translate(31.795312 215.520969) rotate(-90) scale(0.1 -0.1)">
      <defs>
       <path id="DejaVuSans-53" d="M 3425 4513 
L 3425 3897 
Q 3066 4069 2747 4153 
Q 2428 4238 2131 4238 
Q 1616 4238 1336 4038 
Q 1056 3838 1056 3469 
Q 1056 3159 1242 3001 
Q 1428 2844 1947 2747 
L 2328 2669 
Q 3034 2534 3370 2195 
Q 3706 1856 3706 1288 
Q 3706 609 3251 259 
Q 2797 -91 1919 -91 
Q 1588 -91 1214 -16 
Q 841 59 441 206 
L 441 856 
Q 825 641 1194 531 
Q 1563 422 1919 422 
Q 2459 422 2753 634 
Q 3047 847 3047 1241 
Q 3047 1584 2836 1778 
Q 2625 1972 2144 2069 
L 1759 2144 
Q 1053 2284 737 2584 
Q 422 2884 422 3419 
Q 422 4038 858 4394 
Q 1294 4750 2059 4750 
Q 2388 4750 2728 4690 
Q 3069 4631 3425 4513 
z
" transform="scale(0.015625)"/>
       <path id="DejaVuSans-7a" d="M 353 3500 
L 3084 3500 
L 3084 2975 
L 922 459 
L 3084 459 
L 3084 0 
L 275 0 
L 275 525 
L 2438 3041 
L 353 3041 
L 353 3500 
z
" transform="scale(0.015625)"/>
       <path id="DejaVuSans-20" transform="scale(0.015625)"/>
       <path id="DejaVuSans-70" d="M 1159 525 
L 1159 -1331 
L 581 -1331 
L 581 3500 
L 1159 3500 
L 1159 2969 
Q 1341 3281 1617 3432 
Q 1894 3584 2278 3584 
Q 2916 3584 3314 3078 
Q 3713 2572 3713 1747 
Q 3713 922 3314 415 
Q 2916 -91 2278 -91 
Q 1894 -91 1617 61 
Q 1341 213 1159 525 
z
M 3116 1747 
Q 3116 2381 2855 2742 
Q 2594 3103 2138 3103 
Q 1681 3103 1420 2742 
Q 1159 2381 1159 1747 
Q 1159 1113 1420 752 
Q 1681 391 2138 391 
Q 2594 391 2855 752 
Q 3116 1113 3116 1747 
z
" transform="scale(0.015625)"/>
       <path id="DejaVuSans-63" d="M 3122 3366 
L 3122 2828 
Q 2878 2963 2633 3030 
Q 2388 3097 2138 3097 
Q 1578 3097 1268 2742 
Q 959 2388 959 1747 
Q 959 1106 1268 751 
Q 1578 397 2138 397 
Q 2388 397 2633 464 
Q 2878 531 3122 666 
L 3122 134 
Q 2881 22 2623 -34 
Q 2366 -91 2075 -91 
Q 1284 -91 818 406 
Q 353 903 353 1747 
Q 353 2603 823 3093 
Q 1294 3584 2113 3584 
Q 2378 3584 2631 3529 
Q 2884 3475 3122 3366 
z
" transform="scale(0.015625)"/>
      </defs>
      <use xlink:href="#DejaVuSans-53"/>
      <use xlink:href="#DejaVuSans-69" x="63.476562"/>
      <use xlink:href="#DejaVuSans-7a" x="91.259766"/>
      <use xlink:href="#DejaVuSans-65" x="143.75"/>
      <use xlink:href="#DejaVuSans-20" x="205.273438"/>
      <use xlink:href="#DejaVuSans-70" x="237.060547"/>
      <use xlink:href="#DejaVuSans-65" x="300.537109"/>
      <use xlink:href="#DejaVuSans-72" x="362.060547"/>
      <use xlink:href="#DejaVuSans-20" x="403.173828"/>
      <use xlink:href="#DejaVuSans-53" x="434.960938"/>
      <use xlink:href="#DejaVuSans-70" x="498.4375"/>
      <use xlink:href="#DejaVuSans-65" x="561.914062"/>
      <use xlink:href="#DejaVuSans-63" x="623.4375"/>
      <use xlink:href="#DejaVuSans-69" x="678.417969"/>
      <use xlink:href="#DejaVuSans-65" x="706.201172"/>
      <use xlink:href="#DejaVuSans-73" x="767.724609"/>
     </g>
    </g>
   </g>
   <g id="patch_3">
    <path d="M 57.6 307.584 
L 57.6 41.472 
" style="fill: none; stroke: #000000; stroke-width: 0.8; stroke-linejoin: miter; stroke-linecap: square"/>
   </g>
   <g id="patch_4">
    <path d="M 414.72 307.584 
L 414.72 41.472 
" style="fill: none; stroke: #000000; stroke-width: 0.8; stroke-linejoin: miter; stroke-linecap: square"/>
   </g>
   <g id="patch_5">
    <path d="M 57.6 307.584 
L 414.72 307.584 
" style="fill: none; stroke: #000000; stroke-width: 0.8; stroke-linejoin: miter; stroke-linecap: square"/>
   </g>
   <g id="patch_6">
    <path d="M 57.6 41.472 
L 414.72 41.472 
" style="fill: none; stroke: #000000; stroke-width: 0.8; stroke-linejoin: miter; stroke-linecap: square"/>
   </g>
   <g id="text_18">
    <!-- Speciation -->
    <g transform="translate(204.714375 35.472) scale(0.12 -0.12)">
     <use xlink:href="#DejaVuSans-53"/>
     <use xlink:href="#DejaVuSans-70" x="63.476562"/>
     <use xlink:href="#DejaVuSans-65" x="126.953125"/>
     <use xlink:href="#DejaVuSans-63" x="188.476562"/>
     <use xlink:href="#DejaVuSans-69" x="243.457031"/>
     <use xlink:href="#DejaVuSans-61" x="271.240234"/>
     <use xlink:href="#DejaVuSans-74" x="332.519531"/>
     <use xlink:href="#DejaVuSans-69" x="371.728516"/>
     <use xlink:href="#DejaVuSans-6f" x="399.511719"/>
     <use xlink:href="#DejaVuSans-6e" x="460.693359"/>
    </g>
   </g>
  </g>
 </g>
 <defs>
  <clipPath id="p29495f6a49">
   <rect x="57.6" y="41.472" width="357.12" height="266.112"/>
  </clipPath>
 </defs>
</svg>
