<?xml version="1.0" encoding="utf-8" standalone="no"?>
<!DOCTYPE svg PUBLIC "-//W3C//DTD SVG 1.1//EN"
  "http://www.w3.org/Graphics/SVG/1.1/DTD/svg11.dtd">
<svg xmlns:xlink="http://www.w3.org/1999/xlink" width="460.8pt" height="345.6pt" viewBox="0 0 460.8 345.6" xmlns="http://www.w3.org/2000/svg" version="1.1">
 <metadata>
  <rdf:RDF xmlns:dc="http://purl.org/dc/elements/1.1/" xmlns:cc="http://creativecommons.org/ns#" xmlns:rdf="http://www.w3.org/1999/02/22-rdf-syntax-ns#">
   <cc:Work>
    <dc:type rdf:resource="http://purl.org/dc/dcmitype/StillImage"/>
    <dc:date>2023-02-20T18:33:25.939176</dc:date>
    <dc:format>image/svg+xml</dc:format>
    <dc:creator>
     <cc:Agent>
      <dc:title>Matplotlib v3.6.3, https://matplotlib.org/</dc:title>
     </cc:Agent>
    </dc:creator>
   </cc:Work>
  </rdf:RDF>
 </metadata>
 <defs>
  <style type="text/css">*{stroke-linejoin: round; stroke-linecap: butt}</style>
 </defs>
 <g id="figure_1">
  <g id="patch_1">
   <path d="M 0 345.6 
L 460.8 345.6 
L 460.8 0 
L 0 0 
z
" style="fill: #ffffff"/>
  </g>
  <g id="axes_1">
   <g id="patch_2">
    <path d="M 57.6 307.584 
L 414.72 307.584 
L 414.72 41.472 
L 57.6 41.472 
z
" style="fill: #ffffff"/>
   </g>
   <g id="PolyCollection_1">
    <path d="M 73.832727 54.144 
L 73.832727 307.584 
L 74.270858 307.584 
L 74.708988 307.584 
L 75.147118 307.584 
L 75.585248 307.584 
L 76.023379 307.584 
L 76.461509 307.584 
L 76.899639 307.584 
L 77.33777 307.584 
L 77.7759 307.584 
L 78.21403 307.584 
L 78.65216 307.584 
L 79.090291 307.584 
L 79.528421 307.584 
L 79.966551 307.584 
L 80.404682 307.584 
L 80.842812 307.584 
L 81.280942 307.584 
L 81.719073 307.584 
L 82.157203 307.584 
L 82.595333 307.584 
L 83.033463 307.584 
L 83.471594 307.584 
L 83.909724 307.584 
L 84.347854 307.584 
L 84.785985 307.584 
L 85.224115 307.584 
L 85.662245 307.584 
L 86.100375 307.584 
L 86.538506 307.584 
L 86.976636 307.584 
L 87.414766 307.584 
L 87.852897 307.584 
L 88.291027 307.584 
L 88.729157 307.584 
L 89.167287 307.584 
L 89.605418 307.584 
L 90.043548 307.584 
L 90.481678 307.584 
L 90.919809 307.584 
L 91.357939 307.584 
L 91.796069 307.584 
L 92.234199 307.584 
L 92.67233 307.584 
L 93.11046 307.584 
L 93.54859 307.584 
L 93.986721 307.584 
L 94.424851 307.584 
L 94.862981 307.584 
L 95.301112 307.584 
L 95.739242 307.584 
L 96.177372 307.584 
L 96.615502 307.584 
L 97.053633 307.584 
L 97.491763 307.584 
L 97.929893 307.584 
L 98.368024 307.584 
L 98.806154 307.584 
L 99.244284 307.584 
L 99.682414 307.584 
L 100.120545 307.584 
L 100.558675 307.584 
L 100.996805 307.584 
L 101.434936 307.584 
L 101.873066 307.584 
L 102.311196 307.584 
L 102.749326 307.584 
L 103.187457 307.584 
L 103.625587 307.584 
L 104.063717 307.584 
L 104.501848 307.584 
L 104.939978 307.584 
L 105.378108 307.584 
L 105.816238 307.584 
L 106.254369 307.584 
L 106.692499 307.584 
L 107.130629 307.584 
L 107.56876 307.584 
L 108.00689 307.584 
L 108.44502 307.584 
L 108.883151 307.584 
L 109.321281 307.584 
L 109.759411 307.584 
L 110.197541 307.584 
L 110.635672 307.584 
L 111.073802 307.584 
L 111.511932 307.584 
L 111.950063 307.584 
L 112.388193 307.584 
L 112.826323 307.584 
L 113.264453 307.584 
L 113.702584 307.584 
L 114.140714 307.584 
L 114.578844 307.584 
L 115.016975 307.584 
L 115.455105 307.584 
L 115.893235 307.584 
L 116.331365 307.584 
L 116.769496 307.584 
L 117.207626 307.584 
L 117.645756 307.584 
L 118.083887 307.584 
L 118.522017 307.584 
L 118.960147 307.584 
L 119.398278 307.584 
L 119.836408 307.584 
L 120.274538 307.584 
L 120.712668 307.584 
L 121.150799 307.584 
L 121.588929 307.584 
L 122.027059 307.584 
L 122.46519 307.584 
L 122.90332 307.584 
L 123.34145 307.584 
L 123.77958 307.584 
L 124.217711 307.584 
L 124.655841 307.584 
L 125.093971 307.584 
L 125.532102 307.584 
L 125.970232 307.584 
L 126.408362 307.584 
L 126.846492 307.584 
L 127.284623 307.584 
L 127.722753 307.584 
L 128.160883 307.584 
L 128.599014 307.584 
L 129.037144 307.584 
L 129.475274 307.584 
L 129.913404 307.584 
L 130.351535 307.584 
L 130.789665 307.584 
L 131.227795 307.584 
L 131.665926 307.584 
L 132.104056 307.584 
L 132.542186 307.584 
L 132.980317 307.584 
L 133.418447 307.584 
L 133.856577 307.584 
L 134.294707 307.584 
L 134.732838 307.584 
L 135.170968 307.584 
L 135.609098 307.584 
L 136.047229 307.584 
L 136.485359 307.584 
L 136.923489 307.584 
L 137.361619 307.584 
L 137.79975 307.584 
L 138.23788 307.584 
L 138.67601 307.584 
L 139.114141 307.584 
L 139.552271 307.584 
L 139.990401 307.584 
L 140.428531 307.584 
L 140.866662 307.584 
L 141.304792 307.584 
L 141.742922 307.584 
L 142.181053 307.584 
L 142.619183 307.584 
L 143.057313 307.584 
L 143.495444 307.584 
L 143.933574 307.584 
L 144.371704 307.584 
L 144.809834 307.584 
L 145.247965 307.584 
L 145.686095 307.584 
L 146.124225 307.584 
L 146.562356 307.584 
L 147.000486 307.584 
L 147.438616 307.584 
L 147.876746 307.584 
L 148.314877 307.584 
L 148.753007 307.584 
L 149.191137 307.584 
L 149.629268 307.584 
L 150.067398 307.584 
L 150.505528 307.584 
L 150.943658 307.584 
L 151.381789 307.584 
L 151.819919 307.584 
L 152.258049 307.584 
L 152.69618 307.584 
L 153.13431 307.584 
L 153.57244 307.584 
L 154.01057 307.584 
L 154.448701 307.584 
L 154.886831 307.584 
L 155.324961 307.584 
L 155.763092 307.584 
L 156.201222 307.584 
L 156.639352 307.584 
L 157.077483 307.584 
L 157.515613 307.584 
L 157.953743 307.584 
L 158.391873 307.584 
L 158.830004 307.584 
L 159.268134 307.584 
L 159.706264 307.584 
L 160.144395 307.584 
L 160.582525 307.584 
L 161.020655 307.584 
L 161.458785 307.584 
L 161.896916 307.584 
L 162.335046 307.584 
L 162.773176 307.584 
L 163.211307 307.584 
L 163.649437 307.584 
L 164.087567 307.584 
L 164.525697 307.584 
L 164.963828 307.584 
L 165.401958 307.584 
L 165.840088 307.584 
L 166.278219 307.584 
L 166.716349 307.584 
L 167.154479 307.584 
L 167.592609 307.584 
L 168.03074 307.584 
L 168.46887 307.584 
L 168.907 307.584 
L 169.345131 307.584 
L 169.783261 307.584 
L 170.221391 307.584 
L 170.659522 307.584 
L 171.097652 307.584 
L 171.535782 307.584 
L 171.973912 307.584 
L 172.412043 307.584 
L 172.850173 307.584 
L 173.288303 307.584 
L 173.726434 307.584 
L 174.164564 307.584 
L 174.602694 307.584 
L 175.040824 307.584 
L 175.478955 307.584 
L 175.917085 307.584 
L 176.355215 307.584 
L 176.793346 307.584 
L 177.231476 307.584 
L 177.669606 307.584 
L 178.107736 307.584 
L 178.545867 307.584 
L 178.983997 307.584 
L 179.422127 307.584 
L 179.860258 307.584 
L 180.298388 307.584 
L 180.736518 307.584 
L 181.174649 307.584 
L 181.612779 307.584 
L 182.050909 307.584 
L 182.489039 307.584 
L 182.92717 307.584 
L 183.3653 307.584 
L 183.80343 307.584 
L 184.241561 307.584 
L 184.679691 307.584 
L 185.117821 307.584 
L 185.555951 307.584 
L 185.994082 307.584 
L 186.432212 307.584 
L 186.870342 307.584 
L 187.308473 307.584 
L 187.746603 307.584 
L 188.184733 307.584 
L 188.622863 307.584 
L 189.060994 307.584 
L 189.499124 307.584 
L 189.937254 307.584 
L 190.375385 307.584 
L 190.813515 307.584 
L 191.251645 307.584 
L 191.689775 307.584 
L 192.127906 307.584 
L 192.566036 307.584 
L 193.004166 307.584 
L 193.442297 307.584 
L 193.880427 307.584 
L 194.318557 307.584 
L 194.756688 307.584 
L 195.194818 307.584 
L 195.632948 307.584 
L 196.071078 307.584 
L 196.509209 307.584 
L 196.947339 307.584 
L 197.385469 307.584 
L 197.8236 307.584 
L 198.26173 307.584 
L 198.69986 307.584 
L 199.13799 307.584 
L 199.576121 307.584 
L 200.014251 307.584 
L 200.452381 307.584 
L 200.890512 307.584 
L 201.328642 307.584 
L 201.766772 307.584 
L 202.204902 307.584 
L 202.643033 307.584 
L 203.081163 307.584 
L 203.519293 307.584 
L 203.957424 307.584 
L 204.395554 307.584 
L 204.833684 307.584 
L 205.271815 307.584 
L 205.709945 307.584 
L 206.148075 307.584 
L 206.586205 307.584 
L 207.024336 307.584 
L 207.462466 307.584 
L 207.900596 307.584 
L 208.338727 307.584 
L 208.776857 307.584 
L 209.214987 307.584 
L 209.653117 307.584 
L 210.091248 307.584 
L 210.529378 307.584 
L 210.967508 307.584 
L 211.405639 307.584 
L 211.843769 307.584 
L 212.281899 307.584 
L 212.720029 307.584 
L 213.15816 307.584 
L 213.59629 307.584 
L 214.03442 307.584 
L 214.472551 307.584 
L 214.910681 307.584 
L 215.348811 307.584 
L 215.786941 307.584 
L 216.225072 307.584 
L 216.663202 307.584 
L 217.101332 307.584 
L 217.539463 307.584 
L 217.977593 307.584 
L 218.415723 307.584 
L 218.853854 307.584 
L 219.291984 307.584 
L 219.730114 307.584 
L 220.168244 307.584 
L 220.606375 307.584 
L 221.044505 307.584 
L 221.482635 307.584 
L 221.920766 307.584 
L 222.358896 307.584 
L 222.797026 307.584 
L 223.235156 307.584 
L 223.673287 307.584 
L 224.111417 307.584 
L 224.549547 307.584 
L 224.987678 307.584 
L 225.425808 307.584 
L 225.863938 307.584 
L 226.302068 307.584 
L 226.740199 307.584 
L 227.178329 307.584 
L 227.616459 307.584 
L 228.05459 307.584 
L 228.49272 307.584 
L 228.93085 307.584 
L 229.36898 307.584 
L 229.807111 307.584 
L 230.245241 307.584 
L 230.683371 307.584 
L 231.121502 307.584 
L 231.559632 307.584 
L 231.997762 307.584 
L 232.435893 307.584 
L 232.874023 307.584 
L 233.312153 307.584 
L 233.750283 307.584 
L 234.188414 307.584 
L 234.626544 307.584 
L 235.064674 307.584 
L 235.502805 307.584 
L 235.940935 307.584 
L 236.379065 307.584 
L 236.817195 307.584 
L 237.255326 307.584 
L 237.693456 307.584 
L 238.131586 307.584 
L 238.569717 307.584 
L 239.007847 307.584 
L 239.445977 307.584 
L 239.884107 307.584 
L 240.322238 307.584 
L 240.760368 307.584 
L 241.198498 307.584 
L 241.636629 307.584 
L 242.074759 307.584 
L 242.512889 307.584 
L 242.95102 307.584 
L 243.38915 307.584 
L 243.82728 307.584 
L 244.26541 307.584 
L 244.703541 307.584 
L 245.141671 307.584 
L 245.579801 307.584 
L 246.017932 307.584 
L 246.456062 307.584 
L 246.894192 307.584 
L 247.332322 307.584 
L 247.770453 307.584 
L 248.208583 307.584 
L 248.646713 307.584 
L 249.084844 307.584 
L 249.522974 307.584 
L 249.961104 307.584 
L 250.399234 307.584 
L 250.837365 307.584 
L 251.275495 307.584 
L 251.713625 307.584 
L 252.151756 307.584 
L 252.589886 307.584 
L 253.028016 307.584 
L 253.466146 307.584 
L 253.904277 307.584 
L 254.342407 307.584 
L 254.780537 307.584 
L 255.218668 307.584 
L 255.656798 307.584 
L 256.094928 307.584 
L 256.533059 307.584 
L 256.971189 307.584 
L 257.409319 307.584 
L 257.847449 307.584 
L 258.28558 307.584 
L 258.72371 307.584 
L 259.16184 307.584 
L 259.599971 307.584 
L 260.038101 307.584 
L 260.476231 307.584 
L 260.914361 307.584 
L 261.352492 307.584 
L 261.790622 307.584 
L 262.228752 307.584 
L 262.666883 307.584 
L 263.105013 307.584 
L 263.543143 307.584 
L 263.981273 307.584 
L 264.419404 307.584 
L 264.857534 307.584 
L 265.295664 307.584 
L 265.733795 307.584 
L 266.171925 307.584 
L 266.610055 307.584 
L 267.048185 307.584 
L 267.486316 307.584 
L 267.924446 307.584 
L 268.362576 307.584 
L 268.800707 307.584 
L 269.238837 307.584 
L 269.676967 307.584 
L 270.115098 307.584 
L 270.553228 307.584 
L 270.991358 307.584 
L 271.429488 307.584 
L 271.867619 307.584 
L 272.305749 307.584 
L 272.743879 307.584 
L 273.18201 307.584 
L 273.62014 307.584 
L 274.05827 307.584 
L 274.4964 307.584 
L 274.934531 307.584 
L 275.372661 307.584 
L 275.810791 307.584 
L 276.248922 307.584 
L 276.687052 307.584 
L 277.125182 307.584 
L 277.563312 307.584 
L 278.001443 307.584 
L 278.439573 307.584 
L 278.877703 307.584 
L 279.315834 307.584 
L 279.753964 307.584 
L 280.192094 307.584 
L 280.630225 307.584 
L 281.068355 307.584 
L 281.506485 307.584 
L 281.944615 307.584 
L 282.382746 307.584 
L 282.820876 307.584 
L 283.259006 307.584 
L 283.697137 307.584 
L 284.135267 307.584 
L 284.573397 307.584 
L 285.011527 307.584 
L 285.449658 307.584 
L 285.887788 307.584 
L 286.325918 307.584 
L 286.764049 307.584 
L 287.202179 307.584 
L 287.640309 307.584 
L 288.078439 307.584 
L 288.51657 307.584 
L 288.9547 307.584 
L 289.39283 307.584 
L 289.830961 307.584 
L 290.269091 307.584 
L 290.707221 307.584 
L 291.145351 307.584 
L 291.583482 307.584 
L 292.021612 307.584 
L 292.459742 307.584 
L 292.897873 307.584 
L 293.336003 307.584 
L 293.774133 307.584 
L 294.212264 307.584 
L 294.650394 307.584 
L 295.088524 307.584 
L 295.526654 307.584 
L 295.964785 307.584 
L 296.402915 307.584 
L 296.841045 307.584 
L 297.279176 307.584 
L 297.717306 307.584 
L 298.155436 307.584 
L 298.593566 307.584 
L 299.031697 307.584 
L 299.469827 307.584 
L 299.907957 307.584 
L 300.346088 307.584 
L 300.784218 307.584 
L 301.222348 307.584 
L 301.660478 307.584 
L 302.098609 307.584 
L 302.536739 307.584 
L 302.974869 307.584 
L 303.413 307.584 
L 303.85113 307.584 
L 304.28926 307.584 
L 304.727391 307.584 
L 305.165521 307.584 
L 305.603651 307.584 
L 306.041781 307.584 
L 306.479912 307.584 
L 306.918042 307.584 
L 307.356172 307.584 
L 307.794303 307.584 
L 308.232433 307.584 
L 308.670563 307.584 
L 309.108693 307.584 
L 309.546824 307.584 
L 309.984954 307.584 
L 310.423084 307.584 
L 310.861215 307.584 
L 311.299345 307.584 
L 311.737475 307.584 
L 312.175605 307.584 
L 312.613736 307.584 
L 313.051866 307.584 
L 313.489996 307.584 
L 313.928127 307.584 
L 314.366257 307.584 
L 314.804387 307.584 
L 315.242517 307.584 
L 315.680648 307.584 
L 316.118778 307.584 
L 316.556908 307.584 
L 316.995039 307.584 
L 317.433169 307.584 
L 317.871299 307.584 
L 318.30943 307.584 
L 318.74756 307.584 
L 319.18569 307.584 
L 319.62382 307.584 
L 320.061951 307.584 
L 320.500081 307.584 
L 320.938211 307.584 
L 321.376342 307.584 
L 321.814472 307.584 
L 322.252602 307.584 
L 322.690732 307.584 
L 323.128863 307.584 
L 323.566993 307.584 
L 324.005123 307.584 
L 324.443254 307.584 
L 324.881384 307.584 
L 325.319514 307.584 
L 325.757644 307.584 
L 326.195775 307.584 
L 326.633905 307.584 
L 327.072035 307.584 
L 327.510166 307.584 
L 327.948296 307.584 
L 328.386426 307.584 
L 328.824556 307.584 
L 329.262687 307.584 
L 329.700817 307.584 
L 330.138947 307.584 
L 330.577078 307.584 
L 331.015208 307.584 
L 331.453338 307.584 
L 331.891469 307.584 
L 332.329599 307.584 
L 332.767729 307.584 
L 333.205859 307.584 
L 333.64399 307.584 
L 334.08212 307.584 
L 334.52025 307.584 
L 334.958381 307.584 
L 335.396511 307.584 
L 335.834641 307.584 
L 336.272771 307.584 
L 336.710902 307.584 
L 337.149032 307.584 
L 337.587162 307.584 
L 338.025293 307.584 
L 338.463423 307.584 
L 338.901553 307.584 
L 339.339683 307.584 
L 339.777814 307.584 
L 340.215944 307.584 
L 340.654074 307.584 
L 341.092205 307.584 
L 341.530335 307.584 
L 341.968465 307.584 
L 342.406596 307.584 
L 342.844726 307.584 
L 343.282856 307.584 
L 343.720986 307.584 
L 344.159117 307.584 
L 344.597247 307.584 
L 345.035377 307.584 
L 345.473508 307.584 
L 345.911638 307.584 
L 346.349768 307.584 
L 346.787898 307.584 
L 347.226029 307.584 
L 347.664159 307.584 
L 348.102289 307.584 
L 348.54042 307.584 
L 348.97855 307.584 
L 349.41668 307.584 
L 349.85481 307.584 
L 350.292941 307.584 
L 350.731071 307.584 
L 351.169201 307.584 
L 351.607332 307.584 
L 352.045462 307.584 
L 352.483592 307.584 
L 352.921722 307.584 
L 353.359853 307.584 
L 353.797983 307.584 
L 354.236113 307.584 
L 354.674244 307.584 
L 355.112374 307.584 
L 355.550504 307.584 
L 355.988635 307.584 
L 356.426765 307.584 
L 356.864895 307.584 
L 357.303025 307.584 
L 357.741156 307.584 
L 358.179286 307.584 
L 358.617416 307.584 
L 359.055547 307.584 
L 359.493677 307.584 
L 359.931807 307.584 
L 360.369937 307.584 
L 360.808068 307.584 
L 361.246198 307.584 
L 361.684328 307.584 
L 362.122459 307.584 
L 362.560589 307.584 
L 362.998719 307.584 
L 363.436849 307.584 
L 363.87498 307.584 
L 364.31311 307.584 
L 364.75124 307.584 
L 365.189371 307.584 
L 365.627501 307.584 
L 366.065631 307.584 
L 366.503762 307.584 
L 366.941892 307.584 
L 367.380022 307.584 
L 367.818152 307.584 
L 368.256283 307.584 
L 368.694413 307.584 
L 369.132543 307.584 
L 369.570674 307.584 
L 370.008804 307.584 
L 370.446934 307.584 
L 370.885064 307.584 
L 371.323195 307.584 
L 371.761325 307.584 
L 372.199455 307.584 
L 372.637586 307.584 
L 373.075716 307.584 
L 373.513846 307.584 
L 373.951976 307.584 
L 374.390107 307.584 
L 374.828237 307.584 
L 375.266367 307.584 
L 375.704498 307.584 
L 376.142628 307.584 
L 376.580758 307.584 
L 377.018888 307.584 
L 377.457019 307.584 
L 377.895149 307.584 
L 378.333279 307.584 
L 378.77141 307.584 
L 379.20954 307.584 
L 379.64767 307.584 
L 380.085801 307.584 
L 380.523931 307.584 
L 380.962061 307.584 
L 381.400191 307.584 
L 381.838322 307.584 
L 382.276452 307.584 
L 382.714582 307.584 
L 383.152713 307.584 
L 383.590843 307.584 
L 384.028973 307.584 
L 384.467103 307.584 
L 384.905234 307.584 
L 385.343364 307.584 
L 385.781494 307.584 
L 386.219625 307.584 
L 386.657755 307.584 
L 387.095885 307.584 
L 387.534015 307.584 
L 387.972146 307.584 
L 388.410276 307.584 
L 388.848406 307.584 
L 389.286537 307.584 
L 389.724667 307.584 
L 390.162797 307.584 
L 390.600927 307.584 
L 391.039058 307.584 
L 391.477188 307.584 
L 391.915318 307.584 
L 392.353449 307.584 
L 392.791579 307.584 
L 393.229709 307.584 
L 393.66784 307.584 
L 394.10597 307.584 
L 394.5441 307.584 
L 394.98223 307.584 
L 395.420361 307.584 
L 395.858491 307.584 
L 396.296621 307.584 
L 396.734752 307.584 
L 397.172882 307.584 
L 397.611012 307.584 
L 398.049142 307.584 
L 398.487273 307.584 
L 398.487273 54.144 
L 398.487273 54.144 
L 398.049142 54.144 
L 397.611012 54.144 
L 397.172882 54.144 
L 396.734752 54.144 
L 396.296621 54.144 
L 395.858491 54.144 
L 395.420361 54.144 
L 394.98223 54.144 
L 394.5441 54.144 
L 394.10597 54.144 
L 393.66784 54.144 
L 393.229709 54.144 
L 392.791579 54.144 
L 392.353449 54.144 
L 391.915318 54.144 
L 391.477188 54.144 
L 391.039058 54.144 
L 390.600927 54.144 
L 390.162797 54.144 
L 389.724667 54.144 
L 389.286537 54.144 
L 388.848406 54.144 
L 388.410276 54.144 
L 387.972146 54.144 
L 387.534015 54.144 
L 387.095885 54.144 
L 386.657755 54.144 
L 386.219625 54.144 
L 385.781494 54.144 
L 385.343364 54.144 
L 384.905234 54.144 
L 384.467103 54.144 
L 384.028973 54.144 
L 383.590843 54.144 
L 383.152713 54.144 
L 382.714582 54.144 
L 382.276452 54.144 
L 381.838322 54.144 
L 381.400191 54.144 
L 380.962061 54.144 
L 380.523931 54.144 
L 380.085801 54.144 
L 379.64767 54.144 
L 379.20954 54.144 
L 378.77141 54.144 
L 378.333279 54.144 
L 377.895149 54.144 
L 377.457019 54.144 
L 377.018888 54.144 
L 376.580758 54.144 
L 376.142628 54.144 
L 375.704498 54.144 
L 375.266367 54.144 
L 374.828237 54.144 
L 374.390107 54.144 
L 373.951976 54.144 
L 373.513846 54.144 
L 373.075716 54.144 
L 372.637586 54.144 
L 372.199455 54.144 
L 371.761325 54.144 
L 371.323195 54.144 
L 370.885064 54.144 
L 370.446934 54.144 
L 370.008804 54.144 
L 369.570674 54.144 
L 369.132543 54.144 
L 368.694413 54.144 
L 368.256283 54.144 
L 367.818152 54.144 
L 367.380022 54.144 
L 366.941892 54.144 
L 366.503762 54.144 
L 366.065631 54.144 
L 365.627501 54.144 
L 365.189371 54.144 
L 364.75124 54.144 
L 364.31311 54.144 
L 363.87498 54.144 
L 363.436849 54.144 
L 362.998719 54.144 
L 362.560589 54.144 
L 362.122459 54.144 
L 361.684328 54.144 
L 361.246198 54.144 
L 360.808068 54.144 
L 360.369937 54.144 
L 359.931807 54.144 
L 359.493677 54.144 
L 359.055547 54.144 
L 358.617416 54.144 
L 358.179286 54.144 
L 357.741156 54.144 
L 357.303025 54.144 
L 356.864895 54.144 
L 356.426765 54.144 
L 355.988635 54.144 
L 355.550504 54.144 
L 355.112374 54.144 
L 354.674244 54.144 
L 354.236113 54.144 
L 353.797983 54.144 
L 353.359853 54.144 
L 352.921722 54.144 
L 352.483592 54.144 
L 352.045462 54.144 
L 351.607332 54.144 
L 351.169201 54.144 
L 350.731071 54.144 
L 350.292941 54.144 
L 349.85481 54.144 
L 349.41668 54.144 
L 348.97855 54.144 
L 348.54042 54.144 
L 348.102289 54.144 
L 347.664159 54.144 
L 347.226029 54.144 
L 346.787898 54.144 
L 346.349768 54.144 
L 345.911638 54.144 
L 345.473508 54.144 
L 345.035377 54.144 
L 344.597247 54.144 
L 344.159117 54.144 
L 343.720986 54.144 
L 343.282856 54.144 
L 342.844726 54.144 
L 342.406596 54.144 
L 341.968465 54.144 
L 341.530335 54.144 
L 341.092205 54.144 
L 340.654074 54.144 
L 340.215944 54.144 
L 339.777814 54.144 
L 339.339683 54.144 
L 338.901553 54.144 
L 338.463423 54.144 
L 338.025293 54.144 
L 337.587162 54.144 
L 337.149032 54.144 
L 336.710902 54.144 
L 336.272771 54.144 
L 335.834641 54.144 
L 335.396511 54.144 
L 334.958381 54.144 
L 334.52025 54.144 
L 334.08212 54.144 
L 333.64399 54.144 
L 333.205859 54.144 
L 332.767729 54.144 
L 332.329599 54.144 
L 331.891469 54.144 
L 331.453338 54.144 
L 331.015208 54.144 
L 330.577078 54.144 
L 330.138947 54.144 
L 329.700817 54.144 
L 329.262687 54.144 
L 328.824556 54.144 
L 328.386426 54.144 
L 327.948296 54.144 
L 327.510166 54.144 
L 327.072035 54.144 
L 326.633905 54.144 
L 326.195775 54.144 
L 325.757644 54.144 
L 325.319514 54.144 
L 324.881384 54.144 
L 324.443254 54.144 
L 324.005123 54.144 
L 323.566993 54.144 
L 323.128863 54.144 
L 322.690732 54.144 
L 322.252602 54.144 
L 321.814472 54.144 
L 321.376342 54.144 
L 320.938211 54.144 
L 320.500081 54.144 
L 320.061951 54.144 
L 319.62382 54.144 
L 319.18569 54.144 
L 318.74756 54.144 
L 318.30943 54.144 
L 317.871299 54.144 
L 317.433169 54.144 
L 316.995039 54.144 
L 316.556908 54.144 
L 316.118778 54.144 
L 315.680648 54.144 
L 315.242517 54.144 
L 314.804387 54.144 
L 314.366257 54.144 
L 313.928127 54.144 
L 313.489996 54.144 
L 313.051866 54.144 
L 312.613736 54.144 
L 312.175605 54.144 
L 311.737475 54.144 
L 311.299345 54.144 
L 310.861215 54.144 
L 310.423084 54.144 
L 309.984954 54.144 
L 309.546824 54.144 
L 309.108693 54.144 
L 308.670563 54.144 
L 308.232433 54.144 
L 307.794303 54.144 
L 307.356172 54.144 
L 306.918042 54.144 
L 306.479912 54.144 
L 306.041781 54.144 
L 305.603651 54.144 
L 305.165521 54.144 
L 304.727391 54.144 
L 304.28926 54.144 
L 303.85113 54.144 
L 303.413 54.144 
L 302.974869 54.144 
L 302.536739 54.144 
L 302.098609 54.144 
L 301.660478 54.144 
L 301.222348 54.144 
L 300.784218 54.144 
L 300.346088 54.144 
L 299.907957 54.144 
L 299.469827 54.144 
L 299.031697 54.144 
L 298.593566 54.144 
L 298.155436 54.144 
L 297.717306 54.144 
L 297.279176 54.144 
L 296.841045 54.144 
L 296.402915 54.144 
L 295.964785 54.144 
L 295.526654 54.144 
L 295.088524 54.144 
L 294.650394 54.144 
L 294.212264 54.144 
L 293.774133 54.144 
L 293.336003 54.144 
L 292.897873 54.144 
L 292.459742 54.144 
L 292.021612 54.144 
L 291.583482 54.144 
L 291.145351 54.144 
L 290.707221 54.144 
L 290.269091 54.144 
L 289.830961 54.144 
L 289.39283 54.144 
L 288.9547 54.144 
L 288.51657 54.144 
L 288.078439 54.144 
L 287.640309 54.144 
L 287.202179 54.144 
L 286.764049 54.144 
L 286.325918 54.144 
L 285.887788 54.144 
L 285.449658 54.144 
L 285.011527 54.144 
L 284.573397 54.144 
L 284.135267 54.144 
L 283.697137 54.144 
L 283.259006 54.144 
L 282.820876 54.144 
L 282.382746 54.144 
L 281.944615 54.144 
L 281.506485 54.144 
L 281.068355 54.144 
L 280.630225 54.144 
L 280.192094 54.144 
L 279.753964 54.144 
L 279.315834 54.144 
L 278.877703 54.144 
L 278.439573 54.144 
L 278.001443 54.144 
L 277.563312 54.144 
L 277.125182 54.144 
L 276.687052 54.144 
L 276.248922 54.144 
L 275.810791 54.144 
L 275.372661 54.144 
L 274.934531 54.144 
L 274.4964 54.144 
L 274.05827 54.144 
L 273.62014 54.144 
L 273.18201 54.144 
L 272.743879 54.144 
L 272.305749 54.144 
L 271.867619 54.144 
L 271.429488 54.144 
L 270.991358 54.144 
L 270.553228 54.144 
L 270.115098 54.144 
L 269.676967 54.144 
L 269.238837 54.144 
L 268.800707 54.144 
L 268.362576 54.144 
L 267.924446 54.144 
L 267.486316 54.144 
L 267.048185 54.144 
L 266.610055 54.144 
L 266.171925 54.144 
L 265.733795 54.144 
L 265.295664 54.144 
L 264.857534 54.144 
L 264.419404 54.144 
L 263.981273 54.144 
L 263.543143 54.144 
L 263.105013 54.144 
L 262.666883 54.144 
L 262.228752 54.144 
L 261.790622 54.144 
L 261.352492 54.144 
L 260.914361 54.144 
L 260.476231 54.144 
L 260.038101 54.144 
L 259.599971 54.144 
L 259.16184 54.144 
L 258.72371 54.144 
L 258.28558 54.144 
L 257.847449 54.144 
L 257.409319 54.144 
L 256.971189 54.144 
L 256.533059 54.144 
L 256.094928 54.144 
L 255.656798 54.144 
L 255.218668 54.144 
L 254.780537 54.144 
L 254.342407 54.144 
L 253.904277 54.144 
L 253.466146 54.144 
L 253.028016 54.144 
L 252.589886 54.144 
L 252.151756 54.144 
L 251.713625 54.144 
L 251.275495 54.144 
L 250.837365 54.144 
L 250.399234 54.144 
L 249.961104 54.144 
L 249.522974 54.144 
L 249.084844 54.144 
L 248.646713 54.144 
L 248.208583 54.144 
L 247.770453 54.144 
L 247.332322 54.144 
L 246.894192 54.144 
L 246.456062 54.144 
L 246.017932 54.144 
L 245.579801 54.144 
L 245.141671 54.144 
L 244.703541 54.144 
L 244.26541 54.144 
L 243.82728 54.144 
L 243.38915 54.144 
L 242.95102 54.144 
L 242.512889 54.144 
L 242.074759 54.144 
L 241.636629 54.144 
L 241.198498 54.144 
L 240.760368 54.144 
L 240.322238 54.144 
L 239.884107 54.144 
L 239.445977 54.144 
L 239.007847 54.144 
L 238.569717 54.144 
L 238.131586 54.144 
L 237.693456 54.144 
L 237.255326 54.144 
L 236.817195 54.144 
L 236.379065 54.144 
L 235.940935 54.144 
L 235.502805 54.144 
L 235.064674 54.144 
L 234.626544 54.144 
L 234.188414 54.144 
L 233.750283 54.144 
L 233.312153 54.144 
L 232.874023 54.144 
L 232.435893 54.144 
L 231.997762 54.144 
L 231.559632 54.144 
L 231.121502 54.144 
L 230.683371 54.144 
L 230.245241 54.144 
L 229.807111 54.144 
L 229.36898 54.144 
L 228.93085 54.144 
L 228.49272 54.144 
L 228.05459 54.144 
L 227.616459 54.144 
L 227.178329 54.144 
L 226.740199 54.144 
L 226.302068 54.144 
L 225.863938 54.144 
L 225.425808 54.144 
L 224.987678 54.144 
L 224.549547 54.144 
L 224.111417 54.144 
L 223.673287 54.144 
L 223.235156 54.144 
L 222.797026 54.144 
L 222.358896 54.144 
L 221.920766 54.144 
L 221.482635 54.144 
L 221.044505 54.144 
L 220.606375 54.144 
L 220.168244 54.144 
L 219.730114 54.144 
L 219.291984 54.144 
L 218.853854 54.144 
L 218.415723 54.144 
L 217.977593 54.144 
L 217.539463 54.144 
L 217.101332 54.144 
L 216.663202 54.144 
L 216.225072 54.144 
L 215.786941 54.144 
L 215.348811 54.144 
L 214.910681 54.144 
L 214.472551 54.144 
L 214.03442 54.144 
L 213.59629 54.144 
L 213.15816 54.144 
L 212.720029 54.144 
L 212.281899 54.144 
L 211.843769 54.144 
L 211.405639 54.144 
L 210.967508 54.144 
L 210.529378 54.144 
L 210.091248 54.144 
L 209.653117 54.144 
L 209.214987 54.144 
L 208.776857 54.144 
L 208.338727 54.144 
L 207.900596 54.144 
L 207.462466 54.144 
L 207.024336 54.144 
L 206.586205 54.144 
L 206.148075 54.144 
L 205.709945 54.144 
L 205.271815 54.144 
L 204.833684 54.144 
L 204.395554 54.144 
L 203.957424 54.144 
L 203.519293 54.144 
L 203.081163 54.144 
L 202.643033 54.144 
L 202.204902 54.144 
L 201.766772 54.144 
L 201.328642 54.144 
L 200.890512 54.144 
L 200.452381 54.144 
L 200.014251 54.144 
L 199.576121 54.144 
L 199.13799 54.144 
L 198.69986 54.144 
L 198.26173 54.144 
L 197.8236 54.144 
L 197.385469 54.144 
L 196.947339 54.144 
L 196.509209 54.144 
L 196.071078 54.144 
L 195.632948 54.144 
L 195.194818 54.144 
L 194.756688 54.144 
L 194.318557 54.144 
L 193.880427 54.144 
L 193.442297 54.144 
L 193.004166 54.144 
L 192.566036 54.144 
L 192.127906 54.144 
L 191.689775 54.144 
L 191.251645 54.144 
L 190.813515 54.144 
L 190.375385 54.144 
L 189.937254 54.144 
L 189.499124 54.144 
L 189.060994 54.144 
L 188.622863 54.144 
L 188.184733 54.144 
L 187.746603 54.144 
L 187.308473 54.144 
L 186.870342 54.144 
L 186.432212 54.144 
L 185.994082 54.144 
L 185.555951 54.144 
L 185.117821 54.144 
L 184.679691 54.144 
L 184.241561 54.144 
L 183.80343 54.144 
L 183.3653 54.144 
L 182.92717 54.144 
L 182.489039 54.144 
L 182.050909 54.144 
L 181.612779 54.144 
L 181.174649 54.144 
L 180.736518 54.144 
L 180.298388 54.144 
L 179.860258 54.144 
L 179.422127 54.144 
L 178.983997 54.144 
L 178.545867 54.144 
L 178.107736 54.144 
L 177.669606 54.144 
L 177.231476 54.144 
L 176.793346 54.144 
L 176.355215 54.144 
L 175.917085 54.144 
L 175.478955 54.144 
L 175.040824 54.144 
L 174.602694 54.144 
L 174.164564 54.144 
L 173.726434 54.144 
L 173.288303 54.144 
L 172.850173 54.144 
L 172.412043 54.144 
L 171.973912 54.144 
L 171.535782 54.144 
L 171.097652 54.144 
L 170.659522 54.144 
L 170.221391 54.144 
L 169.783261 54.144 
L 169.345131 54.144 
L 168.907 54.144 
L 168.46887 54.144 
L 168.03074 54.144 
L 167.592609 54.144 
L 167.154479 54.144 
L 166.716349 54.144 
L 166.278219 54.144 
L 165.840088 54.144 
L 165.401958 54.144 
L 164.963828 54.144 
L 164.525697 54.144 
L 164.087567 54.144 
L 163.649437 54.144 
L 163.211307 54.144 
L 162.773176 54.144 
L 162.335046 54.144 
L 161.896916 54.144 
L 161.458785 54.144 
L 161.020655 54.144 
L 160.582525 54.144 
L 160.144395 54.144 
L 159.706264 54.144 
L 159.268134 54.144 
L 158.830004 54.144 
L 158.391873 54.144 
L 157.953743 54.144 
L 157.515613 54.144 
L 157.077483 54.144 
L 156.639352 54.144 
L 156.201222 54.144 
L 155.763092 54.144 
L 155.324961 54.144 
L 154.886831 54.144 
L 154.448701 54.144 
L 154.01057 54.144 
L 153.57244 54.144 
L 153.13431 54.144 
L 152.69618 54.144 
L 152.258049 54.144 
L 151.819919 54.144 
L 151.381789 54.144 
L 150.943658 54.144 
L 150.505528 54.144 
L 150.067398 54.144 
L 149.629268 54.144 
L 149.191137 54.144 
L 148.753007 54.144 
L 148.314877 54.144 
L 147.876746 54.144 
L 147.438616 54.144 
L 147.000486 54.144 
L 146.562356 54.144 
L 146.124225 54.144 
L 145.686095 54.144 
L 145.247965 54.144 
L 144.809834 54.144 
L 144.371704 54.144 
L 143.933574 54.144 
L 143.495444 54.144 
L 143.057313 54.144 
L 142.619183 54.144 
L 142.181053 54.144 
L 141.742922 54.144 
L 141.304792 54.144 
L 140.866662 54.144 
L 140.428531 54.144 
L 139.990401 54.144 
L 139.552271 54.144 
L 139.114141 54.144 
L 138.67601 54.144 
L 138.23788 54.144 
L 137.79975 54.144 
L 137.361619 54.144 
L 136.923489 54.144 
L 136.485359 54.144 
L 136.047229 54.144 
L 135.609098 54.144 
L 135.170968 54.144 
L 134.732838 54.144 
L 134.294707 54.144 
L 133.856577 54.144 
L 133.418447 54.144 
L 132.980317 54.144 
L 132.542186 54.144 
L 132.104056 54.144 
L 131.665926 54.144 
L 131.227795 54.144 
L 130.789665 54.144 
L 130.351535 54.144 
L 129.913404 54.144 
L 129.475274 54.144 
L 129.037144 54.144 
L 128.599014 54.144 
L 128.160883 54.144 
L 127.722753 54.144 
L 127.284623 54.144 
L 126.846492 54.144 
L 126.408362 54.144 
L 125.970232 54.144 
L 125.532102 54.144 
L 125.093971 54.144 
L 124.655841 54.144 
L 124.217711 54.144 
L 123.77958 54.144 
L 123.34145 54.144 
L 122.90332 54.144 
L 122.46519 54.144 
L 122.027059 54.144 
L 121.588929 54.144 
L 121.150799 54.144 
L 120.712668 54.144 
L 120.274538 54.144 
L 119.836408 54.144 
L 119.398278 54.144 
L 118.960147 54.144 
L 118.522017 54.144 
L 118.083887 54.144 
L 117.645756 54.144 
L 117.207626 54.144 
L 116.769496 54.144 
L 116.331365 54.144 
L 115.893235 54.144 
L 115.455105 54.144 
L 115.016975 54.144 
L 114.578844 54.144 
L 114.140714 54.144 
L 113.702584 54.144 
L 113.264453 54.144 
L 112.826323 54.144 
L 112.388193 54.144 
L 111.950063 54.144 
L 111.511932 54.144 
L 111.073802 54.144 
L 110.635672 54.144 
L 110.197541 54.144 
L 109.759411 54.144 
L 109.321281 54.144 
L 108.883151 54.144 
L 108.44502 54.144 
L 108.00689 54.144 
L 107.56876 54.144 
L 107.130629 54.144 
L 106.692499 54.144 
L 106.254369 54.144 
L 105.816238 54.144 
L 105.378108 54.144 
L 104.939978 54.144 
L 104.501848 54.144 
L 104.063717 54.144 
L 103.625587 54.144 
L 103.187457 54.144 
L 102.749326 54.144 
L 102.311196 54.144 
L 101.873066 54.144 
L 101.434936 54.144 
L 100.996805 54.144 
L 100.558675 54.144 
L 100.120545 54.144 
L 99.682414 54.144 
L 99.244284 54.144 
L 98.806154 54.144 
L 98.368024 54.144 
L 97.929893 54.144 
L 97.491763 54.144 
L 97.053633 54.144 
L 96.615502 54.144 
L 96.177372 54.144 
L 95.739242 54.144 
L 95.301112 54.144 
L 94.862981 54.144 
L 94.424851 54.144 
L 93.986721 54.144 
L 93.54859 54.144 
L 93.11046 54.144 
L 92.67233 54.144 
L 92.234199 54.144 
L 91.796069 54.144 
L 91.357939 54.144 
L 90.919809 54.144 
L 90.481678 54.144 
L 90.043548 54.144 
L 89.605418 54.144 
L 89.167287 54.144 
L 88.729157 54.144 
L 88.291027 54.144 
L 87.852897 54.144 
L 87.414766 54.144 
L 86.976636 54.144 
L 86.538506 54.144 
L 86.100375 54.144 
L 85.662245 54.144 
L 85.224115 54.144 
L 84.785985 54.144 
L 84.347854 54.144 
L 83.909724 54.144 
L 83.471594 54.144 
L 83.033463 54.144 
L 82.595333 54.144 
L 82.157203 54.144 
L 81.719073 54.144 
L 81.280942 54.144 
L 80.842812 54.144 
L 80.404682 54.144 
L 79.966551 54.144 
L 79.528421 54.144 
L 79.090291 54.144 
L 78.65216 54.144 
L 78.21403 54.144 
L 77.7759 54.144 
L 77.33777 54.144 
L 76.899639 54.144 
L 76.461509 54.144 
L 76.023379 54.144 
L 75.585248 54.144 
L 75.147118 54.144 
L 74.708988 54.144 
L 74.270858 54.144 
L 73.832727 54.144 
z
" clip-path="url(#pbf63cd4b8e)" style="fill: #1f77b4"/>
   </g>
   <g id="matplotlib.axis_1">
    <g id="xtick_1">
     <g id="line2d_1">
      <defs>
       <path id="mf68d337b9e" d="M 0 0 
L 0 3.5 
" style="stroke: #000000; stroke-width: 0.8"/>
      </defs>
      <g>
       <use xlink:href="#mf68d337b9e" x="73.832727" y="307.584" style="stroke: #000000; stroke-width: 0.8"/>
      </g>
     </g>
     <g id="text_1">
      <!-- 0 -->
      <g transform="translate(70.651477 322.182437) scale(0.1 -0.1)">
       <defs>
        <path id="DejaVuSans-30" d="M 2034 4250 
Q 1547 4250 1301 3770 
Q 1056 3291 1056 2328 
Q 1056 1369 1301 889 
Q 1547 409 2034 409 
Q 2525 409 2770 889 
Q 3016 1369 3016 2328 
Q 3016 3291 2770 3770 
Q 2525 4250 2034 4250 
z
M 2034 4750 
Q 2819 4750 3233 4129 
Q 3647 3509 3647 2328 
Q 3647 1150 3233 529 
Q 2819 -91 2034 -91 
Q 1250 -91 836 529 
Q 422 1150 422 2328 
Q 422 3509 836 4129 
Q 1250 4750 2034 4750 
z
" transform="scale(0.015625)"/>
       </defs>
       <use xlink:href="#DejaVuSans-30"/>
      </g>
     </g>
    </g>
    <g id="xtick_2">
     <g id="line2d_2">
      <g>
       <use xlink:href="#mf68d337b9e" x="117.645756" y="307.584" style="stroke: #000000; stroke-width: 0.8"/>
      </g>
     </g>
     <g id="text_2">
      <!-- 100 -->
      <g transform="translate(108.102006 322.182437) scale(0.1 -0.1)">
       <defs>
        <path id="DejaVuSans-31" d="M 794 531 
L 1825 531 
L 1825 4091 
L 703 3866 
L 703 4441 
L 1819 4666 
L 2450 4666 
L 2450 531 
L 3481 531 
L 3481 0 
L 794 0 
L 794 531 
z
" transform="scale(0.015625)"/>
       </defs>
       <use xlink:href="#DejaVuSans-31"/>
       <use xlink:href="#DejaVuSans-30" x="63.623047"/>
       <use xlink:href="#DejaVuSans-30" x="127.246094"/>
      </g>
     </g>
    </g>
    <g id="xtick_3">
     <g id="line2d_3">
      <g>
       <use xlink:href="#mf68d337b9e" x="161.458785" y="307.584" style="stroke: #000000; stroke-width: 0.8"/>
      </g>
     </g>
     <g id="text_3">
      <!-- 200 -->
      <g transform="translate(151.915035 322.182437) scale(0.1 -0.1)">
       <defs>
        <path id="DejaVuSans-32" d="M 1228 531 
L 3431 531 
L 3431 0 
L 469 0 
L 469 531 
Q 828 903 1448 1529 
Q 2069 2156 2228 2338 
Q 2531 2678 2651 2914 
Q 2772 3150 2772 3378 
Q 2772 3750 2511 3984 
Q 2250 4219 1831 4219 
Q 1534 4219 1204 4116 
Q 875 4013 500 3803 
L 500 4441 
Q 881 4594 1212 4672 
Q 1544 4750 1819 4750 
Q 2544 4750 2975 4387 
Q 3406 4025 3406 3419 
Q 3406 3131 3298 2873 
Q 3191 2616 2906 2266 
Q 2828 2175 2409 1742 
Q 1991 1309 1228 531 
z
" transform="scale(0.015625)"/>
       </defs>
       <use xlink:href="#DejaVuSans-32"/>
       <use xlink:href="#DejaVuSans-30" x="63.623047"/>
       <use xlink:href="#DejaVuSans-30" x="127.246094"/>
      </g>
     </g>
    </g>
    <g id="xtick_4">
     <g id="line2d_4">
      <g>
       <use xlink:href="#mf68d337b9e" x="205.271815" y="307.584" style="stroke: #000000; stroke-width: 0.8"/>
      </g>
     </g>
     <g id="text_4">
      <!-- 300 -->
      <g transform="translate(195.728065 322.182437) scale(0.1 -0.1)">
       <defs>
        <path id="DejaVuSans-33" d="M 2597 2516 
Q 3050 2419 3304 2112 
Q 3559 1806 3559 1356 
Q 3559 666 3084 287 
Q 2609 -91 1734 -91 
Q 1441 -91 1130 -33 
Q 819 25 488 141 
L 488 750 
Q 750 597 1062 519 
Q 1375 441 1716 441 
Q 2309 441 2620 675 
Q 2931 909 2931 1356 
Q 2931 1769 2642 2001 
Q 2353 2234 1838 2234 
L 1294 2234 
L 1294 2753 
L 1863 2753 
Q 2328 2753 2575 2939 
Q 2822 3125 2822 3475 
Q 2822 3834 2567 4026 
Q 2313 4219 1838 4219 
Q 1578 4219 1281 4162 
Q 984 4106 628 3988 
L 628 4550 
Q 988 4650 1302 4700 
Q 1616 4750 1894 4750 
Q 2613 4750 3031 4423 
Q 3450 4097 3450 3541 
Q 3450 3153 3228 2886 
Q 3006 2619 2597 2516 
z
" transform="scale(0.015625)"/>
       </defs>
       <use xlink:href="#DejaVuSans-33"/>
       <use xlink:href="#DejaVuSans-30" x="63.623047"/>
       <use xlink:href="#DejaVuSans-30" x="127.246094"/>
      </g>
     </g>
    </g>
    <g id="xtick_5">
     <g id="line2d_5">
      <g>
       <use xlink:href="#mf68d337b9e" x="249.084844" y="307.584" style="stroke: #000000; stroke-width: 0.8"/>
      </g>
     </g>
     <g id="text_5">
      <!-- 400 -->
      <g transform="translate(239.541094 322.182437) scale(0.1 -0.1)">
       <defs>
        <path id="DejaVuSans-34" d="M 2419 4116 
L 825 1625 
L 2419 1625 
L 2419 4116 
z
M 2253 4666 
L 3047 4666 
L 3047 1625 
L 3713 1625 
L 3713 1100 
L 3047 1100 
L 3047 0 
L 2419 0 
L 2419 1100 
L 313 1100 
L 313 1709 
L 2253 4666 
z
" transform="scale(0.015625)"/>
       </defs>
       <use xlink:href="#DejaVuSans-34"/>
       <use xlink:href="#DejaVuSans-30" x="63.623047"/>
       <use xlink:href="#DejaVuSans-30" x="127.246094"/>
      </g>
     </g>
    </g>
    <g id="xtick_6">
     <g id="line2d_6">
      <g>
       <use xlink:href="#mf68d337b9e" x="292.897873" y="307.584" style="stroke: #000000; stroke-width: 0.8"/>
      </g>
     </g>
     <g id="text_6">
      <!-- 500 -->
      <g transform="translate(283.354123 322.182437) scale(0.1 -0.1)">
       <defs>
        <path id="DejaVuSans-35" d="M 691 4666 
L 3169 4666 
L 3169 4134 
L 1269 4134 
L 1269 2991 
Q 1406 3038 1543 3061 
Q 1681 3084 1819 3084 
Q 2600 3084 3056 2656 
Q 3513 2228 3513 1497 
Q 3513 744 3044 326 
Q 2575 -91 1722 -91 
Q 1428 -91 1123 -41 
Q 819 9 494 109 
L 494 744 
Q 775 591 1075 516 
Q 1375 441 1709 441 
Q 2250 441 2565 725 
Q 2881 1009 2881 1497 
Q 2881 1984 2565 2268 
Q 2250 2553 1709 2553 
Q 1456 2553 1204 2497 
Q 953 2441 691 2322 
L 691 4666 
z
" transform="scale(0.015625)"/>
       </defs>
       <use xlink:href="#DejaVuSans-35"/>
       <use xlink:href="#DejaVuSans-30" x="63.623047"/>
       <use xlink:href="#DejaVuSans-30" x="127.246094"/>
      </g>
     </g>
    </g>
    <g id="xtick_7">
     <g id="line2d_7">
      <g>
       <use xlink:href="#mf68d337b9e" x="336.710902" y="307.584" style="stroke: #000000; stroke-width: 0.8"/>
      </g>
     </g>
     <g id="text_7">
      <!-- 600 -->
      <g transform="translate(327.167152 322.182437) scale(0.1 -0.1)">
       <defs>
        <path id="DejaVuSans-36" d="M 2113 2584 
Q 1688 2584 1439 2293 
Q 1191 2003 1191 1497 
Q 1191 994 1439 701 
Q 1688 409 2113 409 
Q 2538 409 2786 701 
Q 3034 994 3034 1497 
Q 3034 2003 2786 2293 
Q 2538 2584 2113 2584 
z
M 3366 4563 
L 3366 3988 
Q 3128 4100 2886 4159 
Q 2644 4219 2406 4219 
Q 1781 4219 1451 3797 
Q 1122 3375 1075 2522 
Q 1259 2794 1537 2939 
Q 1816 3084 2150 3084 
Q 2853 3084 3261 2657 
Q 3669 2231 3669 1497 
Q 3669 778 3244 343 
Q 2819 -91 2113 -91 
Q 1303 -91 875 529 
Q 447 1150 447 2328 
Q 447 3434 972 4092 
Q 1497 4750 2381 4750 
Q 2619 4750 2861 4703 
Q 3103 4656 3366 4563 
z
" transform="scale(0.015625)"/>
       </defs>
       <use xlink:href="#DejaVuSans-36"/>
       <use xlink:href="#DejaVuSans-30" x="63.623047"/>
       <use xlink:href="#DejaVuSans-30" x="127.246094"/>
      </g>
     </g>
    </g>
    <g id="xtick_8">
     <g id="line2d_8">
      <g>
       <use xlink:href="#mf68d337b9e" x="380.523931" y="307.584" style="stroke: #000000; stroke-width: 0.8"/>
      </g>
     </g>
     <g id="text_8">
      <!-- 700 -->
      <g transform="translate(370.980181 322.182437) scale(0.1 -0.1)">
       <defs>
        <path id="DejaVuSans-37" d="M 525 4666 
L 3525 4666 
L 3525 4397 
L 1831 0 
L 1172 0 
L 2766 4134 
L 525 4134 
L 525 4666 
z
" transform="scale(0.015625)"/>
       </defs>
       <use xlink:href="#DejaVuSans-37"/>
       <use xlink:href="#DejaVuSans-30" x="63.623047"/>
       <use xlink:href="#DejaVuSans-30" x="127.246094"/>
      </g>
     </g>
    </g>
    <g id="text_9">
     <!-- Generations -->
     <g transform="translate(205.662344 335.860562) scale(0.1 -0.1)">
      <defs>
       <path id="DejaVuSans-47" d="M 3809 666 
L 3809 1919 
L 2778 1919 
L 2778 2438 
L 4434 2438 
L 4434 434 
Q 4069 175 3628 42 
Q 3188 -91 2688 -91 
Q 1594 -91 976 548 
Q 359 1188 359 2328 
Q 359 3472 976 4111 
Q 1594 4750 2688 4750 
Q 3144 4750 3555 4637 
Q 3966 4525 4313 4306 
L 4313 3634 
Q 3963 3931 3569 4081 
Q 3175 4231 2741 4231 
Q 1884 4231 1454 3753 
Q 1025 3275 1025 2328 
Q 1025 1384 1454 906 
Q 1884 428 2741 428 
Q 3075 428 3337 486 
Q 3600 544 3809 666 
z
" transform="scale(0.015625)"/>
       <path id="DejaVuSans-65" d="M 3597 1894 
L 3597 1613 
L 953 1613 
Q 991 1019 1311 708 
Q 1631 397 2203 397 
Q 2534 397 2845 478 
Q 3156 559 3463 722 
L 3463 178 
Q 3153 47 2828 -22 
Q 2503 -91 2169 -91 
Q 1331 -91 842 396 
Q 353 884 353 1716 
Q 353 2575 817 3079 
Q 1281 3584 2069 3584 
Q 2775 3584 3186 3129 
Q 3597 2675 3597 1894 
z
M 3022 2063 
Q 3016 2534 2758 2815 
Q 2500 3097 2075 3097 
Q 1594 3097 1305 2825 
Q 1016 2553 972 2059 
L 3022 2063 
z
" transform="scale(0.015625)"/>
       <path id="DejaVuSans-6e" d="M 3513 2113 
L 3513 0 
L 2938 0 
L 2938 2094 
Q 2938 2591 2744 2837 
Q 2550 3084 2163 3084 
Q 1697 3084 1428 2787 
Q 1159 2491 1159 1978 
L 1159 0 
L 581 0 
L 581 3500 
L 1159 3500 
L 1159 2956 
Q 1366 3272 1645 3428 
Q 1925 3584 2291 3584 
Q 2894 3584 3203 3211 
Q 3513 2838 3513 2113 
z
" transform="scale(0.015625)"/>
       <path id="DejaVuSans-72" d="M 2631 2963 
Q 2534 3019 2420 3045 
Q 2306 3072 2169 3072 
Q 1681 3072 1420 2755 
Q 1159 2438 1159 1844 
L 1159 0 
L 581 0 
L 581 3500 
L 1159 3500 
L 1159 2956 
Q 1341 3275 1631 3429 
Q 1922 3584 2338 3584 
Q 2397 3584 2469 3576 
Q 2541 3569 2628 3553 
L 2631 2963 
z
" transform="scale(0.015625)"/>
       <path id="DejaVuSans-61" d="M 2194 1759 
Q 1497 1759 1228 1600 
Q 959 1441 959 1056 
Q 959 750 1161 570 
Q 1363 391 1709 391 
Q 2188 391 2477 730 
Q 2766 1069 2766 1631 
L 2766 1759 
L 2194 1759 
z
M 3341 1997 
L 3341 0 
L 2766 0 
L 2766 531 
Q 2569 213 2275 61 
Q 1981 -91 1556 -91 
Q 1019 -91 701 211 
Q 384 513 384 1019 
Q 384 1609 779 1909 
Q 1175 2209 1959 2209 
L 2766 2209 
L 2766 2266 
Q 2766 2663 2505 2880 
Q 2244 3097 1772 3097 
Q 1472 3097 1187 3025 
Q 903 2953 641 2809 
L 641 3341 
Q 956 3463 1253 3523 
Q 1550 3584 1831 3584 
Q 2591 3584 2966 3190 
Q 3341 2797 3341 1997 
z
" transform="scale(0.015625)"/>
       <path id="DejaVuSans-74" d="M 1172 4494 
L 1172 3500 
L 2356 3500 
L 2356 3053 
L 1172 3053 
L 1172 1153 
Q 1172 725 1289 603 
Q 1406 481 1766 481 
L 2356 481 
L 2356 0 
L 1766 0 
Q 1100 0 847 248 
Q 594 497 594 1153 
L 594 3053 
L 172 3053 
L 172 3500 
L 594 3500 
L 594 4494 
L 1172 4494 
z
" transform="scale(0.015625)"/>
       <path id="DejaVuSans-69" d="M 603 3500 
L 1178 3500 
L 1178 0 
L 603 0 
L 603 3500 
z
M 603 4863 
L 1178 4863 
L 1178 4134 
L 603 4134 
L 603 4863 
z
" transform="scale(0.015625)"/>
       <path id="DejaVuSans-6f" d="M 1959 3097 
Q 1497 3097 1228 2736 
Q 959 2375 959 1747 
Q 959 1119 1226 758 
Q 1494 397 1959 397 
Q 2419 397 2687 759 
Q 2956 1122 2956 1747 
Q 2956 2369 2687 2733 
Q 2419 3097 1959 3097 
z
M 1959 3584 
Q 2709 3584 3137 3096 
Q 3566 2609 3566 1747 
Q 3566 888 3137 398 
Q 2709 -91 1959 -91 
Q 1206 -91 779 398 
Q 353 888 353 1747 
Q 353 2609 779 3096 
Q 1206 3584 1959 3584 
z
" transform="scale(0.015625)"/>
       <path id="DejaVuSans-73" d="M 2834 3397 
L 2834 2853 
Q 2591 2978 2328 3040 
Q 2066 3103 1784 3103 
Q 1356 3103 1142 2972 
Q 928 2841 928 2578 
Q 928 2378 1081 2264 
Q 1234 2150 1697 2047 
L 1894 2003 
Q 2506 1872 2764 1633 
Q 3022 1394 3022 966 
Q 3022 478 2636 193 
Q 2250 -91 1575 -91 
Q 1294 -91 989 -36 
Q 684 19 347 128 
L 347 722 
Q 666 556 975 473 
Q 1284 391 1588 391 
Q 1994 391 2212 530 
Q 2431 669 2431 922 
Q 2431 1156 2273 1281 
Q 2116 1406 1581 1522 
L 1381 1569 
Q 847 1681 609 1914 
Q 372 2147 372 2553 
Q 372 3047 722 3315 
Q 1072 3584 1716 3584 
Q 2034 3584 2315 3537 
Q 2597 3491 2834 3397 
z
" transform="scale(0.015625)"/>
      </defs>
      <use xlink:href="#DejaVuSans-47"/>
      <use xlink:href="#DejaVuSans-65" x="77.490234"/>
      <use xlink:href="#DejaVuSans-6e" x="139.013672"/>
      <use xlink:href="#DejaVuSans-65" x="202.392578"/>
      <use xlink:href="#DejaVuSans-72" x="263.916016"/>
      <use xlink:href="#DejaVuSans-61" x="305.029297"/>
      <use xlink:href="#DejaVuSans-74" x="366.308594"/>
      <use xlink:href="#DejaVuSans-69" x="405.517578"/>
      <use xlink:href="#DejaVuSans-6f" x="433.300781"/>
      <use xlink:href="#DejaVuSans-6e" x="494.482422"/>
      <use xlink:href="#DejaVuSans-73" x="557.861328"/>
     </g>
    </g>
   </g>
   <g id="matplotlib.axis_2">
    <g id="ytick_1">
     <g id="line2d_9">
      <defs>
       <path id="m2cf0c43cf6" d="M 0 0 
L -3.5 0 
" style="stroke: #000000; stroke-width: 0.8"/>
      </defs>
      <g>
       <use xlink:href="#m2cf0c43cf6" x="57.6" y="307.584" style="stroke: #000000; stroke-width: 0.8"/>
      </g>
     </g>
     <g id="text_10">
      <!-- 0 -->
      <g transform="translate(44.2375 311.383219) scale(0.1 -0.1)">
       <use xlink:href="#DejaVuSans-30"/>
      </g>
     </g>
    </g>
    <g id="ytick_2">
     <g id="line2d_10">
      <g>
       <use xlink:href="#m2cf0c43cf6" x="57.6" y="272.384" style="stroke: #000000; stroke-width: 0.8"/>
      </g>
     </g>
     <g id="text_11">
      <!-- 10 -->
      <g transform="translate(37.875 276.183219) scale(0.1 -0.1)">
       <use xlink:href="#DejaVuSans-31"/>
       <use xlink:href="#DejaVuSans-30" x="63.623047"/>
      </g>
     </g>
    </g>
    <g id="ytick_3">
     <g id="line2d_11">
      <g>
       <use xlink:href="#m2cf0c43cf6" x="57.6" y="237.184" style="stroke: #000000; stroke-width: 0.8"/>
      </g>
     </g>
     <g id="text_12">
      <!-- 20 -->
      <g transform="translate(37.875 240.983219) scale(0.1 -0.1)">
       <use xlink:href="#DejaVuSans-32"/>
       <use xlink:href="#DejaVuSans-30" x="63.623047"/>
      </g>
     </g>
    </g>
    <g id="ytick_4">
     <g id="line2d_12">
      <g>
       <use xlink:href="#m2cf0c43cf6" x="57.6" y="201.984" style="stroke: #000000; stroke-width: 0.8"/>
      </g>
     </g>
     <g id="text_13">
      <!-- 30 -->
      <g transform="translate(37.875 205.783219) scale(0.1 -0.1)">
       <use xlink:href="#DejaVuSans-33"/>
       <use xlink:href="#DejaVuSans-30" x="63.623047"/>
      </g>
     </g>
    </g>
    <g id="ytick_5">
     <g id="line2d_13">
      <g>
       <use xlink:href="#m2cf0c43cf6" x="57.6" y="166.784" style="stroke: #000000; stroke-width: 0.8"/>
      </g>
     </g>
     <g id="text_14">
      <!-- 40 -->
      <g transform="translate(37.875 170.583219) scale(0.1 -0.1)">
       <use xlink:href="#DejaVuSans-34"/>
       <use xlink:href="#DejaVuSans-30" x="63.623047"/>
      </g>
     </g>
    </g>
    <g id="ytick_6">
     <g id="line2d_14">
      <g>
       <use xlink:href="#m2cf0c43cf6" x="57.6" y="131.584" style="stroke: #000000; stroke-width: 0.8"/>
      </g>
     </g>
     <g id="text_15">
      <!-- 50 -->
      <g transform="translate(37.875 135.383219) scale(0.1 -0.1)">
       <use xlink:href="#DejaVuSans-35"/>
       <use xlink:href="#DejaVuSans-30" x="63.623047"/>
      </g>
     </g>
    </g>
    <g id="ytick_7">
     <g id="line2d_15">
      <g>
       <use xlink:href="#m2cf0c43cf6" x="57.6" y="96.384" style="stroke: #000000; stroke-width: 0.8"/>
      </g>
     </g>
     <g id="text_16">
      <!-- 60 -->
      <g transform="translate(37.875 100.183219) scale(0.1 -0.1)">
       <use xlink:href="#DejaVuSans-36"/>
       <use xlink:href="#DejaVuSans-30" x="63.623047"/>
      </g>
     </g>
    </g>
    <g id="ytick_8">
     <g id="line2d_16">
      <g>
       <use xlink:href="#m2cf0c43cf6" x="57.6" y="61.184" style="stroke: #000000; stroke-width: 0.8"/>
      </g>
     </g>
     <g id="text_17">
      <!-- 70 -->
      <g transform="translate(37.875 64.983219) scale(0.1 -0.1)">
       <use xlink:href="#DejaVuSans-37"/>
       <use xlink:href="#DejaVuSans-30" x="63.623047"/>
      </g>
     </g>
    </g>
    <g id="text_18">
     <!-- Size per Species -->
     <g transform="translate(31.795312 215.520969) rotate(-90) scale(0.1 -0.1)">
      <defs>
       <path id="DejaVuSans-53" d="M 3425 4513 
L 3425 3897 
Q 3066 4069 2747 4153 
Q 2428 4238 2131 4238 
Q 1616 4238 1336 4038 
Q 1056 3838 1056 3469 
Q 1056 3159 1242 3001 
Q 1428 2844 1947 2747 
L 2328 2669 
Q 3034 2534 3370 2195 
Q 3706 1856 3706 1288 
Q 3706 609 3251 259 
Q 2797 -91 1919 -91 
Q 1588 -91 1214 -16 
Q 841 59 441 206 
L 441 856 
Q 825 641 1194 531 
Q 1563 422 1919 422 
Q 2459 422 2753 634 
Q 3047 847 3047 1241 
Q 3047 1584 2836 1778 
Q 2625 1972 2144 2069 
L 1759 2144 
Q 1053 2284 737 2584 
Q 422 2884 422 3419 
Q 422 4038 858 4394 
Q 1294 4750 2059 4750 
Q 2388 4750 2728 4690 
Q 3069 4631 3425 4513 
z
" transform="scale(0.015625)"/>
       <path id="DejaVuSans-7a" d="M 353 3500 
L 3084 3500 
L 3084 2975 
L 922 459 
L 3084 459 
L 3084 0 
L 275 0 
L 275 525 
L 2438 3041 
L 353 3041 
L 353 3500 
z
" transform="scale(0.015625)"/>
       <path id="DejaVuSans-20" transform="scale(0.015625)"/>
       <path id="DejaVuSans-70" d="M 1159 525 
L 1159 -1331 
L 581 -1331 
L 581 3500 
L 1159 3500 
L 1159 2969 
Q 1341 3281 1617 3432 
Q 1894 3584 2278 3584 
Q 2916 3584 3314 3078 
Q 3713 2572 3713 1747 
Q 3713 922 3314 415 
Q 2916 -91 2278 -91 
Q 1894 -91 1617 61 
Q 1341 213 1159 525 
z
M 3116 1747 
Q 3116 2381 2855 2742 
Q 2594 3103 2138 3103 
Q 1681 3103 1420 2742 
Q 1159 2381 1159 1747 
Q 1159 1113 1420 752 
Q 1681 391 2138 391 
Q 2594 391 2855 752 
Q 3116 1113 3116 1747 
z
" transform="scale(0.015625)"/>
       <path id="DejaVuSans-63" d="M 3122 3366 
L 3122 2828 
Q 2878 2963 2633 3030 
Q 2388 3097 2138 3097 
Q 1578 3097 1268 2742 
Q 959 2388 959 1747 
Q 959 1106 1268 751 
Q 1578 397 2138 397 
Q 2388 397 2633 464 
Q 2878 531 3122 666 
L 3122 134 
Q 2881 22 2623 -34 
Q 2366 -91 2075 -91 
Q 1284 -91 818 406 
Q 353 903 353 1747 
Q 353 2603 823 3093 
Q 1294 3584 2113 3584 
Q 2378 3584 2631 3529 
Q 2884 3475 3122 3366 
z
" transform="scale(0.015625)"/>
      </defs>
      <use xlink:href="#DejaVuSans-53"/>
      <use xlink:href="#DejaVuSans-69" x="63.476562"/>
      <use xlink:href="#DejaVuSans-7a" x="91.259766"/>
      <use xlink:href="#DejaVuSans-65" x="143.75"/>
      <use xlink:href="#DejaVuSans-20" x="205.273438"/>
      <use xlink:href="#DejaVuSans-70" x="237.060547"/>
      <use xlink:href="#DejaVuSans-65" x="300.537109"/>
      <use xlink:href="#DejaVuSans-72" x="362.060547"/>
      <use xlink:href="#DejaVuSans-20" x="403.173828"/>
      <use xlink:href="#DejaVuSans-53" x="434.960938"/>
      <use xlink:href="#DejaVuSans-70" x="498.4375"/>
      <use xlink:href="#DejaVuSans-65" x="561.914062"/>
      <use xlink:href="#DejaVuSans-63" x="623.4375"/>
      <use xlink:href="#DejaVuSans-69" x="678.417969"/>
      <use xlink:href="#DejaVuSans-65" x="706.201172"/>
      <use xlink:href="#DejaVuSans-73" x="767.724609"/>
     </g>
    </g>
   </g>
   <g id="patch_3">
    <path d="M 57.6 307.584 
L 57.6 41.472 
" style="fill: none; stroke: #000000; stroke-width: 0.8; stroke-linejoin: miter; stroke-linecap: square"/>
   </g>
   <g id="patch_4">
    <path d="M 414.72 307.584 
L 414.72 41.472 
" style="fill: none; stroke: #000000; stroke-width: 0.8; stroke-linejoin: miter; stroke-linecap: square"/>
   </g>
   <g id="patch_5">
    <path d="M 57.6 307.584 
L 414.72 307.584 
" style="fill: none; stroke: #000000; stroke-width: 0.8; stroke-linejoin: miter; stroke-linecap: square"/>
   </g>
   <g id="patch_6">
    <path d="M 57.6 41.472 
L 414.72 41.472 
" style="fill: none; stroke: #000000; stroke-width: 0.8; stroke-linejoin: miter; stroke-linecap: square"/>
   </g>
   <g id="text_19">
    <!-- Speciation -->
    <g transform="translate(204.714375 35.472) scale(0.12 -0.12)">
     <use xlink:href="#DejaVuSans-53"/>
     <use xlink:href="#DejaVuSans-70" x="63.476562"/>
     <use xlink:href="#DejaVuSans-65" x="126.953125"/>
     <use xlink:href="#DejaVuSans-63" x="188.476562"/>
     <use xlink:href="#DejaVuSans-69" x="243.457031"/>
     <use xlink:href="#DejaVuSans-61" x="271.240234"/>
     <use xlink:href="#DejaVuSans-74" x="332.519531"/>
     <use xlink:href="#DejaVuSans-69" x="371.728516"/>
     <use xlink:href="#DejaVuSans-6f" x="399.511719"/>
     <use xlink:href="#DejaVuSans-6e" x="460.693359"/>
    </g>
   </g>
  </g>
 </g>
 <defs>
  <clipPath id="pbf63cd4b8e">
   <rect x="57.6" y="41.472" width="357.12" height="266.112"/>
  </clipPath>
 </defs>
</svg>
