<?xml version="1.0" encoding="utf-8" standalone="no"?>
<!DOCTYPE svg PUBLIC "-//W3C//DTD SVG 1.1//EN"
  "http://www.w3.org/Graphics/SVG/1.1/DTD/svg11.dtd">
<svg xmlns:xlink="http://www.w3.org/1999/xlink" width="460.8pt" height="345.6pt" viewBox="0 0 460.8 345.6" xmlns="http://www.w3.org/2000/svg" version="1.1">
 <metadata>
  <rdf:RDF xmlns:dc="http://purl.org/dc/elements/1.1/" xmlns:cc="http://creativecommons.org/ns#" xmlns:rdf="http://www.w3.org/1999/02/22-rdf-syntax-ns#">
   <cc:Work>
    <dc:type rdf:resource="http://purl.org/dc/dcmitype/StillImage"/>
    <dc:date>2023-02-20T16:24:42.707680</dc:date>
    <dc:format>image/svg+xml</dc:format>
    <dc:creator>
     <cc:Agent>
      <dc:title>Matplotlib v3.6.3, https://matplotlib.org/</dc:title>
     </cc:Agent>
    </dc:creator>
   </cc:Work>
  </rdf:RDF>
 </metadata>
 <defs>
  <style type="text/css">*{stroke-linejoin: round; stroke-linecap: butt}</style>
 </defs>
 <g id="figure_1">
  <g id="patch_1">
   <path d="M 0 345.6 
L 460.8 345.6 
L 460.8 0 
L 0 0 
z
" style="fill: #ffffff"/>
  </g>
  <g id="axes_1">
   <g id="patch_2">
    <path d="M 57.6 307.584 
L 414.72 307.584 
L 414.72 41.472 
L 57.6 41.472 
z
" style="fill: #ffffff"/>
   </g>
   <g id="matplotlib.axis_1">
    <g id="xtick_1">
     <g id="line2d_1">
      <path d="M 73.832727 307.584 
L 73.832727 41.472 
" clip-path="url(#p998941c156)" style="fill: none; stroke: #b0b0b0; stroke-width: 0.8; stroke-linecap: square"/>
     </g>
     <g id="line2d_2">
      <defs>
       <path id="m3e83330fe2" d="M 0 0 
L 0 3.5 
" style="stroke: #000000; stroke-width: 0.8"/>
      </defs>
      <g>
       <use xlink:href="#m3e83330fe2" x="73.832727" y="307.584" style="stroke: #000000; stroke-width: 0.8"/>
      </g>
     </g>
     <g id="text_1">
      <!-- 0 -->
      <g transform="translate(70.651477 322.182437) scale(0.1 -0.1)">
       <defs>
        <path id="DejaVuSans-30" d="M 2034 4250 
Q 1547 4250 1301 3770 
Q 1056 3291 1056 2328 
Q 1056 1369 1301 889 
Q 1547 409 2034 409 
Q 2525 409 2770 889 
Q 3016 1369 3016 2328 
Q 3016 3291 2770 3770 
Q 2525 4250 2034 4250 
z
M 2034 4750 
Q 2819 4750 3233 4129 
Q 3647 3509 3647 2328 
Q 3647 1150 3233 529 
Q 2819 -91 2034 -91 
Q 1250 -91 836 529 
Q 422 1150 422 2328 
Q 422 3509 836 4129 
Q 1250 4750 2034 4750 
z
" transform="scale(0.015625)"/>
       </defs>
       <use xlink:href="#DejaVuSans-30"/>
      </g>
     </g>
    </g>
    <g id="xtick_2">
     <g id="line2d_3">
      <path d="M 120.34484 307.584 
L 120.34484 41.472 
" clip-path="url(#p998941c156)" style="fill: none; stroke: #b0b0b0; stroke-width: 0.8; stroke-linecap: square"/>
     </g>
     <g id="line2d_4">
      <g>
       <use xlink:href="#m3e83330fe2" x="120.34484" y="307.584" style="stroke: #000000; stroke-width: 0.8"/>
      </g>
     </g>
     <g id="text_2">
      <!-- 100 -->
      <g transform="translate(110.80109 322.182437) scale(0.1 -0.1)">
       <defs>
        <path id="DejaVuSans-31" d="M 794 531 
L 1825 531 
L 1825 4091 
L 703 3866 
L 703 4441 
L 1819 4666 
L 2450 4666 
L 2450 531 
L 3481 531 
L 3481 0 
L 794 0 
L 794 531 
z
" transform="scale(0.015625)"/>
       </defs>
       <use xlink:href="#DejaVuSans-31"/>
       <use xlink:href="#DejaVuSans-30" x="63.623047"/>
       <use xlink:href="#DejaVuSans-30" x="127.246094"/>
      </g>
     </g>
    </g>
    <g id="xtick_3">
     <g id="line2d_5">
      <path d="M 166.856952 307.584 
L 166.856952 41.472 
" clip-path="url(#p998941c156)" style="fill: none; stroke: #b0b0b0; stroke-width: 0.8; stroke-linecap: square"/>
     </g>
     <g id="line2d_6">
      <g>
       <use xlink:href="#m3e83330fe2" x="166.856952" y="307.584" style="stroke: #000000; stroke-width: 0.8"/>
      </g>
     </g>
     <g id="text_3">
      <!-- 200 -->
      <g transform="translate(157.313202 322.182437) scale(0.1 -0.1)">
       <defs>
        <path id="DejaVuSans-32" d="M 1228 531 
L 3431 531 
L 3431 0 
L 469 0 
L 469 531 
Q 828 903 1448 1529 
Q 2069 2156 2228 2338 
Q 2531 2678 2651 2914 
Q 2772 3150 2772 3378 
Q 2772 3750 2511 3984 
Q 2250 4219 1831 4219 
Q 1534 4219 1204 4116 
Q 875 4013 500 3803 
L 500 4441 
Q 881 4594 1212 4672 
Q 1544 4750 1819 4750 
Q 2544 4750 2975 4387 
Q 3406 4025 3406 3419 
Q 3406 3131 3298 2873 
Q 3191 2616 2906 2266 
Q 2828 2175 2409 1742 
Q 1991 1309 1228 531 
z
" transform="scale(0.015625)"/>
       </defs>
       <use xlink:href="#DejaVuSans-32"/>
       <use xlink:href="#DejaVuSans-30" x="63.623047"/>
       <use xlink:href="#DejaVuSans-30" x="127.246094"/>
      </g>
     </g>
    </g>
    <g id="xtick_4">
     <g id="line2d_7">
      <path d="M 213.369065 307.584 
L 213.369065 41.472 
" clip-path="url(#p998941c156)" style="fill: none; stroke: #b0b0b0; stroke-width: 0.8; stroke-linecap: square"/>
     </g>
     <g id="line2d_8">
      <g>
       <use xlink:href="#m3e83330fe2" x="213.369065" y="307.584" style="stroke: #000000; stroke-width: 0.8"/>
      </g>
     </g>
     <g id="text_4">
      <!-- 300 -->
      <g transform="translate(203.825315 322.182437) scale(0.1 -0.1)">
       <defs>
        <path id="DejaVuSans-33" d="M 2597 2516 
Q 3050 2419 3304 2112 
Q 3559 1806 3559 1356 
Q 3559 666 3084 287 
Q 2609 -91 1734 -91 
Q 1441 -91 1130 -33 
Q 819 25 488 141 
L 488 750 
Q 750 597 1062 519 
Q 1375 441 1716 441 
Q 2309 441 2620 675 
Q 2931 909 2931 1356 
Q 2931 1769 2642 2001 
Q 2353 2234 1838 2234 
L 1294 2234 
L 1294 2753 
L 1863 2753 
Q 2328 2753 2575 2939 
Q 2822 3125 2822 3475 
Q 2822 3834 2567 4026 
Q 2313 4219 1838 4219 
Q 1578 4219 1281 4162 
Q 984 4106 628 3988 
L 628 4550 
Q 988 4650 1302 4700 
Q 1616 4750 1894 4750 
Q 2613 4750 3031 4423 
Q 3450 4097 3450 3541 
Q 3450 3153 3228 2886 
Q 3006 2619 2597 2516 
z
" transform="scale(0.015625)"/>
       </defs>
       <use xlink:href="#DejaVuSans-33"/>
       <use xlink:href="#DejaVuSans-30" x="63.623047"/>
       <use xlink:href="#DejaVuSans-30" x="127.246094"/>
      </g>
     </g>
    </g>
    <g id="xtick_5">
     <g id="line2d_9">
      <path d="M 259.881177 307.584 
L 259.881177 41.472 
" clip-path="url(#p998941c156)" style="fill: none; stroke: #b0b0b0; stroke-width: 0.8; stroke-linecap: square"/>
     </g>
     <g id="line2d_10">
      <g>
       <use xlink:href="#m3e83330fe2" x="259.881177" y="307.584" style="stroke: #000000; stroke-width: 0.8"/>
      </g>
     </g>
     <g id="text_5">
      <!-- 400 -->
      <g transform="translate(250.337427 322.182437) scale(0.1 -0.1)">
       <defs>
        <path id="DejaVuSans-34" d="M 2419 4116 
L 825 1625 
L 2419 1625 
L 2419 4116 
z
M 2253 4666 
L 3047 4666 
L 3047 1625 
L 3713 1625 
L 3713 1100 
L 3047 1100 
L 3047 0 
L 2419 0 
L 2419 1100 
L 313 1100 
L 313 1709 
L 2253 4666 
z
" transform="scale(0.015625)"/>
       </defs>
       <use xlink:href="#DejaVuSans-34"/>
       <use xlink:href="#DejaVuSans-30" x="63.623047"/>
       <use xlink:href="#DejaVuSans-30" x="127.246094"/>
      </g>
     </g>
    </g>
    <g id="xtick_6">
     <g id="line2d_11">
      <path d="M 306.39329 307.584 
L 306.39329 41.472 
" clip-path="url(#p998941c156)" style="fill: none; stroke: #b0b0b0; stroke-width: 0.8; stroke-linecap: square"/>
     </g>
     <g id="line2d_12">
      <g>
       <use xlink:href="#m3e83330fe2" x="306.39329" y="307.584" style="stroke: #000000; stroke-width: 0.8"/>
      </g>
     </g>
     <g id="text_6">
      <!-- 500 -->
      <g transform="translate(296.84954 322.182437) scale(0.1 -0.1)">
       <defs>
        <path id="DejaVuSans-35" d="M 691 4666 
L 3169 4666 
L 3169 4134 
L 1269 4134 
L 1269 2991 
Q 1406 3038 1543 3061 
Q 1681 3084 1819 3084 
Q 2600 3084 3056 2656 
Q 3513 2228 3513 1497 
Q 3513 744 3044 326 
Q 2575 -91 1722 -91 
Q 1428 -91 1123 -41 
Q 819 9 494 109 
L 494 744 
Q 775 591 1075 516 
Q 1375 441 1709 441 
Q 2250 441 2565 725 
Q 2881 1009 2881 1497 
Q 2881 1984 2565 2268 
Q 2250 2553 1709 2553 
Q 1456 2553 1204 2497 
Q 953 2441 691 2322 
L 691 4666 
z
" transform="scale(0.015625)"/>
       </defs>
       <use xlink:href="#DejaVuSans-35"/>
       <use xlink:href="#DejaVuSans-30" x="63.623047"/>
       <use xlink:href="#DejaVuSans-30" x="127.246094"/>
      </g>
     </g>
    </g>
    <g id="xtick_7">
     <g id="line2d_13">
      <path d="M 352.905402 307.584 
L 352.905402 41.472 
" clip-path="url(#p998941c156)" style="fill: none; stroke: #b0b0b0; stroke-width: 0.8; stroke-linecap: square"/>
     </g>
     <g id="line2d_14">
      <g>
       <use xlink:href="#m3e83330fe2" x="352.905402" y="307.584" style="stroke: #000000; stroke-width: 0.8"/>
      </g>
     </g>
     <g id="text_7">
      <!-- 600 -->
      <g transform="translate(343.361652 322.182437) scale(0.1 -0.1)">
       <defs>
        <path id="DejaVuSans-36" d="M 2113 2584 
Q 1688 2584 1439 2293 
Q 1191 2003 1191 1497 
Q 1191 994 1439 701 
Q 1688 409 2113 409 
Q 2538 409 2786 701 
Q 3034 994 3034 1497 
Q 3034 2003 2786 2293 
Q 2538 2584 2113 2584 
z
M 3366 4563 
L 3366 3988 
Q 3128 4100 2886 4159 
Q 2644 4219 2406 4219 
Q 1781 4219 1451 3797 
Q 1122 3375 1075 2522 
Q 1259 2794 1537 2939 
Q 1816 3084 2150 3084 
Q 2853 3084 3261 2657 
Q 3669 2231 3669 1497 
Q 3669 778 3244 343 
Q 2819 -91 2113 -91 
Q 1303 -91 875 529 
Q 447 1150 447 2328 
Q 447 3434 972 4092 
Q 1497 4750 2381 4750 
Q 2619 4750 2861 4703 
Q 3103 4656 3366 4563 
z
" transform="scale(0.015625)"/>
       </defs>
       <use xlink:href="#DejaVuSans-36"/>
       <use xlink:href="#DejaVuSans-30" x="63.623047"/>
       <use xlink:href="#DejaVuSans-30" x="127.246094"/>
      </g>
     </g>
    </g>
    <g id="xtick_8">
     <g id="line2d_15">
      <path d="M 399.417515 307.584 
L 399.417515 41.472 
" clip-path="url(#p998941c156)" style="fill: none; stroke: #b0b0b0; stroke-width: 0.8; stroke-linecap: square"/>
     </g>
     <g id="line2d_16">
      <g>
       <use xlink:href="#m3e83330fe2" x="399.417515" y="307.584" style="stroke: #000000; stroke-width: 0.8"/>
      </g>
     </g>
     <g id="text_8">
      <!-- 700 -->
      <g transform="translate(389.873765 322.182437) scale(0.1 -0.1)">
       <defs>
        <path id="DejaVuSans-37" d="M 525 4666 
L 3525 4666 
L 3525 4397 
L 1831 0 
L 1172 0 
L 2766 4134 
L 525 4134 
L 525 4666 
z
" transform="scale(0.015625)"/>
       </defs>
       <use xlink:href="#DejaVuSans-37"/>
       <use xlink:href="#DejaVuSans-30" x="63.623047"/>
       <use xlink:href="#DejaVuSans-30" x="127.246094"/>
      </g>
     </g>
    </g>
    <g id="text_9">
     <!-- Generations -->
     <g transform="translate(205.662344 335.860562) scale(0.1 -0.1)">
      <defs>
       <path id="DejaVuSans-47" d="M 3809 666 
L 3809 1919 
L 2778 1919 
L 2778 2438 
L 4434 2438 
L 4434 434 
Q 4069 175 3628 42 
Q 3188 -91 2688 -91 
Q 1594 -91 976 548 
Q 359 1188 359 2328 
Q 359 3472 976 4111 
Q 1594 4750 2688 4750 
Q 3144 4750 3555 4637 
Q 3966 4525 4313 4306 
L 4313 3634 
Q 3963 3931 3569 4081 
Q 3175 4231 2741 4231 
Q 1884 4231 1454 3753 
Q 1025 3275 1025 2328 
Q 1025 1384 1454 906 
Q 1884 428 2741 428 
Q 3075 428 3337 486 
Q 3600 544 3809 666 
z
" transform="scale(0.015625)"/>
       <path id="DejaVuSans-65" d="M 3597 1894 
L 3597 1613 
L 953 1613 
Q 991 1019 1311 708 
Q 1631 397 2203 397 
Q 2534 397 2845 478 
Q 3156 559 3463 722 
L 3463 178 
Q 3153 47 2828 -22 
Q 2503 -91 2169 -91 
Q 1331 -91 842 396 
Q 353 884 353 1716 
Q 353 2575 817 3079 
Q 1281 3584 2069 3584 
Q 2775 3584 3186 3129 
Q 3597 2675 3597 1894 
z
M 3022 2063 
Q 3016 2534 2758 2815 
Q 2500 3097 2075 3097 
Q 1594 3097 1305 2825 
Q 1016 2553 972 2059 
L 3022 2063 
z
" transform="scale(0.015625)"/>
       <path id="DejaVuSans-6e" d="M 3513 2113 
L 3513 0 
L 2938 0 
L 2938 2094 
Q 2938 2591 2744 2837 
Q 2550 3084 2163 3084 
Q 1697 3084 1428 2787 
Q 1159 2491 1159 1978 
L 1159 0 
L 581 0 
L 581 3500 
L 1159 3500 
L 1159 2956 
Q 1366 3272 1645 3428 
Q 1925 3584 2291 3584 
Q 2894 3584 3203 3211 
Q 3513 2838 3513 2113 
z
" transform="scale(0.015625)"/>
       <path id="DejaVuSans-72" d="M 2631 2963 
Q 2534 3019 2420 3045 
Q 2306 3072 2169 3072 
Q 1681 3072 1420 2755 
Q 1159 2438 1159 1844 
L 1159 0 
L 581 0 
L 581 3500 
L 1159 3500 
L 1159 2956 
Q 1341 3275 1631 3429 
Q 1922 3584 2338 3584 
Q 2397 3584 2469 3576 
Q 2541 3569 2628 3553 
L 2631 2963 
z
" transform="scale(0.015625)"/>
       <path id="DejaVuSans-61" d="M 2194 1759 
Q 1497 1759 1228 1600 
Q 959 1441 959 1056 
Q 959 750 1161 570 
Q 1363 391 1709 391 
Q 2188 391 2477 730 
Q 2766 1069 2766 1631 
L 2766 1759 
L 2194 1759 
z
M 3341 1997 
L 3341 0 
L 2766 0 
L 2766 531 
Q 2569 213 2275 61 
Q 1981 -91 1556 -91 
Q 1019 -91 701 211 
Q 384 513 384 1019 
Q 384 1609 779 1909 
Q 1175 2209 1959 2209 
L 2766 2209 
L 2766 2266 
Q 2766 2663 2505 2880 
Q 2244 3097 1772 3097 
Q 1472 3097 1187 3025 
Q 903 2953 641 2809 
L 641 3341 
Q 956 3463 1253 3523 
Q 1550 3584 1831 3584 
Q 2591 3584 2966 3190 
Q 3341 2797 3341 1997 
z
" transform="scale(0.015625)"/>
       <path id="DejaVuSans-74" d="M 1172 4494 
L 1172 3500 
L 2356 3500 
L 2356 3053 
L 1172 3053 
L 1172 1153 
Q 1172 725 1289 603 
Q 1406 481 1766 481 
L 2356 481 
L 2356 0 
L 1766 0 
Q 1100 0 847 248 
Q 594 497 594 1153 
L 594 3053 
L 172 3053 
L 172 3500 
L 594 3500 
L 594 4494 
L 1172 4494 
z
" transform="scale(0.015625)"/>
       <path id="DejaVuSans-69" d="M 603 3500 
L 1178 3500 
L 1178 0 
L 603 0 
L 603 3500 
z
M 603 4863 
L 1178 4863 
L 1178 4134 
L 603 4134 
L 603 4863 
z
" transform="scale(0.015625)"/>
       <path id="DejaVuSans-6f" d="M 1959 3097 
Q 1497 3097 1228 2736 
Q 959 2375 959 1747 
Q 959 1119 1226 758 
Q 1494 397 1959 397 
Q 2419 397 2687 759 
Q 2956 1122 2956 1747 
Q 2956 2369 2687 2733 
Q 2419 3097 1959 3097 
z
M 1959 3584 
Q 2709 3584 3137 3096 
Q 3566 2609 3566 1747 
Q 3566 888 3137 398 
Q 2709 -91 1959 -91 
Q 1206 -91 779 398 
Q 353 888 353 1747 
Q 353 2609 779 3096 
Q 1206 3584 1959 3584 
z
" transform="scale(0.015625)"/>
       <path id="DejaVuSans-73" d="M 2834 3397 
L 2834 2853 
Q 2591 2978 2328 3040 
Q 2066 3103 1784 3103 
Q 1356 3103 1142 2972 
Q 928 2841 928 2578 
Q 928 2378 1081 2264 
Q 1234 2150 1697 2047 
L 1894 2003 
Q 2506 1872 2764 1633 
Q 3022 1394 3022 966 
Q 3022 478 2636 193 
Q 2250 -91 1575 -91 
Q 1294 -91 989 -36 
Q 684 19 347 128 
L 347 722 
Q 666 556 975 473 
Q 1284 391 1588 391 
Q 1994 391 2212 530 
Q 2431 669 2431 922 
Q 2431 1156 2273 1281 
Q 2116 1406 1581 1522 
L 1381 1569 
Q 847 1681 609 1914 
Q 372 2147 372 2553 
Q 372 3047 722 3315 
Q 1072 3584 1716 3584 
Q 2034 3584 2315 3537 
Q 2597 3491 2834 3397 
z
" transform="scale(0.015625)"/>
      </defs>
      <use xlink:href="#DejaVuSans-47"/>
      <use xlink:href="#DejaVuSans-65" x="77.490234"/>
      <use xlink:href="#DejaVuSans-6e" x="139.013672"/>
      <use xlink:href="#DejaVuSans-65" x="202.392578"/>
      <use xlink:href="#DejaVuSans-72" x="263.916016"/>
      <use xlink:href="#DejaVuSans-61" x="305.029297"/>
      <use xlink:href="#DejaVuSans-74" x="366.308594"/>
      <use xlink:href="#DejaVuSans-69" x="405.517578"/>
      <use xlink:href="#DejaVuSans-6f" x="433.300781"/>
      <use xlink:href="#DejaVuSans-6e" x="494.482422"/>
      <use xlink:href="#DejaVuSans-73" x="557.861328"/>
     </g>
    </g>
   </g>
   <g id="matplotlib.axis_2">
    <g id="ytick_1">
     <g id="line2d_17">
      <path d="M 57.6 277.006356 
L 414.72 277.006356 
" clip-path="url(#p998941c156)" style="fill: none; stroke: #b0b0b0; stroke-width: 0.8; stroke-linecap: square"/>
     </g>
     <g id="line2d_18">
      <defs>
       <path id="mad6cd41393" d="M 0 0 
L -3.5 0 
" style="stroke: #000000; stroke-width: 0.8"/>
      </defs>
      <g>
       <use xlink:href="#mad6cd41393" x="57.6" y="277.006356" style="stroke: #000000; stroke-width: 0.8"/>
      </g>
     </g>
     <g id="text_10">
      <!-- −1.0 -->
      <g transform="translate(26.317187 280.805575) scale(0.1 -0.1)">
       <defs>
        <path id="DejaVuSans-2212" d="M 678 2272 
L 4684 2272 
L 4684 1741 
L 678 1741 
L 678 2272 
z
" transform="scale(0.015625)"/>
        <path id="DejaVuSans-2e" d="M 684 794 
L 1344 794 
L 1344 0 
L 684 0 
L 684 794 
z
" transform="scale(0.015625)"/>
       </defs>
       <use xlink:href="#DejaVuSans-2212"/>
       <use xlink:href="#DejaVuSans-31" x="83.789062"/>
       <use xlink:href="#DejaVuSans-2e" x="147.412109"/>
       <use xlink:href="#DejaVuSans-30" x="179.199219"/>
      </g>
     </g>
    </g>
    <g id="ytick_2">
     <g id="line2d_19">
      <path d="M 57.6 243.817544 
L 414.72 243.817544 
" clip-path="url(#p998941c156)" style="fill: none; stroke: #b0b0b0; stroke-width: 0.8; stroke-linecap: square"/>
     </g>
     <g id="line2d_20">
      <g>
       <use xlink:href="#mad6cd41393" x="57.6" y="243.817544" style="stroke: #000000; stroke-width: 0.8"/>
      </g>
     </g>
     <g id="text_11">
      <!-- −0.5 -->
      <g transform="translate(26.317187 247.616763) scale(0.1 -0.1)">
       <use xlink:href="#DejaVuSans-2212"/>
       <use xlink:href="#DejaVuSans-30" x="83.789062"/>
       <use xlink:href="#DejaVuSans-2e" x="147.412109"/>
       <use xlink:href="#DejaVuSans-35" x="179.199219"/>
      </g>
     </g>
    </g>
    <g id="ytick_3">
     <g id="line2d_21">
      <path d="M 57.6 210.628731 
L 414.72 210.628731 
" clip-path="url(#p998941c156)" style="fill: none; stroke: #b0b0b0; stroke-width: 0.8; stroke-linecap: square"/>
     </g>
     <g id="line2d_22">
      <g>
       <use xlink:href="#mad6cd41393" x="57.6" y="210.628731" style="stroke: #000000; stroke-width: 0.8"/>
      </g>
     </g>
     <g id="text_12">
      <!-- 0.0 -->
      <g transform="translate(34.696875 214.42795) scale(0.1 -0.1)">
       <use xlink:href="#DejaVuSans-30"/>
       <use xlink:href="#DejaVuSans-2e" x="63.623047"/>
       <use xlink:href="#DejaVuSans-30" x="95.410156"/>
      </g>
     </g>
    </g>
    <g id="ytick_4">
     <g id="line2d_23">
      <path d="M 57.6 177.439919 
L 414.72 177.439919 
" clip-path="url(#p998941c156)" style="fill: none; stroke: #b0b0b0; stroke-width: 0.8; stroke-linecap: square"/>
     </g>
     <g id="line2d_24">
      <g>
       <use xlink:href="#mad6cd41393" x="57.6" y="177.439919" style="stroke: #000000; stroke-width: 0.8"/>
      </g>
     </g>
     <g id="text_13">
      <!-- 0.5 -->
      <g transform="translate(34.696875 181.239138) scale(0.1 -0.1)">
       <use xlink:href="#DejaVuSans-30"/>
       <use xlink:href="#DejaVuSans-2e" x="63.623047"/>
       <use xlink:href="#DejaVuSans-35" x="95.410156"/>
      </g>
     </g>
    </g>
    <g id="ytick_5">
     <g id="line2d_25">
      <path d="M 57.6 144.251106 
L 414.72 144.251106 
" clip-path="url(#p998941c156)" style="fill: none; stroke: #b0b0b0; stroke-width: 0.8; stroke-linecap: square"/>
     </g>
     <g id="line2d_26">
      <g>
       <use xlink:href="#mad6cd41393" x="57.6" y="144.251106" style="stroke: #000000; stroke-width: 0.8"/>
      </g>
     </g>
     <g id="text_14">
      <!-- 1.0 -->
      <g transform="translate(34.696875 148.050325) scale(0.1 -0.1)">
       <use xlink:href="#DejaVuSans-31"/>
       <use xlink:href="#DejaVuSans-2e" x="63.623047"/>
       <use xlink:href="#DejaVuSans-30" x="95.410156"/>
      </g>
     </g>
    </g>
    <g id="ytick_6">
     <g id="line2d_27">
      <path d="M 57.6 111.062294 
L 414.72 111.062294 
" clip-path="url(#p998941c156)" style="fill: none; stroke: #b0b0b0; stroke-width: 0.8; stroke-linecap: square"/>
     </g>
     <g id="line2d_28">
      <g>
       <use xlink:href="#mad6cd41393" x="57.6" y="111.062294" style="stroke: #000000; stroke-width: 0.8"/>
      </g>
     </g>
     <g id="text_15">
      <!-- 1.5 -->
      <g transform="translate(34.696875 114.861512) scale(0.1 -0.1)">
       <use xlink:href="#DejaVuSans-31"/>
       <use xlink:href="#DejaVuSans-2e" x="63.623047"/>
       <use xlink:href="#DejaVuSans-35" x="95.410156"/>
      </g>
     </g>
    </g>
    <g id="ytick_7">
     <g id="line2d_29">
      <path d="M 57.6 77.873481 
L 414.72 77.873481 
" clip-path="url(#p998941c156)" style="fill: none; stroke: #b0b0b0; stroke-width: 0.8; stroke-linecap: square"/>
     </g>
     <g id="line2d_30">
      <g>
       <use xlink:href="#mad6cd41393" x="57.6" y="77.873481" style="stroke: #000000; stroke-width: 0.8"/>
      </g>
     </g>
     <g id="text_16">
      <!-- 2.0 -->
      <g transform="translate(34.696875 81.6727) scale(0.1 -0.1)">
       <use xlink:href="#DejaVuSans-32"/>
       <use xlink:href="#DejaVuSans-2e" x="63.623047"/>
       <use xlink:href="#DejaVuSans-30" x="95.410156"/>
      </g>
     </g>
    </g>
    <g id="ytick_8">
     <g id="line2d_31">
      <path d="M 57.6 44.684669 
L 414.72 44.684669 
" clip-path="url(#p998941c156)" style="fill: none; stroke: #b0b0b0; stroke-width: 0.8; stroke-linecap: square"/>
     </g>
     <g id="line2d_32">
      <g>
       <use xlink:href="#mad6cd41393" x="57.6" y="44.684669" style="stroke: #000000; stroke-width: 0.8"/>
      </g>
     </g>
     <g id="text_17">
      <!-- 2.5 -->
      <g transform="translate(34.696875 48.483887) scale(0.1 -0.1)">
       <use xlink:href="#DejaVuSans-32"/>
       <use xlink:href="#DejaVuSans-2e" x="63.623047"/>
       <use xlink:href="#DejaVuSans-35" x="95.410156"/>
      </g>
     </g>
    </g>
    <g id="text_18">
     <!-- Fitness -->
     <g transform="translate(20.2375 191.845187) rotate(-90) scale(0.1 -0.1)">
      <defs>
       <path id="DejaVuSans-46" d="M 628 4666 
L 3309 4666 
L 3309 4134 
L 1259 4134 
L 1259 2759 
L 3109 2759 
L 3109 2228 
L 1259 2228 
L 1259 0 
L 628 0 
L 628 4666 
z
" transform="scale(0.015625)"/>
      </defs>
      <use xlink:href="#DejaVuSans-46"/>
      <use xlink:href="#DejaVuSans-69" x="50.269531"/>
      <use xlink:href="#DejaVuSans-74" x="78.052734"/>
      <use xlink:href="#DejaVuSans-6e" x="117.261719"/>
      <use xlink:href="#DejaVuSans-65" x="180.640625"/>
      <use xlink:href="#DejaVuSans-73" x="242.164062"/>
      <use xlink:href="#DejaVuSans-73" x="294.263672"/>
     </g>
    </g>
   </g>
   <g id="line2d_33">
    <path d="M 73.832727 192.074157 
L 74.297848 178.701831 
L 74.76297 188.58297 
L 75.228091 184.629076 
L 75.693212 166.912704 
L 76.158333 183.660147 
L 76.623454 169.79423 
L 77.088575 174.034838 
L 77.553696 154.628326 
L 78.018817 191.139615 
L 78.483939 175.411068 
L 78.94906 209.942552 
L 79.414181 206.166127 
L 79.879302 198.529473 
L 80.344423 216.781292 
L 80.809544 199.540349 
L 81.274665 191.118688 
L 81.739786 195.183027 
L 82.204908 182.248332 
L 82.670029 200.139591 
L 83.13515 173.927159 
L 83.600271 198.991996 
L 84.065392 168.656592 
L 84.530513 181.476232 
L 84.995634 180.89432 
L 85.460755 161.929127 
L 85.925877 178.315089 
L 86.390998 187.665484 
L 86.856119 186.046515 
L 87.32124 167.028311 
L 87.786361 173.931308 
L 88.251482 183.568325 
L 88.716603 201.624514 
L 89.181724 189.322528 
L 89.646846 211.401016 
L 90.111967 182.120371 
L 90.577088 180.882889 
L 91.042209 204.406013 
L 91.50733 204.370243 
L 91.972451 208.498839 
L 92.437572 192.437666 
L 92.902693 189.817041 
L 93.367815 200.501902 
L 93.832936 186.579749 
L 94.298057 184.440822 
L 94.763178 198.616778 
L 95.228299 197.724921 
L 95.69342 186.612292 
L 96.158541 189.759606 
L 96.623662 160.075716 
L 97.088784 191.702995 
L 97.553905 196.036071 
L 98.019026 164.997064 
L 98.484147 177.632414 
L 98.949268 167.394956 
L 99.414389 169.1488 
L 99.87951 156.592458 
L 100.344631 172.456987 
L 100.809753 171.651974 
L 101.274874 197.026204 
L 101.739995 171.473492 
L 102.205116 166.575469 
L 102.670237 171.129066 
L 103.135358 169.56827 
L 103.600479 161.449825 
L 104.0656 173.287722 
L 104.530722 176.147491 
L 104.995843 181.580039 
L 105.460964 185.395093 
L 105.926085 183.205922 
L 106.391206 191.612556 
L 106.856327 193.455272 
L 107.786569 199.149919 
L 108.251691 171.081864 
L 108.716812 189.446248 
L 109.181933 193.400142 
L 109.647054 198.483194 
L 110.112175 195.558429 
L 110.577296 181.887312 
L 111.042417 186.227855 
L 111.507538 186.707249 
L 111.97266 174.588354 
L 112.437781 156.191242 
L 112.902902 159.12707 
L 113.368023 167.43091 
L 113.833144 164.636597 
L 114.298265 163.306278 
L 114.763386 177.960245 
L 115.228507 179.890636 
L 115.693629 177.967344 
L 116.15875 155.136944 
L 116.623871 173.522072 
L 117.088992 166.826966 
L 117.554113 166.32351 
L 118.019234 176.874234 
L 118.484355 159.883129 
L 118.949476 167.357157 
L 119.414598 150.952019 
L 119.879719 173.18668 
L 120.34484 160.142186 
L 121.275082 182.06939 
L 121.740203 161.209575 
L 122.205324 168.294373 
L 122.670445 189.044848 
L 123.600688 165.159412 
L 124.065809 168.207252 
L 124.53093 174.335843 
L 124.996051 193.946282 
L 125.461172 166.514069 
L 126.391414 152.243433 
L 126.856536 172.143538 
L 127.321657 179.772815 
L 127.786778 190.048072 
L 128.251899 161.384001 
L 128.71702 177.41051 
L 129.182141 174.964678 
L 129.647262 193.942042 
L 130.112383 183.69601 
L 130.577505 195.278352 
L 131.042626 181.509512 
L 131.507747 181.800652 
L 131.972868 170.509173 
L 132.437989 176.529623 
L 132.90311 177.339799 
L 133.368231 168.710431 
L 133.833352 190.635422 
L 134.298474 146.847485 
L 134.763595 164.110646 
L 135.228716 175.073372 
L 136.158958 161.35662 
L 136.624079 177.991406 
L 137.0892 179.133008 
L 137.554321 161.834262 
L 138.019443 171.046278 
L 138.484564 175.802051 
L 138.949685 191.937622 
L 139.414806 184.27414 
L 139.879927 166.05422 
L 140.345048 178.224097 
L 140.810169 162.461623 
L 141.740412 175.237841 
L 142.205533 164.82522 
L 142.670654 157.824408 
L 143.135775 168.655393 
L 143.600896 161.572532 
L 144.066017 164.509742 
L 144.531138 162.300381 
L 144.996259 195.822557 
L 145.461381 187.900295 
L 145.926502 190.337736 
L 146.391623 185.451053 
L 146.856744 157.232818 
L 147.321865 180.161309 
L 147.786986 171.154603 
L 148.252107 198.290698 
L 148.717228 170.228912 
L 149.18235 183.847479 
L 149.647471 182.045327 
L 150.577713 150.100542 
L 151.507955 193.477583 
L 151.973076 179.074375 
L 152.438197 153.996171 
L 152.903319 157.780618 
L 153.36844 169.758368 
L 153.833561 177.551747 
L 154.298682 173.883276 
L 154.763803 174.644775 
L 155.228924 180.051325 
L 155.694045 208.746004 
L 156.624288 188.302617 
L 157.089409 184.114004 
L 157.55453 170.185674 
L 158.019651 170.705539 
L 158.484772 195.915485 
L 158.949893 191.367235 
L 159.415014 192.341327 
L 159.880135 172.655475 
L 160.345257 206.615743 
L 160.810378 183.851352 
L 161.275499 176.755215 
L 161.74062 182.715004 
L 162.205741 191.132609 
L 162.670862 175.513124 
L 163.135983 155.861936 
L 163.601104 181.500017 
L 164.066226 190.524608 
L 164.531347 195.207918 
L 164.996468 186.999772 
L 165.461589 170.198304 
L 165.92671 171.393747 
L 166.391831 201.414318 
L 167.322073 181.624014 
L 167.787195 153.857884 
L 168.717437 194.54488 
L 169.182558 170.328939 
L 169.647679 189.71812 
L 170.1128 170.310593 
L 170.577921 177.569448 
L 171.043042 198.31559 
L 171.508164 187.949433 
L 171.973285 187.213747 
L 172.438406 175.846671 
L 172.903527 171.537104 
L 173.368648 184.694532 
L 173.833769 176.75964 
L 174.29889 176.421391 
L 174.764011 171.262835 
L 175.229133 186.561218 
L 175.694254 178.309558 
L 176.159375 190.104862 
L 176.624496 192.378848 
L 177.089617 187.792431 
L 177.554738 180.145637 
L 178.019859 184.501853 
L 178.48498 173.569827 
L 178.950102 189.735728 
L 179.415223 158.494914 
L 180.810586 197.607746 
L 181.275707 178.354178 
L 181.740828 178.586039 
L 182.205949 185.759985 
L 182.671071 186.340789 
L 183.136192 168.547437 
L 183.601313 177.683119 
L 184.066434 171.723238 
L 184.996676 185.296909 
L 185.461797 180.31195 
L 185.926918 204.794968 
L 186.39204 191.192809 
L 186.857161 166.875459 
L 187.322282 177.550364 
L 187.787403 191.346677 
L 188.252524 183.284468 
L 188.717645 178.774939 
L 189.182766 166.816272 
L 189.647887 197.839422 
L 190.113009 175.729035 
L 190.57813 200.852874 
L 191.043251 176.511646 
L 191.508372 190.249325 
L 191.973493 167.721589 
L 192.438614 163.285535 
L 192.903735 205.784455 
L 193.368856 202.84365 
L 193.833978 171.002027 
L 194.299099 195.439133 
L 194.76422 180.507026 
L 195.229341 188.788003 
L 195.694462 160.383174 
L 196.159583 185.629166 
L 196.624704 182.436587 
L 197.089825 164.415153 
L 197.554947 168.084177 
L 198.020068 185.493184 
L 198.485189 187.153362 
L 198.95031 178.909169 
L 199.415431 160.094431 
L 199.880552 189.272837 
L 200.345673 178.530356 
L 200.810794 187.963907 
L 201.275916 202.826133 
L 201.741037 186.847288 
L 202.206158 185.367067 
L 202.671279 191.511606 
L 203.1364 180.538463 
L 203.601521 165.44373 
L 204.066642 189.57255 
L 204.531763 186.937174 
L 204.996885 182.737775 
L 205.462006 184.755378 
L 205.927127 197.39248 
L 206.392248 175.76287 
L 206.857369 185.35794 
L 207.32249 191.438775 
L 207.787611 191.895214 
L 208.252732 167.188079 
L 208.717854 192.828557 
L 209.182975 172.459108 
L 209.648096 199.34306 
L 210.113217 181.060818 
L 211.043459 204.066565 
L 211.50858 189.790029 
L 211.973701 185.634052 
L 212.438823 213.662926 
L 212.903944 179.427006 
L 213.834186 190.270161 
L 214.764428 186.012128 
L 215.69467 169.834518 
L 216.159792 154.975057 
L 216.624913 167.053572 
L 217.090034 167.15028 
L 217.555155 169.761502 
L 218.020276 186.796951 
L 218.950518 178.091987 
L 219.415639 178.08037 
L 220.345882 197.013666 
L 220.811003 183.005498 
L 221.276124 164.770735 
L 221.741245 190.804316 
L 222.206366 187.7869 
L 222.671487 181.098248 
L 223.136608 178.502053 
L 223.60173 193.246828 
L 224.066851 188.985661 
L 224.531972 190.757483 
L 224.997093 178.474396 
L 225.462214 196.971719 
L 225.927335 176.621261 
L 226.392456 177.211285 
L 226.857577 191.976895 
L 227.322699 151.687705 
L 227.78782 185.96972 
L 228.252941 196.710173 
L 228.718062 185.84895 
L 229.183183 183.347251 
L 229.648304 167.293453 
L 230.113425 185.810137 
L 230.578546 182.284471 
L 231.043668 204.581084 
L 231.508789 177.332516 
L 231.97391 205.430441 
L 232.439031 202.948932 
L 232.904152 182.713621 
L 233.369273 201.576022 
L 233.834394 180.451896 
L 234.299515 200.53758 
L 234.764637 205.302665 
L 235.229758 213.937379 
L 235.694879 192.1433 
L 236.16 184.960043 
L 236.625121 186.457042 
L 237.090242 192.917614 
L 237.555363 203.269757 
L 238.020485 187.415185 
L 238.485606 188.538719 
L 238.950727 172.94643 
L 239.415848 195.643521 
L 239.880969 207.775692 
L 240.34609 193.695246 
L 240.811211 192.35156 
L 241.276332 198.424836 
L 241.741454 170.881164 
L 242.206575 197.656607 
L 242.671696 160.705751 
L 243.136817 199.09147 
L 243.601938 212.418622 
L 244.067059 185.766992 
L 244.53218 212.244842 
L 244.997301 197.922947 
L 245.462423 168.084822 
L 245.927544 191.149387 
L 246.392665 178.676386 
L 246.857786 184.109395 
L 247.322907 178.316749 
L 247.788028 174.814038 
L 248.253149 163.774056 
L 248.71827 186.841756 
L 249.183392 178.061103 
L 249.648513 186.193099 
L 250.113634 177.023307 
L 250.578755 172.732823 
L 251.043876 186.93238 
L 251.508997 189.941038 
L 251.974118 178.230642 
L 252.439239 200.361219 
L 252.904361 188.21605 
L 253.369482 171.755874 
L 253.834603 181.121941 
L 254.764845 193.092224 
L 255.229966 177.682105 
L 255.695087 172.8547 
L 256.62533 185.530613 
L 257.090451 160.763278 
L 257.555572 175.27527 
L 258.020693 181.997388 
L 258.485814 203.944873 
L 258.950935 171.629664 
L 259.416056 190.696268 
L 259.881177 201.813506 
L 260.346299 158.503857 
L 260.81142 159.107986 
L 261.276541 158.498603 
L 261.741662 185.530337 
L 262.206783 182.359699 
L 262.671904 172.517004 
L 263.137025 187.296719 
L 263.602146 165.921372 
L 264.067268 187.070851 
L 264.532389 182.990379 
L 264.99751 184.27368 
L 265.462631 198.479321 
L 265.927752 165.640005 
L 266.392873 184.261971 
L 266.857994 161.384277 
L 267.323115 164.079486 
L 267.788237 181.743309 
L 268.718479 202.007384 
L 269.1836 182.102486 
L 269.648721 200.052932 
L 270.113842 195.038656 
L 270.578963 178.401288 
L 271.044084 179.856894 
L 271.509206 190.291733 
L 271.974327 174.95214 
L 272.439448 174.43753 
L 272.904569 192.70456 
L 273.36969 182.93995 
L 273.834811 169.441784 
L 274.299932 179.36026 
L 274.765053 176.662839 
L 275.230175 184.403209 
L 275.695296 189.763478 
L 276.160417 161.417927 
L 276.625538 180.890264 
L 277.090659 175.065536 
L 277.55578 197.945811 
L 278.020901 176.923187 
L 278.486022 189.033232 
L 278.951144 171.65262 
L 279.416265 180.811349 
L 279.881386 178.786186 
L 280.346507 179.929632 
L 280.811628 176.977211 
L 281.276749 190.11952 
L 281.74187 195.677171 
L 282.206991 180.313056 
L 282.672113 176.924017 
L 283.137234 191.508195 
L 283.602355 185.313688 
L 284.067476 163.444934 
L 284.532597 159.686116 
L 284.997718 159.816935 
L 285.462839 175.932962 
L 285.92796 170.527796 
L 286.393082 174.258402 
L 286.858203 185.995165 
L 287.323324 169.668205 
L 287.788445 180.864544 
L 288.253566 157.805325 
L 289.183808 188.226099 
L 289.648929 177.201881 
L 290.114051 190.513269 
L 290.579172 179.181133 
L 291.044293 194.68501 
L 291.509414 168.475344 
L 291.974535 173.908629 
L 292.439656 160.184594 
L 292.904777 175.79569 
L 293.369898 167.752196 
L 294.300141 175.06572 
L 294.765262 158.312561 
L 295.230383 158.541379 
L 295.695504 175.230189 
L 296.160625 169.312624 
L 296.625746 150.316454 
L 297.090867 171.092835 
L 297.555989 174.988648 
L 298.02111 176.716495 
L 298.951352 162.151953 
L 299.416473 198.546252 
L 300.346715 156.858983 
L 300.811836 166.299356 
L 301.276958 193.776558 
L 301.742079 193.565257 
L 302.2072 201.394129 
L 302.672321 171.997783 
L 303.137442 175.445456 
L 303.602563 172.849537 
L 304.067684 185.899286 
L 304.532805 171.682674 
L 304.997927 171.128974 
L 305.463048 176.704971 
L 305.928169 167.511485 
L 306.39329 168.206883 
L 306.858411 185.807003 
L 307.323532 180.070593 
L 308.253774 153.909327 
L 308.718896 182.83937 
L 309.184017 172.939608 
L 310.114259 196.945353 
L 311.044501 154.870973 
L 311.509622 147.954609 
L 311.974743 177.112824 
L 312.439865 153.633215 
L 313.370107 187.000878 
L 313.835228 175.410423 
L 314.300349 178.447937 
L 314.76547 168.488988 
L 315.230591 181.978857 
L 315.695712 185.720435 
L 316.160834 187.903061 
L 316.625955 166.899244 
L 317.091076 174.341743 
L 317.556197 179.992692 
L 318.021318 204.639994 
L 318.95156 169.331154 
L 319.416681 197.33781 
L 319.881803 196.330069 
L 320.346924 190.325844 
L 320.812045 163.959545 
L 321.277166 170.513598 
L 321.742287 171.263481 
L 322.207408 175.024234 
L 323.13765 169.068317 
L 323.602772 173.257391 
L 324.067893 154.595322 
L 324.533014 161.037731 
L 324.998135 156.558624 
L 325.463256 166.558229 
L 325.928377 173.747663 
L 326.393498 146.633694 
L 326.858619 173.383508 
L 327.323741 170.38324 
L 327.788862 191.82773 
L 328.253983 162.296878 
L 328.719104 174.314916 
L 329.184225 183.164897 
L 329.649346 199.797747 
L 330.114467 186.537064 
L 330.579588 182.625117 
L 331.04471 192.101722 
L 331.509831 156.816114 
L 331.974952 190.241766 
L 332.440073 186.933763 
L 332.905194 167.515726 
L 333.370315 182.668263 
L 333.835436 159.649424 
L 334.300557 174.477633 
L 334.765679 171.677972 
L 335.2308 182.513566 
L 335.695921 185.289534 
L 336.161042 171.708672 
L 336.626163 196.658177 
L 337.091284 174.445734 
L 337.556405 165.242108 
L 338.021526 178.920601 
L 338.951769 162.880632 
L 339.41689 195.668136 
L 339.882011 148.489871 
L 340.347132 164.336238 
L 340.812253 156.417387 
L 341.277374 140.052998 
L 341.742495 176.199856 
L 342.207617 149.351858 
L 342.672738 135.627362 
L 343.137859 151.376007 
L 343.60298 174.500588 
L 344.068101 164.133694 
L 344.533222 183.295624 
L 344.998343 182.653051 
L 345.463464 185.689459 
L 346.393707 150.424962 
L 346.858828 175.570098 
L 347.323949 142.080097 
L 347.78907 152.27063 
L 348.254191 150.933397 
L 348.719312 172.705719 
L 349.184433 154.79261 
L 349.649555 145.911838 
L 350.114676 163.303882 
L 350.579797 162.996885 
L 351.044918 169.931318 
L 351.510039 145.46176 
L 351.97516 170.461233 
L 352.440281 162.204133 
L 352.905402 165.836096 
L 353.370524 172.079925 
L 353.835645 170.296764 
L 354.300766 177.383774 
L 354.765887 161.416083 
L 355.231008 152.851618 
L 355.696129 164.830198 
L 356.16125 160.404839 
L 356.626371 160.0523 
L 357.091493 154.143216 
L 357.556614 152.666682 
L 358.021735 164.44613 
L 358.486856 171.25758 
L 358.951977 180.94899 
L 359.417098 183.952485 
L 359.882219 164.047956 
L 360.34734 156.486807 
L 360.812462 183.045694 
L 361.277583 200.294196 
L 361.742704 199.861359 
L 362.207825 163.481257 
L 362.672946 165.625162 
L 363.138067 192.706772 
L 363.603188 186.866187 
L 364.068309 177.109967 
L 364.533431 189.238541 
L 364.998552 173.863456 
L 365.463673 190.795742 
L 365.928794 193.516672 
L 366.393915 170.452936 
L 366.859036 168.29216 
L 367.324157 177.136057 
L 367.789278 175.674827 
L 368.2544 170.02987 
L 368.719521 167.07496 
L 369.184642 177.771254 
L 369.649763 193.082083 
L 370.114884 183.952854 
L 370.580005 180.566674 
L 371.045126 190.748264 
L 371.510247 192.226457 
L 371.975369 181.957561 
L 372.44049 188.070664 
L 372.905611 181.4766 
L 373.370732 182.433544 
L 373.835853 168.681207 
L 374.300974 164.228559 
L 374.766095 173.482982 
L 375.231216 185.402929 
L 375.696338 168.015218 
L 376.161459 158.546727 
L 376.62658 168.624417 
L 377.091701 195.204138 
L 377.556822 175.658325 
L 378.021943 184.566479 
L 378.487064 168.341943 
L 378.952185 198.138306 
L 379.417307 167.659821 
L 379.882428 189.690186 
L 380.347549 197.288396 
L 380.81267 182.240773 
L 381.277791 196.930233 
L 381.742912 189.450212 
L 382.208033 191.073883 
L 382.673154 189.715538 
L 383.603397 153.74283 
L 384.068518 183.194398 
L 384.533639 173.899871 
L 384.99876 191.969888 
L 385.463881 182.110875 
L 385.929002 164.945253 
L 386.394123 166.500425 
L 386.859245 175.083697 
L 387.324366 193.521558 
L 387.789487 174.54567 
L 388.254608 180.41548 
L 388.719729 197.048422 
L 389.18485 193.995605 
L 389.649971 178.853117 
L 390.115092 177.654355 
L 390.580214 176.147214 
L 391.045335 186.149954 
L 391.510456 165.733395 
L 391.975577 178.556722 
L 392.440698 167.166691 
L 392.905819 178.192659 
L 393.37094 163.315221 
L 393.836061 162.185972 
L 394.301183 187.93081 
L 394.766304 188.13907 
L 395.231425 205.426569 
L 395.696546 179.295726 
L 396.161667 176.580052 
L 396.626788 172.643029 
L 397.091909 191.070471 
L 397.55703 179.776227 
L 398.022152 173.44122 
L 398.487273 191.994965 
L 398.487273 191.994965 
" clip-path="url(#p998941c156)" style="fill: none; stroke: #0000ff; stroke-width: 1.5; stroke-linecap: square"/>
   </g>
   <g id="line2d_34">
    <path d="M 73.832727 278.588614 
L 74.297848 266.976706 
L 74.76297 276.828422 
L 75.228091 273.768702 
L 75.693212 253.283573 
L 76.158333 271.702406 
L 76.623454 260.113814 
L 77.088575 261.624078 
L 77.553696 236.524506 
L 78.018817 277.03546 
L 78.483939 262.212799 
L 78.94906 292.252572 
L 79.414181 288.437481 
L 79.879302 283.667395 
L 80.344423 295.488 
L 81.274665 280.386374 
L 81.739786 279.252119 
L 82.204908 271.349773 
L 82.670029 285.184439 
L 83.13515 262.749039 
L 83.600271 288.452904 
L 84.065392 255.528069 
L 84.530513 267.317285 
L 84.995634 269.766628 
L 85.460755 245.652882 
L 85.925877 264.78096 
L 86.390998 275.958286 
L 86.856119 275.399887 
L 87.32124 258.819172 
L 87.786361 262.989096 
L 88.716603 287.580586 
L 89.181724 277.330915 
L 89.646846 294.022423 
L 90.111967 268.712081 
L 90.577088 270.546555 
L 91.042209 290.694638 
L 91.50733 286.500591 
L 91.972451 290.196707 
L 92.437572 279.783102 
L 92.902693 277.560106 
L 93.367815 285.536255 
L 93.832936 274.934428 
L 94.298057 271.351958 
L 94.763178 286.472608 
L 95.228299 284.504334 
L 95.69342 275.987438 
L 96.158541 274.688641 
L 96.623662 247.311356 
L 97.088784 277.901799 
L 97.553905 284.461062 
L 98.019026 251.957001 
L 98.484147 263.076368 
L 98.949268 253.103248 
L 99.414389 256.281674 
L 99.87951 244.931071 
L 100.344631 260.467115 
L 100.809753 261.391885 
L 101.274874 278.320969 
L 101.739995 260.470818 
L 102.205116 256.548198 
L 102.670237 260.204808 
L 103.135358 255.614435 
L 103.600479 247.467273 
L 104.0656 259.138042 
L 104.530722 263.214182 
L 104.995843 269.927656 
L 105.460964 274.525144 
L 105.926085 271.49493 
L 106.391206 273.732165 
L 106.856327 271.86833 
L 107.321448 281.041147 
L 107.786569 279.650257 
L 108.251691 259.800884 
L 108.716812 278.905978 
L 109.181933 279.275172 
L 109.647054 279.010358 
L 110.112175 278.026592 
L 110.577296 271.562682 
L 111.042417 271.604803 
L 111.507538 271.265872 
L 111.97266 262.260294 
L 112.437781 243.961542 
L 113.368023 252.519561 
L 114.298265 254.437486 
L 114.763386 268.271148 
L 115.228507 267.371267 
L 115.693629 267.879286 
L 116.15875 238.629817 
L 116.623871 261.007219 
L 117.554113 252.254242 
L 118.019234 262.253321 
L 118.484355 248.580073 
L 118.949476 254.391246 
L 119.414598 237.931333 
L 119.879719 261.692434 
L 120.34484 245.988375 
L 121.275082 268.155955 
L 121.740203 246.403814 
L 122.205324 254.37825 
L 122.670445 276.744331 
L 123.600688 254.994721 
L 124.065809 253.741654 
L 124.53093 261.04989 
L 124.996051 278.112468 
L 125.461172 255.46849 
L 126.391414 239.054374 
L 126.856536 260.164944 
L 127.321657 264.975541 
L 127.786778 278.117418 
L 128.251899 249.007251 
L 128.71702 263.849425 
L 129.182141 262.734439 
L 129.647262 282.544496 
L 130.112383 268.211993 
L 130.577505 280.563304 
L 131.042626 269.289519 
L 131.507747 269.494804 
L 131.972868 255.088781 
L 132.437989 265.143823 
L 132.90311 264.01911 
L 133.368231 256.883833 
L 133.833352 280.752197 
L 134.298474 231.69617 
L 134.763595 253.276398 
L 135.228716 266.042029 
L 135.693837 259.35793 
L 136.158958 248.517806 
L 136.624079 266.189074 
L 137.0892 265.093598 
L 137.554321 252.265895 
L 138.019443 260.730911 
L 138.484564 264.656456 
L 138.949685 279.132259 
L 139.414806 275.677028 
L 139.879927 253.113225 
L 140.345048 269.522647 
L 140.810169 249.6111 
L 141.27529 260.680559 
L 141.740412 266.791552 
L 142.205533 254.121624 
L 142.670654 246.296872 
L 143.135775 258.13139 
L 143.600896 251.766563 
L 144.066017 254.942858 
L 144.531138 246.239605 
L 144.996259 284.62243 
L 145.461381 276.060968 
L 145.926502 274.882323 
L 146.391623 277.378329 
L 146.856744 245.388117 
L 147.321865 269.529705 
L 147.786986 258.431422 
L 148.252107 285.997335 
L 148.717228 260.261508 
L 149.18235 271.180772 
L 149.647471 270.635676 
L 150.112592 257.654024 
L 150.577713 235.733781 
L 151.042834 263.309185 
L 151.507955 279.204051 
L 151.973076 266.336746 
L 152.438197 244.335328 
L 152.903319 243.136913 
L 153.833561 270.349226 
L 154.298682 259.243063 
L 154.763803 264.326275 
L 155.228924 267.157705 
L 155.694045 291.199464 
L 156.159166 281.630931 
L 157.089409 270.117913 
L 157.55453 259.145355 
L 158.019651 260.271224 
L 158.484772 279.004398 
L 158.949893 281.09199 
L 159.415014 280.01421 
L 159.880135 260.713131 
L 160.345257 290.179759 
L 160.810378 269.075304 
L 161.275499 264.221506 
L 161.74062 268.36464 
L 162.205741 280.921511 
L 163.135983 244.7847 
L 163.601104 267.954158 
L 164.531347 283.872069 
L 164.996468 274.42267 
L 165.461589 258.155368 
L 165.92671 259.125693 
L 166.391831 285.850214 
L 166.856952 275.998742 
L 167.322073 269.681057 
L 167.787195 239.829551 
L 168.252316 262.551258 
L 168.717437 278.564275 
L 169.182558 262.039238 
L 169.647679 273.569834 
L 170.1128 261.986056 
L 170.577921 266.234264 
L 171.043042 284.000212 
L 171.508164 275.314196 
L 171.973285 277.62452 
L 172.903527 259.087366 
L 173.368648 267.692027 
L 173.833769 266.329158 
L 174.29889 261.379685 
L 174.764011 258.72321 
L 175.229133 272.644425 
L 175.694254 265.433924 
L 176.159375 277.245241 
L 176.624496 278.921727 
L 177.089617 271.342564 
L 177.554738 266.277476 
L 178.019859 269.201951 
L 178.48498 261.686261 
L 178.950102 273.519174 
L 179.415223 243.589888 
L 180.810586 283.882724 
L 181.275707 267.284814 
L 181.740828 262.703874 
L 182.205949 274.073614 
L 182.671071 273.305755 
L 183.136192 255.944748 
L 183.601313 267.587573 
L 184.066434 259.453448 
L 184.531555 266.611055 
L 184.996676 271.874952 
L 185.461797 266.851677 
L 185.926918 289.360346 
L 186.39204 277.022395 
L 186.857161 253.969407 
L 187.787403 276.572287 
L 188.252524 269.95306 
L 188.717645 267.679661 
L 189.182766 252.748577 
L 189.647887 280.20135 
L 190.113009 266.202875 
L 190.57813 284.862096 
L 191.043251 263.213147 
L 191.508372 274.788917 
L 191.973493 255.963292 
L 192.438614 252.635042 
L 192.903735 289.379193 
L 193.368856 288.701908 
L 193.833978 262.077535 
L 194.299099 276.882419 
L 194.76422 265.423225 
L 195.229341 277.734302 
L 195.694462 242.336096 
L 196.159583 272.869977 
L 196.624704 269.963819 
L 197.089825 246.630781 
L 198.020068 275.480915 
L 198.485189 273.399946 
L 198.95031 267.460169 
L 199.415431 246.829202 
L 199.880552 277.333472 
L 200.345673 267.489325 
L 200.810794 275.491308 
L 201.275916 289.29604 
L 201.741037 273.361013 
L 202.671279 279.042831 
L 203.601521 251.105779 
L 204.066642 275.955177 
L 204.531763 270.477349 
L 204.996885 268.002667 
L 205.462006 269.73054 
L 205.927127 280.515209 
L 206.392248 262.729267 
L 206.857369 271.050175 
L 207.32249 282.332592 
L 207.787611 277.052799 
L 208.252732 251.929576 
L 208.717854 280.054642 
L 209.182975 261.82793 
L 209.648096 283.088587 
L 210.113217 268.908278 
L 210.578338 275.734255 
L 211.043459 285.05356 
L 211.50858 274.070231 
L 211.973701 272.781083 
L 212.438823 291.993024 
L 212.903944 268.695027 
L 213.369065 271.526322 
L 213.834186 275.332033 
L 214.764428 278.107515 
L 215.229549 265.913352 
L 215.69467 261.063581 
L 216.159792 239.822262 
L 216.624913 254.930264 
L 217.090034 253.287801 
L 217.555155 259.471391 
L 218.020276 274.203288 
L 218.485397 272.644961 
L 218.950518 262.868584 
L 219.415639 270.424263 
L 219.880761 273.880589 
L 220.345882 281.573022 
L 220.811003 268.152432 
L 221.276124 250.72502 
L 221.741245 273.879315 
L 222.206366 275.803797 
L 222.671487 266.433742 
L 223.136608 267.611347 
L 223.60173 280.54179 
L 224.066851 275.326388 
L 224.531972 275.415738 
L 224.997093 267.157875 
L 225.462214 285.542195 
L 225.927335 265.960834 
L 226.392456 263.502856 
L 226.857577 277.783394 
L 227.322699 237.012167 
L 227.78782 268.997543 
L 228.252941 281.303913 
L 228.718062 273.417291 
L 229.183183 272.090857 
L 229.648304 251.631776 
L 230.113425 273.829907 
L 230.578546 269.225124 
L 231.043668 285.402005 
L 231.508789 264.390026 
L 231.97391 285.229344 
L 232.439031 283.555981 
L 232.904152 270.47192 
L 233.369273 283.65275 
L 233.834394 263.664761 
L 234.764637 290.811189 
L 235.229758 293.62437 
L 235.694879 275.531984 
L 236.16 269.666671 
L 236.625121 268.188973 
L 237.090242 277.857028 
L 237.555363 283.996446 
L 238.020485 274.012473 
L 238.485606 274.175956 
L 238.950727 259.983421 
L 239.415848 278.329415 
L 239.880969 291.2109 
L 240.34609 278.264965 
L 240.811211 281.913538 
L 241.276332 283.57429 
L 241.741454 258.597381 
L 242.206575 282.999537 
L 242.671696 247.590463 
L 243.136817 285.001955 
L 243.601938 291.719787 
L 244.067059 274.768865 
L 244.53218 291.115795 
L 244.997301 280.479097 
L 245.462423 253.719929 
L 245.927544 276.198072 
L 246.392665 261.967872 
L 246.857786 273.595617 
L 247.322907 265.437646 
L 247.788028 263.972885 
L 248.253149 248.772489 
L 248.71827 272.882025 
L 249.183392 270.262591 
L 249.648513 271.617588 
L 250.113634 263.778135 
L 250.578755 261.048282 
L 251.043876 274.609513 
L 251.508997 274.797292 
L 251.974118 269.005886 
L 252.439239 285.573467 
L 252.904361 274.811825 
L 253.369482 260.663316 
L 254.299724 276.265569 
L 254.764845 277.761715 
L 255.229966 264.471508 
L 255.695087 260.030234 
L 256.160208 270.237179 
L 256.62533 271.0475 
L 257.090451 250.816264 
L 257.555572 262.356797 
L 258.020693 270.540204 
L 258.485814 287.439091 
L 258.950935 260.18106 
L 259.416056 278.477598 
L 259.881177 288.845847 
L 260.346299 249.083063 
L 260.81142 245.899158 
L 261.276541 243.995364 
L 261.741662 270.040634 
L 262.206783 272.106498 
L 262.671904 259.627477 
L 263.137025 271.770671 
L 263.602146 253.859162 
L 264.067268 271.651769 
L 264.532389 268.09477 
L 264.99751 272.85244 
L 265.462631 282.638599 
L 265.927752 245.196953 
L 266.392873 268.74402 
L 266.857994 246.833761 
L 267.323115 249.148082 
L 267.788237 270.295674 
L 268.718479 285.985256 
L 269.1836 272.527012 
L 269.648721 288.839031 
L 270.113842 278.296931 
L 270.578963 264.145878 
L 271.044084 266.559263 
L 271.509206 279.443984 
L 271.974327 264.025396 
L 272.439448 261.41925 
L 272.904569 279.198531 
L 273.36969 272.026571 
L 273.834811 253.194924 
L 274.299932 266.794076 
L 274.765053 265.184783 
L 275.695296 279.463097 
L 276.160417 245.346575 
L 276.625538 266.672825 
L 277.090659 262.650618 
L 277.55578 279.716773 
L 278.020901 265.316666 
L 278.486022 277.492198 
L 278.951144 258.457958 
L 279.416265 270.007902 
L 279.881386 264.25657 
L 280.346507 262.726441 
L 280.811628 265.878703 
L 281.276749 272.432847 
L 281.74187 281.693383 
L 282.206991 262.724747 
L 282.672113 261.334857 
L 283.137234 278.365455 
L 283.602355 274.01605 
L 284.067476 248.588235 
L 284.532597 243.531216 
L 284.997718 244.069422 
L 285.462839 257.707712 
L 285.92796 257.777797 
L 286.393082 262.179381 
L 286.858203 276.793664 
L 287.323324 255.641206 
L 287.788445 265.090095 
L 288.253566 244.458005 
L 288.718687 255.248331 
L 289.183808 277.15175 
L 289.648929 264.777416 
L 290.114051 275.381428 
L 290.579172 266.251508 
L 291.044293 280.490148 
L 291.509414 258.473096 
L 291.974535 263.416573 
L 292.439656 248.083144 
L 292.904777 263.538963 
L 293.369898 255.024846 
L 293.83502 260.242988 
L 294.300141 264.038165 
L 294.765262 242.882753 
L 295.230383 247.165166 
L 295.695504 262.431792 
L 296.160625 254.755644 
L 296.625746 238.171356 
L 297.090867 260.171924 
L 297.555989 262.068222 
L 298.02111 263.38411 
L 298.486231 260.415384 
L 298.951352 243.508484 
L 299.416473 283.220028 
L 300.346715 242.385678 
L 300.811836 252.862637 
L 301.276958 280.130458 
L 301.742079 280.620228 
L 302.2072 284.812472 
L 302.672321 260.515218 
L 303.137442 265.410744 
L 303.602563 261.012218 
L 304.067684 273.586097 
L 304.532805 261.450153 
L 304.997927 254.063889 
L 305.463048 265.478868 
L 305.928169 253.262565 
L 306.39329 251.798892 
L 306.858411 274.99549 
L 307.323532 267.971334 
L 308.253774 238.374446 
L 308.718896 270.839653 
L 309.184017 262.660518 
L 310.114259 282.208463 
L 311.044501 239.044232 
L 311.509622 232.977557 
L 311.974743 265.555624 
L 312.439865 239.82028 
L 313.370107 271.417276 
L 313.835228 267.732688 
L 314.300349 265.813906 
L 314.76547 255.013947 
L 315.230591 270.374689 
L 315.695712 274.835702 
L 316.160834 274.442145 
L 316.625955 255.847703 
L 317.556197 267.530487 
L 318.021318 290.166739 
L 318.95156 257.990521 
L 319.416681 284.530392 
L 319.881803 282.407944 
L 320.346924 277.817351 
L 320.812045 251.911319 
L 321.277166 259.763995 
L 321.742287 258.838264 
L 322.672529 261.501698 
L 323.13765 255.870185 
L 323.602772 263.925394 
L 324.067893 242.201951 
L 324.533014 250.416481 
L 324.998135 247.093339 
L 325.463256 256.259015 
L 325.928377 262.323895 
L 326.393498 233.297824 
L 326.858619 264.435645 
L 327.323741 260.191586 
L 327.788862 280.6529 
L 328.253983 249.698862 
L 328.719104 265.926747 
L 329.184225 270.846504 
L 329.649346 286.151501 
L 330.114467 276.529476 
L 330.579588 273.330141 
L 331.04471 282.310644 
L 331.509831 244.738035 
L 331.974952 280.835156 
L 332.440073 271.606916 
L 332.905194 251.133274 
L 333.370315 270.881572 
L 333.835436 248.503057 
L 334.300557 260.527274 
L 334.765679 258.278184 
L 335.2308 270.995544 
L 335.695921 274.628223 
L 336.161042 258.146343 
L 336.626163 282.852798 
L 337.091284 263.113991 
L 337.556405 250.343551 
L 338.021526 267.150434 
L 338.951769 251.468525 
L 339.41689 284.822272 
L 339.882011 235.801189 
L 340.347132 256.360329 
L 341.277374 225.750338 
L 341.742495 268.062505 
L 342.207617 236.428087 
L 342.672738 217.686723 
L 343.137859 236.287667 
L 343.60298 265.113819 
L 344.068101 255.601959 
L 344.533222 273.465961 
L 344.998343 268.038291 
L 345.463464 273.950748 
L 345.928586 259.512235 
L 346.393707 234.363468 
L 346.858828 263.627688 
L 347.323949 227.427416 
L 347.78907 240.294027 
L 348.254191 237.058054 
L 348.719312 257.850285 
L 349.184433 241.686532 
L 349.649555 232.086985 
L 350.114676 255.381282 
L 350.579797 254.58422 
L 351.044918 257.885655 
L 351.510039 231.433895 
L 351.97516 259.189808 
L 352.440281 254.267007 
L 352.905402 252.912024 
L 353.370524 261.426649 
L 353.835645 259.736175 
L 354.300766 269.614065 
L 355.231008 236.465432 
L 355.696129 252.348736 
L 356.16125 245.505126 
L 356.626371 249.743848 
L 357.091493 238.317028 
L 357.556614 239.701248 
L 358.021735 253.145766 
L 358.486856 259.620612 
L 358.951977 270.268809 
L 359.417098 271.960953 
L 359.882219 251.789963 
L 360.34734 241.170426 
L 360.812462 269.445697 
L 361.277583 285.692235 
L 361.742704 290.269102 
L 362.207825 249.266903 
L 362.672946 255.185359 
L 363.138067 281.308583 
L 363.603188 272.533327 
L 364.068309 259.972985 
L 364.533431 279.202283 
L 364.998552 262.445875 
L 365.463673 282.447144 
L 365.928794 281.064313 
L 366.393915 257.781294 
L 366.859036 255.334819 
L 367.324157 264.833392 
L 367.789278 267.682794 
L 368.2544 259.326642 
L 368.719521 256.415747 
L 369.184642 269.735815 
L 369.649763 277.015587 
L 370.114884 268.405318 
L 370.580005 268.356874 
L 371.045126 276.665431 
L 371.510247 282.318186 
L 371.975369 271.487361 
L 372.44049 275.556922 
L 372.905611 270.549338 
L 373.370732 272.180713 
L 373.835853 256.43839 
L 374.300974 252.602467 
L 374.766095 263.904377 
L 375.231216 271.82705 
L 376.161459 246.06805 
L 376.62658 254.360354 
L 377.091701 280.073704 
L 377.556822 264.940175 
L 378.021943 274.758075 
L 378.487064 257.649819 
L 378.952185 285.870063 
L 379.417307 259.993408 
L 379.882428 272.913031 
L 380.347549 282.122566 
L 380.81267 269.058883 
L 381.277791 283.972778 
L 381.742912 280.478565 
L 382.208033 278.96294 
L 382.673154 278.426078 
L 383.603397 240.231258 
L 384.068518 270.810362 
L 384.533639 263.228245 
L 384.99876 277.303169 
L 385.463881 271.479143 
L 385.929002 253.355491 
L 386.394123 254.731244 
L 386.859245 265.978257 
L 387.324366 282.74297 
L 387.789487 266.029772 
L 388.254608 271.954976 
L 388.719729 283.420537 
L 389.18485 280.115133 
L 390.115092 264.41667 
L 390.580214 264.08975 
L 391.045335 275.956195 
L 391.510456 252.40992 
L 391.975577 270.408244 
L 392.440698 253.443997 
L 392.905819 266.875722 
L 393.37094 251.863029 
L 393.836061 250.622725 
L 394.301183 274.816022 
L 394.766304 273.433414 
L 395.231425 286.242588 
L 395.696546 270.492514 
L 396.161667 264.364399 
L 396.626788 262.860463 
L 397.091909 280.109818 
L 397.55703 265.4655 
L 398.022152 259.563282 
L 398.487273 277.934516 
L 398.487273 277.934516 
" clip-path="url(#p998941c156)" style="fill: none; stroke-dasharray: 9.6,2.4,1.5,2.4; stroke-dashoffset: 0; stroke: #008000; stroke-width: 1.5"/>
   </g>
   <g id="line2d_35">
    <path d="M 73.832727 105.5597 
L 74.297848 90.426956 
L 74.76297 100.337519 
L 75.228091 95.48945 
L 75.693212 80.541834 
L 76.158333 95.617888 
L 76.623454 79.474646 
L 77.088575 86.445599 
L 77.553696 72.732146 
L 78.018817 105.24377 
L 78.483939 88.609337 
L 78.94906 127.632533 
L 79.414181 123.894772 
L 79.879302 113.391551 
L 80.344423 138.074584 
L 80.809544 111.100085 
L 81.274665 101.851002 
L 81.739786 111.113934 
L 82.204908 93.146892 
L 82.670029 115.094744 
L 83.13515 85.105279 
L 83.600271 109.531088 
L 84.065392 81.785115 
L 84.530513 95.635178 
L 84.995634 92.022013 
L 85.460755 78.205372 
L 85.925877 91.849218 
L 86.390998 99.372682 
L 86.856119 96.693143 
L 87.32124 75.237451 
L 87.786361 84.873521 
L 88.251482 90.854421 
L 88.716603 115.668443 
L 89.181724 101.31414 
L 89.646846 128.779609 
L 90.111967 95.528661 
L 90.577088 91.219224 
L 91.042209 118.117388 
L 91.972451 126.800971 
L 92.437572 105.092231 
L 92.902693 102.073975 
L 93.367815 115.46755 
L 93.832936 98.22507 
L 94.298057 97.529687 
L 94.763178 110.760948 
L 95.228299 110.945507 
L 95.69342 97.237146 
L 96.158541 104.830571 
L 96.623662 72.840076 
L 97.088784 105.504192 
L 97.553905 107.61108 
L 98.019026 78.037127 
L 98.484147 92.18846 
L 98.949268 81.686664 
L 99.414389 82.015926 
L 99.87951 68.253845 
L 100.344631 84.44686 
L 100.809753 81.912062 
L 101.274874 115.73144 
L 101.739995 82.476167 
L 102.205116 76.60274 
L 102.670237 82.053324 
L 103.135358 83.522105 
L 103.600479 75.432378 
L 104.0656 87.437401 
L 104.530722 89.0808 
L 104.995843 93.232421 
L 105.460964 96.265041 
L 105.926085 94.916913 
L 106.391206 109.492946 
L 106.856327 115.042215 
L 107.321448 111.796183 
L 107.786569 118.649582 
L 108.251691 82.362844 
L 108.716812 99.986518 
L 109.181933 107.525112 
L 109.647054 117.956029 
L 110.112175 113.090265 
L 110.577296 92.211942 
L 111.042417 100.850908 
L 111.507538 102.148627 
L 112.437781 68.420942 
L 112.902902 69.653801 
L 113.368023 82.34226 
L 113.833144 75.733624 
L 114.298265 72.175071 
L 114.763386 87.649343 
L 115.228507 92.410004 
L 115.693629 88.055403 
L 116.15875 71.644071 
L 116.623871 86.036924 
L 117.088992 76.968124 
L 117.554113 80.392778 
L 118.019234 91.495147 
L 118.484355 71.186184 
L 118.949476 80.323069 
L 119.414598 63.972706 
L 119.879719 84.680927 
L 120.34484 74.295997 
L 121.275082 95.982824 
L 121.740203 76.015336 
L 122.205324 82.210495 
L 122.670445 101.345365 
L 123.135567 85.652437 
L 123.600688 75.324104 
L 124.065809 82.67285 
L 124.53093 87.621796 
L 124.996051 109.780096 
L 125.461172 77.559648 
L 125.926293 72.982217 
L 126.391414 65.432492 
L 126.856536 84.122131 
L 127.321657 94.57009 
L 127.786778 101.978726 
L 128.251899 73.76075 
L 128.71702 90.971594 
L 129.182141 87.194918 
L 129.647262 105.339587 
L 130.112383 99.180027 
L 130.577505 109.993401 
L 131.042626 93.729505 
L 131.507747 94.106501 
L 131.972868 85.929564 
L 132.437989 87.915423 
L 132.90311 90.660488 
L 133.368231 80.53703 
L 133.833352 100.518647 
L 134.298474 61.998801 
L 134.763595 74.944894 
L 135.228716 84.104715 
L 135.693837 77.135674 
L 136.158958 74.195434 
L 136.624079 89.793737 
L 137.0892 93.172419 
L 137.554321 71.40263 
L 138.019443 81.361645 
L 138.484564 86.947646 
L 138.949685 104.742984 
L 139.879927 78.995215 
L 140.345048 86.925547 
L 140.810169 75.312146 
L 141.27529 78.145665 
L 141.740412 83.68413 
L 142.205533 75.528815 
L 142.670654 69.351945 
L 143.135775 79.179395 
L 143.600896 71.378501 
L 144.066017 74.076625 
L 144.531138 78.361156 
L 144.996259 107.022683 
L 145.461381 99.739622 
L 145.926502 105.79315 
L 146.391623 93.523776 
L 146.856744 69.077519 
L 147.321865 90.792914 
L 147.786986 83.877784 
L 148.252107 110.584061 
L 148.717228 80.196315 
L 149.18235 96.514187 
L 149.647471 93.454978 
L 150.112592 76.330505 
L 150.577713 64.467303 
L 151.042834 82.523382 
L 151.507955 107.751114 
L 151.973076 91.812005 
L 152.438197 63.657015 
L 153.36844 81.976465 
L 153.833561 84.754268 
L 154.298682 88.523489 
L 154.763803 84.963276 
L 155.228924 92.944945 
L 155.694045 126.292544 
L 156.624288 101.062251 
L 157.089409 98.110096 
L 157.55453 81.225993 
L 158.019651 81.139855 
L 158.484772 112.826572 
L 158.949893 101.64248 
L 159.415014 104.668444 
L 159.880135 84.597818 
L 160.345257 123.051727 
L 160.810378 98.6274 
L 161.275499 89.288923 
L 161.74062 97.065367 
L 162.205741 101.343706 
L 162.670862 87.449963 
L 163.135983 66.939171 
L 163.601104 95.045876 
L 164.066226 105.397157 
L 164.531347 106.543767 
L 164.996468 99.576873 
L 165.461589 82.24124 
L 165.92671 83.6618 
L 166.391831 116.978423 
L 166.856952 106.893928 
L 167.322073 93.56697 
L 167.787195 67.886217 
L 168.717437 110.525485 
L 169.182558 78.61864 
L 169.647679 105.866406 
L 170.1128 78.63513 
L 170.577921 88.904631 
L 171.043042 112.630967 
L 171.508164 100.584669 
L 171.973285 96.802975 
L 172.438406 84.564722 
L 172.903527 83.986842 
L 173.368648 101.697037 
L 173.833769 87.190123 
L 174.29889 91.463097 
L 174.764011 83.802461 
L 175.229133 100.478011 
L 175.694254 91.185192 
L 176.159375 102.964483 
L 176.624496 105.83597 
L 177.089617 104.242298 
L 177.554738 94.013798 
L 178.019859 99.801754 
L 178.48498 85.453393 
L 178.950102 105.952283 
L 179.415223 73.399941 
L 179.880344 84.976303 
L 180.345465 100.177855 
L 180.810586 111.332768 
L 181.275707 89.423543 
L 181.740828 94.468204 
L 182.205949 97.446357 
L 182.671071 99.375824 
L 183.136192 81.150127 
L 183.601313 87.778665 
L 184.066434 83.993027 
L 184.996676 98.718866 
L 185.461797 93.772222 
L 185.926918 120.22959 
L 186.39204 105.363224 
L 186.857161 79.78151 
L 187.322282 88.74107 
L 187.787403 106.121066 
L 188.252524 96.615877 
L 188.717645 89.870216 
L 189.182766 80.883966 
L 189.647887 115.477494 
L 190.113009 85.255196 
L 190.57813 116.843652 
L 191.043251 89.810145 
L 191.508372 105.709734 
L 191.973493 79.479885 
L 192.438614 73.936029 
L 192.903735 122.189717 
L 193.368856 116.985392 
L 193.833978 79.926519 
L 194.299099 113.995847 
L 194.76422 95.590826 
L 195.229341 99.841704 
L 195.694462 78.430252 
L 196.159583 98.388356 
L 196.624704 94.909354 
L 197.089825 82.199526 
L 197.554947 76.126668 
L 198.020068 95.505453 
L 198.485189 100.906778 
L 198.95031 90.358169 
L 199.415431 73.35966 
L 199.880552 101.212202 
L 200.345673 89.571386 
L 200.810794 100.436505 
L 201.275916 116.356227 
L 201.741037 100.333563 
L 202.206158 94.552212 
L 202.671279 103.980382 
L 203.1364 94.520003 
L 203.601521 79.781681 
L 204.066642 103.189923 
L 204.531763 103.397 
L 204.996885 97.472883 
L 205.462006 99.780217 
L 205.927127 114.269751 
L 206.392248 88.796472 
L 206.857369 99.665704 
L 207.32249 100.544959 
L 207.787611 106.737628 
L 208.252732 82.446582 
L 208.717854 105.602472 
L 209.182975 83.090286 
L 209.648096 115.597533 
L 210.113217 93.213358 
L 211.043459 123.079571 
L 211.50858 105.509827 
L 211.973701 98.487021 
L 212.438823 135.332827 
L 212.903944 90.158986 
L 213.369065 99.27806 
L 213.834186 105.208288 
L 215.229549 87.855582 
L 216.159792 70.127852 
L 216.624913 79.17688 
L 217.090034 81.01276 
L 217.555155 80.051614 
L 218.020276 99.390614 
L 218.485397 92.800166 
L 218.950518 93.31539 
L 219.415639 85.736478 
L 220.345882 112.45431 
L 220.811003 97.858565 
L 221.276124 78.816449 
L 221.741245 107.729317 
L 222.206366 99.770002 
L 222.671487 95.762754 
L 223.136608 89.392759 
L 223.60173 105.951866 
L 224.066851 102.644934 
L 224.531972 106.099227 
L 224.997093 89.790916 
L 225.462214 108.401243 
L 225.927335 87.281688 
L 226.392456 90.919714 
L 226.857577 106.170396 
L 227.322699 66.363243 
L 227.78782 102.941897 
L 228.252941 112.116433 
L 228.718062 98.280609 
L 229.183183 94.603644 
L 229.648304 82.955131 
L 230.113425 97.790367 
L 230.578546 95.343819 
L 231.043668 123.760163 
L 231.508789 90.275006 
L 231.97391 125.631538 
L 232.439031 122.341884 
L 232.904152 94.955322 
L 233.369273 119.499293 
L 233.834394 97.23903 
L 234.299515 122.722387 
L 234.764637 119.79414 
L 235.229758 134.250389 
L 235.694879 108.754616 
L 236.16 100.253414 
L 236.625121 104.725112 
L 237.090242 107.978199 
L 237.555363 122.543068 
L 238.020485 100.817898 
L 238.485606 102.901482 
L 238.950727 85.909438 
L 239.415848 112.957627 
L 239.880969 124.340484 
L 240.34609 109.125527 
L 240.811211 102.789582 
L 241.276332 113.275382 
L 241.741454 83.164947 
L 242.206575 112.313677 
L 242.671696 73.821038 
L 243.136817 113.180986 
L 243.601938 133.117458 
L 244.067059 96.765118 
L 244.53218 133.373889 
L 244.997301 115.366798 
L 245.462423 82.449715 
L 245.927544 106.100702 
L 246.392665 95.384901 
L 246.857786 94.623172 
L 247.322907 91.195852 
L 247.788028 85.655191 
L 248.253149 78.775623 
L 248.71827 100.801486 
L 249.183392 85.859614 
L 249.648513 100.76861 
L 250.113634 90.268478 
L 250.578755 84.417365 
L 251.043876 99.255246 
L 251.508997 105.084785 
L 251.974118 87.455398 
L 252.439239 115.148971 
L 252.904361 101.620275 
L 253.369482 82.848432 
L 253.834603 93.886929 
L 254.299724 99.015063 
L 254.764845 108.422733 
L 255.229966 90.892702 
L 255.695087 85.679165 
L 256.160208 89.529157 
L 256.62533 100.013727 
L 257.090451 70.710292 
L 257.555572 88.193743 
L 258.020693 93.454571 
L 258.485814 120.450656 
L 258.950935 83.078268 
L 259.416056 102.914937 
L 259.881177 114.781165 
L 260.346299 67.924652 
L 260.81142 72.316814 
L 261.276541 73.001842 
L 261.741662 101.02004 
L 262.671904 85.40653 
L 263.137025 102.822768 
L 263.602146 77.983583 
L 264.067268 102.489933 
L 264.532389 97.885988 
L 264.99751 95.694919 
L 265.462631 114.320043 
L 265.927752 86.083056 
L 266.392873 99.779923 
L 266.857994 75.934794 
L 267.323115 79.01089 
L 268.253358 105.440055 
L 268.718479 118.029512 
L 269.1836 91.677959 
L 269.648721 111.266833 
L 270.113842 111.78038 
L 270.578963 92.656698 
L 271.044084 93.154524 
L 271.509206 101.139483 
L 271.974327 85.878885 
L 272.439448 87.455809 
L 272.904569 106.210588 
L 273.36969 93.853329 
L 273.834811 85.688643 
L 274.299932 91.926445 
L 274.765053 88.140896 
L 275.230175 96.554338 
L 275.695296 100.063859 
L 276.160417 77.48928 
L 276.625538 95.107704 
L 277.090659 87.480453 
L 277.55578 116.174848 
L 278.020901 88.529708 
L 278.486022 100.574265 
L 278.951144 84.847281 
L 279.416265 91.614796 
L 279.881386 93.315802 
L 280.346507 97.132824 
L 280.811628 88.07572 
L 281.276749 107.806193 
L 281.74187 109.660959 
L 282.206991 97.901364 
L 282.672113 92.513177 
L 283.137234 104.650936 
L 283.602355 96.611326 
L 284.067476 78.301633 
L 284.532597 75.841016 
L 284.997718 75.564449 
L 285.462839 94.158211 
L 285.92796 83.277794 
L 286.393082 86.337423 
L 286.858203 95.196666 
L 287.323324 83.695203 
L 287.788445 96.638992 
L 288.253566 71.152645 
L 288.718687 89.973561 
L 289.183808 99.300447 
L 289.648929 89.626345 
L 290.114051 105.645109 
L 290.579172 92.110758 
L 291.044293 108.879872 
L 291.509414 78.477592 
L 291.974535 84.400685 
L 292.439656 72.286045 
L 292.904777 88.052417 
L 293.369898 80.479547 
L 294.300141 86.093275 
L 294.765262 73.742368 
L 295.230383 69.917592 
L 295.695504 88.028586 
L 296.160625 83.869603 
L 296.625746 62.461551 
L 297.090867 82.013746 
L 297.555989 87.909074 
L 298.02111 90.048879 
L 298.486231 78.742913 
L 298.951352 80.795423 
L 299.416473 113.872475 
L 300.346715 71.332287 
L 300.811836 79.736074 
L 301.276958 107.422659 
L 301.742079 106.510285 
L 302.2072 117.975785 
L 302.672321 83.480348 
L 303.137442 85.480168 
L 303.602563 84.686856 
L 304.067684 98.212475 
L 304.532805 81.915194 
L 304.997927 88.194059 
L 305.463048 87.931074 
L 305.928169 81.760405 
L 306.39329 84.614874 
L 306.858411 96.618516 
L 307.323532 92.169852 
L 308.253774 69.444208 
L 308.718896 94.839087 
L 309.184017 83.218698 
L 310.114259 111.682243 
L 310.57938 88.401891 
L 311.044501 70.697713 
L 311.509622 62.931661 
L 311.974743 88.670025 
L 312.439865 67.446149 
L 312.904986 82.580162 
L 313.370107 102.58448 
L 313.835228 83.088158 
L 314.300349 91.081967 
L 314.76547 81.964029 
L 315.230591 93.583025 
L 315.695712 96.605168 
L 316.160834 101.363977 
L 316.625955 77.950784 
L 317.091076 86.714314 
L 317.556197 92.454896 
L 318.021318 119.113249 
L 318.95156 80.671787 
L 319.416681 110.145229 
L 319.881803 110.252194 
L 320.346924 102.834336 
L 320.812045 76.00777 
L 321.277166 81.263201 
L 321.742287 83.688697 
L 322.207408 89.721468 
L 322.672529 82.108326 
L 323.13765 82.26645 
L 323.602772 82.589387 
L 324.067893 66.988692 
L 324.533014 71.658981 
L 324.998135 66.023909 
L 325.928377 85.171431 
L 326.393498 59.969564 
L 326.858619 82.331372 
L 327.323741 80.574893 
L 327.788862 103.00256 
L 328.253983 74.894893 
L 328.719104 82.703084 
L 329.184225 95.483289 
L 329.649346 113.443992 
L 330.114467 96.544652 
L 330.579588 91.920094 
L 331.04471 101.8928 
L 331.509831 68.894192 
L 331.974952 99.648375 
L 332.440073 102.260609 
L 332.905194 83.898178 
L 333.370315 94.454954 
L 333.835436 70.795791 
L 334.300557 88.427991 
L 334.765679 85.07776 
L 335.2308 94.031589 
L 335.695921 95.950845 
L 336.161042 85.271 
L 336.626163 110.463556 
L 337.091284 85.777478 
L 337.556405 80.140665 
L 338.021526 90.690768 
L 338.951769 74.292739 
L 339.41689 106.514001 
L 339.882011 61.178552 
L 340.347132 72.312147 
L 340.812253 71.123033 
L 341.277374 54.355657 
L 341.742495 84.337207 
L 342.207617 62.275628 
L 342.672738 53.568 
L 343.137859 66.464346 
L 343.60298 83.887358 
L 344.068101 72.665429 
L 344.533222 93.125287 
L 344.998343 97.267811 
L 345.463464 97.42817 
L 346.393707 66.486457 
L 346.858828 87.512508 
L 347.323949 56.732778 
L 347.78907 64.247232 
L 348.254191 64.80874 
L 348.719312 87.561154 
L 349.184433 67.898689 
L 349.649555 59.736691 
L 350.114676 71.226481 
L 350.579797 71.409551 
L 351.044918 81.976982 
L 351.510039 59.489626 
L 351.97516 81.732659 
L 352.440281 70.141259 
L 352.905402 78.760168 
L 353.370524 82.733202 
L 353.835645 80.857354 
L 354.300766 85.153483 
L 354.765887 69.584767 
L 355.231008 69.237805 
L 355.696129 77.311661 
L 356.16125 75.304551 
L 356.626371 70.360752 
L 357.091493 69.969404 
L 357.556614 65.632116 
L 358.021735 75.746494 
L 359.417098 95.944018 
L 359.882219 76.30595 
L 360.34734 71.803188 
L 360.812462 96.64569 
L 361.277583 114.896156 
L 361.742704 109.453615 
L 362.207825 77.69561 
L 362.672946 76.064965 
L 363.138067 104.104962 
L 363.603188 101.199046 
L 364.068309 94.246949 
L 364.533431 99.2748 
L 364.998552 85.281036 
L 365.463673 99.14434 
L 365.928794 105.96903 
L 366.393915 83.124578 
L 366.859036 81.2495 
L 367.324157 89.438721 
L 367.789278 83.66686 
L 368.719521 77.734173 
L 369.184642 85.806692 
L 369.649763 109.148578 
L 370.114884 99.50039 
L 370.580005 92.776473 
L 371.045126 104.831097 
L 371.510247 102.134727 
L 371.975369 92.427762 
L 372.44049 100.584406 
L 372.905611 92.403862 
L 373.370732 92.686375 
L 373.835853 80.924024 
L 374.300974 75.854651 
L 374.766095 83.061588 
L 375.231216 98.978808 
L 375.696338 76.311861 
L 376.161459 71.025403 
L 376.62658 82.88848 
L 377.091701 110.334573 
L 377.556822 86.376474 
L 378.021943 94.374882 
L 378.487064 79.034067 
L 378.952185 110.406549 
L 379.417307 75.326234 
L 379.882428 106.467341 
L 380.347549 112.454225 
L 380.81267 95.422662 
L 381.277791 109.887688 
L 381.742912 98.42186 
L 382.208033 103.184826 
L 382.673154 101.004998 
L 383.603397 67.254401 
L 384.068518 95.578435 
L 384.533639 84.571496 
L 384.99876 106.636608 
L 385.929002 76.535014 
L 386.394123 78.269606 
L 386.859245 84.189138 
L 387.324366 104.300146 
L 387.789487 83.061568 
L 388.254608 88.875984 
L 388.719729 110.676307 
L 389.18485 107.876076 
L 389.649971 85.235906 
L 390.115092 90.89204 
L 390.580214 88.204679 
L 391.045335 96.343712 
L 391.510456 79.056869 
L 391.975577 86.7052 
L 392.440698 80.889384 
L 392.905819 89.509596 
L 393.37094 74.767413 
L 393.836061 73.749218 
L 394.301183 101.045599 
L 394.766304 102.844725 
L 395.231425 124.610551 
L 395.696546 88.098939 
L 396.161667 88.795705 
L 396.626788 82.425595 
L 397.091909 102.031125 
L 398.022152 87.319158 
L 398.487273 106.055414 
L 398.487273 106.055414 
" clip-path="url(#p998941c156)" style="fill: none; stroke-dasharray: 9.6,2.4,1.5,2.4; stroke-dashoffset: 0; stroke: #008000; stroke-width: 1.5"/>
   </g>
   <g id="line2d_36">
    <path d="M 73.832727 71.607433 
L 74.297848 68.978878 
L 74.76297 67.266336 
L 75.228091 67.39909 
L 75.693212 71.448124 
L 76.158333 69.363869 
L 76.623454 67.87037 
L 77.088575 68.34165 
L 77.553696 69.051898 
L 78.018817 71.116236 
L 78.483939 67.797358 
L 78.94906 68.660268 
L 79.414181 69.961272 
L 79.879302 68.972239 
L 80.344423 71.116236 
L 80.809544 69.164735 
L 81.274665 68.089421 
L 81.739786 70.37281 
L 82.204908 69.005434 
L 82.670029 70.286521 
L 83.13515 69.782046 
L 83.600271 69.695757 
L 84.065392 71.016669 
L 84.530513 68.978878 
L 84.995634 69.967903 
L 85.460755 70.439191 
L 85.925877 69.788685 
L 86.390998 72.623013 
L 86.856119 67.890286 
L 87.32124 68.162432 
L 87.786361 69.549726 
L 88.251482 69.410333 
L 88.716603 72.629652 
L 89.181724 69.456797 
L 89.646846 73.213769 
L 90.111967 69.224477 
L 90.577088 66.7685 
L 91.042209 68.607165 
L 91.50733 71.414938 
L 91.972451 68.049595 
L 92.437572 71.1627 
L 92.902693 69.563003 
L 93.367815 73.406265 
L 93.832936 69.337321 
L 94.298057 68.388122 
L 94.763178 70.757801 
L 95.228299 70.445822 
L 95.69342 69.171374 
L 96.158541 71.010038 
L 96.623662 68.600526 
L 97.088784 70.751162 
L 97.553905 69.961272 
L 98.019026 68.188988 
L 98.484147 68.02304 
L 98.949268 70.299791 
L 99.414389 68.447856 
L 99.87951 69.689118 
L 100.344631 67.943389 
L 100.809753 68.02304 
L 101.274874 70.120573 
L 101.739995 69.941355 
L 102.205116 68.461134 
L 102.670237 68.228813 
L 103.135358 70.273243 
L 103.600479 68.182349 
L 104.0656 68.162432 
L 104.530722 69.994458 
L 104.995843 68.029679 
L 105.460964 69.051898 
L 105.926085 71.116236 
L 106.391206 70.485655 
L 106.856327 72.72258 
L 107.321448 71.275545 
L 107.786569 70.737884 
L 108.251691 68.892589 
L 108.716812 70.319707 
L 109.181933 68.832847 
L 109.647054 75.078981 
L 110.112175 70.29316 
L 110.577296 70.346255 
L 111.042417 69.908169 
L 111.507538 68.500959 
L 111.97266 68.653629 
L 112.902902 69.689118 
L 113.368023 71.222442 
L 113.833144 68.09606 
L 114.298265 69.921439 
L 114.763386 69.529817 
L 115.228507 71.580886 
L 115.693629 71.308732 
L 116.15875 69.456797 
L 116.623871 69.934716 
L 117.088992 69.74886 
L 117.554113 70.306429 
L 118.019234 69.19129 
L 118.484355 69.888252 
L 118.949476 69.456797 
L 119.414598 70.153759 
L 119.879719 66.728675 
L 120.34484 69.098362 
L 120.809961 68.295186 
L 121.275082 71.096328 
L 121.740203 69.317405 
L 122.205324 69.304127 
L 122.670445 71.229081 
L 123.135567 69.324044 
L 123.600688 70.233418 
L 124.065809 67.8571 
L 124.53093 71.481318 
L 124.996051 71.136153 
L 125.461172 71.992424 
L 125.926293 68.069504 
L 126.391414 69.894891 
L 126.856536 69.370508 
L 127.321657 72.41724 
L 127.786778 68.73328 
L 128.251899 68.660268 
L 128.71702 69.065168 
L 129.182141 68.029679 
L 129.647262 71.149431 
L 130.112383 68.235452 
L 130.577505 68.925775 
L 131.042626 69.324044 
L 131.507747 71.049863 
L 131.972868 68.706732 
L 132.437989 69.582912 
L 132.90311 69.5099 
L 133.368231 70.864007 
L 133.833352 69.523178 
L 134.298474 69.19129 
L 134.763595 69.775407 
L 135.228716 68.235452 
L 135.693837 69.715673 
L 136.158958 69.231115 
L 136.624079 70.512203 
L 137.0892 70.744523 
L 137.554321 67.604863 
L 138.019443 70.69142 
L 138.484564 68.859402 
L 138.949685 68.879311 
L 139.414806 69.383786 
L 139.879927 69.616106 
L 140.345048 68.242091 
L 140.810169 68.348289 
L 141.27529 68.925775 
L 141.740412 69.197929 
L 142.205533 68.660268 
L 142.670654 67.140221 
L 143.135775 67.113666 
L 143.600896 68.620443 
L 144.066017 68.952331 
L 144.531138 69.03862 
L 144.996259 71.248998 
L 145.461381 71.726909 
L 145.926502 69.118271 
L 146.391623 68.779744 
L 146.856744 69.350591 
L 147.321865 68.786383 
L 147.786986 67.438915 
L 148.252107 69.682479 
L 148.717228 69.197929 
L 149.647471 71.375112 
L 150.112592 68.899228 
L 150.577713 68.202258 
L 151.042834 71.182617 
L 151.507955 69.914808 
L 151.973076 69.436889 
L 152.438197 68.759835 
L 152.903319 69.855066 
L 153.36844 70.040922 
L 153.833561 69.290857 
L 154.298682 69.921439 
L 154.763803 72.815509 
L 155.228924 68.998795 
L 156.159166 69.987819 
L 156.624288 72.450426 
L 158.019651 67.46547 
L 158.484772 67.39909 
L 158.949893 67.717708 
L 159.415014 69.058529 
L 159.880135 69.5099 
L 160.345257 71.202526 
L 160.810378 70.518841 
L 161.275499 70.937019 
L 161.74062 68.58061 
L 162.205741 68.467773 
L 162.670862 67.558399 
L 163.135983 67.16013 
L 163.601104 69.987819 
L 164.066226 69.197929 
L 164.531347 70.160398 
L 164.996468 70.558667 
L 165.461589 70.240057 
L 165.92671 68.872672 
L 166.391831 70.877277 
L 166.856952 71.866309 
L 167.322073 67.3128 
L 167.787195 70.306429 
L 168.252316 68.520876 
L 168.717437 70.817543 
L 169.182558 68.202258 
L 169.647679 71.886218 
L 170.1128 69.815241 
L 171.043042 69.390417 
L 171.508164 70.06747 
L 171.973285 69.058529 
L 172.438406 67.173408 
L 172.903527 69.974542 
L 173.368648 67.16013 
L 173.833769 68.819569 
L 174.29889 68.759835 
L 174.764011 67.438921 
L 175.229133 68.826208 
L 175.694254 71.713639 
L 176.159375 71.029947 
L 176.624496 71.760103 
L 177.089617 70.618409 
L 177.554738 68.069504 
L 178.019859 72.988087 
L 178.48498 66.7685 
L 178.950102 70.339624 
L 179.415223 69.217838 
L 179.880344 70.392719 
L 180.345465 68.507598 
L 180.810586 70.339624 
L 181.275707 69.808602 
L 182.205949 68.235452 
L 182.671071 71.514505 
L 183.136192 67.823906 
L 183.601313 68.985517 
L 184.066434 68.799661 
L 184.531555 70.326346 
L 184.996676 72.549994 
L 185.461797 68.56734 
L 185.926918 68.09606 
L 186.39204 68.500959 
L 186.857161 69.197929 
L 187.322282 69.164735 
L 187.787403 67.180047 
L 188.252524 68.56734 
L 188.717645 71.189256 
L 189.182766 68.607165 
L 189.647887 69.934716 
L 190.113009 69.304127 
L 190.57813 71.368474 
L 191.043251 70.950296 
L 191.508372 68.527515 
L 191.973493 69.496623 
L 192.438614 66.954365 
L 192.903735 67.060563 
L 193.368856 69.715673 
L 193.833978 69.330683 
L 194.299099 72.875242 
L 194.76422 70.84409 
L 195.229341 67.930112 
L 195.694462 70.22014 
L 196.159583 68.95897 
L 196.624704 69.343952 
L 197.089825 70.658234 
L 197.554947 69.788685 
L 198.020068 69.655932 
L 198.485189 67.405729 
L 198.95031 67.219872 
L 199.415431 68.49432 
L 199.880552 70.903832 
L 200.345673 68.587249 
L 200.810794 69.231115 
L 201.741037 67.133583 
L 202.206158 69.529817 
L 202.671279 69.874974 
L 203.1364 68.939053 
L 203.601521 68.746558 
L 204.066642 69.184651 
L 204.531763 70.897193 
L 204.996885 70.644956 
L 205.462006 69.563003 
L 205.927127 69.894891 
L 206.392248 69.071806 
L 206.857369 73.12748 
L 207.32249 67.060563 
L 207.787611 69.655932 
L 208.252732 71.421577 
L 208.717854 68.408031 
L 209.182975 70.425913 
L 209.648096 73.140757 
L 210.113217 69.456797 
L 210.578338 70.498925 
L 211.043459 72.457065 
L 211.50858 68.069504 
L 211.973701 68.680177 
L 212.438823 70.52548 
L 212.903944 67.830545 
L 213.369065 67.691152 
L 213.834186 68.72001 
L 214.299307 68.613804 
L 214.764428 69.19129 
L 215.229549 67.963298 
L 215.69467 68.089421 
L 216.159792 68.766474 
L 216.624913 69.669209 
L 217.090034 67.903564 
L 218.020276 71.182617 
L 218.485397 71.461402 
L 218.950518 69.5099 
L 219.415639 70.631678 
L 219.880761 68.9656 
L 220.345882 72.430518 
L 220.811003 71.282184 
L 221.276124 72.563271 
L 221.741245 69.715673 
L 222.206366 71.919404 
L 222.671487 69.171374 
L 223.136608 69.304127 
L 223.60173 68.547423 
L 224.531972 68.932414 
L 224.997093 69.709035 
L 225.462214 68.945692 
L 225.927335 70.233418 
L 226.392456 68.182349 
L 226.857577 67.644688 
L 227.322699 67.883648 
L 227.78782 68.9656 
L 228.252941 69.74886 
L 228.718062 71.049863 
L 229.183183 68.195627 
L 229.648304 66.861437 
L 231.043668 72.775683 
L 231.508789 67.956667 
L 231.97391 75.072342 
L 232.439031 70.419274 
L 232.904152 68.534146 
L 233.369273 69.436889 
L 233.834394 71.40166 
L 234.299515 72.324312 
L 234.764637 68.945692 
L 235.229758 71.580886 
L 235.694879 69.224477 
L 236.16 70.585214 
L 237.090242 69.390417 
L 237.555363 69.655932 
L 238.020485 68.182349 
L 238.485606 69.085084 
L 238.950727 73.147396 
L 239.415848 75.211735 
L 239.880969 70.857368 
L 240.34609 70.664873 
L 240.811211 69.762138 
L 241.276332 67.664605 
L 242.206575 71.395021 
L 242.671696 67.126944 
L 243.136817 70.034283 
L 243.601938 68.135885 
L 244.067059 70.485655 
L 244.53218 70.485655 
L 244.997301 69.324044 
L 245.462423 69.496623 
L 245.927544 69.921439 
L 246.392665 69.470075 
L 246.857786 70.432552 
L 247.322907 69.251024 
L 247.788028 69.921439 
L 248.253149 67.565038 
L 248.71827 71.607433 
L 249.183392 70.578583 
L 249.648513 69.270941 
L 250.113634 68.421309 
L 250.578755 68.919136 
L 251.043876 70.29316 
L 251.508997 69.616106 
L 251.974118 67.38582 
L 252.439239 68.739919 
L 252.904361 69.304127 
L 253.369482 67.764172 
L 253.834603 68.64699 
L 254.299724 69.994458 
L 254.764845 70.379449 
L 255.229966 69.018703 
L 255.695087 69.184651 
L 256.160208 70.160398 
L 256.62533 69.058529 
L 257.090451 69.589551 
L 257.555572 72.364137 
L 258.020693 68.793022 
L 258.485814 70.744523 
L 258.950935 67.047293 
L 259.416056 67.525212 
L 259.881177 69.921439 
L 260.346299 68.016401 
L 260.81142 70.452461 
L 261.741662 67.843822 
L 262.206783 70.074109 
L 262.671904 69.649293 
L 263.137025 67.711069 
L 263.602146 71.760103 
L 264.067268 68.739919 
L 264.532389 69.270941 
L 264.99751 68.48105 
L 265.927752 70.452461 
L 266.392873 69.967903 
L 266.857994 67.677874 
L 267.323115 67.664605 
L 267.788237 70.664873 
L 268.253358 70.910471 
L 268.718479 69.124909 
L 269.1836 69.463436 
L 269.648721 68.500959 
L 270.113842 70.240057 
L 270.578963 71.501227 
L 271.974327 68.361567 
L 272.439448 71.315371 
L 272.904569 69.383786 
L 273.36969 72.549994 
L 273.834811 69.27758 
L 274.299932 70.585214 
L 274.765053 71.514505 
L 275.230175 69.602829 
L 275.695296 71.64062 
L 276.160417 69.158096 
L 276.625538 74.786919 
L 277.090659 69.529817 
L 277.55578 67.930112 
L 278.020901 67.916834 
L 278.486022 69.184651 
L 278.951144 67.797358 
L 279.416265 69.655932 
L 279.881386 67.744255 
L 280.346507 67.126944 
L 280.811628 68.793022 
L 281.276749 71.434854 
L 281.74187 68.421309 
L 282.206991 69.197929 
L 282.672113 67.664605 
L 283.137234 70.452461 
L 283.602355 68.169071 
L 284.067476 69.03862 
L 284.997718 67.684513 
L 285.462839 68.109329 
L 286.393082 71.647258 
L 286.858203 69.098362 
L 287.323324 69.788685 
L 288.253566 69.629376 
L 288.718687 68.95897 
L 289.183808 70.61177 
L 289.648929 67.724339 
L 290.114051 68.972239 
L 290.579172 71.892857 
L 291.044293 68.408031 
L 291.974535 69.058529 
L 292.904777 66.635747 
L 293.369898 70.047561 
L 293.83502 69.058529 
L 294.300141 69.636015 
L 294.765262 69.224477 
L 295.230383 71.952599 
L 296.160625 69.722312 
L 296.625746 67.883648 
L 297.090867 68.812938 
L 297.555989 71.202526 
L 298.02111 69.888252 
L 298.486231 66.303859 
L 298.951352 69.184651 
L 299.416473 69.742221 
L 299.881594 67.817267 
L 300.346715 68.653629 
L 300.811836 67.916834 
L 301.276958 68.129246 
L 301.742079 68.620443 
L 302.2072 70.53875 
L 302.672321 70.797626 
L 303.137442 70.120573 
L 303.602563 68.686816 
L 304.067684 67.830545 
L 304.997927 69.742221 
L 305.463048 68.149163 
L 305.928169 71.262268 
L 306.39329 69.941355 
L 306.858411 69.078445 
L 307.323532 69.211199 
L 307.788653 68.368206 
L 308.253774 68.162432 
L 308.718896 69.171374 
L 309.184017 67.239789 
L 309.649138 68.520876 
L 310.114259 69.284218 
L 310.57938 68.32838 
L 311.044501 68.507598 
L 311.509622 67.950028 
L 312.439865 68.700093 
L 312.904986 70.113934 
L 313.370107 69.629376 
L 313.835228 67.584946 
L 314.300349 68.666907 
L 314.76547 68.082782 
L 315.230591 69.158096 
L 315.695712 68.401392 
L 316.160834 70.498925 
L 316.625955 69.065168 
L 317.091076 67.23315 
L 317.556197 68.016401 
L 318.021318 69.058529 
L 318.486439 69.35723 
L 318.95156 68.135885 
L 319.416681 67.339356 
L 320.346924 71.375112 
L 320.812045 67.372542 
L 321.277166 69.158096 
L 321.742287 68.308464 
L 322.207408 69.350591 
L 323.13765 67.425645 
L 323.602772 71.063133 
L 324.067893 69.456797 
L 324.533014 67.352626 
L 324.998135 69.649293 
L 325.463256 70.094025 
L 325.928377 70.797626 
L 326.393498 69.217838 
L 326.858619 68.64699 
L 327.323741 67.877009 
L 327.788862 68.514237 
L 328.253983 68.859402 
L 328.719104 68.142524 
L 329.184225 68.142524 
L 329.649346 68.560701 
L 330.114467 68.169071 
L 330.579588 68.076143 
L 331.04471 68.912505 
L 331.509831 68.534146 
L 331.974952 68.925775 
L 332.440073 69.874974 
L 332.905194 68.069504 
L 333.370315 68.162432 
L 333.835436 69.496623 
L 334.300557 68.315103 
L 334.765679 69.742221 
L 335.2308 67.166769 
L 335.695921 70.731246 
L 336.161042 69.629376 
L 336.626163 71.448124 
L 337.091284 69.178012 
L 337.556405 67.697791 
L 338.021526 67.286253 
L 338.486648 69.197929 
L 338.951769 68.295186 
L 339.41689 68.461134 
L 339.882011 67.730977 
L 340.347132 70.797626 
L 340.812253 68.354928 
L 341.277374 67.319439 
L 341.742495 68.388122 
L 342.207617 67.339356 
L 342.672738 67.08048 
L 343.137859 69.423611 
L 343.60298 68.401392 
L 344.068101 68.361567 
L 344.533222 68.593887 
L 344.998343 69.476714 
L 345.463464 70.618409 
L 345.928586 68.939053 
L 346.393707 68.348289 
L 346.858828 69.43025 
L 347.323949 68.554062 
L 347.78907 68.726641 
L 348.254191 67.843822 
L 348.719312 68.500959 
L 349.184433 68.806299 
L 349.649555 67.843822 
L 350.114676 67.239789 
L 350.579797 68.427947 
L 351.044918 68.95897 
L 351.510039 67.107027 
L 351.97516 67.996492 
L 352.440281 68.421309 
L 352.905402 68.49432 
L 353.370524 69.257663 
L 353.835645 70.717976 
L 354.300766 69.855066 
L 354.765887 69.5099 
L 355.231008 68.09606 
L 355.696129 68.321741 
L 356.16125 69.702396 
L 356.626371 67.186686 
L 357.091493 67.578307 
L 357.556614 69.257663 
L 358.021735 69.138187 
L 358.486856 69.868336 
L 358.951977 70.29316 
L 359.417098 67.638049 
L 359.882219 70.240057 
L 360.34734 68.295186 
L 360.812462 69.841788 
L 361.277583 71.87294 
L 362.207825 68.461134 
L 362.672946 69.543087 
L 363.138067 70.127212 
L 363.603188 70.120573 
L 364.068309 69.735582 
L 364.533431 67.286253 
L 364.998552 70.087386 
L 365.463673 68.275277 
L 365.928794 70.558667 
L 366.393915 71.614072 
L 366.859036 70.200231 
L 367.324157 70.479016 
L 367.789278 69.702396 
L 368.2544 68.434586 
L 369.649763 69.742221 
L 370.114884 70.319707 
L 370.580005 69.337321 
L 371.045126 71.587517 
L 371.510247 67.996492 
L 371.975369 70.591853 
L 372.44049 70.678143 
L 372.905611 70.253326 
L 373.370732 68.149163 
L 373.835853 68.109329 
L 374.300974 66.868068 
L 375.231216 72.742489 
L 376.161459 68.660268 
L 376.62658 69.795324 
L 377.091701 72.782314 
L 377.556822 68.335019 
L 378.021943 67.943389 
L 378.487064 71.335287 
L 378.952185 68.228813 
L 379.417307 67.432284 
L 379.882428 67.618141 
L 380.347549 68.434586 
L 380.81267 71.335287 
L 381.277791 69.131548 
L 381.742912 69.868336 
L 382.208033 67.837183 
L 383.138276 70.698059 
L 383.603397 68.56734 
L 384.068518 70.213501 
L 384.533639 67.797358 
L 384.99876 70.286521 
L 385.463881 68.042957 
L 385.929002 69.091723 
L 386.394123 68.009762 
L 386.859245 69.045259 
L 387.324366 70.651595 
L 387.789487 69.124909 
L 388.254608 68.34165 
L 388.719729 73.014635 
L 389.18485 68.978878 
L 389.649971 68.779744 
L 390.115092 69.835149 
L 390.580214 67.618141 
L 391.045335 70.133851 
L 391.510456 70.684781 
L 391.975577 70.37281 
L 392.440698 70.605131 
L 392.905819 67.432284 
L 393.37094 70.578583 
L 393.836061 70.087386 
L 394.766304 68.527515 
L 395.231425 72.530085 
L 395.696546 67.830545 
L 396.161667 68.321741 
L 396.626788 69.529817 
L 397.091909 68.308464 
L 397.55703 69.947994 
L 398.022152 70.956935 
L 398.487273 68.374844 
L 398.487273 68.374844 
" clip-path="url(#p998941c156)" style="fill: none; stroke: #ff0000; stroke-width: 1.5; stroke-linecap: square"/>
   </g>
   <g id="patch_3">
    <path d="M 57.6 307.584 
L 57.6 41.472 
" style="fill: none; stroke: #000000; stroke-width: 0.8; stroke-linejoin: miter; stroke-linecap: square"/>
   </g>
   <g id="patch_4">
    <path d="M 414.72 307.584 
L 414.72 41.472 
" style="fill: none; stroke: #000000; stroke-width: 0.8; stroke-linejoin: miter; stroke-linecap: square"/>
   </g>
   <g id="patch_5">
    <path d="M 57.6 307.584 
L 414.72 307.584 
" style="fill: none; stroke: #000000; stroke-width: 0.8; stroke-linejoin: miter; stroke-linecap: square"/>
   </g>
   <g id="patch_6">
    <path d="M 57.6 41.472 
L 414.72 41.472 
" style="fill: none; stroke: #000000; stroke-width: 0.8; stroke-linejoin: miter; stroke-linecap: square"/>
   </g>
   <g id="text_19">
    <!-- Population's average and best fitness -->
    <g transform="translate(123.529687 35.472) scale(0.12 -0.12)">
     <defs>
      <path id="DejaVuSans-50" d="M 1259 4147 
L 1259 2394 
L 2053 2394 
Q 2494 2394 2734 2622 
Q 2975 2850 2975 3272 
Q 2975 3691 2734 3919 
Q 2494 4147 2053 4147 
L 1259 4147 
z
M 628 4666 
L 2053 4666 
Q 2838 4666 3239 4311 
Q 3641 3956 3641 3272 
Q 3641 2581 3239 2228 
Q 2838 1875 2053 1875 
L 1259 1875 
L 1259 0 
L 628 0 
L 628 4666 
z
" transform="scale(0.015625)"/>
      <path id="DejaVuSans-70" d="M 1159 525 
L 1159 -1331 
L 581 -1331 
L 581 3500 
L 1159 3500 
L 1159 2969 
Q 1341 3281 1617 3432 
Q 1894 3584 2278 3584 
Q 2916 3584 3314 3078 
Q 3713 2572 3713 1747 
Q 3713 922 3314 415 
Q 2916 -91 2278 -91 
Q 1894 -91 1617 61 
Q 1341 213 1159 525 
z
M 3116 1747 
Q 3116 2381 2855 2742 
Q 2594 3103 2138 3103 
Q 1681 3103 1420 2742 
Q 1159 2381 1159 1747 
Q 1159 1113 1420 752 
Q 1681 391 2138 391 
Q 2594 391 2855 752 
Q 3116 1113 3116 1747 
z
" transform="scale(0.015625)"/>
      <path id="DejaVuSans-75" d="M 544 1381 
L 544 3500 
L 1119 3500 
L 1119 1403 
Q 1119 906 1312 657 
Q 1506 409 1894 409 
Q 2359 409 2629 706 
Q 2900 1003 2900 1516 
L 2900 3500 
L 3475 3500 
L 3475 0 
L 2900 0 
L 2900 538 
Q 2691 219 2414 64 
Q 2138 -91 1772 -91 
Q 1169 -91 856 284 
Q 544 659 544 1381 
z
M 1991 3584 
L 1991 3584 
z
" transform="scale(0.015625)"/>
      <path id="DejaVuSans-6c" d="M 603 4863 
L 1178 4863 
L 1178 0 
L 603 0 
L 603 4863 
z
" transform="scale(0.015625)"/>
      <path id="DejaVuSans-27" d="M 1147 4666 
L 1147 2931 
L 616 2931 
L 616 4666 
L 1147 4666 
z
" transform="scale(0.015625)"/>
      <path id="DejaVuSans-20" transform="scale(0.015625)"/>
      <path id="DejaVuSans-76" d="M 191 3500 
L 800 3500 
L 1894 563 
L 2988 3500 
L 3597 3500 
L 2284 0 
L 1503 0 
L 191 3500 
z
" transform="scale(0.015625)"/>
      <path id="DejaVuSans-67" d="M 2906 1791 
Q 2906 2416 2648 2759 
Q 2391 3103 1925 3103 
Q 1463 3103 1205 2759 
Q 947 2416 947 1791 
Q 947 1169 1205 825 
Q 1463 481 1925 481 
Q 2391 481 2648 825 
Q 2906 1169 2906 1791 
z
M 3481 434 
Q 3481 -459 3084 -895 
Q 2688 -1331 1869 -1331 
Q 1566 -1331 1297 -1286 
Q 1028 -1241 775 -1147 
L 775 -588 
Q 1028 -725 1275 -790 
Q 1522 -856 1778 -856 
Q 2344 -856 2625 -561 
Q 2906 -266 2906 331 
L 2906 616 
Q 2728 306 2450 153 
Q 2172 0 1784 0 
Q 1141 0 747 490 
Q 353 981 353 1791 
Q 353 2603 747 3093 
Q 1141 3584 1784 3584 
Q 2172 3584 2450 3431 
Q 2728 3278 2906 2969 
L 2906 3500 
L 3481 3500 
L 3481 434 
z
" transform="scale(0.015625)"/>
      <path id="DejaVuSans-64" d="M 2906 2969 
L 2906 4863 
L 3481 4863 
L 3481 0 
L 2906 0 
L 2906 525 
Q 2725 213 2448 61 
Q 2172 -91 1784 -91 
Q 1150 -91 751 415 
Q 353 922 353 1747 
Q 353 2572 751 3078 
Q 1150 3584 1784 3584 
Q 2172 3584 2448 3432 
Q 2725 3281 2906 2969 
z
M 947 1747 
Q 947 1113 1208 752 
Q 1469 391 1925 391 
Q 2381 391 2643 752 
Q 2906 1113 2906 1747 
Q 2906 2381 2643 2742 
Q 2381 3103 1925 3103 
Q 1469 3103 1208 2742 
Q 947 2381 947 1747 
z
" transform="scale(0.015625)"/>
      <path id="DejaVuSans-62" d="M 3116 1747 
Q 3116 2381 2855 2742 
Q 2594 3103 2138 3103 
Q 1681 3103 1420 2742 
Q 1159 2381 1159 1747 
Q 1159 1113 1420 752 
Q 1681 391 2138 391 
Q 2594 391 2855 752 
Q 3116 1113 3116 1747 
z
M 1159 2969 
Q 1341 3281 1617 3432 
Q 1894 3584 2278 3584 
Q 2916 3584 3314 3078 
Q 3713 2572 3713 1747 
Q 3713 922 3314 415 
Q 2916 -91 2278 -91 
Q 1894 -91 1617 61 
Q 1341 213 1159 525 
L 1159 0 
L 581 0 
L 581 4863 
L 1159 4863 
L 1159 2969 
z
" transform="scale(0.015625)"/>
      <path id="DejaVuSans-66" d="M 2375 4863 
L 2375 4384 
L 1825 4384 
Q 1516 4384 1395 4259 
Q 1275 4134 1275 3809 
L 1275 3500 
L 2222 3500 
L 2222 3053 
L 1275 3053 
L 1275 0 
L 697 0 
L 697 3053 
L 147 3053 
L 147 3500 
L 697 3500 
L 697 3744 
Q 697 4328 969 4595 
Q 1241 4863 1831 4863 
L 2375 4863 
z
" transform="scale(0.015625)"/>
     </defs>
     <use xlink:href="#DejaVuSans-50"/>
     <use xlink:href="#DejaVuSans-6f" x="56.677734"/>
     <use xlink:href="#DejaVuSans-70" x="117.859375"/>
     <use xlink:href="#DejaVuSans-75" x="181.335938"/>
     <use xlink:href="#DejaVuSans-6c" x="244.714844"/>
     <use xlink:href="#DejaVuSans-61" x="272.498047"/>
     <use xlink:href="#DejaVuSans-74" x="333.777344"/>
     <use xlink:href="#DejaVuSans-69" x="372.986328"/>
     <use xlink:href="#DejaVuSans-6f" x="400.769531"/>
     <use xlink:href="#DejaVuSans-6e" x="461.951172"/>
     <use xlink:href="#DejaVuSans-27" x="525.330078"/>
     <use xlink:href="#DejaVuSans-73" x="552.820312"/>
     <use xlink:href="#DejaVuSans-20" x="604.919922"/>
     <use xlink:href="#DejaVuSans-61" x="636.707031"/>
     <use xlink:href="#DejaVuSans-76" x="697.986328"/>
     <use xlink:href="#DejaVuSans-65" x="757.166016"/>
     <use xlink:href="#DejaVuSans-72" x="818.689453"/>
     <use xlink:href="#DejaVuSans-61" x="859.802734"/>
     <use xlink:href="#DejaVuSans-67" x="921.082031"/>
     <use xlink:href="#DejaVuSans-65" x="984.558594"/>
     <use xlink:href="#DejaVuSans-20" x="1046.082031"/>
     <use xlink:href="#DejaVuSans-61" x="1077.869141"/>
     <use xlink:href="#DejaVuSans-6e" x="1139.148438"/>
     <use xlink:href="#DejaVuSans-64" x="1202.527344"/>
     <use xlink:href="#DejaVuSans-20" x="1266.003906"/>
     <use xlink:href="#DejaVuSans-62" x="1297.791016"/>
     <use xlink:href="#DejaVuSans-65" x="1361.267578"/>
     <use xlink:href="#DejaVuSans-73" x="1422.791016"/>
     <use xlink:href="#DejaVuSans-74" x="1474.890625"/>
     <use xlink:href="#DejaVuSans-20" x="1514.099609"/>
     <use xlink:href="#DejaVuSans-66" x="1545.886719"/>
     <use xlink:href="#DejaVuSans-69" x="1581.091797"/>
     <use xlink:href="#DejaVuSans-74" x="1608.875"/>
     <use xlink:href="#DejaVuSans-6e" x="1648.083984"/>
     <use xlink:href="#DejaVuSans-65" x="1711.462891"/>
     <use xlink:href="#DejaVuSans-73" x="1772.986328"/>
     <use xlink:href="#DejaVuSans-73" x="1825.085938"/>
    </g>
   </g>
   <g id="legend_1">
    <g id="patch_7">
     <path d="M 334.779375 302.584 
L 407.72 302.584 
Q 409.72 302.584 409.72 300.584 
L 409.72 242.8715 
Q 409.72 240.8715 407.72 240.8715 
L 334.779375 240.8715 
Q 332.779375 240.8715 332.779375 242.8715 
L 332.779375 300.584 
Q 332.779375 302.584 334.779375 302.584 
z
" style="fill: #ffffff; opacity: 0.8; stroke: #cccccc; stroke-linejoin: miter"/>
    </g>
    <g id="line2d_37">
     <path d="M 336.779375 248.969937 
L 346.779375 248.969937 
L 356.779375 248.969937 
" style="fill: none; stroke: #0000ff; stroke-width: 1.5; stroke-linecap: square"/>
    </g>
    <g id="text_20">
     <!-- average -->
     <g transform="translate(364.779375 252.469937) scale(0.1 -0.1)">
      <use xlink:href="#DejaVuSans-61"/>
      <use xlink:href="#DejaVuSans-76" x="61.279297"/>
      <use xlink:href="#DejaVuSans-65" x="120.458984"/>
      <use xlink:href="#DejaVuSans-72" x="181.982422"/>
      <use xlink:href="#DejaVuSans-61" x="223.095703"/>
      <use xlink:href="#DejaVuSans-67" x="284.375"/>
      <use xlink:href="#DejaVuSans-65" x="347.851562"/>
     </g>
    </g>
    <g id="line2d_38">
     <path d="M 336.779375 263.648062 
L 346.779375 263.648062 
L 356.779375 263.648062 
" style="fill: none; stroke-dasharray: 9.6,2.4,1.5,2.4; stroke-dashoffset: 0; stroke: #008000; stroke-width: 1.5"/>
    </g>
    <g id="text_21">
     <!-- -1 sd -->
     <g transform="translate(364.779375 267.148062) scale(0.1 -0.1)">
      <defs>
       <path id="DejaVuSans-2d" d="M 313 2009 
L 1997 2009 
L 1997 1497 
L 313 1497 
L 313 2009 
z
" transform="scale(0.015625)"/>
      </defs>
      <use xlink:href="#DejaVuSans-2d"/>
      <use xlink:href="#DejaVuSans-31" x="36.083984"/>
      <use xlink:href="#DejaVuSans-20" x="99.707031"/>
      <use xlink:href="#DejaVuSans-73" x="131.494141"/>
      <use xlink:href="#DejaVuSans-64" x="183.59375"/>
     </g>
    </g>
    <g id="line2d_39">
     <path d="M 336.779375 278.326187 
L 346.779375 278.326187 
L 356.779375 278.326187 
" style="fill: none; stroke-dasharray: 9.6,2.4,1.5,2.4; stroke-dashoffset: 0; stroke: #008000; stroke-width: 1.5"/>
    </g>
    <g id="text_22">
     <!-- +1 sd -->
     <g transform="translate(364.779375 281.826187) scale(0.1 -0.1)">
      <defs>
       <path id="DejaVuSans-2b" d="M 2944 4013 
L 2944 2272 
L 4684 2272 
L 4684 1741 
L 2944 1741 
L 2944 0 
L 2419 0 
L 2419 1741 
L 678 1741 
L 678 2272 
L 2419 2272 
L 2419 4013 
L 2944 4013 
z
" transform="scale(0.015625)"/>
      </defs>
      <use xlink:href="#DejaVuSans-2b"/>
      <use xlink:href="#DejaVuSans-31" x="83.789062"/>
      <use xlink:href="#DejaVuSans-20" x="147.412109"/>
      <use xlink:href="#DejaVuSans-73" x="179.199219"/>
      <use xlink:href="#DejaVuSans-64" x="231.298828"/>
     </g>
    </g>
    <g id="line2d_40">
     <path d="M 336.779375 293.004312 
L 346.779375 293.004312 
L 356.779375 293.004312 
" style="fill: none; stroke: #ff0000; stroke-width: 1.5; stroke-linecap: square"/>
    </g>
    <g id="text_23">
     <!-- best -->
     <g transform="translate(364.779375 296.504312) scale(0.1 -0.1)">
      <use xlink:href="#DejaVuSans-62"/>
      <use xlink:href="#DejaVuSans-65" x="63.476562"/>
      <use xlink:href="#DejaVuSans-73" x="125"/>
      <use xlink:href="#DejaVuSans-74" x="177.099609"/>
     </g>
    </g>
   </g>
  </g>
 </g>
 <defs>
  <clipPath id="p998941c156">
   <rect x="57.6" y="41.472" width="357.12" height="266.112"/>
  </clipPath>
 </defs>
</svg>
