<?xml version="1.0" encoding="utf-8" standalone="no"?>
<!DOCTYPE svg PUBLIC "-//W3C//DTD SVG 1.1//EN"
  "http://www.w3.org/Graphics/SVG/1.1/DTD/svg11.dtd">
<svg xmlns:xlink="http://www.w3.org/1999/xlink" width="460.8pt" height="345.6pt" viewBox="0 0 460.8 345.6" xmlns="http://www.w3.org/2000/svg" version="1.1">
 <metadata>
  <rdf:RDF xmlns:dc="http://purl.org/dc/elements/1.1/" xmlns:cc="http://creativecommons.org/ns#" xmlns:rdf="http://www.w3.org/1999/02/22-rdf-syntax-ns#">
   <cc:Work>
    <dc:type rdf:resource="http://purl.org/dc/dcmitype/StillImage"/>
    <dc:date>2023-02-20T16:24:42.886682</dc:date>
    <dc:format>image/svg+xml</dc:format>
    <dc:creator>
     <cc:Agent>
      <dc:title>Matplotlib v3.6.3, https://matplotlib.org/</dc:title>
     </cc:Agent>
    </dc:creator>
   </cc:Work>
  </rdf:RDF>
 </metadata>
 <defs>
  <style type="text/css">*{stroke-linejoin: round; stroke-linecap: butt}</style>
 </defs>
 <g id="figure_1">
  <g id="patch_1">
   <path d="M 0 345.6 
L 460.8 345.6 
L 460.8 0 
L 0 0 
z
" style="fill: #ffffff"/>
  </g>
  <g id="axes_1">
   <g id="patch_2">
    <path d="M 57.6 307.584 
L 414.72 307.584 
L 414.72 41.472 
L 57.6 41.472 
z
" style="fill: #ffffff"/>
   </g>
   <g id="PolyCollection_1">
    <path d="M 73.832727 54.144 
L 73.832727 307.584 
L 74.297848 307.584 
L 74.76297 307.584 
L 75.228091 307.584 
L 75.693212 307.584 
L 76.158333 307.584 
L 76.623454 307.584 
L 77.088575 307.584 
L 77.553696 307.584 
L 78.018817 307.584 
L 78.483939 307.584 
L 78.94906 307.584 
L 79.414181 307.584 
L 79.879302 307.584 
L 80.344423 307.584 
L 80.809544 307.584 
L 81.274665 307.584 
L 81.739786 307.584 
L 82.204908 307.584 
L 82.670029 307.584 
L 83.13515 307.584 
L 83.600271 307.584 
L 84.065392 307.584 
L 84.530513 307.584 
L 84.995634 307.584 
L 85.460755 307.584 
L 85.925877 307.584 
L 86.390998 307.584 
L 86.856119 307.584 
L 87.32124 307.584 
L 87.786361 307.584 
L 88.251482 307.584 
L 88.716603 307.584 
L 89.181724 307.584 
L 89.646846 307.584 
L 90.111967 307.584 
L 90.577088 307.584 
L 91.042209 307.584 
L 91.50733 307.584 
L 91.972451 307.584 
L 92.437572 307.584 
L 92.902693 307.584 
L 93.367815 307.584 
L 93.832936 307.584 
L 94.298057 307.584 
L 94.763178 307.584 
L 95.228299 307.584 
L 95.69342 307.584 
L 96.158541 307.584 
L 96.623662 307.584 
L 97.088784 307.584 
L 97.553905 307.584 
L 98.019026 307.584 
L 98.484147 307.584 
L 98.949268 307.584 
L 99.414389 307.584 
L 99.87951 307.584 
L 100.344631 307.584 
L 100.809753 307.584 
L 101.274874 307.584 
L 101.739995 307.584 
L 102.205116 307.584 
L 102.670237 307.584 
L 103.135358 307.584 
L 103.600479 307.584 
L 104.0656 307.584 
L 104.530722 307.584 
L 104.995843 307.584 
L 105.460964 307.584 
L 105.926085 307.584 
L 106.391206 307.584 
L 106.856327 307.584 
L 107.321448 307.584 
L 107.786569 307.584 
L 108.251691 307.584 
L 108.716812 307.584 
L 109.181933 307.584 
L 109.647054 307.584 
L 110.112175 307.584 
L 110.577296 307.584 
L 111.042417 307.584 
L 111.507538 307.584 
L 111.97266 307.584 
L 112.437781 307.584 
L 112.902902 307.584 
L 113.368023 307.584 
L 113.833144 307.584 
L 114.298265 307.584 
L 114.763386 307.584 
L 115.228507 307.584 
L 115.693629 307.584 
L 116.15875 307.584 
L 116.623871 307.584 
L 117.088992 307.584 
L 117.554113 307.584 
L 118.019234 307.584 
L 118.484355 307.584 
L 118.949476 307.584 
L 119.414598 307.584 
L 119.879719 307.584 
L 120.34484 307.584 
L 120.809961 307.584 
L 121.275082 307.584 
L 121.740203 307.584 
L 122.205324 307.584 
L 122.670445 307.584 
L 123.135567 307.584 
L 123.600688 307.584 
L 124.065809 307.584 
L 124.53093 307.584 
L 124.996051 307.584 
L 125.461172 307.584 
L 125.926293 307.584 
L 126.391414 307.584 
L 126.856536 307.584 
L 127.321657 307.584 
L 127.786778 307.584 
L 128.251899 307.584 
L 128.71702 307.584 
L 129.182141 307.584 
L 129.647262 307.584 
L 130.112383 307.584 
L 130.577505 307.584 
L 131.042626 307.584 
L 131.507747 307.584 
L 131.972868 307.584 
L 132.437989 307.584 
L 132.90311 307.584 
L 133.368231 307.584 
L 133.833352 307.584 
L 134.298474 307.584 
L 134.763595 307.584 
L 135.228716 307.584 
L 135.693837 307.584 
L 136.158958 307.584 
L 136.624079 307.584 
L 137.0892 307.584 
L 137.554321 307.584 
L 138.019443 307.584 
L 138.484564 307.584 
L 138.949685 307.584 
L 139.414806 307.584 
L 139.879927 307.584 
L 140.345048 307.584 
L 140.810169 307.584 
L 141.27529 307.584 
L 141.740412 307.584 
L 142.205533 307.584 
L 142.670654 307.584 
L 143.135775 307.584 
L 143.600896 307.584 
L 144.066017 307.584 
L 144.531138 307.584 
L 144.996259 307.584 
L 145.461381 307.584 
L 145.926502 307.584 
L 146.391623 307.584 
L 146.856744 307.584 
L 147.321865 307.584 
L 147.786986 307.584 
L 148.252107 307.584 
L 148.717228 307.584 
L 149.18235 307.584 
L 149.647471 307.584 
L 150.112592 307.584 
L 150.577713 307.584 
L 151.042834 307.584 
L 151.507955 307.584 
L 151.973076 307.584 
L 152.438197 307.584 
L 152.903319 307.584 
L 153.36844 307.584 
L 153.833561 307.584 
L 154.298682 307.584 
L 154.763803 307.584 
L 155.228924 307.584 
L 155.694045 307.584 
L 156.159166 307.584 
L 156.624288 307.584 
L 157.089409 307.584 
L 157.55453 307.584 
L 158.019651 307.584 
L 158.484772 307.584 
L 158.949893 307.584 
L 159.415014 307.584 
L 159.880135 307.584 
L 160.345257 307.584 
L 160.810378 307.584 
L 161.275499 307.584 
L 161.74062 307.584 
L 162.205741 307.584 
L 162.670862 307.584 
L 163.135983 307.584 
L 163.601104 307.584 
L 164.066226 307.584 
L 164.531347 307.584 
L 164.996468 307.584 
L 165.461589 307.584 
L 165.92671 307.584 
L 166.391831 307.584 
L 166.856952 307.584 
L 167.322073 307.584 
L 167.787195 307.584 
L 168.252316 307.584 
L 168.717437 307.584 
L 169.182558 307.584 
L 169.647679 307.584 
L 170.1128 307.584 
L 170.577921 307.584 
L 171.043042 307.584 
L 171.508164 307.584 
L 171.973285 307.584 
L 172.438406 307.584 
L 172.903527 307.584 
L 173.368648 307.584 
L 173.833769 307.584 
L 174.29889 307.584 
L 174.764011 307.584 
L 175.229133 307.584 
L 175.694254 307.584 
L 176.159375 307.584 
L 176.624496 307.584 
L 177.089617 307.584 
L 177.554738 307.584 
L 178.019859 307.584 
L 178.48498 307.584 
L 178.950102 307.584 
L 179.415223 307.584 
L 179.880344 307.584 
L 180.345465 307.584 
L 180.810586 307.584 
L 181.275707 307.584 
L 181.740828 307.584 
L 182.205949 307.584 
L 182.671071 307.584 
L 183.136192 307.584 
L 183.601313 307.584 
L 184.066434 307.584 
L 184.531555 307.584 
L 184.996676 307.584 
L 185.461797 307.584 
L 185.926918 307.584 
L 186.39204 307.584 
L 186.857161 307.584 
L 187.322282 307.584 
L 187.787403 307.584 
L 188.252524 307.584 
L 188.717645 307.584 
L 189.182766 307.584 
L 189.647887 307.584 
L 190.113009 307.584 
L 190.57813 307.584 
L 191.043251 307.584 
L 191.508372 307.584 
L 191.973493 307.584 
L 192.438614 307.584 
L 192.903735 307.584 
L 193.368856 307.584 
L 193.833978 307.584 
L 194.299099 307.584 
L 194.76422 307.584 
L 195.229341 307.584 
L 195.694462 307.584 
L 196.159583 307.584 
L 196.624704 307.584 
L 197.089825 307.584 
L 197.554947 307.584 
L 198.020068 307.584 
L 198.485189 307.584 
L 198.95031 307.584 
L 199.415431 307.584 
L 199.880552 307.584 
L 200.345673 307.584 
L 200.810794 307.584 
L 201.275916 307.584 
L 201.741037 307.584 
L 202.206158 307.584 
L 202.671279 307.584 
L 203.1364 307.584 
L 203.601521 307.584 
L 204.066642 307.584 
L 204.531763 307.584 
L 204.996885 307.584 
L 205.462006 307.584 
L 205.927127 307.584 
L 206.392248 307.584 
L 206.857369 307.584 
L 207.32249 307.584 
L 207.787611 307.584 
L 208.252732 307.584 
L 208.717854 307.584 
L 209.182975 307.584 
L 209.648096 307.584 
L 210.113217 307.584 
L 210.578338 307.584 
L 211.043459 307.584 
L 211.50858 307.584 
L 211.973701 307.584 
L 212.438823 307.584 
L 212.903944 307.584 
L 213.369065 307.584 
L 213.834186 307.584 
L 214.299307 307.584 
L 214.764428 307.584 
L 215.229549 307.584 
L 215.69467 307.584 
L 216.159792 307.584 
L 216.624913 307.584 
L 217.090034 307.584 
L 217.555155 307.584 
L 218.020276 307.584 
L 218.485397 307.584 
L 218.950518 307.584 
L 219.415639 307.584 
L 219.880761 307.584 
L 220.345882 307.584 
L 220.811003 307.584 
L 221.276124 307.584 
L 221.741245 307.584 
L 222.206366 307.584 
L 222.671487 307.584 
L 223.136608 307.584 
L 223.60173 307.584 
L 224.066851 307.584 
L 224.531972 307.584 
L 224.997093 307.584 
L 225.462214 307.584 
L 225.927335 307.584 
L 226.392456 307.584 
L 226.857577 307.584 
L 227.322699 307.584 
L 227.78782 307.584 
L 228.252941 307.584 
L 228.718062 307.584 
L 229.183183 307.584 
L 229.648304 307.584 
L 230.113425 307.584 
L 230.578546 307.584 
L 231.043668 307.584 
L 231.508789 307.584 
L 231.97391 307.584 
L 232.439031 307.584 
L 232.904152 307.584 
L 233.369273 307.584 
L 233.834394 307.584 
L 234.299515 307.584 
L 234.764637 307.584 
L 235.229758 307.584 
L 235.694879 307.584 
L 236.16 307.584 
L 236.625121 307.584 
L 237.090242 307.584 
L 237.555363 307.584 
L 238.020485 307.584 
L 238.485606 307.584 
L 238.950727 307.584 
L 239.415848 307.584 
L 239.880969 307.584 
L 240.34609 307.584 
L 240.811211 307.584 
L 241.276332 307.584 
L 241.741454 307.584 
L 242.206575 307.584 
L 242.671696 307.584 
L 243.136817 307.584 
L 243.601938 307.584 
L 244.067059 307.584 
L 244.53218 307.584 
L 244.997301 307.584 
L 245.462423 307.584 
L 245.927544 307.584 
L 246.392665 307.584 
L 246.857786 307.584 
L 247.322907 307.584 
L 247.788028 307.584 
L 248.253149 307.584 
L 248.71827 307.584 
L 249.183392 307.584 
L 249.648513 307.584 
L 250.113634 307.584 
L 250.578755 307.584 
L 251.043876 307.584 
L 251.508997 307.584 
L 251.974118 307.584 
L 252.439239 307.584 
L 252.904361 307.584 
L 253.369482 307.584 
L 253.834603 307.584 
L 254.299724 307.584 
L 254.764845 307.584 
L 255.229966 307.584 
L 255.695087 307.584 
L 256.160208 307.584 
L 256.62533 307.584 
L 257.090451 307.584 
L 257.555572 307.584 
L 258.020693 307.584 
L 258.485814 307.584 
L 258.950935 307.584 
L 259.416056 307.584 
L 259.881177 307.584 
L 260.346299 307.584 
L 260.81142 307.584 
L 261.276541 307.584 
L 261.741662 307.584 
L 262.206783 307.584 
L 262.671904 307.584 
L 263.137025 307.584 
L 263.602146 307.584 
L 264.067268 307.584 
L 264.532389 307.584 
L 264.99751 307.584 
L 265.462631 307.584 
L 265.927752 307.584 
L 266.392873 307.584 
L 266.857994 307.584 
L 267.323115 307.584 
L 267.788237 307.584 
L 268.253358 307.584 
L 268.718479 307.584 
L 269.1836 307.584 
L 269.648721 307.584 
L 270.113842 307.584 
L 270.578963 307.584 
L 271.044084 307.584 
L 271.509206 307.584 
L 271.974327 307.584 
L 272.439448 307.584 
L 272.904569 307.584 
L 273.36969 307.584 
L 273.834811 307.584 
L 274.299932 307.584 
L 274.765053 307.584 
L 275.230175 307.584 
L 275.695296 307.584 
L 276.160417 307.584 
L 276.625538 307.584 
L 277.090659 307.584 
L 277.55578 307.584 
L 278.020901 307.584 
L 278.486022 307.584 
L 278.951144 307.584 
L 279.416265 307.584 
L 279.881386 307.584 
L 280.346507 307.584 
L 280.811628 307.584 
L 281.276749 307.584 
L 281.74187 307.584 
L 282.206991 307.584 
L 282.672113 307.584 
L 283.137234 307.584 
L 283.602355 307.584 
L 284.067476 307.584 
L 284.532597 307.584 
L 284.997718 307.584 
L 285.462839 307.584 
L 285.92796 307.584 
L 286.393082 307.584 
L 286.858203 307.584 
L 287.323324 307.584 
L 287.788445 307.584 
L 288.253566 307.584 
L 288.718687 307.584 
L 289.183808 307.584 
L 289.648929 307.584 
L 290.114051 307.584 
L 290.579172 307.584 
L 291.044293 307.584 
L 291.509414 307.584 
L 291.974535 307.584 
L 292.439656 307.584 
L 292.904777 307.584 
L 293.369898 307.584 
L 293.83502 307.584 
L 294.300141 307.584 
L 294.765262 307.584 
L 295.230383 307.584 
L 295.695504 307.584 
L 296.160625 307.584 
L 296.625746 307.584 
L 297.090867 307.584 
L 297.555989 307.584 
L 298.02111 307.584 
L 298.486231 307.584 
L 298.951352 307.584 
L 299.416473 307.584 
L 299.881594 307.584 
L 300.346715 307.584 
L 300.811836 307.584 
L 301.276958 307.584 
L 301.742079 307.584 
L 302.2072 307.584 
L 302.672321 307.584 
L 303.137442 307.584 
L 303.602563 307.584 
L 304.067684 307.584 
L 304.532805 307.584 
L 304.997927 307.584 
L 305.463048 307.584 
L 305.928169 307.584 
L 306.39329 307.584 
L 306.858411 307.584 
L 307.323532 307.584 
L 307.788653 307.584 
L 308.253774 307.584 
L 308.718896 307.584 
L 309.184017 307.584 
L 309.649138 307.584 
L 310.114259 307.584 
L 310.57938 307.584 
L 311.044501 307.584 
L 311.509622 307.584 
L 311.974743 307.584 
L 312.439865 307.584 
L 312.904986 307.584 
L 313.370107 307.584 
L 313.835228 307.584 
L 314.300349 307.584 
L 314.76547 307.584 
L 315.230591 307.584 
L 315.695712 307.584 
L 316.160834 307.584 
L 316.625955 307.584 
L 317.091076 307.584 
L 317.556197 307.584 
L 318.021318 307.584 
L 318.486439 307.584 
L 318.95156 307.584 
L 319.416681 307.584 
L 319.881803 307.584 
L 320.346924 307.584 
L 320.812045 307.584 
L 321.277166 307.584 
L 321.742287 307.584 
L 322.207408 307.584 
L 322.672529 307.584 
L 323.13765 307.584 
L 323.602772 307.584 
L 324.067893 307.584 
L 324.533014 307.584 
L 324.998135 307.584 
L 325.463256 307.584 
L 325.928377 307.584 
L 326.393498 307.584 
L 326.858619 307.584 
L 327.323741 307.584 
L 327.788862 307.584 
L 328.253983 307.584 
L 328.719104 307.584 
L 329.184225 307.584 
L 329.649346 307.584 
L 330.114467 307.584 
L 330.579588 307.584 
L 331.04471 307.584 
L 331.509831 307.584 
L 331.974952 307.584 
L 332.440073 307.584 
L 332.905194 307.584 
L 333.370315 307.584 
L 333.835436 307.584 
L 334.300557 307.584 
L 334.765679 307.584 
L 335.2308 307.584 
L 335.695921 307.584 
L 336.161042 307.584 
L 336.626163 307.584 
L 337.091284 307.584 
L 337.556405 307.584 
L 338.021526 307.584 
L 338.486648 307.584 
L 338.951769 307.584 
L 339.41689 307.584 
L 339.882011 307.584 
L 340.347132 307.584 
L 340.812253 307.584 
L 341.277374 307.584 
L 341.742495 307.584 
L 342.207617 307.584 
L 342.672738 307.584 
L 343.137859 307.584 
L 343.60298 307.584 
L 344.068101 307.584 
L 344.533222 307.584 
L 344.998343 307.584 
L 345.463464 307.584 
L 345.928586 307.584 
L 346.393707 307.584 
L 346.858828 307.584 
L 347.323949 307.584 
L 347.78907 307.584 
L 348.254191 307.584 
L 348.719312 307.584 
L 349.184433 307.584 
L 349.649555 307.584 
L 350.114676 307.584 
L 350.579797 307.584 
L 351.044918 307.584 
L 351.510039 307.584 
L 351.97516 307.584 
L 352.440281 307.584 
L 352.905402 307.584 
L 353.370524 307.584 
L 353.835645 307.584 
L 354.300766 307.584 
L 354.765887 307.584 
L 355.231008 307.584 
L 355.696129 307.584 
L 356.16125 307.584 
L 356.626371 307.584 
L 357.091493 307.584 
L 357.556614 307.584 
L 358.021735 307.584 
L 358.486856 307.584 
L 358.951977 307.584 
L 359.417098 307.584 
L 359.882219 307.584 
L 360.34734 307.584 
L 360.812462 307.584 
L 361.277583 307.584 
L 361.742704 307.584 
L 362.207825 307.584 
L 362.672946 307.584 
L 363.138067 307.584 
L 363.603188 307.584 
L 364.068309 307.584 
L 364.533431 307.584 
L 364.998552 307.584 
L 365.463673 307.584 
L 365.928794 307.584 
L 366.393915 307.584 
L 366.859036 307.584 
L 367.324157 307.584 
L 367.789278 307.584 
L 368.2544 307.584 
L 368.719521 307.584 
L 369.184642 307.584 
L 369.649763 307.584 
L 370.114884 307.584 
L 370.580005 307.584 
L 371.045126 307.584 
L 371.510247 307.584 
L 371.975369 307.584 
L 372.44049 307.584 
L 372.905611 307.584 
L 373.370732 307.584 
L 373.835853 307.584 
L 374.300974 307.584 
L 374.766095 307.584 
L 375.231216 307.584 
L 375.696338 307.584 
L 376.161459 307.584 
L 376.62658 307.584 
L 377.091701 307.584 
L 377.556822 307.584 
L 378.021943 307.584 
L 378.487064 307.584 
L 378.952185 307.584 
L 379.417307 307.584 
L 379.882428 307.584 
L 380.347549 307.584 
L 380.81267 307.584 
L 381.277791 307.584 
L 381.742912 307.584 
L 382.208033 307.584 
L 382.673154 307.584 
L 383.138276 307.584 
L 383.603397 307.584 
L 384.068518 307.584 
L 384.533639 307.584 
L 384.99876 307.584 
L 385.463881 307.584 
L 385.929002 307.584 
L 386.394123 307.584 
L 386.859245 307.584 
L 387.324366 307.584 
L 387.789487 307.584 
L 388.254608 307.584 
L 388.719729 307.584 
L 389.18485 307.584 
L 389.649971 307.584 
L 390.115092 307.584 
L 390.580214 307.584 
L 391.045335 307.584 
L 391.510456 307.584 
L 391.975577 307.584 
L 392.440698 307.584 
L 392.905819 307.584 
L 393.37094 307.584 
L 393.836061 307.584 
L 394.301183 307.584 
L 394.766304 307.584 
L 395.231425 307.584 
L 395.696546 307.584 
L 396.161667 307.584 
L 396.626788 307.584 
L 397.091909 307.584 
L 397.55703 307.584 
L 398.022152 307.584 
L 398.487273 307.584 
L 398.487273 54.144 
L 398.487273 54.144 
L 398.022152 54.144 
L 397.55703 54.144 
L 397.091909 54.144 
L 396.626788 54.144 
L 396.161667 54.144 
L 395.696546 54.144 
L 395.231425 54.144 
L 394.766304 54.144 
L 394.301183 54.144 
L 393.836061 54.144 
L 393.37094 54.144 
L 392.905819 54.144 
L 392.440698 54.144 
L 391.975577 54.144 
L 391.510456 54.144 
L 391.045335 54.144 
L 390.580214 54.144 
L 390.115092 54.144 
L 389.649971 54.144 
L 389.18485 54.144 
L 388.719729 54.144 
L 388.254608 54.144 
L 387.789487 54.144 
L 387.324366 54.144 
L 386.859245 54.144 
L 386.394123 54.144 
L 385.929002 54.144 
L 385.463881 54.144 
L 384.99876 54.144 
L 384.533639 54.144 
L 384.068518 54.144 
L 383.603397 54.144 
L 383.138276 54.144 
L 382.673154 54.144 
L 382.208033 54.144 
L 381.742912 54.144 
L 381.277791 54.144 
L 380.81267 54.144 
L 380.347549 54.144 
L 379.882428 54.144 
L 379.417307 54.144 
L 378.952185 54.144 
L 378.487064 54.144 
L 378.021943 54.144 
L 377.556822 54.144 
L 377.091701 54.144 
L 376.62658 54.144 
L 376.161459 54.144 
L 375.696338 54.144 
L 375.231216 54.144 
L 374.766095 54.144 
L 374.300974 54.144 
L 373.835853 54.144 
L 373.370732 54.144 
L 372.905611 54.144 
L 372.44049 54.144 
L 371.975369 54.144 
L 371.510247 54.144 
L 371.045126 54.144 
L 370.580005 54.144 
L 370.114884 54.144 
L 369.649763 54.144 
L 369.184642 54.144 
L 368.719521 54.144 
L 368.2544 54.144 
L 367.789278 54.144 
L 367.324157 54.144 
L 366.859036 54.144 
L 366.393915 54.144 
L 365.928794 54.144 
L 365.463673 54.144 
L 364.998552 54.144 
L 364.533431 54.144 
L 364.068309 54.144 
L 363.603188 54.144 
L 363.138067 54.144 
L 362.672946 54.144 
L 362.207825 54.144 
L 361.742704 54.144 
L 361.277583 54.144 
L 360.812462 54.144 
L 360.34734 54.144 
L 359.882219 54.144 
L 359.417098 54.144 
L 358.951977 54.144 
L 358.486856 54.144 
L 358.021735 54.144 
L 357.556614 54.144 
L 357.091493 54.144 
L 356.626371 54.144 
L 356.16125 54.144 
L 355.696129 54.144 
L 355.231008 54.144 
L 354.765887 54.144 
L 354.300766 54.144 
L 353.835645 54.144 
L 353.370524 54.144 
L 352.905402 54.144 
L 352.440281 54.144 
L 351.97516 54.144 
L 351.510039 54.144 
L 351.044918 54.144 
L 350.579797 54.144 
L 350.114676 54.144 
L 349.649555 54.144 
L 349.184433 54.144 
L 348.719312 54.144 
L 348.254191 54.144 
L 347.78907 54.144 
L 347.323949 54.144 
L 346.858828 54.144 
L 346.393707 54.144 
L 345.928586 54.144 
L 345.463464 54.144 
L 344.998343 54.144 
L 344.533222 54.144 
L 344.068101 54.144 
L 343.60298 54.144 
L 343.137859 54.144 
L 342.672738 54.144 
L 342.207617 54.144 
L 341.742495 54.144 
L 341.277374 54.144 
L 340.812253 54.144 
L 340.347132 54.144 
L 339.882011 54.144 
L 339.41689 54.144 
L 338.951769 54.144 
L 338.486648 54.144 
L 338.021526 54.144 
L 337.556405 54.144 
L 337.091284 54.144 
L 336.626163 54.144 
L 336.161042 54.144 
L 335.695921 54.144 
L 335.2308 54.144 
L 334.765679 54.144 
L 334.300557 54.144 
L 333.835436 54.144 
L 333.370315 54.144 
L 332.905194 54.144 
L 332.440073 54.144 
L 331.974952 54.144 
L 331.509831 54.144 
L 331.04471 54.144 
L 330.579588 54.144 
L 330.114467 54.144 
L 329.649346 54.144 
L 329.184225 54.144 
L 328.719104 54.144 
L 328.253983 54.144 
L 327.788862 54.144 
L 327.323741 54.144 
L 326.858619 54.144 
L 326.393498 54.144 
L 325.928377 54.144 
L 325.463256 54.144 
L 324.998135 54.144 
L 324.533014 54.144 
L 324.067893 54.144 
L 323.602772 54.144 
L 323.13765 54.144 
L 322.672529 54.144 
L 322.207408 54.144 
L 321.742287 54.144 
L 321.277166 54.144 
L 320.812045 54.144 
L 320.346924 54.144 
L 319.881803 54.144 
L 319.416681 54.144 
L 318.95156 54.144 
L 318.486439 54.144 
L 318.021318 54.144 
L 317.556197 54.144 
L 317.091076 54.144 
L 316.625955 54.144 
L 316.160834 54.144 
L 315.695712 54.144 
L 315.230591 54.144 
L 314.76547 54.144 
L 314.300349 54.144 
L 313.835228 54.144 
L 313.370107 54.144 
L 312.904986 54.144 
L 312.439865 54.144 
L 311.974743 54.144 
L 311.509622 54.144 
L 311.044501 54.144 
L 310.57938 54.144 
L 310.114259 54.144 
L 309.649138 54.144 
L 309.184017 54.144 
L 308.718896 54.144 
L 308.253774 54.144 
L 307.788653 54.144 
L 307.323532 54.144 
L 306.858411 54.144 
L 306.39329 54.144 
L 305.928169 54.144 
L 305.463048 54.144 
L 304.997927 54.144 
L 304.532805 54.144 
L 304.067684 54.144 
L 303.602563 54.144 
L 303.137442 54.144 
L 302.672321 54.144 
L 302.2072 54.144 
L 301.742079 54.144 
L 301.276958 54.144 
L 300.811836 54.144 
L 300.346715 54.144 
L 299.881594 54.144 
L 299.416473 54.144 
L 298.951352 54.144 
L 298.486231 54.144 
L 298.02111 54.144 
L 297.555989 54.144 
L 297.090867 54.144 
L 296.625746 54.144 
L 296.160625 54.144 
L 295.695504 54.144 
L 295.230383 54.144 
L 294.765262 54.144 
L 294.300141 54.144 
L 293.83502 54.144 
L 293.369898 54.144 
L 292.904777 54.144 
L 292.439656 54.144 
L 291.974535 54.144 
L 291.509414 54.144 
L 291.044293 54.144 
L 290.579172 54.144 
L 290.114051 54.144 
L 289.648929 54.144 
L 289.183808 54.144 
L 288.718687 54.144 
L 288.253566 54.144 
L 287.788445 54.144 
L 287.323324 54.144 
L 286.858203 54.144 
L 286.393082 54.144 
L 285.92796 54.144 
L 285.462839 54.144 
L 284.997718 54.144 
L 284.532597 54.144 
L 284.067476 54.144 
L 283.602355 54.144 
L 283.137234 54.144 
L 282.672113 54.144 
L 282.206991 54.144 
L 281.74187 54.144 
L 281.276749 54.144 
L 280.811628 54.144 
L 280.346507 54.144 
L 279.881386 54.144 
L 279.416265 54.144 
L 278.951144 54.144 
L 278.486022 54.144 
L 278.020901 54.144 
L 277.55578 54.144 
L 277.090659 54.144 
L 276.625538 54.144 
L 276.160417 54.144 
L 275.695296 54.144 
L 275.230175 54.144 
L 274.765053 54.144 
L 274.299932 54.144 
L 273.834811 54.144 
L 273.36969 54.144 
L 272.904569 54.144 
L 272.439448 54.144 
L 271.974327 54.144 
L 271.509206 54.144 
L 271.044084 54.144 
L 270.578963 54.144 
L 270.113842 54.144 
L 269.648721 54.144 
L 269.1836 54.144 
L 268.718479 54.144 
L 268.253358 54.144 
L 267.788237 54.144 
L 267.323115 54.144 
L 266.857994 54.144 
L 266.392873 54.144 
L 265.927752 54.144 
L 265.462631 54.144 
L 264.99751 54.144 
L 264.532389 54.144 
L 264.067268 54.144 
L 263.602146 54.144 
L 263.137025 54.144 
L 262.671904 54.144 
L 262.206783 54.144 
L 261.741662 54.144 
L 261.276541 54.144 
L 260.81142 54.144 
L 260.346299 54.144 
L 259.881177 54.144 
L 259.416056 54.144 
L 258.950935 54.144 
L 258.485814 54.144 
L 258.020693 54.144 
L 257.555572 54.144 
L 257.090451 54.144 
L 256.62533 54.144 
L 256.160208 54.144 
L 255.695087 54.144 
L 255.229966 54.144 
L 254.764845 54.144 
L 254.299724 54.144 
L 253.834603 54.144 
L 253.369482 54.144 
L 252.904361 54.144 
L 252.439239 54.144 
L 251.974118 54.144 
L 251.508997 54.144 
L 251.043876 54.144 
L 250.578755 54.144 
L 250.113634 54.144 
L 249.648513 54.144 
L 249.183392 54.144 
L 248.71827 54.144 
L 248.253149 54.144 
L 247.788028 54.144 
L 247.322907 54.144 
L 246.857786 54.144 
L 246.392665 54.144 
L 245.927544 54.144 
L 245.462423 54.144 
L 244.997301 54.144 
L 244.53218 54.144 
L 244.067059 54.144 
L 243.601938 54.144 
L 243.136817 54.144 
L 242.671696 54.144 
L 242.206575 54.144 
L 241.741454 54.144 
L 241.276332 54.144 
L 240.811211 54.144 
L 240.34609 54.144 
L 239.880969 54.144 
L 239.415848 54.144 
L 238.950727 54.144 
L 238.485606 54.144 
L 238.020485 54.144 
L 237.555363 54.144 
L 237.090242 54.144 
L 236.625121 54.144 
L 236.16 54.144 
L 235.694879 54.144 
L 235.229758 54.144 
L 234.764637 54.144 
L 234.299515 54.144 
L 233.834394 54.144 
L 233.369273 54.144 
L 232.904152 54.144 
L 232.439031 54.144 
L 231.97391 54.144 
L 231.508789 54.144 
L 231.043668 54.144 
L 230.578546 54.144 
L 230.113425 54.144 
L 229.648304 54.144 
L 229.183183 54.144 
L 228.718062 54.144 
L 228.252941 54.144 
L 227.78782 54.144 
L 227.322699 54.144 
L 226.857577 54.144 
L 226.392456 54.144 
L 225.927335 54.144 
L 225.462214 54.144 
L 224.997093 54.144 
L 224.531972 54.144 
L 224.066851 54.144 
L 223.60173 54.144 
L 223.136608 54.144 
L 222.671487 54.144 
L 222.206366 54.144 
L 221.741245 54.144 
L 221.276124 54.144 
L 220.811003 54.144 
L 220.345882 54.144 
L 219.880761 54.144 
L 219.415639 54.144 
L 218.950518 54.144 
L 218.485397 54.144 
L 218.020276 54.144 
L 217.555155 54.144 
L 217.090034 54.144 
L 216.624913 54.144 
L 216.159792 54.144 
L 215.69467 54.144 
L 215.229549 54.144 
L 214.764428 54.144 
L 214.299307 54.144 
L 213.834186 54.144 
L 213.369065 54.144 
L 212.903944 54.144 
L 212.438823 54.144 
L 211.973701 54.144 
L 211.50858 54.144 
L 211.043459 54.144 
L 210.578338 54.144 
L 210.113217 54.144 
L 209.648096 54.144 
L 209.182975 54.144 
L 208.717854 54.144 
L 208.252732 54.144 
L 207.787611 54.144 
L 207.32249 54.144 
L 206.857369 54.144 
L 206.392248 54.144 
L 205.927127 54.144 
L 205.462006 54.144 
L 204.996885 54.144 
L 204.531763 54.144 
L 204.066642 54.144 
L 203.601521 54.144 
L 203.1364 54.144 
L 202.671279 54.144 
L 202.206158 54.144 
L 201.741037 54.144 
L 201.275916 54.144 
L 200.810794 54.144 
L 200.345673 54.144 
L 199.880552 54.144 
L 199.415431 54.144 
L 198.95031 54.144 
L 198.485189 54.144 
L 198.020068 54.144 
L 197.554947 54.144 
L 197.089825 54.144 
L 196.624704 54.144 
L 196.159583 54.144 
L 195.694462 54.144 
L 195.229341 54.144 
L 194.76422 54.144 
L 194.299099 54.144 
L 193.833978 54.144 
L 193.368856 54.144 
L 192.903735 54.144 
L 192.438614 54.144 
L 191.973493 54.144 
L 191.508372 54.144 
L 191.043251 54.144 
L 190.57813 54.144 
L 190.113009 54.144 
L 189.647887 54.144 
L 189.182766 54.144 
L 188.717645 54.144 
L 188.252524 54.144 
L 187.787403 54.144 
L 187.322282 54.144 
L 186.857161 54.144 
L 186.39204 54.144 
L 185.926918 54.144 
L 185.461797 54.144 
L 184.996676 54.144 
L 184.531555 54.144 
L 184.066434 54.144 
L 183.601313 54.144 
L 183.136192 54.144 
L 182.671071 54.144 
L 182.205949 54.144 
L 181.740828 54.144 
L 181.275707 54.144 
L 180.810586 54.144 
L 180.345465 54.144 
L 179.880344 54.144 
L 179.415223 54.144 
L 178.950102 54.144 
L 178.48498 54.144 
L 178.019859 54.144 
L 177.554738 54.144 
L 177.089617 54.144 
L 176.624496 54.144 
L 176.159375 54.144 
L 175.694254 54.144 
L 175.229133 54.144 
L 174.764011 54.144 
L 174.29889 54.144 
L 173.833769 54.144 
L 173.368648 54.144 
L 172.903527 54.144 
L 172.438406 54.144 
L 171.973285 54.144 
L 171.508164 54.144 
L 171.043042 54.144 
L 170.577921 54.144 
L 170.1128 54.144 
L 169.647679 54.144 
L 169.182558 54.144 
L 168.717437 54.144 
L 168.252316 54.144 
L 167.787195 54.144 
L 167.322073 54.144 
L 166.856952 54.144 
L 166.391831 54.144 
L 165.92671 54.144 
L 165.461589 54.144 
L 164.996468 54.144 
L 164.531347 54.144 
L 164.066226 54.144 
L 163.601104 54.144 
L 163.135983 54.144 
L 162.670862 54.144 
L 162.205741 54.144 
L 161.74062 54.144 
L 161.275499 54.144 
L 160.810378 54.144 
L 160.345257 54.144 
L 159.880135 54.144 
L 159.415014 54.144 
L 158.949893 54.144 
L 158.484772 54.144 
L 158.019651 54.144 
L 157.55453 54.144 
L 157.089409 54.144 
L 156.624288 54.144 
L 156.159166 54.144 
L 155.694045 54.144 
L 155.228924 54.144 
L 154.763803 54.144 
L 154.298682 54.144 
L 153.833561 54.144 
L 153.36844 54.144 
L 152.903319 54.144 
L 152.438197 54.144 
L 151.973076 54.144 
L 151.507955 54.144 
L 151.042834 54.144 
L 150.577713 54.144 
L 150.112592 54.144 
L 149.647471 54.144 
L 149.18235 54.144 
L 148.717228 54.144 
L 148.252107 54.144 
L 147.786986 54.144 
L 147.321865 54.144 
L 146.856744 54.144 
L 146.391623 54.144 
L 145.926502 54.144 
L 145.461381 54.144 
L 144.996259 54.144 
L 144.531138 54.144 
L 144.066017 54.144 
L 143.600896 54.144 
L 143.135775 54.144 
L 142.670654 54.144 
L 142.205533 54.144 
L 141.740412 54.144 
L 141.27529 54.144 
L 140.810169 54.144 
L 140.345048 54.144 
L 139.879927 54.144 
L 139.414806 54.144 
L 138.949685 54.144 
L 138.484564 54.144 
L 138.019443 54.144 
L 137.554321 54.144 
L 137.0892 54.144 
L 136.624079 54.144 
L 136.158958 54.144 
L 135.693837 54.144 
L 135.228716 54.144 
L 134.763595 54.144 
L 134.298474 54.144 
L 133.833352 54.144 
L 133.368231 54.144 
L 132.90311 54.144 
L 132.437989 54.144 
L 131.972868 54.144 
L 131.507747 54.144 
L 131.042626 54.144 
L 130.577505 54.144 
L 130.112383 54.144 
L 129.647262 54.144 
L 129.182141 54.144 
L 128.71702 54.144 
L 128.251899 54.144 
L 127.786778 54.144 
L 127.321657 54.144 
L 126.856536 54.144 
L 126.391414 54.144 
L 125.926293 54.144 
L 125.461172 54.144 
L 124.996051 54.144 
L 124.53093 54.144 
L 124.065809 54.144 
L 123.600688 54.144 
L 123.135567 54.144 
L 122.670445 54.144 
L 122.205324 54.144 
L 121.740203 54.144 
L 121.275082 54.144 
L 120.809961 54.144 
L 120.34484 54.144 
L 119.879719 54.144 
L 119.414598 54.144 
L 118.949476 54.144 
L 118.484355 54.144 
L 118.019234 54.144 
L 117.554113 54.144 
L 117.088992 54.144 
L 116.623871 54.144 
L 116.15875 54.144 
L 115.693629 54.144 
L 115.228507 54.144 
L 114.763386 54.144 
L 114.298265 54.144 
L 113.833144 54.144 
L 113.368023 54.144 
L 112.902902 54.144 
L 112.437781 54.144 
L 111.97266 54.144 
L 111.507538 54.144 
L 111.042417 54.144 
L 110.577296 54.144 
L 110.112175 54.144 
L 109.647054 54.144 
L 109.181933 54.144 
L 108.716812 54.144 
L 108.251691 54.144 
L 107.786569 54.144 
L 107.321448 54.144 
L 106.856327 54.144 
L 106.391206 54.144 
L 105.926085 54.144 
L 105.460964 54.144 
L 104.995843 54.144 
L 104.530722 54.144 
L 104.0656 54.144 
L 103.600479 54.144 
L 103.135358 54.144 
L 102.670237 54.144 
L 102.205116 54.144 
L 101.739995 54.144 
L 101.274874 54.144 
L 100.809753 54.144 
L 100.344631 54.144 
L 99.87951 54.144 
L 99.414389 54.144 
L 98.949268 54.144 
L 98.484147 54.144 
L 98.019026 54.144 
L 97.553905 54.144 
L 97.088784 54.144 
L 96.623662 54.144 
L 96.158541 54.144 
L 95.69342 54.144 
L 95.228299 54.144 
L 94.763178 54.144 
L 94.298057 54.144 
L 93.832936 54.144 
L 93.367815 54.144 
L 92.902693 54.144 
L 92.437572 54.144 
L 91.972451 54.144 
L 91.50733 54.144 
L 91.042209 54.144 
L 90.577088 54.144 
L 90.111967 54.144 
L 89.646846 54.144 
L 89.181724 54.144 
L 88.716603 54.144 
L 88.251482 54.144 
L 87.786361 54.144 
L 87.32124 54.144 
L 86.856119 54.144 
L 86.390998 54.144 
L 85.925877 54.144 
L 85.460755 54.144 
L 84.995634 54.144 
L 84.530513 54.144 
L 84.065392 54.144 
L 83.600271 54.144 
L 83.13515 54.144 
L 82.670029 54.144 
L 82.204908 54.144 
L 81.739786 54.144 
L 81.274665 54.144 
L 80.809544 54.144 
L 80.344423 54.144 
L 79.879302 54.144 
L 79.414181 54.144 
L 78.94906 54.144 
L 78.483939 54.144 
L 78.018817 54.144 
L 77.553696 54.144 
L 77.088575 54.144 
L 76.623454 54.144 
L 76.158333 54.144 
L 75.693212 54.144 
L 75.228091 54.144 
L 74.76297 54.144 
L 74.297848 54.144 
L 73.832727 54.144 
z
" clip-path="url(#p2f874f7eb6)" style="fill: #1f77b4"/>
   </g>
   <g id="matplotlib.axis_1">
    <g id="xtick_1">
     <g id="line2d_1">
      <defs>
       <path id="mcfc8fdad58" d="M 0 0 
L 0 3.5 
" style="stroke: #000000; stroke-width: 0.8"/>
      </defs>
      <g>
       <use xlink:href="#mcfc8fdad58" x="73.832727" y="307.584" style="stroke: #000000; stroke-width: 0.8"/>
      </g>
     </g>
     <g id="text_1">
      <!-- 0 -->
      <g transform="translate(70.651477 322.182437) scale(0.1 -0.1)">
       <defs>
        <path id="DejaVuSans-30" d="M 2034 4250 
Q 1547 4250 1301 3770 
Q 1056 3291 1056 2328 
Q 1056 1369 1301 889 
Q 1547 409 2034 409 
Q 2525 409 2770 889 
Q 3016 1369 3016 2328 
Q 3016 3291 2770 3770 
Q 2525 4250 2034 4250 
z
M 2034 4750 
Q 2819 4750 3233 4129 
Q 3647 3509 3647 2328 
Q 3647 1150 3233 529 
Q 2819 -91 2034 -91 
Q 1250 -91 836 529 
Q 422 1150 422 2328 
Q 422 3509 836 4129 
Q 1250 4750 2034 4750 
z
" transform="scale(0.015625)"/>
       </defs>
       <use xlink:href="#DejaVuSans-30"/>
      </g>
     </g>
    </g>
    <g id="xtick_2">
     <g id="line2d_2">
      <g>
       <use xlink:href="#mcfc8fdad58" x="120.34484" y="307.584" style="stroke: #000000; stroke-width: 0.8"/>
      </g>
     </g>
     <g id="text_2">
      <!-- 100 -->
      <g transform="translate(110.80109 322.182437) scale(0.1 -0.1)">
       <defs>
        <path id="DejaVuSans-31" d="M 794 531 
L 1825 531 
L 1825 4091 
L 703 3866 
L 703 4441 
L 1819 4666 
L 2450 4666 
L 2450 531 
L 3481 531 
L 3481 0 
L 794 0 
L 794 531 
z
" transform="scale(0.015625)"/>
       </defs>
       <use xlink:href="#DejaVuSans-31"/>
       <use xlink:href="#DejaVuSans-30" x="63.623047"/>
       <use xlink:href="#DejaVuSans-30" x="127.246094"/>
      </g>
     </g>
    </g>
    <g id="xtick_3">
     <g id="line2d_3">
      <g>
       <use xlink:href="#mcfc8fdad58" x="166.856952" y="307.584" style="stroke: #000000; stroke-width: 0.8"/>
      </g>
     </g>
     <g id="text_3">
      <!-- 200 -->
      <g transform="translate(157.313202 322.182437) scale(0.1 -0.1)">
       <defs>
        <path id="DejaVuSans-32" d="M 1228 531 
L 3431 531 
L 3431 0 
L 469 0 
L 469 531 
Q 828 903 1448 1529 
Q 2069 2156 2228 2338 
Q 2531 2678 2651 2914 
Q 2772 3150 2772 3378 
Q 2772 3750 2511 3984 
Q 2250 4219 1831 4219 
Q 1534 4219 1204 4116 
Q 875 4013 500 3803 
L 500 4441 
Q 881 4594 1212 4672 
Q 1544 4750 1819 4750 
Q 2544 4750 2975 4387 
Q 3406 4025 3406 3419 
Q 3406 3131 3298 2873 
Q 3191 2616 2906 2266 
Q 2828 2175 2409 1742 
Q 1991 1309 1228 531 
z
" transform="scale(0.015625)"/>
       </defs>
       <use xlink:href="#DejaVuSans-32"/>
       <use xlink:href="#DejaVuSans-30" x="63.623047"/>
       <use xlink:href="#DejaVuSans-30" x="127.246094"/>
      </g>
     </g>
    </g>
    <g id="xtick_4">
     <g id="line2d_4">
      <g>
       <use xlink:href="#mcfc8fdad58" x="213.369065" y="307.584" style="stroke: #000000; stroke-width: 0.8"/>
      </g>
     </g>
     <g id="text_4">
      <!-- 300 -->
      <g transform="translate(203.825315 322.182437) scale(0.1 -0.1)">
       <defs>
        <path id="DejaVuSans-33" d="M 2597 2516 
Q 3050 2419 3304 2112 
Q 3559 1806 3559 1356 
Q 3559 666 3084 287 
Q 2609 -91 1734 -91 
Q 1441 -91 1130 -33 
Q 819 25 488 141 
L 488 750 
Q 750 597 1062 519 
Q 1375 441 1716 441 
Q 2309 441 2620 675 
Q 2931 909 2931 1356 
Q 2931 1769 2642 2001 
Q 2353 2234 1838 2234 
L 1294 2234 
L 1294 2753 
L 1863 2753 
Q 2328 2753 2575 2939 
Q 2822 3125 2822 3475 
Q 2822 3834 2567 4026 
Q 2313 4219 1838 4219 
Q 1578 4219 1281 4162 
Q 984 4106 628 3988 
L 628 4550 
Q 988 4650 1302 4700 
Q 1616 4750 1894 4750 
Q 2613 4750 3031 4423 
Q 3450 4097 3450 3541 
Q 3450 3153 3228 2886 
Q 3006 2619 2597 2516 
z
" transform="scale(0.015625)"/>
       </defs>
       <use xlink:href="#DejaVuSans-33"/>
       <use xlink:href="#DejaVuSans-30" x="63.623047"/>
       <use xlink:href="#DejaVuSans-30" x="127.246094"/>
      </g>
     </g>
    </g>
    <g id="xtick_5">
     <g id="line2d_5">
      <g>
       <use xlink:href="#mcfc8fdad58" x="259.881177" y="307.584" style="stroke: #000000; stroke-width: 0.8"/>
      </g>
     </g>
     <g id="text_5">
      <!-- 400 -->
      <g transform="translate(250.337427 322.182437) scale(0.1 -0.1)">
       <defs>
        <path id="DejaVuSans-34" d="M 2419 4116 
L 825 1625 
L 2419 1625 
L 2419 4116 
z
M 2253 4666 
L 3047 4666 
L 3047 1625 
L 3713 1625 
L 3713 1100 
L 3047 1100 
L 3047 0 
L 2419 0 
L 2419 1100 
L 313 1100 
L 313 1709 
L 2253 4666 
z
" transform="scale(0.015625)"/>
       </defs>
       <use xlink:href="#DejaVuSans-34"/>
       <use xlink:href="#DejaVuSans-30" x="63.623047"/>
       <use xlink:href="#DejaVuSans-30" x="127.246094"/>
      </g>
     </g>
    </g>
    <g id="xtick_6">
     <g id="line2d_6">
      <g>
       <use xlink:href="#mcfc8fdad58" x="306.39329" y="307.584" style="stroke: #000000; stroke-width: 0.8"/>
      </g>
     </g>
     <g id="text_6">
      <!-- 500 -->
      <g transform="translate(296.84954 322.182437) scale(0.1 -0.1)">
       <defs>
        <path id="DejaVuSans-35" d="M 691 4666 
L 3169 4666 
L 3169 4134 
L 1269 4134 
L 1269 2991 
Q 1406 3038 1543 3061 
Q 1681 3084 1819 3084 
Q 2600 3084 3056 2656 
Q 3513 2228 3513 1497 
Q 3513 744 3044 326 
Q 2575 -91 1722 -91 
Q 1428 -91 1123 -41 
Q 819 9 494 109 
L 494 744 
Q 775 591 1075 516 
Q 1375 441 1709 441 
Q 2250 441 2565 725 
Q 2881 1009 2881 1497 
Q 2881 1984 2565 2268 
Q 2250 2553 1709 2553 
Q 1456 2553 1204 2497 
Q 953 2441 691 2322 
L 691 4666 
z
" transform="scale(0.015625)"/>
       </defs>
       <use xlink:href="#DejaVuSans-35"/>
       <use xlink:href="#DejaVuSans-30" x="63.623047"/>
       <use xlink:href="#DejaVuSans-30" x="127.246094"/>
      </g>
     </g>
    </g>
    <g id="xtick_7">
     <g id="line2d_7">
      <g>
       <use xlink:href="#mcfc8fdad58" x="352.905402" y="307.584" style="stroke: #000000; stroke-width: 0.8"/>
      </g>
     </g>
     <g id="text_7">
      <!-- 600 -->
      <g transform="translate(343.361652 322.182437) scale(0.1 -0.1)">
       <defs>
        <path id="DejaVuSans-36" d="M 2113 2584 
Q 1688 2584 1439 2293 
Q 1191 2003 1191 1497 
Q 1191 994 1439 701 
Q 1688 409 2113 409 
Q 2538 409 2786 701 
Q 3034 994 3034 1497 
Q 3034 2003 2786 2293 
Q 2538 2584 2113 2584 
z
M 3366 4563 
L 3366 3988 
Q 3128 4100 2886 4159 
Q 2644 4219 2406 4219 
Q 1781 4219 1451 3797 
Q 1122 3375 1075 2522 
Q 1259 2794 1537 2939 
Q 1816 3084 2150 3084 
Q 2853 3084 3261 2657 
Q 3669 2231 3669 1497 
Q 3669 778 3244 343 
Q 2819 -91 2113 -91 
Q 1303 -91 875 529 
Q 447 1150 447 2328 
Q 447 3434 972 4092 
Q 1497 4750 2381 4750 
Q 2619 4750 2861 4703 
Q 3103 4656 3366 4563 
z
" transform="scale(0.015625)"/>
       </defs>
       <use xlink:href="#DejaVuSans-36"/>
       <use xlink:href="#DejaVuSans-30" x="63.623047"/>
       <use xlink:href="#DejaVuSans-30" x="127.246094"/>
      </g>
     </g>
    </g>
    <g id="xtick_8">
     <g id="line2d_8">
      <g>
       <use xlink:href="#mcfc8fdad58" x="399.417515" y="307.584" style="stroke: #000000; stroke-width: 0.8"/>
      </g>
     </g>
     <g id="text_8">
      <!-- 700 -->
      <g transform="translate(389.873765 322.182437) scale(0.1 -0.1)">
       <defs>
        <path id="DejaVuSans-37" d="M 525 4666 
L 3525 4666 
L 3525 4397 
L 1831 0 
L 1172 0 
L 2766 4134 
L 525 4134 
L 525 4666 
z
" transform="scale(0.015625)"/>
       </defs>
       <use xlink:href="#DejaVuSans-37"/>
       <use xlink:href="#DejaVuSans-30" x="63.623047"/>
       <use xlink:href="#DejaVuSans-30" x="127.246094"/>
      </g>
     </g>
    </g>
    <g id="text_9">
     <!-- Generations -->
     <g transform="translate(205.662344 335.860562) scale(0.1 -0.1)">
      <defs>
       <path id="DejaVuSans-47" d="M 3809 666 
L 3809 1919 
L 2778 1919 
L 2778 2438 
L 4434 2438 
L 4434 434 
Q 4069 175 3628 42 
Q 3188 -91 2688 -91 
Q 1594 -91 976 548 
Q 359 1188 359 2328 
Q 359 3472 976 4111 
Q 1594 4750 2688 4750 
Q 3144 4750 3555 4637 
Q 3966 4525 4313 4306 
L 4313 3634 
Q 3963 3931 3569 4081 
Q 3175 4231 2741 4231 
Q 1884 4231 1454 3753 
Q 1025 3275 1025 2328 
Q 1025 1384 1454 906 
Q 1884 428 2741 428 
Q 3075 428 3337 486 
Q 3600 544 3809 666 
z
" transform="scale(0.015625)"/>
       <path id="DejaVuSans-65" d="M 3597 1894 
L 3597 1613 
L 953 1613 
Q 991 1019 1311 708 
Q 1631 397 2203 397 
Q 2534 397 2845 478 
Q 3156 559 3463 722 
L 3463 178 
Q 3153 47 2828 -22 
Q 2503 -91 2169 -91 
Q 1331 -91 842 396 
Q 353 884 353 1716 
Q 353 2575 817 3079 
Q 1281 3584 2069 3584 
Q 2775 3584 3186 3129 
Q 3597 2675 3597 1894 
z
M 3022 2063 
Q 3016 2534 2758 2815 
Q 2500 3097 2075 3097 
Q 1594 3097 1305 2825 
Q 1016 2553 972 2059 
L 3022 2063 
z
" transform="scale(0.015625)"/>
       <path id="DejaVuSans-6e" d="M 3513 2113 
L 3513 0 
L 2938 0 
L 2938 2094 
Q 2938 2591 2744 2837 
Q 2550 3084 2163 3084 
Q 1697 3084 1428 2787 
Q 1159 2491 1159 1978 
L 1159 0 
L 581 0 
L 581 3500 
L 1159 3500 
L 1159 2956 
Q 1366 3272 1645 3428 
Q 1925 3584 2291 3584 
Q 2894 3584 3203 3211 
Q 3513 2838 3513 2113 
z
" transform="scale(0.015625)"/>
       <path id="DejaVuSans-72" d="M 2631 2963 
Q 2534 3019 2420 3045 
Q 2306 3072 2169 3072 
Q 1681 3072 1420 2755 
Q 1159 2438 1159 1844 
L 1159 0 
L 581 0 
L 581 3500 
L 1159 3500 
L 1159 2956 
Q 1341 3275 1631 3429 
Q 1922 3584 2338 3584 
Q 2397 3584 2469 3576 
Q 2541 3569 2628 3553 
L 2631 2963 
z
" transform="scale(0.015625)"/>
       <path id="DejaVuSans-61" d="M 2194 1759 
Q 1497 1759 1228 1600 
Q 959 1441 959 1056 
Q 959 750 1161 570 
Q 1363 391 1709 391 
Q 2188 391 2477 730 
Q 2766 1069 2766 1631 
L 2766 1759 
L 2194 1759 
z
M 3341 1997 
L 3341 0 
L 2766 0 
L 2766 531 
Q 2569 213 2275 61 
Q 1981 -91 1556 -91 
Q 1019 -91 701 211 
Q 384 513 384 1019 
Q 384 1609 779 1909 
Q 1175 2209 1959 2209 
L 2766 2209 
L 2766 2266 
Q 2766 2663 2505 2880 
Q 2244 3097 1772 3097 
Q 1472 3097 1187 3025 
Q 903 2953 641 2809 
L 641 3341 
Q 956 3463 1253 3523 
Q 1550 3584 1831 3584 
Q 2591 3584 2966 3190 
Q 3341 2797 3341 1997 
z
" transform="scale(0.015625)"/>
       <path id="DejaVuSans-74" d="M 1172 4494 
L 1172 3500 
L 2356 3500 
L 2356 3053 
L 1172 3053 
L 1172 1153 
Q 1172 725 1289 603 
Q 1406 481 1766 481 
L 2356 481 
L 2356 0 
L 1766 0 
Q 1100 0 847 248 
Q 594 497 594 1153 
L 594 3053 
L 172 3053 
L 172 3500 
L 594 3500 
L 594 4494 
L 1172 4494 
z
" transform="scale(0.015625)"/>
       <path id="DejaVuSans-69" d="M 603 3500 
L 1178 3500 
L 1178 0 
L 603 0 
L 603 3500 
z
M 603 4863 
L 1178 4863 
L 1178 4134 
L 603 4134 
L 603 4863 
z
" transform="scale(0.015625)"/>
       <path id="DejaVuSans-6f" d="M 1959 3097 
Q 1497 3097 1228 2736 
Q 959 2375 959 1747 
Q 959 1119 1226 758 
Q 1494 397 1959 397 
Q 2419 397 2687 759 
Q 2956 1122 2956 1747 
Q 2956 2369 2687 2733 
Q 2419 3097 1959 3097 
z
M 1959 3584 
Q 2709 3584 3137 3096 
Q 3566 2609 3566 1747 
Q 3566 888 3137 398 
Q 2709 -91 1959 -91 
Q 1206 -91 779 398 
Q 353 888 353 1747 
Q 353 2609 779 3096 
Q 1206 3584 1959 3584 
z
" transform="scale(0.015625)"/>
       <path id="DejaVuSans-73" d="M 2834 3397 
L 2834 2853 
Q 2591 2978 2328 3040 
Q 2066 3103 1784 3103 
Q 1356 3103 1142 2972 
Q 928 2841 928 2578 
Q 928 2378 1081 2264 
Q 1234 2150 1697 2047 
L 1894 2003 
Q 2506 1872 2764 1633 
Q 3022 1394 3022 966 
Q 3022 478 2636 193 
Q 2250 -91 1575 -91 
Q 1294 -91 989 -36 
Q 684 19 347 128 
L 347 722 
Q 666 556 975 473 
Q 1284 391 1588 391 
Q 1994 391 2212 530 
Q 2431 669 2431 922 
Q 2431 1156 2273 1281 
Q 2116 1406 1581 1522 
L 1381 1569 
Q 847 1681 609 1914 
Q 372 2147 372 2553 
Q 372 3047 722 3315 
Q 1072 3584 1716 3584 
Q 2034 3584 2315 3537 
Q 2597 3491 2834 3397 
z
" transform="scale(0.015625)"/>
      </defs>
      <use xlink:href="#DejaVuSans-47"/>
      <use xlink:href="#DejaVuSans-65" x="77.490234"/>
      <use xlink:href="#DejaVuSans-6e" x="139.013672"/>
      <use xlink:href="#DejaVuSans-65" x="202.392578"/>
      <use xlink:href="#DejaVuSans-72" x="263.916016"/>
      <use xlink:href="#DejaVuSans-61" x="305.029297"/>
      <use xlink:href="#DejaVuSans-74" x="366.308594"/>
      <use xlink:href="#DejaVuSans-69" x="405.517578"/>
      <use xlink:href="#DejaVuSans-6f" x="433.300781"/>
      <use xlink:href="#DejaVuSans-6e" x="494.482422"/>
      <use xlink:href="#DejaVuSans-73" x="557.861328"/>
     </g>
    </g>
   </g>
   <g id="matplotlib.axis_2">
    <g id="ytick_1">
     <g id="line2d_9">
      <defs>
       <path id="m2fc25d3317" d="M 0 0 
L -3.5 0 
" style="stroke: #000000; stroke-width: 0.8"/>
      </defs>
      <g>
       <use xlink:href="#m2fc25d3317" x="57.6" y="307.584" style="stroke: #000000; stroke-width: 0.8"/>
      </g>
     </g>
     <g id="text_10">
      <!-- 0 -->
      <g transform="translate(44.2375 311.383219) scale(0.1 -0.1)">
       <use xlink:href="#DejaVuSans-30"/>
      </g>
     </g>
    </g>
    <g id="ytick_2">
     <g id="line2d_10">
      <g>
       <use xlink:href="#m2fc25d3317" x="57.6" y="272.384" style="stroke: #000000; stroke-width: 0.8"/>
      </g>
     </g>
     <g id="text_11">
      <!-- 10 -->
      <g transform="translate(37.875 276.183219) scale(0.1 -0.1)">
       <use xlink:href="#DejaVuSans-31"/>
       <use xlink:href="#DejaVuSans-30" x="63.623047"/>
      </g>
     </g>
    </g>
    <g id="ytick_3">
     <g id="line2d_11">
      <g>
       <use xlink:href="#m2fc25d3317" x="57.6" y="237.184" style="stroke: #000000; stroke-width: 0.8"/>
      </g>
     </g>
     <g id="text_12">
      <!-- 20 -->
      <g transform="translate(37.875 240.983219) scale(0.1 -0.1)">
       <use xlink:href="#DejaVuSans-32"/>
       <use xlink:href="#DejaVuSans-30" x="63.623047"/>
      </g>
     </g>
    </g>
    <g id="ytick_4">
     <g id="line2d_12">
      <g>
       <use xlink:href="#m2fc25d3317" x="57.6" y="201.984" style="stroke: #000000; stroke-width: 0.8"/>
      </g>
     </g>
     <g id="text_13">
      <!-- 30 -->
      <g transform="translate(37.875 205.783219) scale(0.1 -0.1)">
       <use xlink:href="#DejaVuSans-33"/>
       <use xlink:href="#DejaVuSans-30" x="63.623047"/>
      </g>
     </g>
    </g>
    <g id="ytick_5">
     <g id="line2d_13">
      <g>
       <use xlink:href="#m2fc25d3317" x="57.6" y="166.784" style="stroke: #000000; stroke-width: 0.8"/>
      </g>
     </g>
     <g id="text_14">
      <!-- 40 -->
      <g transform="translate(37.875 170.583219) scale(0.1 -0.1)">
       <use xlink:href="#DejaVuSans-34"/>
       <use xlink:href="#DejaVuSans-30" x="63.623047"/>
      </g>
     </g>
    </g>
    <g id="ytick_6">
     <g id="line2d_14">
      <g>
       <use xlink:href="#m2fc25d3317" x="57.6" y="131.584" style="stroke: #000000; stroke-width: 0.8"/>
      </g>
     </g>
     <g id="text_15">
      <!-- 50 -->
      <g transform="translate(37.875 135.383219) scale(0.1 -0.1)">
       <use xlink:href="#DejaVuSans-35"/>
       <use xlink:href="#DejaVuSans-30" x="63.623047"/>
      </g>
     </g>
    </g>
    <g id="ytick_7">
     <g id="line2d_15">
      <g>
       <use xlink:href="#m2fc25d3317" x="57.6" y="96.384" style="stroke: #000000; stroke-width: 0.8"/>
      </g>
     </g>
     <g id="text_16">
      <!-- 60 -->
      <g transform="translate(37.875 100.183219) scale(0.1 -0.1)">
       <use xlink:href="#DejaVuSans-36"/>
       <use xlink:href="#DejaVuSans-30" x="63.623047"/>
      </g>
     </g>
    </g>
    <g id="ytick_8">
     <g id="line2d_16">
      <g>
       <use xlink:href="#m2fc25d3317" x="57.6" y="61.184" style="stroke: #000000; stroke-width: 0.8"/>
      </g>
     </g>
     <g id="text_17">
      <!-- 70 -->
      <g transform="translate(37.875 64.983219) scale(0.1 -0.1)">
       <use xlink:href="#DejaVuSans-37"/>
       <use xlink:href="#DejaVuSans-30" x="63.623047"/>
      </g>
     </g>
    </g>
    <g id="text_18">
     <!-- Size per Species -->
     <g transform="translate(31.795312 215.520969) rotate(-90) scale(0.1 -0.1)">
      <defs>
       <path id="DejaVuSans-53" d="M 3425 4513 
L 3425 3897 
Q 3066 4069 2747 4153 
Q 2428 4238 2131 4238 
Q 1616 4238 1336 4038 
Q 1056 3838 1056 3469 
Q 1056 3159 1242 3001 
Q 1428 2844 1947 2747 
L 2328 2669 
Q 3034 2534 3370 2195 
Q 3706 1856 3706 1288 
Q 3706 609 3251 259 
Q 2797 -91 1919 -91 
Q 1588 -91 1214 -16 
Q 841 59 441 206 
L 441 856 
Q 825 641 1194 531 
Q 1563 422 1919 422 
Q 2459 422 2753 634 
Q 3047 847 3047 1241 
Q 3047 1584 2836 1778 
Q 2625 1972 2144 2069 
L 1759 2144 
Q 1053 2284 737 2584 
Q 422 2884 422 3419 
Q 422 4038 858 4394 
Q 1294 4750 2059 4750 
Q 2388 4750 2728 4690 
Q 3069 4631 3425 4513 
z
" transform="scale(0.015625)"/>
       <path id="DejaVuSans-7a" d="M 353 3500 
L 3084 3500 
L 3084 2975 
L 922 459 
L 3084 459 
L 3084 0 
L 275 0 
L 275 525 
L 2438 3041 
L 353 3041 
L 353 3500 
z
" transform="scale(0.015625)"/>
       <path id="DejaVuSans-20" transform="scale(0.015625)"/>
       <path id="DejaVuSans-70" d="M 1159 525 
L 1159 -1331 
L 581 -1331 
L 581 3500 
L 1159 3500 
L 1159 2969 
Q 1341 3281 1617 3432 
Q 1894 3584 2278 3584 
Q 2916 3584 3314 3078 
Q 3713 2572 3713 1747 
Q 3713 922 3314 415 
Q 2916 -91 2278 -91 
Q 1894 -91 1617 61 
Q 1341 213 1159 525 
z
M 3116 1747 
Q 3116 2381 2855 2742 
Q 2594 3103 2138 3103 
Q 1681 3103 1420 2742 
Q 1159 2381 1159 1747 
Q 1159 1113 1420 752 
Q 1681 391 2138 391 
Q 2594 391 2855 752 
Q 3116 1113 3116 1747 
z
" transform="scale(0.015625)"/>
       <path id="DejaVuSans-63" d="M 3122 3366 
L 3122 2828 
Q 2878 2963 2633 3030 
Q 2388 3097 2138 3097 
Q 1578 3097 1268 2742 
Q 959 2388 959 1747 
Q 959 1106 1268 751 
Q 1578 397 2138 397 
Q 2388 397 2633 464 
Q 2878 531 3122 666 
L 3122 134 
Q 2881 22 2623 -34 
Q 2366 -91 2075 -91 
Q 1284 -91 818 406 
Q 353 903 353 1747 
Q 353 2603 823 3093 
Q 1294 3584 2113 3584 
Q 2378 3584 2631 3529 
Q 2884 3475 3122 3366 
z
" transform="scale(0.015625)"/>
      </defs>
      <use xlink:href="#DejaVuSans-53"/>
      <use xlink:href="#DejaVuSans-69" x="63.476562"/>
      <use xlink:href="#DejaVuSans-7a" x="91.259766"/>
      <use xlink:href="#DejaVuSans-65" x="143.75"/>
      <use xlink:href="#DejaVuSans-20" x="205.273438"/>
      <use xlink:href="#DejaVuSans-70" x="237.060547"/>
      <use xlink:href="#DejaVuSans-65" x="300.537109"/>
      <use xlink:href="#DejaVuSans-72" x="362.060547"/>
      <use xlink:href="#DejaVuSans-20" x="403.173828"/>
      <use xlink:href="#DejaVuSans-53" x="434.960938"/>
      <use xlink:href="#DejaVuSans-70" x="498.4375"/>
      <use xlink:href="#DejaVuSans-65" x="561.914062"/>
      <use xlink:href="#DejaVuSans-63" x="623.4375"/>
      <use xlink:href="#DejaVuSans-69" x="678.417969"/>
      <use xlink:href="#DejaVuSans-65" x="706.201172"/>
      <use xlink:href="#DejaVuSans-73" x="767.724609"/>
     </g>
    </g>
   </g>
   <g id="patch_3">
    <path d="M 57.6 307.584 
L 57.6 41.472 
" style="fill: none; stroke: #000000; stroke-width: 0.8; stroke-linejoin: miter; stroke-linecap: square"/>
   </g>
   <g id="patch_4">
    <path d="M 414.72 307.584 
L 414.72 41.472 
" style="fill: none; stroke: #000000; stroke-width: 0.8; stroke-linejoin: miter; stroke-linecap: square"/>
   </g>
   <g id="patch_5">
    <path d="M 57.6 307.584 
L 414.72 307.584 
" style="fill: none; stroke: #000000; stroke-width: 0.8; stroke-linejoin: miter; stroke-linecap: square"/>
   </g>
   <g id="patch_6">
    <path d="M 57.6 41.472 
L 414.72 41.472 
" style="fill: none; stroke: #000000; stroke-width: 0.8; stroke-linejoin: miter; stroke-linecap: square"/>
   </g>
   <g id="text_19">
    <!-- Speciation -->
    <g transform="translate(204.714375 35.472) scale(0.12 -0.12)">
     <use xlink:href="#DejaVuSans-53"/>
     <use xlink:href="#DejaVuSans-70" x="63.476562"/>
     <use xlink:href="#DejaVuSans-65" x="126.953125"/>
     <use xlink:href="#DejaVuSans-63" x="188.476562"/>
     <use xlink:href="#DejaVuSans-69" x="243.457031"/>
     <use xlink:href="#DejaVuSans-61" x="271.240234"/>
     <use xlink:href="#DejaVuSans-74" x="332.519531"/>
     <use xlink:href="#DejaVuSans-69" x="371.728516"/>
     <use xlink:href="#DejaVuSans-6f" x="399.511719"/>
     <use xlink:href="#DejaVuSans-6e" x="460.693359"/>
    </g>
   </g>
  </g>
 </g>
 <defs>
  <clipPath id="p2f874f7eb6">
   <rect x="57.6" y="41.472" width="357.12" height="266.112"/>
  </clipPath>
 </defs>
</svg>
